<?xml version="1.0" encoding="utf-8" standalone="no"?>
<!DOCTYPE svg PUBLIC "-//W3C//DTD SVG 1.1//EN"
  "http://www.w3.org/Graphics/SVG/1.1/DTD/svg11.dtd">
<!-- Created with matplotlib (https://matplotlib.org/) -->
<svg height="432pt" version="1.1" viewBox="0 0 720 432" width="720pt" xmlns="http://www.w3.org/2000/svg" xmlns:xlink="http://www.w3.org/1999/xlink">
 <metadata>
  <rdf:RDF xmlns:cc="http://creativecommons.org/ns#" xmlns:dc="http://purl.org/dc/elements/1.1/" xmlns:rdf="http://www.w3.org/1999/02/22-rdf-syntax-ns#">
   <cc:Work>
    <dc:type rdf:resource="http://purl.org/dc/dcmitype/StillImage"/>
    <dc:date>2021-02-17T00:08:15.613927</dc:date>
    <dc:format>image/svg+xml</dc:format>
    <dc:creator>
     <cc:Agent>
      <dc:title>Matplotlib v3.3.2, https://matplotlib.org/</dc:title>
     </cc:Agent>
    </dc:creator>
   </cc:Work>
  </rdf:RDF>
 </metadata>
 <defs>
  <style type="text/css">*{stroke-linecap:butt;stroke-linejoin:round;}</style>
 </defs>
 <g id="figure_1">
  <g id="patch_1">
   <path d="M 0 432 
L 720 432 
L 720 0 
L 0 0 
z
" style="fill:none;"/>
  </g>
  <g id="axes_1">
   <g id="patch_2">
    <path d="M 90 378 
L 648 378 
L 648 51.84 
L 90 51.84 
z
" style="fill:#ffffff;"/>
   </g>
   <g id="patch_3">
    <path clip-path="url(#p4d2b3b64ee)" d="M 115.363636 170.443636 
L 126.391304 170.443636 
L 126.391304 179.547485 
L 115.363636 179.547485 
z
" style="fill:#4285f4;"/>
   </g>
   <g id="patch_4">
    <path clip-path="url(#p4d2b3b64ee)" d="M 225.640316 170.443636 
L 236.667984 170.443636 
L 236.667984 192.317322 
L 225.640316 192.317322 
z
" style="fill:#4285f4;"/>
   </g>
   <g id="patch_5">
    <path clip-path="url(#p4d2b3b64ee)" d="M 335.916996 170.443636 
L 346.944664 170.443636 
L 346.944664 179.490388 
L 335.916996 179.490388 
z
" style="fill:#4285f4;"/>
   </g>
   <g id="patch_6">
    <path clip-path="url(#p4d2b3b64ee)" d="M 446.193676 170.443636 
L 457.221344 170.443636 
L 457.221344 200.670088 
L 446.193676 200.670088 
z
" style="fill:#4285f4;"/>
   </g>
   <g id="patch_7">
    <path clip-path="url(#p4d2b3b64ee)" d="M 556.470356 170.443636 
L 567.498024 170.443636 
L 567.498024 179.361279 
L 556.470356 179.361279 
z
" style="fill:#4285f4;"/>
   </g>
   <g id="patch_8">
    <path clip-path="url(#p4d2b3b64ee)" d="M 126.391304 170.443636 
L 137.418972 170.443636 
L 137.418972 60.635826 
L 126.391304 60.635826 
z
" style="fill:#ea4335;"/>
   </g>
   <g id="patch_9">
    <path clip-path="url(#p4d2b3b64ee)" d="M 236.667984 170.443636 
L 247.695652 170.443636 
L 247.695652 86.511767 
L 236.667984 86.511767 
z
" style="fill:#ea4335;"/>
   </g>
   <g id="patch_10">
    <path clip-path="url(#p4d2b3b64ee)" d="M 346.944664 170.443636 
L 357.972332 170.443636 
L 357.972332 65.508042 
L 346.944664 65.508042 
z
" style="fill:#ea4335;"/>
   </g>
   <g id="patch_11">
    <path clip-path="url(#p4d2b3b64ee)" d="M 457.221344 170.443636 
L 468.249012 170.443636 
L 468.249012 112.602771 
L 457.221344 112.602771 
z
" style="fill:#ea4335;"/>
   </g>
   <g id="patch_12">
    <path clip-path="url(#p4d2b3b64ee)" d="M 567.498024 170.443636 
L 578.525692 170.443636 
L 578.525692 66.362617 
L 567.498024 66.362617 
z
" style="fill:#ea4335;"/>
   </g>
   <g id="patch_13">
    <path clip-path="url(#p4d2b3b64ee)" d="M 137.418972 170.443636 
L 148.44664 170.443636 
L 148.44664 58.194293 
L 137.418972 58.194293 
z
" style="fill:#fbbc04;"/>
   </g>
   <g id="patch_14">
    <path clip-path="url(#p4d2b3b64ee)" d="M 247.695652 170.443636 
L 258.72332 170.443636 
L 258.72332 94.252436 
L 247.695652 94.252436 
z
" style="fill:#fbbc04;"/>
   </g>
   <g id="patch_15">
    <path clip-path="url(#p4d2b3b64ee)" d="M 357.972332 170.443636 
L 369 170.443636 
L 369 66.944339 
L 357.972332 66.944339 
z
" style="fill:#fbbc04;"/>
   </g>
   <g id="patch_16">
    <path clip-path="url(#p4d2b3b64ee)" d="M 468.249012 170.443636 
L 479.27668 170.443636 
L 479.27668 129.331453 
L 468.249012 129.331453 
z
" style="fill:#fbbc04;"/>
   </g>
   <g id="patch_17">
    <path clip-path="url(#p4d2b3b64ee)" d="M 578.525692 170.443636 
L 589.55336 170.443636 
L 589.55336 68.342623 
L 578.525692 68.342623 
z
" style="fill:#fbbc04;"/>
   </g>
   <g id="patch_18">
    <path clip-path="url(#p4d2b3b64ee)" d="M 148.44664 170.443636 
L 159.474308 170.443636 
L 159.474308 151.353851 
L 148.44664 151.353851 
z
" style="fill:#34a853;"/>
   </g>
   <g id="patch_19">
    <path clip-path="url(#p4d2b3b64ee)" d="M 258.72332 170.443636 
L 269.750988 170.443636 
L 269.750988 228.99146 
L 258.72332 228.99146 
z
" style="fill:#34a853;"/>
   </g>
   <g id="patch_20">
    <path clip-path="url(#p4d2b3b64ee)" d="M 369 170.443636 
L 380.027668 170.443636 
L 380.027668 172.879751 
L 369 172.879751 
z
" style="fill:#34a853;"/>
   </g>
   <g id="patch_21">
    <path clip-path="url(#p4d2b3b64ee)" d="M 479.27668 170.443636 
L 490.304348 170.443636 
L 490.304348 288.988265 
L 479.27668 288.988265 
z
" style="fill:#34a853;"/>
   </g>
   <g id="patch_22">
    <path clip-path="url(#p4d2b3b64ee)" d="M 589.55336 170.443636 
L 600.581028 170.443636 
L 600.581028 156.929412 
L 589.55336 156.929412 
z
" style="fill:#34a853;"/>
   </g>
   <g id="patch_23">
    <path clip-path="url(#p4d2b3b64ee)" d="M 159.474308 170.443636 
L 170.501976 170.443636 
L 170.501976 347.826162 
L 159.474308 347.826162 
z
"/>
   </g>
   <g id="patch_24">
    <path clip-path="url(#p4d2b3b64ee)" d="M 269.750988 170.443636 
L 280.778656 170.443636 
L 280.778656 348.290967 
L 269.750988 348.290967 
z
"/>
   </g>
   <g id="patch_25">
    <path clip-path="url(#p4d2b3b64ee)" d="M 380.027668 170.443636 
L 391.055336 170.443636 
L 391.055336 81.414855 
L 380.027668 81.414855 
z
"/>
   </g>
   <g id="patch_26">
    <path clip-path="url(#p4d2b3b64ee)" d="M 490.304348 170.443636 
L 501.332016 170.443636 
L 501.332016 342.287452 
L 490.304348 342.287452 
z
"/>
   </g>
   <g id="patch_27">
    <path clip-path="url(#p4d2b3b64ee)" d="M 600.581028 170.443636 
L 611.608696 170.443636 
L 611.608696 338.53085 
L 600.581028 338.53085 
z
"/>
   </g>
   <g id="patch_28">
    <path clip-path="url(#p4d2b3b64ee)" d="M 170.501976 170.443636 
L 181.529644 170.443636 
L 181.529644 95.565605 
L 170.501976 95.565605 
z
" style="fill:#46bdc6;"/>
   </g>
   <g id="patch_29">
    <path clip-path="url(#p4d2b3b64ee)" d="M 280.778656 170.443636 
L 291.806324 170.443636 
L 291.806324 87.234629 
L 280.778656 87.234629 
z
" style="fill:#46bdc6;"/>
   </g>
   <g id="patch_30">
    <path clip-path="url(#p4d2b3b64ee)" d="M 391.055336 170.443636 
L 402.083004 170.443636 
L 402.083004 85.593638 
L 391.055336 85.593638 
z
" style="fill:#46bdc6;"/>
   </g>
   <g id="patch_31">
    <path clip-path="url(#p4d2b3b64ee)" d="M 501.332016 170.443636 
L 512.359684 170.443636 
L 512.359684 287.232688 
L 501.332016 287.232688 
z
" style="fill:#46bdc6;"/>
   </g>
   <g id="patch_32">
    <path clip-path="url(#p4d2b3b64ee)" d="M 611.608696 170.443636 
L 622.636364 170.443636 
L 622.636364 86.514811 
L 611.608696 86.514811 
z
" style="fill:#46bdc6;"/>
   </g>
   <g id="matplotlib.axis_1">
    <g id="xtick_1">
     <g id="line2d_1">
      <defs>
       <path d="M 0 0 
L 0 3.5 
" id="maec0a8c61f" style="stroke:#000000;stroke-width:0.8;"/>
      </defs>
      <g>
       <use style="stroke:#000000;stroke-width:0.8;" x="142.932806" xlink:href="#maec0a8c61f" y="378"/>
      </g>
     </g>
    </g>
    <g id="xtick_2">
     <g id="line2d_2">
      <g>
       <use style="stroke:#000000;stroke-width:0.8;" x="253.209486" xlink:href="#maec0a8c61f" y="378"/>
      </g>
     </g>
     <g id="text_1">
      <!-- L2: 0.01 -->
      <g transform="translate(232.836049 392.598437)scale(0.1 -0.1)">
       <defs>
        <path d="M 9.8125 72.90625 
L 19.671875 72.90625 
L 19.671875 8.296875 
L 55.171875 8.296875 
L 55.171875 0 
L 9.8125 0 
z
" id="DejaVuSans-76"/>
        <path d="M 19.1875 8.296875 
L 53.609375 8.296875 
L 53.609375 0 
L 7.328125 0 
L 7.328125 8.296875 
Q 12.9375 14.109375 22.625 23.890625 
Q 32.328125 33.6875 34.8125 36.53125 
Q 39.546875 41.84375 41.421875 45.53125 
Q 43.3125 49.21875 43.3125 52.78125 
Q 43.3125 58.59375 39.234375 62.25 
Q 35.15625 65.921875 28.609375 65.921875 
Q 23.96875 65.921875 18.8125 64.3125 
Q 13.671875 62.703125 7.8125 59.421875 
L 7.8125 69.390625 
Q 13.765625 71.78125 18.9375 73 
Q 24.125 74.21875 28.421875 74.21875 
Q 39.75 74.21875 46.484375 68.546875 
Q 53.21875 62.890625 53.21875 53.421875 
Q 53.21875 48.921875 51.53125 44.890625 
Q 49.859375 40.875 45.40625 35.40625 
Q 44.1875 33.984375 37.640625 27.21875 
Q 31.109375 20.453125 19.1875 8.296875 
z
" id="DejaVuSans-50"/>
        <path d="M 11.71875 12.40625 
L 22.015625 12.40625 
L 22.015625 0 
L 11.71875 0 
z
M 11.71875 51.703125 
L 22.015625 51.703125 
L 22.015625 39.3125 
L 11.71875 39.3125 
z
" id="DejaVuSans-58"/>
        <path id="DejaVuSans-32"/>
        <path d="M 31.78125 66.40625 
Q 24.171875 66.40625 20.328125 58.90625 
Q 16.5 51.421875 16.5 36.375 
Q 16.5 21.390625 20.328125 13.890625 
Q 24.171875 6.390625 31.78125 6.390625 
Q 39.453125 6.390625 43.28125 13.890625 
Q 47.125 21.390625 47.125 36.375 
Q 47.125 51.421875 43.28125 58.90625 
Q 39.453125 66.40625 31.78125 66.40625 
z
M 31.78125 74.21875 
Q 44.046875 74.21875 50.515625 64.515625 
Q 56.984375 54.828125 56.984375 36.375 
Q 56.984375 17.96875 50.515625 8.265625 
Q 44.046875 -1.421875 31.78125 -1.421875 
Q 19.53125 -1.421875 13.0625 8.265625 
Q 6.59375 17.96875 6.59375 36.375 
Q 6.59375 54.828125 13.0625 64.515625 
Q 19.53125 74.21875 31.78125 74.21875 
z
" id="DejaVuSans-48"/>
        <path d="M 10.6875 12.40625 
L 21 12.40625 
L 21 0 
L 10.6875 0 
z
" id="DejaVuSans-46"/>
        <path d="M 12.40625 8.296875 
L 28.515625 8.296875 
L 28.515625 63.921875 
L 10.984375 60.40625 
L 10.984375 69.390625 
L 28.421875 72.90625 
L 38.28125 72.90625 
L 38.28125 8.296875 
L 54.390625 8.296875 
L 54.390625 0 
L 12.40625 0 
z
" id="DejaVuSans-49"/>
       </defs>
       <use xlink:href="#DejaVuSans-76"/>
       <use x="55.712891" xlink:href="#DejaVuSans-50"/>
       <use x="119.335938" xlink:href="#DejaVuSans-58"/>
       <use x="153.027344" xlink:href="#DejaVuSans-32"/>
       <use x="184.814453" xlink:href="#DejaVuSans-48"/>
       <use x="248.4375" xlink:href="#DejaVuSans-46"/>
       <use x="280.224609" xlink:href="#DejaVuSans-48"/>
       <use x="343.847656" xlink:href="#DejaVuSans-49"/>
      </g>
     </g>
    </g>
    <g id="xtick_3">
     <g id="line2d_3">
      <g>
       <use style="stroke:#000000;stroke-width:0.8;" x="363.486166" xlink:href="#maec0a8c61f" y="378"/>
      </g>
     </g>
     <g id="text_2">
      <!-- L2: 10^-4 -->
      <g transform="translate(338.708041 392.598437)scale(0.1 -0.1)">
       <defs>
        <path d="M 46.6875 72.90625 
L 73.1875 45.703125 
L 63.375 45.703125 
L 41.890625 64.984375 
L 20.40625 45.703125 
L 10.59375 45.703125 
L 37.109375 72.90625 
z
" id="DejaVuSans-94"/>
        <path d="M 4.890625 31.390625 
L 31.203125 31.390625 
L 31.203125 23.390625 
L 4.890625 23.390625 
z
" id="DejaVuSans-45"/>
        <path d="M 37.796875 64.3125 
L 12.890625 25.390625 
L 37.796875 25.390625 
z
M 35.203125 72.90625 
L 47.609375 72.90625 
L 47.609375 25.390625 
L 58.015625 25.390625 
L 58.015625 17.1875 
L 47.609375 17.1875 
L 47.609375 0 
L 37.796875 0 
L 37.796875 17.1875 
L 4.890625 17.1875 
L 4.890625 26.703125 
z
" id="DejaVuSans-52"/>
       </defs>
       <use xlink:href="#DejaVuSans-76"/>
       <use x="55.712891" xlink:href="#DejaVuSans-50"/>
       <use x="119.335938" xlink:href="#DejaVuSans-58"/>
       <use x="153.027344" xlink:href="#DejaVuSans-32"/>
       <use x="184.814453" xlink:href="#DejaVuSans-49"/>
       <use x="248.4375" xlink:href="#DejaVuSans-48"/>
       <use x="312.060547" xlink:href="#DejaVuSans-94"/>
       <use x="395.849609" xlink:href="#DejaVuSans-45"/>
       <use x="431.933594" xlink:href="#DejaVuSans-52"/>
      </g>
     </g>
    </g>
    <g id="xtick_4">
     <g id="line2d_4">
      <g>
       <use style="stroke:#000000;stroke-width:0.8;" x="473.762846" xlink:href="#maec0a8c61f" y="378"/>
      </g>
     </g>
     <g id="text_3">
      <!-- L1: 0.01 -->
      <g transform="translate(453.389408 392.598437)scale(0.1 -0.1)">
       <use xlink:href="#DejaVuSans-76"/>
       <use x="55.712891" xlink:href="#DejaVuSans-49"/>
       <use x="119.335938" xlink:href="#DejaVuSans-58"/>
       <use x="153.027344" xlink:href="#DejaVuSans-32"/>
       <use x="184.814453" xlink:href="#DejaVuSans-48"/>
       <use x="248.4375" xlink:href="#DejaVuSans-46"/>
       <use x="280.224609" xlink:href="#DejaVuSans-48"/>
       <use x="343.847656" xlink:href="#DejaVuSans-49"/>
      </g>
     </g>
    </g>
    <g id="xtick_5">
     <g id="line2d_5">
      <g>
       <use style="stroke:#000000;stroke-width:0.8;" x="584.039526" xlink:href="#maec0a8c61f" y="378"/>
      </g>
     </g>
     <g id="text_4">
      <!-- L1: 10^-4 -->
      <g transform="translate(559.261401 392.598437)scale(0.1 -0.1)">
       <use xlink:href="#DejaVuSans-76"/>
       <use x="55.712891" xlink:href="#DejaVuSans-49"/>
       <use x="119.335938" xlink:href="#DejaVuSans-58"/>
       <use x="153.027344" xlink:href="#DejaVuSans-32"/>
       <use x="184.814453" xlink:href="#DejaVuSans-49"/>
       <use x="248.4375" xlink:href="#DejaVuSans-48"/>
       <use x="312.060547" xlink:href="#DejaVuSans-94"/>
       <use x="395.849609" xlink:href="#DejaVuSans-45"/>
       <use x="431.933594" xlink:href="#DejaVuSans-52"/>
      </g>
     </g>
    </g>
   </g>
   <g id="matplotlib.axis_2">
    <g id="ytick_1">
     <g id="line2d_6">
      <path clip-path="url(#p4d2b3b64ee)" d="M 90 378 
L 648 378 
" style="fill:none;stroke:#b0b0b0;stroke-linecap:square;stroke-width:0.8;"/>
     </g>
     <g id="line2d_7">
      <defs>
       <path d="M 0 0 
L -3.5 0 
" id="m2eda146ca2" style="stroke:#000000;stroke-width:0.8;"/>
      </defs>
      <g>
       <use style="stroke:#000000;stroke-width:0.8;" x="90" xlink:href="#m2eda146ca2" y="378"/>
      </g>
     </g>
     <g id="text_5">
      <!-- −175 -->
      <g transform="translate(55.532812 381.799219)scale(0.1 -0.1)">
       <defs>
        <path d="M 10.59375 35.5 
L 73.1875 35.5 
L 73.1875 27.203125 
L 10.59375 27.203125 
z
" id="DejaVuSans-8722"/>
        <path d="M 8.203125 72.90625 
L 55.078125 72.90625 
L 55.078125 68.703125 
L 28.609375 0 
L 18.3125 0 
L 43.21875 64.59375 
L 8.203125 64.59375 
z
" id="DejaVuSans-55"/>
        <path d="M 10.796875 72.90625 
L 49.515625 72.90625 
L 49.515625 64.59375 
L 19.828125 64.59375 
L 19.828125 46.734375 
Q 21.96875 47.46875 24.109375 47.828125 
Q 26.265625 48.1875 28.421875 48.1875 
Q 40.625 48.1875 47.75 41.5 
Q 54.890625 34.8125 54.890625 23.390625 
Q 54.890625 11.625 47.5625 5.09375 
Q 40.234375 -1.421875 26.90625 -1.421875 
Q 22.3125 -1.421875 17.546875 -0.640625 
Q 12.796875 0.140625 7.71875 1.703125 
L 7.71875 11.625 
Q 12.109375 9.234375 16.796875 8.0625 
Q 21.484375 6.890625 26.703125 6.890625 
Q 35.15625 6.890625 40.078125 11.328125 
Q 45.015625 15.765625 45.015625 23.390625 
Q 45.015625 31 40.078125 35.4375 
Q 35.15625 39.890625 26.703125 39.890625 
Q 22.75 39.890625 18.8125 39.015625 
Q 14.890625 38.140625 10.796875 36.28125 
z
" id="DejaVuSans-53"/>
       </defs>
       <use xlink:href="#DejaVuSans-8722"/>
       <use x="83.789062" xlink:href="#DejaVuSans-49"/>
       <use x="147.412109" xlink:href="#DejaVuSans-55"/>
       <use x="211.035156" xlink:href="#DejaVuSans-53"/>
      </g>
     </g>
    </g>
    <g id="ytick_2">
     <g id="line2d_8">
      <path clip-path="url(#p4d2b3b64ee)" d="M 90 348.349091 
L 648 348.349091 
" style="fill:none;stroke:#b0b0b0;stroke-linecap:square;stroke-width:0.8;"/>
     </g>
     <g id="line2d_9">
      <g>
       <use style="stroke:#000000;stroke-width:0.8;" x="90" xlink:href="#m2eda146ca2" y="348.349091"/>
      </g>
     </g>
     <g id="text_6">
      <!-- −150 -->
      <g transform="translate(55.532812 352.14831)scale(0.1 -0.1)">
       <use xlink:href="#DejaVuSans-8722"/>
       <use x="83.789062" xlink:href="#DejaVuSans-49"/>
       <use x="147.412109" xlink:href="#DejaVuSans-53"/>
       <use x="211.035156" xlink:href="#DejaVuSans-48"/>
      </g>
     </g>
    </g>
    <g id="ytick_3">
     <g id="line2d_10">
      <path clip-path="url(#p4d2b3b64ee)" d="M 90 318.698182 
L 648 318.698182 
" style="fill:none;stroke:#b0b0b0;stroke-linecap:square;stroke-width:0.8;"/>
     </g>
     <g id="line2d_11">
      <g>
       <use style="stroke:#000000;stroke-width:0.8;" x="90" xlink:href="#m2eda146ca2" y="318.698182"/>
      </g>
     </g>
     <g id="text_7">
      <!-- −125 -->
      <g transform="translate(55.532812 322.497401)scale(0.1 -0.1)">
       <use xlink:href="#DejaVuSans-8722"/>
       <use x="83.789062" xlink:href="#DejaVuSans-49"/>
       <use x="147.412109" xlink:href="#DejaVuSans-50"/>
       <use x="211.035156" xlink:href="#DejaVuSans-53"/>
      </g>
     </g>
    </g>
    <g id="ytick_4">
     <g id="line2d_12">
      <path clip-path="url(#p4d2b3b64ee)" d="M 90 289.047273 
L 648 289.047273 
" style="fill:none;stroke:#b0b0b0;stroke-linecap:square;stroke-width:0.8;"/>
     </g>
     <g id="line2d_13">
      <g>
       <use style="stroke:#000000;stroke-width:0.8;" x="90" xlink:href="#m2eda146ca2" y="289.047273"/>
      </g>
     </g>
     <g id="text_8">
      <!-- −100 -->
      <g transform="translate(55.532812 292.846491)scale(0.1 -0.1)">
       <use xlink:href="#DejaVuSans-8722"/>
       <use x="83.789062" xlink:href="#DejaVuSans-49"/>
       <use x="147.412109" xlink:href="#DejaVuSans-48"/>
       <use x="211.035156" xlink:href="#DejaVuSans-48"/>
      </g>
     </g>
    </g>
    <g id="ytick_5">
     <g id="line2d_14">
      <path clip-path="url(#p4d2b3b64ee)" d="M 90 259.396364 
L 648 259.396364 
" style="fill:none;stroke:#b0b0b0;stroke-linecap:square;stroke-width:0.8;"/>
     </g>
     <g id="line2d_15">
      <g>
       <use style="stroke:#000000;stroke-width:0.8;" x="90" xlink:href="#m2eda146ca2" y="259.396364"/>
      </g>
     </g>
     <g id="text_9">
      <!-- −75 -->
      <g transform="translate(61.895313 263.195582)scale(0.1 -0.1)">
       <use xlink:href="#DejaVuSans-8722"/>
       <use x="83.789062" xlink:href="#DejaVuSans-55"/>
       <use x="147.412109" xlink:href="#DejaVuSans-53"/>
      </g>
     </g>
    </g>
    <g id="ytick_6">
     <g id="line2d_16">
      <path clip-path="url(#p4d2b3b64ee)" d="M 90 229.745455 
L 648 229.745455 
" style="fill:none;stroke:#b0b0b0;stroke-linecap:square;stroke-width:0.8;"/>
     </g>
     <g id="line2d_17">
      <g>
       <use style="stroke:#000000;stroke-width:0.8;" x="90" xlink:href="#m2eda146ca2" y="229.745455"/>
      </g>
     </g>
     <g id="text_10">
      <!-- −50 -->
      <g transform="translate(61.895313 233.544673)scale(0.1 -0.1)">
       <use xlink:href="#DejaVuSans-8722"/>
       <use x="83.789062" xlink:href="#DejaVuSans-53"/>
       <use x="147.412109" xlink:href="#DejaVuSans-48"/>
      </g>
     </g>
    </g>
    <g id="ytick_7">
     <g id="line2d_18">
      <path clip-path="url(#p4d2b3b64ee)" d="M 90 200.094545 
L 648 200.094545 
" style="fill:none;stroke:#b0b0b0;stroke-linecap:square;stroke-width:0.8;"/>
     </g>
     <g id="line2d_19">
      <g>
       <use style="stroke:#000000;stroke-width:0.8;" x="90" xlink:href="#m2eda146ca2" y="200.094545"/>
      </g>
     </g>
     <g id="text_11">
      <!-- −25 -->
      <g transform="translate(61.895313 203.893764)scale(0.1 -0.1)">
       <use xlink:href="#DejaVuSans-8722"/>
       <use x="83.789062" xlink:href="#DejaVuSans-50"/>
       <use x="147.412109" xlink:href="#DejaVuSans-53"/>
      </g>
     </g>
    </g>
    <g id="ytick_8">
     <g id="line2d_20">
      <path clip-path="url(#p4d2b3b64ee)" d="M 90 170.443636 
L 648 170.443636 
" style="fill:none;stroke:#b0b0b0;stroke-linecap:square;stroke-width:0.8;"/>
     </g>
     <g id="line2d_21">
      <g>
       <use style="stroke:#000000;stroke-width:0.8;" x="90" xlink:href="#m2eda146ca2" y="170.443636"/>
      </g>
     </g>
     <g id="text_12">
      <!-- 0 -->
      <g transform="translate(76.6375 174.242855)scale(0.1 -0.1)">
       <use xlink:href="#DejaVuSans-48"/>
      </g>
     </g>
    </g>
    <g id="ytick_9">
     <g id="line2d_22">
      <path clip-path="url(#p4d2b3b64ee)" d="M 90 140.792727 
L 648 140.792727 
" style="fill:none;stroke:#b0b0b0;stroke-linecap:square;stroke-width:0.8;"/>
     </g>
     <g id="line2d_23">
      <g>
       <use style="stroke:#000000;stroke-width:0.8;" x="90" xlink:href="#m2eda146ca2" y="140.792727"/>
      </g>
     </g>
     <g id="text_13">
      <!-- 25 -->
      <g transform="translate(70.275 144.591946)scale(0.1 -0.1)">
       <use xlink:href="#DejaVuSans-50"/>
       <use x="63.623047" xlink:href="#DejaVuSans-53"/>
      </g>
     </g>
    </g>
    <g id="ytick_10">
     <g id="line2d_24">
      <path clip-path="url(#p4d2b3b64ee)" d="M 90 111.141818 
L 648 111.141818 
" style="fill:none;stroke:#b0b0b0;stroke-linecap:square;stroke-width:0.8;"/>
     </g>
     <g id="line2d_25">
      <g>
       <use style="stroke:#000000;stroke-width:0.8;" x="90" xlink:href="#m2eda146ca2" y="111.141818"/>
      </g>
     </g>
     <g id="text_14">
      <!-- 50 -->
      <g transform="translate(70.275 114.941037)scale(0.1 -0.1)">
       <use xlink:href="#DejaVuSans-53"/>
       <use x="63.623047" xlink:href="#DejaVuSans-48"/>
      </g>
     </g>
    </g>
    <g id="ytick_11">
     <g id="line2d_26">
      <path clip-path="url(#p4d2b3b64ee)" d="M 90 81.490909 
L 648 81.490909 
" style="fill:none;stroke:#b0b0b0;stroke-linecap:square;stroke-width:0.8;"/>
     </g>
     <g id="line2d_27">
      <g>
       <use style="stroke:#000000;stroke-width:0.8;" x="90" xlink:href="#m2eda146ca2" y="81.490909"/>
      </g>
     </g>
     <g id="text_15">
      <!-- 75 -->
      <g transform="translate(70.275 85.290128)scale(0.1 -0.1)">
       <use xlink:href="#DejaVuSans-55"/>
       <use x="63.623047" xlink:href="#DejaVuSans-53"/>
      </g>
     </g>
    </g>
    <g id="ytick_12">
     <g id="line2d_28">
      <path clip-path="url(#p4d2b3b64ee)" d="M 90 51.84 
L 648 51.84 
" style="fill:none;stroke:#b0b0b0;stroke-linecap:square;stroke-width:0.8;"/>
     </g>
     <g id="line2d_29">
      <g>
       <use style="stroke:#000000;stroke-width:0.8;" x="90" xlink:href="#m2eda146ca2" y="51.84"/>
      </g>
     </g>
     <g id="text_16">
      <!-- 100 -->
      <g transform="translate(63.9125 55.639219)scale(0.1 -0.1)">
       <use xlink:href="#DejaVuSans-49"/>
       <use x="63.623047" xlink:href="#DejaVuSans-48"/>
       <use x="127.246094" xlink:href="#DejaVuSans-48"/>
      </g>
     </g>
    </g>
   </g>
   <g id="LineCollection_1">
    <path clip-path="url(#p4d2b3b64ee)" d="M 120.87747 183.554639 
L 120.87747 175.54033 
" style="fill:none;stroke:#000000;stroke-width:1.5;"/>
    <path clip-path="url(#p4d2b3b64ee)" d="M 231.15415 195.804859 
L 231.15415 188.829785 
" style="fill:none;stroke:#000000;stroke-width:1.5;"/>
    <path clip-path="url(#p4d2b3b64ee)" d="M 341.43083 184.600304 
L 341.43083 174.380471 
" style="fill:none;stroke:#000000;stroke-width:1.5;"/>
    <path clip-path="url(#p4d2b3b64ee)" d="M 451.70751 203.84485 
L 451.70751 197.495327 
" style="fill:none;stroke:#000000;stroke-width:1.5;"/>
    <path clip-path="url(#p4d2b3b64ee)" d="M 561.98419 181.786764 
L 561.98419 176.935794 
" style="fill:none;stroke:#000000;stroke-width:1.5;"/>
   </g>
   <g id="LineCollection_2">
    <path clip-path="url(#p4d2b3b64ee)" d="M 131.905138 64.063854 
L 131.905138 57.207798 
" style="fill:none;stroke:#000000;stroke-width:1.5;"/>
    <path clip-path="url(#p4d2b3b64ee)" d="M 242.181818 87.518513 
L 242.181818 85.505022 
" style="fill:none;stroke:#000000;stroke-width:1.5;"/>
    <path clip-path="url(#p4d2b3b64ee)" d="M 352.458498 65.688886 
L 352.458498 65.327198 
" style="fill:none;stroke:#000000;stroke-width:1.5;"/>
    <path clip-path="url(#p4d2b3b64ee)" d="M 462.735178 114.501386 
L 462.735178 110.704156 
" style="fill:none;stroke:#000000;stroke-width:1.5;"/>
    <path clip-path="url(#p4d2b3b64ee)" d="M 573.011858 66.96139 
L 573.011858 65.763844 
" style="fill:none;stroke:#000000;stroke-width:1.5;"/>
   </g>
   <g id="LineCollection_3">
    <path clip-path="url(#p4d2b3b64ee)" d="M 142.932806 59.890035 
L 142.932806 56.498551 
" style="fill:none;stroke:#000000;stroke-width:1.5;"/>
    <path clip-path="url(#p4d2b3b64ee)" d="M 253.209486 94.830765 
L 253.209486 93.674106 
" style="fill:none;stroke:#000000;stroke-width:1.5;"/>
    <path clip-path="url(#p4d2b3b64ee)" d="M 363.486166 67.588779 
L 363.486166 66.299899 
" style="fill:none;stroke:#000000;stroke-width:1.5;"/>
    <path clip-path="url(#p4d2b3b64ee)" d="M 473.762846 131.671306 
L 473.762846 126.9916 
" style="fill:none;stroke:#000000;stroke-width:1.5;"/>
    <path clip-path="url(#p4d2b3b64ee)" d="M 584.039526 69.187544 
L 584.039526 67.497703 
" style="fill:none;stroke:#000000;stroke-width:1.5;"/>
   </g>
   <g id="LineCollection_4">
    <path clip-path="url(#p4d2b3b64ee)" d="M 153.960474 251.716109 
L 153.960474 50.991592 
" style="fill:none;stroke:#000000;stroke-width:1.5;"/>
    <path clip-path="url(#p4d2b3b64ee)" d="M 264.237154 280.735336 
L 264.237154 177.247584 
" style="fill:none;stroke:#000000;stroke-width:1.5;"/>
    <path clip-path="url(#p4d2b3b64ee)" d="M 374.513834 227.776246 
L 374.513834 117.983257 
" style="fill:none;stroke:#000000;stroke-width:1.5;"/>
    <path clip-path="url(#p4d2b3b64ee)" d="M 484.790514 318.12641 
L 484.790514 259.85012 
" style="fill:none;stroke:#000000;stroke-width:1.5;"/>
    <path clip-path="url(#p4d2b3b64ee)" d="M 595.067194 236.050589 
L 595.067194 77.808235 
" style="fill:none;stroke:#000000;stroke-width:1.5;"/>
   </g>
   <g id="LineCollection_5">
    <path clip-path="url(#p4d2b3b64ee)" d="M 164.988142 350.150714 
L 164.988142 345.501609 
" style="fill:none;stroke:#000000;stroke-width:1.5;"/>
    <path clip-path="url(#p4d2b3b64ee)" d="M 275.264822 348.290967 
L 275.264822 348.290967 
" style="fill:none;stroke:#000000;stroke-width:1.5;"/>
    <path clip-path="url(#p4d2b3b64ee)" d="M 385.541502 81.414855 
L 385.541502 81.414855 
" style="fill:none;stroke:#000000;stroke-width:1.5;"/>
    <path clip-path="url(#p4d2b3b64ee)" d="M 495.818182 342.287452 
L 495.818182 342.287452 
" style="fill:none;stroke:#000000;stroke-width:1.5;"/>
    <path clip-path="url(#p4d2b3b64ee)" d="M 606.094862 338.53085 
L 606.094862 338.53085 
" style="fill:none;stroke:#000000;stroke-width:1.5;"/>
   </g>
   <g id="LineCollection_6">
    <path clip-path="url(#p4d2b3b64ee)" d="M 176.01581 103.358162 
L 176.01581 87.773047 
" style="fill:none;stroke:#000000;stroke-width:1.5;"/>
    <path clip-path="url(#p4d2b3b64ee)" d="M 286.29249 95.214719 
L 286.29249 79.254539 
" style="fill:none;stroke:#000000;stroke-width:1.5;"/>
    <path clip-path="url(#p4d2b3b64ee)" d="M 396.56917 91.859201 
L 396.56917 79.328075 
" style="fill:none;stroke:#000000;stroke-width:1.5;"/>
    <path clip-path="url(#p4d2b3b64ee)" d="M 506.84585 293.176201 
L 506.84585 281.289174 
" style="fill:none;stroke:#000000;stroke-width:1.5;"/>
    <path clip-path="url(#p4d2b3b64ee)" d="M 617.12253 91.078263 
L 617.12253 81.951358 
" style="fill:none;stroke:#000000;stroke-width:1.5;"/>
   </g>
   <g id="line2d_30">
    <path clip-path="url(#p4d2b3b64ee)" d="M 90 170.443636 
L 648 170.443636 
" style="fill:none;stroke:#000000;stroke-linecap:square;stroke-width:1.5;"/>
   </g>
   <g id="patch_33">
    <path d="M 90 378 
L 90 51.84 
" style="fill:none;stroke:#000000;stroke-linecap:square;stroke-linejoin:miter;stroke-width:0.8;"/>
   </g>
   <g id="patch_34">
    <path d="M 648 378 
L 648 51.84 
" style="fill:none;stroke:#000000;stroke-linecap:square;stroke-linejoin:miter;stroke-width:0.8;"/>
   </g>
   <g id="patch_35">
    <path d="M 90 378 
L 648 378 
" style="fill:none;stroke:#000000;stroke-linecap:square;stroke-linejoin:miter;stroke-width:0.8;"/>
   </g>
   <g id="patch_36">
    <path d="M 90 51.84 
L 648 51.84 
" style="fill:none;stroke:#000000;stroke-linecap:square;stroke-linejoin:miter;stroke-width:0.8;"/>
   </g>
   <g id="text_17">
    <!-- activity_regularizer -->
    <g transform="translate(311.46375 45.84)scale(0.12 -0.12)">
     <defs>
      <path d="M 34.28125 27.484375 
Q 23.390625 27.484375 19.1875 25 
Q 14.984375 22.515625 14.984375 16.5 
Q 14.984375 11.71875 18.140625 8.90625 
Q 21.296875 6.109375 26.703125 6.109375 
Q 34.1875 6.109375 38.703125 11.40625 
Q 43.21875 16.703125 43.21875 25.484375 
L 43.21875 27.484375 
z
M 52.203125 31.203125 
L 52.203125 0 
L 43.21875 0 
L 43.21875 8.296875 
Q 40.140625 3.328125 35.546875 0.953125 
Q 30.953125 -1.421875 24.3125 -1.421875 
Q 15.921875 -1.421875 10.953125 3.296875 
Q 6 8.015625 6 15.921875 
Q 6 25.140625 12.171875 29.828125 
Q 18.359375 34.515625 30.609375 34.515625 
L 43.21875 34.515625 
L 43.21875 35.40625 
Q 43.21875 41.609375 39.140625 45 
Q 35.0625 48.390625 27.6875 48.390625 
Q 23 48.390625 18.546875 47.265625 
Q 14.109375 46.140625 10.015625 43.890625 
L 10.015625 52.203125 
Q 14.9375 54.109375 19.578125 55.046875 
Q 24.21875 56 28.609375 56 
Q 40.484375 56 46.34375 49.84375 
Q 52.203125 43.703125 52.203125 31.203125 
z
" id="DejaVuSans-97"/>
      <path d="M 48.78125 52.59375 
L 48.78125 44.1875 
Q 44.96875 46.296875 41.140625 47.34375 
Q 37.3125 48.390625 33.40625 48.390625 
Q 24.65625 48.390625 19.8125 42.84375 
Q 14.984375 37.3125 14.984375 27.296875 
Q 14.984375 17.28125 19.8125 11.734375 
Q 24.65625 6.203125 33.40625 6.203125 
Q 37.3125 6.203125 41.140625 7.25 
Q 44.96875 8.296875 48.78125 10.40625 
L 48.78125 2.09375 
Q 45.015625 0.34375 40.984375 -0.53125 
Q 36.96875 -1.421875 32.421875 -1.421875 
Q 20.0625 -1.421875 12.78125 6.34375 
Q 5.515625 14.109375 5.515625 27.296875 
Q 5.515625 40.671875 12.859375 48.328125 
Q 20.21875 56 33.015625 56 
Q 37.15625 56 41.109375 55.140625 
Q 45.0625 54.296875 48.78125 52.59375 
z
" id="DejaVuSans-99"/>
      <path d="M 18.3125 70.21875 
L 18.3125 54.6875 
L 36.8125 54.6875 
L 36.8125 47.703125 
L 18.3125 47.703125 
L 18.3125 18.015625 
Q 18.3125 11.328125 20.140625 9.421875 
Q 21.96875 7.515625 27.59375 7.515625 
L 36.8125 7.515625 
L 36.8125 0 
L 27.59375 0 
Q 17.1875 0 13.234375 3.875 
Q 9.28125 7.765625 9.28125 18.015625 
L 9.28125 47.703125 
L 2.6875 47.703125 
L 2.6875 54.6875 
L 9.28125 54.6875 
L 9.28125 70.21875 
z
" id="DejaVuSans-116"/>
      <path d="M 9.421875 54.6875 
L 18.40625 54.6875 
L 18.40625 0 
L 9.421875 0 
z
M 9.421875 75.984375 
L 18.40625 75.984375 
L 18.40625 64.59375 
L 9.421875 64.59375 
z
" id="DejaVuSans-105"/>
      <path d="M 2.984375 54.6875 
L 12.5 54.6875 
L 29.59375 8.796875 
L 46.6875 54.6875 
L 56.203125 54.6875 
L 35.6875 0 
L 23.484375 0 
z
" id="DejaVuSans-118"/>
      <path d="M 32.171875 -5.078125 
Q 28.375 -14.84375 24.75 -17.8125 
Q 21.140625 -20.796875 15.09375 -20.796875 
L 7.90625 -20.796875 
L 7.90625 -13.28125 
L 13.1875 -13.28125 
Q 16.890625 -13.28125 18.9375 -11.515625 
Q 21 -9.765625 23.484375 -3.21875 
L 25.09375 0.875 
L 2.984375 54.6875 
L 12.5 54.6875 
L 29.59375 11.921875 
L 46.6875 54.6875 
L 56.203125 54.6875 
z
" id="DejaVuSans-121"/>
      <path d="M 50.984375 -16.609375 
L 50.984375 -23.578125 
L -0.984375 -23.578125 
L -0.984375 -16.609375 
z
" id="DejaVuSans-95"/>
      <path d="M 41.109375 46.296875 
Q 39.59375 47.171875 37.8125 47.578125 
Q 36.03125 48 33.890625 48 
Q 26.265625 48 22.1875 43.046875 
Q 18.109375 38.09375 18.109375 28.8125 
L 18.109375 0 
L 9.078125 0 
L 9.078125 54.6875 
L 18.109375 54.6875 
L 18.109375 46.1875 
Q 20.953125 51.171875 25.484375 53.578125 
Q 30.03125 56 36.53125 56 
Q 37.453125 56 38.578125 55.875 
Q 39.703125 55.765625 41.0625 55.515625 
z
" id="DejaVuSans-114"/>
      <path d="M 56.203125 29.59375 
L 56.203125 25.203125 
L 14.890625 25.203125 
Q 15.484375 15.921875 20.484375 11.0625 
Q 25.484375 6.203125 34.421875 6.203125 
Q 39.59375 6.203125 44.453125 7.46875 
Q 49.3125 8.734375 54.109375 11.28125 
L 54.109375 2.78125 
Q 49.265625 0.734375 44.1875 -0.34375 
Q 39.109375 -1.421875 33.890625 -1.421875 
Q 20.796875 -1.421875 13.15625 6.1875 
Q 5.515625 13.8125 5.515625 26.8125 
Q 5.515625 40.234375 12.765625 48.109375 
Q 20.015625 56 32.328125 56 
Q 43.359375 56 49.78125 48.890625 
Q 56.203125 41.796875 56.203125 29.59375 
z
M 47.21875 32.234375 
Q 47.125 39.59375 43.09375 43.984375 
Q 39.0625 48.390625 32.421875 48.390625 
Q 24.90625 48.390625 20.390625 44.140625 
Q 15.875 39.890625 15.1875 32.171875 
z
" id="DejaVuSans-101"/>
      <path d="M 45.40625 27.984375 
Q 45.40625 37.75 41.375 43.109375 
Q 37.359375 48.484375 30.078125 48.484375 
Q 22.859375 48.484375 18.828125 43.109375 
Q 14.796875 37.75 14.796875 27.984375 
Q 14.796875 18.265625 18.828125 12.890625 
Q 22.859375 7.515625 30.078125 7.515625 
Q 37.359375 7.515625 41.375 12.890625 
Q 45.40625 18.265625 45.40625 27.984375 
z
M 54.390625 6.78125 
Q 54.390625 -7.171875 48.1875 -13.984375 
Q 42 -20.796875 29.203125 -20.796875 
Q 24.46875 -20.796875 20.265625 -20.09375 
Q 16.0625 -19.390625 12.109375 -17.921875 
L 12.109375 -9.1875 
Q 16.0625 -11.328125 19.921875 -12.34375 
Q 23.78125 -13.375 27.78125 -13.375 
Q 36.625 -13.375 41.015625 -8.765625 
Q 45.40625 -4.15625 45.40625 5.171875 
L 45.40625 9.625 
Q 42.625 4.78125 38.28125 2.390625 
Q 33.9375 0 27.875 0 
Q 17.828125 0 11.671875 7.65625 
Q 5.515625 15.328125 5.515625 27.984375 
Q 5.515625 40.671875 11.671875 48.328125 
Q 17.828125 56 27.875 56 
Q 33.9375 56 38.28125 53.609375 
Q 42.625 51.21875 45.40625 46.390625 
L 45.40625 54.6875 
L 54.390625 54.6875 
z
" id="DejaVuSans-103"/>
      <path d="M 8.5 21.578125 
L 8.5 54.6875 
L 17.484375 54.6875 
L 17.484375 21.921875 
Q 17.484375 14.15625 20.5 10.265625 
Q 23.53125 6.390625 29.59375 6.390625 
Q 36.859375 6.390625 41.078125 11.03125 
Q 45.3125 15.671875 45.3125 23.6875 
L 45.3125 54.6875 
L 54.296875 54.6875 
L 54.296875 0 
L 45.3125 0 
L 45.3125 8.40625 
Q 42.046875 3.421875 37.71875 1 
Q 33.40625 -1.421875 27.6875 -1.421875 
Q 18.265625 -1.421875 13.375 4.4375 
Q 8.5 10.296875 8.5 21.578125 
z
M 31.109375 56 
z
" id="DejaVuSans-117"/>
      <path d="M 9.421875 75.984375 
L 18.40625 75.984375 
L 18.40625 0 
L 9.421875 0 
z
" id="DejaVuSans-108"/>
      <path d="M 5.515625 54.6875 
L 48.1875 54.6875 
L 48.1875 46.484375 
L 14.40625 7.171875 
L 48.1875 7.171875 
L 48.1875 0 
L 4.296875 0 
L 4.296875 8.203125 
L 38.09375 47.515625 
L 5.515625 47.515625 
z
" id="DejaVuSans-122"/>
     </defs>
     <use xlink:href="#DejaVuSans-97"/>
     <use x="61.279297" xlink:href="#DejaVuSans-99"/>
     <use x="116.259766" xlink:href="#DejaVuSans-116"/>
     <use x="155.46875" xlink:href="#DejaVuSans-105"/>
     <use x="183.251953" xlink:href="#DejaVuSans-118"/>
     <use x="242.431641" xlink:href="#DejaVuSans-105"/>
     <use x="270.214844" xlink:href="#DejaVuSans-116"/>
     <use x="309.423828" xlink:href="#DejaVuSans-121"/>
     <use x="368.603516" xlink:href="#DejaVuSans-95"/>
     <use x="418.603516" xlink:href="#DejaVuSans-114"/>
     <use x="457.466797" xlink:href="#DejaVuSans-101"/>
     <use x="518.990234" xlink:href="#DejaVuSans-103"/>
     <use x="582.466797" xlink:href="#DejaVuSans-117"/>
     <use x="645.845703" xlink:href="#DejaVuSans-108"/>
     <use x="673.628906" xlink:href="#DejaVuSans-97"/>
     <use x="734.908203" xlink:href="#DejaVuSans-114"/>
     <use x="776.021484" xlink:href="#DejaVuSans-105"/>
     <use x="803.804688" xlink:href="#DejaVuSans-122"/>
     <use x="856.294922" xlink:href="#DejaVuSans-101"/>
     <use x="917.818359" xlink:href="#DejaVuSans-114"/>
    </g>
   </g>
   <g id="legend_1">
    <g id="patch_37">
     <path d="M 313.482031 373 
L 424.517969 373 
Q 426.517969 373 426.517969 371 
L 426.517969 283.93125 
Q 426.517969 281.93125 424.517969 281.93125 
L 313.482031 281.93125 
Q 311.482031 281.93125 311.482031 283.93125 
L 311.482031 371 
Q 311.482031 373 313.482031 373 
z
" style="fill:#ffffff;opacity:0.8;stroke:#cccccc;stroke-linejoin:miter;"/>
    </g>
    <g id="patch_38">
     <path d="M 315.482031 293.529688 
L 335.482031 293.529688 
L 335.482031 286.529688 
L 315.482031 286.529688 
z
" style="fill:#4285f4;"/>
    </g>
    <g id="text_18">
     <!-- CCEu, SD=4 -->
     <g transform="translate(343.482031 293.529688)scale(0.1 -0.1)">
      <defs>
       <path d="M 64.40625 67.28125 
L 64.40625 56.890625 
Q 59.421875 61.53125 53.78125 63.8125 
Q 48.140625 66.109375 41.796875 66.109375 
Q 29.296875 66.109375 22.65625 58.46875 
Q 16.015625 50.828125 16.015625 36.375 
Q 16.015625 21.96875 22.65625 14.328125 
Q 29.296875 6.6875 41.796875 6.6875 
Q 48.140625 6.6875 53.78125 8.984375 
Q 59.421875 11.28125 64.40625 15.921875 
L 64.40625 5.609375 
Q 59.234375 2.09375 53.4375 0.328125 
Q 47.65625 -1.421875 41.21875 -1.421875 
Q 24.65625 -1.421875 15.125 8.703125 
Q 5.609375 18.84375 5.609375 36.375 
Q 5.609375 53.953125 15.125 64.078125 
Q 24.65625 74.21875 41.21875 74.21875 
Q 47.75 74.21875 53.53125 72.484375 
Q 59.328125 70.75 64.40625 67.28125 
z
" id="DejaVuSans-67"/>
       <path d="M 9.8125 72.90625 
L 55.90625 72.90625 
L 55.90625 64.59375 
L 19.671875 64.59375 
L 19.671875 43.015625 
L 54.390625 43.015625 
L 54.390625 34.71875 
L 19.671875 34.71875 
L 19.671875 8.296875 
L 56.78125 8.296875 
L 56.78125 0 
L 9.8125 0 
z
" id="DejaVuSans-69"/>
       <path d="M 11.71875 12.40625 
L 22.015625 12.40625 
L 22.015625 4 
L 14.015625 -11.625 
L 7.71875 -11.625 
L 11.71875 4 
z
" id="DejaVuSans-44"/>
       <path d="M 53.515625 70.515625 
L 53.515625 60.890625 
Q 47.90625 63.578125 42.921875 64.890625 
Q 37.9375 66.21875 33.296875 66.21875 
Q 25.25 66.21875 20.875 63.09375 
Q 16.5 59.96875 16.5 54.203125 
Q 16.5 49.359375 19.40625 46.890625 
Q 22.3125 44.4375 30.421875 42.921875 
L 36.375 41.703125 
Q 47.40625 39.59375 52.65625 34.296875 
Q 57.90625 29 57.90625 20.125 
Q 57.90625 9.515625 50.796875 4.046875 
Q 43.703125 -1.421875 29.984375 -1.421875 
Q 24.8125 -1.421875 18.96875 -0.25 
Q 13.140625 0.921875 6.890625 3.21875 
L 6.890625 13.375 
Q 12.890625 10.015625 18.65625 8.296875 
Q 24.421875 6.59375 29.984375 6.59375 
Q 38.421875 6.59375 43.015625 9.90625 
Q 47.609375 13.234375 47.609375 19.390625 
Q 47.609375 24.75 44.3125 27.78125 
Q 41.015625 30.8125 33.5 32.328125 
L 27.484375 33.5 
Q 16.453125 35.6875 11.515625 40.375 
Q 6.59375 45.0625 6.59375 53.421875 
Q 6.59375 63.09375 13.40625 68.65625 
Q 20.21875 74.21875 32.171875 74.21875 
Q 37.3125 74.21875 42.625 73.28125 
Q 47.953125 72.359375 53.515625 70.515625 
z
" id="DejaVuSans-83"/>
       <path d="M 19.671875 64.796875 
L 19.671875 8.109375 
L 31.59375 8.109375 
Q 46.6875 8.109375 53.6875 14.9375 
Q 60.6875 21.78125 60.6875 36.53125 
Q 60.6875 51.171875 53.6875 57.984375 
Q 46.6875 64.796875 31.59375 64.796875 
z
M 9.8125 72.90625 
L 30.078125 72.90625 
Q 51.265625 72.90625 61.171875 64.09375 
Q 71.09375 55.28125 71.09375 36.53125 
Q 71.09375 17.671875 61.125 8.828125 
Q 51.171875 0 30.078125 0 
L 9.8125 0 
z
" id="DejaVuSans-68"/>
       <path d="M 10.59375 45.40625 
L 73.1875 45.40625 
L 73.1875 37.203125 
L 10.59375 37.203125 
z
M 10.59375 25.484375 
L 73.1875 25.484375 
L 73.1875 17.1875 
L 10.59375 17.1875 
z
" id="DejaVuSans-61"/>
      </defs>
      <use xlink:href="#DejaVuSans-67"/>
      <use x="69.824219" xlink:href="#DejaVuSans-67"/>
      <use x="139.648438" xlink:href="#DejaVuSans-69"/>
      <use x="202.832031" xlink:href="#DejaVuSans-117"/>
      <use x="266.210938" xlink:href="#DejaVuSans-44"/>
      <use x="297.998047" xlink:href="#DejaVuSans-32"/>
      <use x="329.785156" xlink:href="#DejaVuSans-83"/>
      <use x="393.261719" xlink:href="#DejaVuSans-68"/>
      <use x="470.263672" xlink:href="#DejaVuSans-61"/>
      <use x="554.052734" xlink:href="#DejaVuSans-52"/>
     </g>
    </g>
    <g id="patch_39">
     <path d="M 315.482031 308.207813 
L 335.482031 308.207813 
L 335.482031 301.207813 
L 315.482031 301.207813 
z
" style="fill:#ea4335;"/>
    </g>
    <g id="text_19">
     <!-- CCE, SD=4 -->
     <g transform="translate(343.482031 308.207813)scale(0.1 -0.1)">
      <use xlink:href="#DejaVuSans-67"/>
      <use x="69.824219" xlink:href="#DejaVuSans-67"/>
      <use x="139.648438" xlink:href="#DejaVuSans-69"/>
      <use x="202.832031" xlink:href="#DejaVuSans-44"/>
      <use x="234.619141" xlink:href="#DejaVuSans-32"/>
      <use x="266.40625" xlink:href="#DejaVuSans-83"/>
      <use x="329.882812" xlink:href="#DejaVuSans-68"/>
      <use x="406.884766" xlink:href="#DejaVuSans-61"/>
      <use x="490.673828" xlink:href="#DejaVuSans-52"/>
     </g>
    </g>
    <g id="patch_40">
     <path d="M 315.482031 322.885938 
L 335.482031 322.885938 
L 335.482031 315.885938 
L 315.482031 315.885938 
z
" style="fill:#fbbc04;"/>
    </g>
    <g id="text_20">
     <!-- JSD, SD=4 -->
     <g transform="translate(343.482031 322.885938)scale(0.1 -0.1)">
      <defs>
       <path d="M 9.8125 72.90625 
L 19.671875 72.90625 
L 19.671875 5.078125 
Q 19.671875 -8.109375 14.671875 -14.0625 
Q 9.671875 -20.015625 -1.421875 -20.015625 
L -5.171875 -20.015625 
L -5.171875 -11.71875 
L -2.09375 -11.71875 
Q 4.4375 -11.71875 7.125 -8.046875 
Q 9.8125 -4.390625 9.8125 5.078125 
z
" id="DejaVuSans-74"/>
      </defs>
      <use xlink:href="#DejaVuSans-74"/>
      <use x="29.492188" xlink:href="#DejaVuSans-83"/>
      <use x="92.96875" xlink:href="#DejaVuSans-68"/>
      <use x="169.970703" xlink:href="#DejaVuSans-44"/>
      <use x="201.757812" xlink:href="#DejaVuSans-32"/>
      <use x="233.544922" xlink:href="#DejaVuSans-83"/>
      <use x="297.021484" xlink:href="#DejaVuSans-68"/>
      <use x="374.023438" xlink:href="#DejaVuSans-61"/>
      <use x="457.8125" xlink:href="#DejaVuSans-52"/>
     </g>
    </g>
    <g id="patch_41">
     <path d="M 315.482031 337.564063 
L 335.482031 337.564063 
L 335.482031 330.564063 
L 315.482031 330.564063 
z
" style="fill:#34a853;"/>
    </g>
    <g id="text_21">
     <!-- CCE, SD=100 -->
     <g transform="translate(343.482031 337.564063)scale(0.1 -0.1)">
      <use xlink:href="#DejaVuSans-67"/>
      <use x="69.824219" xlink:href="#DejaVuSans-67"/>
      <use x="139.648438" xlink:href="#DejaVuSans-69"/>
      <use x="202.832031" xlink:href="#DejaVuSans-44"/>
      <use x="234.619141" xlink:href="#DejaVuSans-32"/>
      <use x="266.40625" xlink:href="#DejaVuSans-83"/>
      <use x="329.882812" xlink:href="#DejaVuSans-68"/>
      <use x="406.884766" xlink:href="#DejaVuSans-61"/>
      <use x="490.673828" xlink:href="#DejaVuSans-49"/>
      <use x="554.296875" xlink:href="#DejaVuSans-48"/>
      <use x="617.919922" xlink:href="#DejaVuSans-48"/>
     </g>
    </g>
    <g id="patch_42">
     <path d="M 315.482031 352.242188 
L 335.482031 352.242188 
L 335.482031 345.242188 
L 315.482031 345.242188 
z
"/>
    </g>
    <g id="text_22">
     <!-- JSD, SD=100 -->
     <g transform="translate(343.482031 352.242188)scale(0.1 -0.1)">
      <use xlink:href="#DejaVuSans-74"/>
      <use x="29.492188" xlink:href="#DejaVuSans-83"/>
      <use x="92.96875" xlink:href="#DejaVuSans-68"/>
      <use x="169.970703" xlink:href="#DejaVuSans-44"/>
      <use x="201.757812" xlink:href="#DejaVuSans-32"/>
      <use x="233.544922" xlink:href="#DejaVuSans-83"/>
      <use x="297.021484" xlink:href="#DejaVuSans-68"/>
      <use x="374.023438" xlink:href="#DejaVuSans-61"/>
      <use x="457.8125" xlink:href="#DejaVuSans-49"/>
      <use x="521.435547" xlink:href="#DejaVuSans-48"/>
      <use x="585.058594" xlink:href="#DejaVuSans-48"/>
     </g>
    </g>
    <g id="patch_43">
     <path d="M 315.482031 366.920313 
L 335.482031 366.920313 
L 335.482031 359.920313 
L 315.482031 359.920313 
z
" style="fill:#46bdc6;"/>
    </g>
    <g id="text_23">
     <!-- JSD(5), SD=100 -->
     <g transform="translate(343.482031 366.920313)scale(0.1 -0.1)">
      <defs>
       <path d="M 31 75.875 
Q 24.46875 64.65625 21.28125 53.65625 
Q 18.109375 42.671875 18.109375 31.390625 
Q 18.109375 20.125 21.3125 9.0625 
Q 24.515625 -2 31 -13.1875 
L 23.1875 -13.1875 
Q 15.875 -1.703125 12.234375 9.375 
Q 8.59375 20.453125 8.59375 31.390625 
Q 8.59375 42.28125 12.203125 53.3125 
Q 15.828125 64.359375 23.1875 75.875 
z
" id="DejaVuSans-40"/>
       <path d="M 8.015625 75.875 
L 15.828125 75.875 
Q 23.140625 64.359375 26.78125 53.3125 
Q 30.421875 42.28125 30.421875 31.390625 
Q 30.421875 20.453125 26.78125 9.375 
Q 23.140625 -1.703125 15.828125 -13.1875 
L 8.015625 -13.1875 
Q 14.5 -2 17.703125 9.0625 
Q 20.90625 20.125 20.90625 31.390625 
Q 20.90625 42.671875 17.703125 53.65625 
Q 14.5 64.65625 8.015625 75.875 
z
" id="DejaVuSans-41"/>
      </defs>
      <use xlink:href="#DejaVuSans-74"/>
      <use x="29.492188" xlink:href="#DejaVuSans-83"/>
      <use x="92.96875" xlink:href="#DejaVuSans-68"/>
      <use x="169.970703" xlink:href="#DejaVuSans-40"/>
      <use x="208.984375" xlink:href="#DejaVuSans-53"/>
      <use x="272.607422" xlink:href="#DejaVuSans-41"/>
      <use x="311.621094" xlink:href="#DejaVuSans-44"/>
      <use x="343.408203" xlink:href="#DejaVuSans-32"/>
      <use x="375.195312" xlink:href="#DejaVuSans-83"/>
      <use x="438.671875" xlink:href="#DejaVuSans-68"/>
      <use x="515.673828" xlink:href="#DejaVuSans-61"/>
      <use x="599.462891" xlink:href="#DejaVuSans-49"/>
      <use x="663.085938" xlink:href="#DejaVuSans-48"/>
      <use x="726.708984" xlink:href="#DejaVuSans-48"/>
     </g>
    </g>
   </g>
  </g>
 </g>
 <defs>
  <clipPath id="p4d2b3b64ee">
   <rect height="326.16" width="558" x="90" y="51.84"/>
  </clipPath>
 </defs>
</svg>
