<?xml version="1.0" encoding="utf-8" standalone="no"?>
<!DOCTYPE svg PUBLIC "-//W3C//DTD SVG 1.1//EN"
  "http://www.w3.org/Graphics/SVG/1.1/DTD/svg11.dtd">
<!-- Created with matplotlib (https://matplotlib.org/) -->
<svg height="463.79625pt" version="1.1" viewBox="0 0 754.467188 463.79625" width="754.467188pt" xmlns="http://www.w3.org/2000/svg" xmlns:xlink="http://www.w3.org/1999/xlink">
 <metadata>
  <rdf:RDF xmlns:cc="http://creativecommons.org/ns#" xmlns:dc="http://purl.org/dc/elements/1.1/" xmlns:rdf="http://www.w3.org/1999/02/22-rdf-syntax-ns#">
   <cc:Work>
    <dc:type rdf:resource="http://purl.org/dc/dcmitype/StillImage"/>
    <dc:date>2021-03-10T13:17:40.336193</dc:date>
    <dc:format>image/svg+xml</dc:format>
    <dc:creator>
     <cc:Agent>
      <dc:title>Matplotlib v3.3.4, https://matplotlib.org/</dc:title>
     </cc:Agent>
    </dc:creator>
   </cc:Work>
  </rdf:RDF>
 </metadata>
 <defs>
  <style type="text/css">*{stroke-linecap:butt;stroke-linejoin:round;}</style>
 </defs>
 <g id="figure_1">
  <g id="patch_1">
   <path d="M 0 463.79625 
L 754.467188 463.79625 
L 754.467188 -0 
L 0 -0 
z
" style="fill:none;"/>
  </g>
  <g id="axes_1">
   <g id="patch_2">
    <path d="M 34.467188 447.118125 
L 754.467188 447.118125 
L 754.467188 15.118125 
L 34.467188 15.118125 
z
" style="fill:#ffffff;"/>
   </g>
   <g id="PolyCollection_1">
    <defs>
     <path d="M 754.467188 -335.386701 
L 754.467188 -333.164522 
L 398.067551 -332.759181 
L 179.863692 -329.776421 
L 107.129073 -330.301308 
L 70.761763 -329.131214 
L 48.941377 -325.464301 
L 41.667915 -323.369277 
L 38.031184 -313.995551 
L 36.212818 -295.90347 
L 35.303636 -271.73714 
L 34.758126 -174.400853 
L 34.467188 16.223105 
L 34.467188 -125.539197 
L 34.467188 -125.539197 
L 34.758126 -260.708018 
L 35.303636 -296.907806 
L 36.212818 -315.535294 
L 38.031184 -326.310092 
L 41.667915 -331.325117 
L 48.941377 -331.864744 
L 70.761763 -333.789144 
L 107.129073 -333.918787 
L 179.863692 -335.065938 
L 398.067551 -334.603117 
L 754.467188 -335.386701 
z
" id="m461096d62a" style="stroke:#46bdc6;stroke-opacity:0.2;"/>
    </defs>
    <g clip-path="url(#p9a0c0ffdad)">
     <use style="fill:#46bdc6;fill-opacity:0.2;stroke:#46bdc6;stroke-opacity:0.2;" x="0" xlink:href="#m461096d62a" y="463.79625"/>
    </g>
   </g>
   <g id="PolyCollection_2">
    <defs>
     <path d="M 754.467188 -364.858863 
L 754.467188 -362.576343 
L 398.067551 -361.882235 
L 179.863692 -361.646539 
L 107.129073 -360.593979 
L 70.761763 -358.472531 
L 48.941377 -350.470337 
L 41.667915 -341.42926 
L 38.031184 -331.51476 
L 36.212818 -304.390052 
L 35.303636 -272.517974 
L 34.758126 -164.413972 
L 34.467188 -42.373245 
L 34.467188 -135.373596 
L 34.467188 -135.373596 
L 34.758126 -259.810794 
L 35.303636 -307.191457 
L 36.212818 -329.427397 
L 38.031184 -342.415012 
L 41.667915 -348.022412 
L 48.941377 -356.639173 
L 70.761763 -361.113662 
L 107.129073 -363.353681 
L 179.863692 -363.582146 
L 398.067551 -363.661459 
L 754.467188 -364.858863 
z
" id="m7ef83ee1c4" style="stroke:#ea4335;stroke-opacity:0.2;"/>
    </defs>
    <g clip-path="url(#p9a0c0ffdad)">
     <use style="fill:#ea4335;fill-opacity:0.2;stroke:#ea4335;stroke-opacity:0.2;" x="0" xlink:href="#m7ef83ee1c4" y="463.79625"/>
    </g>
   </g>
   <g id="PolyCollection_3">
    <defs>
     <path d="M 754.467188 -448.663551 
L 754.467188 -448.648043 
L 398.067551 -448.243852 
L 179.863692 -447.276961 
L 107.129073 -445.989194 
L 70.761763 -441.496658 
L 48.941377 -411.310077 
L 41.667915 -366.451009 
L 38.031184 -326.443973 
L 36.212818 -284.602141 
L 35.303636 -240.312583 
L 34.758126 -170.70421 
L 34.467188 -89.437341 
L 34.467188 -169.469106 
L 34.467188 -169.469106 
L 34.758126 -228.640054 
L 35.303636 -264.461505 
L 36.212818 -305.722503 
L 38.031184 -340.390519 
L 41.667915 -377.984746 
L 48.941377 -415.665568 
L 70.761763 -443.175909 
L 107.129073 -447.169022 
L 179.863692 -448.169909 
L 398.067551 -448.380875 
L 754.467188 -448.663551 
z
" id="mec2267e7c2" style="stroke:#800080;stroke-opacity:0.2;"/>
    </defs>
    <g clip-path="url(#p9a0c0ffdad)">
     <use style="fill:#800080;fill-opacity:0.2;stroke:#800080;stroke-opacity:0.2;" x="0" xlink:href="#mec2267e7c2" y="463.79625"/>
    </g>
   </g>
   <g id="PolyCollection_4">
    <defs>
     <path d="M 754.467188 -448.651035 
L 754.467188 -448.565741 
L 398.067551 -447.657685 
L 179.863692 -447.168985 
L 107.129073 -445.01397 
L 70.761763 -441.417447 
L 48.941377 -427.480287 
L 41.667915 -408.569172 
L 38.031184 -385.169364 
L 36.212818 -350.761262 
L 35.303636 -310.179733 
L 34.758126 -255.673496 
L 34.467188 -108.298597 
L 34.467188 -247.018215 
L 34.467188 -247.018215 
L 34.758126 -292.827148 
L 35.303636 -326.478715 
L 36.212818 -359.192484 
L 38.031184 -391.640129 
L 41.667915 -412.87501 
L 48.941377 -430.787059 
L 70.761763 -443.471394 
L 107.129073 -446.460403 
L 179.863692 -447.627946 
L 398.067551 -448.240113 
L 754.467188 -448.651035 
z
" id="m3e56cac8b9" style="stroke:#34a853;stroke-opacity:0.2;"/>
    </defs>
    <g clip-path="url(#p9a0c0ffdad)">
     <use style="fill:#34a853;fill-opacity:0.2;stroke:#34a853;stroke-opacity:0.2;" x="0" xlink:href="#m3e56cac8b9" y="463.79625"/>
    </g>
   </g>
   <g id="matplotlib.axis_1">
    <g id="xtick_1">
     <g id="line2d_1">
      <path clip-path="url(#p9a0c0ffdad)" d="M 179.863692 447.118125 
L 179.863692 15.118125 
" style="fill:none;stroke:#b0b0b0;stroke-linecap:square;stroke-width:0.8;"/>
     </g>
     <g id="line2d_2">
      <defs>
       <path d="M 0 0 
L 0 3.5 
" id="mcbc1457d88" style="stroke:#000000;stroke-width:0.8;"/>
      </defs>
      <g>
       <use style="stroke:#000000;stroke-width:0.8;" x="179.863692" xlink:href="#mcbc1457d88" y="447.118125"/>
      </g>
     </g>
     <g id="text_1">
      <!-- 20 -->
      <g transform="translate(173.501192 461.716563)scale(0.1 -0.1)">
       <defs>
        <path d="M 19.1875 8.296875 
L 53.609375 8.296875 
L 53.609375 0 
L 7.328125 0 
L 7.328125 8.296875 
Q 12.9375 14.109375 22.625 23.890625 
Q 32.328125 33.6875 34.8125 36.53125 
Q 39.546875 41.84375 41.421875 45.53125 
Q 43.3125 49.21875 43.3125 52.78125 
Q 43.3125 58.59375 39.234375 62.25 
Q 35.15625 65.921875 28.609375 65.921875 
Q 23.96875 65.921875 18.8125 64.3125 
Q 13.671875 62.703125 7.8125 59.421875 
L 7.8125 69.390625 
Q 13.765625 71.78125 18.9375 73 
Q 24.125 74.21875 28.421875 74.21875 
Q 39.75 74.21875 46.484375 68.546875 
Q 53.21875 62.890625 53.21875 53.421875 
Q 53.21875 48.921875 51.53125 44.890625 
Q 49.859375 40.875 45.40625 35.40625 
Q 44.1875 33.984375 37.640625 27.21875 
Q 31.109375 20.453125 19.1875 8.296875 
z
" id="DejaVuSans-50"/>
        <path d="M 31.78125 66.40625 
Q 24.171875 66.40625 20.328125 58.90625 
Q 16.5 51.421875 16.5 36.375 
Q 16.5 21.390625 20.328125 13.890625 
Q 24.171875 6.390625 31.78125 6.390625 
Q 39.453125 6.390625 43.28125 13.890625 
Q 47.125 21.390625 47.125 36.375 
Q 47.125 51.421875 43.28125 58.90625 
Q 39.453125 66.40625 31.78125 66.40625 
z
M 31.78125 74.21875 
Q 44.046875 74.21875 50.515625 64.515625 
Q 56.984375 54.828125 56.984375 36.375 
Q 56.984375 17.96875 50.515625 8.265625 
Q 44.046875 -1.421875 31.78125 -1.421875 
Q 19.53125 -1.421875 13.0625 8.265625 
Q 6.59375 17.96875 6.59375 36.375 
Q 6.59375 54.828125 13.0625 64.515625 
Q 19.53125 74.21875 31.78125 74.21875 
z
" id="DejaVuSans-48"/>
       </defs>
       <use xlink:href="#DejaVuSans-50"/>
       <use x="63.623047" xlink:href="#DejaVuSans-48"/>
      </g>
     </g>
    </g>
    <g id="xtick_2">
     <g id="line2d_3">
      <path clip-path="url(#p9a0c0ffdad)" d="M 325.332932 447.118125 
L 325.332932 15.118125 
" style="fill:none;stroke:#b0b0b0;stroke-linecap:square;stroke-width:0.8;"/>
     </g>
     <g id="line2d_4">
      <g>
       <use style="stroke:#000000;stroke-width:0.8;" x="325.332932" xlink:href="#mcbc1457d88" y="447.118125"/>
      </g>
     </g>
     <g id="text_2">
      <!-- 40 -->
      <g transform="translate(318.970432 461.716563)scale(0.1 -0.1)">
       <defs>
        <path d="M 37.796875 64.3125 
L 12.890625 25.390625 
L 37.796875 25.390625 
z
M 35.203125 72.90625 
L 47.609375 72.90625 
L 47.609375 25.390625 
L 58.015625 25.390625 
L 58.015625 17.1875 
L 47.609375 17.1875 
L 47.609375 0 
L 37.796875 0 
L 37.796875 17.1875 
L 4.890625 17.1875 
L 4.890625 26.703125 
z
" id="DejaVuSans-52"/>
       </defs>
       <use xlink:href="#DejaVuSans-52"/>
       <use x="63.623047" xlink:href="#DejaVuSans-48"/>
      </g>
     </g>
    </g>
    <g id="xtick_3">
     <g id="line2d_5">
      <path clip-path="url(#p9a0c0ffdad)" d="M 470.802171 447.118125 
L 470.802171 15.118125 
" style="fill:none;stroke:#b0b0b0;stroke-linecap:square;stroke-width:0.8;"/>
     </g>
     <g id="line2d_6">
      <g>
       <use style="stroke:#000000;stroke-width:0.8;" x="470.802171" xlink:href="#mcbc1457d88" y="447.118125"/>
      </g>
     </g>
     <g id="text_3">
      <!-- 60 -->
      <g transform="translate(464.439671 461.716563)scale(0.1 -0.1)">
       <defs>
        <path d="M 33.015625 40.375 
Q 26.375 40.375 22.484375 35.828125 
Q 18.609375 31.296875 18.609375 23.390625 
Q 18.609375 15.53125 22.484375 10.953125 
Q 26.375 6.390625 33.015625 6.390625 
Q 39.65625 6.390625 43.53125 10.953125 
Q 47.40625 15.53125 47.40625 23.390625 
Q 47.40625 31.296875 43.53125 35.828125 
Q 39.65625 40.375 33.015625 40.375 
z
M 52.59375 71.296875 
L 52.59375 62.3125 
Q 48.875 64.0625 45.09375 64.984375 
Q 41.3125 65.921875 37.59375 65.921875 
Q 27.828125 65.921875 22.671875 59.328125 
Q 17.53125 52.734375 16.796875 39.40625 
Q 19.671875 43.65625 24.015625 45.921875 
Q 28.375 48.1875 33.59375 48.1875 
Q 44.578125 48.1875 50.953125 41.515625 
Q 57.328125 34.859375 57.328125 23.390625 
Q 57.328125 12.15625 50.6875 5.359375 
Q 44.046875 -1.421875 33.015625 -1.421875 
Q 20.359375 -1.421875 13.671875 8.265625 
Q 6.984375 17.96875 6.984375 36.375 
Q 6.984375 53.65625 15.1875 63.9375 
Q 23.390625 74.21875 37.203125 74.21875 
Q 40.921875 74.21875 44.703125 73.484375 
Q 48.484375 72.75 52.59375 71.296875 
z
" id="DejaVuSans-54"/>
       </defs>
       <use xlink:href="#DejaVuSans-54"/>
       <use x="63.623047" xlink:href="#DejaVuSans-48"/>
      </g>
     </g>
    </g>
    <g id="xtick_4">
     <g id="line2d_7">
      <path clip-path="url(#p9a0c0ffdad)" d="M 616.27141 447.118125 
L 616.27141 15.118125 
" style="fill:none;stroke:#b0b0b0;stroke-linecap:square;stroke-width:0.8;"/>
     </g>
     <g id="line2d_8">
      <g>
       <use style="stroke:#000000;stroke-width:0.8;" x="616.27141" xlink:href="#mcbc1457d88" y="447.118125"/>
      </g>
     </g>
     <g id="text_4">
      <!-- 80 -->
      <g transform="translate(609.90891 461.716563)scale(0.1 -0.1)">
       <defs>
        <path d="M 31.78125 34.625 
Q 24.75 34.625 20.71875 30.859375 
Q 16.703125 27.09375 16.703125 20.515625 
Q 16.703125 13.921875 20.71875 10.15625 
Q 24.75 6.390625 31.78125 6.390625 
Q 38.8125 6.390625 42.859375 10.171875 
Q 46.921875 13.96875 46.921875 20.515625 
Q 46.921875 27.09375 42.890625 30.859375 
Q 38.875 34.625 31.78125 34.625 
z
M 21.921875 38.8125 
Q 15.578125 40.375 12.03125 44.71875 
Q 8.5 49.078125 8.5 55.328125 
Q 8.5 64.0625 14.71875 69.140625 
Q 20.953125 74.21875 31.78125 74.21875 
Q 42.671875 74.21875 48.875 69.140625 
Q 55.078125 64.0625 55.078125 55.328125 
Q 55.078125 49.078125 51.53125 44.71875 
Q 48 40.375 41.703125 38.8125 
Q 48.828125 37.15625 52.796875 32.3125 
Q 56.78125 27.484375 56.78125 20.515625 
Q 56.78125 9.90625 50.3125 4.234375 
Q 43.84375 -1.421875 31.78125 -1.421875 
Q 19.734375 -1.421875 13.25 4.234375 
Q 6.78125 9.90625 6.78125 20.515625 
Q 6.78125 27.484375 10.78125 32.3125 
Q 14.796875 37.15625 21.921875 38.8125 
z
M 18.3125 54.390625 
Q 18.3125 48.734375 21.84375 45.5625 
Q 25.390625 42.390625 31.78125 42.390625 
Q 38.140625 42.390625 41.71875 45.5625 
Q 45.3125 48.734375 45.3125 54.390625 
Q 45.3125 60.0625 41.71875 63.234375 
Q 38.140625 66.40625 31.78125 66.40625 
Q 25.390625 66.40625 21.84375 63.234375 
Q 18.3125 60.0625 18.3125 54.390625 
z
" id="DejaVuSans-56"/>
       </defs>
       <use xlink:href="#DejaVuSans-56"/>
       <use x="63.623047" xlink:href="#DejaVuSans-48"/>
      </g>
     </g>
    </g>
   </g>
   <g id="matplotlib.axis_2">
    <g id="ytick_1">
     <g id="line2d_9">
      <path clip-path="url(#p9a0c0ffdad)" d="M 34.467188 447.118125 
L 754.467188 447.118125 
" style="fill:none;stroke:#b0b0b0;stroke-linecap:square;stroke-width:0.8;"/>
     </g>
     <g id="line2d_10">
      <defs>
       <path d="M 0 0 
L -3.5 0 
" id="m6d75641c21" style="stroke:#000000;stroke-width:0.8;"/>
      </defs>
      <g>
       <use style="stroke:#000000;stroke-width:0.8;" x="34.467188" xlink:href="#m6d75641c21" y="447.118125"/>
      </g>
     </g>
     <g id="text_5">
      <!-- −175 -->
      <g transform="translate(0 450.917344)scale(0.1 -0.1)">
       <defs>
        <path d="M 10.59375 35.5 
L 73.1875 35.5 
L 73.1875 27.203125 
L 10.59375 27.203125 
z
" id="DejaVuSans-8722"/>
        <path d="M 12.40625 8.296875 
L 28.515625 8.296875 
L 28.515625 63.921875 
L 10.984375 60.40625 
L 10.984375 69.390625 
L 28.421875 72.90625 
L 38.28125 72.90625 
L 38.28125 8.296875 
L 54.390625 8.296875 
L 54.390625 0 
L 12.40625 0 
z
" id="DejaVuSans-49"/>
        <path d="M 8.203125 72.90625 
L 55.078125 72.90625 
L 55.078125 68.703125 
L 28.609375 0 
L 18.3125 0 
L 43.21875 64.59375 
L 8.203125 64.59375 
z
" id="DejaVuSans-55"/>
        <path d="M 10.796875 72.90625 
L 49.515625 72.90625 
L 49.515625 64.59375 
L 19.828125 64.59375 
L 19.828125 46.734375 
Q 21.96875 47.46875 24.109375 47.828125 
Q 26.265625 48.1875 28.421875 48.1875 
Q 40.625 48.1875 47.75 41.5 
Q 54.890625 34.8125 54.890625 23.390625 
Q 54.890625 11.625 47.5625 5.09375 
Q 40.234375 -1.421875 26.90625 -1.421875 
Q 22.3125 -1.421875 17.546875 -0.640625 
Q 12.796875 0.140625 7.71875 1.703125 
L 7.71875 11.625 
Q 12.109375 9.234375 16.796875 8.0625 
Q 21.484375 6.890625 26.703125 6.890625 
Q 35.15625 6.890625 40.078125 11.328125 
Q 45.015625 15.765625 45.015625 23.390625 
Q 45.015625 31 40.078125 35.4375 
Q 35.15625 39.890625 26.703125 39.890625 
Q 22.75 39.890625 18.8125 39.015625 
Q 14.890625 38.140625 10.796875 36.28125 
z
" id="DejaVuSans-53"/>
       </defs>
       <use xlink:href="#DejaVuSans-8722"/>
       <use x="83.789062" xlink:href="#DejaVuSans-49"/>
       <use x="147.412109" xlink:href="#DejaVuSans-55"/>
       <use x="211.035156" xlink:href="#DejaVuSans-53"/>
      </g>
     </g>
    </g>
    <g id="ytick_2">
     <g id="line2d_11">
      <path clip-path="url(#p9a0c0ffdad)" d="M 34.467188 407.845398 
L 754.467188 407.845398 
" style="fill:none;stroke:#b0b0b0;stroke-linecap:square;stroke-width:0.8;"/>
     </g>
     <g id="line2d_12">
      <g>
       <use style="stroke:#000000;stroke-width:0.8;" x="34.467188" xlink:href="#m6d75641c21" y="407.845398"/>
      </g>
     </g>
     <g id="text_6">
      <!-- −150 -->
      <g transform="translate(0 411.644616)scale(0.1 -0.1)">
       <use xlink:href="#DejaVuSans-8722"/>
       <use x="83.789062" xlink:href="#DejaVuSans-49"/>
       <use x="147.412109" xlink:href="#DejaVuSans-53"/>
       <use x="211.035156" xlink:href="#DejaVuSans-48"/>
      </g>
     </g>
    </g>
    <g id="ytick_3">
     <g id="line2d_13">
      <path clip-path="url(#p9a0c0ffdad)" d="M 34.467188 368.57267 
L 754.467188 368.57267 
" style="fill:none;stroke:#b0b0b0;stroke-linecap:square;stroke-width:0.8;"/>
     </g>
     <g id="line2d_14">
      <g>
       <use style="stroke:#000000;stroke-width:0.8;" x="34.467188" xlink:href="#m6d75641c21" y="368.57267"/>
      </g>
     </g>
     <g id="text_7">
      <!-- −125 -->
      <g transform="translate(0 372.371889)scale(0.1 -0.1)">
       <use xlink:href="#DejaVuSans-8722"/>
       <use x="83.789062" xlink:href="#DejaVuSans-49"/>
       <use x="147.412109" xlink:href="#DejaVuSans-50"/>
       <use x="211.035156" xlink:href="#DejaVuSans-53"/>
      </g>
     </g>
    </g>
    <g id="ytick_4">
     <g id="line2d_15">
      <path clip-path="url(#p9a0c0ffdad)" d="M 34.467188 329.299943 
L 754.467188 329.299943 
" style="fill:none;stroke:#b0b0b0;stroke-linecap:square;stroke-width:0.8;"/>
     </g>
     <g id="line2d_16">
      <g>
       <use style="stroke:#000000;stroke-width:0.8;" x="34.467188" xlink:href="#m6d75641c21" y="329.299943"/>
      </g>
     </g>
     <g id="text_8">
      <!-- −100 -->
      <g transform="translate(0 333.099162)scale(0.1 -0.1)">
       <use xlink:href="#DejaVuSans-8722"/>
       <use x="83.789062" xlink:href="#DejaVuSans-49"/>
       <use x="147.412109" xlink:href="#DejaVuSans-48"/>
       <use x="211.035156" xlink:href="#DejaVuSans-48"/>
      </g>
     </g>
    </g>
    <g id="ytick_5">
     <g id="line2d_17">
      <path clip-path="url(#p9a0c0ffdad)" d="M 34.467188 290.027216 
L 754.467188 290.027216 
" style="fill:none;stroke:#b0b0b0;stroke-linecap:square;stroke-width:0.8;"/>
     </g>
     <g id="line2d_18">
      <g>
       <use style="stroke:#000000;stroke-width:0.8;" x="34.467188" xlink:href="#m6d75641c21" y="290.027216"/>
      </g>
     </g>
     <g id="text_9">
      <!-- −75 -->
      <g transform="translate(6.3625 293.826435)scale(0.1 -0.1)">
       <use xlink:href="#DejaVuSans-8722"/>
       <use x="83.789062" xlink:href="#DejaVuSans-55"/>
       <use x="147.412109" xlink:href="#DejaVuSans-53"/>
      </g>
     </g>
    </g>
    <g id="ytick_6">
     <g id="line2d_19">
      <path clip-path="url(#p9a0c0ffdad)" d="M 34.467188 250.754489 
L 754.467188 250.754489 
" style="fill:none;stroke:#b0b0b0;stroke-linecap:square;stroke-width:0.8;"/>
     </g>
     <g id="line2d_20">
      <g>
       <use style="stroke:#000000;stroke-width:0.8;" x="34.467188" xlink:href="#m6d75641c21" y="250.754489"/>
      </g>
     </g>
     <g id="text_10">
      <!-- −50 -->
      <g transform="translate(6.3625 254.553707)scale(0.1 -0.1)">
       <use xlink:href="#DejaVuSans-8722"/>
       <use x="83.789062" xlink:href="#DejaVuSans-53"/>
       <use x="147.412109" xlink:href="#DejaVuSans-48"/>
      </g>
     </g>
    </g>
    <g id="ytick_7">
     <g id="line2d_21">
      <path clip-path="url(#p9a0c0ffdad)" d="M 34.467188 211.481761 
L 754.467188 211.481761 
" style="fill:none;stroke:#b0b0b0;stroke-linecap:square;stroke-width:0.8;"/>
     </g>
     <g id="line2d_22">
      <g>
       <use style="stroke:#000000;stroke-width:0.8;" x="34.467188" xlink:href="#m6d75641c21" y="211.481761"/>
      </g>
     </g>
     <g id="text_11">
      <!-- −25 -->
      <g transform="translate(6.3625 215.28098)scale(0.1 -0.1)">
       <use xlink:href="#DejaVuSans-8722"/>
       <use x="83.789062" xlink:href="#DejaVuSans-50"/>
       <use x="147.412109" xlink:href="#DejaVuSans-53"/>
      </g>
     </g>
    </g>
    <g id="ytick_8">
     <g id="line2d_23">
      <path clip-path="url(#p9a0c0ffdad)" d="M 34.467188 172.209034 
L 754.467188 172.209034 
" style="fill:none;stroke:#b0b0b0;stroke-linecap:square;stroke-width:0.8;"/>
     </g>
     <g id="line2d_24">
      <g>
       <use style="stroke:#000000;stroke-width:0.8;" x="34.467188" xlink:href="#m6d75641c21" y="172.209034"/>
      </g>
     </g>
     <g id="text_12">
      <!-- 0 -->
      <g transform="translate(21.104688 176.008253)scale(0.1 -0.1)">
       <use xlink:href="#DejaVuSans-48"/>
      </g>
     </g>
    </g>
    <g id="ytick_9">
     <g id="line2d_25">
      <path clip-path="url(#p9a0c0ffdad)" d="M 34.467188 132.936307 
L 754.467188 132.936307 
" style="fill:none;stroke:#b0b0b0;stroke-linecap:square;stroke-width:0.8;"/>
     </g>
     <g id="line2d_26">
      <g>
       <use style="stroke:#000000;stroke-width:0.8;" x="34.467188" xlink:href="#m6d75641c21" y="132.936307"/>
      </g>
     </g>
     <g id="text_13">
      <!-- 25 -->
      <g transform="translate(14.742188 136.735526)scale(0.1 -0.1)">
       <use xlink:href="#DejaVuSans-50"/>
       <use x="63.623047" xlink:href="#DejaVuSans-53"/>
      </g>
     </g>
    </g>
    <g id="ytick_10">
     <g id="line2d_27">
      <path clip-path="url(#p9a0c0ffdad)" d="M 34.467188 93.66358 
L 754.467188 93.66358 
" style="fill:none;stroke:#b0b0b0;stroke-linecap:square;stroke-width:0.8;"/>
     </g>
     <g id="line2d_28">
      <g>
       <use style="stroke:#000000;stroke-width:0.8;" x="34.467188" xlink:href="#m6d75641c21" y="93.66358"/>
      </g>
     </g>
     <g id="text_14">
      <!-- 50 -->
      <g transform="translate(14.742188 97.462798)scale(0.1 -0.1)">
       <use xlink:href="#DejaVuSans-53"/>
       <use x="63.623047" xlink:href="#DejaVuSans-48"/>
      </g>
     </g>
    </g>
    <g id="ytick_11">
     <g id="line2d_29">
      <path clip-path="url(#p9a0c0ffdad)" d="M 34.467188 54.390852 
L 754.467188 54.390852 
" style="fill:none;stroke:#b0b0b0;stroke-linecap:square;stroke-width:0.8;"/>
     </g>
     <g id="line2d_30">
      <g>
       <use style="stroke:#000000;stroke-width:0.8;" x="34.467188" xlink:href="#m6d75641c21" y="54.390852"/>
      </g>
     </g>
     <g id="text_15">
      <!-- 75 -->
      <g transform="translate(14.742188 58.190071)scale(0.1 -0.1)">
       <use xlink:href="#DejaVuSans-55"/>
       <use x="63.623047" xlink:href="#DejaVuSans-53"/>
      </g>
     </g>
    </g>
    <g id="ytick_12">
     <g id="line2d_31">
      <path clip-path="url(#p9a0c0ffdad)" d="M 34.467188 15.118125 
L 754.467188 15.118125 
" style="fill:none;stroke:#b0b0b0;stroke-linecap:square;stroke-width:0.8;"/>
     </g>
     <g id="line2d_32">
      <g>
       <use style="stroke:#000000;stroke-width:0.8;" x="34.467188" xlink:href="#m6d75641c21" y="15.118125"/>
      </g>
     </g>
     <g id="text_16">
      <!-- 100 -->
      <g transform="translate(8.379687 18.917344)scale(0.1 -0.1)">
       <use xlink:href="#DejaVuSans-49"/>
       <use x="63.623047" xlink:href="#DejaVuSans-48"/>
       <use x="127.246094" xlink:href="#DejaVuSans-48"/>
      </g>
     </g>
    </g>
   </g>
   <g id="line2d_33">
    <path clip-path="url(#p9a0c0ffdad)" d="M 754.467188 129.520638 
L 398.067551 130.115101 
L 179.863692 131.375071 
L 107.129073 131.686203 
L 70.761763 132.336071 
L 48.941377 135.131727 
L 41.667915 136.449053 
L 38.031184 143.643428 
L 36.212818 158.076868 
L 35.303636 179.473777 
L 34.758126 246.241815 
L 34.467188 409.138204 
" style="fill:none;stroke:#46bdc6;stroke-linecap:square;stroke-width:1.5;"/>
    <defs>
     <path d="M 0 3 
C 0.795609 3 1.55874 2.683901 2.12132 2.12132 
C 2.683901 1.55874 3 0.795609 3 0 
C 3 -0.795609 2.683901 -1.55874 2.12132 -2.12132 
C 1.55874 -2.683901 0.795609 -3 0 -3 
C -0.795609 -3 -1.55874 -2.683901 -2.12132 -2.12132 
C -2.683901 -1.55874 -3 -0.795609 -3 0 
C -3 0.795609 -2.683901 1.55874 -2.12132 2.12132 
C -1.55874 2.683901 -0.795609 3 0 3 
z
" id="m5a84d4666b" style="stroke:#46bdc6;"/>
    </defs>
    <g clip-path="url(#p9a0c0ffdad)">
     <use style="fill:#46bdc6;stroke:#46bdc6;" x="754.467188" xlink:href="#m5a84d4666b" y="129.520638"/>
     <use style="fill:#46bdc6;stroke:#46bdc6;" x="398.067551" xlink:href="#m5a84d4666b" y="130.115101"/>
     <use style="fill:#46bdc6;stroke:#46bdc6;" x="179.863692" xlink:href="#m5a84d4666b" y="131.375071"/>
     <use style="fill:#46bdc6;stroke:#46bdc6;" x="107.129073" xlink:href="#m5a84d4666b" y="131.686203"/>
     <use style="fill:#46bdc6;stroke:#46bdc6;" x="70.761763" xlink:href="#m5a84d4666b" y="132.336071"/>
     <use style="fill:#46bdc6;stroke:#46bdc6;" x="48.941377" xlink:href="#m5a84d4666b" y="135.131727"/>
     <use style="fill:#46bdc6;stroke:#46bdc6;" x="41.667915" xlink:href="#m5a84d4666b" y="136.449053"/>
     <use style="fill:#46bdc6;stroke:#46bdc6;" x="38.031184" xlink:href="#m5a84d4666b" y="143.643428"/>
     <use style="fill:#46bdc6;stroke:#46bdc6;" x="36.212818" xlink:href="#m5a84d4666b" y="158.076868"/>
     <use style="fill:#46bdc6;stroke:#46bdc6;" x="35.303636" xlink:href="#m5a84d4666b" y="179.473777"/>
     <use style="fill:#46bdc6;stroke:#46bdc6;" x="34.758126" xlink:href="#m5a84d4666b" y="246.241815"/>
     <use style="fill:#46bdc6;stroke:#46bdc6;" x="34.467188" xlink:href="#m5a84d4666b" y="409.138204"/>
    </g>
   </g>
   <g id="line2d_34">
    <path clip-path="url(#p9a0c0ffdad)" d="M 754.467188 100.078647 
L 398.067551 101.024403 
L 179.863692 101.181908 
L 107.129073 101.82242 
L 70.761763 104.003153 
L 48.941377 110.241495 
L 41.667915 119.070414 
L 38.031184 126.831364 
L 36.212818 146.887525 
L 35.303636 173.941535 
L 34.758126 251.683867 
L 34.467188 374.922829 
" style="fill:none;stroke:#ea4335;stroke-linecap:square;stroke-width:1.5;"/>
    <defs>
     <path d="M 0 3 
C 0.795609 3 1.55874 2.683901 2.12132 2.12132 
C 2.683901 1.55874 3 0.795609 3 0 
C 3 -0.795609 2.683901 -1.55874 2.12132 -2.12132 
C 1.55874 -2.683901 0.795609 -3 0 -3 
C -0.795609 -3 -1.55874 -2.683901 -2.12132 -2.12132 
C -2.683901 -1.55874 -3 -0.795609 -3 0 
C -3 0.795609 -2.683901 1.55874 -2.12132 2.12132 
C -1.55874 2.683901 -0.795609 3 0 3 
z
" id="m4b2d1f9ef1" style="stroke:#ea4335;"/>
    </defs>
    <g clip-path="url(#p9a0c0ffdad)">
     <use style="fill:#ea4335;stroke:#ea4335;" x="754.467188" xlink:href="#m4b2d1f9ef1" y="100.078647"/>
     <use style="fill:#ea4335;stroke:#ea4335;" x="398.067551" xlink:href="#m4b2d1f9ef1" y="101.024403"/>
     <use style="fill:#ea4335;stroke:#ea4335;" x="179.863692" xlink:href="#m4b2d1f9ef1" y="101.181908"/>
     <use style="fill:#ea4335;stroke:#ea4335;" x="107.129073" xlink:href="#m4b2d1f9ef1" y="101.82242"/>
     <use style="fill:#ea4335;stroke:#ea4335;" x="70.761763" xlink:href="#m4b2d1f9ef1" y="104.003153"/>
     <use style="fill:#ea4335;stroke:#ea4335;" x="48.941377" xlink:href="#m4b2d1f9ef1" y="110.241495"/>
     <use style="fill:#ea4335;stroke:#ea4335;" x="41.667915" xlink:href="#m4b2d1f9ef1" y="119.070414"/>
     <use style="fill:#ea4335;stroke:#ea4335;" x="38.031184" xlink:href="#m4b2d1f9ef1" y="126.831364"/>
     <use style="fill:#ea4335;stroke:#ea4335;" x="36.212818" xlink:href="#m4b2d1f9ef1" y="146.887525"/>
     <use style="fill:#ea4335;stroke:#ea4335;" x="35.303636" xlink:href="#m4b2d1f9ef1" y="173.941535"/>
     <use style="fill:#ea4335;stroke:#ea4335;" x="34.758126" xlink:href="#m4b2d1f9ef1" y="251.683867"/>
     <use style="fill:#ea4335;stroke:#ea4335;" x="34.467188" xlink:href="#m4b2d1f9ef1" y="374.922829"/>
    </g>
   </g>
   <g id="line2d_35">
    <path clip-path="url(#p9a0c0ffdad)" d="M 754.467188 15.140453 
L 398.067551 15.483886 
L 179.863692 16.072815 
L 107.129073 17.217142 
L 70.761763 21.459967 
L 48.941377 50.308427 
L 41.667915 91.578373 
L 38.031184 130.379004 
L 36.212818 168.633928 
L 35.303636 211.409206 
L 34.758126 264.124118 
L 34.467188 334.343026 
" style="fill:none;stroke:#800080;stroke-linecap:square;stroke-width:1.5;"/>
    <defs>
     <path d="M 0 3 
C 0.795609 3 1.55874 2.683901 2.12132 2.12132 
C 2.683901 1.55874 3 0.795609 3 0 
C 3 -0.795609 2.683901 -1.55874 2.12132 -2.12132 
C 1.55874 -2.683901 0.795609 -3 0 -3 
C -0.795609 -3 -1.55874 -2.683901 -2.12132 -2.12132 
C -2.683901 -1.55874 -3 -0.795609 -3 0 
C -3 0.795609 -2.683901 1.55874 -2.12132 2.12132 
C -1.55874 2.683901 -0.795609 3 0 3 
z
" id="mc7607294eb" style="stroke:#800080;"/>
    </defs>
    <g clip-path="url(#p9a0c0ffdad)">
     <use style="fill:#800080;stroke:#800080;" x="754.467188" xlink:href="#mc7607294eb" y="15.140453"/>
     <use style="fill:#800080;stroke:#800080;" x="398.067551" xlink:href="#mc7607294eb" y="15.483886"/>
     <use style="fill:#800080;stroke:#800080;" x="179.863692" xlink:href="#mc7607294eb" y="16.072815"/>
     <use style="fill:#800080;stroke:#800080;" x="107.129073" xlink:href="#mc7607294eb" y="17.217142"/>
     <use style="fill:#800080;stroke:#800080;" x="70.761763" xlink:href="#mc7607294eb" y="21.459967"/>
     <use style="fill:#800080;stroke:#800080;" x="48.941377" xlink:href="#mc7607294eb" y="50.308427"/>
     <use style="fill:#800080;stroke:#800080;" x="41.667915" xlink:href="#mc7607294eb" y="91.578373"/>
     <use style="fill:#800080;stroke:#800080;" x="38.031184" xlink:href="#mc7607294eb" y="130.379004"/>
     <use style="fill:#800080;stroke:#800080;" x="36.212818" xlink:href="#mc7607294eb" y="168.633928"/>
     <use style="fill:#800080;stroke:#800080;" x="35.303636" xlink:href="#mc7607294eb" y="211.409206"/>
     <use style="fill:#800080;stroke:#800080;" x="34.758126" xlink:href="#mc7607294eb" y="264.124118"/>
     <use style="fill:#800080;stroke:#800080;" x="34.467188" xlink:href="#mc7607294eb" y="334.343026"/>
    </g>
   </g>
   <g id="line2d_36">
    <path clip-path="url(#p9a0c0ffdad)" d="M 754.467188 15.187862 
L 398.067551 15.847351 
L 179.863692 16.397784 
L 107.129073 18.059064 
L 70.761763 21.351829 
L 48.941377 34.662577 
L 41.667915 53.074159 
L 38.031184 75.391504 
L 36.212818 108.819377 
L 35.303636 145.467026 
L 34.758126 189.545928 
L 34.467188 286.137844 
" style="fill:none;stroke:#34a853;stroke-linecap:square;stroke-width:1.5;"/>
    <defs>
     <path d="M 0 3 
C 0.795609 3 1.55874 2.683901 2.12132 2.12132 
C 2.683901 1.55874 3 0.795609 3 0 
C 3 -0.795609 2.683901 -1.55874 2.12132 -2.12132 
C 1.55874 -2.683901 0.795609 -3 0 -3 
C -0.795609 -3 -1.55874 -2.683901 -2.12132 -2.12132 
C -2.683901 -1.55874 -3 -0.795609 -3 0 
C -3 0.795609 -2.683901 1.55874 -2.12132 2.12132 
C -1.55874 2.683901 -0.795609 3 0 3 
z
" id="m79cf2b6d15" style="stroke:#34a853;"/>
    </defs>
    <g clip-path="url(#p9a0c0ffdad)">
     <use style="fill:#34a853;stroke:#34a853;" x="754.467188" xlink:href="#m79cf2b6d15" y="15.187862"/>
     <use style="fill:#34a853;stroke:#34a853;" x="398.067551" xlink:href="#m79cf2b6d15" y="15.847351"/>
     <use style="fill:#34a853;stroke:#34a853;" x="179.863692" xlink:href="#m79cf2b6d15" y="16.397784"/>
     <use style="fill:#34a853;stroke:#34a853;" x="107.129073" xlink:href="#m79cf2b6d15" y="18.059064"/>
     <use style="fill:#34a853;stroke:#34a853;" x="70.761763" xlink:href="#m79cf2b6d15" y="21.351829"/>
     <use style="fill:#34a853;stroke:#34a853;" x="48.941377" xlink:href="#m79cf2b6d15" y="34.662577"/>
     <use style="fill:#34a853;stroke:#34a853;" x="41.667915" xlink:href="#m79cf2b6d15" y="53.074159"/>
     <use style="fill:#34a853;stroke:#34a853;" x="38.031184" xlink:href="#m79cf2b6d15" y="75.391504"/>
     <use style="fill:#34a853;stroke:#34a853;" x="36.212818" xlink:href="#m79cf2b6d15" y="108.819377"/>
     <use style="fill:#34a853;stroke:#34a853;" x="35.303636" xlink:href="#m79cf2b6d15" y="145.467026"/>
     <use style="fill:#34a853;stroke:#34a853;" x="34.758126" xlink:href="#m79cf2b6d15" y="189.545928"/>
     <use style="fill:#34a853;stroke:#34a853;" x="34.467188" xlink:href="#m79cf2b6d15" y="286.137844"/>
    </g>
   </g>
   <g id="line2d_37">
    <path clip-path="url(#p9a0c0ffdad)" d="M 34.467188 172.209034 
L 754.467188 172.209034 
" style="fill:none;stroke:#000000;stroke-linecap:square;stroke-width:1.5;"/>
   </g>
   <g id="patch_3">
    <path d="M 34.467188 447.118125 
L 34.467188 15.118125 
" style="fill:none;stroke:#000000;stroke-linecap:square;stroke-linejoin:miter;stroke-width:0.8;"/>
   </g>
   <g id="patch_4">
    <path d="M 754.467188 447.118125 
L 754.467188 15.118125 
" style="fill:none;stroke:#000000;stroke-linecap:square;stroke-linejoin:miter;stroke-width:0.8;"/>
   </g>
   <g id="patch_5">
    <path d="M 34.467188 447.118125 
L 754.467188 447.118125 
" style="fill:none;stroke:#000000;stroke-linecap:square;stroke-linejoin:miter;stroke-width:0.8;"/>
   </g>
   <g id="patch_6">
    <path d="M 34.467188 15.118125 
L 754.467188 15.118125 
" style="fill:none;stroke:#000000;stroke-linecap:square;stroke-linejoin:miter;stroke-width:0.8;"/>
   </g>
   <g id="text_17">
    <!-- labeled_data_percentage -->
    <g transform="translate(318.78375 9.118125)scale(0.12 -0.12)">
     <defs>
      <path d="M 9.421875 75.984375 
L 18.40625 75.984375 
L 18.40625 0 
L 9.421875 0 
z
" id="DejaVuSans-108"/>
      <path d="M 34.28125 27.484375 
Q 23.390625 27.484375 19.1875 25 
Q 14.984375 22.515625 14.984375 16.5 
Q 14.984375 11.71875 18.140625 8.90625 
Q 21.296875 6.109375 26.703125 6.109375 
Q 34.1875 6.109375 38.703125 11.40625 
Q 43.21875 16.703125 43.21875 25.484375 
L 43.21875 27.484375 
z
M 52.203125 31.203125 
L 52.203125 0 
L 43.21875 0 
L 43.21875 8.296875 
Q 40.140625 3.328125 35.546875 0.953125 
Q 30.953125 -1.421875 24.3125 -1.421875 
Q 15.921875 -1.421875 10.953125 3.296875 
Q 6 8.015625 6 15.921875 
Q 6 25.140625 12.171875 29.828125 
Q 18.359375 34.515625 30.609375 34.515625 
L 43.21875 34.515625 
L 43.21875 35.40625 
Q 43.21875 41.609375 39.140625 45 
Q 35.0625 48.390625 27.6875 48.390625 
Q 23 48.390625 18.546875 47.265625 
Q 14.109375 46.140625 10.015625 43.890625 
L 10.015625 52.203125 
Q 14.9375 54.109375 19.578125 55.046875 
Q 24.21875 56 28.609375 56 
Q 40.484375 56 46.34375 49.84375 
Q 52.203125 43.703125 52.203125 31.203125 
z
" id="DejaVuSans-97"/>
      <path d="M 48.6875 27.296875 
Q 48.6875 37.203125 44.609375 42.84375 
Q 40.53125 48.484375 33.40625 48.484375 
Q 26.265625 48.484375 22.1875 42.84375 
Q 18.109375 37.203125 18.109375 27.296875 
Q 18.109375 17.390625 22.1875 11.75 
Q 26.265625 6.109375 33.40625 6.109375 
Q 40.53125 6.109375 44.609375 11.75 
Q 48.6875 17.390625 48.6875 27.296875 
z
M 18.109375 46.390625 
Q 20.953125 51.265625 25.265625 53.625 
Q 29.59375 56 35.59375 56 
Q 45.5625 56 51.78125 48.09375 
Q 58.015625 40.1875 58.015625 27.296875 
Q 58.015625 14.40625 51.78125 6.484375 
Q 45.5625 -1.421875 35.59375 -1.421875 
Q 29.59375 -1.421875 25.265625 0.953125 
Q 20.953125 3.328125 18.109375 8.203125 
L 18.109375 0 
L 9.078125 0 
L 9.078125 75.984375 
L 18.109375 75.984375 
z
" id="DejaVuSans-98"/>
      <path d="M 56.203125 29.59375 
L 56.203125 25.203125 
L 14.890625 25.203125 
Q 15.484375 15.921875 20.484375 11.0625 
Q 25.484375 6.203125 34.421875 6.203125 
Q 39.59375 6.203125 44.453125 7.46875 
Q 49.3125 8.734375 54.109375 11.28125 
L 54.109375 2.78125 
Q 49.265625 0.734375 44.1875 -0.34375 
Q 39.109375 -1.421875 33.890625 -1.421875 
Q 20.796875 -1.421875 13.15625 6.1875 
Q 5.515625 13.8125 5.515625 26.8125 
Q 5.515625 40.234375 12.765625 48.109375 
Q 20.015625 56 32.328125 56 
Q 43.359375 56 49.78125 48.890625 
Q 56.203125 41.796875 56.203125 29.59375 
z
M 47.21875 32.234375 
Q 47.125 39.59375 43.09375 43.984375 
Q 39.0625 48.390625 32.421875 48.390625 
Q 24.90625 48.390625 20.390625 44.140625 
Q 15.875 39.890625 15.1875 32.171875 
z
" id="DejaVuSans-101"/>
      <path d="M 45.40625 46.390625 
L 45.40625 75.984375 
L 54.390625 75.984375 
L 54.390625 0 
L 45.40625 0 
L 45.40625 8.203125 
Q 42.578125 3.328125 38.25 0.953125 
Q 33.9375 -1.421875 27.875 -1.421875 
Q 17.96875 -1.421875 11.734375 6.484375 
Q 5.515625 14.40625 5.515625 27.296875 
Q 5.515625 40.1875 11.734375 48.09375 
Q 17.96875 56 27.875 56 
Q 33.9375 56 38.25 53.625 
Q 42.578125 51.265625 45.40625 46.390625 
z
M 14.796875 27.296875 
Q 14.796875 17.390625 18.875 11.75 
Q 22.953125 6.109375 30.078125 6.109375 
Q 37.203125 6.109375 41.296875 11.75 
Q 45.40625 17.390625 45.40625 27.296875 
Q 45.40625 37.203125 41.296875 42.84375 
Q 37.203125 48.484375 30.078125 48.484375 
Q 22.953125 48.484375 18.875 42.84375 
Q 14.796875 37.203125 14.796875 27.296875 
z
" id="DejaVuSans-100"/>
      <path d="M 50.984375 -16.609375 
L 50.984375 -23.578125 
L -0.984375 -23.578125 
L -0.984375 -16.609375 
z
" id="DejaVuSans-95"/>
      <path d="M 18.3125 70.21875 
L 18.3125 54.6875 
L 36.8125 54.6875 
L 36.8125 47.703125 
L 18.3125 47.703125 
L 18.3125 18.015625 
Q 18.3125 11.328125 20.140625 9.421875 
Q 21.96875 7.515625 27.59375 7.515625 
L 36.8125 7.515625 
L 36.8125 0 
L 27.59375 0 
Q 17.1875 0 13.234375 3.875 
Q 9.28125 7.765625 9.28125 18.015625 
L 9.28125 47.703125 
L 2.6875 47.703125 
L 2.6875 54.6875 
L 9.28125 54.6875 
L 9.28125 70.21875 
z
" id="DejaVuSans-116"/>
      <path d="M 18.109375 8.203125 
L 18.109375 -20.796875 
L 9.078125 -20.796875 
L 9.078125 54.6875 
L 18.109375 54.6875 
L 18.109375 46.390625 
Q 20.953125 51.265625 25.265625 53.625 
Q 29.59375 56 35.59375 56 
Q 45.5625 56 51.78125 48.09375 
Q 58.015625 40.1875 58.015625 27.296875 
Q 58.015625 14.40625 51.78125 6.484375 
Q 45.5625 -1.421875 35.59375 -1.421875 
Q 29.59375 -1.421875 25.265625 0.953125 
Q 20.953125 3.328125 18.109375 8.203125 
z
M 48.6875 27.296875 
Q 48.6875 37.203125 44.609375 42.84375 
Q 40.53125 48.484375 33.40625 48.484375 
Q 26.265625 48.484375 22.1875 42.84375 
Q 18.109375 37.203125 18.109375 27.296875 
Q 18.109375 17.390625 22.1875 11.75 
Q 26.265625 6.109375 33.40625 6.109375 
Q 40.53125 6.109375 44.609375 11.75 
Q 48.6875 17.390625 48.6875 27.296875 
z
" id="DejaVuSans-112"/>
      <path d="M 41.109375 46.296875 
Q 39.59375 47.171875 37.8125 47.578125 
Q 36.03125 48 33.890625 48 
Q 26.265625 48 22.1875 43.046875 
Q 18.109375 38.09375 18.109375 28.8125 
L 18.109375 0 
L 9.078125 0 
L 9.078125 54.6875 
L 18.109375 54.6875 
L 18.109375 46.1875 
Q 20.953125 51.171875 25.484375 53.578125 
Q 30.03125 56 36.53125 56 
Q 37.453125 56 38.578125 55.875 
Q 39.703125 55.765625 41.0625 55.515625 
z
" id="DejaVuSans-114"/>
      <path d="M 48.78125 52.59375 
L 48.78125 44.1875 
Q 44.96875 46.296875 41.140625 47.34375 
Q 37.3125 48.390625 33.40625 48.390625 
Q 24.65625 48.390625 19.8125 42.84375 
Q 14.984375 37.3125 14.984375 27.296875 
Q 14.984375 17.28125 19.8125 11.734375 
Q 24.65625 6.203125 33.40625 6.203125 
Q 37.3125 6.203125 41.140625 7.25 
Q 44.96875 8.296875 48.78125 10.40625 
L 48.78125 2.09375 
Q 45.015625 0.34375 40.984375 -0.53125 
Q 36.96875 -1.421875 32.421875 -1.421875 
Q 20.0625 -1.421875 12.78125 6.34375 
Q 5.515625 14.109375 5.515625 27.296875 
Q 5.515625 40.671875 12.859375 48.328125 
Q 20.21875 56 33.015625 56 
Q 37.15625 56 41.109375 55.140625 
Q 45.0625 54.296875 48.78125 52.59375 
z
" id="DejaVuSans-99"/>
      <path d="M 54.890625 33.015625 
L 54.890625 0 
L 45.90625 0 
L 45.90625 32.71875 
Q 45.90625 40.484375 42.875 44.328125 
Q 39.84375 48.1875 33.796875 48.1875 
Q 26.515625 48.1875 22.3125 43.546875 
Q 18.109375 38.921875 18.109375 30.90625 
L 18.109375 0 
L 9.078125 0 
L 9.078125 54.6875 
L 18.109375 54.6875 
L 18.109375 46.1875 
Q 21.34375 51.125 25.703125 53.5625 
Q 30.078125 56 35.796875 56 
Q 45.21875 56 50.046875 50.171875 
Q 54.890625 44.34375 54.890625 33.015625 
z
" id="DejaVuSans-110"/>
      <path d="M 45.40625 27.984375 
Q 45.40625 37.75 41.375 43.109375 
Q 37.359375 48.484375 30.078125 48.484375 
Q 22.859375 48.484375 18.828125 43.109375 
Q 14.796875 37.75 14.796875 27.984375 
Q 14.796875 18.265625 18.828125 12.890625 
Q 22.859375 7.515625 30.078125 7.515625 
Q 37.359375 7.515625 41.375 12.890625 
Q 45.40625 18.265625 45.40625 27.984375 
z
M 54.390625 6.78125 
Q 54.390625 -7.171875 48.1875 -13.984375 
Q 42 -20.796875 29.203125 -20.796875 
Q 24.46875 -20.796875 20.265625 -20.09375 
Q 16.0625 -19.390625 12.109375 -17.921875 
L 12.109375 -9.1875 
Q 16.0625 -11.328125 19.921875 -12.34375 
Q 23.78125 -13.375 27.78125 -13.375 
Q 36.625 -13.375 41.015625 -8.765625 
Q 45.40625 -4.15625 45.40625 5.171875 
L 45.40625 9.625 
Q 42.625 4.78125 38.28125 2.390625 
Q 33.9375 0 27.875 0 
Q 17.828125 0 11.671875 7.65625 
Q 5.515625 15.328125 5.515625 27.984375 
Q 5.515625 40.671875 11.671875 48.328125 
Q 17.828125 56 27.875 56 
Q 33.9375 56 38.28125 53.609375 
Q 42.625 51.21875 45.40625 46.390625 
L 45.40625 54.6875 
L 54.390625 54.6875 
z
" id="DejaVuSans-103"/>
     </defs>
     <use xlink:href="#DejaVuSans-108"/>
     <use x="27.783203" xlink:href="#DejaVuSans-97"/>
     <use x="89.0625" xlink:href="#DejaVuSans-98"/>
     <use x="152.539062" xlink:href="#DejaVuSans-101"/>
     <use x="214.0625" xlink:href="#DejaVuSans-108"/>
     <use x="241.845703" xlink:href="#DejaVuSans-101"/>
     <use x="303.369141" xlink:href="#DejaVuSans-100"/>
     <use x="366.845703" xlink:href="#DejaVuSans-95"/>
     <use x="416.845703" xlink:href="#DejaVuSans-100"/>
     <use x="480.322266" xlink:href="#DejaVuSans-97"/>
     <use x="541.601562" xlink:href="#DejaVuSans-116"/>
     <use x="580.810547" xlink:href="#DejaVuSans-97"/>
     <use x="642.089844" xlink:href="#DejaVuSans-95"/>
     <use x="692.089844" xlink:href="#DejaVuSans-112"/>
     <use x="755.566406" xlink:href="#DejaVuSans-101"/>
     <use x="817.089844" xlink:href="#DejaVuSans-114"/>
     <use x="855.953125" xlink:href="#DejaVuSans-99"/>
     <use x="910.933594" xlink:href="#DejaVuSans-101"/>
     <use x="972.457031" xlink:href="#DejaVuSans-110"/>
     <use x="1035.835938" xlink:href="#DejaVuSans-116"/>
     <use x="1075.044922" xlink:href="#DejaVuSans-97"/>
     <use x="1136.324219" xlink:href="#DejaVuSans-103"/>
     <use x="1199.800781" xlink:href="#DejaVuSans-101"/>
    </g>
   </g>
   <g id="legend_1">
    <g id="patch_7">
     <path d="M 520.254688 81.830625 
L 747.467188 81.830625 
Q 749.467188 81.830625 749.467188 79.830625 
L 749.467188 22.118125 
Q 749.467188 20.118125 747.467188 20.118125 
L 520.254688 20.118125 
Q 518.254688 20.118125 518.254688 22.118125 
L 518.254688 79.830625 
Q 518.254688 81.830625 520.254688 81.830625 
z
" style="fill:#ffffff;opacity:0.8;stroke:#cccccc;stroke-linejoin:miter;"/>
    </g>
    <g id="line2d_38">
     <path d="M 522.254688 28.216562 
L 542.254688 28.216562 
" style="fill:none;stroke:#46bdc6;stroke-linecap:square;stroke-width:1.5;"/>
    </g>
    <g id="line2d_39">
     <g>
      <use style="fill:#46bdc6;stroke:#46bdc6;" x="532.254688" xlink:href="#m5a84d4666b" y="28.216562"/>
     </g>
    </g>
    <g id="text_18">
     <!-- Log loss (semi-supervised), categorical -->
     <g transform="translate(550.254688 31.716562)scale(0.1 -0.1)">
      <defs>
       <path d="M 9.8125 72.90625 
L 19.671875 72.90625 
L 19.671875 8.296875 
L 55.171875 8.296875 
L 55.171875 0 
L 9.8125 0 
z
" id="DejaVuSans-76"/>
       <path d="M 30.609375 48.390625 
Q 23.390625 48.390625 19.1875 42.75 
Q 14.984375 37.109375 14.984375 27.296875 
Q 14.984375 17.484375 19.15625 11.84375 
Q 23.34375 6.203125 30.609375 6.203125 
Q 37.796875 6.203125 41.984375 11.859375 
Q 46.1875 17.53125 46.1875 27.296875 
Q 46.1875 37.015625 41.984375 42.703125 
Q 37.796875 48.390625 30.609375 48.390625 
z
M 30.609375 56 
Q 42.328125 56 49.015625 48.375 
Q 55.71875 40.765625 55.71875 27.296875 
Q 55.71875 13.875 49.015625 6.21875 
Q 42.328125 -1.421875 30.609375 -1.421875 
Q 18.84375 -1.421875 12.171875 6.21875 
Q 5.515625 13.875 5.515625 27.296875 
Q 5.515625 40.765625 12.171875 48.375 
Q 18.84375 56 30.609375 56 
z
" id="DejaVuSans-111"/>
       <path id="DejaVuSans-32"/>
       <path d="M 44.28125 53.078125 
L 44.28125 44.578125 
Q 40.484375 46.53125 36.375 47.5 
Q 32.28125 48.484375 27.875 48.484375 
Q 21.1875 48.484375 17.84375 46.4375 
Q 14.5 44.390625 14.5 40.28125 
Q 14.5 37.15625 16.890625 35.375 
Q 19.28125 33.59375 26.515625 31.984375 
L 29.59375 31.296875 
Q 39.15625 29.25 43.1875 25.515625 
Q 47.21875 21.78125 47.21875 15.09375 
Q 47.21875 7.46875 41.1875 3.015625 
Q 35.15625 -1.421875 24.609375 -1.421875 
Q 20.21875 -1.421875 15.453125 -0.5625 
Q 10.6875 0.296875 5.421875 2 
L 5.421875 11.28125 
Q 10.40625 8.6875 15.234375 7.390625 
Q 20.0625 6.109375 24.8125 6.109375 
Q 31.15625 6.109375 34.5625 8.28125 
Q 37.984375 10.453125 37.984375 14.40625 
Q 37.984375 18.0625 35.515625 20.015625 
Q 33.0625 21.96875 24.703125 23.78125 
L 21.578125 24.515625 
Q 13.234375 26.265625 9.515625 29.90625 
Q 5.8125 33.546875 5.8125 39.890625 
Q 5.8125 47.609375 11.28125 51.796875 
Q 16.75 56 26.8125 56 
Q 31.78125 56 36.171875 55.265625 
Q 40.578125 54.546875 44.28125 53.078125 
z
" id="DejaVuSans-115"/>
       <path d="M 31 75.875 
Q 24.46875 64.65625 21.28125 53.65625 
Q 18.109375 42.671875 18.109375 31.390625 
Q 18.109375 20.125 21.3125 9.0625 
Q 24.515625 -2 31 -13.1875 
L 23.1875 -13.1875 
Q 15.875 -1.703125 12.234375 9.375 
Q 8.59375 20.453125 8.59375 31.390625 
Q 8.59375 42.28125 12.203125 53.3125 
Q 15.828125 64.359375 23.1875 75.875 
z
" id="DejaVuSans-40"/>
       <path d="M 52 44.1875 
Q 55.375 50.25 60.0625 53.125 
Q 64.75 56 71.09375 56 
Q 79.640625 56 84.28125 50.015625 
Q 88.921875 44.046875 88.921875 33.015625 
L 88.921875 0 
L 79.890625 0 
L 79.890625 32.71875 
Q 79.890625 40.578125 77.09375 44.375 
Q 74.3125 48.1875 68.609375 48.1875 
Q 61.625 48.1875 57.5625 43.546875 
Q 53.515625 38.921875 53.515625 30.90625 
L 53.515625 0 
L 44.484375 0 
L 44.484375 32.71875 
Q 44.484375 40.625 41.703125 44.40625 
Q 38.921875 48.1875 33.109375 48.1875 
Q 26.21875 48.1875 22.15625 43.53125 
Q 18.109375 38.875 18.109375 30.90625 
L 18.109375 0 
L 9.078125 0 
L 9.078125 54.6875 
L 18.109375 54.6875 
L 18.109375 46.1875 
Q 21.1875 51.21875 25.484375 53.609375 
Q 29.78125 56 35.6875 56 
Q 41.65625 56 45.828125 52.96875 
Q 50 49.953125 52 44.1875 
z
" id="DejaVuSans-109"/>
       <path d="M 9.421875 54.6875 
L 18.40625 54.6875 
L 18.40625 0 
L 9.421875 0 
z
M 9.421875 75.984375 
L 18.40625 75.984375 
L 18.40625 64.59375 
L 9.421875 64.59375 
z
" id="DejaVuSans-105"/>
       <path d="M 4.890625 31.390625 
L 31.203125 31.390625 
L 31.203125 23.390625 
L 4.890625 23.390625 
z
" id="DejaVuSans-45"/>
       <path d="M 8.5 21.578125 
L 8.5 54.6875 
L 17.484375 54.6875 
L 17.484375 21.921875 
Q 17.484375 14.15625 20.5 10.265625 
Q 23.53125 6.390625 29.59375 6.390625 
Q 36.859375 6.390625 41.078125 11.03125 
Q 45.3125 15.671875 45.3125 23.6875 
L 45.3125 54.6875 
L 54.296875 54.6875 
L 54.296875 0 
L 45.3125 0 
L 45.3125 8.40625 
Q 42.046875 3.421875 37.71875 1 
Q 33.40625 -1.421875 27.6875 -1.421875 
Q 18.265625 -1.421875 13.375 4.4375 
Q 8.5 10.296875 8.5 21.578125 
z
M 31.109375 56 
z
" id="DejaVuSans-117"/>
       <path d="M 2.984375 54.6875 
L 12.5 54.6875 
L 29.59375 8.796875 
L 46.6875 54.6875 
L 56.203125 54.6875 
L 35.6875 0 
L 23.484375 0 
z
" id="DejaVuSans-118"/>
       <path d="M 8.015625 75.875 
L 15.828125 75.875 
Q 23.140625 64.359375 26.78125 53.3125 
Q 30.421875 42.28125 30.421875 31.390625 
Q 30.421875 20.453125 26.78125 9.375 
Q 23.140625 -1.703125 15.828125 -13.1875 
L 8.015625 -13.1875 
Q 14.5 -2 17.703125 9.0625 
Q 20.90625 20.125 20.90625 31.390625 
Q 20.90625 42.671875 17.703125 53.65625 
Q 14.5 64.65625 8.015625 75.875 
z
" id="DejaVuSans-41"/>
       <path d="M 11.71875 12.40625 
L 22.015625 12.40625 
L 22.015625 4 
L 14.015625 -11.625 
L 7.71875 -11.625 
L 11.71875 4 
z
" id="DejaVuSans-44"/>
      </defs>
      <use xlink:href="#DejaVuSans-76"/>
      <use x="53.962891" xlink:href="#DejaVuSans-111"/>
      <use x="115.144531" xlink:href="#DejaVuSans-103"/>
      <use x="178.621094" xlink:href="#DejaVuSans-32"/>
      <use x="210.408203" xlink:href="#DejaVuSans-108"/>
      <use x="238.191406" xlink:href="#DejaVuSans-111"/>
      <use x="299.373047" xlink:href="#DejaVuSans-115"/>
      <use x="351.472656" xlink:href="#DejaVuSans-115"/>
      <use x="403.572266" xlink:href="#DejaVuSans-32"/>
      <use x="435.359375" xlink:href="#DejaVuSans-40"/>
      <use x="474.373047" xlink:href="#DejaVuSans-115"/>
      <use x="526.472656" xlink:href="#DejaVuSans-101"/>
      <use x="587.996094" xlink:href="#DejaVuSans-109"/>
      <use x="685.408203" xlink:href="#DejaVuSans-105"/>
      <use x="713.191406" xlink:href="#DejaVuSans-45"/>
      <use x="749.275391" xlink:href="#DejaVuSans-115"/>
      <use x="801.375" xlink:href="#DejaVuSans-117"/>
      <use x="864.753906" xlink:href="#DejaVuSans-112"/>
      <use x="928.230469" xlink:href="#DejaVuSans-101"/>
      <use x="989.753906" xlink:href="#DejaVuSans-114"/>
      <use x="1030.867188" xlink:href="#DejaVuSans-118"/>
      <use x="1090.046875" xlink:href="#DejaVuSans-105"/>
      <use x="1117.830078" xlink:href="#DejaVuSans-115"/>
      <use x="1169.929688" xlink:href="#DejaVuSans-101"/>
      <use x="1231.453125" xlink:href="#DejaVuSans-100"/>
      <use x="1294.929688" xlink:href="#DejaVuSans-41"/>
      <use x="1333.943359" xlink:href="#DejaVuSans-44"/>
      <use x="1365.730469" xlink:href="#DejaVuSans-32"/>
      <use x="1397.517578" xlink:href="#DejaVuSans-99"/>
      <use x="1452.498047" xlink:href="#DejaVuSans-97"/>
      <use x="1513.777344" xlink:href="#DejaVuSans-116"/>
      <use x="1552.986328" xlink:href="#DejaVuSans-101"/>
      <use x="1614.509766" xlink:href="#DejaVuSans-103"/>
      <use x="1677.986328" xlink:href="#DejaVuSans-111"/>
      <use x="1739.167969" xlink:href="#DejaVuSans-114"/>
      <use x="1780.28125" xlink:href="#DejaVuSans-105"/>
      <use x="1808.064453" xlink:href="#DejaVuSans-99"/>
      <use x="1863.044922" xlink:href="#DejaVuSans-97"/>
      <use x="1924.324219" xlink:href="#DejaVuSans-108"/>
     </g>
    </g>
    <g id="line2d_40">
     <path d="M 522.254688 42.894687 
L 542.254688 42.894687 
" style="fill:none;stroke:#ea4335;stroke-linecap:square;stroke-width:1.5;"/>
    </g>
    <g id="line2d_41">
     <g>
      <use style="fill:#ea4335;stroke:#ea4335;" x="532.254688" xlink:href="#m4b2d1f9ef1" y="42.894687"/>
     </g>
    </g>
    <g id="text_19">
     <!-- JSD loss (semi-supervised), categorical -->
     <g transform="translate(550.254688 46.394687)scale(0.1 -0.1)">
      <defs>
       <path d="M 9.8125 72.90625 
L 19.671875 72.90625 
L 19.671875 5.078125 
Q 19.671875 -8.109375 14.671875 -14.0625 
Q 9.671875 -20.015625 -1.421875 -20.015625 
L -5.171875 -20.015625 
L -5.171875 -11.71875 
L -2.09375 -11.71875 
Q 4.4375 -11.71875 7.125 -8.046875 
Q 9.8125 -4.390625 9.8125 5.078125 
z
" id="DejaVuSans-74"/>
       <path d="M 53.515625 70.515625 
L 53.515625 60.890625 
Q 47.90625 63.578125 42.921875 64.890625 
Q 37.9375 66.21875 33.296875 66.21875 
Q 25.25 66.21875 20.875 63.09375 
Q 16.5 59.96875 16.5 54.203125 
Q 16.5 49.359375 19.40625 46.890625 
Q 22.3125 44.4375 30.421875 42.921875 
L 36.375 41.703125 
Q 47.40625 39.59375 52.65625 34.296875 
Q 57.90625 29 57.90625 20.125 
Q 57.90625 9.515625 50.796875 4.046875 
Q 43.703125 -1.421875 29.984375 -1.421875 
Q 24.8125 -1.421875 18.96875 -0.25 
Q 13.140625 0.921875 6.890625 3.21875 
L 6.890625 13.375 
Q 12.890625 10.015625 18.65625 8.296875 
Q 24.421875 6.59375 29.984375 6.59375 
Q 38.421875 6.59375 43.015625 9.90625 
Q 47.609375 13.234375 47.609375 19.390625 
Q 47.609375 24.75 44.3125 27.78125 
Q 41.015625 30.8125 33.5 32.328125 
L 27.484375 33.5 
Q 16.453125 35.6875 11.515625 40.375 
Q 6.59375 45.0625 6.59375 53.421875 
Q 6.59375 63.09375 13.40625 68.65625 
Q 20.21875 74.21875 32.171875 74.21875 
Q 37.3125 74.21875 42.625 73.28125 
Q 47.953125 72.359375 53.515625 70.515625 
z
" id="DejaVuSans-83"/>
       <path d="M 19.671875 64.796875 
L 19.671875 8.109375 
L 31.59375 8.109375 
Q 46.6875 8.109375 53.6875 14.9375 
Q 60.6875 21.78125 60.6875 36.53125 
Q 60.6875 51.171875 53.6875 57.984375 
Q 46.6875 64.796875 31.59375 64.796875 
z
M 9.8125 72.90625 
L 30.078125 72.90625 
Q 51.265625 72.90625 61.171875 64.09375 
Q 71.09375 55.28125 71.09375 36.53125 
Q 71.09375 17.671875 61.125 8.828125 
Q 51.171875 0 30.078125 0 
L 9.8125 0 
z
" id="DejaVuSans-68"/>
      </defs>
      <use xlink:href="#DejaVuSans-74"/>
      <use x="29.492188" xlink:href="#DejaVuSans-83"/>
      <use x="92.96875" xlink:href="#DejaVuSans-68"/>
      <use x="169.970703" xlink:href="#DejaVuSans-32"/>
      <use x="201.757812" xlink:href="#DejaVuSans-108"/>
      <use x="229.541016" xlink:href="#DejaVuSans-111"/>
      <use x="290.722656" xlink:href="#DejaVuSans-115"/>
      <use x="342.822266" xlink:href="#DejaVuSans-115"/>
      <use x="394.921875" xlink:href="#DejaVuSans-32"/>
      <use x="426.708984" xlink:href="#DejaVuSans-40"/>
      <use x="465.722656" xlink:href="#DejaVuSans-115"/>
      <use x="517.822266" xlink:href="#DejaVuSans-101"/>
      <use x="579.345703" xlink:href="#DejaVuSans-109"/>
      <use x="676.757812" xlink:href="#DejaVuSans-105"/>
      <use x="704.541016" xlink:href="#DejaVuSans-45"/>
      <use x="740.625" xlink:href="#DejaVuSans-115"/>
      <use x="792.724609" xlink:href="#DejaVuSans-117"/>
      <use x="856.103516" xlink:href="#DejaVuSans-112"/>
      <use x="919.580078" xlink:href="#DejaVuSans-101"/>
      <use x="981.103516" xlink:href="#DejaVuSans-114"/>
      <use x="1022.216797" xlink:href="#DejaVuSans-118"/>
      <use x="1081.396484" xlink:href="#DejaVuSans-105"/>
      <use x="1109.179688" xlink:href="#DejaVuSans-115"/>
      <use x="1161.279297" xlink:href="#DejaVuSans-101"/>
      <use x="1222.802734" xlink:href="#DejaVuSans-100"/>
      <use x="1286.279297" xlink:href="#DejaVuSans-41"/>
      <use x="1325.292969" xlink:href="#DejaVuSans-44"/>
      <use x="1357.080078" xlink:href="#DejaVuSans-32"/>
      <use x="1388.867188" xlink:href="#DejaVuSans-99"/>
      <use x="1443.847656" xlink:href="#DejaVuSans-97"/>
      <use x="1505.126953" xlink:href="#DejaVuSans-116"/>
      <use x="1544.335938" xlink:href="#DejaVuSans-101"/>
      <use x="1605.859375" xlink:href="#DejaVuSans-103"/>
      <use x="1669.335938" xlink:href="#DejaVuSans-111"/>
      <use x="1730.517578" xlink:href="#DejaVuSans-114"/>
      <use x="1771.630859" xlink:href="#DejaVuSans-105"/>
      <use x="1799.414062" xlink:href="#DejaVuSans-99"/>
      <use x="1854.394531" xlink:href="#DejaVuSans-97"/>
      <use x="1915.673828" xlink:href="#DejaVuSans-108"/>
     </g>
    </g>
    <g id="line2d_42">
     <path d="M 522.254688 57.572812 
L 542.254688 57.572812 
" style="fill:none;stroke:#800080;stroke-linecap:square;stroke-width:1.5;"/>
    </g>
    <g id="line2d_43">
     <g>
      <use style="fill:#800080;stroke:#800080;" x="532.254688" xlink:href="#mc7607294eb" y="57.572812"/>
     </g>
    </g>
    <g id="text_20">
     <!-- Log loss (semi-supervised), continuous -->
     <g transform="translate(550.254688 61.072812)scale(0.1 -0.1)">
      <use xlink:href="#DejaVuSans-76"/>
      <use x="53.962891" xlink:href="#DejaVuSans-111"/>
      <use x="115.144531" xlink:href="#DejaVuSans-103"/>
      <use x="178.621094" xlink:href="#DejaVuSans-32"/>
      <use x="210.408203" xlink:href="#DejaVuSans-108"/>
      <use x="238.191406" xlink:href="#DejaVuSans-111"/>
      <use x="299.373047" xlink:href="#DejaVuSans-115"/>
      <use x="351.472656" xlink:href="#DejaVuSans-115"/>
      <use x="403.572266" xlink:href="#DejaVuSans-32"/>
      <use x="435.359375" xlink:href="#DejaVuSans-40"/>
      <use x="474.373047" xlink:href="#DejaVuSans-115"/>
      <use x="526.472656" xlink:href="#DejaVuSans-101"/>
      <use x="587.996094" xlink:href="#DejaVuSans-109"/>
      <use x="685.408203" xlink:href="#DejaVuSans-105"/>
      <use x="713.191406" xlink:href="#DejaVuSans-45"/>
      <use x="749.275391" xlink:href="#DejaVuSans-115"/>
      <use x="801.375" xlink:href="#DejaVuSans-117"/>
      <use x="864.753906" xlink:href="#DejaVuSans-112"/>
      <use x="928.230469" xlink:href="#DejaVuSans-101"/>
      <use x="989.753906" xlink:href="#DejaVuSans-114"/>
      <use x="1030.867188" xlink:href="#DejaVuSans-118"/>
      <use x="1090.046875" xlink:href="#DejaVuSans-105"/>
      <use x="1117.830078" xlink:href="#DejaVuSans-115"/>
      <use x="1169.929688" xlink:href="#DejaVuSans-101"/>
      <use x="1231.453125" xlink:href="#DejaVuSans-100"/>
      <use x="1294.929688" xlink:href="#DejaVuSans-41"/>
      <use x="1333.943359" xlink:href="#DejaVuSans-44"/>
      <use x="1365.730469" xlink:href="#DejaVuSans-32"/>
      <use x="1397.517578" xlink:href="#DejaVuSans-99"/>
      <use x="1452.498047" xlink:href="#DejaVuSans-111"/>
      <use x="1513.679688" xlink:href="#DejaVuSans-110"/>
      <use x="1577.058594" xlink:href="#DejaVuSans-116"/>
      <use x="1616.267578" xlink:href="#DejaVuSans-105"/>
      <use x="1644.050781" xlink:href="#DejaVuSans-110"/>
      <use x="1707.429688" xlink:href="#DejaVuSans-117"/>
      <use x="1770.808594" xlink:href="#DejaVuSans-111"/>
      <use x="1831.990234" xlink:href="#DejaVuSans-117"/>
      <use x="1895.369141" xlink:href="#DejaVuSans-115"/>
     </g>
    </g>
    <g id="line2d_44">
     <path d="M 522.254688 72.250937 
L 542.254688 72.250937 
" style="fill:none;stroke:#34a853;stroke-linecap:square;stroke-width:1.5;"/>
    </g>
    <g id="line2d_45">
     <g>
      <use style="fill:#34a853;stroke:#34a853;" x="532.254688" xlink:href="#m79cf2b6d15" y="72.250937"/>
     </g>
    </g>
    <g id="text_21">
     <!-- JSD loss (semi-supervised), continuous -->
     <g transform="translate(550.254688 75.750937)scale(0.1 -0.1)">
      <use xlink:href="#DejaVuSans-74"/>
      <use x="29.492188" xlink:href="#DejaVuSans-83"/>
      <use x="92.96875" xlink:href="#DejaVuSans-68"/>
      <use x="169.970703" xlink:href="#DejaVuSans-32"/>
      <use x="201.757812" xlink:href="#DejaVuSans-108"/>
      <use x="229.541016" xlink:href="#DejaVuSans-111"/>
      <use x="290.722656" xlink:href="#DejaVuSans-115"/>
      <use x="342.822266" xlink:href="#DejaVuSans-115"/>
      <use x="394.921875" xlink:href="#DejaVuSans-32"/>
      <use x="426.708984" xlink:href="#DejaVuSans-40"/>
      <use x="465.722656" xlink:href="#DejaVuSans-115"/>
      <use x="517.822266" xlink:href="#DejaVuSans-101"/>
      <use x="579.345703" xlink:href="#DejaVuSans-109"/>
      <use x="676.757812" xlink:href="#DejaVuSans-105"/>
      <use x="704.541016" xlink:href="#DejaVuSans-45"/>
      <use x="740.625" xlink:href="#DejaVuSans-115"/>
      <use x="792.724609" xlink:href="#DejaVuSans-117"/>
      <use x="856.103516" xlink:href="#DejaVuSans-112"/>
      <use x="919.580078" xlink:href="#DejaVuSans-101"/>
      <use x="981.103516" xlink:href="#DejaVuSans-114"/>
      <use x="1022.216797" xlink:href="#DejaVuSans-118"/>
      <use x="1081.396484" xlink:href="#DejaVuSans-105"/>
      <use x="1109.179688" xlink:href="#DejaVuSans-115"/>
      <use x="1161.279297" xlink:href="#DejaVuSans-101"/>
      <use x="1222.802734" xlink:href="#DejaVuSans-100"/>
      <use x="1286.279297" xlink:href="#DejaVuSans-41"/>
      <use x="1325.292969" xlink:href="#DejaVuSans-44"/>
      <use x="1357.080078" xlink:href="#DejaVuSans-32"/>
      <use x="1388.867188" xlink:href="#DejaVuSans-99"/>
      <use x="1443.847656" xlink:href="#DejaVuSans-111"/>
      <use x="1505.029297" xlink:href="#DejaVuSans-110"/>
      <use x="1568.408203" xlink:href="#DejaVuSans-116"/>
      <use x="1607.617188" xlink:href="#DejaVuSans-105"/>
      <use x="1635.400391" xlink:href="#DejaVuSans-110"/>
      <use x="1698.779297" xlink:href="#DejaVuSans-117"/>
      <use x="1762.158203" xlink:href="#DejaVuSans-111"/>
      <use x="1823.339844" xlink:href="#DejaVuSans-117"/>
      <use x="1886.71875" xlink:href="#DejaVuSans-115"/>
     </g>
    </g>
   </g>
  </g>
 </g>
 <defs>
  <clipPath id="p9a0c0ffdad">
   <rect height="432" width="720" x="34.467188" y="15.118125"/>
  </clipPath>
 </defs>
</svg>
