<?xml version="1.0" encoding="utf-8" standalone="no"?>
<!DOCTYPE svg PUBLIC "-//W3C//DTD SVG 1.1//EN"
  "http://www.w3.org/Graphics/SVG/1.1/DTD/svg11.dtd">
<!-- Created with matplotlib (https://matplotlib.org/) -->
<svg height="480.04875pt" version="1.1" viewBox="0 0 790.4325 480.04875" width="790.4325pt" xmlns="http://www.w3.org/2000/svg" xmlns:xlink="http://www.w3.org/1999/xlink">
 <metadata>
  <rdf:RDF xmlns:cc="http://creativecommons.org/ns#" xmlns:dc="http://purl.org/dc/elements/1.1/" xmlns:rdf="http://www.w3.org/1999/02/22-rdf-syntax-ns#">
   <cc:Work>
    <dc:type rdf:resource="http://purl.org/dc/dcmitype/StillImage"/>
    <dc:date>2021-03-10T22:00:44.503191</dc:date>
    <dc:format>image/svg+xml</dc:format>
    <dc:creator>
     <cc:Agent>
      <dc:title>Matplotlib v3.3.4, https://matplotlib.org/</dc:title>
     </cc:Agent>
    </dc:creator>
   </cc:Work>
  </rdf:RDF>
 </metadata>
 <defs>
  <style type="text/css">*{stroke-linecap:butt;stroke-linejoin:round;}</style>
 </defs>
 <g id="figure_1">
  <g id="patch_1">
   <path d="M 0 480.04875 
L 790.4325 480.04875 
L 790.4325 0 
L 0 0 
z
" style="fill:none;"/>
  </g>
  <g id="axes_1">
   <g id="patch_2">
    <path d="M 70.4325 438.07875 
L 790.4325 438.07875 
L 790.4325 6.07875 
L 70.4325 6.07875 
z
" style="fill:#ffffff;"/>
   </g>
   <g id="PolyCollection_1">
    <defs>
     <path d="M 790.4325 -360.678576 
L 790.4325 -358.456397 
L 736.974432 -358.051056 
L 665.266983 -355.068296 
L 611.022392 -355.593183 
L 556.777801 -354.423089 
L 485.070353 -350.756176 
L 430.825762 -348.661152 
L 376.581171 -339.287426 
L 322.33658 -321.195345 
L 268.091989 -297.029015 
L 196.38454 -199.692728 
L 70.4325 -9.06877 
L 70.4325 -150.831072 
L 70.4325 -150.831072 
L 196.38454 -285.999893 
L 268.091989 -322.199681 
L 322.33658 -340.827169 
L 376.581171 -351.601967 
L 430.825762 -356.616992 
L 485.070353 -357.156619 
L 556.777801 -359.081019 
L 611.022392 -359.210662 
L 665.266983 -360.357813 
L 736.974432 -359.894992 
L 790.4325 -360.678576 
z
" id="m17278e4108" style="stroke:#46bdc6;stroke-opacity:0.2;"/>
    </defs>
    <g clip-path="url(#pac97b8822f)">
     <use style="fill:#46bdc6;fill-opacity:0.2;stroke:#46bdc6;stroke-opacity:0.2;" x="0" xlink:href="#m17278e4108" y="480.04875"/>
    </g>
   </g>
   <g id="PolyCollection_2">
    <defs>
     <path d="M 790.4325 -390.150738 
L 790.4325 -387.868218 
L 736.974432 -387.17411 
L 665.266983 -386.938414 
L 611.022392 -385.885854 
L 556.777801 -383.764406 
L 485.070353 -375.762212 
L 430.825762 -366.721135 
L 376.581171 -356.806635 
L 322.33658 -329.681927 
L 268.091989 -297.809849 
L 196.38454 -189.705847 
L 70.4325 -67.66512 
L 70.4325 -160.665471 
L 70.4325 -160.665471 
L 196.38454 -285.102669 
L 268.091989 -332.483332 
L 322.33658 -354.719272 
L 376.581171 -367.706887 
L 430.825762 -373.314287 
L 485.070353 -381.931048 
L 556.777801 -386.405537 
L 611.022392 -388.645556 
L 665.266983 -388.874021 
L 736.974432 -388.953334 
L 790.4325 -390.150738 
z
" id="m5c9084f29a" style="stroke:#ea4335;stroke-opacity:0.2;"/>
    </defs>
    <g clip-path="url(#pac97b8822f)">
     <use style="fill:#ea4335;fill-opacity:0.2;stroke:#ea4335;stroke-opacity:0.2;" x="0" xlink:href="#m5c9084f29a" y="480.04875"/>
    </g>
   </g>
   <g id="PolyCollection_3">
    <defs>
     <path d="M 790.4325 -473.96011 
L 790.4325 -473.915296 
L 736.974432 -473.544285 
L 665.266983 -472.721872 
L 611.022392 -471.23318 
L 556.777801 -464.43841 
L 485.070353 -437.749434 
L 430.825762 -393.836378 
L 376.581171 -351.555246 
L 322.33658 -313.889379 
L 268.091989 -265.056247 
L 196.38454 -171.92539 
L 70.4325 -98.796156 
L 70.4325 -184.968186 
L 70.4325 -184.968186 
L 196.38454 -251.736245 
L 268.091989 -289.452822 
L 322.33658 -330.115397 
L 376.581171 -367.157186 
L 430.825762 -403.65898 
L 485.070353 -444.546678 
L 556.777801 -467.940667 
L 611.022392 -472.262107 
L 665.266983 -473.449218 
L 736.974432 -473.713924 
L 790.4325 -473.96011 
z
" id="mc4f13fb31a" style="stroke:#800080;stroke-opacity:0.2;"/>
    </defs>
    <g clip-path="url(#pac97b8822f)">
     <use style="fill:#800080;fill-opacity:0.2;stroke:#800080;stroke-opacity:0.2;" x="0" xlink:href="#mc4f13fb31a" y="480.04875"/>
    </g>
   </g>
   <g id="PolyCollection_4">
    <defs>
     <path d="M 790.4325 -473.943275 
L 790.4325 -473.869606 
L 736.974432 -473.059951 
L 665.266983 -472.441035 
L 611.022392 -470.22432 
L 556.777801 -466.882558 
L 485.070353 -453.48107 
L 430.825762 -434.386981 
L 376.581171 -409.118109 
L 322.33658 -371.69399 
L 268.091989 -337.013026 
L 196.38454 -289.15025 
L 70.4325 -163.081286 
L 70.4325 -275.039937 
L 70.4325 -275.039937 
L 196.38454 -324.595597 
L 268.091989 -357.277868 
L 322.33658 -384.517334 
L 376.581171 -417.717674 
L 430.825762 -438.729207 
L 485.070353 -457.265318 
L 556.777801 -468.622057 
L 611.022392 -471.542006 
L 665.266983 -472.970286 
L 736.974432 -473.591225 
L 790.4325 -473.943275 
z
" id="mc8741b703f" style="stroke:#34a853;stroke-opacity:0.2;"/>
    </defs>
    <g clip-path="url(#pac97b8822f)">
     <use style="fill:#34a853;fill-opacity:0.2;stroke:#34a853;stroke-opacity:0.2;" x="0" xlink:href="#mc8741b703f" y="480.04875"/>
    </g>
   </g>
   <g id="matplotlib.axis_1">
    <g id="xtick_1">
     <g id="line2d_1">
      <path clip-path="url(#pac97b8822f)" d="M 70.4325 438.07875 
L 70.4325 6.07875 
" style="fill:none;stroke:#b0b0b0;stroke-linecap:square;stroke-width:0.8;"/>
     </g>
     <g id="line2d_2">
      <defs>
       <path d="M 0 0 
L 0 3.5 
" id="m08f5d4e0c8" style="stroke:#000000;stroke-width:0.8;"/>
      </defs>
      <g>
       <use style="stroke:#000000;stroke-width:0.8;" x="70.4325" xlink:href="#m08f5d4e0c8" y="438.07875"/>
      </g>
     </g>
     <g id="text_1">
      <!-- $\mathdefault{10^{-2}}$ -->
      <g transform="translate(51.6325 457.23625)scale(0.16 -0.16)">
       <defs>
        <path d="M 12.40625 8.296875 
L 28.515625 8.296875 
L 28.515625 63.921875 
L 10.984375 60.40625 
L 10.984375 69.390625 
L 28.421875 72.90625 
L 38.28125 72.90625 
L 38.28125 8.296875 
L 54.390625 8.296875 
L 54.390625 0 
L 12.40625 0 
z
" id="DejaVuSans-49"/>
        <path d="M 31.78125 66.40625 
Q 24.171875 66.40625 20.328125 58.90625 
Q 16.5 51.421875 16.5 36.375 
Q 16.5 21.390625 20.328125 13.890625 
Q 24.171875 6.390625 31.78125 6.390625 
Q 39.453125 6.390625 43.28125 13.890625 
Q 47.125 21.390625 47.125 36.375 
Q 47.125 51.421875 43.28125 58.90625 
Q 39.453125 66.40625 31.78125 66.40625 
z
M 31.78125 74.21875 
Q 44.046875 74.21875 50.515625 64.515625 
Q 56.984375 54.828125 56.984375 36.375 
Q 56.984375 17.96875 50.515625 8.265625 
Q 44.046875 -1.421875 31.78125 -1.421875 
Q 19.53125 -1.421875 13.0625 8.265625 
Q 6.59375 17.96875 6.59375 36.375 
Q 6.59375 54.828125 13.0625 64.515625 
Q 19.53125 74.21875 31.78125 74.21875 
z
" id="DejaVuSans-48"/>
        <path d="M 10.59375 35.5 
L 73.1875 35.5 
L 73.1875 27.203125 
L 10.59375 27.203125 
z
" id="DejaVuSans-8722"/>
        <path d="M 19.1875 8.296875 
L 53.609375 8.296875 
L 53.609375 0 
L 7.328125 0 
L 7.328125 8.296875 
Q 12.9375 14.109375 22.625 23.890625 
Q 32.328125 33.6875 34.8125 36.53125 
Q 39.546875 41.84375 41.421875 45.53125 
Q 43.3125 49.21875 43.3125 52.78125 
Q 43.3125 58.59375 39.234375 62.25 
Q 35.15625 65.921875 28.609375 65.921875 
Q 23.96875 65.921875 18.8125 64.3125 
Q 13.671875 62.703125 7.8125 59.421875 
L 7.8125 69.390625 
Q 13.765625 71.78125 18.9375 73 
Q 24.125 74.21875 28.421875 74.21875 
Q 39.75 74.21875 46.484375 68.546875 
Q 53.21875 62.890625 53.21875 53.421875 
Q 53.21875 48.921875 51.53125 44.890625 
Q 49.859375 40.875 45.40625 35.40625 
Q 44.1875 33.984375 37.640625 27.21875 
Q 31.109375 20.453125 19.1875 8.296875 
z
" id="DejaVuSans-50"/>
       </defs>
       <use transform="translate(0 0.765625)" xlink:href="#DejaVuSans-49"/>
       <use transform="translate(63.623047 0.765625)" xlink:href="#DejaVuSans-48"/>
       <use transform="translate(128.203125 39.046875)scale(0.7)" xlink:href="#DejaVuSans-8722"/>
       <use transform="translate(186.855469 39.046875)scale(0.7)" xlink:href="#DejaVuSans-50"/>
      </g>
     </g>
    </g>
    <g id="xtick_2">
     <g id="line2d_3">
      <path clip-path="url(#pac97b8822f)" d="M 250.629131 438.07875 
L 250.629131 6.07875 
" style="fill:none;stroke:#b0b0b0;stroke-linecap:square;stroke-width:0.8;"/>
     </g>
     <g id="line2d_4">
      <g>
       <use style="stroke:#000000;stroke-width:0.8;" x="250.629131" xlink:href="#m08f5d4e0c8" y="438.07875"/>
      </g>
     </g>
     <g id="text_2">
      <!-- $\mathdefault{10^{-1}}$ -->
      <g transform="translate(231.829131 457.23625)scale(0.16 -0.16)">
       <use transform="translate(0 0.684375)" xlink:href="#DejaVuSans-49"/>
       <use transform="translate(63.623047 0.684375)" xlink:href="#DejaVuSans-48"/>
       <use transform="translate(128.203125 38.965625)scale(0.7)" xlink:href="#DejaVuSans-8722"/>
       <use transform="translate(186.855469 38.965625)scale(0.7)" xlink:href="#DejaVuSans-49"/>
      </g>
     </g>
    </g>
    <g id="xtick_3">
     <g id="line2d_5">
      <path clip-path="url(#pac97b8822f)" d="M 430.825762 438.07875 
L 430.825762 6.07875 
" style="fill:none;stroke:#b0b0b0;stroke-linecap:square;stroke-width:0.8;"/>
     </g>
     <g id="line2d_6">
      <g>
       <use style="stroke:#000000;stroke-width:0.8;" x="430.825762" xlink:href="#m08f5d4e0c8" y="438.07875"/>
      </g>
     </g>
     <g id="text_3">
      <!-- $\mathdefault{10^{0}}$ -->
      <g transform="translate(416.745762 457.23625)scale(0.16 -0.16)">
       <use transform="translate(0 0.765625)" xlink:href="#DejaVuSans-49"/>
       <use transform="translate(63.623047 0.765625)" xlink:href="#DejaVuSans-48"/>
       <use transform="translate(128.203125 39.046875)scale(0.7)" xlink:href="#DejaVuSans-48"/>
      </g>
     </g>
    </g>
    <g id="xtick_4">
     <g id="line2d_7">
      <path clip-path="url(#pac97b8822f)" d="M 611.022392 438.07875 
L 611.022392 6.07875 
" style="fill:none;stroke:#b0b0b0;stroke-linecap:square;stroke-width:0.8;"/>
     </g>
     <g id="line2d_8">
      <g>
       <use style="stroke:#000000;stroke-width:0.8;" x="611.022392" xlink:href="#m08f5d4e0c8" y="438.07875"/>
      </g>
     </g>
     <g id="text_4">
      <!-- $\mathdefault{10^{1}}$ -->
      <g transform="translate(596.942392 457.23625)scale(0.16 -0.16)">
       <use transform="translate(0 0.684375)" xlink:href="#DejaVuSans-49"/>
       <use transform="translate(63.623047 0.684375)" xlink:href="#DejaVuSans-48"/>
       <use transform="translate(128.203125 38.965625)scale(0.7)" xlink:href="#DejaVuSans-49"/>
      </g>
     </g>
    </g>
    <g id="xtick_5">
     <g id="line2d_9">
      <defs>
       <path d="M 0 0 
L 0 2 
" id="mb472cccee9" style="stroke:#000000;stroke-width:0.6;"/>
      </defs>
      <g>
       <use style="stroke:#000000;stroke-width:0.6;" x="124.677091" xlink:href="#mb472cccee9" y="438.07875"/>
      </g>
     </g>
    </g>
    <g id="xtick_6">
     <g id="line2d_10">
      <g>
       <use style="stroke:#000000;stroke-width:0.6;" x="156.408143" xlink:href="#mb472cccee9" y="438.07875"/>
      </g>
     </g>
    </g>
    <g id="xtick_7">
     <g id="line2d_11">
      <g>
       <use style="stroke:#000000;stroke-width:0.6;" x="178.921682" xlink:href="#mb472cccee9" y="438.07875"/>
      </g>
     </g>
    </g>
    <g id="xtick_8">
     <g id="line2d_12">
      <g>
       <use style="stroke:#000000;stroke-width:0.6;" x="196.38454" xlink:href="#mb472cccee9" y="438.07875"/>
      </g>
     </g>
    </g>
    <g id="xtick_9">
     <g id="line2d_13">
      <g>
       <use style="stroke:#000000;stroke-width:0.6;" x="210.652734" xlink:href="#mb472cccee9" y="438.07875"/>
      </g>
     </g>
    </g>
    <g id="xtick_10">
     <g id="line2d_14">
      <g>
       <use style="stroke:#000000;stroke-width:0.6;" x="222.71632" xlink:href="#mb472cccee9" y="438.07875"/>
      </g>
     </g>
    </g>
    <g id="xtick_11">
     <g id="line2d_15">
      <g>
       <use style="stroke:#000000;stroke-width:0.6;" x="233.166273" xlink:href="#mb472cccee9" y="438.07875"/>
      </g>
     </g>
    </g>
    <g id="xtick_12">
     <g id="line2d_16">
      <g>
       <use style="stroke:#000000;stroke-width:0.6;" x="242.383785" xlink:href="#mb472cccee9" y="438.07875"/>
      </g>
     </g>
    </g>
    <g id="xtick_13">
     <g id="line2d_17">
      <g>
       <use style="stroke:#000000;stroke-width:0.6;" x="304.873722" xlink:href="#mb472cccee9" y="438.07875"/>
      </g>
     </g>
    </g>
    <g id="xtick_14">
     <g id="line2d_18">
      <g>
       <use style="stroke:#000000;stroke-width:0.6;" x="336.604773" xlink:href="#mb472cccee9" y="438.07875"/>
      </g>
     </g>
    </g>
    <g id="xtick_15">
     <g id="line2d_19">
      <g>
       <use style="stroke:#000000;stroke-width:0.6;" x="359.118313" xlink:href="#mb472cccee9" y="438.07875"/>
      </g>
     </g>
    </g>
    <g id="xtick_16">
     <g id="line2d_20">
      <g>
       <use style="stroke:#000000;stroke-width:0.6;" x="376.581171" xlink:href="#mb472cccee9" y="438.07875"/>
      </g>
     </g>
    </g>
    <g id="xtick_17">
     <g id="line2d_21">
      <g>
       <use style="stroke:#000000;stroke-width:0.6;" x="390.849364" xlink:href="#mb472cccee9" y="438.07875"/>
      </g>
     </g>
    </g>
    <g id="xtick_18">
     <g id="line2d_22">
      <g>
       <use style="stroke:#000000;stroke-width:0.6;" x="402.91295" xlink:href="#mb472cccee9" y="438.07875"/>
      </g>
     </g>
    </g>
    <g id="xtick_19">
     <g id="line2d_23">
      <g>
       <use style="stroke:#000000;stroke-width:0.6;" x="413.362904" xlink:href="#mb472cccee9" y="438.07875"/>
      </g>
     </g>
    </g>
    <g id="xtick_20">
     <g id="line2d_24">
      <g>
       <use style="stroke:#000000;stroke-width:0.6;" x="422.580416" xlink:href="#mb472cccee9" y="438.07875"/>
      </g>
     </g>
    </g>
    <g id="xtick_21">
     <g id="line2d_25">
      <g>
       <use style="stroke:#000000;stroke-width:0.6;" x="485.070353" xlink:href="#mb472cccee9" y="438.07875"/>
      </g>
     </g>
    </g>
    <g id="xtick_22">
     <g id="line2d_26">
      <g>
       <use style="stroke:#000000;stroke-width:0.6;" x="516.801404" xlink:href="#mb472cccee9" y="438.07875"/>
      </g>
     </g>
    </g>
    <g id="xtick_23">
     <g id="line2d_27">
      <g>
       <use style="stroke:#000000;stroke-width:0.6;" x="539.314944" xlink:href="#mb472cccee9" y="438.07875"/>
      </g>
     </g>
    </g>
    <g id="xtick_24">
     <g id="line2d_28">
      <g>
       <use style="stroke:#000000;stroke-width:0.6;" x="556.777801" xlink:href="#mb472cccee9" y="438.07875"/>
      </g>
     </g>
    </g>
    <g id="xtick_25">
     <g id="line2d_29">
      <g>
       <use style="stroke:#000000;stroke-width:0.6;" x="571.045995" xlink:href="#mb472cccee9" y="438.07875"/>
      </g>
     </g>
    </g>
    <g id="xtick_26">
     <g id="line2d_30">
      <g>
       <use style="stroke:#000000;stroke-width:0.6;" x="583.109581" xlink:href="#mb472cccee9" y="438.07875"/>
      </g>
     </g>
    </g>
    <g id="xtick_27">
     <g id="line2d_31">
      <g>
       <use style="stroke:#000000;stroke-width:0.6;" x="593.559535" xlink:href="#mb472cccee9" y="438.07875"/>
      </g>
     </g>
    </g>
    <g id="xtick_28">
     <g id="line2d_32">
      <g>
       <use style="stroke:#000000;stroke-width:0.6;" x="602.777047" xlink:href="#mb472cccee9" y="438.07875"/>
      </g>
     </g>
    </g>
    <g id="xtick_29">
     <g id="line2d_33">
      <g>
       <use style="stroke:#000000;stroke-width:0.6;" x="665.266983" xlink:href="#mb472cccee9" y="438.07875"/>
      </g>
     </g>
    </g>
    <g id="xtick_30">
     <g id="line2d_34">
      <g>
       <use style="stroke:#000000;stroke-width:0.6;" x="696.998035" xlink:href="#mb472cccee9" y="438.07875"/>
      </g>
     </g>
    </g>
    <g id="xtick_31">
     <g id="line2d_35">
      <g>
       <use style="stroke:#000000;stroke-width:0.6;" x="719.511574" xlink:href="#mb472cccee9" y="438.07875"/>
      </g>
     </g>
    </g>
    <g id="xtick_32">
     <g id="line2d_36">
      <g>
       <use style="stroke:#000000;stroke-width:0.6;" x="736.974432" xlink:href="#mb472cccee9" y="438.07875"/>
      </g>
     </g>
    </g>
    <g id="xtick_33">
     <g id="line2d_37">
      <g>
       <use style="stroke:#000000;stroke-width:0.6;" x="751.242626" xlink:href="#mb472cccee9" y="438.07875"/>
      </g>
     </g>
    </g>
    <g id="xtick_34">
     <g id="line2d_38">
      <g>
       <use style="stroke:#000000;stroke-width:0.6;" x="763.306212" xlink:href="#mb472cccee9" y="438.07875"/>
      </g>
     </g>
    </g>
    <g id="xtick_35">
     <g id="line2d_39">
      <g>
       <use style="stroke:#000000;stroke-width:0.6;" x="773.756165" xlink:href="#mb472cccee9" y="438.07875"/>
      </g>
     </g>
    </g>
    <g id="xtick_36">
     <g id="line2d_40">
      <g>
       <use style="stroke:#000000;stroke-width:0.6;" x="782.973678" xlink:href="#mb472cccee9" y="438.07875"/>
      </g>
     </g>
    </g>
    <g id="text_5">
     <!-- Labeled data amount (%) -->
     <g transform="translate(328.49 476.72125)scale(0.16 -0.16)">
      <defs>
       <path d="M 9.8125 72.90625 
L 19.671875 72.90625 
L 19.671875 8.296875 
L 55.171875 8.296875 
L 55.171875 0 
L 9.8125 0 
z
" id="DejaVuSans-76"/>
       <path d="M 34.28125 27.484375 
Q 23.390625 27.484375 19.1875 25 
Q 14.984375 22.515625 14.984375 16.5 
Q 14.984375 11.71875 18.140625 8.90625 
Q 21.296875 6.109375 26.703125 6.109375 
Q 34.1875 6.109375 38.703125 11.40625 
Q 43.21875 16.703125 43.21875 25.484375 
L 43.21875 27.484375 
z
M 52.203125 31.203125 
L 52.203125 0 
L 43.21875 0 
L 43.21875 8.296875 
Q 40.140625 3.328125 35.546875 0.953125 
Q 30.953125 -1.421875 24.3125 -1.421875 
Q 15.921875 -1.421875 10.953125 3.296875 
Q 6 8.015625 6 15.921875 
Q 6 25.140625 12.171875 29.828125 
Q 18.359375 34.515625 30.609375 34.515625 
L 43.21875 34.515625 
L 43.21875 35.40625 
Q 43.21875 41.609375 39.140625 45 
Q 35.0625 48.390625 27.6875 48.390625 
Q 23 48.390625 18.546875 47.265625 
Q 14.109375 46.140625 10.015625 43.890625 
L 10.015625 52.203125 
Q 14.9375 54.109375 19.578125 55.046875 
Q 24.21875 56 28.609375 56 
Q 40.484375 56 46.34375 49.84375 
Q 52.203125 43.703125 52.203125 31.203125 
z
" id="DejaVuSans-97"/>
       <path d="M 48.6875 27.296875 
Q 48.6875 37.203125 44.609375 42.84375 
Q 40.53125 48.484375 33.40625 48.484375 
Q 26.265625 48.484375 22.1875 42.84375 
Q 18.109375 37.203125 18.109375 27.296875 
Q 18.109375 17.390625 22.1875 11.75 
Q 26.265625 6.109375 33.40625 6.109375 
Q 40.53125 6.109375 44.609375 11.75 
Q 48.6875 17.390625 48.6875 27.296875 
z
M 18.109375 46.390625 
Q 20.953125 51.265625 25.265625 53.625 
Q 29.59375 56 35.59375 56 
Q 45.5625 56 51.78125 48.09375 
Q 58.015625 40.1875 58.015625 27.296875 
Q 58.015625 14.40625 51.78125 6.484375 
Q 45.5625 -1.421875 35.59375 -1.421875 
Q 29.59375 -1.421875 25.265625 0.953125 
Q 20.953125 3.328125 18.109375 8.203125 
L 18.109375 0 
L 9.078125 0 
L 9.078125 75.984375 
L 18.109375 75.984375 
z
" id="DejaVuSans-98"/>
       <path d="M 56.203125 29.59375 
L 56.203125 25.203125 
L 14.890625 25.203125 
Q 15.484375 15.921875 20.484375 11.0625 
Q 25.484375 6.203125 34.421875 6.203125 
Q 39.59375 6.203125 44.453125 7.46875 
Q 49.3125 8.734375 54.109375 11.28125 
L 54.109375 2.78125 
Q 49.265625 0.734375 44.1875 -0.34375 
Q 39.109375 -1.421875 33.890625 -1.421875 
Q 20.796875 -1.421875 13.15625 6.1875 
Q 5.515625 13.8125 5.515625 26.8125 
Q 5.515625 40.234375 12.765625 48.109375 
Q 20.015625 56 32.328125 56 
Q 43.359375 56 49.78125 48.890625 
Q 56.203125 41.796875 56.203125 29.59375 
z
M 47.21875 32.234375 
Q 47.125 39.59375 43.09375 43.984375 
Q 39.0625 48.390625 32.421875 48.390625 
Q 24.90625 48.390625 20.390625 44.140625 
Q 15.875 39.890625 15.1875 32.171875 
z
" id="DejaVuSans-101"/>
       <path d="M 9.421875 75.984375 
L 18.40625 75.984375 
L 18.40625 0 
L 9.421875 0 
z
" id="DejaVuSans-108"/>
       <path d="M 45.40625 46.390625 
L 45.40625 75.984375 
L 54.390625 75.984375 
L 54.390625 0 
L 45.40625 0 
L 45.40625 8.203125 
Q 42.578125 3.328125 38.25 0.953125 
Q 33.9375 -1.421875 27.875 -1.421875 
Q 17.96875 -1.421875 11.734375 6.484375 
Q 5.515625 14.40625 5.515625 27.296875 
Q 5.515625 40.1875 11.734375 48.09375 
Q 17.96875 56 27.875 56 
Q 33.9375 56 38.25 53.625 
Q 42.578125 51.265625 45.40625 46.390625 
z
M 14.796875 27.296875 
Q 14.796875 17.390625 18.875 11.75 
Q 22.953125 6.109375 30.078125 6.109375 
Q 37.203125 6.109375 41.296875 11.75 
Q 45.40625 17.390625 45.40625 27.296875 
Q 45.40625 37.203125 41.296875 42.84375 
Q 37.203125 48.484375 30.078125 48.484375 
Q 22.953125 48.484375 18.875 42.84375 
Q 14.796875 37.203125 14.796875 27.296875 
z
" id="DejaVuSans-100"/>
       <path id="DejaVuSans-32"/>
       <path d="M 18.3125 70.21875 
L 18.3125 54.6875 
L 36.8125 54.6875 
L 36.8125 47.703125 
L 18.3125 47.703125 
L 18.3125 18.015625 
Q 18.3125 11.328125 20.140625 9.421875 
Q 21.96875 7.515625 27.59375 7.515625 
L 36.8125 7.515625 
L 36.8125 0 
L 27.59375 0 
Q 17.1875 0 13.234375 3.875 
Q 9.28125 7.765625 9.28125 18.015625 
L 9.28125 47.703125 
L 2.6875 47.703125 
L 2.6875 54.6875 
L 9.28125 54.6875 
L 9.28125 70.21875 
z
" id="DejaVuSans-116"/>
       <path d="M 52 44.1875 
Q 55.375 50.25 60.0625 53.125 
Q 64.75 56 71.09375 56 
Q 79.640625 56 84.28125 50.015625 
Q 88.921875 44.046875 88.921875 33.015625 
L 88.921875 0 
L 79.890625 0 
L 79.890625 32.71875 
Q 79.890625 40.578125 77.09375 44.375 
Q 74.3125 48.1875 68.609375 48.1875 
Q 61.625 48.1875 57.5625 43.546875 
Q 53.515625 38.921875 53.515625 30.90625 
L 53.515625 0 
L 44.484375 0 
L 44.484375 32.71875 
Q 44.484375 40.625 41.703125 44.40625 
Q 38.921875 48.1875 33.109375 48.1875 
Q 26.21875 48.1875 22.15625 43.53125 
Q 18.109375 38.875 18.109375 30.90625 
L 18.109375 0 
L 9.078125 0 
L 9.078125 54.6875 
L 18.109375 54.6875 
L 18.109375 46.1875 
Q 21.1875 51.21875 25.484375 53.609375 
Q 29.78125 56 35.6875 56 
Q 41.65625 56 45.828125 52.96875 
Q 50 49.953125 52 44.1875 
z
" id="DejaVuSans-109"/>
       <path d="M 30.609375 48.390625 
Q 23.390625 48.390625 19.1875 42.75 
Q 14.984375 37.109375 14.984375 27.296875 
Q 14.984375 17.484375 19.15625 11.84375 
Q 23.34375 6.203125 30.609375 6.203125 
Q 37.796875 6.203125 41.984375 11.859375 
Q 46.1875 17.53125 46.1875 27.296875 
Q 46.1875 37.015625 41.984375 42.703125 
Q 37.796875 48.390625 30.609375 48.390625 
z
M 30.609375 56 
Q 42.328125 56 49.015625 48.375 
Q 55.71875 40.765625 55.71875 27.296875 
Q 55.71875 13.875 49.015625 6.21875 
Q 42.328125 -1.421875 30.609375 -1.421875 
Q 18.84375 -1.421875 12.171875 6.21875 
Q 5.515625 13.875 5.515625 27.296875 
Q 5.515625 40.765625 12.171875 48.375 
Q 18.84375 56 30.609375 56 
z
" id="DejaVuSans-111"/>
       <path d="M 8.5 21.578125 
L 8.5 54.6875 
L 17.484375 54.6875 
L 17.484375 21.921875 
Q 17.484375 14.15625 20.5 10.265625 
Q 23.53125 6.390625 29.59375 6.390625 
Q 36.859375 6.390625 41.078125 11.03125 
Q 45.3125 15.671875 45.3125 23.6875 
L 45.3125 54.6875 
L 54.296875 54.6875 
L 54.296875 0 
L 45.3125 0 
L 45.3125 8.40625 
Q 42.046875 3.421875 37.71875 1 
Q 33.40625 -1.421875 27.6875 -1.421875 
Q 18.265625 -1.421875 13.375 4.4375 
Q 8.5 10.296875 8.5 21.578125 
z
M 31.109375 56 
z
" id="DejaVuSans-117"/>
       <path d="M 54.890625 33.015625 
L 54.890625 0 
L 45.90625 0 
L 45.90625 32.71875 
Q 45.90625 40.484375 42.875 44.328125 
Q 39.84375 48.1875 33.796875 48.1875 
Q 26.515625 48.1875 22.3125 43.546875 
Q 18.109375 38.921875 18.109375 30.90625 
L 18.109375 0 
L 9.078125 0 
L 9.078125 54.6875 
L 18.109375 54.6875 
L 18.109375 46.1875 
Q 21.34375 51.125 25.703125 53.5625 
Q 30.078125 56 35.796875 56 
Q 45.21875 56 50.046875 50.171875 
Q 54.890625 44.34375 54.890625 33.015625 
z
" id="DejaVuSans-110"/>
       <path d="M 31 75.875 
Q 24.46875 64.65625 21.28125 53.65625 
Q 18.109375 42.671875 18.109375 31.390625 
Q 18.109375 20.125 21.3125 9.0625 
Q 24.515625 -2 31 -13.1875 
L 23.1875 -13.1875 
Q 15.875 -1.703125 12.234375 9.375 
Q 8.59375 20.453125 8.59375 31.390625 
Q 8.59375 42.28125 12.203125 53.3125 
Q 15.828125 64.359375 23.1875 75.875 
z
" id="DejaVuSans-40"/>
       <path d="M 72.703125 32.078125 
Q 68.453125 32.078125 66.03125 28.46875 
Q 63.625 24.859375 63.625 18.40625 
Q 63.625 12.0625 66.03125 8.421875 
Q 68.453125 4.78125 72.703125 4.78125 
Q 76.859375 4.78125 79.265625 8.421875 
Q 81.6875 12.0625 81.6875 18.40625 
Q 81.6875 24.8125 79.265625 28.4375 
Q 76.859375 32.078125 72.703125 32.078125 
z
M 72.703125 38.28125 
Q 80.421875 38.28125 84.953125 32.90625 
Q 89.5 27.546875 89.5 18.40625 
Q 89.5 9.28125 84.9375 3.921875 
Q 80.375 -1.421875 72.703125 -1.421875 
Q 64.890625 -1.421875 60.34375 3.921875 
Q 55.8125 9.28125 55.8125 18.40625 
Q 55.8125 27.59375 60.375 32.9375 
Q 64.9375 38.28125 72.703125 38.28125 
z
M 22.3125 68.015625 
Q 18.109375 68.015625 15.6875 64.375 
Q 13.28125 60.75 13.28125 54.390625 
Q 13.28125 47.953125 15.671875 44.328125 
Q 18.0625 40.71875 22.3125 40.71875 
Q 26.5625 40.71875 28.96875 44.328125 
Q 31.390625 47.953125 31.390625 54.390625 
Q 31.390625 60.6875 28.953125 64.34375 
Q 26.515625 68.015625 22.3125 68.015625 
z
M 66.40625 74.21875 
L 74.21875 74.21875 
L 28.609375 -1.421875 
L 20.796875 -1.421875 
z
M 22.3125 74.21875 
Q 30.03125 74.21875 34.609375 68.875 
Q 39.203125 63.53125 39.203125 54.390625 
Q 39.203125 45.171875 34.640625 39.84375 
Q 30.078125 34.515625 22.3125 34.515625 
Q 14.546875 34.515625 10.03125 39.859375 
Q 5.515625 45.21875 5.515625 54.390625 
Q 5.515625 63.484375 10.046875 68.84375 
Q 14.59375 74.21875 22.3125 74.21875 
z
" id="DejaVuSans-37"/>
       <path d="M 8.015625 75.875 
L 15.828125 75.875 
Q 23.140625 64.359375 26.78125 53.3125 
Q 30.421875 42.28125 30.421875 31.390625 
Q 30.421875 20.453125 26.78125 9.375 
Q 23.140625 -1.703125 15.828125 -13.1875 
L 8.015625 -13.1875 
Q 14.5 -2 17.703125 9.0625 
Q 20.90625 20.125 20.90625 31.390625 
Q 20.90625 42.671875 17.703125 53.65625 
Q 14.5 64.65625 8.015625 75.875 
z
" id="DejaVuSans-41"/>
      </defs>
      <use xlink:href="#DejaVuSans-76"/>
      <use x="55.712891" xlink:href="#DejaVuSans-97"/>
      <use x="116.992188" xlink:href="#DejaVuSans-98"/>
      <use x="180.46875" xlink:href="#DejaVuSans-101"/>
      <use x="241.992188" xlink:href="#DejaVuSans-108"/>
      <use x="269.775391" xlink:href="#DejaVuSans-101"/>
      <use x="331.298828" xlink:href="#DejaVuSans-100"/>
      <use x="394.775391" xlink:href="#DejaVuSans-32"/>
      <use x="426.5625" xlink:href="#DejaVuSans-100"/>
      <use x="490.039062" xlink:href="#DejaVuSans-97"/>
      <use x="551.318359" xlink:href="#DejaVuSans-116"/>
      <use x="590.527344" xlink:href="#DejaVuSans-97"/>
      <use x="651.806641" xlink:href="#DejaVuSans-32"/>
      <use x="683.59375" xlink:href="#DejaVuSans-97"/>
      <use x="744.873047" xlink:href="#DejaVuSans-109"/>
      <use x="842.285156" xlink:href="#DejaVuSans-111"/>
      <use x="903.466797" xlink:href="#DejaVuSans-117"/>
      <use x="966.845703" xlink:href="#DejaVuSans-110"/>
      <use x="1030.224609" xlink:href="#DejaVuSans-116"/>
      <use x="1069.433594" xlink:href="#DejaVuSans-32"/>
      <use x="1101.220703" xlink:href="#DejaVuSans-40"/>
      <use x="1140.234375" xlink:href="#DejaVuSans-37"/>
      <use x="1235.253906" xlink:href="#DejaVuSans-41"/>
     </g>
    </g>
   </g>
   <g id="matplotlib.axis_2">
    <g id="ytick_1">
     <g id="line2d_41">
      <path clip-path="url(#pac97b8822f)" d="M 70.4325 438.07875 
L 790.4325 438.07875 
" style="fill:none;stroke:#b0b0b0;stroke-linecap:square;stroke-width:0.8;"/>
     </g>
     <g id="line2d_42">
      <defs>
       <path d="M 0 0 
L -3.5 0 
" id="m97ae2e86e1" style="stroke:#000000;stroke-width:0.8;"/>
      </defs>
      <g>
       <use style="stroke:#000000;stroke-width:0.8;" x="70.4325" xlink:href="#m97ae2e86e1" y="438.07875"/>
      </g>
     </g>
     <g id="text_6">
      <!-- −175 -->
      <g transform="translate(19.485 444.1575)scale(0.16 -0.16)">
       <defs>
        <path d="M 8.203125 72.90625 
L 55.078125 72.90625 
L 55.078125 68.703125 
L 28.609375 0 
L 18.3125 0 
L 43.21875 64.59375 
L 8.203125 64.59375 
z
" id="DejaVuSans-55"/>
        <path d="M 10.796875 72.90625 
L 49.515625 72.90625 
L 49.515625 64.59375 
L 19.828125 64.59375 
L 19.828125 46.734375 
Q 21.96875 47.46875 24.109375 47.828125 
Q 26.265625 48.1875 28.421875 48.1875 
Q 40.625 48.1875 47.75 41.5 
Q 54.890625 34.8125 54.890625 23.390625 
Q 54.890625 11.625 47.5625 5.09375 
Q 40.234375 -1.421875 26.90625 -1.421875 
Q 22.3125 -1.421875 17.546875 -0.640625 
Q 12.796875 0.140625 7.71875 1.703125 
L 7.71875 11.625 
Q 12.109375 9.234375 16.796875 8.0625 
Q 21.484375 6.890625 26.703125 6.890625 
Q 35.15625 6.890625 40.078125 11.328125 
Q 45.015625 15.765625 45.015625 23.390625 
Q 45.015625 31 40.078125 35.4375 
Q 35.15625 39.890625 26.703125 39.890625 
Q 22.75 39.890625 18.8125 39.015625 
Q 14.890625 38.140625 10.796875 36.28125 
z
" id="DejaVuSans-53"/>
       </defs>
       <use xlink:href="#DejaVuSans-8722"/>
       <use x="83.789062" xlink:href="#DejaVuSans-49"/>
       <use x="147.412109" xlink:href="#DejaVuSans-55"/>
       <use x="211.035156" xlink:href="#DejaVuSans-53"/>
      </g>
     </g>
    </g>
    <g id="ytick_2">
     <g id="line2d_43">
      <path clip-path="url(#pac97b8822f)" d="M 70.4325 398.806023 
L 790.4325 398.806023 
" style="fill:none;stroke:#b0b0b0;stroke-linecap:square;stroke-width:0.8;"/>
     </g>
     <g id="line2d_44">
      <g>
       <use style="stroke:#000000;stroke-width:0.8;" x="70.4325" xlink:href="#m97ae2e86e1" y="398.806023"/>
      </g>
     </g>
     <g id="text_7">
      <!-- −150 -->
      <g transform="translate(19.485 404.884773)scale(0.16 -0.16)">
       <use xlink:href="#DejaVuSans-8722"/>
       <use x="83.789062" xlink:href="#DejaVuSans-49"/>
       <use x="147.412109" xlink:href="#DejaVuSans-53"/>
       <use x="211.035156" xlink:href="#DejaVuSans-48"/>
      </g>
     </g>
    </g>
    <g id="ytick_3">
     <g id="line2d_45">
      <path clip-path="url(#pac97b8822f)" d="M 70.4325 359.533295 
L 790.4325 359.533295 
" style="fill:none;stroke:#b0b0b0;stroke-linecap:square;stroke-width:0.8;"/>
     </g>
     <g id="line2d_46">
      <g>
       <use style="stroke:#000000;stroke-width:0.8;" x="70.4325" xlink:href="#m97ae2e86e1" y="359.533295"/>
      </g>
     </g>
     <g id="text_8">
      <!-- −125 -->
      <g transform="translate(19.485 365.612045)scale(0.16 -0.16)">
       <use xlink:href="#DejaVuSans-8722"/>
       <use x="83.789062" xlink:href="#DejaVuSans-49"/>
       <use x="147.412109" xlink:href="#DejaVuSans-50"/>
       <use x="211.035156" xlink:href="#DejaVuSans-53"/>
      </g>
     </g>
    </g>
    <g id="ytick_4">
     <g id="line2d_47">
      <path clip-path="url(#pac97b8822f)" d="M 70.4325 320.260568 
L 790.4325 320.260568 
" style="fill:none;stroke:#b0b0b0;stroke-linecap:square;stroke-width:0.8;"/>
     </g>
     <g id="line2d_48">
      <g>
       <use style="stroke:#000000;stroke-width:0.8;" x="70.4325" xlink:href="#m97ae2e86e1" y="320.260568"/>
      </g>
     </g>
     <g id="text_9">
      <!-- −100 -->
      <g transform="translate(19.485 326.339318)scale(0.16 -0.16)">
       <use xlink:href="#DejaVuSans-8722"/>
       <use x="83.789062" xlink:href="#DejaVuSans-49"/>
       <use x="147.412109" xlink:href="#DejaVuSans-48"/>
       <use x="211.035156" xlink:href="#DejaVuSans-48"/>
      </g>
     </g>
    </g>
    <g id="ytick_5">
     <g id="line2d_49">
      <path clip-path="url(#pac97b8822f)" d="M 70.4325 280.987841 
L 790.4325 280.987841 
" style="fill:none;stroke:#b0b0b0;stroke-linecap:square;stroke-width:0.8;"/>
     </g>
     <g id="line2d_50">
      <g>
       <use style="stroke:#000000;stroke-width:0.8;" x="70.4325" xlink:href="#m97ae2e86e1" y="280.987841"/>
      </g>
     </g>
     <g id="text_10">
      <!-- −75 -->
      <g transform="translate(29.665 287.066591)scale(0.16 -0.16)">
       <use xlink:href="#DejaVuSans-8722"/>
       <use x="83.789062" xlink:href="#DejaVuSans-55"/>
       <use x="147.412109" xlink:href="#DejaVuSans-53"/>
      </g>
     </g>
    </g>
    <g id="ytick_6">
     <g id="line2d_51">
      <path clip-path="url(#pac97b8822f)" d="M 70.4325 241.715114 
L 790.4325 241.715114 
" style="fill:none;stroke:#b0b0b0;stroke-linecap:square;stroke-width:0.8;"/>
     </g>
     <g id="line2d_52">
      <g>
       <use style="stroke:#000000;stroke-width:0.8;" x="70.4325" xlink:href="#m97ae2e86e1" y="241.715114"/>
      </g>
     </g>
     <g id="text_11">
      <!-- −50 -->
      <g transform="translate(29.665 247.793864)scale(0.16 -0.16)">
       <use xlink:href="#DejaVuSans-8722"/>
       <use x="83.789062" xlink:href="#DejaVuSans-53"/>
       <use x="147.412109" xlink:href="#DejaVuSans-48"/>
      </g>
     </g>
    </g>
    <g id="ytick_7">
     <g id="line2d_53">
      <path clip-path="url(#pac97b8822f)" d="M 70.4325 202.442386 
L 790.4325 202.442386 
" style="fill:none;stroke:#b0b0b0;stroke-linecap:square;stroke-width:0.8;"/>
     </g>
     <g id="line2d_54">
      <g>
       <use style="stroke:#000000;stroke-width:0.8;" x="70.4325" xlink:href="#m97ae2e86e1" y="202.442386"/>
      </g>
     </g>
     <g id="text_12">
      <!-- −25 -->
      <g transform="translate(29.665 208.521136)scale(0.16 -0.16)">
       <use xlink:href="#DejaVuSans-8722"/>
       <use x="83.789062" xlink:href="#DejaVuSans-50"/>
       <use x="147.412109" xlink:href="#DejaVuSans-53"/>
      </g>
     </g>
    </g>
    <g id="ytick_8">
     <g id="line2d_55">
      <path clip-path="url(#pac97b8822f)" d="M 70.4325 163.169659 
L 790.4325 163.169659 
" style="fill:none;stroke:#b0b0b0;stroke-linecap:square;stroke-width:0.8;"/>
     </g>
     <g id="line2d_56">
      <g>
       <use style="stroke:#000000;stroke-width:0.8;" x="70.4325" xlink:href="#m97ae2e86e1" y="163.169659"/>
      </g>
     </g>
     <g id="text_13">
      <!-- 0 -->
      <g transform="translate(53.2525 169.248409)scale(0.16 -0.16)">
       <use xlink:href="#DejaVuSans-48"/>
      </g>
     </g>
    </g>
    <g id="ytick_9">
     <g id="line2d_57">
      <path clip-path="url(#pac97b8822f)" d="M 70.4325 123.896932 
L 790.4325 123.896932 
" style="fill:none;stroke:#b0b0b0;stroke-linecap:square;stroke-width:0.8;"/>
     </g>
     <g id="line2d_58">
      <g>
       <use style="stroke:#000000;stroke-width:0.8;" x="70.4325" xlink:href="#m97ae2e86e1" y="123.896932"/>
      </g>
     </g>
     <g id="text_14">
      <!-- 25 -->
      <g transform="translate(43.0725 129.975682)scale(0.16 -0.16)">
       <use xlink:href="#DejaVuSans-50"/>
       <use x="63.623047" xlink:href="#DejaVuSans-53"/>
      </g>
     </g>
    </g>
    <g id="ytick_10">
     <g id="line2d_59">
      <path clip-path="url(#pac97b8822f)" d="M 70.4325 84.624205 
L 790.4325 84.624205 
" style="fill:none;stroke:#b0b0b0;stroke-linecap:square;stroke-width:0.8;"/>
     </g>
     <g id="line2d_60">
      <g>
       <use style="stroke:#000000;stroke-width:0.8;" x="70.4325" xlink:href="#m97ae2e86e1" y="84.624205"/>
      </g>
     </g>
     <g id="text_15">
      <!-- 50 -->
      <g transform="translate(43.0725 90.702955)scale(0.16 -0.16)">
       <use xlink:href="#DejaVuSans-53"/>
       <use x="63.623047" xlink:href="#DejaVuSans-48"/>
      </g>
     </g>
    </g>
    <g id="ytick_11">
     <g id="line2d_61">
      <path clip-path="url(#pac97b8822f)" d="M 70.4325 45.351477 
L 790.4325 45.351477 
" style="fill:none;stroke:#b0b0b0;stroke-linecap:square;stroke-width:0.8;"/>
     </g>
     <g id="line2d_62">
      <g>
       <use style="stroke:#000000;stroke-width:0.8;" x="70.4325" xlink:href="#m97ae2e86e1" y="45.351477"/>
      </g>
     </g>
     <g id="text_16">
      <!-- 75 -->
      <g transform="translate(43.0725 51.430227)scale(0.16 -0.16)">
       <use xlink:href="#DejaVuSans-55"/>
       <use x="63.623047" xlink:href="#DejaVuSans-53"/>
      </g>
     </g>
    </g>
    <g id="ytick_12">
     <g id="line2d_63">
      <path clip-path="url(#pac97b8822f)" d="M 70.4325 6.07875 
L 790.4325 6.07875 
" style="fill:none;stroke:#b0b0b0;stroke-linecap:square;stroke-width:0.8;"/>
     </g>
     <g id="line2d_64">
      <g>
       <use style="stroke:#000000;stroke-width:0.8;" x="70.4325" xlink:href="#m97ae2e86e1" y="6.07875"/>
      </g>
     </g>
     <g id="text_17">
      <!-- 100 -->
      <g transform="translate(32.8925 12.1575)scale(0.16 -0.16)">
       <use xlink:href="#DejaVuSans-49"/>
       <use x="63.623047" xlink:href="#DejaVuSans-48"/>
       <use x="127.246094" xlink:href="#DejaVuSans-48"/>
      </g>
     </g>
    </g>
    <g id="text_18">
     <!-- Noise removed (%) -->
     <g transform="translate(12.1575 298.655)rotate(-90)scale(0.16 -0.16)">
      <defs>
       <path d="M 9.8125 72.90625 
L 23.09375 72.90625 
L 55.421875 11.921875 
L 55.421875 72.90625 
L 64.984375 72.90625 
L 64.984375 0 
L 51.703125 0 
L 19.390625 60.984375 
L 19.390625 0 
L 9.8125 0 
z
" id="DejaVuSans-78"/>
       <path d="M 9.421875 54.6875 
L 18.40625 54.6875 
L 18.40625 0 
L 9.421875 0 
z
M 9.421875 75.984375 
L 18.40625 75.984375 
L 18.40625 64.59375 
L 9.421875 64.59375 
z
" id="DejaVuSans-105"/>
       <path d="M 44.28125 53.078125 
L 44.28125 44.578125 
Q 40.484375 46.53125 36.375 47.5 
Q 32.28125 48.484375 27.875 48.484375 
Q 21.1875 48.484375 17.84375 46.4375 
Q 14.5 44.390625 14.5 40.28125 
Q 14.5 37.15625 16.890625 35.375 
Q 19.28125 33.59375 26.515625 31.984375 
L 29.59375 31.296875 
Q 39.15625 29.25 43.1875 25.515625 
Q 47.21875 21.78125 47.21875 15.09375 
Q 47.21875 7.46875 41.1875 3.015625 
Q 35.15625 -1.421875 24.609375 -1.421875 
Q 20.21875 -1.421875 15.453125 -0.5625 
Q 10.6875 0.296875 5.421875 2 
L 5.421875 11.28125 
Q 10.40625 8.6875 15.234375 7.390625 
Q 20.0625 6.109375 24.8125 6.109375 
Q 31.15625 6.109375 34.5625 8.28125 
Q 37.984375 10.453125 37.984375 14.40625 
Q 37.984375 18.0625 35.515625 20.015625 
Q 33.0625 21.96875 24.703125 23.78125 
L 21.578125 24.515625 
Q 13.234375 26.265625 9.515625 29.90625 
Q 5.8125 33.546875 5.8125 39.890625 
Q 5.8125 47.609375 11.28125 51.796875 
Q 16.75 56 26.8125 56 
Q 31.78125 56 36.171875 55.265625 
Q 40.578125 54.546875 44.28125 53.078125 
z
" id="DejaVuSans-115"/>
       <path d="M 41.109375 46.296875 
Q 39.59375 47.171875 37.8125 47.578125 
Q 36.03125 48 33.890625 48 
Q 26.265625 48 22.1875 43.046875 
Q 18.109375 38.09375 18.109375 28.8125 
L 18.109375 0 
L 9.078125 0 
L 9.078125 54.6875 
L 18.109375 54.6875 
L 18.109375 46.1875 
Q 20.953125 51.171875 25.484375 53.578125 
Q 30.03125 56 36.53125 56 
Q 37.453125 56 38.578125 55.875 
Q 39.703125 55.765625 41.0625 55.515625 
z
" id="DejaVuSans-114"/>
       <path d="M 2.984375 54.6875 
L 12.5 54.6875 
L 29.59375 8.796875 
L 46.6875 54.6875 
L 56.203125 54.6875 
L 35.6875 0 
L 23.484375 0 
z
" id="DejaVuSans-118"/>
      </defs>
      <use xlink:href="#DejaVuSans-78"/>
      <use x="74.804688" xlink:href="#DejaVuSans-111"/>
      <use x="135.986328" xlink:href="#DejaVuSans-105"/>
      <use x="163.769531" xlink:href="#DejaVuSans-115"/>
      <use x="215.869141" xlink:href="#DejaVuSans-101"/>
      <use x="277.392578" xlink:href="#DejaVuSans-32"/>
      <use x="309.179688" xlink:href="#DejaVuSans-114"/>
      <use x="348.042969" xlink:href="#DejaVuSans-101"/>
      <use x="409.566406" xlink:href="#DejaVuSans-109"/>
      <use x="506.978516" xlink:href="#DejaVuSans-111"/>
      <use x="568.160156" xlink:href="#DejaVuSans-118"/>
      <use x="627.339844" xlink:href="#DejaVuSans-101"/>
      <use x="688.863281" xlink:href="#DejaVuSans-100"/>
      <use x="752.339844" xlink:href="#DejaVuSans-32"/>
      <use x="784.126953" xlink:href="#DejaVuSans-40"/>
      <use x="823.140625" xlink:href="#DejaVuSans-37"/>
      <use x="918.160156" xlink:href="#DejaVuSans-41"/>
     </g>
    </g>
   </g>
   <g id="line2d_65">
    <path clip-path="url(#pac97b8822f)" d="M 790.4325 120.481263 
L 736.974432 121.075726 
L 665.266983 122.335696 
L 611.022392 122.646828 
L 556.777801 123.296696 
L 485.070353 126.092352 
L 430.825762 127.409678 
L 376.581171 134.604053 
L 322.33658 149.037493 
L 268.091989 170.434402 
L 196.38454 237.20244 
L 70.4325 400.098829 
" style="fill:none;stroke:#46bdc6;stroke-linecap:square;stroke-width:1.5;"/>
    <defs>
     <path d="M 0 3 
C 0.795609 3 1.55874 2.683901 2.12132 2.12132 
C 2.683901 1.55874 3 0.795609 3 0 
C 3 -0.795609 2.683901 -1.55874 2.12132 -2.12132 
C 1.55874 -2.683901 0.795609 -3 0 -3 
C -0.795609 -3 -1.55874 -2.683901 -2.12132 -2.12132 
C -2.683901 -1.55874 -3 -0.795609 -3 0 
C -3 0.795609 -2.683901 1.55874 -2.12132 2.12132 
C -1.55874 2.683901 -0.795609 3 0 3 
z
" id="m2501c3c41d" style="stroke:#46bdc6;"/>
    </defs>
    <g clip-path="url(#pac97b8822f)">
     <use style="fill:#46bdc6;stroke:#46bdc6;" x="790.4325" xlink:href="#m2501c3c41d" y="120.481263"/>
     <use style="fill:#46bdc6;stroke:#46bdc6;" x="736.974432" xlink:href="#m2501c3c41d" y="121.075726"/>
     <use style="fill:#46bdc6;stroke:#46bdc6;" x="665.266983" xlink:href="#m2501c3c41d" y="122.335696"/>
     <use style="fill:#46bdc6;stroke:#46bdc6;" x="611.022392" xlink:href="#m2501c3c41d" y="122.646828"/>
     <use style="fill:#46bdc6;stroke:#46bdc6;" x="556.777801" xlink:href="#m2501c3c41d" y="123.296696"/>
     <use style="fill:#46bdc6;stroke:#46bdc6;" x="485.070353" xlink:href="#m2501c3c41d" y="126.092352"/>
     <use style="fill:#46bdc6;stroke:#46bdc6;" x="430.825762" xlink:href="#m2501c3c41d" y="127.409678"/>
     <use style="fill:#46bdc6;stroke:#46bdc6;" x="376.581171" xlink:href="#m2501c3c41d" y="134.604053"/>
     <use style="fill:#46bdc6;stroke:#46bdc6;" x="322.33658" xlink:href="#m2501c3c41d" y="149.037493"/>
     <use style="fill:#46bdc6;stroke:#46bdc6;" x="268.091989" xlink:href="#m2501c3c41d" y="170.434402"/>
     <use style="fill:#46bdc6;stroke:#46bdc6;" x="196.38454" xlink:href="#m2501c3c41d" y="237.20244"/>
     <use style="fill:#46bdc6;stroke:#46bdc6;" x="70.4325" xlink:href="#m2501c3c41d" y="400.098829"/>
    </g>
   </g>
   <g id="line2d_66">
    <path clip-path="url(#pac97b8822f)" d="M 790.4325 91.039272 
L 736.974432 91.985028 
L 665.266983 92.142533 
L 611.022392 92.783045 
L 556.777801 94.963778 
L 485.070353 101.20212 
L 430.825762 110.031039 
L 376.581171 117.791989 
L 322.33658 137.84815 
L 268.091989 164.90216 
L 196.38454 242.644492 
L 70.4325 365.883454 
" style="fill:none;stroke:#ea4335;stroke-linecap:square;stroke-width:1.5;"/>
    <defs>
     <path d="M 0 3 
C 0.795609 3 1.55874 2.683901 2.12132 2.12132 
C 2.683901 1.55874 3 0.795609 3 0 
C 3 -0.795609 2.683901 -1.55874 2.12132 -2.12132 
C 1.55874 -2.683901 0.795609 -3 0 -3 
C -0.795609 -3 -1.55874 -2.683901 -2.12132 -2.12132 
C -2.683901 -1.55874 -3 -0.795609 -3 0 
C -3 0.795609 -2.683901 1.55874 -2.12132 2.12132 
C -1.55874 2.683901 -0.795609 3 0 3 
z
" id="m085253052f" style="stroke:#ea4335;"/>
    </defs>
    <g clip-path="url(#pac97b8822f)">
     <use style="fill:#ea4335;stroke:#ea4335;" x="790.4325" xlink:href="#m085253052f" y="91.039272"/>
     <use style="fill:#ea4335;stroke:#ea4335;" x="736.974432" xlink:href="#m085253052f" y="91.985028"/>
     <use style="fill:#ea4335;stroke:#ea4335;" x="665.266983" xlink:href="#m085253052f" y="92.142533"/>
     <use style="fill:#ea4335;stroke:#ea4335;" x="611.022392" xlink:href="#m085253052f" y="92.783045"/>
     <use style="fill:#ea4335;stroke:#ea4335;" x="556.777801" xlink:href="#m085253052f" y="94.963778"/>
     <use style="fill:#ea4335;stroke:#ea4335;" x="485.070353" xlink:href="#m085253052f" y="101.20212"/>
     <use style="fill:#ea4335;stroke:#ea4335;" x="430.825762" xlink:href="#m085253052f" y="110.031039"/>
     <use style="fill:#ea4335;stroke:#ea4335;" x="376.581171" xlink:href="#m085253052f" y="117.791989"/>
     <use style="fill:#ea4335;stroke:#ea4335;" x="322.33658" xlink:href="#m085253052f" y="137.84815"/>
     <use style="fill:#ea4335;stroke:#ea4335;" x="268.091989" xlink:href="#m085253052f" y="164.90216"/>
     <use style="fill:#ea4335;stroke:#ea4335;" x="196.38454" xlink:href="#m085253052f" y="242.644492"/>
     <use style="fill:#ea4335;stroke:#ea4335;" x="70.4325" xlink:href="#m085253052f" y="365.883454"/>
    </g>
   </g>
   <g id="line2d_67">
    <path clip-path="url(#pac97b8822f)" d="M 790.4325 6.111047 
L 736.974432 6.419646 
L 665.266983 6.963205 
L 611.022392 8.301107 
L 556.777801 13.859211 
L 485.070353 38.900694 
L 430.825762 81.301071 
L 376.581171 120.692534 
L 322.33658 158.046362 
L 268.091989 202.794216 
L 196.38454 268.217932 
L 70.4325 338.166579 
" style="fill:none;stroke:#800080;stroke-linecap:square;stroke-width:1.5;"/>
    <defs>
     <path d="M 0 3 
C 0.795609 3 1.55874 2.683901 2.12132 2.12132 
C 2.683901 1.55874 3 0.795609 3 0 
C 3 -0.795609 2.683901 -1.55874 2.12132 -2.12132 
C 1.55874 -2.683901 0.795609 -3 0 -3 
C -0.795609 -3 -1.55874 -2.683901 -2.12132 -2.12132 
C -2.683901 -1.55874 -3 -0.795609 -3 0 
C -3 0.795609 -2.683901 1.55874 -2.12132 2.12132 
C -1.55874 2.683901 -0.795609 3 0 3 
z
" id="m45f9b4498f" style="stroke:#800080;"/>
    </defs>
    <g clip-path="url(#pac97b8822f)">
     <use style="fill:#800080;stroke:#800080;" x="790.4325" xlink:href="#m45f9b4498f" y="6.111047"/>
     <use style="fill:#800080;stroke:#800080;" x="736.974432" xlink:href="#m45f9b4498f" y="6.419646"/>
     <use style="fill:#800080;stroke:#800080;" x="665.266983" xlink:href="#m45f9b4498f" y="6.963205"/>
     <use style="fill:#800080;stroke:#800080;" x="611.022392" xlink:href="#m45f9b4498f" y="8.301107"/>
     <use style="fill:#800080;stroke:#800080;" x="556.777801" xlink:href="#m45f9b4498f" y="13.859211"/>
     <use style="fill:#800080;stroke:#800080;" x="485.070353" xlink:href="#m45f9b4498f" y="38.900694"/>
     <use style="fill:#800080;stroke:#800080;" x="430.825762" xlink:href="#m45f9b4498f" y="81.301071"/>
     <use style="fill:#800080;stroke:#800080;" x="376.581171" xlink:href="#m45f9b4498f" y="120.692534"/>
     <use style="fill:#800080;stroke:#800080;" x="322.33658" xlink:href="#m45f9b4498f" y="158.046362"/>
     <use style="fill:#800080;stroke:#800080;" x="268.091989" xlink:href="#m45f9b4498f" y="202.794216"/>
     <use style="fill:#800080;stroke:#800080;" x="196.38454" xlink:href="#m45f9b4498f" y="268.217932"/>
     <use style="fill:#800080;stroke:#800080;" x="70.4325" xlink:href="#m45f9b4498f" y="338.166579"/>
    </g>
   </g>
   <g id="line2d_68">
    <path clip-path="url(#pac97b8822f)" d="M 790.4325 6.142309 
L 736.974432 6.723162 
L 665.266983 7.343089 
L 611.022392 9.165587 
L 556.777801 12.296443 
L 485.070353 24.675556 
L 430.825762 43.490656 
L 376.581171 66.630859 
L 322.33658 101.943088 
L 268.091989 132.903303 
L 196.38454 173.175826 
L 70.4325 260.988139 
" style="fill:none;stroke:#34a853;stroke-linecap:square;stroke-width:1.5;"/>
    <defs>
     <path d="M 0 3 
C 0.795609 3 1.55874 2.683901 2.12132 2.12132 
C 2.683901 1.55874 3 0.795609 3 0 
C 3 -0.795609 2.683901 -1.55874 2.12132 -2.12132 
C 1.55874 -2.683901 0.795609 -3 0 -3 
C -0.795609 -3 -1.55874 -2.683901 -2.12132 -2.12132 
C -2.683901 -1.55874 -3 -0.795609 -3 0 
C -3 0.795609 -2.683901 1.55874 -2.12132 2.12132 
C -1.55874 2.683901 -0.795609 3 0 3 
z
" id="m56e3f39ef5" style="stroke:#34a853;"/>
    </defs>
    <g clip-path="url(#pac97b8822f)">
     <use style="fill:#34a853;stroke:#34a853;" x="790.4325" xlink:href="#m56e3f39ef5" y="6.142309"/>
     <use style="fill:#34a853;stroke:#34a853;" x="736.974432" xlink:href="#m56e3f39ef5" y="6.723162"/>
     <use style="fill:#34a853;stroke:#34a853;" x="665.266983" xlink:href="#m56e3f39ef5" y="7.343089"/>
     <use style="fill:#34a853;stroke:#34a853;" x="611.022392" xlink:href="#m56e3f39ef5" y="9.165587"/>
     <use style="fill:#34a853;stroke:#34a853;" x="556.777801" xlink:href="#m56e3f39ef5" y="12.296443"/>
     <use style="fill:#34a853;stroke:#34a853;" x="485.070353" xlink:href="#m56e3f39ef5" y="24.675556"/>
     <use style="fill:#34a853;stroke:#34a853;" x="430.825762" xlink:href="#m56e3f39ef5" y="43.490656"/>
     <use style="fill:#34a853;stroke:#34a853;" x="376.581171" xlink:href="#m56e3f39ef5" y="66.630859"/>
     <use style="fill:#34a853;stroke:#34a853;" x="322.33658" xlink:href="#m56e3f39ef5" y="101.943088"/>
     <use style="fill:#34a853;stroke:#34a853;" x="268.091989" xlink:href="#m56e3f39ef5" y="132.903303"/>
     <use style="fill:#34a853;stroke:#34a853;" x="196.38454" xlink:href="#m56e3f39ef5" y="173.175826"/>
     <use style="fill:#34a853;stroke:#34a853;" x="70.4325" xlink:href="#m56e3f39ef5" y="260.988139"/>
    </g>
   </g>
   <g id="line2d_69">
    <path clip-path="url(#pac97b8822f)" d="M 70.4325 163.169659 
L 790.4325 163.169659 
" style="fill:none;stroke:#000000;stroke-linecap:square;stroke-width:1.5;"/>
   </g>
   <g id="patch_3">
    <path d="M 70.4325 438.07875 
L 70.4325 6.07875 
" style="fill:none;stroke:#000000;stroke-linecap:square;stroke-linejoin:miter;stroke-width:0.8;"/>
   </g>
   <g id="patch_4">
    <path d="M 790.4325 438.07875 
L 790.4325 6.07875 
" style="fill:none;stroke:#000000;stroke-linecap:square;stroke-linejoin:miter;stroke-width:0.8;"/>
   </g>
   <g id="patch_5">
    <path d="M 70.4325 438.07875 
L 790.4325 438.07875 
" style="fill:none;stroke:#000000;stroke-linecap:square;stroke-linejoin:miter;stroke-width:0.8;"/>
   </g>
   <g id="patch_6">
    <path d="M 70.4325 6.07875 
L 790.4325 6.07875 
" style="fill:none;stroke:#000000;stroke-linecap:square;stroke-linejoin:miter;stroke-width:0.8;"/>
   </g>
   <g id="legend_1">
    <g id="patch_7">
     <path d="M 415.6925 430.07875 
L 779.2325 430.07875 
Q 782.4325 430.07875 782.4325 426.87875 
L 782.4325 334.53875 
Q 782.4325 331.33875 779.2325 331.33875 
L 415.6925 331.33875 
Q 412.4925 331.33875 412.4925 334.53875 
L 412.4925 426.87875 
Q 412.4925 430.07875 415.6925 430.07875 
z
" style="fill:#ffffff;opacity:0.8;stroke:#cccccc;stroke-linejoin:miter;"/>
    </g>
    <g id="line2d_70">
     <path d="M 418.8925 344.29625 
L 450.8925 344.29625 
" style="fill:none;stroke:#46bdc6;stroke-linecap:square;stroke-width:1.5;"/>
    </g>
    <g id="line2d_71">
     <g>
      <use style="fill:#46bdc6;stroke:#46bdc6;" x="434.8925" xlink:href="#m2501c3c41d" y="344.29625"/>
     </g>
    </g>
    <g id="text_19">
     <!-- Log loss (semi-supervised), categorical -->
     <g transform="translate(463.6925 349.89625)scale(0.16 -0.16)">
      <defs>
       <path d="M 45.40625 27.984375 
Q 45.40625 37.75 41.375 43.109375 
Q 37.359375 48.484375 30.078125 48.484375 
Q 22.859375 48.484375 18.828125 43.109375 
Q 14.796875 37.75 14.796875 27.984375 
Q 14.796875 18.265625 18.828125 12.890625 
Q 22.859375 7.515625 30.078125 7.515625 
Q 37.359375 7.515625 41.375 12.890625 
Q 45.40625 18.265625 45.40625 27.984375 
z
M 54.390625 6.78125 
Q 54.390625 -7.171875 48.1875 -13.984375 
Q 42 -20.796875 29.203125 -20.796875 
Q 24.46875 -20.796875 20.265625 -20.09375 
Q 16.0625 -19.390625 12.109375 -17.921875 
L 12.109375 -9.1875 
Q 16.0625 -11.328125 19.921875 -12.34375 
Q 23.78125 -13.375 27.78125 -13.375 
Q 36.625 -13.375 41.015625 -8.765625 
Q 45.40625 -4.15625 45.40625 5.171875 
L 45.40625 9.625 
Q 42.625 4.78125 38.28125 2.390625 
Q 33.9375 0 27.875 0 
Q 17.828125 0 11.671875 7.65625 
Q 5.515625 15.328125 5.515625 27.984375 
Q 5.515625 40.671875 11.671875 48.328125 
Q 17.828125 56 27.875 56 
Q 33.9375 56 38.28125 53.609375 
Q 42.625 51.21875 45.40625 46.390625 
L 45.40625 54.6875 
L 54.390625 54.6875 
z
" id="DejaVuSans-103"/>
       <path d="M 4.890625 31.390625 
L 31.203125 31.390625 
L 31.203125 23.390625 
L 4.890625 23.390625 
z
" id="DejaVuSans-45"/>
       <path d="M 18.109375 8.203125 
L 18.109375 -20.796875 
L 9.078125 -20.796875 
L 9.078125 54.6875 
L 18.109375 54.6875 
L 18.109375 46.390625 
Q 20.953125 51.265625 25.265625 53.625 
Q 29.59375 56 35.59375 56 
Q 45.5625 56 51.78125 48.09375 
Q 58.015625 40.1875 58.015625 27.296875 
Q 58.015625 14.40625 51.78125 6.484375 
Q 45.5625 -1.421875 35.59375 -1.421875 
Q 29.59375 -1.421875 25.265625 0.953125 
Q 20.953125 3.328125 18.109375 8.203125 
z
M 48.6875 27.296875 
Q 48.6875 37.203125 44.609375 42.84375 
Q 40.53125 48.484375 33.40625 48.484375 
Q 26.265625 48.484375 22.1875 42.84375 
Q 18.109375 37.203125 18.109375 27.296875 
Q 18.109375 17.390625 22.1875 11.75 
Q 26.265625 6.109375 33.40625 6.109375 
Q 40.53125 6.109375 44.609375 11.75 
Q 48.6875 17.390625 48.6875 27.296875 
z
" id="DejaVuSans-112"/>
       <path d="M 11.71875 12.40625 
L 22.015625 12.40625 
L 22.015625 4 
L 14.015625 -11.625 
L 7.71875 -11.625 
L 11.71875 4 
z
" id="DejaVuSans-44"/>
       <path d="M 48.78125 52.59375 
L 48.78125 44.1875 
Q 44.96875 46.296875 41.140625 47.34375 
Q 37.3125 48.390625 33.40625 48.390625 
Q 24.65625 48.390625 19.8125 42.84375 
Q 14.984375 37.3125 14.984375 27.296875 
Q 14.984375 17.28125 19.8125 11.734375 
Q 24.65625 6.203125 33.40625 6.203125 
Q 37.3125 6.203125 41.140625 7.25 
Q 44.96875 8.296875 48.78125 10.40625 
L 48.78125 2.09375 
Q 45.015625 0.34375 40.984375 -0.53125 
Q 36.96875 -1.421875 32.421875 -1.421875 
Q 20.0625 -1.421875 12.78125 6.34375 
Q 5.515625 14.109375 5.515625 27.296875 
Q 5.515625 40.671875 12.859375 48.328125 
Q 20.21875 56 33.015625 56 
Q 37.15625 56 41.109375 55.140625 
Q 45.0625 54.296875 48.78125 52.59375 
z
" id="DejaVuSans-99"/>
      </defs>
      <use xlink:href="#DejaVuSans-76"/>
      <use x="53.962891" xlink:href="#DejaVuSans-111"/>
      <use x="115.144531" xlink:href="#DejaVuSans-103"/>
      <use x="178.621094" xlink:href="#DejaVuSans-32"/>
      <use x="210.408203" xlink:href="#DejaVuSans-108"/>
      <use x="238.191406" xlink:href="#DejaVuSans-111"/>
      <use x="299.373047" xlink:href="#DejaVuSans-115"/>
      <use x="351.472656" xlink:href="#DejaVuSans-115"/>
      <use x="403.572266" xlink:href="#DejaVuSans-32"/>
      <use x="435.359375" xlink:href="#DejaVuSans-40"/>
      <use x="474.373047" xlink:href="#DejaVuSans-115"/>
      <use x="526.472656" xlink:href="#DejaVuSans-101"/>
      <use x="587.996094" xlink:href="#DejaVuSans-109"/>
      <use x="685.408203" xlink:href="#DejaVuSans-105"/>
      <use x="713.191406" xlink:href="#DejaVuSans-45"/>
      <use x="749.275391" xlink:href="#DejaVuSans-115"/>
      <use x="801.375" xlink:href="#DejaVuSans-117"/>
      <use x="864.753906" xlink:href="#DejaVuSans-112"/>
      <use x="928.230469" xlink:href="#DejaVuSans-101"/>
      <use x="989.753906" xlink:href="#DejaVuSans-114"/>
      <use x="1030.867188" xlink:href="#DejaVuSans-118"/>
      <use x="1090.046875" xlink:href="#DejaVuSans-105"/>
      <use x="1117.830078" xlink:href="#DejaVuSans-115"/>
      <use x="1169.929688" xlink:href="#DejaVuSans-101"/>
      <use x="1231.453125" xlink:href="#DejaVuSans-100"/>
      <use x="1294.929688" xlink:href="#DejaVuSans-41"/>
      <use x="1333.943359" xlink:href="#DejaVuSans-44"/>
      <use x="1365.730469" xlink:href="#DejaVuSans-32"/>
      <use x="1397.517578" xlink:href="#DejaVuSans-99"/>
      <use x="1452.498047" xlink:href="#DejaVuSans-97"/>
      <use x="1513.777344" xlink:href="#DejaVuSans-116"/>
      <use x="1552.986328" xlink:href="#DejaVuSans-101"/>
      <use x="1614.509766" xlink:href="#DejaVuSans-103"/>
      <use x="1677.986328" xlink:href="#DejaVuSans-111"/>
      <use x="1739.167969" xlink:href="#DejaVuSans-114"/>
      <use x="1780.28125" xlink:href="#DejaVuSans-105"/>
      <use x="1808.064453" xlink:href="#DejaVuSans-99"/>
      <use x="1863.044922" xlink:href="#DejaVuSans-97"/>
      <use x="1924.324219" xlink:href="#DejaVuSans-108"/>
     </g>
    </g>
    <g id="line2d_72">
     <path d="M 418.8925 367.78125 
L 450.8925 367.78125 
" style="fill:none;stroke:#ea4335;stroke-linecap:square;stroke-width:1.5;"/>
    </g>
    <g id="line2d_73">
     <g>
      <use style="fill:#ea4335;stroke:#ea4335;" x="434.8925" xlink:href="#m085253052f" y="367.78125"/>
     </g>
    </g>
    <g id="text_20">
     <!-- JSD loss (semi-supervised), categorical -->
     <g transform="translate(463.6925 373.38125)scale(0.16 -0.16)">
      <defs>
       <path d="M 9.8125 72.90625 
L 19.671875 72.90625 
L 19.671875 5.078125 
Q 19.671875 -8.109375 14.671875 -14.0625 
Q 9.671875 -20.015625 -1.421875 -20.015625 
L -5.171875 -20.015625 
L -5.171875 -11.71875 
L -2.09375 -11.71875 
Q 4.4375 -11.71875 7.125 -8.046875 
Q 9.8125 -4.390625 9.8125 5.078125 
z
" id="DejaVuSans-74"/>
       <path d="M 53.515625 70.515625 
L 53.515625 60.890625 
Q 47.90625 63.578125 42.921875 64.890625 
Q 37.9375 66.21875 33.296875 66.21875 
Q 25.25 66.21875 20.875 63.09375 
Q 16.5 59.96875 16.5 54.203125 
Q 16.5 49.359375 19.40625 46.890625 
Q 22.3125 44.4375 30.421875 42.921875 
L 36.375 41.703125 
Q 47.40625 39.59375 52.65625 34.296875 
Q 57.90625 29 57.90625 20.125 
Q 57.90625 9.515625 50.796875 4.046875 
Q 43.703125 -1.421875 29.984375 -1.421875 
Q 24.8125 -1.421875 18.96875 -0.25 
Q 13.140625 0.921875 6.890625 3.21875 
L 6.890625 13.375 
Q 12.890625 10.015625 18.65625 8.296875 
Q 24.421875 6.59375 29.984375 6.59375 
Q 38.421875 6.59375 43.015625 9.90625 
Q 47.609375 13.234375 47.609375 19.390625 
Q 47.609375 24.75 44.3125 27.78125 
Q 41.015625 30.8125 33.5 32.328125 
L 27.484375 33.5 
Q 16.453125 35.6875 11.515625 40.375 
Q 6.59375 45.0625 6.59375 53.421875 
Q 6.59375 63.09375 13.40625 68.65625 
Q 20.21875 74.21875 32.171875 74.21875 
Q 37.3125 74.21875 42.625 73.28125 
Q 47.953125 72.359375 53.515625 70.515625 
z
" id="DejaVuSans-83"/>
       <path d="M 19.671875 64.796875 
L 19.671875 8.109375 
L 31.59375 8.109375 
Q 46.6875 8.109375 53.6875 14.9375 
Q 60.6875 21.78125 60.6875 36.53125 
Q 60.6875 51.171875 53.6875 57.984375 
Q 46.6875 64.796875 31.59375 64.796875 
z
M 9.8125 72.90625 
L 30.078125 72.90625 
Q 51.265625 72.90625 61.171875 64.09375 
Q 71.09375 55.28125 71.09375 36.53125 
Q 71.09375 17.671875 61.125 8.828125 
Q 51.171875 0 30.078125 0 
L 9.8125 0 
z
" id="DejaVuSans-68"/>
      </defs>
      <use xlink:href="#DejaVuSans-74"/>
      <use x="29.492188" xlink:href="#DejaVuSans-83"/>
      <use x="92.96875" xlink:href="#DejaVuSans-68"/>
      <use x="169.970703" xlink:href="#DejaVuSans-32"/>
      <use x="201.757812" xlink:href="#DejaVuSans-108"/>
      <use x="229.541016" xlink:href="#DejaVuSans-111"/>
      <use x="290.722656" xlink:href="#DejaVuSans-115"/>
      <use x="342.822266" xlink:href="#DejaVuSans-115"/>
      <use x="394.921875" xlink:href="#DejaVuSans-32"/>
      <use x="426.708984" xlink:href="#DejaVuSans-40"/>
      <use x="465.722656" xlink:href="#DejaVuSans-115"/>
      <use x="517.822266" xlink:href="#DejaVuSans-101"/>
      <use x="579.345703" xlink:href="#DejaVuSans-109"/>
      <use x="676.757812" xlink:href="#DejaVuSans-105"/>
      <use x="704.541016" xlink:href="#DejaVuSans-45"/>
      <use x="740.625" xlink:href="#DejaVuSans-115"/>
      <use x="792.724609" xlink:href="#DejaVuSans-117"/>
      <use x="856.103516" xlink:href="#DejaVuSans-112"/>
      <use x="919.580078" xlink:href="#DejaVuSans-101"/>
      <use x="981.103516" xlink:href="#DejaVuSans-114"/>
      <use x="1022.216797" xlink:href="#DejaVuSans-118"/>
      <use x="1081.396484" xlink:href="#DejaVuSans-105"/>
      <use x="1109.179688" xlink:href="#DejaVuSans-115"/>
      <use x="1161.279297" xlink:href="#DejaVuSans-101"/>
      <use x="1222.802734" xlink:href="#DejaVuSans-100"/>
      <use x="1286.279297" xlink:href="#DejaVuSans-41"/>
      <use x="1325.292969" xlink:href="#DejaVuSans-44"/>
      <use x="1357.080078" xlink:href="#DejaVuSans-32"/>
      <use x="1388.867188" xlink:href="#DejaVuSans-99"/>
      <use x="1443.847656" xlink:href="#DejaVuSans-97"/>
      <use x="1505.126953" xlink:href="#DejaVuSans-116"/>
      <use x="1544.335938" xlink:href="#DejaVuSans-101"/>
      <use x="1605.859375" xlink:href="#DejaVuSans-103"/>
      <use x="1669.335938" xlink:href="#DejaVuSans-111"/>
      <use x="1730.517578" xlink:href="#DejaVuSans-114"/>
      <use x="1771.630859" xlink:href="#DejaVuSans-105"/>
      <use x="1799.414062" xlink:href="#DejaVuSans-99"/>
      <use x="1854.394531" xlink:href="#DejaVuSans-97"/>
      <use x="1915.673828" xlink:href="#DejaVuSans-108"/>
     </g>
    </g>
    <g id="line2d_74">
     <path d="M 418.8925 391.26625 
L 450.8925 391.26625 
" style="fill:none;stroke:#800080;stroke-linecap:square;stroke-width:1.5;"/>
    </g>
    <g id="line2d_75">
     <g>
      <use style="fill:#800080;stroke:#800080;" x="434.8925" xlink:href="#m45f9b4498f" y="391.26625"/>
     </g>
    </g>
    <g id="text_21">
     <!-- Log loss (semi-supervised), continuous -->
     <g transform="translate(463.6925 396.86625)scale(0.16 -0.16)">
      <use xlink:href="#DejaVuSans-76"/>
      <use x="53.962891" xlink:href="#DejaVuSans-111"/>
      <use x="115.144531" xlink:href="#DejaVuSans-103"/>
      <use x="178.621094" xlink:href="#DejaVuSans-32"/>
      <use x="210.408203" xlink:href="#DejaVuSans-108"/>
      <use x="238.191406" xlink:href="#DejaVuSans-111"/>
      <use x="299.373047" xlink:href="#DejaVuSans-115"/>
      <use x="351.472656" xlink:href="#DejaVuSans-115"/>
      <use x="403.572266" xlink:href="#DejaVuSans-32"/>
      <use x="435.359375" xlink:href="#DejaVuSans-40"/>
      <use x="474.373047" xlink:href="#DejaVuSans-115"/>
      <use x="526.472656" xlink:href="#DejaVuSans-101"/>
      <use x="587.996094" xlink:href="#DejaVuSans-109"/>
      <use x="685.408203" xlink:href="#DejaVuSans-105"/>
      <use x="713.191406" xlink:href="#DejaVuSans-45"/>
      <use x="749.275391" xlink:href="#DejaVuSans-115"/>
      <use x="801.375" xlink:href="#DejaVuSans-117"/>
      <use x="864.753906" xlink:href="#DejaVuSans-112"/>
      <use x="928.230469" xlink:href="#DejaVuSans-101"/>
      <use x="989.753906" xlink:href="#DejaVuSans-114"/>
      <use x="1030.867188" xlink:href="#DejaVuSans-118"/>
      <use x="1090.046875" xlink:href="#DejaVuSans-105"/>
      <use x="1117.830078" xlink:href="#DejaVuSans-115"/>
      <use x="1169.929688" xlink:href="#DejaVuSans-101"/>
      <use x="1231.453125" xlink:href="#DejaVuSans-100"/>
      <use x="1294.929688" xlink:href="#DejaVuSans-41"/>
      <use x="1333.943359" xlink:href="#DejaVuSans-44"/>
      <use x="1365.730469" xlink:href="#DejaVuSans-32"/>
      <use x="1397.517578" xlink:href="#DejaVuSans-99"/>
      <use x="1452.498047" xlink:href="#DejaVuSans-111"/>
      <use x="1513.679688" xlink:href="#DejaVuSans-110"/>
      <use x="1577.058594" xlink:href="#DejaVuSans-116"/>
      <use x="1616.267578" xlink:href="#DejaVuSans-105"/>
      <use x="1644.050781" xlink:href="#DejaVuSans-110"/>
      <use x="1707.429688" xlink:href="#DejaVuSans-117"/>
      <use x="1770.808594" xlink:href="#DejaVuSans-111"/>
      <use x="1831.990234" xlink:href="#DejaVuSans-117"/>
      <use x="1895.369141" xlink:href="#DejaVuSans-115"/>
     </g>
    </g>
    <g id="line2d_76">
     <path d="M 418.8925 414.75125 
L 450.8925 414.75125 
" style="fill:none;stroke:#34a853;stroke-linecap:square;stroke-width:1.5;"/>
    </g>
    <g id="line2d_77">
     <g>
      <use style="fill:#34a853;stroke:#34a853;" x="434.8925" xlink:href="#m56e3f39ef5" y="414.75125"/>
     </g>
    </g>
    <g id="text_22">
     <!-- JSD loss (semi-supervised), continuous -->
     <g transform="translate(463.6925 420.35125)scale(0.16 -0.16)">
      <use xlink:href="#DejaVuSans-74"/>
      <use x="29.492188" xlink:href="#DejaVuSans-83"/>
      <use x="92.96875" xlink:href="#DejaVuSans-68"/>
      <use x="169.970703" xlink:href="#DejaVuSans-32"/>
      <use x="201.757812" xlink:href="#DejaVuSans-108"/>
      <use x="229.541016" xlink:href="#DejaVuSans-111"/>
      <use x="290.722656" xlink:href="#DejaVuSans-115"/>
      <use x="342.822266" xlink:href="#DejaVuSans-115"/>
      <use x="394.921875" xlink:href="#DejaVuSans-32"/>
      <use x="426.708984" xlink:href="#DejaVuSans-40"/>
      <use x="465.722656" xlink:href="#DejaVuSans-115"/>
      <use x="517.822266" xlink:href="#DejaVuSans-101"/>
      <use x="579.345703" xlink:href="#DejaVuSans-109"/>
      <use x="676.757812" xlink:href="#DejaVuSans-105"/>
      <use x="704.541016" xlink:href="#DejaVuSans-45"/>
      <use x="740.625" xlink:href="#DejaVuSans-115"/>
      <use x="792.724609" xlink:href="#DejaVuSans-117"/>
      <use x="856.103516" xlink:href="#DejaVuSans-112"/>
      <use x="919.580078" xlink:href="#DejaVuSans-101"/>
      <use x="981.103516" xlink:href="#DejaVuSans-114"/>
      <use x="1022.216797" xlink:href="#DejaVuSans-118"/>
      <use x="1081.396484" xlink:href="#DejaVuSans-105"/>
      <use x="1109.179688" xlink:href="#DejaVuSans-115"/>
      <use x="1161.279297" xlink:href="#DejaVuSans-101"/>
      <use x="1222.802734" xlink:href="#DejaVuSans-100"/>
      <use x="1286.279297" xlink:href="#DejaVuSans-41"/>
      <use x="1325.292969" xlink:href="#DejaVuSans-44"/>
      <use x="1357.080078" xlink:href="#DejaVuSans-32"/>
      <use x="1388.867188" xlink:href="#DejaVuSans-99"/>
      <use x="1443.847656" xlink:href="#DejaVuSans-111"/>
      <use x="1505.029297" xlink:href="#DejaVuSans-110"/>
      <use x="1568.408203" xlink:href="#DejaVuSans-116"/>
      <use x="1607.617188" xlink:href="#DejaVuSans-105"/>
      <use x="1635.400391" xlink:href="#DejaVuSans-110"/>
      <use x="1698.779297" xlink:href="#DejaVuSans-117"/>
      <use x="1762.158203" xlink:href="#DejaVuSans-111"/>
      <use x="1823.339844" xlink:href="#DejaVuSans-117"/>
      <use x="1886.71875" xlink:href="#DejaVuSans-115"/>
     </g>
    </g>
   </g>
  </g>
 </g>
 <defs>
  <clipPath id="pac97b8822f">
   <rect height="432" width="720" x="70.4325" y="6.07875"/>
  </clipPath>
 </defs>
</svg>
