<?xml version="1.0" encoding="utf-8" standalone="no"?>
<!DOCTYPE svg PUBLIC "-//W3C//DTD SVG 1.1//EN"
  "http://www.w3.org/Graphics/SVG/1.1/DTD/svg11.dtd">
<!-- Created with matplotlib (https://matplotlib.org/) -->
<svg height="432pt" version="1.1" viewBox="0 0 720 432" width="720pt" xmlns="http://www.w3.org/2000/svg" xmlns:xlink="http://www.w3.org/1999/xlink">
 <metadata>
  <rdf:RDF xmlns:cc="http://creativecommons.org/ns#" xmlns:dc="http://purl.org/dc/elements/1.1/" xmlns:rdf="http://www.w3.org/1999/02/22-rdf-syntax-ns#">
   <cc:Work>
    <dc:type rdf:resource="http://purl.org/dc/dcmitype/StillImage"/>
    <dc:date>2021-02-23T15:10:50.550782</dc:date>
    <dc:format>image/svg+xml</dc:format>
    <dc:creator>
     <cc:Agent>
      <dc:title>Matplotlib v3.3.2, https://matplotlib.org/</dc:title>
     </cc:Agent>
    </dc:creator>
   </cc:Work>
  </rdf:RDF>
 </metadata>
 <defs>
  <style type="text/css">*{stroke-linecap:butt;stroke-linejoin:round;}</style>
 </defs>
 <g id="figure_1">
  <g id="patch_1">
   <path d="M 0 432 
L 720 432 
L 720 0 
L 0 0 
z
" style="fill:none;"/>
  </g>
  <g id="axes_1">
   <g id="patch_2">
    <path d="M 90 378 
L 648 378 
L 648 51.84 
L 90 51.84 
z
" style="fill:#ffffff;"/>
   </g>
   <g id="PolyCollection_1">
    <defs>
     <path d="M 622.636364 -377.339044 
L 622.636364 -376.061848 
L 310.468531 -368.590842 
L 206.412587 -367.025864 
L 154.384615 -343.486857 
L 128.370629 -334.803953 
L 115.363636 -308.682427 
L 115.363636 -340.999276 
L 115.363636 -340.999276 
L 128.370629 -356.799516 
L 154.384615 -371.69722 
L 206.412587 -371.683741 
L 310.468531 -375.203521 
L 622.636364 -377.339044 
z
" id="m73205fe321" style="stroke:#ea4335;stroke-opacity:0.2;"/>
    </defs>
    <g clip-path="url(#p839f1eea0c)">
     <use style="fill:#ea4335;fill-opacity:0.2;stroke:#ea4335;stroke-opacity:0.2;" x="0" xlink:href="#m73205fe321" y="432"/>
    </g>
   </g>
   <g id="PolyCollection_2">
    <defs>
     <path d="M 622.636364 -378.531159 
L 622.636364 -376.036639 
L 310.468531 -373.639261 
L 206.412587 -371.981568 
L 154.384615 -362.857042 
L 128.370629 -340.044673 
L 115.363636 -329.363863 
L 115.363636 -355.123451 
L 115.363636 -355.123451 
L 128.370629 -366.856976 
L 154.384615 -370.84446 
L 206.412587 -373.826102 
L 310.468531 -376.281956 
L 622.636364 -378.531159 
z
" id="m65b9e4be6f" style="stroke:#fbbc04;stroke-opacity:0.2;"/>
    </defs>
    <g clip-path="url(#p839f1eea0c)">
     <use style="fill:#fbbc04;fill-opacity:0.2;stroke:#fbbc04;stroke-opacity:0.2;" x="0" xlink:href="#m65b9e4be6f" y="432"/>
    </g>
   </g>
   <g id="PolyCollection_3">
    <defs>
     <path d="M 622.636364 -185.965344 
L 622.636364 -73.861918 
L 310.468531 -88.31691 
L 206.412587 -72.561119 
L 154.384615 -103.998074 
L 128.370629 -137.917335 
L 115.363636 -113.150754 
L 115.363636 -238.003926 
L 115.363636 -238.003926 
L 128.370629 -265.751697 
L 154.384615 -271.751098 
L 206.412587 -275.414242 
L 310.468531 -331.463787 
L 622.636364 -185.965344 
z
" id="m462365c5a7" style="stroke:#34a853;stroke-opacity:0.2;"/>
    </defs>
    <g clip-path="url(#p839f1eea0c)">
     <use style="fill:#34a853;fill-opacity:0.2;stroke:#34a853;stroke-opacity:0.2;" x="0" xlink:href="#m462365c5a7" y="432"/>
    </g>
   </g>
   <g id="PolyCollection_4">
    <defs>
     <path d="M 622.636364 -85.403445 
L 622.636364 -81.466779 
L 310.468531 -81.878691 
L 206.412587 -81.833027 
L 154.384615 -81.512681 
L 128.370629 -82.084678 
L 115.363636 -82.060745 
L 115.363636 -86.036074 
L 115.363636 -86.036074 
L 128.370629 -85.675691 
L 154.384615 -86.437112 
L 206.412587 -86.622078 
L 310.468531 -86.095588 
L 622.636364 -85.403445 
z
" id="me470d1252a" style="stroke:#000000;stroke-opacity:0.2;"/>
    </defs>
    <g clip-path="url(#p839f1eea0c)">
     <use style="fill-opacity:0.2;stroke:#000000;stroke-opacity:0.2;" x="0" xlink:href="#me470d1252a" y="432"/>
    </g>
   </g>
   <g id="PolyCollection_5">
    <defs>
     <path d="M 622.636364 -368.163146 
L 622.636364 -361.041524 
L 310.468531 -332.781545 
L 206.412587 -314.340772 
L 154.384615 -305.514251 
L 128.370629 -277.716128 
L 115.363636 -241.140512 
L 115.363636 -257.261621 
L 115.363636 -257.261621 
L 128.370629 -293.096332 
L 154.384615 -312.325886 
L 206.412587 -331.652047 
L 310.468531 -351.209512 
L 622.636364 -368.163146 
z
" id="m79f802370e" style="stroke:#46bdc6;stroke-opacity:0.2;"/>
    </defs>
    <g clip-path="url(#p839f1eea0c)">
     <use style="fill:#46bdc6;fill-opacity:0.2;stroke:#46bdc6;stroke-opacity:0.2;" x="0" xlink:href="#m79f802370e" y="432"/>
    </g>
   </g>
   <g id="matplotlib.axis_1">
    <g id="xtick_1">
     <g id="line2d_1">
      <path clip-path="url(#p839f1eea0c)" d="M 102.356643 378 
L 102.356643 51.84 
" style="fill:none;stroke:#b0b0b0;stroke-linecap:square;stroke-width:0.8;"/>
     </g>
     <g id="line2d_2">
      <defs>
       <path d="M 0 0 
L 0 3.5 
" id="m3f265bdcbb" style="stroke:#000000;stroke-width:0.8;"/>
      </defs>
      <g>
       <use style="stroke:#000000;stroke-width:0.8;" x="102.356643" xlink:href="#m3f265bdcbb" y="378"/>
      </g>
     </g>
     <g id="text_1">
      <!-- 0 -->
      <g transform="translate(99.175393 392.598437)scale(0.1 -0.1)">
       <defs>
        <path d="M 31.78125 66.40625 
Q 24.171875 66.40625 20.328125 58.90625 
Q 16.5 51.421875 16.5 36.375 
Q 16.5 21.390625 20.328125 13.890625 
Q 24.171875 6.390625 31.78125 6.390625 
Q 39.453125 6.390625 43.28125 13.890625 
Q 47.125 21.390625 47.125 36.375 
Q 47.125 51.421875 43.28125 58.90625 
Q 39.453125 66.40625 31.78125 66.40625 
z
M 31.78125 74.21875 
Q 44.046875 74.21875 50.515625 64.515625 
Q 56.984375 54.828125 56.984375 36.375 
Q 56.984375 17.96875 50.515625 8.265625 
Q 44.046875 -1.421875 31.78125 -1.421875 
Q 19.53125 -1.421875 13.0625 8.265625 
Q 6.59375 17.96875 6.59375 36.375 
Q 6.59375 54.828125 13.0625 64.515625 
Q 19.53125 74.21875 31.78125 74.21875 
z
" id="DejaVuSans-48"/>
       </defs>
       <use xlink:href="#DejaVuSans-48"/>
      </g>
     </g>
    </g>
    <g id="xtick_2">
     <g id="line2d_3">
      <path clip-path="url(#p839f1eea0c)" d="M 206.412587 378 
L 206.412587 51.84 
" style="fill:none;stroke:#b0b0b0;stroke-linecap:square;stroke-width:0.8;"/>
     </g>
     <g id="line2d_4">
      <g>
       <use style="stroke:#000000;stroke-width:0.8;" x="206.412587" xlink:href="#m3f265bdcbb" y="378"/>
      </g>
     </g>
     <g id="text_2">
      <!-- 1 -->
      <g transform="translate(203.231337 392.598437)scale(0.1 -0.1)">
       <defs>
        <path d="M 12.40625 8.296875 
L 28.515625 8.296875 
L 28.515625 63.921875 
L 10.984375 60.40625 
L 10.984375 69.390625 
L 28.421875 72.90625 
L 38.28125 72.90625 
L 38.28125 8.296875 
L 54.390625 8.296875 
L 54.390625 0 
L 12.40625 0 
z
" id="DejaVuSans-49"/>
       </defs>
       <use xlink:href="#DejaVuSans-49"/>
      </g>
     </g>
    </g>
    <g id="xtick_3">
     <g id="line2d_5">
      <path clip-path="url(#p839f1eea0c)" d="M 310.468531 378 
L 310.468531 51.84 
" style="fill:none;stroke:#b0b0b0;stroke-linecap:square;stroke-width:0.8;"/>
     </g>
     <g id="line2d_6">
      <g>
       <use style="stroke:#000000;stroke-width:0.8;" x="310.468531" xlink:href="#m3f265bdcbb" y="378"/>
      </g>
     </g>
     <g id="text_3">
      <!-- 2 -->
      <g transform="translate(307.287281 392.598437)scale(0.1 -0.1)">
       <defs>
        <path d="M 19.1875 8.296875 
L 53.609375 8.296875 
L 53.609375 0 
L 7.328125 0 
L 7.328125 8.296875 
Q 12.9375 14.109375 22.625 23.890625 
Q 32.328125 33.6875 34.8125 36.53125 
Q 39.546875 41.84375 41.421875 45.53125 
Q 43.3125 49.21875 43.3125 52.78125 
Q 43.3125 58.59375 39.234375 62.25 
Q 35.15625 65.921875 28.609375 65.921875 
Q 23.96875 65.921875 18.8125 64.3125 
Q 13.671875 62.703125 7.8125 59.421875 
L 7.8125 69.390625 
Q 13.765625 71.78125 18.9375 73 
Q 24.125 74.21875 28.421875 74.21875 
Q 39.75 74.21875 46.484375 68.546875 
Q 53.21875 62.890625 53.21875 53.421875 
Q 53.21875 48.921875 51.53125 44.890625 
Q 49.859375 40.875 45.40625 35.40625 
Q 44.1875 33.984375 37.640625 27.21875 
Q 31.109375 20.453125 19.1875 8.296875 
z
" id="DejaVuSans-50"/>
       </defs>
       <use xlink:href="#DejaVuSans-50"/>
      </g>
     </g>
    </g>
    <g id="xtick_4">
     <g id="line2d_7">
      <path clip-path="url(#p839f1eea0c)" d="M 414.524476 378 
L 414.524476 51.84 
" style="fill:none;stroke:#b0b0b0;stroke-linecap:square;stroke-width:0.8;"/>
     </g>
     <g id="line2d_8">
      <g>
       <use style="stroke:#000000;stroke-width:0.8;" x="414.524476" xlink:href="#m3f265bdcbb" y="378"/>
      </g>
     </g>
     <g id="text_4">
      <!-- 3 -->
      <g transform="translate(411.343226 392.598437)scale(0.1 -0.1)">
       <defs>
        <path d="M 40.578125 39.3125 
Q 47.65625 37.796875 51.625 33 
Q 55.609375 28.21875 55.609375 21.1875 
Q 55.609375 10.40625 48.1875 4.484375 
Q 40.765625 -1.421875 27.09375 -1.421875 
Q 22.515625 -1.421875 17.65625 -0.515625 
Q 12.796875 0.390625 7.625 2.203125 
L 7.625 11.71875 
Q 11.71875 9.328125 16.59375 8.109375 
Q 21.484375 6.890625 26.8125 6.890625 
Q 36.078125 6.890625 40.9375 10.546875 
Q 45.796875 14.203125 45.796875 21.1875 
Q 45.796875 27.640625 41.28125 31.265625 
Q 36.765625 34.90625 28.71875 34.90625 
L 20.21875 34.90625 
L 20.21875 43.015625 
L 29.109375 43.015625 
Q 36.375 43.015625 40.234375 45.921875 
Q 44.09375 48.828125 44.09375 54.296875 
Q 44.09375 59.90625 40.109375 62.90625 
Q 36.140625 65.921875 28.71875 65.921875 
Q 24.65625 65.921875 20.015625 65.03125 
Q 15.375 64.15625 9.8125 62.3125 
L 9.8125 71.09375 
Q 15.4375 72.65625 20.34375 73.4375 
Q 25.25 74.21875 29.59375 74.21875 
Q 40.828125 74.21875 47.359375 69.109375 
Q 53.90625 64.015625 53.90625 55.328125 
Q 53.90625 49.265625 50.4375 45.09375 
Q 46.96875 40.921875 40.578125 39.3125 
z
" id="DejaVuSans-51"/>
       </defs>
       <use xlink:href="#DejaVuSans-51"/>
      </g>
     </g>
    </g>
    <g id="xtick_5">
     <g id="line2d_9">
      <path clip-path="url(#p839f1eea0c)" d="M 518.58042 378 
L 518.58042 51.84 
" style="fill:none;stroke:#b0b0b0;stroke-linecap:square;stroke-width:0.8;"/>
     </g>
     <g id="line2d_10">
      <g>
       <use style="stroke:#000000;stroke-width:0.8;" x="518.58042" xlink:href="#m3f265bdcbb" y="378"/>
      </g>
     </g>
     <g id="text_5">
      <!-- 4 -->
      <g transform="translate(515.39917 392.598437)scale(0.1 -0.1)">
       <defs>
        <path d="M 37.796875 64.3125 
L 12.890625 25.390625 
L 37.796875 25.390625 
z
M 35.203125 72.90625 
L 47.609375 72.90625 
L 47.609375 25.390625 
L 58.015625 25.390625 
L 58.015625 17.1875 
L 47.609375 17.1875 
L 47.609375 0 
L 37.796875 0 
L 37.796875 17.1875 
L 4.890625 17.1875 
L 4.890625 26.703125 
z
" id="DejaVuSans-52"/>
       </defs>
       <use xlink:href="#DejaVuSans-52"/>
      </g>
     </g>
    </g>
    <g id="xtick_6">
     <g id="line2d_11">
      <path clip-path="url(#p839f1eea0c)" d="M 622.636364 378 
L 622.636364 51.84 
" style="fill:none;stroke:#b0b0b0;stroke-linecap:square;stroke-width:0.8;"/>
     </g>
     <g id="line2d_12">
      <g>
       <use style="stroke:#000000;stroke-width:0.8;" x="622.636364" xlink:href="#m3f265bdcbb" y="378"/>
      </g>
     </g>
     <g id="text_6">
      <!-- 5 -->
      <g transform="translate(619.455114 392.598437)scale(0.1 -0.1)">
       <defs>
        <path d="M 10.796875 72.90625 
L 49.515625 72.90625 
L 49.515625 64.59375 
L 19.828125 64.59375 
L 19.828125 46.734375 
Q 21.96875 47.46875 24.109375 47.828125 
Q 26.265625 48.1875 28.421875 48.1875 
Q 40.625 48.1875 47.75 41.5 
Q 54.890625 34.8125 54.890625 23.390625 
Q 54.890625 11.625 47.5625 5.09375 
Q 40.234375 -1.421875 26.90625 -1.421875 
Q 22.3125 -1.421875 17.546875 -0.640625 
Q 12.796875 0.140625 7.71875 1.703125 
L 7.71875 11.625 
Q 12.109375 9.234375 16.796875 8.0625 
Q 21.484375 6.890625 26.703125 6.890625 
Q 35.15625 6.890625 40.078125 11.328125 
Q 45.015625 15.765625 45.015625 23.390625 
Q 45.015625 31 40.078125 35.4375 
Q 35.15625 39.890625 26.703125 39.890625 
Q 22.75 39.890625 18.8125 39.015625 
Q 14.890625 38.140625 10.796875 36.28125 
z
" id="DejaVuSans-53"/>
       </defs>
       <use xlink:href="#DejaVuSans-53"/>
      </g>
     </g>
    </g>
   </g>
   <g id="matplotlib.axis_2">
    <g id="ytick_1">
     <g id="line2d_13">
      <path clip-path="url(#p839f1eea0c)" d="M 90 378 
L 648 378 
" style="fill:none;stroke:#b0b0b0;stroke-linecap:square;stroke-width:0.8;"/>
     </g>
     <g id="line2d_14">
      <defs>
       <path d="M 0 0 
L -3.5 0 
" id="m2e8350f48c" style="stroke:#000000;stroke-width:0.8;"/>
      </defs>
      <g>
       <use style="stroke:#000000;stroke-width:0.8;" x="90" xlink:href="#m2e8350f48c" y="378"/>
      </g>
     </g>
     <g id="text_7">
      <!-- −175 -->
      <g transform="translate(55.532812 381.799219)scale(0.1 -0.1)">
       <defs>
        <path d="M 10.59375 35.5 
L 73.1875 35.5 
L 73.1875 27.203125 
L 10.59375 27.203125 
z
" id="DejaVuSans-8722"/>
        <path d="M 8.203125 72.90625 
L 55.078125 72.90625 
L 55.078125 68.703125 
L 28.609375 0 
L 18.3125 0 
L 43.21875 64.59375 
L 8.203125 64.59375 
z
" id="DejaVuSans-55"/>
       </defs>
       <use xlink:href="#DejaVuSans-8722"/>
       <use x="83.789062" xlink:href="#DejaVuSans-49"/>
       <use x="147.412109" xlink:href="#DejaVuSans-55"/>
       <use x="211.035156" xlink:href="#DejaVuSans-53"/>
      </g>
     </g>
    </g>
    <g id="ytick_2">
     <g id="line2d_15">
      <path clip-path="url(#p839f1eea0c)" d="M 90 348.349091 
L 648 348.349091 
" style="fill:none;stroke:#b0b0b0;stroke-linecap:square;stroke-width:0.8;"/>
     </g>
     <g id="line2d_16">
      <g>
       <use style="stroke:#000000;stroke-width:0.8;" x="90" xlink:href="#m2e8350f48c" y="348.349091"/>
      </g>
     </g>
     <g id="text_8">
      <!-- −150 -->
      <g transform="translate(55.532812 352.14831)scale(0.1 -0.1)">
       <use xlink:href="#DejaVuSans-8722"/>
       <use x="83.789062" xlink:href="#DejaVuSans-49"/>
       <use x="147.412109" xlink:href="#DejaVuSans-53"/>
       <use x="211.035156" xlink:href="#DejaVuSans-48"/>
      </g>
     </g>
    </g>
    <g id="ytick_3">
     <g id="line2d_17">
      <path clip-path="url(#p839f1eea0c)" d="M 90 318.698182 
L 648 318.698182 
" style="fill:none;stroke:#b0b0b0;stroke-linecap:square;stroke-width:0.8;"/>
     </g>
     <g id="line2d_18">
      <g>
       <use style="stroke:#000000;stroke-width:0.8;" x="90" xlink:href="#m2e8350f48c" y="318.698182"/>
      </g>
     </g>
     <g id="text_9">
      <!-- −125 -->
      <g transform="translate(55.532812 322.497401)scale(0.1 -0.1)">
       <use xlink:href="#DejaVuSans-8722"/>
       <use x="83.789062" xlink:href="#DejaVuSans-49"/>
       <use x="147.412109" xlink:href="#DejaVuSans-50"/>
       <use x="211.035156" xlink:href="#DejaVuSans-53"/>
      </g>
     </g>
    </g>
    <g id="ytick_4">
     <g id="line2d_19">
      <path clip-path="url(#p839f1eea0c)" d="M 90 289.047273 
L 648 289.047273 
" style="fill:none;stroke:#b0b0b0;stroke-linecap:square;stroke-width:0.8;"/>
     </g>
     <g id="line2d_20">
      <g>
       <use style="stroke:#000000;stroke-width:0.8;" x="90" xlink:href="#m2e8350f48c" y="289.047273"/>
      </g>
     </g>
     <g id="text_10">
      <!-- −100 -->
      <g transform="translate(55.532812 292.846491)scale(0.1 -0.1)">
       <use xlink:href="#DejaVuSans-8722"/>
       <use x="83.789062" xlink:href="#DejaVuSans-49"/>
       <use x="147.412109" xlink:href="#DejaVuSans-48"/>
       <use x="211.035156" xlink:href="#DejaVuSans-48"/>
      </g>
     </g>
    </g>
    <g id="ytick_5">
     <g id="line2d_21">
      <path clip-path="url(#p839f1eea0c)" d="M 90 259.396364 
L 648 259.396364 
" style="fill:none;stroke:#b0b0b0;stroke-linecap:square;stroke-width:0.8;"/>
     </g>
     <g id="line2d_22">
      <g>
       <use style="stroke:#000000;stroke-width:0.8;" x="90" xlink:href="#m2e8350f48c" y="259.396364"/>
      </g>
     </g>
     <g id="text_11">
      <!-- −75 -->
      <g transform="translate(61.895313 263.195582)scale(0.1 -0.1)">
       <use xlink:href="#DejaVuSans-8722"/>
       <use x="83.789062" xlink:href="#DejaVuSans-55"/>
       <use x="147.412109" xlink:href="#DejaVuSans-53"/>
      </g>
     </g>
    </g>
    <g id="ytick_6">
     <g id="line2d_23">
      <path clip-path="url(#p839f1eea0c)" d="M 90 229.745455 
L 648 229.745455 
" style="fill:none;stroke:#b0b0b0;stroke-linecap:square;stroke-width:0.8;"/>
     </g>
     <g id="line2d_24">
      <g>
       <use style="stroke:#000000;stroke-width:0.8;" x="90" xlink:href="#m2e8350f48c" y="229.745455"/>
      </g>
     </g>
     <g id="text_12">
      <!-- −50 -->
      <g transform="translate(61.895313 233.544673)scale(0.1 -0.1)">
       <use xlink:href="#DejaVuSans-8722"/>
       <use x="83.789062" xlink:href="#DejaVuSans-53"/>
       <use x="147.412109" xlink:href="#DejaVuSans-48"/>
      </g>
     </g>
    </g>
    <g id="ytick_7">
     <g id="line2d_25">
      <path clip-path="url(#p839f1eea0c)" d="M 90 200.094545 
L 648 200.094545 
" style="fill:none;stroke:#b0b0b0;stroke-linecap:square;stroke-width:0.8;"/>
     </g>
     <g id="line2d_26">
      <g>
       <use style="stroke:#000000;stroke-width:0.8;" x="90" xlink:href="#m2e8350f48c" y="200.094545"/>
      </g>
     </g>
     <g id="text_13">
      <!-- −25 -->
      <g transform="translate(61.895313 203.893764)scale(0.1 -0.1)">
       <use xlink:href="#DejaVuSans-8722"/>
       <use x="83.789062" xlink:href="#DejaVuSans-50"/>
       <use x="147.412109" xlink:href="#DejaVuSans-53"/>
      </g>
     </g>
    </g>
    <g id="ytick_8">
     <g id="line2d_27">
      <path clip-path="url(#p839f1eea0c)" d="M 90 170.443636 
L 648 170.443636 
" style="fill:none;stroke:#b0b0b0;stroke-linecap:square;stroke-width:0.8;"/>
     </g>
     <g id="line2d_28">
      <g>
       <use style="stroke:#000000;stroke-width:0.8;" x="90" xlink:href="#m2e8350f48c" y="170.443636"/>
      </g>
     </g>
     <g id="text_14">
      <!-- 0 -->
      <g transform="translate(76.6375 174.242855)scale(0.1 -0.1)">
       <use xlink:href="#DejaVuSans-48"/>
      </g>
     </g>
    </g>
    <g id="ytick_9">
     <g id="line2d_29">
      <path clip-path="url(#p839f1eea0c)" d="M 90 140.792727 
L 648 140.792727 
" style="fill:none;stroke:#b0b0b0;stroke-linecap:square;stroke-width:0.8;"/>
     </g>
     <g id="line2d_30">
      <g>
       <use style="stroke:#000000;stroke-width:0.8;" x="90" xlink:href="#m2e8350f48c" y="140.792727"/>
      </g>
     </g>
     <g id="text_15">
      <!-- 25 -->
      <g transform="translate(70.275 144.591946)scale(0.1 -0.1)">
       <use xlink:href="#DejaVuSans-50"/>
       <use x="63.623047" xlink:href="#DejaVuSans-53"/>
      </g>
     </g>
    </g>
    <g id="ytick_10">
     <g id="line2d_31">
      <path clip-path="url(#p839f1eea0c)" d="M 90 111.141818 
L 648 111.141818 
" style="fill:none;stroke:#b0b0b0;stroke-linecap:square;stroke-width:0.8;"/>
     </g>
     <g id="line2d_32">
      <g>
       <use style="stroke:#000000;stroke-width:0.8;" x="90" xlink:href="#m2e8350f48c" y="111.141818"/>
      </g>
     </g>
     <g id="text_16">
      <!-- 50 -->
      <g transform="translate(70.275 114.941037)scale(0.1 -0.1)">
       <use xlink:href="#DejaVuSans-53"/>
       <use x="63.623047" xlink:href="#DejaVuSans-48"/>
      </g>
     </g>
    </g>
    <g id="ytick_11">
     <g id="line2d_33">
      <path clip-path="url(#p839f1eea0c)" d="M 90 81.490909 
L 648 81.490909 
" style="fill:none;stroke:#b0b0b0;stroke-linecap:square;stroke-width:0.8;"/>
     </g>
     <g id="line2d_34">
      <g>
       <use style="stroke:#000000;stroke-width:0.8;" x="90" xlink:href="#m2e8350f48c" y="81.490909"/>
      </g>
     </g>
     <g id="text_17">
      <!-- 75 -->
      <g transform="translate(70.275 85.290128)scale(0.1 -0.1)">
       <use xlink:href="#DejaVuSans-55"/>
       <use x="63.623047" xlink:href="#DejaVuSans-53"/>
      </g>
     </g>
    </g>
    <g id="ytick_12">
     <g id="line2d_35">
      <path clip-path="url(#p839f1eea0c)" d="M 90 51.84 
L 648 51.84 
" style="fill:none;stroke:#b0b0b0;stroke-linecap:square;stroke-width:0.8;"/>
     </g>
     <g id="line2d_36">
      <g>
       <use style="stroke:#000000;stroke-width:0.8;" x="90" xlink:href="#m2e8350f48c" y="51.84"/>
      </g>
     </g>
     <g id="text_18">
      <!-- 100 -->
      <g transform="translate(63.9125 55.639219)scale(0.1 -0.1)">
       <use xlink:href="#DejaVuSans-49"/>
       <use x="63.623047" xlink:href="#DejaVuSans-48"/>
       <use x="127.246094" xlink:href="#DejaVuSans-48"/>
      </g>
     </g>
    </g>
   </g>
   <g id="line2d_37">
    <path clip-path="url(#p839f1eea0c)" d="M 622.636364 55.299554 
L 310.468531 60.102818 
L 206.412587 62.645198 
L 154.384615 74.407961 
L 128.370629 86.198266 
L 115.363636 107.159149 
" style="fill:none;stroke:#ea4335;stroke-linecap:square;stroke-width:1.5;"/>
    <defs>
     <path d="M 0 3 
C 0.795609 3 1.55874 2.683901 2.12132 2.12132 
C 2.683901 1.55874 3 0.795609 3 0 
C 3 -0.795609 2.683901 -1.55874 2.12132 -2.12132 
C 1.55874 -2.683901 0.795609 -3 0 -3 
C -0.795609 -3 -1.55874 -2.683901 -2.12132 -2.12132 
C -2.683901 -1.55874 -3 -0.795609 -3 0 
C -3 0.795609 -2.683901 1.55874 -2.12132 2.12132 
C -1.55874 2.683901 -0.795609 3 0 3 
z
" id="m70777e9f0c" style="stroke:#ea4335;"/>
    </defs>
    <g clip-path="url(#p839f1eea0c)">
     <use style="fill:#ea4335;stroke:#ea4335;" x="622.636364" xlink:href="#m70777e9f0c" y="55.299554"/>
     <use style="fill:#ea4335;stroke:#ea4335;" x="310.468531" xlink:href="#m70777e9f0c" y="60.102818"/>
     <use style="fill:#ea4335;stroke:#ea4335;" x="206.412587" xlink:href="#m70777e9f0c" y="62.645198"/>
     <use style="fill:#ea4335;stroke:#ea4335;" x="154.384615" xlink:href="#m70777e9f0c" y="74.407961"/>
     <use style="fill:#ea4335;stroke:#ea4335;" x="128.370629" xlink:href="#m70777e9f0c" y="86.198266"/>
     <use style="fill:#ea4335;stroke:#ea4335;" x="115.363636" xlink:href="#m70777e9f0c" y="107.159149"/>
    </g>
   </g>
   <g id="line2d_38">
    <path clip-path="url(#p839f1eea0c)" d="M 622.636364 54.716101 
L 310.468531 57.039392 
L 206.412587 59.096165 
L 154.384615 65.149249 
L 128.370629 78.549175 
L 115.363636 89.756343 
" style="fill:none;stroke:#fbbc04;stroke-linecap:square;stroke-width:1.5;"/>
    <defs>
     <path d="M 0 3 
C 0.795609 3 1.55874 2.683901 2.12132 2.12132 
C 2.683901 1.55874 3 0.795609 3 0 
C 3 -0.795609 2.683901 -1.55874 2.12132 -2.12132 
C 1.55874 -2.683901 0.795609 -3 0 -3 
C -0.795609 -3 -1.55874 -2.683901 -2.12132 -2.12132 
C -2.683901 -1.55874 -3 -0.795609 -3 0 
C -3 0.795609 -2.683901 1.55874 -2.12132 2.12132 
C -1.55874 2.683901 -0.795609 3 0 3 
z
" id="mc3c1812b96" style="stroke:#fbbc04;"/>
    </defs>
    <g clip-path="url(#p839f1eea0c)">
     <use style="fill:#fbbc04;stroke:#fbbc04;" x="622.636364" xlink:href="#mc3c1812b96" y="54.716101"/>
     <use style="fill:#fbbc04;stroke:#fbbc04;" x="310.468531" xlink:href="#mc3c1812b96" y="57.039392"/>
     <use style="fill:#fbbc04;stroke:#fbbc04;" x="206.412587" xlink:href="#mc3c1812b96" y="59.096165"/>
     <use style="fill:#fbbc04;stroke:#fbbc04;" x="154.384615" xlink:href="#mc3c1812b96" y="65.149249"/>
     <use style="fill:#fbbc04;stroke:#fbbc04;" x="128.370629" xlink:href="#mc3c1812b96" y="78.549175"/>
     <use style="fill:#fbbc04;stroke:#fbbc04;" x="115.363636" xlink:href="#mc3c1812b96" y="89.756343"/>
    </g>
   </g>
   <g id="line2d_39">
    <path clip-path="url(#p839f1eea0c)" d="M 622.636364 302.086369 
L 310.468531 222.109652 
L 206.412587 258.01232 
L 154.384615 244.125414 
L 128.370629 230.165484 
L 115.363636 256.42266 
" style="fill:none;stroke:#34a853;stroke-linecap:square;stroke-width:1.5;"/>
    <defs>
     <path d="M 0 3 
C 0.795609 3 1.55874 2.683901 2.12132 2.12132 
C 2.683901 1.55874 3 0.795609 3 0 
C 3 -0.795609 2.683901 -1.55874 2.12132 -2.12132 
C 1.55874 -2.683901 0.795609 -3 0 -3 
C -0.795609 -3 -1.55874 -2.683901 -2.12132 -2.12132 
C -2.683901 -1.55874 -3 -0.795609 -3 0 
C -3 0.795609 -2.683901 1.55874 -2.12132 2.12132 
C -1.55874 2.683901 -0.795609 3 0 3 
z
" id="m7ac54b32a9" style="stroke:#34a853;"/>
    </defs>
    <g clip-path="url(#p839f1eea0c)">
     <use style="fill:#34a853;stroke:#34a853;" x="622.636364" xlink:href="#m7ac54b32a9" y="302.086369"/>
     <use style="fill:#34a853;stroke:#34a853;" x="310.468531" xlink:href="#m7ac54b32a9" y="222.109652"/>
     <use style="fill:#34a853;stroke:#34a853;" x="206.412587" xlink:href="#m7ac54b32a9" y="258.01232"/>
     <use style="fill:#34a853;stroke:#34a853;" x="154.384615" xlink:href="#m7ac54b32a9" y="244.125414"/>
     <use style="fill:#34a853;stroke:#34a853;" x="128.370629" xlink:href="#m7ac54b32a9" y="230.165484"/>
     <use style="fill:#34a853;stroke:#34a853;" x="115.363636" xlink:href="#m7ac54b32a9" y="256.42266"/>
    </g>
   </g>
   <g id="line2d_40">
    <path clip-path="url(#p839f1eea0c)" d="M 622.636364 348.564888 
L 310.468531 348.012861 
L 206.412587 347.772448 
L 154.384615 348.025104 
L 128.370629 348.119815 
L 115.363636 347.951591 
" style="fill:none;stroke:#000000;stroke-linecap:square;stroke-width:1.5;"/>
    <defs>
     <path d="M 0 3 
C 0.795609 3 1.55874 2.683901 2.12132 2.12132 
C 2.683901 1.55874 3 0.795609 3 0 
C 3 -0.795609 2.683901 -1.55874 2.12132 -2.12132 
C 1.55874 -2.683901 0.795609 -3 0 -3 
C -0.795609 -3 -1.55874 -2.683901 -2.12132 -2.12132 
C -2.683901 -1.55874 -3 -0.795609 -3 0 
C -3 0.795609 -2.683901 1.55874 -2.12132 2.12132 
C -1.55874 2.683901 -0.795609 3 0 3 
z
" id="mb2ce16c907" style="stroke:#000000;"/>
    </defs>
    <g clip-path="url(#p839f1eea0c)">
     <use style="stroke:#000000;" x="622.636364" xlink:href="#mb2ce16c907" y="348.564888"/>
     <use style="stroke:#000000;" x="310.468531" xlink:href="#mb2ce16c907" y="348.012861"/>
     <use style="stroke:#000000;" x="206.412587" xlink:href="#mb2ce16c907" y="347.772448"/>
     <use style="stroke:#000000;" x="154.384615" xlink:href="#mb2ce16c907" y="348.025104"/>
     <use style="stroke:#000000;" x="128.370629" xlink:href="#mb2ce16c907" y="348.119815"/>
     <use style="stroke:#000000;" x="115.363636" xlink:href="#mb2ce16c907" y="347.951591"/>
    </g>
   </g>
   <g id="line2d_41">
    <path clip-path="url(#p839f1eea0c)" d="M 622.636364 67.397665 
L 310.468531 90.004471 
L 206.412587 109.003591 
L 154.384615 123.079931 
L 128.370629 146.59377 
L 115.363636 182.798933 
" style="fill:none;stroke:#46bdc6;stroke-linecap:square;stroke-width:1.5;"/>
    <defs>
     <path d="M 0 3 
C 0.795609 3 1.55874 2.683901 2.12132 2.12132 
C 2.683901 1.55874 3 0.795609 3 0 
C 3 -0.795609 2.683901 -1.55874 2.12132 -2.12132 
C 1.55874 -2.683901 0.795609 -3 0 -3 
C -0.795609 -3 -1.55874 -2.683901 -2.12132 -2.12132 
C -2.683901 -1.55874 -3 -0.795609 -3 0 
C -3 0.795609 -2.683901 1.55874 -2.12132 2.12132 
C -1.55874 2.683901 -0.795609 3 0 3 
z
" id="mc7dc7edd84" style="stroke:#46bdc6;"/>
    </defs>
    <g clip-path="url(#p839f1eea0c)">
     <use style="fill:#46bdc6;stroke:#46bdc6;" x="622.636364" xlink:href="#mc7dc7edd84" y="67.397665"/>
     <use style="fill:#46bdc6;stroke:#46bdc6;" x="310.468531" xlink:href="#mc7dc7edd84" y="90.004471"/>
     <use style="fill:#46bdc6;stroke:#46bdc6;" x="206.412587" xlink:href="#mc7dc7edd84" y="109.003591"/>
     <use style="fill:#46bdc6;stroke:#46bdc6;" x="154.384615" xlink:href="#mc7dc7edd84" y="123.079931"/>
     <use style="fill:#46bdc6;stroke:#46bdc6;" x="128.370629" xlink:href="#mc7dc7edd84" y="146.59377"/>
     <use style="fill:#46bdc6;stroke:#46bdc6;" x="115.363636" xlink:href="#mc7dc7edd84" y="182.798933"/>
    </g>
   </g>
   <g id="line2d_42">
    <path clip-path="url(#p839f1eea0c)" d="M 90 170.443636 
L 648 170.443636 
" style="fill:none;stroke:#000000;stroke-linecap:square;stroke-width:1.5;"/>
   </g>
   <g id="patch_3">
    <path d="M 90 378 
L 90 51.84 
" style="fill:none;stroke:#000000;stroke-linecap:square;stroke-linejoin:miter;stroke-width:0.8;"/>
   </g>
   <g id="patch_4">
    <path d="M 648 378 
L 648 51.84 
" style="fill:none;stroke:#000000;stroke-linecap:square;stroke-linejoin:miter;stroke-width:0.8;"/>
   </g>
   <g id="patch_5">
    <path d="M 90 378 
L 648 378 
" style="fill:none;stroke:#000000;stroke-linecap:square;stroke-linejoin:miter;stroke-width:0.8;"/>
   </g>
   <g id="patch_6">
    <path d="M 90 51.84 
L 648 51.84 
" style="fill:none;stroke:#000000;stroke-linecap:square;stroke-linejoin:miter;stroke-width:0.8;"/>
   </g>
   <g id="text_19">
    <!-- labeled_data_percentage -->
    <g transform="translate(293.316563 45.84)scale(0.12 -0.12)">
     <defs>
      <path d="M 9.421875 75.984375 
L 18.40625 75.984375 
L 18.40625 0 
L 9.421875 0 
z
" id="DejaVuSans-108"/>
      <path d="M 34.28125 27.484375 
Q 23.390625 27.484375 19.1875 25 
Q 14.984375 22.515625 14.984375 16.5 
Q 14.984375 11.71875 18.140625 8.90625 
Q 21.296875 6.109375 26.703125 6.109375 
Q 34.1875 6.109375 38.703125 11.40625 
Q 43.21875 16.703125 43.21875 25.484375 
L 43.21875 27.484375 
z
M 52.203125 31.203125 
L 52.203125 0 
L 43.21875 0 
L 43.21875 8.296875 
Q 40.140625 3.328125 35.546875 0.953125 
Q 30.953125 -1.421875 24.3125 -1.421875 
Q 15.921875 -1.421875 10.953125 3.296875 
Q 6 8.015625 6 15.921875 
Q 6 25.140625 12.171875 29.828125 
Q 18.359375 34.515625 30.609375 34.515625 
L 43.21875 34.515625 
L 43.21875 35.40625 
Q 43.21875 41.609375 39.140625 45 
Q 35.0625 48.390625 27.6875 48.390625 
Q 23 48.390625 18.546875 47.265625 
Q 14.109375 46.140625 10.015625 43.890625 
L 10.015625 52.203125 
Q 14.9375 54.109375 19.578125 55.046875 
Q 24.21875 56 28.609375 56 
Q 40.484375 56 46.34375 49.84375 
Q 52.203125 43.703125 52.203125 31.203125 
z
" id="DejaVuSans-97"/>
      <path d="M 48.6875 27.296875 
Q 48.6875 37.203125 44.609375 42.84375 
Q 40.53125 48.484375 33.40625 48.484375 
Q 26.265625 48.484375 22.1875 42.84375 
Q 18.109375 37.203125 18.109375 27.296875 
Q 18.109375 17.390625 22.1875 11.75 
Q 26.265625 6.109375 33.40625 6.109375 
Q 40.53125 6.109375 44.609375 11.75 
Q 48.6875 17.390625 48.6875 27.296875 
z
M 18.109375 46.390625 
Q 20.953125 51.265625 25.265625 53.625 
Q 29.59375 56 35.59375 56 
Q 45.5625 56 51.78125 48.09375 
Q 58.015625 40.1875 58.015625 27.296875 
Q 58.015625 14.40625 51.78125 6.484375 
Q 45.5625 -1.421875 35.59375 -1.421875 
Q 29.59375 -1.421875 25.265625 0.953125 
Q 20.953125 3.328125 18.109375 8.203125 
L 18.109375 0 
L 9.078125 0 
L 9.078125 75.984375 
L 18.109375 75.984375 
z
" id="DejaVuSans-98"/>
      <path d="M 56.203125 29.59375 
L 56.203125 25.203125 
L 14.890625 25.203125 
Q 15.484375 15.921875 20.484375 11.0625 
Q 25.484375 6.203125 34.421875 6.203125 
Q 39.59375 6.203125 44.453125 7.46875 
Q 49.3125 8.734375 54.109375 11.28125 
L 54.109375 2.78125 
Q 49.265625 0.734375 44.1875 -0.34375 
Q 39.109375 -1.421875 33.890625 -1.421875 
Q 20.796875 -1.421875 13.15625 6.1875 
Q 5.515625 13.8125 5.515625 26.8125 
Q 5.515625 40.234375 12.765625 48.109375 
Q 20.015625 56 32.328125 56 
Q 43.359375 56 49.78125 48.890625 
Q 56.203125 41.796875 56.203125 29.59375 
z
M 47.21875 32.234375 
Q 47.125 39.59375 43.09375 43.984375 
Q 39.0625 48.390625 32.421875 48.390625 
Q 24.90625 48.390625 20.390625 44.140625 
Q 15.875 39.890625 15.1875 32.171875 
z
" id="DejaVuSans-101"/>
      <path d="M 45.40625 46.390625 
L 45.40625 75.984375 
L 54.390625 75.984375 
L 54.390625 0 
L 45.40625 0 
L 45.40625 8.203125 
Q 42.578125 3.328125 38.25 0.953125 
Q 33.9375 -1.421875 27.875 -1.421875 
Q 17.96875 -1.421875 11.734375 6.484375 
Q 5.515625 14.40625 5.515625 27.296875 
Q 5.515625 40.1875 11.734375 48.09375 
Q 17.96875 56 27.875 56 
Q 33.9375 56 38.25 53.625 
Q 42.578125 51.265625 45.40625 46.390625 
z
M 14.796875 27.296875 
Q 14.796875 17.390625 18.875 11.75 
Q 22.953125 6.109375 30.078125 6.109375 
Q 37.203125 6.109375 41.296875 11.75 
Q 45.40625 17.390625 45.40625 27.296875 
Q 45.40625 37.203125 41.296875 42.84375 
Q 37.203125 48.484375 30.078125 48.484375 
Q 22.953125 48.484375 18.875 42.84375 
Q 14.796875 37.203125 14.796875 27.296875 
z
" id="DejaVuSans-100"/>
      <path d="M 50.984375 -16.609375 
L 50.984375 -23.578125 
L -0.984375 -23.578125 
L -0.984375 -16.609375 
z
" id="DejaVuSans-95"/>
      <path d="M 18.3125 70.21875 
L 18.3125 54.6875 
L 36.8125 54.6875 
L 36.8125 47.703125 
L 18.3125 47.703125 
L 18.3125 18.015625 
Q 18.3125 11.328125 20.140625 9.421875 
Q 21.96875 7.515625 27.59375 7.515625 
L 36.8125 7.515625 
L 36.8125 0 
L 27.59375 0 
Q 17.1875 0 13.234375 3.875 
Q 9.28125 7.765625 9.28125 18.015625 
L 9.28125 47.703125 
L 2.6875 47.703125 
L 2.6875 54.6875 
L 9.28125 54.6875 
L 9.28125 70.21875 
z
" id="DejaVuSans-116"/>
      <path d="M 18.109375 8.203125 
L 18.109375 -20.796875 
L 9.078125 -20.796875 
L 9.078125 54.6875 
L 18.109375 54.6875 
L 18.109375 46.390625 
Q 20.953125 51.265625 25.265625 53.625 
Q 29.59375 56 35.59375 56 
Q 45.5625 56 51.78125 48.09375 
Q 58.015625 40.1875 58.015625 27.296875 
Q 58.015625 14.40625 51.78125 6.484375 
Q 45.5625 -1.421875 35.59375 -1.421875 
Q 29.59375 -1.421875 25.265625 0.953125 
Q 20.953125 3.328125 18.109375 8.203125 
z
M 48.6875 27.296875 
Q 48.6875 37.203125 44.609375 42.84375 
Q 40.53125 48.484375 33.40625 48.484375 
Q 26.265625 48.484375 22.1875 42.84375 
Q 18.109375 37.203125 18.109375 27.296875 
Q 18.109375 17.390625 22.1875 11.75 
Q 26.265625 6.109375 33.40625 6.109375 
Q 40.53125 6.109375 44.609375 11.75 
Q 48.6875 17.390625 48.6875 27.296875 
z
" id="DejaVuSans-112"/>
      <path d="M 41.109375 46.296875 
Q 39.59375 47.171875 37.8125 47.578125 
Q 36.03125 48 33.890625 48 
Q 26.265625 48 22.1875 43.046875 
Q 18.109375 38.09375 18.109375 28.8125 
L 18.109375 0 
L 9.078125 0 
L 9.078125 54.6875 
L 18.109375 54.6875 
L 18.109375 46.1875 
Q 20.953125 51.171875 25.484375 53.578125 
Q 30.03125 56 36.53125 56 
Q 37.453125 56 38.578125 55.875 
Q 39.703125 55.765625 41.0625 55.515625 
z
" id="DejaVuSans-114"/>
      <path d="M 48.78125 52.59375 
L 48.78125 44.1875 
Q 44.96875 46.296875 41.140625 47.34375 
Q 37.3125 48.390625 33.40625 48.390625 
Q 24.65625 48.390625 19.8125 42.84375 
Q 14.984375 37.3125 14.984375 27.296875 
Q 14.984375 17.28125 19.8125 11.734375 
Q 24.65625 6.203125 33.40625 6.203125 
Q 37.3125 6.203125 41.140625 7.25 
Q 44.96875 8.296875 48.78125 10.40625 
L 48.78125 2.09375 
Q 45.015625 0.34375 40.984375 -0.53125 
Q 36.96875 -1.421875 32.421875 -1.421875 
Q 20.0625 -1.421875 12.78125 6.34375 
Q 5.515625 14.109375 5.515625 27.296875 
Q 5.515625 40.671875 12.859375 48.328125 
Q 20.21875 56 33.015625 56 
Q 37.15625 56 41.109375 55.140625 
Q 45.0625 54.296875 48.78125 52.59375 
z
" id="DejaVuSans-99"/>
      <path d="M 54.890625 33.015625 
L 54.890625 0 
L 45.90625 0 
L 45.90625 32.71875 
Q 45.90625 40.484375 42.875 44.328125 
Q 39.84375 48.1875 33.796875 48.1875 
Q 26.515625 48.1875 22.3125 43.546875 
Q 18.109375 38.921875 18.109375 30.90625 
L 18.109375 0 
L 9.078125 0 
L 9.078125 54.6875 
L 18.109375 54.6875 
L 18.109375 46.1875 
Q 21.34375 51.125 25.703125 53.5625 
Q 30.078125 56 35.796875 56 
Q 45.21875 56 50.046875 50.171875 
Q 54.890625 44.34375 54.890625 33.015625 
z
" id="DejaVuSans-110"/>
      <path d="M 45.40625 27.984375 
Q 45.40625 37.75 41.375 43.109375 
Q 37.359375 48.484375 30.078125 48.484375 
Q 22.859375 48.484375 18.828125 43.109375 
Q 14.796875 37.75 14.796875 27.984375 
Q 14.796875 18.265625 18.828125 12.890625 
Q 22.859375 7.515625 30.078125 7.515625 
Q 37.359375 7.515625 41.375 12.890625 
Q 45.40625 18.265625 45.40625 27.984375 
z
M 54.390625 6.78125 
Q 54.390625 -7.171875 48.1875 -13.984375 
Q 42 -20.796875 29.203125 -20.796875 
Q 24.46875 -20.796875 20.265625 -20.09375 
Q 16.0625 -19.390625 12.109375 -17.921875 
L 12.109375 -9.1875 
Q 16.0625 -11.328125 19.921875 -12.34375 
Q 23.78125 -13.375 27.78125 -13.375 
Q 36.625 -13.375 41.015625 -8.765625 
Q 45.40625 -4.15625 45.40625 5.171875 
L 45.40625 9.625 
Q 42.625 4.78125 38.28125 2.390625 
Q 33.9375 0 27.875 0 
Q 17.828125 0 11.671875 7.65625 
Q 5.515625 15.328125 5.515625 27.984375 
Q 5.515625 40.671875 11.671875 48.328125 
Q 17.828125 56 27.875 56 
Q 33.9375 56 38.28125 53.609375 
Q 42.625 51.21875 45.40625 46.390625 
L 45.40625 54.6875 
L 54.390625 54.6875 
z
" id="DejaVuSans-103"/>
     </defs>
     <use xlink:href="#DejaVuSans-108"/>
     <use x="27.783203" xlink:href="#DejaVuSans-97"/>
     <use x="89.0625" xlink:href="#DejaVuSans-98"/>
     <use x="152.539062" xlink:href="#DejaVuSans-101"/>
     <use x="214.0625" xlink:href="#DejaVuSans-108"/>
     <use x="241.845703" xlink:href="#DejaVuSans-101"/>
     <use x="303.369141" xlink:href="#DejaVuSans-100"/>
     <use x="366.845703" xlink:href="#DejaVuSans-95"/>
     <use x="416.845703" xlink:href="#DejaVuSans-100"/>
     <use x="480.322266" xlink:href="#DejaVuSans-97"/>
     <use x="541.601562" xlink:href="#DejaVuSans-116"/>
     <use x="580.810547" xlink:href="#DejaVuSans-97"/>
     <use x="642.089844" xlink:href="#DejaVuSans-95"/>
     <use x="692.089844" xlink:href="#DejaVuSans-112"/>
     <use x="755.566406" xlink:href="#DejaVuSans-101"/>
     <use x="817.089844" xlink:href="#DejaVuSans-114"/>
     <use x="855.953125" xlink:href="#DejaVuSans-99"/>
     <use x="910.933594" xlink:href="#DejaVuSans-101"/>
     <use x="972.457031" xlink:href="#DejaVuSans-110"/>
     <use x="1035.835938" xlink:href="#DejaVuSans-116"/>
     <use x="1075.044922" xlink:href="#DejaVuSans-97"/>
     <use x="1136.324219" xlink:href="#DejaVuSans-103"/>
     <use x="1199.800781" xlink:href="#DejaVuSans-101"/>
    </g>
   </g>
   <g id="legend_1">
    <g id="patch_7">
     <path d="M 529.964062 253.115313 
L 641 253.115313 
Q 643 253.115313 643 251.115313 
L 643 178.724688 
Q 643 176.724688 641 176.724688 
L 529.964062 176.724688 
Q 527.964062 176.724688 527.964062 178.724688 
L 527.964062 251.115313 
Q 527.964062 253.115313 529.964062 253.115313 
z
" style="fill:#ffffff;opacity:0.8;stroke:#cccccc;stroke-linejoin:miter;"/>
    </g>
    <g id="line2d_43">
     <path d="M 531.964062 184.823125 
L 551.964062 184.823125 
" style="fill:none;stroke:#ea4335;stroke-linecap:square;stroke-width:1.5;"/>
    </g>
    <g id="line2d_44">
     <g>
      <use style="fill:#ea4335;stroke:#ea4335;" x="541.964062" xlink:href="#m70777e9f0c" y="184.823125"/>
     </g>
    </g>
    <g id="text_20">
     <!-- CCE, SD=4 -->
     <g transform="translate(559.964062 188.323125)scale(0.1 -0.1)">
      <defs>
       <path d="M 64.40625 67.28125 
L 64.40625 56.890625 
Q 59.421875 61.53125 53.78125 63.8125 
Q 48.140625 66.109375 41.796875 66.109375 
Q 29.296875 66.109375 22.65625 58.46875 
Q 16.015625 50.828125 16.015625 36.375 
Q 16.015625 21.96875 22.65625 14.328125 
Q 29.296875 6.6875 41.796875 6.6875 
Q 48.140625 6.6875 53.78125 8.984375 
Q 59.421875 11.28125 64.40625 15.921875 
L 64.40625 5.609375 
Q 59.234375 2.09375 53.4375 0.328125 
Q 47.65625 -1.421875 41.21875 -1.421875 
Q 24.65625 -1.421875 15.125 8.703125 
Q 5.609375 18.84375 5.609375 36.375 
Q 5.609375 53.953125 15.125 64.078125 
Q 24.65625 74.21875 41.21875 74.21875 
Q 47.75 74.21875 53.53125 72.484375 
Q 59.328125 70.75 64.40625 67.28125 
z
" id="DejaVuSans-67"/>
       <path d="M 9.8125 72.90625 
L 55.90625 72.90625 
L 55.90625 64.59375 
L 19.671875 64.59375 
L 19.671875 43.015625 
L 54.390625 43.015625 
L 54.390625 34.71875 
L 19.671875 34.71875 
L 19.671875 8.296875 
L 56.78125 8.296875 
L 56.78125 0 
L 9.8125 0 
z
" id="DejaVuSans-69"/>
       <path d="M 11.71875 12.40625 
L 22.015625 12.40625 
L 22.015625 4 
L 14.015625 -11.625 
L 7.71875 -11.625 
L 11.71875 4 
z
" id="DejaVuSans-44"/>
       <path id="DejaVuSans-32"/>
       <path d="M 53.515625 70.515625 
L 53.515625 60.890625 
Q 47.90625 63.578125 42.921875 64.890625 
Q 37.9375 66.21875 33.296875 66.21875 
Q 25.25 66.21875 20.875 63.09375 
Q 16.5 59.96875 16.5 54.203125 
Q 16.5 49.359375 19.40625 46.890625 
Q 22.3125 44.4375 30.421875 42.921875 
L 36.375 41.703125 
Q 47.40625 39.59375 52.65625 34.296875 
Q 57.90625 29 57.90625 20.125 
Q 57.90625 9.515625 50.796875 4.046875 
Q 43.703125 -1.421875 29.984375 -1.421875 
Q 24.8125 -1.421875 18.96875 -0.25 
Q 13.140625 0.921875 6.890625 3.21875 
L 6.890625 13.375 
Q 12.890625 10.015625 18.65625 8.296875 
Q 24.421875 6.59375 29.984375 6.59375 
Q 38.421875 6.59375 43.015625 9.90625 
Q 47.609375 13.234375 47.609375 19.390625 
Q 47.609375 24.75 44.3125 27.78125 
Q 41.015625 30.8125 33.5 32.328125 
L 27.484375 33.5 
Q 16.453125 35.6875 11.515625 40.375 
Q 6.59375 45.0625 6.59375 53.421875 
Q 6.59375 63.09375 13.40625 68.65625 
Q 20.21875 74.21875 32.171875 74.21875 
Q 37.3125 74.21875 42.625 73.28125 
Q 47.953125 72.359375 53.515625 70.515625 
z
" id="DejaVuSans-83"/>
       <path d="M 19.671875 64.796875 
L 19.671875 8.109375 
L 31.59375 8.109375 
Q 46.6875 8.109375 53.6875 14.9375 
Q 60.6875 21.78125 60.6875 36.53125 
Q 60.6875 51.171875 53.6875 57.984375 
Q 46.6875 64.796875 31.59375 64.796875 
z
M 9.8125 72.90625 
L 30.078125 72.90625 
Q 51.265625 72.90625 61.171875 64.09375 
Q 71.09375 55.28125 71.09375 36.53125 
Q 71.09375 17.671875 61.125 8.828125 
Q 51.171875 0 30.078125 0 
L 9.8125 0 
z
" id="DejaVuSans-68"/>
       <path d="M 10.59375 45.40625 
L 73.1875 45.40625 
L 73.1875 37.203125 
L 10.59375 37.203125 
z
M 10.59375 25.484375 
L 73.1875 25.484375 
L 73.1875 17.1875 
L 10.59375 17.1875 
z
" id="DejaVuSans-61"/>
      </defs>
      <use xlink:href="#DejaVuSans-67"/>
      <use x="69.824219" xlink:href="#DejaVuSans-67"/>
      <use x="139.648438" xlink:href="#DejaVuSans-69"/>
      <use x="202.832031" xlink:href="#DejaVuSans-44"/>
      <use x="234.619141" xlink:href="#DejaVuSans-32"/>
      <use x="266.40625" xlink:href="#DejaVuSans-83"/>
      <use x="329.882812" xlink:href="#DejaVuSans-68"/>
      <use x="406.884766" xlink:href="#DejaVuSans-61"/>
      <use x="490.673828" xlink:href="#DejaVuSans-52"/>
     </g>
    </g>
    <g id="line2d_45">
     <path d="M 531.964062 199.50125 
L 551.964062 199.50125 
" style="fill:none;stroke:#fbbc04;stroke-linecap:square;stroke-width:1.5;"/>
    </g>
    <g id="line2d_46">
     <g>
      <use style="fill:#fbbc04;stroke:#fbbc04;" x="541.964062" xlink:href="#mc3c1812b96" y="199.50125"/>
     </g>
    </g>
    <g id="text_21">
     <!-- JSD, SD=4 -->
     <g transform="translate(559.964062 203.00125)scale(0.1 -0.1)">
      <defs>
       <path d="M 9.8125 72.90625 
L 19.671875 72.90625 
L 19.671875 5.078125 
Q 19.671875 -8.109375 14.671875 -14.0625 
Q 9.671875 -20.015625 -1.421875 -20.015625 
L -5.171875 -20.015625 
L -5.171875 -11.71875 
L -2.09375 -11.71875 
Q 4.4375 -11.71875 7.125 -8.046875 
Q 9.8125 -4.390625 9.8125 5.078125 
z
" id="DejaVuSans-74"/>
      </defs>
      <use xlink:href="#DejaVuSans-74"/>
      <use x="29.492188" xlink:href="#DejaVuSans-83"/>
      <use x="92.96875" xlink:href="#DejaVuSans-68"/>
      <use x="169.970703" xlink:href="#DejaVuSans-44"/>
      <use x="201.757812" xlink:href="#DejaVuSans-32"/>
      <use x="233.544922" xlink:href="#DejaVuSans-83"/>
      <use x="297.021484" xlink:href="#DejaVuSans-68"/>
      <use x="374.023438" xlink:href="#DejaVuSans-61"/>
      <use x="457.8125" xlink:href="#DejaVuSans-52"/>
     </g>
    </g>
    <g id="line2d_47">
     <path d="M 531.964062 214.179375 
L 551.964062 214.179375 
" style="fill:none;stroke:#34a853;stroke-linecap:square;stroke-width:1.5;"/>
    </g>
    <g id="line2d_48">
     <g>
      <use style="fill:#34a853;stroke:#34a853;" x="541.964062" xlink:href="#m7ac54b32a9" y="214.179375"/>
     </g>
    </g>
    <g id="text_22">
     <!-- CCE, SD=100 -->
     <g transform="translate(559.964062 217.679375)scale(0.1 -0.1)">
      <use xlink:href="#DejaVuSans-67"/>
      <use x="69.824219" xlink:href="#DejaVuSans-67"/>
      <use x="139.648438" xlink:href="#DejaVuSans-69"/>
      <use x="202.832031" xlink:href="#DejaVuSans-44"/>
      <use x="234.619141" xlink:href="#DejaVuSans-32"/>
      <use x="266.40625" xlink:href="#DejaVuSans-83"/>
      <use x="329.882812" xlink:href="#DejaVuSans-68"/>
      <use x="406.884766" xlink:href="#DejaVuSans-61"/>
      <use x="490.673828" xlink:href="#DejaVuSans-49"/>
      <use x="554.296875" xlink:href="#DejaVuSans-48"/>
      <use x="617.919922" xlink:href="#DejaVuSans-48"/>
     </g>
    </g>
    <g id="line2d_49">
     <path d="M 531.964062 228.8575 
L 551.964062 228.8575 
" style="fill:none;stroke:#000000;stroke-linecap:square;stroke-width:1.5;"/>
    </g>
    <g id="line2d_50">
     <g>
      <use style="stroke:#000000;" x="541.964062" xlink:href="#mb2ce16c907" y="228.8575"/>
     </g>
    </g>
    <g id="text_23">
     <!-- JSD, SD=100 -->
     <g transform="translate(559.964062 232.3575)scale(0.1 -0.1)">
      <use xlink:href="#DejaVuSans-74"/>
      <use x="29.492188" xlink:href="#DejaVuSans-83"/>
      <use x="92.96875" xlink:href="#DejaVuSans-68"/>
      <use x="169.970703" xlink:href="#DejaVuSans-44"/>
      <use x="201.757812" xlink:href="#DejaVuSans-32"/>
      <use x="233.544922" xlink:href="#DejaVuSans-83"/>
      <use x="297.021484" xlink:href="#DejaVuSans-68"/>
      <use x="374.023438" xlink:href="#DejaVuSans-61"/>
      <use x="457.8125" xlink:href="#DejaVuSans-49"/>
      <use x="521.435547" xlink:href="#DejaVuSans-48"/>
      <use x="585.058594" xlink:href="#DejaVuSans-48"/>
     </g>
    </g>
    <g id="line2d_51">
     <path d="M 531.964062 243.535625 
L 551.964062 243.535625 
" style="fill:none;stroke:#46bdc6;stroke-linecap:square;stroke-width:1.5;"/>
    </g>
    <g id="line2d_52">
     <g>
      <use style="fill:#46bdc6;stroke:#46bdc6;" x="541.964062" xlink:href="#mc7dc7edd84" y="243.535625"/>
     </g>
    </g>
    <g id="text_24">
     <!-- JSD(5), SD=100 -->
     <g transform="translate(559.964062 247.035625)scale(0.1 -0.1)">
      <defs>
       <path d="M 31 75.875 
Q 24.46875 64.65625 21.28125 53.65625 
Q 18.109375 42.671875 18.109375 31.390625 
Q 18.109375 20.125 21.3125 9.0625 
Q 24.515625 -2 31 -13.1875 
L 23.1875 -13.1875 
Q 15.875 -1.703125 12.234375 9.375 
Q 8.59375 20.453125 8.59375 31.390625 
Q 8.59375 42.28125 12.203125 53.3125 
Q 15.828125 64.359375 23.1875 75.875 
z
" id="DejaVuSans-40"/>
       <path d="M 8.015625 75.875 
L 15.828125 75.875 
Q 23.140625 64.359375 26.78125 53.3125 
Q 30.421875 42.28125 30.421875 31.390625 
Q 30.421875 20.453125 26.78125 9.375 
Q 23.140625 -1.703125 15.828125 -13.1875 
L 8.015625 -13.1875 
Q 14.5 -2 17.703125 9.0625 
Q 20.90625 20.125 20.90625 31.390625 
Q 20.90625 42.671875 17.703125 53.65625 
Q 14.5 64.65625 8.015625 75.875 
z
" id="DejaVuSans-41"/>
      </defs>
      <use xlink:href="#DejaVuSans-74"/>
      <use x="29.492188" xlink:href="#DejaVuSans-83"/>
      <use x="92.96875" xlink:href="#DejaVuSans-68"/>
      <use x="169.970703" xlink:href="#DejaVuSans-40"/>
      <use x="208.984375" xlink:href="#DejaVuSans-53"/>
      <use x="272.607422" xlink:href="#DejaVuSans-41"/>
      <use x="311.621094" xlink:href="#DejaVuSans-44"/>
      <use x="343.408203" xlink:href="#DejaVuSans-32"/>
      <use x="375.195312" xlink:href="#DejaVuSans-83"/>
      <use x="438.671875" xlink:href="#DejaVuSans-68"/>
      <use x="515.673828" xlink:href="#DejaVuSans-61"/>
      <use x="599.462891" xlink:href="#DejaVuSans-49"/>
      <use x="663.085938" xlink:href="#DejaVuSans-48"/>
      <use x="726.708984" xlink:href="#DejaVuSans-48"/>
     </g>
    </g>
   </g>
  </g>
 </g>
 <defs>
  <clipPath id="p839f1eea0c">
   <rect height="326.16" width="558" x="90" y="51.84"/>
  </clipPath>
 </defs>
</svg>
