<?xml version="1.0" encoding="utf-8" standalone="no"?>
<!DOCTYPE svg PUBLIC "-//W3C//DTD SVG 1.1//EN"
  "http://www.w3.org/Graphics/SVG/1.1/DTD/svg11.dtd">
<!-- Created with matplotlib (https://matplotlib.org/) -->
<svg height="432pt" version="1.1" viewBox="0 0 720 432" width="720pt" xmlns="http://www.w3.org/2000/svg" xmlns:xlink="http://www.w3.org/1999/xlink">
 <metadata>
  <rdf:RDF xmlns:cc="http://creativecommons.org/ns#" xmlns:dc="http://purl.org/dc/elements/1.1/" xmlns:rdf="http://www.w3.org/1999/02/22-rdf-syntax-ns#">
   <cc:Work>
    <dc:type rdf:resource="http://purl.org/dc/dcmitype/StillImage"/>
    <dc:date>2021-03-09T11:41:03.197333</dc:date>
    <dc:format>image/svg+xml</dc:format>
    <dc:creator>
     <cc:Agent>
      <dc:title>Matplotlib v3.3.4, https://matplotlib.org/</dc:title>
     </cc:Agent>
    </dc:creator>
   </cc:Work>
  </rdf:RDF>
 </metadata>
 <defs>
  <style type="text/css">*{stroke-linecap:butt;stroke-linejoin:round;}</style>
 </defs>
 <g id="figure_1">
  <g id="patch_1">
   <path d="M 0 432 
L 720 432 
L 720 0 
L 0 0 
z
" style="fill:none;"/>
  </g>
  <g id="axes_1">
   <g id="patch_2">
    <path d="M 90 378 
L 648 378 
L 648 51.84 
L 90 51.84 
z
" style="fill:#ffffff;"/>
   </g>
   <g id="patch_3">
    <path clip-path="url(#pfaf19439b7)" d="M 115.363636 170.443636 
L 120.760155 170.443636 
L 120.760155 116.244106 
L 115.363636 116.244106 
z
" style="fill:#ea4335;"/>
   </g>
   <g id="patch_4">
    <path clip-path="url(#pfaf19439b7)" d="M 169.32882 170.443636 
L 174.725338 170.443636 
L 174.725338 112.964023 
L 169.32882 112.964023 
z
" style="fill:#ea4335;"/>
   </g>
   <g id="patch_5">
    <path clip-path="url(#pfaf19439b7)" d="M 223.294004 170.443636 
L 228.690522 170.443636 
L 228.690522 112.556211 
L 223.294004 112.556211 
z
" style="fill:#ea4335;"/>
   </g>
   <g id="patch_6">
    <path clip-path="url(#pfaf19439b7)" d="M 277.259188 170.443636 
L 282.655706 170.443636 
L 282.655706 110.253173 
L 277.259188 110.253173 
z
" style="fill:#ea4335;"/>
   </g>
   <g id="patch_7">
    <path clip-path="url(#pfaf19439b7)" d="M 331.224371 170.443636 
L 336.62089 170.443636 
L 336.62089 107.963495 
L 331.224371 107.963495 
z
" style="fill:#ea4335;"/>
   </g>
   <g id="patch_8">
    <path clip-path="url(#pfaf19439b7)" d="M 385.189555 170.443636 
L 390.586074 170.443636 
L 390.586074 108.758891 
L 385.189555 108.758891 
z
" style="fill:#ea4335;"/>
   </g>
   <g id="patch_9">
    <path clip-path="url(#pfaf19439b7)" d="M 439.154739 170.443636 
L 444.551257 170.443636 
L 444.551257 129.462885 
L 439.154739 129.462885 
z
" style="fill:#ea4335;"/>
   </g>
   <g id="patch_10">
    <path clip-path="url(#pfaf19439b7)" d="M 493.119923 170.443636 
L 498.516441 170.443636 
L 498.516441 220.413264 
L 493.119923 220.413264 
z
" style="fill:#ea4335;"/>
   </g>
   <g id="patch_11">
    <path clip-path="url(#pfaf19439b7)" d="M 547.085106 170.443636 
L 552.481625 170.443636 
L 552.481625 263.35545 
L 547.085106 263.35545 
z
" style="fill:#ea4335;"/>
   </g>
   <g id="patch_12">
    <path clip-path="url(#pfaf19439b7)" d="M 601.05029 170.443636 
L 606.446809 170.443636 
L 606.446809 282.519066 
L 601.05029 282.519066 
z
" style="fill:#ea4335;"/>
   </g>
   <g id="patch_13">
    <path clip-path="url(#pfaf19439b7)" d="M 120.760155 170.443636 
L 126.156673 170.443636 
L 126.156673 168.895594 
L 120.760155 168.895594 
z
" style="fill:#fbbc04;"/>
   </g>
   <g id="patch_14">
    <path clip-path="url(#pfaf19439b7)" d="M 174.725338 170.443636 
L 180.121857 170.443636 
L 180.121857 169.368116 
L 174.725338 169.368116 
z
" style="fill:#fbbc04;"/>
   </g>
   <g id="patch_15">
    <path clip-path="url(#pfaf19439b7)" d="M 228.690522 170.443636 
L 234.087041 170.443636 
L 234.087041 167.719868 
L 228.690522 167.719868 
z
" style="fill:#fbbc04;"/>
   </g>
   <g id="patch_16">
    <path clip-path="url(#pfaf19439b7)" d="M 282.655706 170.443636 
L 288.052224 170.443636 
L 288.052224 163.007829 
L 282.655706 163.007829 
z
" style="fill:#fbbc04;"/>
   </g>
   <g id="patch_17">
    <path clip-path="url(#pfaf19439b7)" d="M 336.62089 170.443636 
L 342.017408 170.443636 
L 342.017408 154.585245 
L 336.62089 154.585245 
z
" style="fill:#fbbc04;"/>
   </g>
   <g id="patch_18">
    <path clip-path="url(#pfaf19439b7)" d="M 390.586074 170.443636 
L 395.982592 170.443636 
L 395.982592 154.077948 
L 390.586074 154.077948 
z
" style="fill:#fbbc04;"/>
   </g>
   <g id="patch_19">
    <path clip-path="url(#pfaf19439b7)" d="M 444.551257 170.443636 
L 449.947776 170.443636 
L 449.947776 180.61357 
L 444.551257 180.61357 
z
" style="fill:#fbbc04;"/>
   </g>
   <g id="patch_20">
    <path clip-path="url(#pfaf19439b7)" d="M 498.516441 170.443636 
L 503.912959 170.443636 
L 503.912959 260.314799 
L 498.516441 260.314799 
z
" style="fill:#fbbc04;"/>
   </g>
   <g id="patch_21">
    <path clip-path="url(#pfaf19439b7)" d="M 552.481625 170.443636 
L 557.878143 170.443636 
L 557.878143 288.961797 
L 552.481625 288.961797 
z
" style="fill:#fbbc04;"/>
   </g>
   <g id="patch_22">
    <path clip-path="url(#pfaf19439b7)" d="M 606.446809 170.443636 
L 611.843327 170.443636 
L 611.843327 296.548859 
L 606.446809 296.548859 
z
" style="fill:#fbbc04;"/>
   </g>
   <g id="patch_23">
    <path clip-path="url(#pfaf19439b7)" d="M 126.156673 170.443636 
L 131.553191 170.443636 
L 131.553191 77.10129 
L 126.156673 77.10129 
z
" style="fill:#34a853;"/>
   </g>
   <g id="patch_24">
    <path clip-path="url(#pfaf19439b7)" d="M 180.121857 170.443636 
L 185.518375 170.443636 
L 185.518375 75.933389 
L 180.121857 75.933389 
z
" style="fill:#34a853;"/>
   </g>
   <g id="patch_25">
    <path clip-path="url(#pfaf19439b7)" d="M 234.087041 170.443636 
L 239.483559 170.443636 
L 239.483559 152.55592 
L 234.087041 152.55592 
z
" style="fill:#34a853;"/>
   </g>
   <g id="patch_26">
    <path clip-path="url(#pfaf19439b7)" d="M 288.052224 170.443636 
L 293.448743 170.443636 
L 293.448743 266.033024 
L 288.052224 266.033024 
z
" style="fill:#34a853;"/>
   </g>
   <g id="patch_27">
    <path clip-path="url(#pfaf19439b7)" d="M 342.017408 170.443636 
L 347.413926 170.443636 
L 347.413926 352.93655 
L 342.017408 352.93655 
z
" style="fill:#34a853;"/>
   </g>
   <g id="patch_28">
    <path clip-path="url(#pfaf19439b7)" d="M 395.982592 170.443636 
L 401.37911 170.443636 
L 401.37911 71.195824 
L 395.982592 71.195824 
z
" style="fill:#34a853;"/>
   </g>
   <g id="patch_29">
    <path clip-path="url(#pfaf19439b7)" d="M 449.947776 170.443636 
L 455.344294 170.443636 
L 455.344294 77.227471 
L 449.947776 77.227471 
z
" style="fill:#34a853;"/>
   </g>
   <g id="patch_30">
    <path clip-path="url(#pfaf19439b7)" d="M 503.912959 170.443636 
L 509.309478 170.443636 
L 509.309478 145.767529 
L 503.912959 145.767529 
z
" style="fill:#34a853;"/>
   </g>
   <g id="patch_31">
    <path clip-path="url(#pfaf19439b7)" d="M 557.878143 170.443636 
L 563.274662 170.443636 
L 563.274662 267.008107 
L 557.878143 267.008107 
z
" style="fill:#34a853;"/>
   </g>
   <g id="patch_32">
    <path clip-path="url(#pfaf19439b7)" d="M 611.843327 170.443636 
L 617.239845 170.443636 
L 617.239845 354.806826 
L 611.843327 354.806826 
z
" style="fill:#34a853;"/>
   </g>
   <g id="patch_33">
    <path clip-path="url(#pfaf19439b7)" d="M 131.553191 170.443636 
L 136.94971 170.443636 
L 136.94971 122.707826 
L 131.553191 122.707826 
z
" style="fill:#4285f4;"/>
   </g>
   <g id="patch_34">
    <path clip-path="url(#pfaf19439b7)" d="M 185.518375 170.443636 
L 190.914894 170.443636 
L 190.914894 114.818022 
L 185.518375 114.818022 
z
" style="fill:#4285f4;"/>
   </g>
   <g id="patch_35">
    <path clip-path="url(#pfaf19439b7)" d="M 239.483559 170.443636 
L 244.880077 170.443636 
L 244.880077 154.883868 
L 239.483559 154.883868 
z
" style="fill:#4285f4;"/>
   </g>
   <g id="patch_36">
    <path clip-path="url(#pfaf19439b7)" d="M 293.448743 170.443636 
L 298.845261 170.443636 
L 298.845261 283.754456 
L 293.448743 283.754456 
z
" style="fill:#4285f4;"/>
   </g>
   <g id="patch_37">
    <path clip-path="url(#pfaf19439b7)" d="M 347.413926 170.443636 
L 352.810445 170.443636 
L 352.810445 389.372094 
L 347.413926 389.372094 
z
" style="fill:#4285f4;"/>
   </g>
   <g id="patch_38">
    <path clip-path="url(#pfaf19439b7)" d="M 401.37911 170.443636 
L 406.775629 170.443636 
L 406.775629 122.518751 
L 401.37911 122.518751 
z
" style="fill:#4285f4;"/>
   </g>
   <g id="patch_39">
    <path clip-path="url(#pfaf19439b7)" d="M 455.344294 170.443636 
L 460.740812 170.443636 
L 460.740812 114.619341 
L 455.344294 114.619341 
z
" style="fill:#4285f4;"/>
   </g>
   <g id="patch_40">
    <path clip-path="url(#pfaf19439b7)" d="M 509.309478 170.443636 
L 514.705996 170.443636 
L 514.705996 160.921797 
L 509.309478 160.921797 
z
" style="fill:#4285f4;"/>
   </g>
   <g id="patch_41">
    <path clip-path="url(#pfaf19439b7)" d="M 563.274662 170.443636 
L 568.67118 170.443636 
L 568.67118 282.334602 
L 563.274662 282.334602 
z
" style="fill:#4285f4;"/>
   </g>
   <g id="patch_42">
    <path clip-path="url(#pfaf19439b7)" d="M 617.239845 170.443636 
L 622.636364 170.443636 
L 622.636364 383.687933 
L 617.239845 383.687933 
z
" style="fill:#4285f4;"/>
   </g>
   <g id="matplotlib.axis_1">
    <g id="xtick_1">
     <g id="line2d_1">
      <defs>
       <path d="M 0 0 
L 0 3.5 
" id="m20f9d4efdf" style="stroke:#000000;stroke-width:0.8;"/>
      </defs>
      <g>
       <use style="stroke:#000000;stroke-width:0.8;" x="142.346228" xlink:href="#m20f9d4efdf" y="378"/>
      </g>
     </g>
     <g id="text_1">
      <!-- lambda SD: 0.01 -->
      <g transform="translate(100.590759 392.598437)scale(0.1 -0.1)">
       <defs>
        <path d="M 9.421875 75.984375 
L 18.40625 75.984375 
L 18.40625 0 
L 9.421875 0 
z
" id="DejaVuSans-108"/>
        <path d="M 34.28125 27.484375 
Q 23.390625 27.484375 19.1875 25 
Q 14.984375 22.515625 14.984375 16.5 
Q 14.984375 11.71875 18.140625 8.90625 
Q 21.296875 6.109375 26.703125 6.109375 
Q 34.1875 6.109375 38.703125 11.40625 
Q 43.21875 16.703125 43.21875 25.484375 
L 43.21875 27.484375 
z
M 52.203125 31.203125 
L 52.203125 0 
L 43.21875 0 
L 43.21875 8.296875 
Q 40.140625 3.328125 35.546875 0.953125 
Q 30.953125 -1.421875 24.3125 -1.421875 
Q 15.921875 -1.421875 10.953125 3.296875 
Q 6 8.015625 6 15.921875 
Q 6 25.140625 12.171875 29.828125 
Q 18.359375 34.515625 30.609375 34.515625 
L 43.21875 34.515625 
L 43.21875 35.40625 
Q 43.21875 41.609375 39.140625 45 
Q 35.0625 48.390625 27.6875 48.390625 
Q 23 48.390625 18.546875 47.265625 
Q 14.109375 46.140625 10.015625 43.890625 
L 10.015625 52.203125 
Q 14.9375 54.109375 19.578125 55.046875 
Q 24.21875 56 28.609375 56 
Q 40.484375 56 46.34375 49.84375 
Q 52.203125 43.703125 52.203125 31.203125 
z
" id="DejaVuSans-97"/>
        <path d="M 52 44.1875 
Q 55.375 50.25 60.0625 53.125 
Q 64.75 56 71.09375 56 
Q 79.640625 56 84.28125 50.015625 
Q 88.921875 44.046875 88.921875 33.015625 
L 88.921875 0 
L 79.890625 0 
L 79.890625 32.71875 
Q 79.890625 40.578125 77.09375 44.375 
Q 74.3125 48.1875 68.609375 48.1875 
Q 61.625 48.1875 57.5625 43.546875 
Q 53.515625 38.921875 53.515625 30.90625 
L 53.515625 0 
L 44.484375 0 
L 44.484375 32.71875 
Q 44.484375 40.625 41.703125 44.40625 
Q 38.921875 48.1875 33.109375 48.1875 
Q 26.21875 48.1875 22.15625 43.53125 
Q 18.109375 38.875 18.109375 30.90625 
L 18.109375 0 
L 9.078125 0 
L 9.078125 54.6875 
L 18.109375 54.6875 
L 18.109375 46.1875 
Q 21.1875 51.21875 25.484375 53.609375 
Q 29.78125 56 35.6875 56 
Q 41.65625 56 45.828125 52.96875 
Q 50 49.953125 52 44.1875 
z
" id="DejaVuSans-109"/>
        <path d="M 48.6875 27.296875 
Q 48.6875 37.203125 44.609375 42.84375 
Q 40.53125 48.484375 33.40625 48.484375 
Q 26.265625 48.484375 22.1875 42.84375 
Q 18.109375 37.203125 18.109375 27.296875 
Q 18.109375 17.390625 22.1875 11.75 
Q 26.265625 6.109375 33.40625 6.109375 
Q 40.53125 6.109375 44.609375 11.75 
Q 48.6875 17.390625 48.6875 27.296875 
z
M 18.109375 46.390625 
Q 20.953125 51.265625 25.265625 53.625 
Q 29.59375 56 35.59375 56 
Q 45.5625 56 51.78125 48.09375 
Q 58.015625 40.1875 58.015625 27.296875 
Q 58.015625 14.40625 51.78125 6.484375 
Q 45.5625 -1.421875 35.59375 -1.421875 
Q 29.59375 -1.421875 25.265625 0.953125 
Q 20.953125 3.328125 18.109375 8.203125 
L 18.109375 0 
L 9.078125 0 
L 9.078125 75.984375 
L 18.109375 75.984375 
z
" id="DejaVuSans-98"/>
        <path d="M 45.40625 46.390625 
L 45.40625 75.984375 
L 54.390625 75.984375 
L 54.390625 0 
L 45.40625 0 
L 45.40625 8.203125 
Q 42.578125 3.328125 38.25 0.953125 
Q 33.9375 -1.421875 27.875 -1.421875 
Q 17.96875 -1.421875 11.734375 6.484375 
Q 5.515625 14.40625 5.515625 27.296875 
Q 5.515625 40.1875 11.734375 48.09375 
Q 17.96875 56 27.875 56 
Q 33.9375 56 38.25 53.625 
Q 42.578125 51.265625 45.40625 46.390625 
z
M 14.796875 27.296875 
Q 14.796875 17.390625 18.875 11.75 
Q 22.953125 6.109375 30.078125 6.109375 
Q 37.203125 6.109375 41.296875 11.75 
Q 45.40625 17.390625 45.40625 27.296875 
Q 45.40625 37.203125 41.296875 42.84375 
Q 37.203125 48.484375 30.078125 48.484375 
Q 22.953125 48.484375 18.875 42.84375 
Q 14.796875 37.203125 14.796875 27.296875 
z
" id="DejaVuSans-100"/>
        <path id="DejaVuSans-32"/>
        <path d="M 53.515625 70.515625 
L 53.515625 60.890625 
Q 47.90625 63.578125 42.921875 64.890625 
Q 37.9375 66.21875 33.296875 66.21875 
Q 25.25 66.21875 20.875 63.09375 
Q 16.5 59.96875 16.5 54.203125 
Q 16.5 49.359375 19.40625 46.890625 
Q 22.3125 44.4375 30.421875 42.921875 
L 36.375 41.703125 
Q 47.40625 39.59375 52.65625 34.296875 
Q 57.90625 29 57.90625 20.125 
Q 57.90625 9.515625 50.796875 4.046875 
Q 43.703125 -1.421875 29.984375 -1.421875 
Q 24.8125 -1.421875 18.96875 -0.25 
Q 13.140625 0.921875 6.890625 3.21875 
L 6.890625 13.375 
Q 12.890625 10.015625 18.65625 8.296875 
Q 24.421875 6.59375 29.984375 6.59375 
Q 38.421875 6.59375 43.015625 9.90625 
Q 47.609375 13.234375 47.609375 19.390625 
Q 47.609375 24.75 44.3125 27.78125 
Q 41.015625 30.8125 33.5 32.328125 
L 27.484375 33.5 
Q 16.453125 35.6875 11.515625 40.375 
Q 6.59375 45.0625 6.59375 53.421875 
Q 6.59375 63.09375 13.40625 68.65625 
Q 20.21875 74.21875 32.171875 74.21875 
Q 37.3125 74.21875 42.625 73.28125 
Q 47.953125 72.359375 53.515625 70.515625 
z
" id="DejaVuSans-83"/>
        <path d="M 19.671875 64.796875 
L 19.671875 8.109375 
L 31.59375 8.109375 
Q 46.6875 8.109375 53.6875 14.9375 
Q 60.6875 21.78125 60.6875 36.53125 
Q 60.6875 51.171875 53.6875 57.984375 
Q 46.6875 64.796875 31.59375 64.796875 
z
M 9.8125 72.90625 
L 30.078125 72.90625 
Q 51.265625 72.90625 61.171875 64.09375 
Q 71.09375 55.28125 71.09375 36.53125 
Q 71.09375 17.671875 61.125 8.828125 
Q 51.171875 0 30.078125 0 
L 9.8125 0 
z
" id="DejaVuSans-68"/>
        <path d="M 11.71875 12.40625 
L 22.015625 12.40625 
L 22.015625 0 
L 11.71875 0 
z
M 11.71875 51.703125 
L 22.015625 51.703125 
L 22.015625 39.3125 
L 11.71875 39.3125 
z
" id="DejaVuSans-58"/>
        <path d="M 31.78125 66.40625 
Q 24.171875 66.40625 20.328125 58.90625 
Q 16.5 51.421875 16.5 36.375 
Q 16.5 21.390625 20.328125 13.890625 
Q 24.171875 6.390625 31.78125 6.390625 
Q 39.453125 6.390625 43.28125 13.890625 
Q 47.125 21.390625 47.125 36.375 
Q 47.125 51.421875 43.28125 58.90625 
Q 39.453125 66.40625 31.78125 66.40625 
z
M 31.78125 74.21875 
Q 44.046875 74.21875 50.515625 64.515625 
Q 56.984375 54.828125 56.984375 36.375 
Q 56.984375 17.96875 50.515625 8.265625 
Q 44.046875 -1.421875 31.78125 -1.421875 
Q 19.53125 -1.421875 13.0625 8.265625 
Q 6.59375 17.96875 6.59375 36.375 
Q 6.59375 54.828125 13.0625 64.515625 
Q 19.53125 74.21875 31.78125 74.21875 
z
" id="DejaVuSans-48"/>
        <path d="M 10.6875 12.40625 
L 21 12.40625 
L 21 0 
L 10.6875 0 
z
" id="DejaVuSans-46"/>
        <path d="M 12.40625 8.296875 
L 28.515625 8.296875 
L 28.515625 63.921875 
L 10.984375 60.40625 
L 10.984375 69.390625 
L 28.421875 72.90625 
L 38.28125 72.90625 
L 38.28125 8.296875 
L 54.390625 8.296875 
L 54.390625 0 
L 12.40625 0 
z
" id="DejaVuSans-49"/>
       </defs>
       <use xlink:href="#DejaVuSans-108"/>
       <use x="27.783203" xlink:href="#DejaVuSans-97"/>
       <use x="89.0625" xlink:href="#DejaVuSans-109"/>
       <use x="186.474609" xlink:href="#DejaVuSans-98"/>
       <use x="249.951172" xlink:href="#DejaVuSans-100"/>
       <use x="313.427734" xlink:href="#DejaVuSans-97"/>
       <use x="374.707031" xlink:href="#DejaVuSans-32"/>
       <use x="406.494141" xlink:href="#DejaVuSans-83"/>
       <use x="469.970703" xlink:href="#DejaVuSans-68"/>
       <use x="546.972656" xlink:href="#DejaVuSans-58"/>
       <use x="580.664062" xlink:href="#DejaVuSans-32"/>
       <use x="612.451172" xlink:href="#DejaVuSans-48"/>
       <use x="676.074219" xlink:href="#DejaVuSans-46"/>
       <use x="707.861328" xlink:href="#DejaVuSans-48"/>
       <use x="771.484375" xlink:href="#DejaVuSans-49"/>
      </g>
     </g>
    </g>
    <g id="xtick_2">
     <g id="line2d_2">
      <g>
       <use style="stroke:#000000;stroke-width:0.8;" x="196.311412" xlink:href="#m20f9d4efdf" y="378"/>
      </g>
     </g>
     <g id="text_2">
      <!-- lambda SD: 0.02 -->
      <g transform="translate(154.555943 392.598437)scale(0.1 -0.1)">
       <defs>
        <path d="M 19.1875 8.296875 
L 53.609375 8.296875 
L 53.609375 0 
L 7.328125 0 
L 7.328125 8.296875 
Q 12.9375 14.109375 22.625 23.890625 
Q 32.328125 33.6875 34.8125 36.53125 
Q 39.546875 41.84375 41.421875 45.53125 
Q 43.3125 49.21875 43.3125 52.78125 
Q 43.3125 58.59375 39.234375 62.25 
Q 35.15625 65.921875 28.609375 65.921875 
Q 23.96875 65.921875 18.8125 64.3125 
Q 13.671875 62.703125 7.8125 59.421875 
L 7.8125 69.390625 
Q 13.765625 71.78125 18.9375 73 
Q 24.125 74.21875 28.421875 74.21875 
Q 39.75 74.21875 46.484375 68.546875 
Q 53.21875 62.890625 53.21875 53.421875 
Q 53.21875 48.921875 51.53125 44.890625 
Q 49.859375 40.875 45.40625 35.40625 
Q 44.1875 33.984375 37.640625 27.21875 
Q 31.109375 20.453125 19.1875 8.296875 
z
" id="DejaVuSans-50"/>
       </defs>
       <use xlink:href="#DejaVuSans-108"/>
       <use x="27.783203" xlink:href="#DejaVuSans-97"/>
       <use x="89.0625" xlink:href="#DejaVuSans-109"/>
       <use x="186.474609" xlink:href="#DejaVuSans-98"/>
       <use x="249.951172" xlink:href="#DejaVuSans-100"/>
       <use x="313.427734" xlink:href="#DejaVuSans-97"/>
       <use x="374.707031" xlink:href="#DejaVuSans-32"/>
       <use x="406.494141" xlink:href="#DejaVuSans-83"/>
       <use x="469.970703" xlink:href="#DejaVuSans-68"/>
       <use x="546.972656" xlink:href="#DejaVuSans-58"/>
       <use x="580.664062" xlink:href="#DejaVuSans-32"/>
       <use x="612.451172" xlink:href="#DejaVuSans-48"/>
       <use x="676.074219" xlink:href="#DejaVuSans-46"/>
       <use x="707.861328" xlink:href="#DejaVuSans-48"/>
       <use x="771.484375" xlink:href="#DejaVuSans-50"/>
      </g>
     </g>
    </g>
    <g id="xtick_3">
     <g id="line2d_3">
      <g>
       <use style="stroke:#000000;stroke-width:0.8;" x="250.276596" xlink:href="#m20f9d4efdf" y="378"/>
      </g>
     </g>
     <g id="text_3">
      <!-- lambda SD: 0.05 -->
      <g transform="translate(208.521127 392.598437)scale(0.1 -0.1)">
       <defs>
        <path d="M 10.796875 72.90625 
L 49.515625 72.90625 
L 49.515625 64.59375 
L 19.828125 64.59375 
L 19.828125 46.734375 
Q 21.96875 47.46875 24.109375 47.828125 
Q 26.265625 48.1875 28.421875 48.1875 
Q 40.625 48.1875 47.75 41.5 
Q 54.890625 34.8125 54.890625 23.390625 
Q 54.890625 11.625 47.5625 5.09375 
Q 40.234375 -1.421875 26.90625 -1.421875 
Q 22.3125 -1.421875 17.546875 -0.640625 
Q 12.796875 0.140625 7.71875 1.703125 
L 7.71875 11.625 
Q 12.109375 9.234375 16.796875 8.0625 
Q 21.484375 6.890625 26.703125 6.890625 
Q 35.15625 6.890625 40.078125 11.328125 
Q 45.015625 15.765625 45.015625 23.390625 
Q 45.015625 31 40.078125 35.4375 
Q 35.15625 39.890625 26.703125 39.890625 
Q 22.75 39.890625 18.8125 39.015625 
Q 14.890625 38.140625 10.796875 36.28125 
z
" id="DejaVuSans-53"/>
       </defs>
       <use xlink:href="#DejaVuSans-108"/>
       <use x="27.783203" xlink:href="#DejaVuSans-97"/>
       <use x="89.0625" xlink:href="#DejaVuSans-109"/>
       <use x="186.474609" xlink:href="#DejaVuSans-98"/>
       <use x="249.951172" xlink:href="#DejaVuSans-100"/>
       <use x="313.427734" xlink:href="#DejaVuSans-97"/>
       <use x="374.707031" xlink:href="#DejaVuSans-32"/>
       <use x="406.494141" xlink:href="#DejaVuSans-83"/>
       <use x="469.970703" xlink:href="#DejaVuSans-68"/>
       <use x="546.972656" xlink:href="#DejaVuSans-58"/>
       <use x="580.664062" xlink:href="#DejaVuSans-32"/>
       <use x="612.451172" xlink:href="#DejaVuSans-48"/>
       <use x="676.074219" xlink:href="#DejaVuSans-46"/>
       <use x="707.861328" xlink:href="#DejaVuSans-48"/>
       <use x="771.484375" xlink:href="#DejaVuSans-53"/>
      </g>
     </g>
    </g>
    <g id="xtick_4">
     <g id="line2d_4">
      <g>
       <use style="stroke:#000000;stroke-width:0.8;" x="304.241779" xlink:href="#m20f9d4efdf" y="378"/>
      </g>
     </g>
     <g id="text_4">
      <!-- lambda SD: 0.1 -->
      <g transform="translate(265.667561 392.598437)scale(0.1 -0.1)">
       <use xlink:href="#DejaVuSans-108"/>
       <use x="27.783203" xlink:href="#DejaVuSans-97"/>
       <use x="89.0625" xlink:href="#DejaVuSans-109"/>
       <use x="186.474609" xlink:href="#DejaVuSans-98"/>
       <use x="249.951172" xlink:href="#DejaVuSans-100"/>
       <use x="313.427734" xlink:href="#DejaVuSans-97"/>
       <use x="374.707031" xlink:href="#DejaVuSans-32"/>
       <use x="406.494141" xlink:href="#DejaVuSans-83"/>
       <use x="469.970703" xlink:href="#DejaVuSans-68"/>
       <use x="546.972656" xlink:href="#DejaVuSans-58"/>
       <use x="580.664062" xlink:href="#DejaVuSans-32"/>
       <use x="612.451172" xlink:href="#DejaVuSans-48"/>
       <use x="676.074219" xlink:href="#DejaVuSans-46"/>
       <use x="707.861328" xlink:href="#DejaVuSans-49"/>
      </g>
     </g>
    </g>
    <g id="xtick_5">
     <g id="line2d_5">
      <g>
       <use style="stroke:#000000;stroke-width:0.8;" x="358.206963" xlink:href="#m20f9d4efdf" y="378"/>
      </g>
     </g>
     <g id="text_5">
      <!-- lambda SD: 0.2 -->
      <g transform="translate(319.632744 392.598437)scale(0.1 -0.1)">
       <use xlink:href="#DejaVuSans-108"/>
       <use x="27.783203" xlink:href="#DejaVuSans-97"/>
       <use x="89.0625" xlink:href="#DejaVuSans-109"/>
       <use x="186.474609" xlink:href="#DejaVuSans-98"/>
       <use x="249.951172" xlink:href="#DejaVuSans-100"/>
       <use x="313.427734" xlink:href="#DejaVuSans-97"/>
       <use x="374.707031" xlink:href="#DejaVuSans-32"/>
       <use x="406.494141" xlink:href="#DejaVuSans-83"/>
       <use x="469.970703" xlink:href="#DejaVuSans-68"/>
       <use x="546.972656" xlink:href="#DejaVuSans-58"/>
       <use x="580.664062" xlink:href="#DejaVuSans-32"/>
       <use x="612.451172" xlink:href="#DejaVuSans-48"/>
       <use x="676.074219" xlink:href="#DejaVuSans-46"/>
       <use x="707.861328" xlink:href="#DejaVuSans-50"/>
      </g>
     </g>
    </g>
    <g id="xtick_6">
     <g id="line2d_6">
      <g>
       <use style="stroke:#000000;stroke-width:0.8;" x="412.172147" xlink:href="#m20f9d4efdf" y="378"/>
      </g>
     </g>
     <g id="text_6">
      <!-- lambda SD: (0.01/SD)*100 -->
      <g transform="translate(345.762772 392.598437)scale(0.1 -0.1)">
       <defs>
        <path d="M 31 75.875 
Q 24.46875 64.65625 21.28125 53.65625 
Q 18.109375 42.671875 18.109375 31.390625 
Q 18.109375 20.125 21.3125 9.0625 
Q 24.515625 -2 31 -13.1875 
L 23.1875 -13.1875 
Q 15.875 -1.703125 12.234375 9.375 
Q 8.59375 20.453125 8.59375 31.390625 
Q 8.59375 42.28125 12.203125 53.3125 
Q 15.828125 64.359375 23.1875 75.875 
z
" id="DejaVuSans-40"/>
        <path d="M 25.390625 72.90625 
L 33.6875 72.90625 
L 8.296875 -9.28125 
L 0 -9.28125 
z
" id="DejaVuSans-47"/>
        <path d="M 8.015625 75.875 
L 15.828125 75.875 
Q 23.140625 64.359375 26.78125 53.3125 
Q 30.421875 42.28125 30.421875 31.390625 
Q 30.421875 20.453125 26.78125 9.375 
Q 23.140625 -1.703125 15.828125 -13.1875 
L 8.015625 -13.1875 
Q 14.5 -2 17.703125 9.0625 
Q 20.90625 20.125 20.90625 31.390625 
Q 20.90625 42.671875 17.703125 53.65625 
Q 14.5 64.65625 8.015625 75.875 
z
" id="DejaVuSans-41"/>
        <path d="M 47.015625 60.890625 
L 29.5 51.421875 
L 47.015625 41.890625 
L 44.1875 37.109375 
L 27.78125 47.015625 
L 27.78125 28.609375 
L 22.21875 28.609375 
L 22.21875 47.015625 
L 5.8125 37.109375 
L 2.984375 41.890625 
L 20.515625 51.421875 
L 2.984375 60.890625 
L 5.8125 65.71875 
L 22.21875 55.8125 
L 22.21875 74.21875 
L 27.78125 74.21875 
L 27.78125 55.8125 
L 44.1875 65.71875 
z
" id="DejaVuSans-42"/>
       </defs>
       <use xlink:href="#DejaVuSans-108"/>
       <use x="27.783203" xlink:href="#DejaVuSans-97"/>
       <use x="89.0625" xlink:href="#DejaVuSans-109"/>
       <use x="186.474609" xlink:href="#DejaVuSans-98"/>
       <use x="249.951172" xlink:href="#DejaVuSans-100"/>
       <use x="313.427734" xlink:href="#DejaVuSans-97"/>
       <use x="374.707031" xlink:href="#DejaVuSans-32"/>
       <use x="406.494141" xlink:href="#DejaVuSans-83"/>
       <use x="469.970703" xlink:href="#DejaVuSans-68"/>
       <use x="546.972656" xlink:href="#DejaVuSans-58"/>
       <use x="580.664062" xlink:href="#DejaVuSans-32"/>
       <use x="612.451172" xlink:href="#DejaVuSans-40"/>
       <use x="651.464844" xlink:href="#DejaVuSans-48"/>
       <use x="715.087891" xlink:href="#DejaVuSans-46"/>
       <use x="746.875" xlink:href="#DejaVuSans-48"/>
       <use x="810.498047" xlink:href="#DejaVuSans-49"/>
       <use x="874.121094" xlink:href="#DejaVuSans-47"/>
       <use x="907.8125" xlink:href="#DejaVuSans-83"/>
       <use x="971.289062" xlink:href="#DejaVuSans-68"/>
       <use x="1048.291016" xlink:href="#DejaVuSans-41"/>
       <use x="1087.304688" xlink:href="#DejaVuSans-42"/>
       <use x="1137.304688" xlink:href="#DejaVuSans-49"/>
       <use x="1200.927734" xlink:href="#DejaVuSans-48"/>
       <use x="1264.550781" xlink:href="#DejaVuSans-48"/>
      </g>
     </g>
    </g>
    <g id="xtick_7">
     <g id="line2d_7">
      <g>
       <use style="stroke:#000000;stroke-width:0.8;" x="466.137331" xlink:href="#m20f9d4efdf" y="378"/>
      </g>
     </g>
     <g id="text_7">
      <!-- lambda SD: (0.02/SD)*100 -->
      <g transform="translate(399.727956 392.598437)scale(0.1 -0.1)">
       <use xlink:href="#DejaVuSans-108"/>
       <use x="27.783203" xlink:href="#DejaVuSans-97"/>
       <use x="89.0625" xlink:href="#DejaVuSans-109"/>
       <use x="186.474609" xlink:href="#DejaVuSans-98"/>
       <use x="249.951172" xlink:href="#DejaVuSans-100"/>
       <use x="313.427734" xlink:href="#DejaVuSans-97"/>
       <use x="374.707031" xlink:href="#DejaVuSans-32"/>
       <use x="406.494141" xlink:href="#DejaVuSans-83"/>
       <use x="469.970703" xlink:href="#DejaVuSans-68"/>
       <use x="546.972656" xlink:href="#DejaVuSans-58"/>
       <use x="580.664062" xlink:href="#DejaVuSans-32"/>
       <use x="612.451172" xlink:href="#DejaVuSans-40"/>
       <use x="651.464844" xlink:href="#DejaVuSans-48"/>
       <use x="715.087891" xlink:href="#DejaVuSans-46"/>
       <use x="746.875" xlink:href="#DejaVuSans-48"/>
       <use x="810.498047" xlink:href="#DejaVuSans-50"/>
       <use x="874.121094" xlink:href="#DejaVuSans-47"/>
       <use x="907.8125" xlink:href="#DejaVuSans-83"/>
       <use x="971.289062" xlink:href="#DejaVuSans-68"/>
       <use x="1048.291016" xlink:href="#DejaVuSans-41"/>
       <use x="1087.304688" xlink:href="#DejaVuSans-42"/>
       <use x="1137.304688" xlink:href="#DejaVuSans-49"/>
       <use x="1200.927734" xlink:href="#DejaVuSans-48"/>
       <use x="1264.550781" xlink:href="#DejaVuSans-48"/>
      </g>
     </g>
    </g>
    <g id="xtick_8">
     <g id="line2d_8">
      <g>
       <use style="stroke:#000000;stroke-width:0.8;" x="520.102515" xlink:href="#m20f9d4efdf" y="378"/>
      </g>
     </g>
     <g id="text_8">
      <!-- lambda SD: (0.05/SD)*100 -->
      <g transform="translate(453.69314 392.598437)scale(0.1 -0.1)">
       <use xlink:href="#DejaVuSans-108"/>
       <use x="27.783203" xlink:href="#DejaVuSans-97"/>
       <use x="89.0625" xlink:href="#DejaVuSans-109"/>
       <use x="186.474609" xlink:href="#DejaVuSans-98"/>
       <use x="249.951172" xlink:href="#DejaVuSans-100"/>
       <use x="313.427734" xlink:href="#DejaVuSans-97"/>
       <use x="374.707031" xlink:href="#DejaVuSans-32"/>
       <use x="406.494141" xlink:href="#DejaVuSans-83"/>
       <use x="469.970703" xlink:href="#DejaVuSans-68"/>
       <use x="546.972656" xlink:href="#DejaVuSans-58"/>
       <use x="580.664062" xlink:href="#DejaVuSans-32"/>
       <use x="612.451172" xlink:href="#DejaVuSans-40"/>
       <use x="651.464844" xlink:href="#DejaVuSans-48"/>
       <use x="715.087891" xlink:href="#DejaVuSans-46"/>
       <use x="746.875" xlink:href="#DejaVuSans-48"/>
       <use x="810.498047" xlink:href="#DejaVuSans-53"/>
       <use x="874.121094" xlink:href="#DejaVuSans-47"/>
       <use x="907.8125" xlink:href="#DejaVuSans-83"/>
       <use x="971.289062" xlink:href="#DejaVuSans-68"/>
       <use x="1048.291016" xlink:href="#DejaVuSans-41"/>
       <use x="1087.304688" xlink:href="#DejaVuSans-42"/>
       <use x="1137.304688" xlink:href="#DejaVuSans-49"/>
       <use x="1200.927734" xlink:href="#DejaVuSans-48"/>
       <use x="1264.550781" xlink:href="#DejaVuSans-48"/>
      </g>
     </g>
    </g>
    <g id="xtick_9">
     <g id="line2d_9">
      <g>
       <use style="stroke:#000000;stroke-width:0.8;" x="574.067698" xlink:href="#m20f9d4efdf" y="378"/>
      </g>
     </g>
     <g id="text_9">
      <!-- lambda SD: (0.1/SD)*100 -->
      <g transform="translate(510.839573 392.598437)scale(0.1 -0.1)">
       <use xlink:href="#DejaVuSans-108"/>
       <use x="27.783203" xlink:href="#DejaVuSans-97"/>
       <use x="89.0625" xlink:href="#DejaVuSans-109"/>
       <use x="186.474609" xlink:href="#DejaVuSans-98"/>
       <use x="249.951172" xlink:href="#DejaVuSans-100"/>
       <use x="313.427734" xlink:href="#DejaVuSans-97"/>
       <use x="374.707031" xlink:href="#DejaVuSans-32"/>
       <use x="406.494141" xlink:href="#DejaVuSans-83"/>
       <use x="469.970703" xlink:href="#DejaVuSans-68"/>
       <use x="546.972656" xlink:href="#DejaVuSans-58"/>
       <use x="580.664062" xlink:href="#DejaVuSans-32"/>
       <use x="612.451172" xlink:href="#DejaVuSans-40"/>
       <use x="651.464844" xlink:href="#DejaVuSans-48"/>
       <use x="715.087891" xlink:href="#DejaVuSans-46"/>
       <use x="746.875" xlink:href="#DejaVuSans-49"/>
       <use x="810.498047" xlink:href="#DejaVuSans-47"/>
       <use x="844.189453" xlink:href="#DejaVuSans-83"/>
       <use x="907.666016" xlink:href="#DejaVuSans-68"/>
       <use x="984.667969" xlink:href="#DejaVuSans-41"/>
       <use x="1023.681641" xlink:href="#DejaVuSans-42"/>
       <use x="1073.681641" xlink:href="#DejaVuSans-49"/>
       <use x="1137.304688" xlink:href="#DejaVuSans-48"/>
       <use x="1200.927734" xlink:href="#DejaVuSans-48"/>
      </g>
     </g>
    </g>
    <g id="xtick_10">
     <g id="line2d_10">
      <g>
       <use style="stroke:#000000;stroke-width:0.8;" x="628.032882" xlink:href="#m20f9d4efdf" y="378"/>
      </g>
     </g>
     <g id="text_10">
      <!-- lambda SD: (0.2/SD)*100 -->
      <g transform="translate(564.804757 392.598437)scale(0.1 -0.1)">
       <use xlink:href="#DejaVuSans-108"/>
       <use x="27.783203" xlink:href="#DejaVuSans-97"/>
       <use x="89.0625" xlink:href="#DejaVuSans-109"/>
       <use x="186.474609" xlink:href="#DejaVuSans-98"/>
       <use x="249.951172" xlink:href="#DejaVuSans-100"/>
       <use x="313.427734" xlink:href="#DejaVuSans-97"/>
       <use x="374.707031" xlink:href="#DejaVuSans-32"/>
       <use x="406.494141" xlink:href="#DejaVuSans-83"/>
       <use x="469.970703" xlink:href="#DejaVuSans-68"/>
       <use x="546.972656" xlink:href="#DejaVuSans-58"/>
       <use x="580.664062" xlink:href="#DejaVuSans-32"/>
       <use x="612.451172" xlink:href="#DejaVuSans-40"/>
       <use x="651.464844" xlink:href="#DejaVuSans-48"/>
       <use x="715.087891" xlink:href="#DejaVuSans-46"/>
       <use x="746.875" xlink:href="#DejaVuSans-50"/>
       <use x="810.498047" xlink:href="#DejaVuSans-47"/>
       <use x="844.189453" xlink:href="#DejaVuSans-83"/>
       <use x="907.666016" xlink:href="#DejaVuSans-68"/>
       <use x="984.667969" xlink:href="#DejaVuSans-41"/>
       <use x="1023.681641" xlink:href="#DejaVuSans-42"/>
       <use x="1073.681641" xlink:href="#DejaVuSans-49"/>
       <use x="1137.304688" xlink:href="#DejaVuSans-48"/>
       <use x="1200.927734" xlink:href="#DejaVuSans-48"/>
      </g>
     </g>
    </g>
   </g>
   <g id="matplotlib.axis_2">
    <g id="ytick_1">
     <g id="line2d_11">
      <path clip-path="url(#pfaf19439b7)" d="M 90 378 
L 648 378 
" style="fill:none;stroke:#b0b0b0;stroke-linecap:square;stroke-width:0.8;"/>
     </g>
     <g id="line2d_12">
      <defs>
       <path d="M 0 0 
L -3.5 0 
" id="md943124243" style="stroke:#000000;stroke-width:0.8;"/>
      </defs>
      <g>
       <use style="stroke:#000000;stroke-width:0.8;" x="90" xlink:href="#md943124243" y="378"/>
      </g>
     </g>
     <g id="text_11">
      <!-- −175 -->
      <g transform="translate(55.532812 381.799219)scale(0.1 -0.1)">
       <defs>
        <path d="M 10.59375 35.5 
L 73.1875 35.5 
L 73.1875 27.203125 
L 10.59375 27.203125 
z
" id="DejaVuSans-8722"/>
        <path d="M 8.203125 72.90625 
L 55.078125 72.90625 
L 55.078125 68.703125 
L 28.609375 0 
L 18.3125 0 
L 43.21875 64.59375 
L 8.203125 64.59375 
z
" id="DejaVuSans-55"/>
       </defs>
       <use xlink:href="#DejaVuSans-8722"/>
       <use x="83.789062" xlink:href="#DejaVuSans-49"/>
       <use x="147.412109" xlink:href="#DejaVuSans-55"/>
       <use x="211.035156" xlink:href="#DejaVuSans-53"/>
      </g>
     </g>
    </g>
    <g id="ytick_2">
     <g id="line2d_13">
      <path clip-path="url(#pfaf19439b7)" d="M 90 348.349091 
L 648 348.349091 
" style="fill:none;stroke:#b0b0b0;stroke-linecap:square;stroke-width:0.8;"/>
     </g>
     <g id="line2d_14">
      <g>
       <use style="stroke:#000000;stroke-width:0.8;" x="90" xlink:href="#md943124243" y="348.349091"/>
      </g>
     </g>
     <g id="text_12">
      <!-- −150 -->
      <g transform="translate(55.532812 352.14831)scale(0.1 -0.1)">
       <use xlink:href="#DejaVuSans-8722"/>
       <use x="83.789062" xlink:href="#DejaVuSans-49"/>
       <use x="147.412109" xlink:href="#DejaVuSans-53"/>
       <use x="211.035156" xlink:href="#DejaVuSans-48"/>
      </g>
     </g>
    </g>
    <g id="ytick_3">
     <g id="line2d_15">
      <path clip-path="url(#pfaf19439b7)" d="M 90 318.698182 
L 648 318.698182 
" style="fill:none;stroke:#b0b0b0;stroke-linecap:square;stroke-width:0.8;"/>
     </g>
     <g id="line2d_16">
      <g>
       <use style="stroke:#000000;stroke-width:0.8;" x="90" xlink:href="#md943124243" y="318.698182"/>
      </g>
     </g>
     <g id="text_13">
      <!-- −125 -->
      <g transform="translate(55.532812 322.497401)scale(0.1 -0.1)">
       <use xlink:href="#DejaVuSans-8722"/>
       <use x="83.789062" xlink:href="#DejaVuSans-49"/>
       <use x="147.412109" xlink:href="#DejaVuSans-50"/>
       <use x="211.035156" xlink:href="#DejaVuSans-53"/>
      </g>
     </g>
    </g>
    <g id="ytick_4">
     <g id="line2d_17">
      <path clip-path="url(#pfaf19439b7)" d="M 90 289.047273 
L 648 289.047273 
" style="fill:none;stroke:#b0b0b0;stroke-linecap:square;stroke-width:0.8;"/>
     </g>
     <g id="line2d_18">
      <g>
       <use style="stroke:#000000;stroke-width:0.8;" x="90" xlink:href="#md943124243" y="289.047273"/>
      </g>
     </g>
     <g id="text_14">
      <!-- −100 -->
      <g transform="translate(55.532812 292.846491)scale(0.1 -0.1)">
       <use xlink:href="#DejaVuSans-8722"/>
       <use x="83.789062" xlink:href="#DejaVuSans-49"/>
       <use x="147.412109" xlink:href="#DejaVuSans-48"/>
       <use x="211.035156" xlink:href="#DejaVuSans-48"/>
      </g>
     </g>
    </g>
    <g id="ytick_5">
     <g id="line2d_19">
      <path clip-path="url(#pfaf19439b7)" d="M 90 259.396364 
L 648 259.396364 
" style="fill:none;stroke:#b0b0b0;stroke-linecap:square;stroke-width:0.8;"/>
     </g>
     <g id="line2d_20">
      <g>
       <use style="stroke:#000000;stroke-width:0.8;" x="90" xlink:href="#md943124243" y="259.396364"/>
      </g>
     </g>
     <g id="text_15">
      <!-- −75 -->
      <g transform="translate(61.895313 263.195582)scale(0.1 -0.1)">
       <use xlink:href="#DejaVuSans-8722"/>
       <use x="83.789062" xlink:href="#DejaVuSans-55"/>
       <use x="147.412109" xlink:href="#DejaVuSans-53"/>
      </g>
     </g>
    </g>
    <g id="ytick_6">
     <g id="line2d_21">
      <path clip-path="url(#pfaf19439b7)" d="M 90 229.745455 
L 648 229.745455 
" style="fill:none;stroke:#b0b0b0;stroke-linecap:square;stroke-width:0.8;"/>
     </g>
     <g id="line2d_22">
      <g>
       <use style="stroke:#000000;stroke-width:0.8;" x="90" xlink:href="#md943124243" y="229.745455"/>
      </g>
     </g>
     <g id="text_16">
      <!-- −50 -->
      <g transform="translate(61.895313 233.544673)scale(0.1 -0.1)">
       <use xlink:href="#DejaVuSans-8722"/>
       <use x="83.789062" xlink:href="#DejaVuSans-53"/>
       <use x="147.412109" xlink:href="#DejaVuSans-48"/>
      </g>
     </g>
    </g>
    <g id="ytick_7">
     <g id="line2d_23">
      <path clip-path="url(#pfaf19439b7)" d="M 90 200.094545 
L 648 200.094545 
" style="fill:none;stroke:#b0b0b0;stroke-linecap:square;stroke-width:0.8;"/>
     </g>
     <g id="line2d_24">
      <g>
       <use style="stroke:#000000;stroke-width:0.8;" x="90" xlink:href="#md943124243" y="200.094545"/>
      </g>
     </g>
     <g id="text_17">
      <!-- −25 -->
      <g transform="translate(61.895313 203.893764)scale(0.1 -0.1)">
       <use xlink:href="#DejaVuSans-8722"/>
       <use x="83.789062" xlink:href="#DejaVuSans-50"/>
       <use x="147.412109" xlink:href="#DejaVuSans-53"/>
      </g>
     </g>
    </g>
    <g id="ytick_8">
     <g id="line2d_25">
      <path clip-path="url(#pfaf19439b7)" d="M 90 170.443636 
L 648 170.443636 
" style="fill:none;stroke:#b0b0b0;stroke-linecap:square;stroke-width:0.8;"/>
     </g>
     <g id="line2d_26">
      <g>
       <use style="stroke:#000000;stroke-width:0.8;" x="90" xlink:href="#md943124243" y="170.443636"/>
      </g>
     </g>
     <g id="text_18">
      <!-- 0 -->
      <g transform="translate(76.6375 174.242855)scale(0.1 -0.1)">
       <use xlink:href="#DejaVuSans-48"/>
      </g>
     </g>
    </g>
    <g id="ytick_9">
     <g id="line2d_27">
      <path clip-path="url(#pfaf19439b7)" d="M 90 140.792727 
L 648 140.792727 
" style="fill:none;stroke:#b0b0b0;stroke-linecap:square;stroke-width:0.8;"/>
     </g>
     <g id="line2d_28">
      <g>
       <use style="stroke:#000000;stroke-width:0.8;" x="90" xlink:href="#md943124243" y="140.792727"/>
      </g>
     </g>
     <g id="text_19">
      <!-- 25 -->
      <g transform="translate(70.275 144.591946)scale(0.1 -0.1)">
       <use xlink:href="#DejaVuSans-50"/>
       <use x="63.623047" xlink:href="#DejaVuSans-53"/>
      </g>
     </g>
    </g>
    <g id="ytick_10">
     <g id="line2d_29">
      <path clip-path="url(#pfaf19439b7)" d="M 90 111.141818 
L 648 111.141818 
" style="fill:none;stroke:#b0b0b0;stroke-linecap:square;stroke-width:0.8;"/>
     </g>
     <g id="line2d_30">
      <g>
       <use style="stroke:#000000;stroke-width:0.8;" x="90" xlink:href="#md943124243" y="111.141818"/>
      </g>
     </g>
     <g id="text_20">
      <!-- 50 -->
      <g transform="translate(70.275 114.941037)scale(0.1 -0.1)">
       <use xlink:href="#DejaVuSans-53"/>
       <use x="63.623047" xlink:href="#DejaVuSans-48"/>
      </g>
     </g>
    </g>
    <g id="ytick_11">
     <g id="line2d_31">
      <path clip-path="url(#pfaf19439b7)" d="M 90 81.490909 
L 648 81.490909 
" style="fill:none;stroke:#b0b0b0;stroke-linecap:square;stroke-width:0.8;"/>
     </g>
     <g id="line2d_32">
      <g>
       <use style="stroke:#000000;stroke-width:0.8;" x="90" xlink:href="#md943124243" y="81.490909"/>
      </g>
     </g>
     <g id="text_21">
      <!-- 75 -->
      <g transform="translate(70.275 85.290128)scale(0.1 -0.1)">
       <use xlink:href="#DejaVuSans-55"/>
       <use x="63.623047" xlink:href="#DejaVuSans-53"/>
      </g>
     </g>
    </g>
    <g id="ytick_12">
     <g id="line2d_33">
      <path clip-path="url(#pfaf19439b7)" d="M 90 51.84 
L 648 51.84 
" style="fill:none;stroke:#b0b0b0;stroke-linecap:square;stroke-width:0.8;"/>
     </g>
     <g id="line2d_34">
      <g>
       <use style="stroke:#000000;stroke-width:0.8;" x="90" xlink:href="#md943124243" y="51.84"/>
      </g>
     </g>
     <g id="text_22">
      <!-- 100 -->
      <g transform="translate(63.9125 55.639219)scale(0.1 -0.1)">
       <use xlink:href="#DejaVuSans-49"/>
       <use x="63.623047" xlink:href="#DejaVuSans-48"/>
       <use x="127.246094" xlink:href="#DejaVuSans-48"/>
      </g>
     </g>
    </g>
   </g>
   <g id="LineCollection_1">
    <path clip-path="url(#pfaf19439b7)" d="M 118.061896 119.675382 
L 118.061896 112.81283 
" style="fill:none;stroke:#000000;stroke-width:1.5;"/>
    <path clip-path="url(#pfaf19439b7)" d="M 172.027079 115.107533 
L 172.027079 110.820513 
" style="fill:none;stroke:#000000;stroke-width:1.5;"/>
    <path clip-path="url(#pfaf19439b7)" d="M 225.992263 113.765516 
L 225.992263 111.346906 
" style="fill:none;stroke:#000000;stroke-width:1.5;"/>
    <path clip-path="url(#pfaf19439b7)" d="M 279.957447 110.699565 
L 279.957447 109.806781 
" style="fill:none;stroke:#000000;stroke-width:1.5;"/>
    <path clip-path="url(#pfaf19439b7)" d="M 333.922631 109.811507 
L 333.922631 106.115483 
" style="fill:none;stroke:#000000;stroke-width:1.5;"/>
    <path clip-path="url(#pfaf19439b7)" d="M 387.887814 110.396471 
L 387.887814 107.12131 
" style="fill:none;stroke:#000000;stroke-width:1.5;"/>
    <path clip-path="url(#pfaf19439b7)" d="M 441.852998 131.734073 
L 441.852998 127.191697 
" style="fill:none;stroke:#000000;stroke-width:1.5;"/>
    <path clip-path="url(#pfaf19439b7)" d="M 495.818182 223.016642 
L 495.818182 217.809885 
" style="fill:none;stroke:#000000;stroke-width:1.5;"/>
    <path clip-path="url(#pfaf19439b7)" d="M 549.783366 264.646935 
L 549.783366 262.063965 
" style="fill:none;stroke:#000000;stroke-width:1.5;"/>
    <path clip-path="url(#pfaf19439b7)" d="M 603.748549 283.789788 
L 603.748549 281.248344 
" style="fill:none;stroke:#000000;stroke-width:1.5;"/>
   </g>
   <g id="LineCollection_2">
    <path clip-path="url(#pfaf19439b7)" d="M 123.458414 169.539702 
L 123.458414 168.251486 
" style="fill:none;stroke:#000000;stroke-width:1.5;"/>
    <path clip-path="url(#pfaf19439b7)" d="M 177.423598 169.47738 
L 177.423598 169.258852 
" style="fill:none;stroke:#000000;stroke-width:1.5;"/>
    <path clip-path="url(#pfaf19439b7)" d="M 231.388781 168.848809 
L 231.388781 166.590928 
" style="fill:none;stroke:#000000;stroke-width:1.5;"/>
    <path clip-path="url(#pfaf19439b7)" d="M 285.353965 165.051225 
L 285.353965 160.964432 
" style="fill:none;stroke:#000000;stroke-width:1.5;"/>
    <path clip-path="url(#pfaf19439b7)" d="M 339.319149 156.352764 
L 339.319149 152.817725 
" style="fill:none;stroke:#000000;stroke-width:1.5;"/>
    <path clip-path="url(#pfaf19439b7)" d="M 393.284333 154.270664 
L 393.284333 153.885233 
" style="fill:none;stroke:#000000;stroke-width:1.5;"/>
    <path clip-path="url(#pfaf19439b7)" d="M 447.249516 180.9911 
L 447.249516 180.23604 
" style="fill:none;stroke:#000000;stroke-width:1.5;"/>
    <path clip-path="url(#pfaf19439b7)" d="M 501.2147 260.63159 
L 501.2147 259.998009 
" style="fill:none;stroke:#000000;stroke-width:1.5;"/>
    <path clip-path="url(#pfaf19439b7)" d="M 555.179884 290.435637 
L 555.179884 287.487957 
" style="fill:none;stroke:#000000;stroke-width:1.5;"/>
    <path clip-path="url(#pfaf19439b7)" d="M 609.145068 298.143851 
L 609.145068 294.953867 
" style="fill:none;stroke:#000000;stroke-width:1.5;"/>
   </g>
   <g id="LineCollection_3">
    <path clip-path="url(#pfaf19439b7)" d="M 128.854932 78.348945 
L 128.854932 75.853636 
" style="fill:none;stroke:#000000;stroke-width:1.5;"/>
    <path clip-path="url(#pfaf19439b7)" d="M 182.820116 77.712876 
L 182.820116 74.153902 
" style="fill:none;stroke:#000000;stroke-width:1.5;"/>
    <path clip-path="url(#pfaf19439b7)" d="M 236.7853 156.100598 
L 236.7853 149.011242 
" style="fill:none;stroke:#000000;stroke-width:1.5;"/>
    <path clip-path="url(#pfaf19439b7)" d="M 290.750484 270.66646 
L 290.750484 261.399587 
" style="fill:none;stroke:#000000;stroke-width:1.5;"/>
    <path clip-path="url(#pfaf19439b7)" d="M 344.715667 364.658063 
L 344.715667 341.215038 
" style="fill:none;stroke:#000000;stroke-width:1.5;"/>
    <path clip-path="url(#pfaf19439b7)" d="M 398.680851 73.344377 
L 398.680851 69.047272 
" style="fill:none;stroke:#000000;stroke-width:1.5;"/>
    <path clip-path="url(#pfaf19439b7)" d="M 452.646035 81.06987 
L 452.646035 73.385073 
" style="fill:none;stroke:#000000;stroke-width:1.5;"/>
    <path clip-path="url(#pfaf19439b7)" d="M 506.611219 150.222702 
L 506.611219 141.312356 
" style="fill:none;stroke:#000000;stroke-width:1.5;"/>
    <path clip-path="url(#pfaf19439b7)" d="M 560.576402 272.472973 
L 560.576402 261.54324 
" style="fill:none;stroke:#000000;stroke-width:1.5;"/>
    <path clip-path="url(#pfaf19439b7)" d="M 614.541586 357.702498 
L 614.541586 351.911155 
" style="fill:none;stroke:#000000;stroke-width:1.5;"/>
   </g>
   <g id="LineCollection_4">
    <path clip-path="url(#pfaf19439b7)" d="M 134.251451 123.338935 
L 134.251451 122.076717 
" style="fill:none;stroke:#000000;stroke-width:1.5;"/>
    <path clip-path="url(#pfaf19439b7)" d="M 188.216634 115.207039 
L 188.216634 114.429005 
" style="fill:none;stroke:#000000;stroke-width:1.5;"/>
    <path clip-path="url(#pfaf19439b7)" d="M 242.181818 161.90964 
L 242.181818 147.858096 
" style="fill:none;stroke:#000000;stroke-width:1.5;"/>
    <path clip-path="url(#pfaf19439b7)" d="M 296.147002 288.826417 
L 296.147002 278.682494 
" style="fill:none;stroke:#000000;stroke-width:1.5;"/>
    <path clip-path="url(#pfaf19439b7)" d="M 350.112186 393.65168 
L 350.112186 385.092507 
" style="fill:none;stroke:#000000;stroke-width:1.5;"/>
    <path clip-path="url(#pfaf19439b7)" d="M 404.077369 122.95074 
L 404.077369 122.086761 
" style="fill:none;stroke:#000000;stroke-width:1.5;"/>
    <path clip-path="url(#pfaf19439b7)" d="M 458.042553 115.189514 
L 458.042553 114.049168 
" style="fill:none;stroke:#000000;stroke-width:1.5;"/>
    <path clip-path="url(#pfaf19439b7)" d="M 512.007737 163.555264 
L 512.007737 158.288331 
" style="fill:none;stroke:#000000;stroke-width:1.5;"/>
    <path clip-path="url(#pfaf19439b7)" d="M 565.972921 284.543056 
L 565.972921 280.126149 
" style="fill:none;stroke:#000000;stroke-width:1.5;"/>
    <path clip-path="url(#pfaf19439b7)" d="M 619.938104 385.723072 
L 619.938104 381.652794 
" style="fill:none;stroke:#000000;stroke-width:1.5;"/>
   </g>
   <g id="line2d_35">
    <path clip-path="url(#pfaf19439b7)" d="M 90 170.443636 
L 648 170.443636 
" style="fill:none;stroke:#000000;stroke-linecap:square;stroke-width:1.5;"/>
   </g>
   <g id="patch_43">
    <path d="M 90 378 
L 90 51.84 
" style="fill:none;stroke:#000000;stroke-linecap:square;stroke-linejoin:miter;stroke-width:0.8;"/>
   </g>
   <g id="patch_44">
    <path d="M 648 378 
L 648 51.84 
" style="fill:none;stroke:#000000;stroke-linecap:square;stroke-linejoin:miter;stroke-width:0.8;"/>
   </g>
   <g id="patch_45">
    <path d="M 90 378 
L 648 378 
" style="fill:none;stroke:#000000;stroke-linecap:square;stroke-linejoin:miter;stroke-width:0.8;"/>
   </g>
   <g id="patch_46">
    <path d="M 90 51.84 
L 648 51.84 
" style="fill:none;stroke:#000000;stroke-linecap:square;stroke-linejoin:miter;stroke-width:0.8;"/>
   </g>
   <g id="text_23">
    <!-- gaussian_noise_sigma -->
    <g transform="translate(302.233125 45.84)scale(0.12 -0.12)">
     <defs>
      <path d="M 45.40625 27.984375 
Q 45.40625 37.75 41.375 43.109375 
Q 37.359375 48.484375 30.078125 48.484375 
Q 22.859375 48.484375 18.828125 43.109375 
Q 14.796875 37.75 14.796875 27.984375 
Q 14.796875 18.265625 18.828125 12.890625 
Q 22.859375 7.515625 30.078125 7.515625 
Q 37.359375 7.515625 41.375 12.890625 
Q 45.40625 18.265625 45.40625 27.984375 
z
M 54.390625 6.78125 
Q 54.390625 -7.171875 48.1875 -13.984375 
Q 42 -20.796875 29.203125 -20.796875 
Q 24.46875 -20.796875 20.265625 -20.09375 
Q 16.0625 -19.390625 12.109375 -17.921875 
L 12.109375 -9.1875 
Q 16.0625 -11.328125 19.921875 -12.34375 
Q 23.78125 -13.375 27.78125 -13.375 
Q 36.625 -13.375 41.015625 -8.765625 
Q 45.40625 -4.15625 45.40625 5.171875 
L 45.40625 9.625 
Q 42.625 4.78125 38.28125 2.390625 
Q 33.9375 0 27.875 0 
Q 17.828125 0 11.671875 7.65625 
Q 5.515625 15.328125 5.515625 27.984375 
Q 5.515625 40.671875 11.671875 48.328125 
Q 17.828125 56 27.875 56 
Q 33.9375 56 38.28125 53.609375 
Q 42.625 51.21875 45.40625 46.390625 
L 45.40625 54.6875 
L 54.390625 54.6875 
z
" id="DejaVuSans-103"/>
      <path d="M 8.5 21.578125 
L 8.5 54.6875 
L 17.484375 54.6875 
L 17.484375 21.921875 
Q 17.484375 14.15625 20.5 10.265625 
Q 23.53125 6.390625 29.59375 6.390625 
Q 36.859375 6.390625 41.078125 11.03125 
Q 45.3125 15.671875 45.3125 23.6875 
L 45.3125 54.6875 
L 54.296875 54.6875 
L 54.296875 0 
L 45.3125 0 
L 45.3125 8.40625 
Q 42.046875 3.421875 37.71875 1 
Q 33.40625 -1.421875 27.6875 -1.421875 
Q 18.265625 -1.421875 13.375 4.4375 
Q 8.5 10.296875 8.5 21.578125 
z
M 31.109375 56 
z
" id="DejaVuSans-117"/>
      <path d="M 44.28125 53.078125 
L 44.28125 44.578125 
Q 40.484375 46.53125 36.375 47.5 
Q 32.28125 48.484375 27.875 48.484375 
Q 21.1875 48.484375 17.84375 46.4375 
Q 14.5 44.390625 14.5 40.28125 
Q 14.5 37.15625 16.890625 35.375 
Q 19.28125 33.59375 26.515625 31.984375 
L 29.59375 31.296875 
Q 39.15625 29.25 43.1875 25.515625 
Q 47.21875 21.78125 47.21875 15.09375 
Q 47.21875 7.46875 41.1875 3.015625 
Q 35.15625 -1.421875 24.609375 -1.421875 
Q 20.21875 -1.421875 15.453125 -0.5625 
Q 10.6875 0.296875 5.421875 2 
L 5.421875 11.28125 
Q 10.40625 8.6875 15.234375 7.390625 
Q 20.0625 6.109375 24.8125 6.109375 
Q 31.15625 6.109375 34.5625 8.28125 
Q 37.984375 10.453125 37.984375 14.40625 
Q 37.984375 18.0625 35.515625 20.015625 
Q 33.0625 21.96875 24.703125 23.78125 
L 21.578125 24.515625 
Q 13.234375 26.265625 9.515625 29.90625 
Q 5.8125 33.546875 5.8125 39.890625 
Q 5.8125 47.609375 11.28125 51.796875 
Q 16.75 56 26.8125 56 
Q 31.78125 56 36.171875 55.265625 
Q 40.578125 54.546875 44.28125 53.078125 
z
" id="DejaVuSans-115"/>
      <path d="M 9.421875 54.6875 
L 18.40625 54.6875 
L 18.40625 0 
L 9.421875 0 
z
M 9.421875 75.984375 
L 18.40625 75.984375 
L 18.40625 64.59375 
L 9.421875 64.59375 
z
" id="DejaVuSans-105"/>
      <path d="M 54.890625 33.015625 
L 54.890625 0 
L 45.90625 0 
L 45.90625 32.71875 
Q 45.90625 40.484375 42.875 44.328125 
Q 39.84375 48.1875 33.796875 48.1875 
Q 26.515625 48.1875 22.3125 43.546875 
Q 18.109375 38.921875 18.109375 30.90625 
L 18.109375 0 
L 9.078125 0 
L 9.078125 54.6875 
L 18.109375 54.6875 
L 18.109375 46.1875 
Q 21.34375 51.125 25.703125 53.5625 
Q 30.078125 56 35.796875 56 
Q 45.21875 56 50.046875 50.171875 
Q 54.890625 44.34375 54.890625 33.015625 
z
" id="DejaVuSans-110"/>
      <path d="M 50.984375 -16.609375 
L 50.984375 -23.578125 
L -0.984375 -23.578125 
L -0.984375 -16.609375 
z
" id="DejaVuSans-95"/>
      <path d="M 30.609375 48.390625 
Q 23.390625 48.390625 19.1875 42.75 
Q 14.984375 37.109375 14.984375 27.296875 
Q 14.984375 17.484375 19.15625 11.84375 
Q 23.34375 6.203125 30.609375 6.203125 
Q 37.796875 6.203125 41.984375 11.859375 
Q 46.1875 17.53125 46.1875 27.296875 
Q 46.1875 37.015625 41.984375 42.703125 
Q 37.796875 48.390625 30.609375 48.390625 
z
M 30.609375 56 
Q 42.328125 56 49.015625 48.375 
Q 55.71875 40.765625 55.71875 27.296875 
Q 55.71875 13.875 49.015625 6.21875 
Q 42.328125 -1.421875 30.609375 -1.421875 
Q 18.84375 -1.421875 12.171875 6.21875 
Q 5.515625 13.875 5.515625 27.296875 
Q 5.515625 40.765625 12.171875 48.375 
Q 18.84375 56 30.609375 56 
z
" id="DejaVuSans-111"/>
      <path d="M 56.203125 29.59375 
L 56.203125 25.203125 
L 14.890625 25.203125 
Q 15.484375 15.921875 20.484375 11.0625 
Q 25.484375 6.203125 34.421875 6.203125 
Q 39.59375 6.203125 44.453125 7.46875 
Q 49.3125 8.734375 54.109375 11.28125 
L 54.109375 2.78125 
Q 49.265625 0.734375 44.1875 -0.34375 
Q 39.109375 -1.421875 33.890625 -1.421875 
Q 20.796875 -1.421875 13.15625 6.1875 
Q 5.515625 13.8125 5.515625 26.8125 
Q 5.515625 40.234375 12.765625 48.109375 
Q 20.015625 56 32.328125 56 
Q 43.359375 56 49.78125 48.890625 
Q 56.203125 41.796875 56.203125 29.59375 
z
M 47.21875 32.234375 
Q 47.125 39.59375 43.09375 43.984375 
Q 39.0625 48.390625 32.421875 48.390625 
Q 24.90625 48.390625 20.390625 44.140625 
Q 15.875 39.890625 15.1875 32.171875 
z
" id="DejaVuSans-101"/>
     </defs>
     <use xlink:href="#DejaVuSans-103"/>
     <use x="63.476562" xlink:href="#DejaVuSans-97"/>
     <use x="124.755859" xlink:href="#DejaVuSans-117"/>
     <use x="188.134766" xlink:href="#DejaVuSans-115"/>
     <use x="240.234375" xlink:href="#DejaVuSans-115"/>
     <use x="292.333984" xlink:href="#DejaVuSans-105"/>
     <use x="320.117188" xlink:href="#DejaVuSans-97"/>
     <use x="381.396484" xlink:href="#DejaVuSans-110"/>
     <use x="444.775391" xlink:href="#DejaVuSans-95"/>
     <use x="494.775391" xlink:href="#DejaVuSans-110"/>
     <use x="558.154297" xlink:href="#DejaVuSans-111"/>
     <use x="619.335938" xlink:href="#DejaVuSans-105"/>
     <use x="647.119141" xlink:href="#DejaVuSans-115"/>
     <use x="699.21875" xlink:href="#DejaVuSans-101"/>
     <use x="760.742188" xlink:href="#DejaVuSans-95"/>
     <use x="810.742188" xlink:href="#DejaVuSans-115"/>
     <use x="862.841797" xlink:href="#DejaVuSans-105"/>
     <use x="890.625" xlink:href="#DejaVuSans-103"/>
     <use x="954.101562" xlink:href="#DejaVuSans-109"/>
     <use x="1051.513672" xlink:href="#DejaVuSans-97"/>
    </g>
   </g>
   <g id="legend_1">
    <g id="patch_47">
     <path d="M 537.792187 118.5525 
L 641 118.5525 
Q 643 118.5525 643 116.5525 
L 643 58.84 
Q 643 56.84 641 56.84 
L 537.792187 56.84 
Q 535.792187 56.84 535.792187 58.84 
L 535.792187 116.5525 
Q 535.792187 118.5525 537.792187 118.5525 
z
" style="fill:#ffffff;opacity:0.8;stroke:#cccccc;stroke-linejoin:miter;"/>
    </g>
    <g id="patch_48">
     <path d="M 539.792187 68.438438 
L 559.792187 68.438438 
L 559.792187 61.438438 
L 539.792187 61.438438 
z
" style="fill:#ea4335;"/>
    </g>
    <g id="text_24">
     <!-- JSD, SD=4 -->
     <g transform="translate(567.792187 68.438438)scale(0.1 -0.1)">
      <defs>
       <path d="M 9.8125 72.90625 
L 19.671875 72.90625 
L 19.671875 5.078125 
Q 19.671875 -8.109375 14.671875 -14.0625 
Q 9.671875 -20.015625 -1.421875 -20.015625 
L -5.171875 -20.015625 
L -5.171875 -11.71875 
L -2.09375 -11.71875 
Q 4.4375 -11.71875 7.125 -8.046875 
Q 9.8125 -4.390625 9.8125 5.078125 
z
" id="DejaVuSans-74"/>
       <path d="M 11.71875 12.40625 
L 22.015625 12.40625 
L 22.015625 4 
L 14.015625 -11.625 
L 7.71875 -11.625 
L 11.71875 4 
z
" id="DejaVuSans-44"/>
       <path d="M 10.59375 45.40625 
L 73.1875 45.40625 
L 73.1875 37.203125 
L 10.59375 37.203125 
z
M 10.59375 25.484375 
L 73.1875 25.484375 
L 73.1875 17.1875 
L 10.59375 17.1875 
z
" id="DejaVuSans-61"/>
       <path d="M 37.796875 64.3125 
L 12.890625 25.390625 
L 37.796875 25.390625 
z
M 35.203125 72.90625 
L 47.609375 72.90625 
L 47.609375 25.390625 
L 58.015625 25.390625 
L 58.015625 17.1875 
L 47.609375 17.1875 
L 47.609375 0 
L 37.796875 0 
L 37.796875 17.1875 
L 4.890625 17.1875 
L 4.890625 26.703125 
z
" id="DejaVuSans-52"/>
      </defs>
      <use xlink:href="#DejaVuSans-74"/>
      <use x="29.492188" xlink:href="#DejaVuSans-83"/>
      <use x="92.96875" xlink:href="#DejaVuSans-68"/>
      <use x="169.970703" xlink:href="#DejaVuSans-44"/>
      <use x="201.757812" xlink:href="#DejaVuSans-32"/>
      <use x="233.544922" xlink:href="#DejaVuSans-83"/>
      <use x="297.021484" xlink:href="#DejaVuSans-68"/>
      <use x="374.023438" xlink:href="#DejaVuSans-61"/>
      <use x="457.8125" xlink:href="#DejaVuSans-52"/>
     </g>
    </g>
    <g id="patch_49">
     <path d="M 539.792187 83.116563 
L 559.792187 83.116563 
L 559.792187 76.116563 
L 539.792187 76.116563 
z
" style="fill:#fbbc04;"/>
    </g>
    <g id="text_25">
     <!-- JSDu, SD=4 -->
     <g transform="translate(567.792187 83.116563)scale(0.1 -0.1)">
      <use xlink:href="#DejaVuSans-74"/>
      <use x="29.492188" xlink:href="#DejaVuSans-83"/>
      <use x="92.96875" xlink:href="#DejaVuSans-68"/>
      <use x="169.970703" xlink:href="#DejaVuSans-117"/>
      <use x="233.349609" xlink:href="#DejaVuSans-44"/>
      <use x="265.136719" xlink:href="#DejaVuSans-32"/>
      <use x="296.923828" xlink:href="#DejaVuSans-83"/>
      <use x="360.400391" xlink:href="#DejaVuSans-68"/>
      <use x="437.402344" xlink:href="#DejaVuSans-61"/>
      <use x="521.191406" xlink:href="#DejaVuSans-52"/>
     </g>
    </g>
    <g id="patch_50">
     <path d="M 539.792187 97.794688 
L 559.792187 97.794688 
L 559.792187 90.794688 
L 539.792187 90.794688 
z
" style="fill:#34a853;"/>
    </g>
    <g id="text_26">
     <!-- JSD, SD=100 -->
     <g transform="translate(567.792187 97.794688)scale(0.1 -0.1)">
      <use xlink:href="#DejaVuSans-74"/>
      <use x="29.492188" xlink:href="#DejaVuSans-83"/>
      <use x="92.96875" xlink:href="#DejaVuSans-68"/>
      <use x="169.970703" xlink:href="#DejaVuSans-44"/>
      <use x="201.757812" xlink:href="#DejaVuSans-32"/>
      <use x="233.544922" xlink:href="#DejaVuSans-83"/>
      <use x="297.021484" xlink:href="#DejaVuSans-68"/>
      <use x="374.023438" xlink:href="#DejaVuSans-61"/>
      <use x="457.8125" xlink:href="#DejaVuSans-49"/>
      <use x="521.435547" xlink:href="#DejaVuSans-48"/>
      <use x="585.058594" xlink:href="#DejaVuSans-48"/>
     </g>
    </g>
    <g id="patch_51">
     <path d="M 539.792187 112.472813 
L 559.792187 112.472813 
L 559.792187 105.472813 
L 539.792187 105.472813 
z
" style="fill:#4285f4;"/>
    </g>
    <g id="text_27">
     <!-- JSDu, SD=100 -->
     <g transform="translate(567.792187 112.472813)scale(0.1 -0.1)">
      <use xlink:href="#DejaVuSans-74"/>
      <use x="29.492188" xlink:href="#DejaVuSans-83"/>
      <use x="92.96875" xlink:href="#DejaVuSans-68"/>
      <use x="169.970703" xlink:href="#DejaVuSans-117"/>
      <use x="233.349609" xlink:href="#DejaVuSans-44"/>
      <use x="265.136719" xlink:href="#DejaVuSans-32"/>
      <use x="296.923828" xlink:href="#DejaVuSans-83"/>
      <use x="360.400391" xlink:href="#DejaVuSans-68"/>
      <use x="437.402344" xlink:href="#DejaVuSans-61"/>
      <use x="521.191406" xlink:href="#DejaVuSans-49"/>
      <use x="584.814453" xlink:href="#DejaVuSans-48"/>
      <use x="648.4375" xlink:href="#DejaVuSans-48"/>
     </g>
    </g>
   </g>
  </g>
 </g>
 <defs>
  <clipPath id="pfaf19439b7">
   <rect height="326.16" width="558" x="90" y="51.84"/>
  </clipPath>
 </defs>
</svg>
