<?xml version="1.0" encoding="utf-8" standalone="no"?>
<!DOCTYPE svg PUBLIC "-//W3C//DTD SVG 1.1//EN"
  "http://www.w3.org/Graphics/SVG/1.1/DTD/svg11.dtd">
<!-- Created with matplotlib (https://matplotlib.org/) -->
<svg height="432pt" version="1.1" viewBox="0 0 720 432" width="720pt" xmlns="http://www.w3.org/2000/svg" xmlns:xlink="http://www.w3.org/1999/xlink">
 <metadata>
  <rdf:RDF xmlns:cc="http://creativecommons.org/ns#" xmlns:dc="http://purl.org/dc/elements/1.1/" xmlns:rdf="http://www.w3.org/1999/02/22-rdf-syntax-ns#">
   <cc:Work>
    <dc:type rdf:resource="http://purl.org/dc/dcmitype/StillImage"/>
    <dc:date>2021-03-03T10:07:30.881862</dc:date>
    <dc:format>image/svg+xml</dc:format>
    <dc:creator>
     <cc:Agent>
      <dc:title>Matplotlib v3.3.2, https://matplotlib.org/</dc:title>
     </cc:Agent>
    </dc:creator>
   </cc:Work>
  </rdf:RDF>
 </metadata>
 <defs>
  <style type="text/css">*{stroke-linecap:butt;stroke-linejoin:round;}</style>
 </defs>
 <g id="figure_1">
  <g id="patch_1">
   <path d="M 0 432 
L 720 432 
L 720 0 
L 0 0 
z
" style="fill:none;"/>
  </g>
  <g id="axes_1">
   <g id="patch_2">
    <path d="M 90 378 
L 648 378 
L 648 51.84 
L 90 51.84 
z
" style="fill:#ffffff;"/>
   </g>
   <g id="patch_3">
    <path clip-path="url(#p9e51abb1c3)" d="M 115.363636 170.443636 
L 125.931818 170.443636 
L 125.931818 56.504386 
L 115.363636 56.504386 
z
" style="fill:#ea4335;"/>
   </g>
   <g id="patch_4">
    <path clip-path="url(#p9e51abb1c3)" d="M 221.045455 170.443636 
L 231.613636 170.443636 
L 231.613636 58.679914 
L 221.045455 58.679914 
z
" style="fill:#ea4335;"/>
   </g>
   <g id="patch_5">
    <path clip-path="url(#p9e51abb1c3)" d="M 326.727273 170.443636 
L 337.295455 170.443636 
L 337.295455 53.651991 
L 326.727273 53.651991 
z
" style="fill:#ea4335;"/>
   </g>
   <g id="patch_6">
    <path clip-path="url(#p9e51abb1c3)" d="M 432.409091 170.443636 
L 442.977273 170.443636 
L 442.977273 61.603721 
L 432.409091 61.603721 
z
" style="fill:#ea4335;"/>
   </g>
   <g id="patch_7">
    <path clip-path="url(#p9e51abb1c3)" d="M 538.090909 170.443636 
L 548.659091 170.443636 
L 548.659091 53.476504 
L 538.090909 53.476504 
z
" style="fill:#ea4335;"/>
   </g>
   <g id="patch_8">
    <path clip-path="url(#p9e51abb1c3)" d="M 125.931818 170.443636 
L 136.5 170.443636 
L 136.5 52.3488 
L 125.931818 52.3488 
z
" style="fill:#fbbc04;"/>
   </g>
   <g id="patch_9">
    <path clip-path="url(#p9e51abb1c3)" d="M 231.613636 170.443636 
L 242.181818 170.443636 
L 242.181818 64.895266 
L 231.613636 64.895266 
z
" style="fill:#fbbc04;"/>
   </g>
   <g id="patch_10">
    <path clip-path="url(#p9e51abb1c3)" d="M 337.295455 170.443636 
L 347.863636 170.443636 
L 347.863636 53.762669 
L 337.295455 53.762669 
z
" style="fill:#fbbc04;"/>
   </g>
   <g id="patch_11">
    <path clip-path="url(#p9e51abb1c3)" d="M 442.977273 170.443636 
L 453.545455 170.443636 
L 453.545455 67.39965 
L 442.977273 67.39965 
z
" style="fill:#fbbc04;"/>
   </g>
   <g id="patch_12">
    <path clip-path="url(#p9e51abb1c3)" d="M 548.659091 170.443636 
L 559.227273 170.443636 
L 559.227273 53.242481 
L 548.659091 53.242481 
z
" style="fill:#fbbc04;"/>
   </g>
   <g id="patch_13">
    <path clip-path="url(#p9e51abb1c3)" d="M 136.5 170.443636 
L 147.068182 170.443636 
L 147.068182 164.016979 
L 136.5 164.016979 
z
" style="fill:#4285f4;"/>
   </g>
   <g id="patch_14">
    <path clip-path="url(#p9e51abb1c3)" d="M 242.181818 170.443636 
L 252.75 170.443636 
L 252.75 171.112905 
L 242.181818 171.112905 
z
" style="fill:#4285f4;"/>
   </g>
   <g id="patch_15">
    <path clip-path="url(#p9e51abb1c3)" d="M 347.863636 170.443636 
L 358.431818 170.443636 
L 358.431818 165.51985 
L 347.863636 165.51985 
z
" style="fill:#4285f4;"/>
   </g>
   <g id="patch_16">
    <path clip-path="url(#p9e51abb1c3)" d="M 453.545455 170.443636 
L 464.113636 170.443636 
L 464.113636 171.341304 
L 453.545455 171.341304 
z
" style="fill:#4285f4;"/>
   </g>
   <g id="patch_17">
    <path clip-path="url(#p9e51abb1c3)" d="M 559.227273 170.443636 
L 569.795455 170.443636 
L 569.795455 163.979843 
L 559.227273 163.979843 
z
" style="fill:#4285f4;"/>
   </g>
   <g id="patch_18">
    <path clip-path="url(#p9e51abb1c3)" d="M 147.068182 170.443636 
L 157.636364 170.443636 
L 157.636364 109.427619 
L 147.068182 109.427619 
z
"/>
   </g>
   <g id="patch_19">
    <path clip-path="url(#p9e51abb1c3)" d="M 252.75 170.443636 
L 263.318182 170.443636 
L 263.318182 123.637085 
L 252.75 123.637085 
z
"/>
   </g>
   <g id="patch_20">
    <path clip-path="url(#p9e51abb1c3)" d="M 358.431818 170.443636 
L 369 170.443636 
L 369 111.974428 
L 358.431818 111.974428 
z
"/>
   </g>
   <g id="patch_21">
    <path clip-path="url(#p9e51abb1c3)" d="M 464.113636 170.443636 
L 474.681818 170.443636 
L 474.681818 126.852973 
L 464.113636 126.852973 
z
"/>
   </g>
   <g id="patch_22">
    <path clip-path="url(#p9e51abb1c3)" d="M 569.795455 170.443636 
L 580.363636 170.443636 
L 580.363636 109.340247 
L 569.795455 109.340247 
z
"/>
   </g>
   <g id="patch_23">
    <path clip-path="url(#p9e51abb1c3)" d="M 157.636364 170.443636 
L 168.204545 170.443636 
L 168.204545 92.756087 
L 157.636364 92.756087 
z
" style="fill:#34a853;"/>
   </g>
   <g id="patch_24">
    <path clip-path="url(#p9e51abb1c3)" d="M 263.318182 170.443636 
L 273.886364 170.443636 
L 273.886364 117.580194 
L 263.318182 117.580194 
z
" style="fill:#34a853;"/>
   </g>
   <g id="patch_25">
    <path clip-path="url(#p9e51abb1c3)" d="M 369 170.443636 
L 379.568182 170.443636 
L 379.568182 85.485263 
L 369 85.485263 
z
" style="fill:#34a853;"/>
   </g>
   <g id="patch_26">
    <path clip-path="url(#p9e51abb1c3)" d="M 474.681818 170.443636 
L 485.25 170.443636 
L 485.25 117.127535 
L 474.681818 117.127535 
z
" style="fill:#34a853;"/>
   </g>
   <g id="patch_27">
    <path clip-path="url(#p9e51abb1c3)" d="M 580.363636 170.443636 
L 590.931818 170.443636 
L 590.931818 88.276828 
L 580.363636 88.276828 
z
" style="fill:#34a853;"/>
   </g>
   <g id="patch_28">
    <path clip-path="url(#p9e51abb1c3)" d="M 168.204545 170.443636 
L 178.772727 170.443636 
L 178.772727 69.49074 
L 168.204545 69.49074 
z
" style="fill:#46bdc6;"/>
   </g>
   <g id="patch_29">
    <path clip-path="url(#p9e51abb1c3)" d="M 273.886364 170.443636 
L 284.454545 170.443636 
L 284.454545 191.353534 
L 273.886364 191.353534 
z
" style="fill:#46bdc6;"/>
   </g>
   <g id="patch_30">
    <path clip-path="url(#p9e51abb1c3)" d="M 379.568182 170.443636 
L 390.136364 170.443636 
L 390.136364 71.244003 
L 379.568182 71.244003 
z
" style="fill:#46bdc6;"/>
   </g>
   <g id="patch_31">
    <path clip-path="url(#p9e51abb1c3)" d="M 485.25 170.443636 
L 495.818182 170.443636 
L 495.818182 409.466691 
L 485.25 409.466691 
z
" style="fill:#46bdc6;"/>
   </g>
   <g id="patch_32">
    <path clip-path="url(#p9e51abb1c3)" d="M 590.931818 170.443636 
L 601.5 170.443636 
L 601.5 73.567479 
L 590.931818 73.567479 
z
" style="fill:#46bdc6;"/>
   </g>
   <g id="patch_33">
    <path clip-path="url(#p9e51abb1c3)" d="M 178.772727 170.443636 
L 189.340909 170.443636 
L 189.340909 138.290036 
L 178.772727 138.290036 
z
" style="fill:#f4cccc;"/>
   </g>
   <g id="patch_34">
    <path clip-path="url(#p9e51abb1c3)" d="M 284.454545 170.443636 
L 295.022727 170.443636 
L 295.022727 184.147792 
L 284.454545 184.147792 
z
" style="fill:#f4cccc;"/>
   </g>
   <g id="patch_35">
    <path clip-path="url(#p9e51abb1c3)" d="M 390.136364 170.443636 
L 400.704545 170.443636 
L 400.704545 138.388319 
L 390.136364 138.388319 
z
" style="fill:#f4cccc;"/>
   </g>
   <g id="patch_36">
    <path clip-path="url(#p9e51abb1c3)" d="M 495.818182 170.443636 
L 506.386364 170.443636 
L 506.386364 190.784861 
L 495.818182 190.784861 
z
" style="fill:#f4cccc;"/>
   </g>
   <g id="patch_37">
    <path clip-path="url(#p9e51abb1c3)" d="M 601.5 170.443636 
L 612.068182 170.443636 
L 612.068182 138.134562 
L 601.5 138.134562 
z
" style="fill:#f4cccc;"/>
   </g>
   <g id="patch_38">
    <path clip-path="url(#p9e51abb1c3)" d="M 189.340909 170.443636 
L 199.909091 170.443636 
L 199.909091 72.342159 
L 189.340909 72.342159 
z
" style="fill:#c9daf8;"/>
   </g>
   <g id="patch_39">
    <path clip-path="url(#p9e51abb1c3)" d="M 295.022727 170.443636 
L 305.590909 170.443636 
L 305.590909 204.348276 
L 295.022727 204.348276 
z
" style="fill:#c9daf8;"/>
   </g>
   <g id="patch_40">
    <path clip-path="url(#p9e51abb1c3)" d="M 400.704545 170.443636 
L 411.272727 170.443636 
L 411.272727 78.002813 
L 400.704545 78.002813 
z
" style="fill:#c9daf8;"/>
   </g>
   <g id="patch_41">
    <path clip-path="url(#p9e51abb1c3)" d="M 506.386364 170.443636 
L 516.954545 170.443636 
L 516.954545 472.213444 
L 506.386364 472.213444 
z
" style="fill:#c9daf8;"/>
   </g>
   <g id="patch_42">
    <path clip-path="url(#p9e51abb1c3)" d="M 612.068182 170.443636 
L 622.636364 170.443636 
L 622.636364 77.504799 
L 612.068182 77.504799 
z
" style="fill:#c9daf8;"/>
   </g>
   <g id="matplotlib.axis_1">
    <g id="xtick_1">
     <g id="line2d_1">
      <defs>
       <path d="M 0 0 
L 0 3.5 
" id="m0e05ef80d1" style="stroke:#000000;stroke-width:0.8;"/>
      </defs>
      <g>
       <use style="stroke:#000000;stroke-width:0.8;" x="141.784091" xlink:href="#m0e05ef80d1" y="378"/>
      </g>
     </g>
    </g>
    <g id="xtick_2">
     <g id="line2d_2">
      <g>
       <use style="stroke:#000000;stroke-width:0.8;" x="247.465909" xlink:href="#m0e05ef80d1" y="378"/>
      </g>
     </g>
     <g id="text_1">
      <!-- L2: 0.01 -->
      <g transform="translate(227.092472 392.598437)scale(0.1 -0.1)">
       <defs>
        <path d="M 9.8125 72.90625 
L 19.671875 72.90625 
L 19.671875 8.296875 
L 55.171875 8.296875 
L 55.171875 0 
L 9.8125 0 
z
" id="DejaVuSans-76"/>
        <path d="M 19.1875 8.296875 
L 53.609375 8.296875 
L 53.609375 0 
L 7.328125 0 
L 7.328125 8.296875 
Q 12.9375 14.109375 22.625 23.890625 
Q 32.328125 33.6875 34.8125 36.53125 
Q 39.546875 41.84375 41.421875 45.53125 
Q 43.3125 49.21875 43.3125 52.78125 
Q 43.3125 58.59375 39.234375 62.25 
Q 35.15625 65.921875 28.609375 65.921875 
Q 23.96875 65.921875 18.8125 64.3125 
Q 13.671875 62.703125 7.8125 59.421875 
L 7.8125 69.390625 
Q 13.765625 71.78125 18.9375 73 
Q 24.125 74.21875 28.421875 74.21875 
Q 39.75 74.21875 46.484375 68.546875 
Q 53.21875 62.890625 53.21875 53.421875 
Q 53.21875 48.921875 51.53125 44.890625 
Q 49.859375 40.875 45.40625 35.40625 
Q 44.1875 33.984375 37.640625 27.21875 
Q 31.109375 20.453125 19.1875 8.296875 
z
" id="DejaVuSans-50"/>
        <path d="M 11.71875 12.40625 
L 22.015625 12.40625 
L 22.015625 0 
L 11.71875 0 
z
M 11.71875 51.703125 
L 22.015625 51.703125 
L 22.015625 39.3125 
L 11.71875 39.3125 
z
" id="DejaVuSans-58"/>
        <path id="DejaVuSans-32"/>
        <path d="M 31.78125 66.40625 
Q 24.171875 66.40625 20.328125 58.90625 
Q 16.5 51.421875 16.5 36.375 
Q 16.5 21.390625 20.328125 13.890625 
Q 24.171875 6.390625 31.78125 6.390625 
Q 39.453125 6.390625 43.28125 13.890625 
Q 47.125 21.390625 47.125 36.375 
Q 47.125 51.421875 43.28125 58.90625 
Q 39.453125 66.40625 31.78125 66.40625 
z
M 31.78125 74.21875 
Q 44.046875 74.21875 50.515625 64.515625 
Q 56.984375 54.828125 56.984375 36.375 
Q 56.984375 17.96875 50.515625 8.265625 
Q 44.046875 -1.421875 31.78125 -1.421875 
Q 19.53125 -1.421875 13.0625 8.265625 
Q 6.59375 17.96875 6.59375 36.375 
Q 6.59375 54.828125 13.0625 64.515625 
Q 19.53125 74.21875 31.78125 74.21875 
z
" id="DejaVuSans-48"/>
        <path d="M 10.6875 12.40625 
L 21 12.40625 
L 21 0 
L 10.6875 0 
z
" id="DejaVuSans-46"/>
        <path d="M 12.40625 8.296875 
L 28.515625 8.296875 
L 28.515625 63.921875 
L 10.984375 60.40625 
L 10.984375 69.390625 
L 28.421875 72.90625 
L 38.28125 72.90625 
L 38.28125 8.296875 
L 54.390625 8.296875 
L 54.390625 0 
L 12.40625 0 
z
" id="DejaVuSans-49"/>
       </defs>
       <use xlink:href="#DejaVuSans-76"/>
       <use x="55.712891" xlink:href="#DejaVuSans-50"/>
       <use x="119.335938" xlink:href="#DejaVuSans-58"/>
       <use x="153.027344" xlink:href="#DejaVuSans-32"/>
       <use x="184.814453" xlink:href="#DejaVuSans-48"/>
       <use x="248.4375" xlink:href="#DejaVuSans-46"/>
       <use x="280.224609" xlink:href="#DejaVuSans-48"/>
       <use x="343.847656" xlink:href="#DejaVuSans-49"/>
      </g>
     </g>
    </g>
    <g id="xtick_3">
     <g id="line2d_3">
      <g>
       <use style="stroke:#000000;stroke-width:0.8;" x="353.147727" xlink:href="#m0e05ef80d1" y="378"/>
      </g>
     </g>
     <g id="text_2">
      <!-- L2: 10^-4 -->
      <g transform="translate(328.369602 392.598437)scale(0.1 -0.1)">
       <defs>
        <path d="M 46.6875 72.90625 
L 73.1875 45.703125 
L 63.375 45.703125 
L 41.890625 64.984375 
L 20.40625 45.703125 
L 10.59375 45.703125 
L 37.109375 72.90625 
z
" id="DejaVuSans-94"/>
        <path d="M 4.890625 31.390625 
L 31.203125 31.390625 
L 31.203125 23.390625 
L 4.890625 23.390625 
z
" id="DejaVuSans-45"/>
        <path d="M 37.796875 64.3125 
L 12.890625 25.390625 
L 37.796875 25.390625 
z
M 35.203125 72.90625 
L 47.609375 72.90625 
L 47.609375 25.390625 
L 58.015625 25.390625 
L 58.015625 17.1875 
L 47.609375 17.1875 
L 47.609375 0 
L 37.796875 0 
L 37.796875 17.1875 
L 4.890625 17.1875 
L 4.890625 26.703125 
z
" id="DejaVuSans-52"/>
       </defs>
       <use xlink:href="#DejaVuSans-76"/>
       <use x="55.712891" xlink:href="#DejaVuSans-50"/>
       <use x="119.335938" xlink:href="#DejaVuSans-58"/>
       <use x="153.027344" xlink:href="#DejaVuSans-32"/>
       <use x="184.814453" xlink:href="#DejaVuSans-49"/>
       <use x="248.4375" xlink:href="#DejaVuSans-48"/>
       <use x="312.060547" xlink:href="#DejaVuSans-94"/>
       <use x="395.849609" xlink:href="#DejaVuSans-45"/>
       <use x="431.933594" xlink:href="#DejaVuSans-52"/>
      </g>
     </g>
    </g>
    <g id="xtick_4">
     <g id="line2d_4">
      <g>
       <use style="stroke:#000000;stroke-width:0.8;" x="458.829545" xlink:href="#m0e05ef80d1" y="378"/>
      </g>
     </g>
     <g id="text_3">
      <!-- L1: 0.01 -->
      <g transform="translate(438.456108 392.598437)scale(0.1 -0.1)">
       <use xlink:href="#DejaVuSans-76"/>
       <use x="55.712891" xlink:href="#DejaVuSans-49"/>
       <use x="119.335938" xlink:href="#DejaVuSans-58"/>
       <use x="153.027344" xlink:href="#DejaVuSans-32"/>
       <use x="184.814453" xlink:href="#DejaVuSans-48"/>
       <use x="248.4375" xlink:href="#DejaVuSans-46"/>
       <use x="280.224609" xlink:href="#DejaVuSans-48"/>
       <use x="343.847656" xlink:href="#DejaVuSans-49"/>
      </g>
     </g>
    </g>
    <g id="xtick_5">
     <g id="line2d_5">
      <g>
       <use style="stroke:#000000;stroke-width:0.8;" x="564.511364" xlink:href="#m0e05ef80d1" y="378"/>
      </g>
     </g>
     <g id="text_4">
      <!-- L1: 10^-4 -->
      <g transform="translate(539.733239 392.598437)scale(0.1 -0.1)">
       <use xlink:href="#DejaVuSans-76"/>
       <use x="55.712891" xlink:href="#DejaVuSans-49"/>
       <use x="119.335938" xlink:href="#DejaVuSans-58"/>
       <use x="153.027344" xlink:href="#DejaVuSans-32"/>
       <use x="184.814453" xlink:href="#DejaVuSans-49"/>
       <use x="248.4375" xlink:href="#DejaVuSans-48"/>
       <use x="312.060547" xlink:href="#DejaVuSans-94"/>
       <use x="395.849609" xlink:href="#DejaVuSans-45"/>
       <use x="431.933594" xlink:href="#DejaVuSans-52"/>
      </g>
     </g>
    </g>
   </g>
   <g id="matplotlib.axis_2">
    <g id="ytick_1">
     <g id="line2d_6">
      <path clip-path="url(#p9e51abb1c3)" d="M 90 378 
L 648 378 
" style="fill:none;stroke:#b0b0b0;stroke-linecap:square;stroke-width:0.8;"/>
     </g>
     <g id="line2d_7">
      <defs>
       <path d="M 0 0 
L -3.5 0 
" id="m713cc46757" style="stroke:#000000;stroke-width:0.8;"/>
      </defs>
      <g>
       <use style="stroke:#000000;stroke-width:0.8;" x="90" xlink:href="#m713cc46757" y="378"/>
      </g>
     </g>
     <g id="text_5">
      <!-- −175 -->
      <g transform="translate(55.532812 381.799219)scale(0.1 -0.1)">
       <defs>
        <path d="M 10.59375 35.5 
L 73.1875 35.5 
L 73.1875 27.203125 
L 10.59375 27.203125 
z
" id="DejaVuSans-8722"/>
        <path d="M 8.203125 72.90625 
L 55.078125 72.90625 
L 55.078125 68.703125 
L 28.609375 0 
L 18.3125 0 
L 43.21875 64.59375 
L 8.203125 64.59375 
z
" id="DejaVuSans-55"/>
        <path d="M 10.796875 72.90625 
L 49.515625 72.90625 
L 49.515625 64.59375 
L 19.828125 64.59375 
L 19.828125 46.734375 
Q 21.96875 47.46875 24.109375 47.828125 
Q 26.265625 48.1875 28.421875 48.1875 
Q 40.625 48.1875 47.75 41.5 
Q 54.890625 34.8125 54.890625 23.390625 
Q 54.890625 11.625 47.5625 5.09375 
Q 40.234375 -1.421875 26.90625 -1.421875 
Q 22.3125 -1.421875 17.546875 -0.640625 
Q 12.796875 0.140625 7.71875 1.703125 
L 7.71875 11.625 
Q 12.109375 9.234375 16.796875 8.0625 
Q 21.484375 6.890625 26.703125 6.890625 
Q 35.15625 6.890625 40.078125 11.328125 
Q 45.015625 15.765625 45.015625 23.390625 
Q 45.015625 31 40.078125 35.4375 
Q 35.15625 39.890625 26.703125 39.890625 
Q 22.75 39.890625 18.8125 39.015625 
Q 14.890625 38.140625 10.796875 36.28125 
z
" id="DejaVuSans-53"/>
       </defs>
       <use xlink:href="#DejaVuSans-8722"/>
       <use x="83.789062" xlink:href="#DejaVuSans-49"/>
       <use x="147.412109" xlink:href="#DejaVuSans-55"/>
       <use x="211.035156" xlink:href="#DejaVuSans-53"/>
      </g>
     </g>
    </g>
    <g id="ytick_2">
     <g id="line2d_8">
      <path clip-path="url(#p9e51abb1c3)" d="M 90 348.349091 
L 648 348.349091 
" style="fill:none;stroke:#b0b0b0;stroke-linecap:square;stroke-width:0.8;"/>
     </g>
     <g id="line2d_9">
      <g>
       <use style="stroke:#000000;stroke-width:0.8;" x="90" xlink:href="#m713cc46757" y="348.349091"/>
      </g>
     </g>
     <g id="text_6">
      <!-- −150 -->
      <g transform="translate(55.532812 352.14831)scale(0.1 -0.1)">
       <use xlink:href="#DejaVuSans-8722"/>
       <use x="83.789062" xlink:href="#DejaVuSans-49"/>
       <use x="147.412109" xlink:href="#DejaVuSans-53"/>
       <use x="211.035156" xlink:href="#DejaVuSans-48"/>
      </g>
     </g>
    </g>
    <g id="ytick_3">
     <g id="line2d_10">
      <path clip-path="url(#p9e51abb1c3)" d="M 90 318.698182 
L 648 318.698182 
" style="fill:none;stroke:#b0b0b0;stroke-linecap:square;stroke-width:0.8;"/>
     </g>
     <g id="line2d_11">
      <g>
       <use style="stroke:#000000;stroke-width:0.8;" x="90" xlink:href="#m713cc46757" y="318.698182"/>
      </g>
     </g>
     <g id="text_7">
      <!-- −125 -->
      <g transform="translate(55.532812 322.497401)scale(0.1 -0.1)">
       <use xlink:href="#DejaVuSans-8722"/>
       <use x="83.789062" xlink:href="#DejaVuSans-49"/>
       <use x="147.412109" xlink:href="#DejaVuSans-50"/>
       <use x="211.035156" xlink:href="#DejaVuSans-53"/>
      </g>
     </g>
    </g>
    <g id="ytick_4">
     <g id="line2d_12">
      <path clip-path="url(#p9e51abb1c3)" d="M 90 289.047273 
L 648 289.047273 
" style="fill:none;stroke:#b0b0b0;stroke-linecap:square;stroke-width:0.8;"/>
     </g>
     <g id="line2d_13">
      <g>
       <use style="stroke:#000000;stroke-width:0.8;" x="90" xlink:href="#m713cc46757" y="289.047273"/>
      </g>
     </g>
     <g id="text_8">
      <!-- −100 -->
      <g transform="translate(55.532812 292.846491)scale(0.1 -0.1)">
       <use xlink:href="#DejaVuSans-8722"/>
       <use x="83.789062" xlink:href="#DejaVuSans-49"/>
       <use x="147.412109" xlink:href="#DejaVuSans-48"/>
       <use x="211.035156" xlink:href="#DejaVuSans-48"/>
      </g>
     </g>
    </g>
    <g id="ytick_5">
     <g id="line2d_14">
      <path clip-path="url(#p9e51abb1c3)" d="M 90 259.396364 
L 648 259.396364 
" style="fill:none;stroke:#b0b0b0;stroke-linecap:square;stroke-width:0.8;"/>
     </g>
     <g id="line2d_15">
      <g>
       <use style="stroke:#000000;stroke-width:0.8;" x="90" xlink:href="#m713cc46757" y="259.396364"/>
      </g>
     </g>
     <g id="text_9">
      <!-- −75 -->
      <g transform="translate(61.895313 263.195582)scale(0.1 -0.1)">
       <use xlink:href="#DejaVuSans-8722"/>
       <use x="83.789062" xlink:href="#DejaVuSans-55"/>
       <use x="147.412109" xlink:href="#DejaVuSans-53"/>
      </g>
     </g>
    </g>
    <g id="ytick_6">
     <g id="line2d_16">
      <path clip-path="url(#p9e51abb1c3)" d="M 90 229.745455 
L 648 229.745455 
" style="fill:none;stroke:#b0b0b0;stroke-linecap:square;stroke-width:0.8;"/>
     </g>
     <g id="line2d_17">
      <g>
       <use style="stroke:#000000;stroke-width:0.8;" x="90" xlink:href="#m713cc46757" y="229.745455"/>
      </g>
     </g>
     <g id="text_10">
      <!-- −50 -->
      <g transform="translate(61.895313 233.544673)scale(0.1 -0.1)">
       <use xlink:href="#DejaVuSans-8722"/>
       <use x="83.789062" xlink:href="#DejaVuSans-53"/>
       <use x="147.412109" xlink:href="#DejaVuSans-48"/>
      </g>
     </g>
    </g>
    <g id="ytick_7">
     <g id="line2d_18">
      <path clip-path="url(#p9e51abb1c3)" d="M 90 200.094545 
L 648 200.094545 
" style="fill:none;stroke:#b0b0b0;stroke-linecap:square;stroke-width:0.8;"/>
     </g>
     <g id="line2d_19">
      <g>
       <use style="stroke:#000000;stroke-width:0.8;" x="90" xlink:href="#m713cc46757" y="200.094545"/>
      </g>
     </g>
     <g id="text_11">
      <!-- −25 -->
      <g transform="translate(61.895313 203.893764)scale(0.1 -0.1)">
       <use xlink:href="#DejaVuSans-8722"/>
       <use x="83.789062" xlink:href="#DejaVuSans-50"/>
       <use x="147.412109" xlink:href="#DejaVuSans-53"/>
      </g>
     </g>
    </g>
    <g id="ytick_8">
     <g id="line2d_20">
      <path clip-path="url(#p9e51abb1c3)" d="M 90 170.443636 
L 648 170.443636 
" style="fill:none;stroke:#b0b0b0;stroke-linecap:square;stroke-width:0.8;"/>
     </g>
     <g id="line2d_21">
      <g>
       <use style="stroke:#000000;stroke-width:0.8;" x="90" xlink:href="#m713cc46757" y="170.443636"/>
      </g>
     </g>
     <g id="text_12">
      <!-- 0 -->
      <g transform="translate(76.6375 174.242855)scale(0.1 -0.1)">
       <use xlink:href="#DejaVuSans-48"/>
      </g>
     </g>
    </g>
    <g id="ytick_9">
     <g id="line2d_22">
      <path clip-path="url(#p9e51abb1c3)" d="M 90 140.792727 
L 648 140.792727 
" style="fill:none;stroke:#b0b0b0;stroke-linecap:square;stroke-width:0.8;"/>
     </g>
     <g id="line2d_23">
      <g>
       <use style="stroke:#000000;stroke-width:0.8;" x="90" xlink:href="#m713cc46757" y="140.792727"/>
      </g>
     </g>
     <g id="text_13">
      <!-- 25 -->
      <g transform="translate(70.275 144.591946)scale(0.1 -0.1)">
       <use xlink:href="#DejaVuSans-50"/>
       <use x="63.623047" xlink:href="#DejaVuSans-53"/>
      </g>
     </g>
    </g>
    <g id="ytick_10">
     <g id="line2d_24">
      <path clip-path="url(#p9e51abb1c3)" d="M 90 111.141818 
L 648 111.141818 
" style="fill:none;stroke:#b0b0b0;stroke-linecap:square;stroke-width:0.8;"/>
     </g>
     <g id="line2d_25">
      <g>
       <use style="stroke:#000000;stroke-width:0.8;" x="90" xlink:href="#m713cc46757" y="111.141818"/>
      </g>
     </g>
     <g id="text_14">
      <!-- 50 -->
      <g transform="translate(70.275 114.941037)scale(0.1 -0.1)">
       <use xlink:href="#DejaVuSans-53"/>
       <use x="63.623047" xlink:href="#DejaVuSans-48"/>
      </g>
     </g>
    </g>
    <g id="ytick_11">
     <g id="line2d_26">
      <path clip-path="url(#p9e51abb1c3)" d="M 90 81.490909 
L 648 81.490909 
" style="fill:none;stroke:#b0b0b0;stroke-linecap:square;stroke-width:0.8;"/>
     </g>
     <g id="line2d_27">
      <g>
       <use style="stroke:#000000;stroke-width:0.8;" x="90" xlink:href="#m713cc46757" y="81.490909"/>
      </g>
     </g>
     <g id="text_15">
      <!-- 75 -->
      <g transform="translate(70.275 85.290128)scale(0.1 -0.1)">
       <use xlink:href="#DejaVuSans-55"/>
       <use x="63.623047" xlink:href="#DejaVuSans-53"/>
      </g>
     </g>
    </g>
    <g id="ytick_12">
     <g id="line2d_28">
      <path clip-path="url(#p9e51abb1c3)" d="M 90 51.84 
L 648 51.84 
" style="fill:none;stroke:#b0b0b0;stroke-linecap:square;stroke-width:0.8;"/>
     </g>
     <g id="line2d_29">
      <g>
       <use style="stroke:#000000;stroke-width:0.8;" x="90" xlink:href="#m713cc46757" y="51.84"/>
      </g>
     </g>
     <g id="text_16">
      <!-- 100 -->
      <g transform="translate(63.9125 55.639219)scale(0.1 -0.1)">
       <use xlink:href="#DejaVuSans-49"/>
       <use x="63.623047" xlink:href="#DejaVuSans-48"/>
       <use x="127.246094" xlink:href="#DejaVuSans-48"/>
      </g>
     </g>
    </g>
   </g>
   <g id="LineCollection_1">
    <path clip-path="url(#p9e51abb1c3)" d="M 120.647727 62.232862 
L 120.647727 50.77591 
" style="fill:none;stroke:#000000;stroke-width:1.5;"/>
    <path clip-path="url(#p9e51abb1c3)" d="M 226.329545 61.092552 
L 226.329545 56.267277 
" style="fill:none;stroke:#000000;stroke-width:1.5;"/>
    <path clip-path="url(#p9e51abb1c3)" d="M 332.011364 53.959989 
L 332.011364 53.343994 
" style="fill:none;stroke:#000000;stroke-width:1.5;"/>
    <path clip-path="url(#p9e51abb1c3)" d="M 437.693182 62.577679 
L 437.693182 60.629763 
" style="fill:none;stroke:#000000;stroke-width:1.5;"/>
    <path clip-path="url(#p9e51abb1c3)" d="M 543.375 54.12311 
L 543.375 52.829897 
" style="fill:none;stroke:#000000;stroke-width:1.5;"/>
   </g>
   <g id="LineCollection_2">
    <path clip-path="url(#p9e51abb1c3)" d="M 131.215909 52.437949 
L 131.215909 52.259652 
" style="fill:none;stroke:#000000;stroke-width:1.5;"/>
    <path clip-path="url(#p9e51abb1c3)" d="M 236.897727 77.007919 
L 236.897727 52.782613 
" style="fill:none;stroke:#000000;stroke-width:1.5;"/>
    <path clip-path="url(#p9e51abb1c3)" d="M 342.579545 54.797931 
L 342.579545 52.727406 
" style="fill:none;stroke:#000000;stroke-width:1.5;"/>
    <path clip-path="url(#p9e51abb1c3)" d="M 448.261364 72.006217 
L 448.261364 62.793083 
" style="fill:none;stroke:#000000;stroke-width:1.5;"/>
    <path clip-path="url(#p9e51abb1c3)" d="M 553.943182 53.859338 
L 553.943182 52.625624 
" style="fill:none;stroke:#000000;stroke-width:1.5;"/>
   </g>
   <g id="LineCollection_3">
    <path clip-path="url(#p9e51abb1c3)" d="M 141.784091 166.946104 
L 141.784091 161.087854 
" style="fill:none;stroke:#000000;stroke-width:1.5;"/>
    <path clip-path="url(#p9e51abb1c3)" d="M 247.465909 175.733383 
L 247.465909 166.492426 
" style="fill:none;stroke:#000000;stroke-width:1.5;"/>
    <path clip-path="url(#p9e51abb1c3)" d="M 353.147727 167.658398 
L 353.147727 163.381303 
" style="fill:none;stroke:#000000;stroke-width:1.5;"/>
    <path clip-path="url(#p9e51abb1c3)" d="M 458.829545 179.98305 
L 458.829545 162.699559 
" style="fill:none;stroke:#000000;stroke-width:1.5;"/>
    <path clip-path="url(#p9e51abb1c3)" d="M 564.511364 167.485836 
L 564.511364 160.47385 
" style="fill:none;stroke:#000000;stroke-width:1.5;"/>
   </g>
   <g id="LineCollection_4">
    <path clip-path="url(#p9e51abb1c3)" d="M 152.352273 111.716579 
L 152.352273 107.138659 
" style="fill:none;stroke:#000000;stroke-width:1.5;"/>
    <path clip-path="url(#p9e51abb1c3)" d="M 258.034091 128.167543 
L 258.034091 119.106628 
" style="fill:none;stroke:#000000;stroke-width:1.5;"/>
    <path clip-path="url(#p9e51abb1c3)" d="M 363.715909 114.573297 
L 363.715909 109.37556 
" style="fill:none;stroke:#000000;stroke-width:1.5;"/>
    <path clip-path="url(#p9e51abb1c3)" d="M 469.397727 135.011799 
L 469.397727 118.694146 
" style="fill:none;stroke:#000000;stroke-width:1.5;"/>
    <path clip-path="url(#p9e51abb1c3)" d="M 575.079545 111.833683 
L 575.079545 106.846811 
" style="fill:none;stroke:#000000;stroke-width:1.5;"/>
   </g>
   <g id="LineCollection_5">
    <path clip-path="url(#p9e51abb1c3)" d="M 162.920455 97.738046 
L 162.920455 87.774127 
" style="fill:none;stroke:#000000;stroke-width:1.5;"/>
    <path clip-path="url(#p9e51abb1c3)" d="M 268.602273 119.429155 
L 268.602273 115.731233 
" style="fill:none;stroke:#000000;stroke-width:1.5;"/>
    <path clip-path="url(#p9e51abb1c3)" d="M 374.284091 87.814182 
L 374.284091 83.156344 
" style="fill:none;stroke:#000000;stroke-width:1.5;"/>
    <path clip-path="url(#p9e51abb1c3)" d="M 479.965909 121.104647 
L 479.965909 113.150424 
" style="fill:none;stroke:#000000;stroke-width:1.5;"/>
    <path clip-path="url(#p9e51abb1c3)" d="M 585.647727 90.501245 
L 585.647727 86.052411 
" style="fill:none;stroke:#000000;stroke-width:1.5;"/>
   </g>
   <g id="LineCollection_6">
    <path clip-path="url(#p9e51abb1c3)" d="M 173.488636 71.800897 
L 173.488636 67.180583 
" style="fill:none;stroke:#000000;stroke-width:1.5;"/>
    <path clip-path="url(#p9e51abb1c3)" d="M 279.170455 199.429325 
L 279.170455 183.277742 
" style="fill:none;stroke:#000000;stroke-width:1.5;"/>
    <path clip-path="url(#p9e51abb1c3)" d="M 384.852273 74.261045 
L 384.852273 68.226962 
" style="fill:none;stroke:#000000;stroke-width:1.5;"/>
    <path clip-path="url(#p9e51abb1c3)" d="M 490.534091 424.312915 
L 490.534091 394.620468 
" style="fill:none;stroke:#000000;stroke-width:1.5;"/>
    <path clip-path="url(#p9e51abb1c3)" d="M 596.215909 80.540109 
L 596.215909 66.594848 
" style="fill:none;stroke:#000000;stroke-width:1.5;"/>
   </g>
   <g id="LineCollection_7">
    <path clip-path="url(#p9e51abb1c3)" d="M 184.056818 140.535228 
L 184.056818 136.044845 
" style="fill:none;stroke:#000000;stroke-width:1.5;"/>
    <path clip-path="url(#p9e51abb1c3)" d="M 289.738636 186.971359 
L 289.738636 181.324225 
" style="fill:none;stroke:#000000;stroke-width:1.5;"/>
    <path clip-path="url(#p9e51abb1c3)" d="M 395.420455 140.320647 
L 395.420455 136.455991 
" style="fill:none;stroke:#000000;stroke-width:1.5;"/>
    <path clip-path="url(#p9e51abb1c3)" d="M 501.102273 194.276557 
L 501.102273 187.293164 
" style="fill:none;stroke:#000000;stroke-width:1.5;"/>
    <path clip-path="url(#p9e51abb1c3)" d="M 606.784091 139.128478 
L 606.784091 137.140645 
" style="fill:none;stroke:#000000;stroke-width:1.5;"/>
   </g>
   <g id="LineCollection_8">
    <path clip-path="url(#p9e51abb1c3)" d="M 194.625 73.934944 
L 194.625 70.749374 
" style="fill:none;stroke:#000000;stroke-width:1.5;"/>
    <path clip-path="url(#p9e51abb1c3)" d="M 300.306818 210.839764 
L 300.306818 197.856789 
" style="fill:none;stroke:#000000;stroke-width:1.5;"/>
    <path clip-path="url(#p9e51abb1c3)" d="M 405.988636 80.583726 
L 405.988636 75.4219 
" style="fill:none;stroke:#000000;stroke-width:1.5;"/>
    <path clip-path="url(#p9e51abb1c3)" style="fill:none;stroke:#000000;stroke-width:1.5;"/>
    <path clip-path="url(#p9e51abb1c3)" d="M 617.352273 80.137338 
L 617.352273 74.87226 
" style="fill:none;stroke:#000000;stroke-width:1.5;"/>
   </g>
   <g id="line2d_30">
    <path clip-path="url(#p9e51abb1c3)" d="M 90 170.443636 
L 648 170.443636 
" style="fill:none;stroke:#000000;stroke-linecap:square;stroke-width:1.5;"/>
   </g>
   <g id="patch_43">
    <path d="M 90 378 
L 90 51.84 
" style="fill:none;stroke:#000000;stroke-linecap:square;stroke-linejoin:miter;stroke-width:0.8;"/>
   </g>
   <g id="patch_44">
    <path d="M 648 378 
L 648 51.84 
" style="fill:none;stroke:#000000;stroke-linecap:square;stroke-linejoin:miter;stroke-width:0.8;"/>
   </g>
   <g id="patch_45">
    <path d="M 90 378 
L 648 378 
" style="fill:none;stroke:#000000;stroke-linecap:square;stroke-linejoin:miter;stroke-width:0.8;"/>
   </g>
   <g id="patch_46">
    <path d="M 90 51.84 
L 648 51.84 
" style="fill:none;stroke:#000000;stroke-linecap:square;stroke-linejoin:miter;stroke-width:0.8;"/>
   </g>
   <g id="text_17">
    <!-- activity_regularizer -->
    <g transform="translate(311.46375 45.84)scale(0.12 -0.12)">
     <defs>
      <path d="M 34.28125 27.484375 
Q 23.390625 27.484375 19.1875 25 
Q 14.984375 22.515625 14.984375 16.5 
Q 14.984375 11.71875 18.140625 8.90625 
Q 21.296875 6.109375 26.703125 6.109375 
Q 34.1875 6.109375 38.703125 11.40625 
Q 43.21875 16.703125 43.21875 25.484375 
L 43.21875 27.484375 
z
M 52.203125 31.203125 
L 52.203125 0 
L 43.21875 0 
L 43.21875 8.296875 
Q 40.140625 3.328125 35.546875 0.953125 
Q 30.953125 -1.421875 24.3125 -1.421875 
Q 15.921875 -1.421875 10.953125 3.296875 
Q 6 8.015625 6 15.921875 
Q 6 25.140625 12.171875 29.828125 
Q 18.359375 34.515625 30.609375 34.515625 
L 43.21875 34.515625 
L 43.21875 35.40625 
Q 43.21875 41.609375 39.140625 45 
Q 35.0625 48.390625 27.6875 48.390625 
Q 23 48.390625 18.546875 47.265625 
Q 14.109375 46.140625 10.015625 43.890625 
L 10.015625 52.203125 
Q 14.9375 54.109375 19.578125 55.046875 
Q 24.21875 56 28.609375 56 
Q 40.484375 56 46.34375 49.84375 
Q 52.203125 43.703125 52.203125 31.203125 
z
" id="DejaVuSans-97"/>
      <path d="M 48.78125 52.59375 
L 48.78125 44.1875 
Q 44.96875 46.296875 41.140625 47.34375 
Q 37.3125 48.390625 33.40625 48.390625 
Q 24.65625 48.390625 19.8125 42.84375 
Q 14.984375 37.3125 14.984375 27.296875 
Q 14.984375 17.28125 19.8125 11.734375 
Q 24.65625 6.203125 33.40625 6.203125 
Q 37.3125 6.203125 41.140625 7.25 
Q 44.96875 8.296875 48.78125 10.40625 
L 48.78125 2.09375 
Q 45.015625 0.34375 40.984375 -0.53125 
Q 36.96875 -1.421875 32.421875 -1.421875 
Q 20.0625 -1.421875 12.78125 6.34375 
Q 5.515625 14.109375 5.515625 27.296875 
Q 5.515625 40.671875 12.859375 48.328125 
Q 20.21875 56 33.015625 56 
Q 37.15625 56 41.109375 55.140625 
Q 45.0625 54.296875 48.78125 52.59375 
z
" id="DejaVuSans-99"/>
      <path d="M 18.3125 70.21875 
L 18.3125 54.6875 
L 36.8125 54.6875 
L 36.8125 47.703125 
L 18.3125 47.703125 
L 18.3125 18.015625 
Q 18.3125 11.328125 20.140625 9.421875 
Q 21.96875 7.515625 27.59375 7.515625 
L 36.8125 7.515625 
L 36.8125 0 
L 27.59375 0 
Q 17.1875 0 13.234375 3.875 
Q 9.28125 7.765625 9.28125 18.015625 
L 9.28125 47.703125 
L 2.6875 47.703125 
L 2.6875 54.6875 
L 9.28125 54.6875 
L 9.28125 70.21875 
z
" id="DejaVuSans-116"/>
      <path d="M 9.421875 54.6875 
L 18.40625 54.6875 
L 18.40625 0 
L 9.421875 0 
z
M 9.421875 75.984375 
L 18.40625 75.984375 
L 18.40625 64.59375 
L 9.421875 64.59375 
z
" id="DejaVuSans-105"/>
      <path d="M 2.984375 54.6875 
L 12.5 54.6875 
L 29.59375 8.796875 
L 46.6875 54.6875 
L 56.203125 54.6875 
L 35.6875 0 
L 23.484375 0 
z
" id="DejaVuSans-118"/>
      <path d="M 32.171875 -5.078125 
Q 28.375 -14.84375 24.75 -17.8125 
Q 21.140625 -20.796875 15.09375 -20.796875 
L 7.90625 -20.796875 
L 7.90625 -13.28125 
L 13.1875 -13.28125 
Q 16.890625 -13.28125 18.9375 -11.515625 
Q 21 -9.765625 23.484375 -3.21875 
L 25.09375 0.875 
L 2.984375 54.6875 
L 12.5 54.6875 
L 29.59375 11.921875 
L 46.6875 54.6875 
L 56.203125 54.6875 
z
" id="DejaVuSans-121"/>
      <path d="M 50.984375 -16.609375 
L 50.984375 -23.578125 
L -0.984375 -23.578125 
L -0.984375 -16.609375 
z
" id="DejaVuSans-95"/>
      <path d="M 41.109375 46.296875 
Q 39.59375 47.171875 37.8125 47.578125 
Q 36.03125 48 33.890625 48 
Q 26.265625 48 22.1875 43.046875 
Q 18.109375 38.09375 18.109375 28.8125 
L 18.109375 0 
L 9.078125 0 
L 9.078125 54.6875 
L 18.109375 54.6875 
L 18.109375 46.1875 
Q 20.953125 51.171875 25.484375 53.578125 
Q 30.03125 56 36.53125 56 
Q 37.453125 56 38.578125 55.875 
Q 39.703125 55.765625 41.0625 55.515625 
z
" id="DejaVuSans-114"/>
      <path d="M 56.203125 29.59375 
L 56.203125 25.203125 
L 14.890625 25.203125 
Q 15.484375 15.921875 20.484375 11.0625 
Q 25.484375 6.203125 34.421875 6.203125 
Q 39.59375 6.203125 44.453125 7.46875 
Q 49.3125 8.734375 54.109375 11.28125 
L 54.109375 2.78125 
Q 49.265625 0.734375 44.1875 -0.34375 
Q 39.109375 -1.421875 33.890625 -1.421875 
Q 20.796875 -1.421875 13.15625 6.1875 
Q 5.515625 13.8125 5.515625 26.8125 
Q 5.515625 40.234375 12.765625 48.109375 
Q 20.015625 56 32.328125 56 
Q 43.359375 56 49.78125 48.890625 
Q 56.203125 41.796875 56.203125 29.59375 
z
M 47.21875 32.234375 
Q 47.125 39.59375 43.09375 43.984375 
Q 39.0625 48.390625 32.421875 48.390625 
Q 24.90625 48.390625 20.390625 44.140625 
Q 15.875 39.890625 15.1875 32.171875 
z
" id="DejaVuSans-101"/>
      <path d="M 45.40625 27.984375 
Q 45.40625 37.75 41.375 43.109375 
Q 37.359375 48.484375 30.078125 48.484375 
Q 22.859375 48.484375 18.828125 43.109375 
Q 14.796875 37.75 14.796875 27.984375 
Q 14.796875 18.265625 18.828125 12.890625 
Q 22.859375 7.515625 30.078125 7.515625 
Q 37.359375 7.515625 41.375 12.890625 
Q 45.40625 18.265625 45.40625 27.984375 
z
M 54.390625 6.78125 
Q 54.390625 -7.171875 48.1875 -13.984375 
Q 42 -20.796875 29.203125 -20.796875 
Q 24.46875 -20.796875 20.265625 -20.09375 
Q 16.0625 -19.390625 12.109375 -17.921875 
L 12.109375 -9.1875 
Q 16.0625 -11.328125 19.921875 -12.34375 
Q 23.78125 -13.375 27.78125 -13.375 
Q 36.625 -13.375 41.015625 -8.765625 
Q 45.40625 -4.15625 45.40625 5.171875 
L 45.40625 9.625 
Q 42.625 4.78125 38.28125 2.390625 
Q 33.9375 0 27.875 0 
Q 17.828125 0 11.671875 7.65625 
Q 5.515625 15.328125 5.515625 27.984375 
Q 5.515625 40.671875 11.671875 48.328125 
Q 17.828125 56 27.875 56 
Q 33.9375 56 38.28125 53.609375 
Q 42.625 51.21875 45.40625 46.390625 
L 45.40625 54.6875 
L 54.390625 54.6875 
z
" id="DejaVuSans-103"/>
      <path d="M 8.5 21.578125 
L 8.5 54.6875 
L 17.484375 54.6875 
L 17.484375 21.921875 
Q 17.484375 14.15625 20.5 10.265625 
Q 23.53125 6.390625 29.59375 6.390625 
Q 36.859375 6.390625 41.078125 11.03125 
Q 45.3125 15.671875 45.3125 23.6875 
L 45.3125 54.6875 
L 54.296875 54.6875 
L 54.296875 0 
L 45.3125 0 
L 45.3125 8.40625 
Q 42.046875 3.421875 37.71875 1 
Q 33.40625 -1.421875 27.6875 -1.421875 
Q 18.265625 -1.421875 13.375 4.4375 
Q 8.5 10.296875 8.5 21.578125 
z
M 31.109375 56 
z
" id="DejaVuSans-117"/>
      <path d="M 9.421875 75.984375 
L 18.40625 75.984375 
L 18.40625 0 
L 9.421875 0 
z
" id="DejaVuSans-108"/>
      <path d="M 5.515625 54.6875 
L 48.1875 54.6875 
L 48.1875 46.484375 
L 14.40625 7.171875 
L 48.1875 7.171875 
L 48.1875 0 
L 4.296875 0 
L 4.296875 8.203125 
L 38.09375 47.515625 
L 5.515625 47.515625 
z
" id="DejaVuSans-122"/>
     </defs>
     <use xlink:href="#DejaVuSans-97"/>
     <use x="61.279297" xlink:href="#DejaVuSans-99"/>
     <use x="116.259766" xlink:href="#DejaVuSans-116"/>
     <use x="155.46875" xlink:href="#DejaVuSans-105"/>
     <use x="183.251953" xlink:href="#DejaVuSans-118"/>
     <use x="242.431641" xlink:href="#DejaVuSans-105"/>
     <use x="270.214844" xlink:href="#DejaVuSans-116"/>
     <use x="309.423828" xlink:href="#DejaVuSans-121"/>
     <use x="368.603516" xlink:href="#DejaVuSans-95"/>
     <use x="418.603516" xlink:href="#DejaVuSans-114"/>
     <use x="457.466797" xlink:href="#DejaVuSans-101"/>
     <use x="518.990234" xlink:href="#DejaVuSans-103"/>
     <use x="582.466797" xlink:href="#DejaVuSans-117"/>
     <use x="645.845703" xlink:href="#DejaVuSans-108"/>
     <use x="673.628906" xlink:href="#DejaVuSans-97"/>
     <use x="734.908203" xlink:href="#DejaVuSans-114"/>
     <use x="776.021484" xlink:href="#DejaVuSans-105"/>
     <use x="803.804688" xlink:href="#DejaVuSans-122"/>
     <use x="856.294922" xlink:href="#DejaVuSans-101"/>
     <use x="917.818359" xlink:href="#DejaVuSans-114"/>
    </g>
   </g>
   <g id="legend_1">
    <g id="patch_47">
     <path d="M 97 373 
L 203.49375 373 
Q 205.49375 373 205.49375 371 
L 205.49375 254.575 
Q 205.49375 252.575 203.49375 252.575 
L 97 252.575 
Q 95 252.575 95 254.575 
L 95 371 
Q 95 373 97 373 
z
" style="fill:#ffffff;opacity:0.8;stroke:#cccccc;stroke-linejoin:miter;"/>
    </g>
    <g id="patch_48">
     <path d="M 99 264.173438 
L 119 264.173438 
L 119 257.173438 
L 99 257.173438 
z
" style="fill:#ea4335;"/>
    </g>
    <g id="text_18">
     <!-- CCE, SD=4 -->
     <g transform="translate(127 264.173438)scale(0.1 -0.1)">
      <defs>
       <path d="M 64.40625 67.28125 
L 64.40625 56.890625 
Q 59.421875 61.53125 53.78125 63.8125 
Q 48.140625 66.109375 41.796875 66.109375 
Q 29.296875 66.109375 22.65625 58.46875 
Q 16.015625 50.828125 16.015625 36.375 
Q 16.015625 21.96875 22.65625 14.328125 
Q 29.296875 6.6875 41.796875 6.6875 
Q 48.140625 6.6875 53.78125 8.984375 
Q 59.421875 11.28125 64.40625 15.921875 
L 64.40625 5.609375 
Q 59.234375 2.09375 53.4375 0.328125 
Q 47.65625 -1.421875 41.21875 -1.421875 
Q 24.65625 -1.421875 15.125 8.703125 
Q 5.609375 18.84375 5.609375 36.375 
Q 5.609375 53.953125 15.125 64.078125 
Q 24.65625 74.21875 41.21875 74.21875 
Q 47.75 74.21875 53.53125 72.484375 
Q 59.328125 70.75 64.40625 67.28125 
z
" id="DejaVuSans-67"/>
       <path d="M 9.8125 72.90625 
L 55.90625 72.90625 
L 55.90625 64.59375 
L 19.671875 64.59375 
L 19.671875 43.015625 
L 54.390625 43.015625 
L 54.390625 34.71875 
L 19.671875 34.71875 
L 19.671875 8.296875 
L 56.78125 8.296875 
L 56.78125 0 
L 9.8125 0 
z
" id="DejaVuSans-69"/>
       <path d="M 11.71875 12.40625 
L 22.015625 12.40625 
L 22.015625 4 
L 14.015625 -11.625 
L 7.71875 -11.625 
L 11.71875 4 
z
" id="DejaVuSans-44"/>
       <path d="M 53.515625 70.515625 
L 53.515625 60.890625 
Q 47.90625 63.578125 42.921875 64.890625 
Q 37.9375 66.21875 33.296875 66.21875 
Q 25.25 66.21875 20.875 63.09375 
Q 16.5 59.96875 16.5 54.203125 
Q 16.5 49.359375 19.40625 46.890625 
Q 22.3125 44.4375 30.421875 42.921875 
L 36.375 41.703125 
Q 47.40625 39.59375 52.65625 34.296875 
Q 57.90625 29 57.90625 20.125 
Q 57.90625 9.515625 50.796875 4.046875 
Q 43.703125 -1.421875 29.984375 -1.421875 
Q 24.8125 -1.421875 18.96875 -0.25 
Q 13.140625 0.921875 6.890625 3.21875 
L 6.890625 13.375 
Q 12.890625 10.015625 18.65625 8.296875 
Q 24.421875 6.59375 29.984375 6.59375 
Q 38.421875 6.59375 43.015625 9.90625 
Q 47.609375 13.234375 47.609375 19.390625 
Q 47.609375 24.75 44.3125 27.78125 
Q 41.015625 30.8125 33.5 32.328125 
L 27.484375 33.5 
Q 16.453125 35.6875 11.515625 40.375 
Q 6.59375 45.0625 6.59375 53.421875 
Q 6.59375 63.09375 13.40625 68.65625 
Q 20.21875 74.21875 32.171875 74.21875 
Q 37.3125 74.21875 42.625 73.28125 
Q 47.953125 72.359375 53.515625 70.515625 
z
" id="DejaVuSans-83"/>
       <path d="M 19.671875 64.796875 
L 19.671875 8.109375 
L 31.59375 8.109375 
Q 46.6875 8.109375 53.6875 14.9375 
Q 60.6875 21.78125 60.6875 36.53125 
Q 60.6875 51.171875 53.6875 57.984375 
Q 46.6875 64.796875 31.59375 64.796875 
z
M 9.8125 72.90625 
L 30.078125 72.90625 
Q 51.265625 72.90625 61.171875 64.09375 
Q 71.09375 55.28125 71.09375 36.53125 
Q 71.09375 17.671875 61.125 8.828125 
Q 51.171875 0 30.078125 0 
L 9.8125 0 
z
" id="DejaVuSans-68"/>
       <path d="M 10.59375 45.40625 
L 73.1875 45.40625 
L 73.1875 37.203125 
L 10.59375 37.203125 
z
M 10.59375 25.484375 
L 73.1875 25.484375 
L 73.1875 17.1875 
L 10.59375 17.1875 
z
" id="DejaVuSans-61"/>
      </defs>
      <use xlink:href="#DejaVuSans-67"/>
      <use x="69.824219" xlink:href="#DejaVuSans-67"/>
      <use x="139.648438" xlink:href="#DejaVuSans-69"/>
      <use x="202.832031" xlink:href="#DejaVuSans-44"/>
      <use x="234.619141" xlink:href="#DejaVuSans-32"/>
      <use x="266.40625" xlink:href="#DejaVuSans-83"/>
      <use x="329.882812" xlink:href="#DejaVuSans-68"/>
      <use x="406.884766" xlink:href="#DejaVuSans-61"/>
      <use x="490.673828" xlink:href="#DejaVuSans-52"/>
     </g>
    </g>
    <g id="patch_49">
     <path d="M 99 278.851563 
L 119 278.851563 
L 119 271.851563 
L 99 271.851563 
z
" style="fill:#fbbc04;"/>
    </g>
    <g id="text_19">
     <!-- JSD, SD=4 -->
     <g transform="translate(127 278.851563)scale(0.1 -0.1)">
      <defs>
       <path d="M 9.8125 72.90625 
L 19.671875 72.90625 
L 19.671875 5.078125 
Q 19.671875 -8.109375 14.671875 -14.0625 
Q 9.671875 -20.015625 -1.421875 -20.015625 
L -5.171875 -20.015625 
L -5.171875 -11.71875 
L -2.09375 -11.71875 
Q 4.4375 -11.71875 7.125 -8.046875 
Q 9.8125 -4.390625 9.8125 5.078125 
z
" id="DejaVuSans-74"/>
      </defs>
      <use xlink:href="#DejaVuSans-74"/>
      <use x="29.492188" xlink:href="#DejaVuSans-83"/>
      <use x="92.96875" xlink:href="#DejaVuSans-68"/>
      <use x="169.970703" xlink:href="#DejaVuSans-44"/>
      <use x="201.757812" xlink:href="#DejaVuSans-32"/>
      <use x="233.544922" xlink:href="#DejaVuSans-83"/>
      <use x="297.021484" xlink:href="#DejaVuSans-68"/>
      <use x="374.023438" xlink:href="#DejaVuSans-61"/>
      <use x="457.8125" xlink:href="#DejaVuSans-52"/>
     </g>
    </g>
    <g id="patch_50">
     <path d="M 99 293.529688 
L 119 293.529688 
L 119 286.529688 
L 99 286.529688 
z
" style="fill:#4285f4;"/>
    </g>
    <g id="text_20">
     <!-- CCEu, SD=4 -->
     <g transform="translate(127 293.529688)scale(0.1 -0.1)">
      <use xlink:href="#DejaVuSans-67"/>
      <use x="69.824219" xlink:href="#DejaVuSans-67"/>
      <use x="139.648438" xlink:href="#DejaVuSans-69"/>
      <use x="202.832031" xlink:href="#DejaVuSans-117"/>
      <use x="266.210938" xlink:href="#DejaVuSans-44"/>
      <use x="297.998047" xlink:href="#DejaVuSans-32"/>
      <use x="329.785156" xlink:href="#DejaVuSans-83"/>
      <use x="393.261719" xlink:href="#DejaVuSans-68"/>
      <use x="470.263672" xlink:href="#DejaVuSans-61"/>
      <use x="554.052734" xlink:href="#DejaVuSans-52"/>
     </g>
    </g>
    <g id="patch_51">
     <path d="M 99 308.207813 
L 119 308.207813 
L 119 301.207813 
L 99 301.207813 
z
"/>
    </g>
    <g id="text_21">
     <!-- JSDu, SD=4 -->
     <g transform="translate(127 308.207813)scale(0.1 -0.1)">
      <use xlink:href="#DejaVuSans-74"/>
      <use x="29.492188" xlink:href="#DejaVuSans-83"/>
      <use x="92.96875" xlink:href="#DejaVuSans-68"/>
      <use x="169.970703" xlink:href="#DejaVuSans-117"/>
      <use x="233.349609" xlink:href="#DejaVuSans-44"/>
      <use x="265.136719" xlink:href="#DejaVuSans-32"/>
      <use x="296.923828" xlink:href="#DejaVuSans-83"/>
      <use x="360.400391" xlink:href="#DejaVuSans-68"/>
      <use x="437.402344" xlink:href="#DejaVuSans-61"/>
      <use x="521.191406" xlink:href="#DejaVuSans-52"/>
     </g>
    </g>
    <g id="patch_52">
     <path d="M 99 322.885938 
L 119 322.885938 
L 119 315.885938 
L 99 315.885938 
z
" style="fill:#34a853;"/>
    </g>
    <g id="text_22">
     <!-- CCE, SD=100 -->
     <g transform="translate(127 322.885938)scale(0.1 -0.1)">
      <use xlink:href="#DejaVuSans-67"/>
      <use x="69.824219" xlink:href="#DejaVuSans-67"/>
      <use x="139.648438" xlink:href="#DejaVuSans-69"/>
      <use x="202.832031" xlink:href="#DejaVuSans-44"/>
      <use x="234.619141" xlink:href="#DejaVuSans-32"/>
      <use x="266.40625" xlink:href="#DejaVuSans-83"/>
      <use x="329.882812" xlink:href="#DejaVuSans-68"/>
      <use x="406.884766" xlink:href="#DejaVuSans-61"/>
      <use x="490.673828" xlink:href="#DejaVuSans-49"/>
      <use x="554.296875" xlink:href="#DejaVuSans-48"/>
      <use x="617.919922" xlink:href="#DejaVuSans-48"/>
     </g>
    </g>
    <g id="patch_53">
     <path d="M 99 337.564063 
L 119 337.564063 
L 119 330.564063 
L 99 330.564063 
z
" style="fill:#46bdc6;"/>
    </g>
    <g id="text_23">
     <!-- JSD, SD=100 -->
     <g transform="translate(127 337.564063)scale(0.1 -0.1)">
      <use xlink:href="#DejaVuSans-74"/>
      <use x="29.492188" xlink:href="#DejaVuSans-83"/>
      <use x="92.96875" xlink:href="#DejaVuSans-68"/>
      <use x="169.970703" xlink:href="#DejaVuSans-44"/>
      <use x="201.757812" xlink:href="#DejaVuSans-32"/>
      <use x="233.544922" xlink:href="#DejaVuSans-83"/>
      <use x="297.021484" xlink:href="#DejaVuSans-68"/>
      <use x="374.023438" xlink:href="#DejaVuSans-61"/>
      <use x="457.8125" xlink:href="#DejaVuSans-49"/>
      <use x="521.435547" xlink:href="#DejaVuSans-48"/>
      <use x="585.058594" xlink:href="#DejaVuSans-48"/>
     </g>
    </g>
    <g id="patch_54">
     <path d="M 99 352.242188 
L 119 352.242188 
L 119 345.242188 
L 99 345.242188 
z
" style="fill:#f4cccc;"/>
    </g>
    <g id="text_24">
     <!-- CCEu, SD=100 -->
     <g transform="translate(127 352.242188)scale(0.1 -0.1)">
      <use xlink:href="#DejaVuSans-67"/>
      <use x="69.824219" xlink:href="#DejaVuSans-67"/>
      <use x="139.648438" xlink:href="#DejaVuSans-69"/>
      <use x="202.832031" xlink:href="#DejaVuSans-117"/>
      <use x="266.210938" xlink:href="#DejaVuSans-44"/>
      <use x="297.998047" xlink:href="#DejaVuSans-32"/>
      <use x="329.785156" xlink:href="#DejaVuSans-83"/>
      <use x="393.261719" xlink:href="#DejaVuSans-68"/>
      <use x="470.263672" xlink:href="#DejaVuSans-61"/>
      <use x="554.052734" xlink:href="#DejaVuSans-49"/>
      <use x="617.675781" xlink:href="#DejaVuSans-48"/>
      <use x="681.298828" xlink:href="#DejaVuSans-48"/>
     </g>
    </g>
    <g id="patch_55">
     <path d="M 99 366.920313 
L 119 366.920313 
L 119 359.920313 
L 99 359.920313 
z
" style="fill:#c9daf8;"/>
    </g>
    <g id="text_25">
     <!-- JSDu, SD=100 -->
     <g transform="translate(127 366.920313)scale(0.1 -0.1)">
      <use xlink:href="#DejaVuSans-74"/>
      <use x="29.492188" xlink:href="#DejaVuSans-83"/>
      <use x="92.96875" xlink:href="#DejaVuSans-68"/>
      <use x="169.970703" xlink:href="#DejaVuSans-117"/>
      <use x="233.349609" xlink:href="#DejaVuSans-44"/>
      <use x="265.136719" xlink:href="#DejaVuSans-32"/>
      <use x="296.923828" xlink:href="#DejaVuSans-83"/>
      <use x="360.400391" xlink:href="#DejaVuSans-68"/>
      <use x="437.402344" xlink:href="#DejaVuSans-61"/>
      <use x="521.191406" xlink:href="#DejaVuSans-49"/>
      <use x="584.814453" xlink:href="#DejaVuSans-48"/>
      <use x="648.4375" xlink:href="#DejaVuSans-48"/>
     </g>
    </g>
   </g>
  </g>
 </g>
 <defs>
  <clipPath id="p9e51abb1c3">
   <rect height="326.16" width="558" x="90" y="51.84"/>
  </clipPath>
 </defs>
</svg>
