<?xml version="1.0" encoding="utf-8" standalone="no"?>
<!DOCTYPE svg PUBLIC "-//W3C//DTD SVG 1.1//EN"
  "http://www.w3.org/Graphics/SVG/1.1/DTD/svg11.dtd">
<!-- Created with matplotlib (https://matplotlib.org/) -->
<svg height="535.43375pt" version="1.1" viewBox="0 0 790.4325 535.43375" width="790.4325pt" xmlns="http://www.w3.org/2000/svg" xmlns:xlink="http://www.w3.org/1999/xlink">
 <metadata>
  <rdf:RDF xmlns:cc="http://creativecommons.org/ns#" xmlns:dc="http://purl.org/dc/elements/1.1/" xmlns:rdf="http://www.w3.org/1999/02/22-rdf-syntax-ns#">
   <cc:Work>
    <dc:type rdf:resource="http://purl.org/dc/dcmitype/StillImage"/>
    <dc:date>2021-03-13T20:23:08.573103</dc:date>
    <dc:format>image/svg+xml</dc:format>
    <dc:creator>
     <cc:Agent>
      <dc:title>Matplotlib v3.3.4, https://matplotlib.org/</dc:title>
     </cc:Agent>
    </dc:creator>
   </cc:Work>
  </rdf:RDF>
 </metadata>
 <defs>
  <style type="text/css">*{stroke-linecap:butt;stroke-linejoin:round;}</style>
 </defs>
 <g id="figure_1">
  <g id="patch_1">
   <path d="M 0 535.43375 
L 790.4325 535.43375 
L 790.4325 0 
L 0 0 
z
" style="fill:none;"/>
  </g>
  <g id="axes_1">
   <g id="patch_2">
    <path d="M 70.4325 438.07875 
L 790.4325 438.07875 
L 790.4325 6.07875 
L 70.4325 6.07875 
z
" style="fill:#ffffff;"/>
   </g>
   <g id="patch_3">
    <path clip-path="url(#paa77460b3c)" d="M 70.4325 163.169659 
L 78.092074 163.169659 
L 78.092074 113.369338 
L 70.4325 113.369338 
z
" style="fill:#ea4335;"/>
   </g>
   <g id="patch_4">
    <path clip-path="url(#paa77460b3c)" d="M 147.028245 163.169659 
L 154.687819 163.169659 
L 154.687819 109.417736 
L 147.028245 109.417736 
z
" style="fill:#ea4335;"/>
   </g>
   <g id="patch_5">
    <path clip-path="url(#paa77460b3c)" d="M 223.623989 163.169659 
L 231.283564 163.169659 
L 231.283564 106.41256 
L 223.623989 106.41256 
z
" style="fill:#ea4335;"/>
   </g>
   <g id="patch_6">
    <path clip-path="url(#paa77460b3c)" d="M 300.219734 163.169659 
L 307.879309 163.169659 
L 307.879309 100.821101 
L 300.219734 100.821101 
z
" style="fill:#ea4335;"/>
   </g>
   <g id="patch_7">
    <path clip-path="url(#paa77460b3c)" d="M 376.815479 163.169659 
L 384.475053 163.169659 
L 384.475053 98.164384 
L 376.815479 98.164384 
z
" style="fill:#ea4335;"/>
   </g>
   <g id="patch_8">
    <path clip-path="url(#paa77460b3c)" d="M 453.411223 163.169659 
L 461.070798 163.169659 
L 461.070798 100.811326 
L 453.411223 100.811326 
z
" style="fill:#ea4335;"/>
   </g>
   <g id="patch_9">
    <path clip-path="url(#paa77460b3c)" d="M 530.006968 163.169659 
L 537.666543 163.169659 
L 537.666543 133.285126 
L 530.006968 133.285126 
z
" style="fill:#ea4335;"/>
   </g>
   <g id="patch_10">
    <path clip-path="url(#paa77460b3c)" d="M 606.602713 163.169659 
L 614.262287 163.169659 
L 614.262287 281.117483 
L 606.602713 281.117483 
z
" style="fill:#ea4335;"/>
   </g>
   <g id="patch_11">
    <path clip-path="url(#paa77460b3c)" d="M 683.198457 163.169659 
L 690.858032 163.169659 
L 690.858032 345.671078 
L 683.198457 345.671078 
z
" style="fill:#ea4335;"/>
   </g>
   <g id="patch_12">
    <path clip-path="url(#paa77460b3c)" d="M 759.794202 163.169659 
L 767.453777 163.169659 
L 767.453777 359.991253 
L 759.794202 359.991253 
z
" style="fill:#ea4335;"/>
   </g>
   <g id="patch_13">
    <path clip-path="url(#paa77460b3c)" d="M 78.092074 163.169659 
L 85.751649 163.169659 
L 85.751649 162.175792 
L 78.092074 162.175792 
z
" style="fill:#fbbc04;"/>
   </g>
   <g id="patch_14">
    <path clip-path="url(#paa77460b3c)" d="M 154.687819 163.169659 
L 162.347394 163.169659 
L 162.347394 161.735786 
L 154.687819 161.735786 
z
" style="fill:#fbbc04;"/>
   </g>
   <g id="patch_15">
    <path clip-path="url(#paa77460b3c)" d="M 231.283564 163.169659 
L 238.943138 163.169659 
L 238.943138 159.369426 
L 231.283564 159.369426 
z
" style="fill:#fbbc04;"/>
   </g>
   <g id="patch_16">
    <path clip-path="url(#paa77460b3c)" d="M 307.879309 163.169659 
L 315.538883 163.169659 
L 315.538883 154.172333 
L 307.879309 154.172333 
z
" style="fill:#fbbc04;"/>
   </g>
   <g id="patch_17">
    <path clip-path="url(#paa77460b3c)" d="M 384.475053 163.169659 
L 392.134628 163.169659 
L 392.134628 148.242894 
L 384.475053 148.242894 
z
" style="fill:#fbbc04;"/>
   </g>
   <g id="patch_18">
    <path clip-path="url(#paa77460b3c)" d="M 461.070798 163.169659 
L 468.730372 163.169659 
L 468.730372 151.230703 
L 461.070798 151.230703 
z
" style="fill:#fbbc04;"/>
   </g>
   <g id="patch_19">
    <path clip-path="url(#paa77460b3c)" d="M 537.666543 163.169659 
L 545.326117 163.169659 
L 545.326117 199.508513 
L 537.666543 199.508513 
z
" style="fill:#fbbc04;"/>
   </g>
   <g id="patch_20">
    <path clip-path="url(#paa77460b3c)" d="M 614.262287 163.169659 
L 621.921862 163.169659 
L 621.921862 318.33671 
L 614.262287 318.33671 
z
" style="fill:#fbbc04;"/>
   </g>
   <g id="patch_21">
    <path clip-path="url(#paa77460b3c)" d="M 690.858032 163.169659 
L 698.517606 163.169659 
L 698.517606 355.303504 
L 690.858032 355.303504 
z
" style="fill:#fbbc04;"/>
   </g>
   <g id="patch_22">
    <path clip-path="url(#paa77460b3c)" d="M 767.453777 163.169659 
L 775.113351 163.169659 
L 775.113351 363.48372 
L 767.453777 363.48372 
z
" style="fill:#fbbc04;"/>
   </g>
   <g id="patch_23">
    <path clip-path="url(#paa77460b3c)" d="M 85.751649 163.169659 
L 93.411223 163.169659 
L 93.411223 26.080404 
L 85.751649 26.080404 
z
" style="fill:#34a853;"/>
   </g>
   <g id="patch_24">
    <path clip-path="url(#paa77460b3c)" d="M 162.347394 163.169659 
L 170.006968 163.169659 
L 170.006968 28.464681 
L 162.347394 28.464681 
z
" style="fill:#34a853;"/>
   </g>
   <g id="patch_25">
    <path clip-path="url(#paa77460b3c)" d="M 238.943138 163.169659 
L 246.602713 163.169659 
L 246.602713 148.210796 
L 238.943138 148.210796 
z
" style="fill:#34a853;"/>
   </g>
   <g id="patch_26">
    <path clip-path="url(#paa77460b3c)" d="M 315.538883 163.169659 
L 323.198457 163.169659 
L 323.198457 292.684947 
L 315.538883 292.684947 
z
" style="fill:#34a853;"/>
   </g>
   <g id="patch_27">
    <path clip-path="url(#paa77460b3c)" d="M 392.134628 163.169659 
L 399.794202 163.169659 
L 399.794202 403.566302 
L 392.134628 403.566302 
z
" style="fill:#34a853;"/>
   </g>
   <g id="patch_28">
    <path clip-path="url(#paa77460b3c)" d="M 468.730372 163.169659 
L 476.389947 163.169659 
L 476.389947 24.047844 
L 468.730372 24.047844 
z
" style="fill:#34a853;"/>
   </g>
   <g id="patch_29">
    <path clip-path="url(#paa77460b3c)" d="M 545.326117 163.169659 
L 552.985691 163.169659 
L 552.985691 28.467582 
L 545.326117 28.467582 
z
" style="fill:#34a853;"/>
   </g>
   <g id="patch_30">
    <path clip-path="url(#paa77460b3c)" d="M 621.921862 163.169659 
L 629.581436 163.169659 
L 629.581436 148.363131 
L 621.921862 148.363131 
z
" style="fill:#34a853;"/>
   </g>
   <g id="patch_31">
    <path clip-path="url(#paa77460b3c)" d="M 698.517606 163.169659 
L 706.177181 163.169659 
L 706.177181 290.643169 
L 698.517606 290.643169 
z
" style="fill:#34a853;"/>
   </g>
   <g id="patch_32">
    <path clip-path="url(#paa77460b3c)" d="M 775.113351 163.169659 
L 782.772926 163.169659 
L 782.772926 405.74101 
L 775.113351 405.74101 
z
" style="fill:#34a853;"/>
   </g>
   <g id="patch_33">
    <path clip-path="url(#paa77460b3c)" d="M 93.411223 163.169659 
L 101.070798 163.169659 
L 101.070798 100.881921 
L 93.411223 100.881921 
z
" style="fill:#4285f4;"/>
   </g>
   <g id="patch_34">
    <path clip-path="url(#paa77460b3c)" d="M 170.006968 163.169659 
L 177.666543 163.169659 
L 177.666543 90.098465 
L 170.006968 90.098465 
z
" style="fill:#4285f4;"/>
   </g>
   <g id="patch_35">
    <path clip-path="url(#paa77460b3c)" d="M 246.602713 163.169659 
L 254.262287 163.169659 
L 254.262287 170.98622 
L 246.602713 170.98622 
z
" style="fill:#4285f4;"/>
   </g>
   <g id="patch_36">
    <path clip-path="url(#paa77460b3c)" d="M 323.198457 163.169659 
L 330.858032 163.169659 
L 330.858032 328.01118 
L 323.198457 328.01118 
z
" style="fill:#4285f4;"/>
   </g>
   <g id="patch_37">
    <path clip-path="url(#paa77460b3c)" d="M 399.794202 163.169659 
L 407.453777 163.169659 
L 407.453777 451.006278 
L 399.794202 451.006278 
z
" style="fill:#4285f4;"/>
   </g>
   <g id="patch_38">
    <path clip-path="url(#paa77460b3c)" d="M 476.389947 163.169659 
L 484.049521 163.169659 
L 484.049521 100.502533 
L 476.389947 100.502533 
z
" style="fill:#4285f4;"/>
   </g>
   <g id="patch_39">
    <path clip-path="url(#paa77460b3c)" d="M 552.985691 163.169659 
L 560.645266 163.169659 
L 560.645266 89.327532 
L 552.985691 89.327532 
z
" style="fill:#4285f4;"/>
   </g>
   <g id="patch_40">
    <path clip-path="url(#paa77460b3c)" d="M 629.581436 163.169659 
L 637.241011 163.169659 
L 637.241011 176.57477 
L 629.581436 176.57477 
z
" style="fill:#4285f4;"/>
   </g>
   <g id="patch_41">
    <path clip-path="url(#paa77460b3c)" d="M 706.177181 163.169659 
L 713.836755 163.169659 
L 713.836755 323.331675 
L 706.177181 323.331675 
z
" style="fill:#4285f4;"/>
   </g>
   <g id="patch_42">
    <path clip-path="url(#paa77460b3c)" d="M 782.772926 163.169659 
L 790.4325 163.169659 
L 790.4325 453.634392 
L 782.772926 453.634392 
z
" style="fill:#4285f4;"/>
   </g>
   <g id="matplotlib.axis_1">
    <g id="xtick_1">
     <g id="line2d_1">
      <defs>
       <path d="M 0 0 
L 0 3.5 
" id="m08670f9c43" style="stroke:#000000;stroke-width:0.8;"/>
      </defs>
      <g>
       <use style="stroke:#000000;stroke-width:0.8;" x="108.730372" xlink:href="#m08670f9c43" y="438.07875"/>
      </g>
     </g>
     <g id="text_1">
      <!-- 0.01 -->
      <g transform="translate(90.917872 457.23625)scale(0.16 -0.16)">
       <defs>
        <path d="M 31.78125 66.40625 
Q 24.171875 66.40625 20.328125 58.90625 
Q 16.5 51.421875 16.5 36.375 
Q 16.5 21.390625 20.328125 13.890625 
Q 24.171875 6.390625 31.78125 6.390625 
Q 39.453125 6.390625 43.28125 13.890625 
Q 47.125 21.390625 47.125 36.375 
Q 47.125 51.421875 43.28125 58.90625 
Q 39.453125 66.40625 31.78125 66.40625 
z
M 31.78125 74.21875 
Q 44.046875 74.21875 50.515625 64.515625 
Q 56.984375 54.828125 56.984375 36.375 
Q 56.984375 17.96875 50.515625 8.265625 
Q 44.046875 -1.421875 31.78125 -1.421875 
Q 19.53125 -1.421875 13.0625 8.265625 
Q 6.59375 17.96875 6.59375 36.375 
Q 6.59375 54.828125 13.0625 64.515625 
Q 19.53125 74.21875 31.78125 74.21875 
z
" id="DejaVuSans-48"/>
        <path d="M 10.6875 12.40625 
L 21 12.40625 
L 21 0 
L 10.6875 0 
z
" id="DejaVuSans-46"/>
        <path d="M 12.40625 8.296875 
L 28.515625 8.296875 
L 28.515625 63.921875 
L 10.984375 60.40625 
L 10.984375 69.390625 
L 28.421875 72.90625 
L 38.28125 72.90625 
L 38.28125 8.296875 
L 54.390625 8.296875 
L 54.390625 0 
L 12.40625 0 
z
" id="DejaVuSans-49"/>
       </defs>
       <use xlink:href="#DejaVuSans-48"/>
       <use x="63.623047" xlink:href="#DejaVuSans-46"/>
       <use x="95.410156" xlink:href="#DejaVuSans-48"/>
       <use x="159.033203" xlink:href="#DejaVuSans-49"/>
      </g>
     </g>
    </g>
    <g id="xtick_2">
     <g id="line2d_2">
      <g>
       <use style="stroke:#000000;stroke-width:0.8;" x="185.326117" xlink:href="#m08670f9c43" y="438.07875"/>
      </g>
     </g>
     <g id="text_2">
      <!-- 0.02 -->
      <g transform="translate(167.513617 457.23625)scale(0.16 -0.16)">
       <defs>
        <path d="M 19.1875 8.296875 
L 53.609375 8.296875 
L 53.609375 0 
L 7.328125 0 
L 7.328125 8.296875 
Q 12.9375 14.109375 22.625 23.890625 
Q 32.328125 33.6875 34.8125 36.53125 
Q 39.546875 41.84375 41.421875 45.53125 
Q 43.3125 49.21875 43.3125 52.78125 
Q 43.3125 58.59375 39.234375 62.25 
Q 35.15625 65.921875 28.609375 65.921875 
Q 23.96875 65.921875 18.8125 64.3125 
Q 13.671875 62.703125 7.8125 59.421875 
L 7.8125 69.390625 
Q 13.765625 71.78125 18.9375 73 
Q 24.125 74.21875 28.421875 74.21875 
Q 39.75 74.21875 46.484375 68.546875 
Q 53.21875 62.890625 53.21875 53.421875 
Q 53.21875 48.921875 51.53125 44.890625 
Q 49.859375 40.875 45.40625 35.40625 
Q 44.1875 33.984375 37.640625 27.21875 
Q 31.109375 20.453125 19.1875 8.296875 
z
" id="DejaVuSans-50"/>
       </defs>
       <use xlink:href="#DejaVuSans-48"/>
       <use x="63.623047" xlink:href="#DejaVuSans-46"/>
       <use x="95.410156" xlink:href="#DejaVuSans-48"/>
       <use x="159.033203" xlink:href="#DejaVuSans-50"/>
      </g>
     </g>
    </g>
    <g id="xtick_3">
     <g id="line2d_3">
      <g>
       <use style="stroke:#000000;stroke-width:0.8;" x="261.921862" xlink:href="#m08670f9c43" y="438.07875"/>
      </g>
     </g>
     <g id="text_3">
      <!-- 0.05 -->
      <g transform="translate(244.109362 457.23625)scale(0.16 -0.16)">
       <defs>
        <path d="M 10.796875 72.90625 
L 49.515625 72.90625 
L 49.515625 64.59375 
L 19.828125 64.59375 
L 19.828125 46.734375 
Q 21.96875 47.46875 24.109375 47.828125 
Q 26.265625 48.1875 28.421875 48.1875 
Q 40.625 48.1875 47.75 41.5 
Q 54.890625 34.8125 54.890625 23.390625 
Q 54.890625 11.625 47.5625 5.09375 
Q 40.234375 -1.421875 26.90625 -1.421875 
Q 22.3125 -1.421875 17.546875 -0.640625 
Q 12.796875 0.140625 7.71875 1.703125 
L 7.71875 11.625 
Q 12.109375 9.234375 16.796875 8.0625 
Q 21.484375 6.890625 26.703125 6.890625 
Q 35.15625 6.890625 40.078125 11.328125 
Q 45.015625 15.765625 45.015625 23.390625 
Q 45.015625 31 40.078125 35.4375 
Q 35.15625 39.890625 26.703125 39.890625 
Q 22.75 39.890625 18.8125 39.015625 
Q 14.890625 38.140625 10.796875 36.28125 
z
" id="DejaVuSans-53"/>
       </defs>
       <use xlink:href="#DejaVuSans-48"/>
       <use x="63.623047" xlink:href="#DejaVuSans-46"/>
       <use x="95.410156" xlink:href="#DejaVuSans-48"/>
       <use x="159.033203" xlink:href="#DejaVuSans-53"/>
      </g>
     </g>
    </g>
    <g id="xtick_4">
     <g id="line2d_4">
      <g>
       <use style="stroke:#000000;stroke-width:0.8;" x="338.517606" xlink:href="#m08670f9c43" y="438.07875"/>
      </g>
     </g>
     <g id="text_4">
      <!-- 0.1 -->
      <g transform="translate(325.795106 457.23625)scale(0.16 -0.16)">
       <use xlink:href="#DejaVuSans-48"/>
       <use x="63.623047" xlink:href="#DejaVuSans-46"/>
       <use x="95.410156" xlink:href="#DejaVuSans-49"/>
      </g>
     </g>
    </g>
    <g id="xtick_5">
     <g id="line2d_5">
      <g>
       <use style="stroke:#000000;stroke-width:0.8;" x="415.113351" xlink:href="#m08670f9c43" y="438.07875"/>
      </g>
     </g>
     <g id="text_5">
      <!-- 0.2 -->
      <g transform="translate(402.390851 457.23625)scale(0.16 -0.16)">
       <use xlink:href="#DejaVuSans-48"/>
       <use x="63.623047" xlink:href="#DejaVuSans-46"/>
       <use x="95.410156" xlink:href="#DejaVuSans-50"/>
      </g>
     </g>
    </g>
    <g id="xtick_6">
     <g id="line2d_6">
      <g>
       <use style="stroke:#000000;stroke-width:0.8;" x="491.709096" xlink:href="#m08670f9c43" y="438.07875"/>
      </g>
     </g>
     <g id="text_6">
      <!-- 0.01 · -->
      <g transform="translate(468.811596 457.23625)scale(0.16 -0.16)">
       <defs>
        <path id="DejaVuSans-32"/>
        <path d="M 10.6875 40.921875 
L 21 40.921875 
L 21 28.515625 
L 10.6875 28.515625 
z
" id="DejaVuSans-183"/>
       </defs>
       <use xlink:href="#DejaVuSans-48"/>
       <use x="63.623047" xlink:href="#DejaVuSans-46"/>
       <use x="95.410156" xlink:href="#DejaVuSans-48"/>
       <use x="159.033203" xlink:href="#DejaVuSans-49"/>
       <use x="222.65625" xlink:href="#DejaVuSans-32"/>
       <use x="254.443359" xlink:href="#DejaVuSans-183"/>
      </g>
      <!-- (100/$K_j$) -->
      <g transform="translate(460.429096 475.15575)scale(0.16 -0.16)">
       <defs>
        <path d="M 31 75.875 
Q 24.46875 64.65625 21.28125 53.65625 
Q 18.109375 42.671875 18.109375 31.390625 
Q 18.109375 20.125 21.3125 9.0625 
Q 24.515625 -2 31 -13.1875 
L 23.1875 -13.1875 
Q 15.875 -1.703125 12.234375 9.375 
Q 8.59375 20.453125 8.59375 31.390625 
Q 8.59375 42.28125 12.203125 53.3125 
Q 15.828125 64.359375 23.1875 75.875 
z
" id="DejaVuSans-40"/>
        <path d="M 25.390625 72.90625 
L 33.6875 72.90625 
L 8.296875 -9.28125 
L 0 -9.28125 
z
" id="DejaVuSans-47"/>
        <path d="M 16.890625 72.90625 
L 26.8125 72.90625 
L 20.796875 42.1875 
L 59.078125 72.90625 
L 72.21875 72.90625 
L 28.90625 38.09375 
L 60.59375 0 
L 48.578125 0 
L 19.484375 35.5 
L 12.59375 0 
L 2.6875 0 
z
" id="DejaVuSans-Oblique-75"/>
        <path d="M 14.5 54.6875 
L 23.484375 54.6875 
L 12.703125 -0.984375 
L 12.640625 -1.21875 
Q 10.84375 -10.546875 8.5 -14.015625 
Q 6.296875 -17.28125 2.0625 -19.03125 
Q -2.15625 -20.796875 -7.90625 -20.796875 
L -11.28125 -20.796875 
L -9.8125 -13.1875 
L -7.515625 -13.1875 
Q -2.25 -13.1875 -0.015625 -10.984375 
Q 2.203125 -8.796875 3.71875 -0.984375 
z
M 18.703125 75.984375 
L 27.6875 75.984375 
L 25.484375 64.59375 
L 16.5 64.59375 
z
" id="DejaVuSans-Oblique-106"/>
        <path d="M 8.015625 75.875 
L 15.828125 75.875 
Q 23.140625 64.359375 26.78125 53.3125 
Q 30.421875 42.28125 30.421875 31.390625 
Q 30.421875 20.453125 26.78125 9.375 
Q 23.140625 -1.703125 15.828125 -13.1875 
L 8.015625 -13.1875 
Q 14.5 -2 17.703125 9.0625 
Q 20.90625 20.125 20.90625 31.390625 
Q 20.90625 42.671875 17.703125 53.65625 
Q 14.5 64.65625 8.015625 75.875 
z
" id="DejaVuSans-41"/>
       </defs>
       <use transform="translate(0 0.125)" xlink:href="#DejaVuSans-40"/>
       <use transform="translate(39.013672 0.125)" xlink:href="#DejaVuSans-49"/>
       <use transform="translate(102.636719 0.125)" xlink:href="#DejaVuSans-48"/>
       <use transform="translate(166.259766 0.125)" xlink:href="#DejaVuSans-48"/>
       <use transform="translate(229.882812 0.125)" xlink:href="#DejaVuSans-47"/>
       <use transform="translate(263.574219 0.125)" xlink:href="#DejaVuSans-Oblique-75"/>
       <use transform="translate(329.150391 -16.28125)scale(0.7)" xlink:href="#DejaVuSans-Oblique-106"/>
       <use transform="translate(351.333008 0.125)" xlink:href="#DejaVuSans-41"/>
      </g>
     </g>
    </g>
    <g id="xtick_7">
     <g id="line2d_7">
      <g>
       <use style="stroke:#000000;stroke-width:0.8;" x="568.30484" xlink:href="#m08670f9c43" y="438.07875"/>
      </g>
     </g>
     <g id="text_7">
      <!-- 0.02 · -->
      <g transform="translate(545.40734 457.23625)scale(0.16 -0.16)">
       <use xlink:href="#DejaVuSans-48"/>
       <use x="63.623047" xlink:href="#DejaVuSans-46"/>
       <use x="95.410156" xlink:href="#DejaVuSans-48"/>
       <use x="159.033203" xlink:href="#DejaVuSans-50"/>
       <use x="222.65625" xlink:href="#DejaVuSans-32"/>
       <use x="254.443359" xlink:href="#DejaVuSans-183"/>
      </g>
      <!-- (100/$K_j$) -->
      <g transform="translate(537.02484 475.15575)scale(0.16 -0.16)">
       <use transform="translate(0 0.125)" xlink:href="#DejaVuSans-40"/>
       <use transform="translate(39.013672 0.125)" xlink:href="#DejaVuSans-49"/>
       <use transform="translate(102.636719 0.125)" xlink:href="#DejaVuSans-48"/>
       <use transform="translate(166.259766 0.125)" xlink:href="#DejaVuSans-48"/>
       <use transform="translate(229.882812 0.125)" xlink:href="#DejaVuSans-47"/>
       <use transform="translate(263.574219 0.125)" xlink:href="#DejaVuSans-Oblique-75"/>
       <use transform="translate(329.150391 -16.28125)scale(0.7)" xlink:href="#DejaVuSans-Oblique-106"/>
       <use transform="translate(351.333008 0.125)" xlink:href="#DejaVuSans-41"/>
      </g>
     </g>
    </g>
    <g id="xtick_8">
     <g id="line2d_8">
      <g>
       <use style="stroke:#000000;stroke-width:0.8;" x="644.900585" xlink:href="#m08670f9c43" y="438.07875"/>
      </g>
     </g>
     <g id="text_8">
      <!-- 0.05 · -->
      <g transform="translate(622.003085 457.23625)scale(0.16 -0.16)">
       <use xlink:href="#DejaVuSans-48"/>
       <use x="63.623047" xlink:href="#DejaVuSans-46"/>
       <use x="95.410156" xlink:href="#DejaVuSans-48"/>
       <use x="159.033203" xlink:href="#DejaVuSans-53"/>
       <use x="222.65625" xlink:href="#DejaVuSans-32"/>
       <use x="254.443359" xlink:href="#DejaVuSans-183"/>
      </g>
      <!-- (100/$K_j$) -->
      <g transform="translate(613.620585 475.15575)scale(0.16 -0.16)">
       <use transform="translate(0 0.125)" xlink:href="#DejaVuSans-40"/>
       <use transform="translate(39.013672 0.125)" xlink:href="#DejaVuSans-49"/>
       <use transform="translate(102.636719 0.125)" xlink:href="#DejaVuSans-48"/>
       <use transform="translate(166.259766 0.125)" xlink:href="#DejaVuSans-48"/>
       <use transform="translate(229.882812 0.125)" xlink:href="#DejaVuSans-47"/>
       <use transform="translate(263.574219 0.125)" xlink:href="#DejaVuSans-Oblique-75"/>
       <use transform="translate(329.150391 -16.28125)scale(0.7)" xlink:href="#DejaVuSans-Oblique-106"/>
       <use transform="translate(351.333008 0.125)" xlink:href="#DejaVuSans-41"/>
      </g>
     </g>
    </g>
    <g id="xtick_9">
     <g id="line2d_9">
      <g>
       <use style="stroke:#000000;stroke-width:0.8;" x="721.49633" xlink:href="#m08670f9c43" y="438.07875"/>
      </g>
     </g>
     <g id="text_9">
      <!-- 0.1 · -->
      <g transform="translate(703.68883 457.23625)scale(0.16 -0.16)">
       <use xlink:href="#DejaVuSans-48"/>
       <use x="63.623047" xlink:href="#DejaVuSans-46"/>
       <use x="95.410156" xlink:href="#DejaVuSans-49"/>
       <use x="159.033203" xlink:href="#DejaVuSans-32"/>
       <use x="190.820312" xlink:href="#DejaVuSans-183"/>
      </g>
      <!-- (100/$K_j$) -->
      <g transform="translate(690.21633 475.15575)scale(0.16 -0.16)">
       <use transform="translate(0 0.125)" xlink:href="#DejaVuSans-40"/>
       <use transform="translate(39.013672 0.125)" xlink:href="#DejaVuSans-49"/>
       <use transform="translate(102.636719 0.125)" xlink:href="#DejaVuSans-48"/>
       <use transform="translate(166.259766 0.125)" xlink:href="#DejaVuSans-48"/>
       <use transform="translate(229.882812 0.125)" xlink:href="#DejaVuSans-47"/>
       <use transform="translate(263.574219 0.125)" xlink:href="#DejaVuSans-Oblique-75"/>
       <use transform="translate(329.150391 -16.28125)scale(0.7)" xlink:href="#DejaVuSans-Oblique-106"/>
       <use transform="translate(351.333008 0.125)" xlink:href="#DejaVuSans-41"/>
      </g>
     </g>
    </g>
    <g id="text_10">
     <!-- $\sigma_{Gaussian\ noise\ layer}$ -->
     <g transform="translate(366.8325 494.64075)scale(0.16 -0.16)">
      <defs>
       <path d="M 34.671875 47.5625 
Q 27.25 47.5625 22.21875 42.1875 
Q 16.890625 36.578125 15.140625 27.296875 
Q 13.1875 17.484375 16.3125 11.8125 
Q 19.390625 6.203125 26.65625 6.203125 
Q 33.84375 6.203125 39.109375 11.859375 
Q 44.4375 17.53125 46.34375 27.296875 
Q 48.046875 36.234375 45.015625 42.1875 
Q 42.1875 47.5625 34.671875 47.5625 
z
M 36.078125 54.734375 
L 65.921875 54.6875 
L 64.15625 45.703125 
L 54.109375 45.703125 
Q 57.90625 38.09375 55.859375 27.296875 
Q 53.21875 13.875 45.0625 6.25 
Q 36.859375 -1.421875 25.140625 -1.421875 
Q 13.375 -1.421875 8.203125 6.25 
Q 3.03125 13.875 5.671875 27.296875 
Q 8.25 40.765625 16.40625 48.390625 
Q 23.1875 54.734375 36.078125 54.734375 
z
" id="DejaVuSans-Oblique-963"/>
       <path d="M 54.59375 10.890625 
L 58.40625 29.984375 
L 42.1875 29.984375 
L 43.703125 38.09375 
L 69.578125 38.09375 
L 63.28125 6 
Q 56.78125 2.4375 49.109375 0.5 
Q 41.453125 -1.421875 33.6875 -1.421875 
Q 19.96875 -1.421875 12.234375 6.1875 
Q 4.5 13.8125 4.5 27.390625 
Q 4.5 38.671875 9.203125 48.84375 
Q 13.921875 59.03125 22.21875 65.828125 
Q 27.4375 70.0625 33.640625 72.140625 
Q 39.84375 74.21875 47.40625 74.21875 
Q 54.25 74.21875 60.515625 72.484375 
Q 66.796875 70.75 72.515625 67.28125 
L 70.515625 56.78125 
Q 66.109375 61.375 60.203125 63.796875 
Q 54.296875 66.21875 47.609375 66.21875 
Q 39.84375 66.21875 33.9375 63.25 
Q 28.03125 60.296875 23.390625 54.109375 
Q 19.4375 48.828125 17.15625 41.671875 
Q 14.890625 34.515625 14.890625 27.09375 
Q 14.890625 16.890625 20.109375 11.734375 
Q 25.34375 6.59375 35.6875 6.59375 
Q 40.875 6.59375 45.703125 7.6875 
Q 50.53125 8.796875 54.59375 10.890625 
z
" id="DejaVuSans-Oblique-71"/>
       <path d="M 53.71875 31.203125 
L 47.609375 0 
L 38.625 0 
L 40.28125 8.296875 
Q 36.328125 3.421875 31.265625 1 
Q 26.21875 -1.421875 20.015625 -1.421875 
Q 13.03125 -1.421875 8.5625 2.84375 
Q 4.109375 7.125 4.109375 13.8125 
Q 4.109375 23.390625 11.75 28.953125 
Q 19.390625 34.515625 32.8125 34.515625 
L 45.3125 34.515625 
L 45.796875 36.921875 
Q 45.90625 37.3125 45.953125 37.765625 
Q 46 38.234375 46 39.203125 
Q 46 43.5625 42.453125 45.96875 
Q 38.921875 48.390625 32.515625 48.390625 
Q 28.125 48.390625 23.5 47.265625 
Q 18.890625 46.140625 14.015625 43.890625 
L 15.578125 52.203125 
Q 20.65625 54.109375 25.515625 55.046875 
Q 30.375 56 34.90625 56 
Q 44.578125 56 49.625 51.796875 
Q 54.6875 47.609375 54.6875 39.59375 
Q 54.6875 37.984375 54.4375 35.8125 
Q 54.203125 33.640625 53.71875 31.203125 
z
M 44 27.484375 
L 35.015625 27.484375 
Q 23.96875 27.484375 18.671875 24.53125 
Q 13.375 21.578125 13.375 15.375 
Q 13.375 11.078125 16.078125 8.640625 
Q 18.796875 6.203125 23.578125 6.203125 
Q 30.90625 6.203125 36.375 11.453125 
Q 41.84375 16.703125 43.609375 25.484375 
z
" id="DejaVuSans-Oblique-97"/>
       <path d="M 6.6875 21.6875 
L 13.09375 54.6875 
L 22.125 54.6875 
L 15.71875 22.015625 
Q 15.234375 19.625 15.015625 17.921875 
Q 14.796875 16.21875 14.796875 15.09375 
Q 14.796875 10.9375 17.328125 8.65625 
Q 19.875 6.390625 24.515625 6.390625 
Q 31.734375 6.390625 37 11.265625 
Q 42.28125 16.15625 43.890625 24.421875 
L 49.90625 54.6875 
L 58.890625 54.6875 
L 48.296875 0 
L 39.3125 0 
L 41.109375 8.59375 
Q 37.3125 3.8125 32.0625 1.1875 
Q 26.8125 -1.421875 20.90625 -1.421875 
Q 13.71875 -1.421875 9.71875 2.515625 
Q 5.71875 6.453125 5.71875 13.484375 
Q 5.71875 14.9375 5.953125 17.140625 
Q 6.203125 19.34375 6.6875 21.6875 
z
" id="DejaVuSans-Oblique-117"/>
       <path d="M 50 53.078125 
L 48.296875 44.578125 
Q 44.734375 46.53125 40.765625 47.5 
Q 36.8125 48.484375 32.625 48.484375 
Q 25.53125 48.484375 21.453125 46.0625 
Q 17.390625 43.65625 17.390625 39.5 
Q 17.390625 34.671875 26.859375 32.078125 
Q 27.59375 31.890625 27.9375 31.78125 
L 30.8125 30.90625 
Q 39.796875 28.421875 42.796875 25.6875 
Q 45.796875 22.953125 45.796875 18.21875 
Q 45.796875 9.515625 38.890625 4.046875 
Q 31.984375 -1.421875 20.796875 -1.421875 
Q 16.453125 -1.421875 11.671875 -0.578125 
Q 6.890625 0.25 1.125 2 
L 2.875 11.28125 
Q 7.8125 8.734375 12.59375 7.421875 
Q 17.390625 6.109375 21.78125 6.109375 
Q 28.375 6.109375 32.5 8.9375 
Q 36.625 11.765625 36.625 16.109375 
Q 36.625 20.796875 25.78125 23.6875 
L 24.859375 23.921875 
L 21.78125 24.703125 
Q 14.9375 26.515625 11.765625 29.46875 
Q 8.59375 32.421875 8.59375 37.015625 
Q 8.59375 45.75 15.15625 50.875 
Q 21.734375 56 33.015625 56 
Q 37.453125 56 41.671875 55.265625 
Q 45.90625 54.546875 50 53.078125 
z
" id="DejaVuSans-Oblique-115"/>
       <path d="M 18.3125 75.984375 
L 27.296875 75.984375 
L 25.09375 64.59375 
L 16.109375 64.59375 
z
M 14.203125 54.6875 
L 23.1875 54.6875 
L 12.5 0 
L 3.515625 0 
z
" id="DejaVuSans-Oblique-105"/>
       <path d="M 55.71875 33.015625 
L 49.3125 0 
L 40.28125 0 
L 46.6875 32.671875 
Q 47.125 34.96875 47.359375 36.71875 
Q 47.609375 38.484375 47.609375 39.5 
Q 47.609375 43.609375 45.015625 45.890625 
Q 42.4375 48.1875 37.796875 48.1875 
Q 30.5625 48.1875 25.34375 43.375 
Q 20.125 38.578125 18.5 30.328125 
L 12.5 0 
L 3.515625 0 
L 14.109375 54.6875 
L 23.09375 54.6875 
L 21.296875 46.09375 
Q 25.046875 50.828125 30.3125 53.40625 
Q 35.59375 56 41.40625 56 
Q 48.640625 56 52.609375 52.09375 
Q 56.59375 48.1875 56.59375 41.109375 
Q 56.59375 39.359375 56.375 37.359375 
Q 56.15625 35.359375 55.71875 33.015625 
z
" id="DejaVuSans-Oblique-110"/>
       <path d="M 25.390625 -1.421875 
Q 15.765625 -1.421875 10.171875 4.515625 
Q 4.59375 10.453125 4.59375 20.703125 
Q 4.59375 26.65625 6.515625 32.828125 
Q 8.453125 39.015625 11.53125 43.21875 
Q 16.359375 49.75 22.3125 52.875 
Q 28.265625 56 35.796875 56 
Q 45.125 56 50.859375 50.1875 
Q 56.59375 44.390625 56.59375 35.015625 
Q 56.59375 28.515625 54.6875 22.0625 
Q 52.78125 15.625 49.703125 11.375 
Q 44.921875 4.828125 38.96875 1.703125 
Q 33.015625 -1.421875 25.390625 -1.421875 
z
M 13.921875 21 
Q 13.921875 13.578125 17.015625 9.890625 
Q 20.125 6.203125 26.421875 6.203125 
Q 35.453125 6.203125 41.375 14.078125 
Q 47.3125 21.96875 47.3125 34.078125 
Q 47.3125 41.15625 44.140625 44.765625 
Q 40.96875 48.390625 34.8125 48.390625 
Q 29.734375 48.390625 25.78125 46.015625 
Q 21.828125 43.65625 18.703125 38.8125 
Q 16.40625 35.203125 15.15625 30.5625 
Q 13.921875 25.921875 13.921875 21 
z
" id="DejaVuSans-Oblique-111"/>
       <path d="M 48.09375 32.234375 
Q 48.25 33.015625 48.3125 33.84375 
Q 48.390625 34.671875 48.390625 35.5 
Q 48.390625 41.453125 44.890625 44.921875 
Q 41.40625 48.390625 35.40625 48.390625 
Q 28.71875 48.390625 23.578125 44.15625 
Q 18.453125 39.9375 15.828125 32.171875 
z
M 55.90625 25.203125 
L 14.109375 25.203125 
Q 13.8125 23.34375 13.71875 22.265625 
Q 13.625 21.1875 13.625 20.40625 
Q 13.625 13.625 17.796875 9.90625 
Q 21.96875 6.203125 29.59375 6.203125 
Q 35.453125 6.203125 40.671875 7.515625 
Q 45.90625 8.84375 50.390625 11.375 
L 48.6875 2.484375 
Q 43.84375 0.53125 38.6875 -0.4375 
Q 33.546875 -1.421875 28.21875 -1.421875 
Q 16.84375 -1.421875 10.71875 4.015625 
Q 4.59375 9.46875 4.59375 19.484375 
Q 4.59375 28.03125 7.640625 35.375 
Q 10.6875 42.71875 16.609375 48.484375 
Q 20.40625 52.09375 25.65625 54.046875 
Q 30.90625 56 36.8125 56 
Q 46.09375 56 51.578125 50.4375 
Q 57.078125 44.875 57.078125 35.5 
Q 57.078125 33.25 56.78125 30.6875 
Q 56.5 28.125 55.90625 25.203125 
z
" id="DejaVuSans-Oblique-101"/>
       <path d="M 18.3125 75.984375 
L 27.296875 75.984375 
L 12.5 0 
L 3.515625 0 
z
" id="DejaVuSans-Oblique-108"/>
       <path d="M 24.8125 -5.078125 
Q 18.5625 -15.578125 14.625 -18.1875 
Q 10.6875 -20.796875 4.59375 -20.796875 
L -2.484375 -20.796875 
L -0.984375 -13.28125 
L 4.203125 -13.28125 
Q 7.953125 -13.28125 10.59375 -11.234375 
Q 13.234375 -9.1875 16.5 -3.21875 
L 19.28125 2 
L 7.171875 54.6875 
L 16.703125 54.6875 
L 25.78125 12.796875 
L 50.875 54.6875 
L 60.296875 54.6875 
z
" id="DejaVuSans-Oblique-121"/>
       <path d="M 44.578125 46.390625 
Q 43.21875 47.125 41.453125 47.515625 
Q 39.703125 47.90625 37.703125 47.90625 
Q 30.515625 47.90625 25.140625 42.453125 
Q 19.78125 37.015625 18.015625 27.875 
L 12.5 0 
L 3.515625 0 
L 14.203125 54.6875 
L 23.1875 54.6875 
L 21.484375 46.1875 
Q 25.046875 50.921875 30 53.453125 
Q 34.96875 56 40.578125 56 
Q 42.046875 56 43.453125 55.828125 
Q 44.875 55.671875 46.296875 55.28125 
z
" id="DejaVuSans-Oblique-114"/>
      </defs>
      <use transform="translate(0 0.265625)" xlink:href="#DejaVuSans-Oblique-963"/>
      <use transform="translate(63.378906 -16.140625)scale(0.7)" xlink:href="#DejaVuSans-Oblique-71"/>
      <use transform="translate(117.62207 -16.140625)scale(0.7)" xlink:href="#DejaVuSans-Oblique-97"/>
      <use transform="translate(160.517578 -16.140625)scale(0.7)" xlink:href="#DejaVuSans-Oblique-117"/>
      <use transform="translate(204.882812 -16.140625)scale(0.7)" xlink:href="#DejaVuSans-Oblique-115"/>
      <use transform="translate(241.352539 -16.140625)scale(0.7)" xlink:href="#DejaVuSans-Oblique-115"/>
      <use transform="translate(277.822266 -16.140625)scale(0.7)" xlink:href="#DejaVuSans-Oblique-105"/>
      <use transform="translate(297.270508 -16.140625)scale(0.7)" xlink:href="#DejaVuSans-Oblique-97"/>
      <use transform="translate(340.166016 -16.140625)scale(0.7)" xlink:href="#DejaVuSans-Oblique-110"/>
      <use transform="translate(407.260515 -16.140625)scale(0.7)" xlink:href="#DejaVuSans-Oblique-110"/>
      <use transform="translate(451.625749 -16.140625)scale(0.7)" xlink:href="#DejaVuSans-Oblique-111"/>
      <use transform="translate(494.452898 -16.140625)scale(0.7)" xlink:href="#DejaVuSans-Oblique-105"/>
      <use transform="translate(513.90114 -16.140625)scale(0.7)" xlink:href="#DejaVuSans-Oblique-115"/>
      <use transform="translate(550.370866 -16.140625)scale(0.7)" xlink:href="#DejaVuSans-Oblique-101"/>
      <use transform="translate(616.166538 -16.140625)scale(0.7)" xlink:href="#DejaVuSans-Oblique-108"/>
      <use transform="translate(635.61478 -16.140625)scale(0.7)" xlink:href="#DejaVuSans-Oblique-97"/>
      <use transform="translate(678.510288 -16.140625)scale(0.7)" xlink:href="#DejaVuSans-Oblique-121"/>
      <use transform="translate(719.936069 -16.140625)scale(0.7)" xlink:href="#DejaVuSans-Oblique-101"/>
      <use transform="translate(763.002475 -16.140625)scale(0.7)" xlink:href="#DejaVuSans-Oblique-114"/>
     </g>
     <!--   -->
     <g transform="translate(427.89 514.18975)scale(0.16 -0.16)">
      <use xlink:href="#DejaVuSans-32"/>
     </g>
     <!--   -->
     <g transform="translate(427.89 532.10625)scale(0.16 -0.16)">
      <use xlink:href="#DejaVuSans-32"/>
     </g>
    </g>
   </g>
   <g id="matplotlib.axis_2">
    <g id="ytick_1">
     <g id="line2d_10">
      <path clip-path="url(#paa77460b3c)" d="M 70.4325 438.07875 
L 790.4325 438.07875 
" style="fill:none;stroke:#b0b0b0;stroke-linecap:square;stroke-width:0.8;"/>
     </g>
     <g id="line2d_11">
      <defs>
       <path d="M 0 0 
L -3.5 0 
" id="mcc70ca9b66" style="stroke:#000000;stroke-width:0.8;"/>
      </defs>
      <g>
       <use style="stroke:#000000;stroke-width:0.8;" x="70.4325" xlink:href="#mcc70ca9b66" y="438.07875"/>
      </g>
     </g>
     <g id="text_11">
      <!-- −175 -->
      <g transform="translate(19.485 444.1575)scale(0.16 -0.16)">
       <defs>
        <path d="M 10.59375 35.5 
L 73.1875 35.5 
L 73.1875 27.203125 
L 10.59375 27.203125 
z
" id="DejaVuSans-8722"/>
        <path d="M 8.203125 72.90625 
L 55.078125 72.90625 
L 55.078125 68.703125 
L 28.609375 0 
L 18.3125 0 
L 43.21875 64.59375 
L 8.203125 64.59375 
z
" id="DejaVuSans-55"/>
       </defs>
       <use xlink:href="#DejaVuSans-8722"/>
       <use x="83.789062" xlink:href="#DejaVuSans-49"/>
       <use x="147.412109" xlink:href="#DejaVuSans-55"/>
       <use x="211.035156" xlink:href="#DejaVuSans-53"/>
      </g>
     </g>
    </g>
    <g id="ytick_2">
     <g id="line2d_12">
      <path clip-path="url(#paa77460b3c)" d="M 70.4325 398.806023 
L 790.4325 398.806023 
" style="fill:none;stroke:#b0b0b0;stroke-linecap:square;stroke-width:0.8;"/>
     </g>
     <g id="line2d_13">
      <g>
       <use style="stroke:#000000;stroke-width:0.8;" x="70.4325" xlink:href="#mcc70ca9b66" y="398.806023"/>
      </g>
     </g>
     <g id="text_12">
      <!-- −150 -->
      <g transform="translate(19.485 404.884773)scale(0.16 -0.16)">
       <use xlink:href="#DejaVuSans-8722"/>
       <use x="83.789062" xlink:href="#DejaVuSans-49"/>
       <use x="147.412109" xlink:href="#DejaVuSans-53"/>
       <use x="211.035156" xlink:href="#DejaVuSans-48"/>
      </g>
     </g>
    </g>
    <g id="ytick_3">
     <g id="line2d_14">
      <path clip-path="url(#paa77460b3c)" d="M 70.4325 359.533295 
L 790.4325 359.533295 
" style="fill:none;stroke:#b0b0b0;stroke-linecap:square;stroke-width:0.8;"/>
     </g>
     <g id="line2d_15">
      <g>
       <use style="stroke:#000000;stroke-width:0.8;" x="70.4325" xlink:href="#mcc70ca9b66" y="359.533295"/>
      </g>
     </g>
     <g id="text_13">
      <!-- −125 -->
      <g transform="translate(19.485 365.612045)scale(0.16 -0.16)">
       <use xlink:href="#DejaVuSans-8722"/>
       <use x="83.789062" xlink:href="#DejaVuSans-49"/>
       <use x="147.412109" xlink:href="#DejaVuSans-50"/>
       <use x="211.035156" xlink:href="#DejaVuSans-53"/>
      </g>
     </g>
    </g>
    <g id="ytick_4">
     <g id="line2d_16">
      <path clip-path="url(#paa77460b3c)" d="M 70.4325 320.260568 
L 790.4325 320.260568 
" style="fill:none;stroke:#b0b0b0;stroke-linecap:square;stroke-width:0.8;"/>
     </g>
     <g id="line2d_17">
      <g>
       <use style="stroke:#000000;stroke-width:0.8;" x="70.4325" xlink:href="#mcc70ca9b66" y="320.260568"/>
      </g>
     </g>
     <g id="text_14">
      <!-- −100 -->
      <g transform="translate(19.485 326.339318)scale(0.16 -0.16)">
       <use xlink:href="#DejaVuSans-8722"/>
       <use x="83.789062" xlink:href="#DejaVuSans-49"/>
       <use x="147.412109" xlink:href="#DejaVuSans-48"/>
       <use x="211.035156" xlink:href="#DejaVuSans-48"/>
      </g>
     </g>
    </g>
    <g id="ytick_5">
     <g id="line2d_18">
      <path clip-path="url(#paa77460b3c)" d="M 70.4325 280.987841 
L 790.4325 280.987841 
" style="fill:none;stroke:#b0b0b0;stroke-linecap:square;stroke-width:0.8;"/>
     </g>
     <g id="line2d_19">
      <g>
       <use style="stroke:#000000;stroke-width:0.8;" x="70.4325" xlink:href="#mcc70ca9b66" y="280.987841"/>
      </g>
     </g>
     <g id="text_15">
      <!-- −75 -->
      <g transform="translate(29.665 287.066591)scale(0.16 -0.16)">
       <use xlink:href="#DejaVuSans-8722"/>
       <use x="83.789062" xlink:href="#DejaVuSans-55"/>
       <use x="147.412109" xlink:href="#DejaVuSans-53"/>
      </g>
     </g>
    </g>
    <g id="ytick_6">
     <g id="line2d_20">
      <path clip-path="url(#paa77460b3c)" d="M 70.4325 241.715114 
L 790.4325 241.715114 
" style="fill:none;stroke:#b0b0b0;stroke-linecap:square;stroke-width:0.8;"/>
     </g>
     <g id="line2d_21">
      <g>
       <use style="stroke:#000000;stroke-width:0.8;" x="70.4325" xlink:href="#mcc70ca9b66" y="241.715114"/>
      </g>
     </g>
     <g id="text_16">
      <!-- −50 -->
      <g transform="translate(29.665 247.793864)scale(0.16 -0.16)">
       <use xlink:href="#DejaVuSans-8722"/>
       <use x="83.789062" xlink:href="#DejaVuSans-53"/>
       <use x="147.412109" xlink:href="#DejaVuSans-48"/>
      </g>
     </g>
    </g>
    <g id="ytick_7">
     <g id="line2d_22">
      <path clip-path="url(#paa77460b3c)" d="M 70.4325 202.442386 
L 790.4325 202.442386 
" style="fill:none;stroke:#b0b0b0;stroke-linecap:square;stroke-width:0.8;"/>
     </g>
     <g id="line2d_23">
      <g>
       <use style="stroke:#000000;stroke-width:0.8;" x="70.4325" xlink:href="#mcc70ca9b66" y="202.442386"/>
      </g>
     </g>
     <g id="text_17">
      <!-- −25 -->
      <g transform="translate(29.665 208.521136)scale(0.16 -0.16)">
       <use xlink:href="#DejaVuSans-8722"/>
       <use x="83.789062" xlink:href="#DejaVuSans-50"/>
       <use x="147.412109" xlink:href="#DejaVuSans-53"/>
      </g>
     </g>
    </g>
    <g id="ytick_8">
     <g id="line2d_24">
      <path clip-path="url(#paa77460b3c)" d="M 70.4325 163.169659 
L 790.4325 163.169659 
" style="fill:none;stroke:#b0b0b0;stroke-linecap:square;stroke-width:0.8;"/>
     </g>
     <g id="line2d_25">
      <g>
       <use style="stroke:#000000;stroke-width:0.8;" x="70.4325" xlink:href="#mcc70ca9b66" y="163.169659"/>
      </g>
     </g>
     <g id="text_18">
      <!-- 0 -->
      <g transform="translate(53.2525 169.248409)scale(0.16 -0.16)">
       <use xlink:href="#DejaVuSans-48"/>
      </g>
     </g>
    </g>
    <g id="ytick_9">
     <g id="line2d_26">
      <path clip-path="url(#paa77460b3c)" d="M 70.4325 123.896932 
L 790.4325 123.896932 
" style="fill:none;stroke:#b0b0b0;stroke-linecap:square;stroke-width:0.8;"/>
     </g>
     <g id="line2d_27">
      <g>
       <use style="stroke:#000000;stroke-width:0.8;" x="70.4325" xlink:href="#mcc70ca9b66" y="123.896932"/>
      </g>
     </g>
     <g id="text_19">
      <!-- 25 -->
      <g transform="translate(43.0725 129.975682)scale(0.16 -0.16)">
       <use xlink:href="#DejaVuSans-50"/>
       <use x="63.623047" xlink:href="#DejaVuSans-53"/>
      </g>
     </g>
    </g>
    <g id="ytick_10">
     <g id="line2d_28">
      <path clip-path="url(#paa77460b3c)" d="M 70.4325 84.624205 
L 790.4325 84.624205 
" style="fill:none;stroke:#b0b0b0;stroke-linecap:square;stroke-width:0.8;"/>
     </g>
     <g id="line2d_29">
      <g>
       <use style="stroke:#000000;stroke-width:0.8;" x="70.4325" xlink:href="#mcc70ca9b66" y="84.624205"/>
      </g>
     </g>
     <g id="text_20">
      <!-- 50 -->
      <g transform="translate(43.0725 90.702955)scale(0.16 -0.16)">
       <use xlink:href="#DejaVuSans-53"/>
       <use x="63.623047" xlink:href="#DejaVuSans-48"/>
      </g>
     </g>
    </g>
    <g id="ytick_11">
     <g id="line2d_30">
      <path clip-path="url(#paa77460b3c)" d="M 70.4325 45.351477 
L 790.4325 45.351477 
" style="fill:none;stroke:#b0b0b0;stroke-linecap:square;stroke-width:0.8;"/>
     </g>
     <g id="line2d_31">
      <g>
       <use style="stroke:#000000;stroke-width:0.8;" x="70.4325" xlink:href="#mcc70ca9b66" y="45.351477"/>
      </g>
     </g>
     <g id="text_21">
      <!-- 75 -->
      <g transform="translate(43.0725 51.430227)scale(0.16 -0.16)">
       <use xlink:href="#DejaVuSans-55"/>
       <use x="63.623047" xlink:href="#DejaVuSans-53"/>
      </g>
     </g>
    </g>
    <g id="ytick_12">
     <g id="line2d_32">
      <path clip-path="url(#paa77460b3c)" d="M 70.4325 6.07875 
L 790.4325 6.07875 
" style="fill:none;stroke:#b0b0b0;stroke-linecap:square;stroke-width:0.8;"/>
     </g>
     <g id="line2d_33">
      <g>
       <use style="stroke:#000000;stroke-width:0.8;" x="70.4325" xlink:href="#mcc70ca9b66" y="6.07875"/>
      </g>
     </g>
     <g id="text_22">
      <!-- 100 -->
      <g transform="translate(32.8925 12.1575)scale(0.16 -0.16)">
       <use xlink:href="#DejaVuSans-49"/>
       <use x="63.623047" xlink:href="#DejaVuSans-48"/>
       <use x="127.246094" xlink:href="#DejaVuSans-48"/>
      </g>
     </g>
    </g>
    <g id="ytick_13">
     <g id="line2d_34">
      <path clip-path="url(#paa77460b3c)" d="M 70.4325 430.224205 
L 790.4325 430.224205 
" style="fill:none;stroke:#b0b0b0;stroke-linecap:square;stroke-opacity:0.3;"/>
     </g>
     <g id="line2d_35">
      <defs>
       <path d="M 0 0 
L -2 0 
" id="mb787ef62a3" style="stroke:#000000;stroke-width:0.6;"/>
      </defs>
      <g>
       <use style="stroke:#000000;stroke-width:0.6;" x="70.4325" xlink:href="#mb787ef62a3" y="430.224205"/>
      </g>
     </g>
    </g>
    <g id="ytick_14">
     <g id="line2d_36">
      <path clip-path="url(#paa77460b3c)" d="M 70.4325 422.369659 
L 790.4325 422.369659 
" style="fill:none;stroke:#b0b0b0;stroke-linecap:square;stroke-opacity:0.3;"/>
     </g>
     <g id="line2d_37">
      <g>
       <use style="stroke:#000000;stroke-width:0.6;" x="70.4325" xlink:href="#mb787ef62a3" y="422.369659"/>
      </g>
     </g>
    </g>
    <g id="ytick_15">
     <g id="line2d_38">
      <path clip-path="url(#paa77460b3c)" d="M 70.4325 414.515114 
L 790.4325 414.515114 
" style="fill:none;stroke:#b0b0b0;stroke-linecap:square;stroke-opacity:0.3;"/>
     </g>
     <g id="line2d_39">
      <g>
       <use style="stroke:#000000;stroke-width:0.6;" x="70.4325" xlink:href="#mb787ef62a3" y="414.515114"/>
      </g>
     </g>
    </g>
    <g id="ytick_16">
     <g id="line2d_40">
      <path clip-path="url(#paa77460b3c)" d="M 70.4325 406.660568 
L 790.4325 406.660568 
" style="fill:none;stroke:#b0b0b0;stroke-linecap:square;stroke-opacity:0.3;"/>
     </g>
     <g id="line2d_41">
      <g>
       <use style="stroke:#000000;stroke-width:0.6;" x="70.4325" xlink:href="#mb787ef62a3" y="406.660568"/>
      </g>
     </g>
    </g>
    <g id="ytick_17">
     <g id="line2d_42">
      <path clip-path="url(#paa77460b3c)" d="M 70.4325 390.951477 
L 790.4325 390.951477 
" style="fill:none;stroke:#b0b0b0;stroke-linecap:square;stroke-opacity:0.3;"/>
     </g>
     <g id="line2d_43">
      <g>
       <use style="stroke:#000000;stroke-width:0.6;" x="70.4325" xlink:href="#mb787ef62a3" y="390.951477"/>
      </g>
     </g>
    </g>
    <g id="ytick_18">
     <g id="line2d_44">
      <path clip-path="url(#paa77460b3c)" d="M 70.4325 383.096932 
L 790.4325 383.096932 
" style="fill:none;stroke:#b0b0b0;stroke-linecap:square;stroke-opacity:0.3;"/>
     </g>
     <g id="line2d_45">
      <g>
       <use style="stroke:#000000;stroke-width:0.6;" x="70.4325" xlink:href="#mb787ef62a3" y="383.096932"/>
      </g>
     </g>
    </g>
    <g id="ytick_19">
     <g id="line2d_46">
      <path clip-path="url(#paa77460b3c)" d="M 70.4325 375.242386 
L 790.4325 375.242386 
" style="fill:none;stroke:#b0b0b0;stroke-linecap:square;stroke-opacity:0.3;"/>
     </g>
     <g id="line2d_47">
      <g>
       <use style="stroke:#000000;stroke-width:0.6;" x="70.4325" xlink:href="#mb787ef62a3" y="375.242386"/>
      </g>
     </g>
    </g>
    <g id="ytick_20">
     <g id="line2d_48">
      <path clip-path="url(#paa77460b3c)" d="M 70.4325 367.387841 
L 790.4325 367.387841 
" style="fill:none;stroke:#b0b0b0;stroke-linecap:square;stroke-opacity:0.3;"/>
     </g>
     <g id="line2d_49">
      <g>
       <use style="stroke:#000000;stroke-width:0.6;" x="70.4325" xlink:href="#mb787ef62a3" y="367.387841"/>
      </g>
     </g>
    </g>
    <g id="ytick_21">
     <g id="line2d_50">
      <path clip-path="url(#paa77460b3c)" d="M 70.4325 351.67875 
L 790.4325 351.67875 
" style="fill:none;stroke:#b0b0b0;stroke-linecap:square;stroke-opacity:0.3;"/>
     </g>
     <g id="line2d_51">
      <g>
       <use style="stroke:#000000;stroke-width:0.6;" x="70.4325" xlink:href="#mb787ef62a3" y="351.67875"/>
      </g>
     </g>
    </g>
    <g id="ytick_22">
     <g id="line2d_52">
      <path clip-path="url(#paa77460b3c)" d="M 70.4325 343.824205 
L 790.4325 343.824205 
" style="fill:none;stroke:#b0b0b0;stroke-linecap:square;stroke-opacity:0.3;"/>
     </g>
     <g id="line2d_53">
      <g>
       <use style="stroke:#000000;stroke-width:0.6;" x="70.4325" xlink:href="#mb787ef62a3" y="343.824205"/>
      </g>
     </g>
    </g>
    <g id="ytick_23">
     <g id="line2d_54">
      <path clip-path="url(#paa77460b3c)" d="M 70.4325 335.969659 
L 790.4325 335.969659 
" style="fill:none;stroke:#b0b0b0;stroke-linecap:square;stroke-opacity:0.3;"/>
     </g>
     <g id="line2d_55">
      <g>
       <use style="stroke:#000000;stroke-width:0.6;" x="70.4325" xlink:href="#mb787ef62a3" y="335.969659"/>
      </g>
     </g>
    </g>
    <g id="ytick_24">
     <g id="line2d_56">
      <path clip-path="url(#paa77460b3c)" d="M 70.4325 328.115114 
L 790.4325 328.115114 
" style="fill:none;stroke:#b0b0b0;stroke-linecap:square;stroke-opacity:0.3;"/>
     </g>
     <g id="line2d_57">
      <g>
       <use style="stroke:#000000;stroke-width:0.6;" x="70.4325" xlink:href="#mb787ef62a3" y="328.115114"/>
      </g>
     </g>
    </g>
    <g id="ytick_25">
     <g id="line2d_58">
      <path clip-path="url(#paa77460b3c)" d="M 70.4325 312.406023 
L 790.4325 312.406023 
" style="fill:none;stroke:#b0b0b0;stroke-linecap:square;stroke-opacity:0.3;"/>
     </g>
     <g id="line2d_59">
      <g>
       <use style="stroke:#000000;stroke-width:0.6;" x="70.4325" xlink:href="#mb787ef62a3" y="312.406023"/>
      </g>
     </g>
    </g>
    <g id="ytick_26">
     <g id="line2d_60">
      <path clip-path="url(#paa77460b3c)" d="M 70.4325 304.551477 
L 790.4325 304.551477 
" style="fill:none;stroke:#b0b0b0;stroke-linecap:square;stroke-opacity:0.3;"/>
     </g>
     <g id="line2d_61">
      <g>
       <use style="stroke:#000000;stroke-width:0.6;" x="70.4325" xlink:href="#mb787ef62a3" y="304.551477"/>
      </g>
     </g>
    </g>
    <g id="ytick_27">
     <g id="line2d_62">
      <path clip-path="url(#paa77460b3c)" d="M 70.4325 296.696932 
L 790.4325 296.696932 
" style="fill:none;stroke:#b0b0b0;stroke-linecap:square;stroke-opacity:0.3;"/>
     </g>
     <g id="line2d_63">
      <g>
       <use style="stroke:#000000;stroke-width:0.6;" x="70.4325" xlink:href="#mb787ef62a3" y="296.696932"/>
      </g>
     </g>
    </g>
    <g id="ytick_28">
     <g id="line2d_64">
      <path clip-path="url(#paa77460b3c)" d="M 70.4325 288.842386 
L 790.4325 288.842386 
" style="fill:none;stroke:#b0b0b0;stroke-linecap:square;stroke-opacity:0.3;"/>
     </g>
     <g id="line2d_65">
      <g>
       <use style="stroke:#000000;stroke-width:0.6;" x="70.4325" xlink:href="#mb787ef62a3" y="288.842386"/>
      </g>
     </g>
    </g>
    <g id="ytick_29">
     <g id="line2d_66">
      <path clip-path="url(#paa77460b3c)" d="M 70.4325 273.133295 
L 790.4325 273.133295 
" style="fill:none;stroke:#b0b0b0;stroke-linecap:square;stroke-opacity:0.3;"/>
     </g>
     <g id="line2d_67">
      <g>
       <use style="stroke:#000000;stroke-width:0.6;" x="70.4325" xlink:href="#mb787ef62a3" y="273.133295"/>
      </g>
     </g>
    </g>
    <g id="ytick_30">
     <g id="line2d_68">
      <path clip-path="url(#paa77460b3c)" d="M 70.4325 265.27875 
L 790.4325 265.27875 
" style="fill:none;stroke:#b0b0b0;stroke-linecap:square;stroke-opacity:0.3;"/>
     </g>
     <g id="line2d_69">
      <g>
       <use style="stroke:#000000;stroke-width:0.6;" x="70.4325" xlink:href="#mb787ef62a3" y="265.27875"/>
      </g>
     </g>
    </g>
    <g id="ytick_31">
     <g id="line2d_70">
      <path clip-path="url(#paa77460b3c)" d="M 70.4325 257.424205 
L 790.4325 257.424205 
" style="fill:none;stroke:#b0b0b0;stroke-linecap:square;stroke-opacity:0.3;"/>
     </g>
     <g id="line2d_71">
      <g>
       <use style="stroke:#000000;stroke-width:0.6;" x="70.4325" xlink:href="#mb787ef62a3" y="257.424205"/>
      </g>
     </g>
    </g>
    <g id="ytick_32">
     <g id="line2d_72">
      <path clip-path="url(#paa77460b3c)" d="M 70.4325 249.569659 
L 790.4325 249.569659 
" style="fill:none;stroke:#b0b0b0;stroke-linecap:square;stroke-opacity:0.3;"/>
     </g>
     <g id="line2d_73">
      <g>
       <use style="stroke:#000000;stroke-width:0.6;" x="70.4325" xlink:href="#mb787ef62a3" y="249.569659"/>
      </g>
     </g>
    </g>
    <g id="ytick_33">
     <g id="line2d_74">
      <path clip-path="url(#paa77460b3c)" d="M 70.4325 233.860568 
L 790.4325 233.860568 
" style="fill:none;stroke:#b0b0b0;stroke-linecap:square;stroke-opacity:0.3;"/>
     </g>
     <g id="line2d_75">
      <g>
       <use style="stroke:#000000;stroke-width:0.6;" x="70.4325" xlink:href="#mb787ef62a3" y="233.860568"/>
      </g>
     </g>
    </g>
    <g id="ytick_34">
     <g id="line2d_76">
      <path clip-path="url(#paa77460b3c)" d="M 70.4325 226.006023 
L 790.4325 226.006023 
" style="fill:none;stroke:#b0b0b0;stroke-linecap:square;stroke-opacity:0.3;"/>
     </g>
     <g id="line2d_77">
      <g>
       <use style="stroke:#000000;stroke-width:0.6;" x="70.4325" xlink:href="#mb787ef62a3" y="226.006023"/>
      </g>
     </g>
    </g>
    <g id="ytick_35">
     <g id="line2d_78">
      <path clip-path="url(#paa77460b3c)" d="M 70.4325 218.151477 
L 790.4325 218.151477 
" style="fill:none;stroke:#b0b0b0;stroke-linecap:square;stroke-opacity:0.3;"/>
     </g>
     <g id="line2d_79">
      <g>
       <use style="stroke:#000000;stroke-width:0.6;" x="70.4325" xlink:href="#mb787ef62a3" y="218.151477"/>
      </g>
     </g>
    </g>
    <g id="ytick_36">
     <g id="line2d_80">
      <path clip-path="url(#paa77460b3c)" d="M 70.4325 210.296932 
L 790.4325 210.296932 
" style="fill:none;stroke:#b0b0b0;stroke-linecap:square;stroke-opacity:0.3;"/>
     </g>
     <g id="line2d_81">
      <g>
       <use style="stroke:#000000;stroke-width:0.6;" x="70.4325" xlink:href="#mb787ef62a3" y="210.296932"/>
      </g>
     </g>
    </g>
    <g id="ytick_37">
     <g id="line2d_82">
      <path clip-path="url(#paa77460b3c)" d="M 70.4325 194.587841 
L 790.4325 194.587841 
" style="fill:none;stroke:#b0b0b0;stroke-linecap:square;stroke-opacity:0.3;"/>
     </g>
     <g id="line2d_83">
      <g>
       <use style="stroke:#000000;stroke-width:0.6;" x="70.4325" xlink:href="#mb787ef62a3" y="194.587841"/>
      </g>
     </g>
    </g>
    <g id="ytick_38">
     <g id="line2d_84">
      <path clip-path="url(#paa77460b3c)" d="M 70.4325 186.733295 
L 790.4325 186.733295 
" style="fill:none;stroke:#b0b0b0;stroke-linecap:square;stroke-opacity:0.3;"/>
     </g>
     <g id="line2d_85">
      <g>
       <use style="stroke:#000000;stroke-width:0.6;" x="70.4325" xlink:href="#mb787ef62a3" y="186.733295"/>
      </g>
     </g>
    </g>
    <g id="ytick_39">
     <g id="line2d_86">
      <path clip-path="url(#paa77460b3c)" d="M 70.4325 178.87875 
L 790.4325 178.87875 
" style="fill:none;stroke:#b0b0b0;stroke-linecap:square;stroke-opacity:0.3;"/>
     </g>
     <g id="line2d_87">
      <g>
       <use style="stroke:#000000;stroke-width:0.6;" x="70.4325" xlink:href="#mb787ef62a3" y="178.87875"/>
      </g>
     </g>
    </g>
    <g id="ytick_40">
     <g id="line2d_88">
      <path clip-path="url(#paa77460b3c)" d="M 70.4325 171.024205 
L 790.4325 171.024205 
" style="fill:none;stroke:#b0b0b0;stroke-linecap:square;stroke-opacity:0.3;"/>
     </g>
     <g id="line2d_89">
      <g>
       <use style="stroke:#000000;stroke-width:0.6;" x="70.4325" xlink:href="#mb787ef62a3" y="171.024205"/>
      </g>
     </g>
    </g>
    <g id="ytick_41">
     <g id="line2d_90">
      <path clip-path="url(#paa77460b3c)" d="M 70.4325 155.315114 
L 790.4325 155.315114 
" style="fill:none;stroke:#b0b0b0;stroke-linecap:square;stroke-opacity:0.3;"/>
     </g>
     <g id="line2d_91">
      <g>
       <use style="stroke:#000000;stroke-width:0.6;" x="70.4325" xlink:href="#mb787ef62a3" y="155.315114"/>
      </g>
     </g>
    </g>
    <g id="ytick_42">
     <g id="line2d_92">
      <path clip-path="url(#paa77460b3c)" d="M 70.4325 147.460568 
L 790.4325 147.460568 
" style="fill:none;stroke:#b0b0b0;stroke-linecap:square;stroke-opacity:0.3;"/>
     </g>
     <g id="line2d_93">
      <g>
       <use style="stroke:#000000;stroke-width:0.6;" x="70.4325" xlink:href="#mb787ef62a3" y="147.460568"/>
      </g>
     </g>
    </g>
    <g id="ytick_43">
     <g id="line2d_94">
      <path clip-path="url(#paa77460b3c)" d="M 70.4325 139.606023 
L 790.4325 139.606023 
" style="fill:none;stroke:#b0b0b0;stroke-linecap:square;stroke-opacity:0.3;"/>
     </g>
     <g id="line2d_95">
      <g>
       <use style="stroke:#000000;stroke-width:0.6;" x="70.4325" xlink:href="#mb787ef62a3" y="139.606023"/>
      </g>
     </g>
    </g>
    <g id="ytick_44">
     <g id="line2d_96">
      <path clip-path="url(#paa77460b3c)" d="M 70.4325 131.751477 
L 790.4325 131.751477 
" style="fill:none;stroke:#b0b0b0;stroke-linecap:square;stroke-opacity:0.3;"/>
     </g>
     <g id="line2d_97">
      <g>
       <use style="stroke:#000000;stroke-width:0.6;" x="70.4325" xlink:href="#mb787ef62a3" y="131.751477"/>
      </g>
     </g>
    </g>
    <g id="ytick_45">
     <g id="line2d_98">
      <path clip-path="url(#paa77460b3c)" d="M 70.4325 116.042386 
L 790.4325 116.042386 
" style="fill:none;stroke:#b0b0b0;stroke-linecap:square;stroke-opacity:0.3;"/>
     </g>
     <g id="line2d_99">
      <g>
       <use style="stroke:#000000;stroke-width:0.6;" x="70.4325" xlink:href="#mb787ef62a3" y="116.042386"/>
      </g>
     </g>
    </g>
    <g id="ytick_46">
     <g id="line2d_100">
      <path clip-path="url(#paa77460b3c)" d="M 70.4325 108.187841 
L 790.4325 108.187841 
" style="fill:none;stroke:#b0b0b0;stroke-linecap:square;stroke-opacity:0.3;"/>
     </g>
     <g id="line2d_101">
      <g>
       <use style="stroke:#000000;stroke-width:0.6;" x="70.4325" xlink:href="#mb787ef62a3" y="108.187841"/>
      </g>
     </g>
    </g>
    <g id="ytick_47">
     <g id="line2d_102">
      <path clip-path="url(#paa77460b3c)" d="M 70.4325 100.333295 
L 790.4325 100.333295 
" style="fill:none;stroke:#b0b0b0;stroke-linecap:square;stroke-opacity:0.3;"/>
     </g>
     <g id="line2d_103">
      <g>
       <use style="stroke:#000000;stroke-width:0.6;" x="70.4325" xlink:href="#mb787ef62a3" y="100.333295"/>
      </g>
     </g>
    </g>
    <g id="ytick_48">
     <g id="line2d_104">
      <path clip-path="url(#paa77460b3c)" d="M 70.4325 92.47875 
L 790.4325 92.47875 
" style="fill:none;stroke:#b0b0b0;stroke-linecap:square;stroke-opacity:0.3;"/>
     </g>
     <g id="line2d_105">
      <g>
       <use style="stroke:#000000;stroke-width:0.6;" x="70.4325" xlink:href="#mb787ef62a3" y="92.47875"/>
      </g>
     </g>
    </g>
    <g id="ytick_49">
     <g id="line2d_106">
      <path clip-path="url(#paa77460b3c)" d="M 70.4325 76.769659 
L 790.4325 76.769659 
" style="fill:none;stroke:#b0b0b0;stroke-linecap:square;stroke-opacity:0.3;"/>
     </g>
     <g id="line2d_107">
      <g>
       <use style="stroke:#000000;stroke-width:0.6;" x="70.4325" xlink:href="#mb787ef62a3" y="76.769659"/>
      </g>
     </g>
    </g>
    <g id="ytick_50">
     <g id="line2d_108">
      <path clip-path="url(#paa77460b3c)" d="M 70.4325 68.915114 
L 790.4325 68.915114 
" style="fill:none;stroke:#b0b0b0;stroke-linecap:square;stroke-opacity:0.3;"/>
     </g>
     <g id="line2d_109">
      <g>
       <use style="stroke:#000000;stroke-width:0.6;" x="70.4325" xlink:href="#mb787ef62a3" y="68.915114"/>
      </g>
     </g>
    </g>
    <g id="ytick_51">
     <g id="line2d_110">
      <path clip-path="url(#paa77460b3c)" d="M 70.4325 61.060568 
L 790.4325 61.060568 
" style="fill:none;stroke:#b0b0b0;stroke-linecap:square;stroke-opacity:0.3;"/>
     </g>
     <g id="line2d_111">
      <g>
       <use style="stroke:#000000;stroke-width:0.6;" x="70.4325" xlink:href="#mb787ef62a3" y="61.060568"/>
      </g>
     </g>
    </g>
    <g id="ytick_52">
     <g id="line2d_112">
      <path clip-path="url(#paa77460b3c)" d="M 70.4325 53.206023 
L 790.4325 53.206023 
" style="fill:none;stroke:#b0b0b0;stroke-linecap:square;stroke-opacity:0.3;"/>
     </g>
     <g id="line2d_113">
      <g>
       <use style="stroke:#000000;stroke-width:0.6;" x="70.4325" xlink:href="#mb787ef62a3" y="53.206023"/>
      </g>
     </g>
    </g>
    <g id="ytick_53">
     <g id="line2d_114">
      <path clip-path="url(#paa77460b3c)" d="M 70.4325 37.496932 
L 790.4325 37.496932 
" style="fill:none;stroke:#b0b0b0;stroke-linecap:square;stroke-opacity:0.3;"/>
     </g>
     <g id="line2d_115">
      <g>
       <use style="stroke:#000000;stroke-width:0.6;" x="70.4325" xlink:href="#mb787ef62a3" y="37.496932"/>
      </g>
     </g>
    </g>
    <g id="ytick_54">
     <g id="line2d_116">
      <path clip-path="url(#paa77460b3c)" d="M 70.4325 29.642386 
L 790.4325 29.642386 
" style="fill:none;stroke:#b0b0b0;stroke-linecap:square;stroke-opacity:0.3;"/>
     </g>
     <g id="line2d_117">
      <g>
       <use style="stroke:#000000;stroke-width:0.6;" x="70.4325" xlink:href="#mb787ef62a3" y="29.642386"/>
      </g>
     </g>
    </g>
    <g id="ytick_55">
     <g id="line2d_118">
      <path clip-path="url(#paa77460b3c)" d="M 70.4325 21.787841 
L 790.4325 21.787841 
" style="fill:none;stroke:#b0b0b0;stroke-linecap:square;stroke-opacity:0.3;"/>
     </g>
     <g id="line2d_119">
      <g>
       <use style="stroke:#000000;stroke-width:0.6;" x="70.4325" xlink:href="#mb787ef62a3" y="21.787841"/>
      </g>
     </g>
    </g>
    <g id="ytick_56">
     <g id="line2d_120">
      <path clip-path="url(#paa77460b3c)" d="M 70.4325 13.933295 
L 790.4325 13.933295 
" style="fill:none;stroke:#b0b0b0;stroke-linecap:square;stroke-opacity:0.3;"/>
     </g>
     <g id="line2d_121">
      <g>
       <use style="stroke:#000000;stroke-width:0.6;" x="70.4325" xlink:href="#mb787ef62a3" y="13.933295"/>
      </g>
     </g>
    </g>
    <g id="text_23">
     <!-- Noise removed (%) -->
     <g transform="translate(12.1575 298.655)rotate(-90)scale(0.16 -0.16)">
      <defs>
       <path d="M 9.8125 72.90625 
L 23.09375 72.90625 
L 55.421875 11.921875 
L 55.421875 72.90625 
L 64.984375 72.90625 
L 64.984375 0 
L 51.703125 0 
L 19.390625 60.984375 
L 19.390625 0 
L 9.8125 0 
z
" id="DejaVuSans-78"/>
       <path d="M 30.609375 48.390625 
Q 23.390625 48.390625 19.1875 42.75 
Q 14.984375 37.109375 14.984375 27.296875 
Q 14.984375 17.484375 19.15625 11.84375 
Q 23.34375 6.203125 30.609375 6.203125 
Q 37.796875 6.203125 41.984375 11.859375 
Q 46.1875 17.53125 46.1875 27.296875 
Q 46.1875 37.015625 41.984375 42.703125 
Q 37.796875 48.390625 30.609375 48.390625 
z
M 30.609375 56 
Q 42.328125 56 49.015625 48.375 
Q 55.71875 40.765625 55.71875 27.296875 
Q 55.71875 13.875 49.015625 6.21875 
Q 42.328125 -1.421875 30.609375 -1.421875 
Q 18.84375 -1.421875 12.171875 6.21875 
Q 5.515625 13.875 5.515625 27.296875 
Q 5.515625 40.765625 12.171875 48.375 
Q 18.84375 56 30.609375 56 
z
" id="DejaVuSans-111"/>
       <path d="M 9.421875 54.6875 
L 18.40625 54.6875 
L 18.40625 0 
L 9.421875 0 
z
M 9.421875 75.984375 
L 18.40625 75.984375 
L 18.40625 64.59375 
L 9.421875 64.59375 
z
" id="DejaVuSans-105"/>
       <path d="M 44.28125 53.078125 
L 44.28125 44.578125 
Q 40.484375 46.53125 36.375 47.5 
Q 32.28125 48.484375 27.875 48.484375 
Q 21.1875 48.484375 17.84375 46.4375 
Q 14.5 44.390625 14.5 40.28125 
Q 14.5 37.15625 16.890625 35.375 
Q 19.28125 33.59375 26.515625 31.984375 
L 29.59375 31.296875 
Q 39.15625 29.25 43.1875 25.515625 
Q 47.21875 21.78125 47.21875 15.09375 
Q 47.21875 7.46875 41.1875 3.015625 
Q 35.15625 -1.421875 24.609375 -1.421875 
Q 20.21875 -1.421875 15.453125 -0.5625 
Q 10.6875 0.296875 5.421875 2 
L 5.421875 11.28125 
Q 10.40625 8.6875 15.234375 7.390625 
Q 20.0625 6.109375 24.8125 6.109375 
Q 31.15625 6.109375 34.5625 8.28125 
Q 37.984375 10.453125 37.984375 14.40625 
Q 37.984375 18.0625 35.515625 20.015625 
Q 33.0625 21.96875 24.703125 23.78125 
L 21.578125 24.515625 
Q 13.234375 26.265625 9.515625 29.90625 
Q 5.8125 33.546875 5.8125 39.890625 
Q 5.8125 47.609375 11.28125 51.796875 
Q 16.75 56 26.8125 56 
Q 31.78125 56 36.171875 55.265625 
Q 40.578125 54.546875 44.28125 53.078125 
z
" id="DejaVuSans-115"/>
       <path d="M 56.203125 29.59375 
L 56.203125 25.203125 
L 14.890625 25.203125 
Q 15.484375 15.921875 20.484375 11.0625 
Q 25.484375 6.203125 34.421875 6.203125 
Q 39.59375 6.203125 44.453125 7.46875 
Q 49.3125 8.734375 54.109375 11.28125 
L 54.109375 2.78125 
Q 49.265625 0.734375 44.1875 -0.34375 
Q 39.109375 -1.421875 33.890625 -1.421875 
Q 20.796875 -1.421875 13.15625 6.1875 
Q 5.515625 13.8125 5.515625 26.8125 
Q 5.515625 40.234375 12.765625 48.109375 
Q 20.015625 56 32.328125 56 
Q 43.359375 56 49.78125 48.890625 
Q 56.203125 41.796875 56.203125 29.59375 
z
M 47.21875 32.234375 
Q 47.125 39.59375 43.09375 43.984375 
Q 39.0625 48.390625 32.421875 48.390625 
Q 24.90625 48.390625 20.390625 44.140625 
Q 15.875 39.890625 15.1875 32.171875 
z
" id="DejaVuSans-101"/>
       <path d="M 41.109375 46.296875 
Q 39.59375 47.171875 37.8125 47.578125 
Q 36.03125 48 33.890625 48 
Q 26.265625 48 22.1875 43.046875 
Q 18.109375 38.09375 18.109375 28.8125 
L 18.109375 0 
L 9.078125 0 
L 9.078125 54.6875 
L 18.109375 54.6875 
L 18.109375 46.1875 
Q 20.953125 51.171875 25.484375 53.578125 
Q 30.03125 56 36.53125 56 
Q 37.453125 56 38.578125 55.875 
Q 39.703125 55.765625 41.0625 55.515625 
z
" id="DejaVuSans-114"/>
       <path d="M 52 44.1875 
Q 55.375 50.25 60.0625 53.125 
Q 64.75 56 71.09375 56 
Q 79.640625 56 84.28125 50.015625 
Q 88.921875 44.046875 88.921875 33.015625 
L 88.921875 0 
L 79.890625 0 
L 79.890625 32.71875 
Q 79.890625 40.578125 77.09375 44.375 
Q 74.3125 48.1875 68.609375 48.1875 
Q 61.625 48.1875 57.5625 43.546875 
Q 53.515625 38.921875 53.515625 30.90625 
L 53.515625 0 
L 44.484375 0 
L 44.484375 32.71875 
Q 44.484375 40.625 41.703125 44.40625 
Q 38.921875 48.1875 33.109375 48.1875 
Q 26.21875 48.1875 22.15625 43.53125 
Q 18.109375 38.875 18.109375 30.90625 
L 18.109375 0 
L 9.078125 0 
L 9.078125 54.6875 
L 18.109375 54.6875 
L 18.109375 46.1875 
Q 21.1875 51.21875 25.484375 53.609375 
Q 29.78125 56 35.6875 56 
Q 41.65625 56 45.828125 52.96875 
Q 50 49.953125 52 44.1875 
z
" id="DejaVuSans-109"/>
       <path d="M 2.984375 54.6875 
L 12.5 54.6875 
L 29.59375 8.796875 
L 46.6875 54.6875 
L 56.203125 54.6875 
L 35.6875 0 
L 23.484375 0 
z
" id="DejaVuSans-118"/>
       <path d="M 45.40625 46.390625 
L 45.40625 75.984375 
L 54.390625 75.984375 
L 54.390625 0 
L 45.40625 0 
L 45.40625 8.203125 
Q 42.578125 3.328125 38.25 0.953125 
Q 33.9375 -1.421875 27.875 -1.421875 
Q 17.96875 -1.421875 11.734375 6.484375 
Q 5.515625 14.40625 5.515625 27.296875 
Q 5.515625 40.1875 11.734375 48.09375 
Q 17.96875 56 27.875 56 
Q 33.9375 56 38.25 53.625 
Q 42.578125 51.265625 45.40625 46.390625 
z
M 14.796875 27.296875 
Q 14.796875 17.390625 18.875 11.75 
Q 22.953125 6.109375 30.078125 6.109375 
Q 37.203125 6.109375 41.296875 11.75 
Q 45.40625 17.390625 45.40625 27.296875 
Q 45.40625 37.203125 41.296875 42.84375 
Q 37.203125 48.484375 30.078125 48.484375 
Q 22.953125 48.484375 18.875 42.84375 
Q 14.796875 37.203125 14.796875 27.296875 
z
" id="DejaVuSans-100"/>
       <path d="M 72.703125 32.078125 
Q 68.453125 32.078125 66.03125 28.46875 
Q 63.625 24.859375 63.625 18.40625 
Q 63.625 12.0625 66.03125 8.421875 
Q 68.453125 4.78125 72.703125 4.78125 
Q 76.859375 4.78125 79.265625 8.421875 
Q 81.6875 12.0625 81.6875 18.40625 
Q 81.6875 24.8125 79.265625 28.4375 
Q 76.859375 32.078125 72.703125 32.078125 
z
M 72.703125 38.28125 
Q 80.421875 38.28125 84.953125 32.90625 
Q 89.5 27.546875 89.5 18.40625 
Q 89.5 9.28125 84.9375 3.921875 
Q 80.375 -1.421875 72.703125 -1.421875 
Q 64.890625 -1.421875 60.34375 3.921875 
Q 55.8125 9.28125 55.8125 18.40625 
Q 55.8125 27.59375 60.375 32.9375 
Q 64.9375 38.28125 72.703125 38.28125 
z
M 22.3125 68.015625 
Q 18.109375 68.015625 15.6875 64.375 
Q 13.28125 60.75 13.28125 54.390625 
Q 13.28125 47.953125 15.671875 44.328125 
Q 18.0625 40.71875 22.3125 40.71875 
Q 26.5625 40.71875 28.96875 44.328125 
Q 31.390625 47.953125 31.390625 54.390625 
Q 31.390625 60.6875 28.953125 64.34375 
Q 26.515625 68.015625 22.3125 68.015625 
z
M 66.40625 74.21875 
L 74.21875 74.21875 
L 28.609375 -1.421875 
L 20.796875 -1.421875 
z
M 22.3125 74.21875 
Q 30.03125 74.21875 34.609375 68.875 
Q 39.203125 63.53125 39.203125 54.390625 
Q 39.203125 45.171875 34.640625 39.84375 
Q 30.078125 34.515625 22.3125 34.515625 
Q 14.546875 34.515625 10.03125 39.859375 
Q 5.515625 45.21875 5.515625 54.390625 
Q 5.515625 63.484375 10.046875 68.84375 
Q 14.59375 74.21875 22.3125 74.21875 
z
" id="DejaVuSans-37"/>
      </defs>
      <use xlink:href="#DejaVuSans-78"/>
      <use x="74.804688" xlink:href="#DejaVuSans-111"/>
      <use x="135.986328" xlink:href="#DejaVuSans-105"/>
      <use x="163.769531" xlink:href="#DejaVuSans-115"/>
      <use x="215.869141" xlink:href="#DejaVuSans-101"/>
      <use x="277.392578" xlink:href="#DejaVuSans-32"/>
      <use x="309.179688" xlink:href="#DejaVuSans-114"/>
      <use x="348.042969" xlink:href="#DejaVuSans-101"/>
      <use x="409.566406" xlink:href="#DejaVuSans-109"/>
      <use x="506.978516" xlink:href="#DejaVuSans-111"/>
      <use x="568.160156" xlink:href="#DejaVuSans-118"/>
      <use x="627.339844" xlink:href="#DejaVuSans-101"/>
      <use x="688.863281" xlink:href="#DejaVuSans-100"/>
      <use x="752.339844" xlink:href="#DejaVuSans-32"/>
      <use x="784.126953" xlink:href="#DejaVuSans-40"/>
      <use x="823.140625" xlink:href="#DejaVuSans-37"/>
      <use x="918.160156" xlink:href="#DejaVuSans-41"/>
     </g>
    </g>
   </g>
   <g id="LineCollection_1">
    <path clip-path="url(#paa77460b3c)" d="M 74.262287 116.148263 
L 74.262287 110.590412 
" style="fill:none;stroke:#000000;stroke-width:1.5;"/>
    <path clip-path="url(#paa77460b3c)" d="M 150.858032 114.51572 
L 150.858032 104.319752 
" style="fill:none;stroke:#000000;stroke-width:1.5;"/>
    <path clip-path="url(#paa77460b3c)" d="M 227.453777 110.673649 
L 227.453777 102.151472 
" style="fill:none;stroke:#000000;stroke-width:1.5;"/>
    <path clip-path="url(#paa77460b3c)" d="M 304.049521 104.24847 
L 304.049521 97.393731 
" style="fill:none;stroke:#000000;stroke-width:1.5;"/>
    <path clip-path="url(#paa77460b3c)" d="M 380.645266 100.126455 
L 380.645266 96.202312 
" style="fill:none;stroke:#000000;stroke-width:1.5;"/>
    <path clip-path="url(#paa77460b3c)" d="M 457.241011 102.240236 
L 457.241011 99.382415 
" style="fill:none;stroke:#000000;stroke-width:1.5;"/>
    <path clip-path="url(#paa77460b3c)" d="M 533.836755 137.576083 
L 533.836755 128.994169 
" style="fill:none;stroke:#000000;stroke-width:1.5;"/>
    <path clip-path="url(#paa77460b3c)" d="M 610.4325 286.019637 
L 610.4325 276.21533 
" style="fill:none;stroke:#000000;stroke-width:1.5;"/>
    <path clip-path="url(#paa77460b3c)" d="M 687.028245 348.546007 
L 687.028245 342.796148 
" style="fill:none;stroke:#000000;stroke-width:1.5;"/>
    <path clip-path="url(#paa77460b3c)" d="M 763.623989 363.328908 
L 763.623989 356.653597 
" style="fill:none;stroke:#000000;stroke-width:1.5;"/>
   </g>
   <g id="LineCollection_2">
    <path clip-path="url(#paa77460b3c)" d="M 81.921862 163.000036 
L 81.921862 161.351547 
" style="fill:none;stroke:#000000;stroke-width:1.5;"/>
    <path clip-path="url(#paa77460b3c)" d="M 158.517606 162.256942 
L 158.517606 161.21463 
" style="fill:none;stroke:#000000;stroke-width:1.5;"/>
    <path clip-path="url(#paa77460b3c)" d="M 235.113351 160.289193 
L 235.113351 158.449659 
" style="fill:none;stroke:#000000;stroke-width:1.5;"/>
    <path clip-path="url(#paa77460b3c)" d="M 311.709096 155.327361 
L 311.709096 153.017304 
" style="fill:none;stroke:#000000;stroke-width:1.5;"/>
    <path clip-path="url(#paa77460b3c)" d="M 388.30484 149.305614 
L 388.30484 147.180175 
" style="fill:none;stroke:#000000;stroke-width:1.5;"/>
    <path clip-path="url(#paa77460b3c)" d="M 464.900585 152.160102 
L 464.900585 150.301304 
" style="fill:none;stroke:#000000;stroke-width:1.5;"/>
    <path clip-path="url(#paa77460b3c)" d="M 541.49633 201.135396 
L 541.49633 197.881631 
" style="fill:none;stroke:#000000;stroke-width:1.5;"/>
    <path clip-path="url(#paa77460b3c)" d="M 618.092074 320.582589 
L 618.092074 316.090831 
" style="fill:none;stroke:#000000;stroke-width:1.5;"/>
    <path clip-path="url(#paa77460b3c)" d="M 694.687819 357.185361 
L 694.687819 353.421647 
" style="fill:none;stroke:#000000;stroke-width:1.5;"/>
    <path clip-path="url(#paa77460b3c)" d="M 771.283564 364.767102 
L 771.283564 362.200338 
" style="fill:none;stroke:#000000;stroke-width:1.5;"/>
   </g>
   <g id="LineCollection_3">
    <path clip-path="url(#paa77460b3c)" d="M 89.581436 27.471567 
L 89.581436 24.689241 
" style="fill:none;stroke:#000000;stroke-width:1.5;"/>
    <path clip-path="url(#paa77460b3c)" d="M 166.177181 32.402246 
L 166.177181 24.527115 
" style="fill:none;stroke:#000000;stroke-width:1.5;"/>
    <path clip-path="url(#paa77460b3c)" d="M 242.772926 158.72216 
L 242.772926 137.699431 
" style="fill:none;stroke:#000000;stroke-width:1.5;"/>
    <path clip-path="url(#paa77460b3c)" d="M 319.36867 301.046418 
L 319.36867 284.323476 
" style="fill:none;stroke:#000000;stroke-width:1.5;"/>
    <path clip-path="url(#paa77460b3c)" d="M 395.964415 410.77895 
L 395.964415 396.353655 
" style="fill:none;stroke:#000000;stroke-width:1.5;"/>
    <path clip-path="url(#paa77460b3c)" d="M 472.56016 25.186641 
L 472.56016 22.909048 
" style="fill:none;stroke:#000000;stroke-width:1.5;"/>
    <path clip-path="url(#paa77460b3c)" d="M 549.155904 31.09294 
L 549.155904 25.842225 
" style="fill:none;stroke:#000000;stroke-width:1.5;"/>
    <path clip-path="url(#paa77460b3c)" d="M 625.751649 158.032249 
L 625.751649 138.694013 
" style="fill:none;stroke:#000000;stroke-width:1.5;"/>
    <path clip-path="url(#paa77460b3c)" d="M 702.347394 295.846069 
L 702.347394 285.440268 
" style="fill:none;stroke:#000000;stroke-width:1.5;"/>
    <path clip-path="url(#paa77460b3c)" d="M 778.943138 411.517949 
L 778.943138 399.964071 
" style="fill:none;stroke:#000000;stroke-width:1.5;"/>
   </g>
   <g id="LineCollection_4">
    <path clip-path="url(#paa77460b3c)" d="M 97.241011 101.674818 
L 97.241011 100.089024 
" style="fill:none;stroke:#000000;stroke-width:1.5;"/>
    <path clip-path="url(#paa77460b3c)" d="M 173.836755 91.194759 
L 173.836755 89.002171 
" style="fill:none;stroke:#000000;stroke-width:1.5;"/>
    <path clip-path="url(#paa77460b3c)" d="M 250.4325 176.605332 
L 250.4325 165.367108 
" style="fill:none;stroke:#000000;stroke-width:1.5;"/>
    <path clip-path="url(#paa77460b3c)" d="M 327.028245 336.480419 
L 327.028245 319.541941 
" style="fill:none;stroke:#000000;stroke-width:1.5;"/>
    <path clip-path="url(#paa77460b3c)" d="M 403.623989 456.849092 
L 403.623989 445.163463 
" style="fill:none;stroke:#000000;stroke-width:1.5;"/>
    <path clip-path="url(#paa77460b3c)" d="M 480.219734 101.021774 
L 480.219734 99.983292 
" style="fill:none;stroke:#000000;stroke-width:1.5;"/>
    <path clip-path="url(#paa77460b3c)" d="M 556.815479 90.483886 
L 556.815479 88.171178 
" style="fill:none;stroke:#000000;stroke-width:1.5;"/>
    <path clip-path="url(#paa77460b3c)" d="M 633.411223 186.535979 
L 633.411223 166.613561 
" style="fill:none;stroke:#000000;stroke-width:1.5;"/>
    <path clip-path="url(#paa77460b3c)" d="M 710.006968 329.255957 
L 710.006968 317.407394 
" style="fill:none;stroke:#000000;stroke-width:1.5;"/>
    <path clip-path="url(#paa77460b3c)" d="M 786.602713 462.157248 
L 786.602713 445.111535 
" style="fill:none;stroke:#000000;stroke-width:1.5;"/>
   </g>
   <g id="line2d_122">
    <path clip-path="url(#paa77460b3c)" d="M 70.4325 163.169659 
L 790.4325 163.169659 
" style="fill:none;stroke:#000000;stroke-linecap:square;stroke-width:1.5;"/>
   </g>
   <g id="patch_43">
    <path d="M 70.4325 438.07875 
L 70.4325 6.07875 
" style="fill:none;stroke:#000000;stroke-linecap:square;stroke-linejoin:miter;stroke-width:0.8;"/>
   </g>
   <g id="patch_44">
    <path d="M 790.4325 438.07875 
L 790.4325 6.07875 
" style="fill:none;stroke:#000000;stroke-linecap:square;stroke-linejoin:miter;stroke-width:0.8;"/>
   </g>
   <g id="patch_45">
    <path d="M 70.4325 438.07875 
L 790.4325 438.07875 
" style="fill:none;stroke:#000000;stroke-linecap:square;stroke-linejoin:miter;stroke-width:0.8;"/>
   </g>
   <g id="patch_46">
    <path d="M 70.4325 6.07875 
L 790.4325 6.07875 
" style="fill:none;stroke:#000000;stroke-linecap:square;stroke-linejoin:miter;stroke-width:0.8;"/>
   </g>
   <g id="legend_1">
    <g id="patch_47">
     <path d="M 81.6325 430.07875 
L 443.7875 430.07875 
Q 446.9875 430.07875 446.9875 426.87875 
L 446.9875 334.53875 
Q 446.9875 331.33875 443.7875 331.33875 
L 81.6325 331.33875 
Q 78.4325 331.33875 78.4325 334.53875 
L 78.4325 426.87875 
Q 78.4325 430.07875 81.6325 430.07875 
z
" style="fill:#ffffff;opacity:0.8;stroke:#cccccc;stroke-linejoin:miter;"/>
    </g>
    <g id="patch_48">
     <path d="M 84.8325 349.89625 
L 116.8325 349.89625 
L 116.8325 338.69625 
L 84.8325 338.69625 
z
" style="fill:#ea4335;"/>
    </g>
    <g id="text_24">
     <!-- JSD loss (semi-supervised), categorical -->
     <g transform="translate(129.6325 349.89625)scale(0.16 -0.16)">
      <defs>
       <path d="M 9.8125 72.90625 
L 19.671875 72.90625 
L 19.671875 5.078125 
Q 19.671875 -8.109375 14.671875 -14.0625 
Q 9.671875 -20.015625 -1.421875 -20.015625 
L -5.171875 -20.015625 
L -5.171875 -11.71875 
L -2.09375 -11.71875 
Q 4.4375 -11.71875 7.125 -8.046875 
Q 9.8125 -4.390625 9.8125 5.078125 
z
" id="DejaVuSans-74"/>
       <path d="M 53.515625 70.515625 
L 53.515625 60.890625 
Q 47.90625 63.578125 42.921875 64.890625 
Q 37.9375 66.21875 33.296875 66.21875 
Q 25.25 66.21875 20.875 63.09375 
Q 16.5 59.96875 16.5 54.203125 
Q 16.5 49.359375 19.40625 46.890625 
Q 22.3125 44.4375 30.421875 42.921875 
L 36.375 41.703125 
Q 47.40625 39.59375 52.65625 34.296875 
Q 57.90625 29 57.90625 20.125 
Q 57.90625 9.515625 50.796875 4.046875 
Q 43.703125 -1.421875 29.984375 -1.421875 
Q 24.8125 -1.421875 18.96875 -0.25 
Q 13.140625 0.921875 6.890625 3.21875 
L 6.890625 13.375 
Q 12.890625 10.015625 18.65625 8.296875 
Q 24.421875 6.59375 29.984375 6.59375 
Q 38.421875 6.59375 43.015625 9.90625 
Q 47.609375 13.234375 47.609375 19.390625 
Q 47.609375 24.75 44.3125 27.78125 
Q 41.015625 30.8125 33.5 32.328125 
L 27.484375 33.5 
Q 16.453125 35.6875 11.515625 40.375 
Q 6.59375 45.0625 6.59375 53.421875 
Q 6.59375 63.09375 13.40625 68.65625 
Q 20.21875 74.21875 32.171875 74.21875 
Q 37.3125 74.21875 42.625 73.28125 
Q 47.953125 72.359375 53.515625 70.515625 
z
" id="DejaVuSans-83"/>
       <path d="M 19.671875 64.796875 
L 19.671875 8.109375 
L 31.59375 8.109375 
Q 46.6875 8.109375 53.6875 14.9375 
Q 60.6875 21.78125 60.6875 36.53125 
Q 60.6875 51.171875 53.6875 57.984375 
Q 46.6875 64.796875 31.59375 64.796875 
z
M 9.8125 72.90625 
L 30.078125 72.90625 
Q 51.265625 72.90625 61.171875 64.09375 
Q 71.09375 55.28125 71.09375 36.53125 
Q 71.09375 17.671875 61.125 8.828125 
Q 51.171875 0 30.078125 0 
L 9.8125 0 
z
" id="DejaVuSans-68"/>
       <path d="M 9.421875 75.984375 
L 18.40625 75.984375 
L 18.40625 0 
L 9.421875 0 
z
" id="DejaVuSans-108"/>
       <path d="M 4.890625 31.390625 
L 31.203125 31.390625 
L 31.203125 23.390625 
L 4.890625 23.390625 
z
" id="DejaVuSans-45"/>
       <path d="M 8.5 21.578125 
L 8.5 54.6875 
L 17.484375 54.6875 
L 17.484375 21.921875 
Q 17.484375 14.15625 20.5 10.265625 
Q 23.53125 6.390625 29.59375 6.390625 
Q 36.859375 6.390625 41.078125 11.03125 
Q 45.3125 15.671875 45.3125 23.6875 
L 45.3125 54.6875 
L 54.296875 54.6875 
L 54.296875 0 
L 45.3125 0 
L 45.3125 8.40625 
Q 42.046875 3.421875 37.71875 1 
Q 33.40625 -1.421875 27.6875 -1.421875 
Q 18.265625 -1.421875 13.375 4.4375 
Q 8.5 10.296875 8.5 21.578125 
z
M 31.109375 56 
z
" id="DejaVuSans-117"/>
       <path d="M 18.109375 8.203125 
L 18.109375 -20.796875 
L 9.078125 -20.796875 
L 9.078125 54.6875 
L 18.109375 54.6875 
L 18.109375 46.390625 
Q 20.953125 51.265625 25.265625 53.625 
Q 29.59375 56 35.59375 56 
Q 45.5625 56 51.78125 48.09375 
Q 58.015625 40.1875 58.015625 27.296875 
Q 58.015625 14.40625 51.78125 6.484375 
Q 45.5625 -1.421875 35.59375 -1.421875 
Q 29.59375 -1.421875 25.265625 0.953125 
Q 20.953125 3.328125 18.109375 8.203125 
z
M 48.6875 27.296875 
Q 48.6875 37.203125 44.609375 42.84375 
Q 40.53125 48.484375 33.40625 48.484375 
Q 26.265625 48.484375 22.1875 42.84375 
Q 18.109375 37.203125 18.109375 27.296875 
Q 18.109375 17.390625 22.1875 11.75 
Q 26.265625 6.109375 33.40625 6.109375 
Q 40.53125 6.109375 44.609375 11.75 
Q 48.6875 17.390625 48.6875 27.296875 
z
" id="DejaVuSans-112"/>
       <path d="M 11.71875 12.40625 
L 22.015625 12.40625 
L 22.015625 4 
L 14.015625 -11.625 
L 7.71875 -11.625 
L 11.71875 4 
z
" id="DejaVuSans-44"/>
       <path d="M 48.78125 52.59375 
L 48.78125 44.1875 
Q 44.96875 46.296875 41.140625 47.34375 
Q 37.3125 48.390625 33.40625 48.390625 
Q 24.65625 48.390625 19.8125 42.84375 
Q 14.984375 37.3125 14.984375 27.296875 
Q 14.984375 17.28125 19.8125 11.734375 
Q 24.65625 6.203125 33.40625 6.203125 
Q 37.3125 6.203125 41.140625 7.25 
Q 44.96875 8.296875 48.78125 10.40625 
L 48.78125 2.09375 
Q 45.015625 0.34375 40.984375 -0.53125 
Q 36.96875 -1.421875 32.421875 -1.421875 
Q 20.0625 -1.421875 12.78125 6.34375 
Q 5.515625 14.109375 5.515625 27.296875 
Q 5.515625 40.671875 12.859375 48.328125 
Q 20.21875 56 33.015625 56 
Q 37.15625 56 41.109375 55.140625 
Q 45.0625 54.296875 48.78125 52.59375 
z
" id="DejaVuSans-99"/>
       <path d="M 34.28125 27.484375 
Q 23.390625 27.484375 19.1875 25 
Q 14.984375 22.515625 14.984375 16.5 
Q 14.984375 11.71875 18.140625 8.90625 
Q 21.296875 6.109375 26.703125 6.109375 
Q 34.1875 6.109375 38.703125 11.40625 
Q 43.21875 16.703125 43.21875 25.484375 
L 43.21875 27.484375 
z
M 52.203125 31.203125 
L 52.203125 0 
L 43.21875 0 
L 43.21875 8.296875 
Q 40.140625 3.328125 35.546875 0.953125 
Q 30.953125 -1.421875 24.3125 -1.421875 
Q 15.921875 -1.421875 10.953125 3.296875 
Q 6 8.015625 6 15.921875 
Q 6 25.140625 12.171875 29.828125 
Q 18.359375 34.515625 30.609375 34.515625 
L 43.21875 34.515625 
L 43.21875 35.40625 
Q 43.21875 41.609375 39.140625 45 
Q 35.0625 48.390625 27.6875 48.390625 
Q 23 48.390625 18.546875 47.265625 
Q 14.109375 46.140625 10.015625 43.890625 
L 10.015625 52.203125 
Q 14.9375 54.109375 19.578125 55.046875 
Q 24.21875 56 28.609375 56 
Q 40.484375 56 46.34375 49.84375 
Q 52.203125 43.703125 52.203125 31.203125 
z
" id="DejaVuSans-97"/>
       <path d="M 18.3125 70.21875 
L 18.3125 54.6875 
L 36.8125 54.6875 
L 36.8125 47.703125 
L 18.3125 47.703125 
L 18.3125 18.015625 
Q 18.3125 11.328125 20.140625 9.421875 
Q 21.96875 7.515625 27.59375 7.515625 
L 36.8125 7.515625 
L 36.8125 0 
L 27.59375 0 
Q 17.1875 0 13.234375 3.875 
Q 9.28125 7.765625 9.28125 18.015625 
L 9.28125 47.703125 
L 2.6875 47.703125 
L 2.6875 54.6875 
L 9.28125 54.6875 
L 9.28125 70.21875 
z
" id="DejaVuSans-116"/>
       <path d="M 45.40625 27.984375 
Q 45.40625 37.75 41.375 43.109375 
Q 37.359375 48.484375 30.078125 48.484375 
Q 22.859375 48.484375 18.828125 43.109375 
Q 14.796875 37.75 14.796875 27.984375 
Q 14.796875 18.265625 18.828125 12.890625 
Q 22.859375 7.515625 30.078125 7.515625 
Q 37.359375 7.515625 41.375 12.890625 
Q 45.40625 18.265625 45.40625 27.984375 
z
M 54.390625 6.78125 
Q 54.390625 -7.171875 48.1875 -13.984375 
Q 42 -20.796875 29.203125 -20.796875 
Q 24.46875 -20.796875 20.265625 -20.09375 
Q 16.0625 -19.390625 12.109375 -17.921875 
L 12.109375 -9.1875 
Q 16.0625 -11.328125 19.921875 -12.34375 
Q 23.78125 -13.375 27.78125 -13.375 
Q 36.625 -13.375 41.015625 -8.765625 
Q 45.40625 -4.15625 45.40625 5.171875 
L 45.40625 9.625 
Q 42.625 4.78125 38.28125 2.390625 
Q 33.9375 0 27.875 0 
Q 17.828125 0 11.671875 7.65625 
Q 5.515625 15.328125 5.515625 27.984375 
Q 5.515625 40.671875 11.671875 48.328125 
Q 17.828125 56 27.875 56 
Q 33.9375 56 38.28125 53.609375 
Q 42.625 51.21875 45.40625 46.390625 
L 45.40625 54.6875 
L 54.390625 54.6875 
z
" id="DejaVuSans-103"/>
      </defs>
      <use xlink:href="#DejaVuSans-74"/>
      <use x="29.492188" xlink:href="#DejaVuSans-83"/>
      <use x="92.96875" xlink:href="#DejaVuSans-68"/>
      <use x="169.970703" xlink:href="#DejaVuSans-32"/>
      <use x="201.757812" xlink:href="#DejaVuSans-108"/>
      <use x="229.541016" xlink:href="#DejaVuSans-111"/>
      <use x="290.722656" xlink:href="#DejaVuSans-115"/>
      <use x="342.822266" xlink:href="#DejaVuSans-115"/>
      <use x="394.921875" xlink:href="#DejaVuSans-32"/>
      <use x="426.708984" xlink:href="#DejaVuSans-40"/>
      <use x="465.722656" xlink:href="#DejaVuSans-115"/>
      <use x="517.822266" xlink:href="#DejaVuSans-101"/>
      <use x="579.345703" xlink:href="#DejaVuSans-109"/>
      <use x="676.757812" xlink:href="#DejaVuSans-105"/>
      <use x="704.541016" xlink:href="#DejaVuSans-45"/>
      <use x="740.625" xlink:href="#DejaVuSans-115"/>
      <use x="792.724609" xlink:href="#DejaVuSans-117"/>
      <use x="856.103516" xlink:href="#DejaVuSans-112"/>
      <use x="919.580078" xlink:href="#DejaVuSans-101"/>
      <use x="981.103516" xlink:href="#DejaVuSans-114"/>
      <use x="1022.216797" xlink:href="#DejaVuSans-118"/>
      <use x="1081.396484" xlink:href="#DejaVuSans-105"/>
      <use x="1109.179688" xlink:href="#DejaVuSans-115"/>
      <use x="1161.279297" xlink:href="#DejaVuSans-101"/>
      <use x="1222.802734" xlink:href="#DejaVuSans-100"/>
      <use x="1286.279297" xlink:href="#DejaVuSans-41"/>
      <use x="1325.292969" xlink:href="#DejaVuSans-44"/>
      <use x="1357.080078" xlink:href="#DejaVuSans-32"/>
      <use x="1388.867188" xlink:href="#DejaVuSans-99"/>
      <use x="1443.847656" xlink:href="#DejaVuSans-97"/>
      <use x="1505.126953" xlink:href="#DejaVuSans-116"/>
      <use x="1544.335938" xlink:href="#DejaVuSans-101"/>
      <use x="1605.859375" xlink:href="#DejaVuSans-103"/>
      <use x="1669.335938" xlink:href="#DejaVuSans-111"/>
      <use x="1730.517578" xlink:href="#DejaVuSans-114"/>
      <use x="1771.630859" xlink:href="#DejaVuSans-105"/>
      <use x="1799.414062" xlink:href="#DejaVuSans-99"/>
      <use x="1854.394531" xlink:href="#DejaVuSans-97"/>
      <use x="1915.673828" xlink:href="#DejaVuSans-108"/>
     </g>
    </g>
    <g id="patch_49">
     <path d="M 84.8325 373.38125 
L 116.8325 373.38125 
L 116.8325 362.18125 
L 84.8325 362.18125 
z
" style="fill:#fbbc04;"/>
    </g>
    <g id="text_25">
     <!-- JSD loss (unsupervised), categorical -->
     <g transform="translate(129.6325 373.38125)scale(0.16 -0.16)">
      <defs>
       <path d="M 54.890625 33.015625 
L 54.890625 0 
L 45.90625 0 
L 45.90625 32.71875 
Q 45.90625 40.484375 42.875 44.328125 
Q 39.84375 48.1875 33.796875 48.1875 
Q 26.515625 48.1875 22.3125 43.546875 
Q 18.109375 38.921875 18.109375 30.90625 
L 18.109375 0 
L 9.078125 0 
L 9.078125 54.6875 
L 18.109375 54.6875 
L 18.109375 46.1875 
Q 21.34375 51.125 25.703125 53.5625 
Q 30.078125 56 35.796875 56 
Q 45.21875 56 50.046875 50.171875 
Q 54.890625 44.34375 54.890625 33.015625 
z
" id="DejaVuSans-110"/>
      </defs>
      <use xlink:href="#DejaVuSans-74"/>
      <use x="29.492188" xlink:href="#DejaVuSans-83"/>
      <use x="92.96875" xlink:href="#DejaVuSans-68"/>
      <use x="169.970703" xlink:href="#DejaVuSans-32"/>
      <use x="201.757812" xlink:href="#DejaVuSans-108"/>
      <use x="229.541016" xlink:href="#DejaVuSans-111"/>
      <use x="290.722656" xlink:href="#DejaVuSans-115"/>
      <use x="342.822266" xlink:href="#DejaVuSans-115"/>
      <use x="394.921875" xlink:href="#DejaVuSans-32"/>
      <use x="426.708984" xlink:href="#DejaVuSans-40"/>
      <use x="465.722656" xlink:href="#DejaVuSans-117"/>
      <use x="529.101562" xlink:href="#DejaVuSans-110"/>
      <use x="592.480469" xlink:href="#DejaVuSans-115"/>
      <use x="644.580078" xlink:href="#DejaVuSans-117"/>
      <use x="707.958984" xlink:href="#DejaVuSans-112"/>
      <use x="771.435547" xlink:href="#DejaVuSans-101"/>
      <use x="832.958984" xlink:href="#DejaVuSans-114"/>
      <use x="874.072266" xlink:href="#DejaVuSans-118"/>
      <use x="933.251953" xlink:href="#DejaVuSans-105"/>
      <use x="961.035156" xlink:href="#DejaVuSans-115"/>
      <use x="1013.134766" xlink:href="#DejaVuSans-101"/>
      <use x="1074.658203" xlink:href="#DejaVuSans-100"/>
      <use x="1138.134766" xlink:href="#DejaVuSans-41"/>
      <use x="1177.148438" xlink:href="#DejaVuSans-44"/>
      <use x="1208.935547" xlink:href="#DejaVuSans-32"/>
      <use x="1240.722656" xlink:href="#DejaVuSans-99"/>
      <use x="1295.703125" xlink:href="#DejaVuSans-97"/>
      <use x="1356.982422" xlink:href="#DejaVuSans-116"/>
      <use x="1396.191406" xlink:href="#DejaVuSans-101"/>
      <use x="1457.714844" xlink:href="#DejaVuSans-103"/>
      <use x="1521.191406" xlink:href="#DejaVuSans-111"/>
      <use x="1582.373047" xlink:href="#DejaVuSans-114"/>
      <use x="1623.486328" xlink:href="#DejaVuSans-105"/>
      <use x="1651.269531" xlink:href="#DejaVuSans-99"/>
      <use x="1706.25" xlink:href="#DejaVuSans-97"/>
      <use x="1767.529297" xlink:href="#DejaVuSans-108"/>
     </g>
    </g>
    <g id="patch_50">
     <path d="M 84.8325 396.86625 
L 116.8325 396.86625 
L 116.8325 385.66625 
L 84.8325 385.66625 
z
" style="fill:#34a853;"/>
    </g>
    <g id="text_26">
     <!-- JSD loss (semi-supervised), continuous -->
     <g transform="translate(129.6325 396.86625)scale(0.16 -0.16)">
      <use xlink:href="#DejaVuSans-74"/>
      <use x="29.492188" xlink:href="#DejaVuSans-83"/>
      <use x="92.96875" xlink:href="#DejaVuSans-68"/>
      <use x="169.970703" xlink:href="#DejaVuSans-32"/>
      <use x="201.757812" xlink:href="#DejaVuSans-108"/>
      <use x="229.541016" xlink:href="#DejaVuSans-111"/>
      <use x="290.722656" xlink:href="#DejaVuSans-115"/>
      <use x="342.822266" xlink:href="#DejaVuSans-115"/>
      <use x="394.921875" xlink:href="#DejaVuSans-32"/>
      <use x="426.708984" xlink:href="#DejaVuSans-40"/>
      <use x="465.722656" xlink:href="#DejaVuSans-115"/>
      <use x="517.822266" xlink:href="#DejaVuSans-101"/>
      <use x="579.345703" xlink:href="#DejaVuSans-109"/>
      <use x="676.757812" xlink:href="#DejaVuSans-105"/>
      <use x="704.541016" xlink:href="#DejaVuSans-45"/>
      <use x="740.625" xlink:href="#DejaVuSans-115"/>
      <use x="792.724609" xlink:href="#DejaVuSans-117"/>
      <use x="856.103516" xlink:href="#DejaVuSans-112"/>
      <use x="919.580078" xlink:href="#DejaVuSans-101"/>
      <use x="981.103516" xlink:href="#DejaVuSans-114"/>
      <use x="1022.216797" xlink:href="#DejaVuSans-118"/>
      <use x="1081.396484" xlink:href="#DejaVuSans-105"/>
      <use x="1109.179688" xlink:href="#DejaVuSans-115"/>
      <use x="1161.279297" xlink:href="#DejaVuSans-101"/>
      <use x="1222.802734" xlink:href="#DejaVuSans-100"/>
      <use x="1286.279297" xlink:href="#DejaVuSans-41"/>
      <use x="1325.292969" xlink:href="#DejaVuSans-44"/>
      <use x="1357.080078" xlink:href="#DejaVuSans-32"/>
      <use x="1388.867188" xlink:href="#DejaVuSans-99"/>
      <use x="1443.847656" xlink:href="#DejaVuSans-111"/>
      <use x="1505.029297" xlink:href="#DejaVuSans-110"/>
      <use x="1568.408203" xlink:href="#DejaVuSans-116"/>
      <use x="1607.617188" xlink:href="#DejaVuSans-105"/>
      <use x="1635.400391" xlink:href="#DejaVuSans-110"/>
      <use x="1698.779297" xlink:href="#DejaVuSans-117"/>
      <use x="1762.158203" xlink:href="#DejaVuSans-111"/>
      <use x="1823.339844" xlink:href="#DejaVuSans-117"/>
      <use x="1886.71875" xlink:href="#DejaVuSans-115"/>
     </g>
    </g>
    <g id="patch_51">
     <path d="M 84.8325 420.35125 
L 116.8325 420.35125 
L 116.8325 409.15125 
L 84.8325 409.15125 
z
" style="fill:#4285f4;"/>
    </g>
    <g id="text_27">
     <!-- JSD loss (unsupervised), continuous -->
     <g transform="translate(129.6325 420.35125)scale(0.16 -0.16)">
      <use xlink:href="#DejaVuSans-74"/>
      <use x="29.492188" xlink:href="#DejaVuSans-83"/>
      <use x="92.96875" xlink:href="#DejaVuSans-68"/>
      <use x="169.970703" xlink:href="#DejaVuSans-32"/>
      <use x="201.757812" xlink:href="#DejaVuSans-108"/>
      <use x="229.541016" xlink:href="#DejaVuSans-111"/>
      <use x="290.722656" xlink:href="#DejaVuSans-115"/>
      <use x="342.822266" xlink:href="#DejaVuSans-115"/>
      <use x="394.921875" xlink:href="#DejaVuSans-32"/>
      <use x="426.708984" xlink:href="#DejaVuSans-40"/>
      <use x="465.722656" xlink:href="#DejaVuSans-117"/>
      <use x="529.101562" xlink:href="#DejaVuSans-110"/>
      <use x="592.480469" xlink:href="#DejaVuSans-115"/>
      <use x="644.580078" xlink:href="#DejaVuSans-117"/>
      <use x="707.958984" xlink:href="#DejaVuSans-112"/>
      <use x="771.435547" xlink:href="#DejaVuSans-101"/>
      <use x="832.958984" xlink:href="#DejaVuSans-114"/>
      <use x="874.072266" xlink:href="#DejaVuSans-118"/>
      <use x="933.251953" xlink:href="#DejaVuSans-105"/>
      <use x="961.035156" xlink:href="#DejaVuSans-115"/>
      <use x="1013.134766" xlink:href="#DejaVuSans-101"/>
      <use x="1074.658203" xlink:href="#DejaVuSans-100"/>
      <use x="1138.134766" xlink:href="#DejaVuSans-41"/>
      <use x="1177.148438" xlink:href="#DejaVuSans-44"/>
      <use x="1208.935547" xlink:href="#DejaVuSans-32"/>
      <use x="1240.722656" xlink:href="#DejaVuSans-99"/>
      <use x="1295.703125" xlink:href="#DejaVuSans-111"/>
      <use x="1356.884766" xlink:href="#DejaVuSans-110"/>
      <use x="1420.263672" xlink:href="#DejaVuSans-116"/>
      <use x="1459.472656" xlink:href="#DejaVuSans-105"/>
      <use x="1487.255859" xlink:href="#DejaVuSans-110"/>
      <use x="1550.634766" xlink:href="#DejaVuSans-117"/>
      <use x="1614.013672" xlink:href="#DejaVuSans-111"/>
      <use x="1675.195312" xlink:href="#DejaVuSans-117"/>
      <use x="1738.574219" xlink:href="#DejaVuSans-115"/>
     </g>
    </g>
   </g>
  </g>
 </g>
 <defs>
  <clipPath id="paa77460b3c">
   <rect height="432" width="720" x="70.4325" y="6.07875"/>
  </clipPath>
 </defs>
</svg>
