<?xml version="1.0" encoding="utf-8" standalone="no"?>
<!DOCTYPE svg PUBLIC "-//W3C//DTD SVG 1.1//EN"
  "http://www.w3.org/Graphics/SVG/1.1/DTD/svg11.dtd">
<!-- Created with matplotlib (https://matplotlib.org/) -->
<svg height="432pt" version="1.1" viewBox="0 0 720 432" width="720pt" xmlns="http://www.w3.org/2000/svg" xmlns:xlink="http://www.w3.org/1999/xlink">
 <metadata>
  <rdf:RDF xmlns:cc="http://creativecommons.org/ns#" xmlns:dc="http://purl.org/dc/elements/1.1/" xmlns:rdf="http://www.w3.org/1999/02/22-rdf-syntax-ns#">
   <cc:Work>
    <dc:type rdf:resource="http://purl.org/dc/dcmitype/StillImage"/>
    <dc:date>2021-03-09T11:40:58.320551</dc:date>
    <dc:format>image/svg+xml</dc:format>
    <dc:creator>
     <cc:Agent>
      <dc:title>Matplotlib v3.3.4, https://matplotlib.org/</dc:title>
     </cc:Agent>
    </dc:creator>
   </cc:Work>
  </rdf:RDF>
 </metadata>
 <defs>
  <style type="text/css">*{stroke-linecap:butt;stroke-linejoin:round;}</style>
 </defs>
 <g id="figure_1">
  <g id="patch_1">
   <path d="M 0 432 
L 720 432 
L 720 0 
L 0 0 
z
" style="fill:none;"/>
  </g>
  <g id="axes_1">
   <g id="patch_2">
    <path d="M 90 378 
L 648 378 
L 648 51.84 
L 90 51.84 
z
" style="fill:#ffffff;"/>
   </g>
   <g id="patch_3">
    <path clip-path="url(#p9499e34383)" d="M 115.363636 170.443636 
L 124.757576 170.443636 
L 124.757576 119.947558 
L 115.363636 119.947558 
z
" style="fill:#46bdc6;"/>
   </g>
   <g id="patch_4">
    <path clip-path="url(#p9499e34383)" d="M 209.30303 170.443636 
L 218.69697 170.443636 
L 218.69697 136.869268 
L 209.30303 136.869268 
z
" style="fill:#46bdc6;"/>
   </g>
   <g id="patch_5">
    <path clip-path="url(#p9499e34383)" d="M 303.242424 170.443636 
L 312.636364 170.443636 
L 312.636364 125.729509 
L 303.242424 125.729509 
z
" style="fill:#46bdc6;"/>
   </g>
   <g id="patch_6">
    <path clip-path="url(#p9499e34383)" d="M 397.181818 170.443636 
L 406.575758 170.443636 
L 406.575758 172.259304 
L 397.181818 172.259304 
z
" style="fill:#46bdc6;"/>
   </g>
   <g id="patch_7">
    <path clip-path="url(#p9499e34383)" d="M 491.121212 170.443636 
L 500.515152 170.443636 
L 500.515152 162.249989 
L 491.121212 162.249989 
z
" style="fill:#46bdc6;"/>
   </g>
   <g id="patch_8">
    <path clip-path="url(#p9499e34383)" d="M 585.060606 170.443636 
L 594.454545 170.443636 
L 594.454545 172.289051 
L 585.060606 172.289051 
z
" style="fill:#46bdc6;"/>
   </g>
   <g id="patch_9">
    <path clip-path="url(#p9499e34383)" d="M 124.757576 170.443636 
L 134.151515 170.443636 
L 134.151515 105.35327 
L 124.757576 105.35327 
z
" style="fill:#ea4335;"/>
   </g>
   <g id="patch_10">
    <path clip-path="url(#p9499e34383)" d="M 218.69697 170.443636 
L 228.090909 170.443636 
L 228.090909 123.761846 
L 218.69697 123.761846 
z
" style="fill:#ea4335;"/>
   </g>
   <g id="patch_11">
    <path clip-path="url(#p9499e34383)" d="M 312.636364 170.443636 
L 322.030303 170.443636 
L 322.030303 110.105142 
L 312.636364 110.105142 
z
" style="fill:#ea4335;"/>
   </g>
   <g id="patch_12">
    <path clip-path="url(#p9499e34383)" d="M 406.575758 170.443636 
L 415.969697 170.443636 
L 415.969697 154.796693 
L 406.575758 154.796693 
z
" style="fill:#ea4335;"/>
   </g>
   <g id="patch_13">
    <path clip-path="url(#p9499e34383)" d="M 500.515152 170.443636 
L 509.909091 170.443636 
L 509.909091 146.294635 
L 500.515152 146.294635 
z
" style="fill:#ea4335;"/>
   </g>
   <g id="patch_14">
    <path clip-path="url(#p9499e34383)" d="M 594.454545 170.443636 
L 603.848485 170.443636 
L 603.848485 154.741032 
L 594.454545 154.741032 
z
" style="fill:#ea4335;"/>
   </g>
   <g id="patch_15">
    <path clip-path="url(#p9499e34383)" d="M 134.151515 170.443636 
L 143.545455 170.443636 
L 143.545455 51.899687 
L 134.151515 51.899687 
z
" style="fill:#800080;"/>
   </g>
   <g id="patch_16">
    <path clip-path="url(#p9499e34383)" d="M 228.090909 170.443636 
L 237.484848 170.443636 
L 237.484848 273.629428 
L 228.090909 273.629428 
z
" style="fill:#800080;"/>
   </g>
   <g id="patch_17">
    <path clip-path="url(#p9499e34383)" d="M 322.030303 170.443636 
L 331.424242 170.443636 
L 331.424242 84.224125 
L 322.030303 84.224125 
z
" style="fill:#800080;"/>
   </g>
   <g id="patch_18">
    <path clip-path="url(#p9499e34383)" d="M 415.969697 170.443636 
L 425.363636 170.443636 
L 425.363636 164.607919 
L 415.969697 164.607919 
z
" style="fill:#800080;"/>
   </g>
   <g id="patch_19">
    <path clip-path="url(#p9499e34383)" d="M 509.909091 170.443636 
L 519.30303 170.443636 
L 519.30303 147.476677 
L 509.909091 147.476677 
z
" style="fill:#800080;"/>
   </g>
   <g id="patch_20">
    <path clip-path="url(#p9499e34383)" d="M 603.848485 170.443636 
L 613.242424 170.443636 
L 613.242424 164.686032 
L 603.848485 164.686032 
z
" style="fill:#800080;"/>
   </g>
   <g id="patch_21">
    <path clip-path="url(#p9499e34383)" d="M 143.545455 170.443636 
L 152.939394 170.443636 
L 152.939394 52.239638 
L 143.545455 52.239638 
z
" style="fill:#34a853;"/>
   </g>
   <g id="patch_22">
    <path clip-path="url(#p9499e34383)" d="M 237.484848 170.443636 
L 246.878788 170.443636 
L 246.878788 283.3001 
L 237.484848 283.3001 
z
" style="fill:#34a853;"/>
   </g>
   <g id="patch_23">
    <path clip-path="url(#p9499e34383)" d="M 331.424242 170.443636 
L 340.818182 170.443636 
L 340.818182 73.054857 
L 331.424242 73.054857 
z
" style="fill:#34a853;"/>
   </g>
   <g id="patch_24">
    <path clip-path="url(#p9499e34383)" d="M 425.363636 170.443636 
L 434.757576 170.443636 
L 434.757576 122.102524 
L 425.363636 122.102524 
z
" style="fill:#34a853;"/>
   </g>
   <g id="patch_25">
    <path clip-path="url(#p9499e34383)" d="M 519.30303 170.443636 
L 528.69697 170.443636 
L 528.69697 108.968339 
L 519.30303 108.968339 
z
" style="fill:#34a853;"/>
   </g>
   <g id="patch_26">
    <path clip-path="url(#p9499e34383)" d="M 613.242424 170.443636 
L 622.636364 170.443636 
L 622.636364 122.272583 
L 613.242424 122.272583 
z
" style="fill:#34a853;"/>
   </g>
   <g id="matplotlib.axis_1">
    <g id="xtick_1">
     <g id="line2d_1">
      <defs>
       <path d="M 0 0 
L 0 3.5 
" id="m81e7ba6d3c" style="stroke:#000000;stroke-width:0.8;"/>
      </defs>
      <g>
       <use style="stroke:#000000;stroke-width:0.8;" x="143.545455" xlink:href="#m81e7ba6d3c" y="378"/>
      </g>
     </g>
     <g id="text_1">
      <!-- supervised -->
      <g transform="translate(116.261861 392.598437)scale(0.1 -0.1)">
       <defs>
        <path d="M 44.28125 53.078125 
L 44.28125 44.578125 
Q 40.484375 46.53125 36.375 47.5 
Q 32.28125 48.484375 27.875 48.484375 
Q 21.1875 48.484375 17.84375 46.4375 
Q 14.5 44.390625 14.5 40.28125 
Q 14.5 37.15625 16.890625 35.375 
Q 19.28125 33.59375 26.515625 31.984375 
L 29.59375 31.296875 
Q 39.15625 29.25 43.1875 25.515625 
Q 47.21875 21.78125 47.21875 15.09375 
Q 47.21875 7.46875 41.1875 3.015625 
Q 35.15625 -1.421875 24.609375 -1.421875 
Q 20.21875 -1.421875 15.453125 -0.5625 
Q 10.6875 0.296875 5.421875 2 
L 5.421875 11.28125 
Q 10.40625 8.6875 15.234375 7.390625 
Q 20.0625 6.109375 24.8125 6.109375 
Q 31.15625 6.109375 34.5625 8.28125 
Q 37.984375 10.453125 37.984375 14.40625 
Q 37.984375 18.0625 35.515625 20.015625 
Q 33.0625 21.96875 24.703125 23.78125 
L 21.578125 24.515625 
Q 13.234375 26.265625 9.515625 29.90625 
Q 5.8125 33.546875 5.8125 39.890625 
Q 5.8125 47.609375 11.28125 51.796875 
Q 16.75 56 26.8125 56 
Q 31.78125 56 36.171875 55.265625 
Q 40.578125 54.546875 44.28125 53.078125 
z
" id="DejaVuSans-115"/>
        <path d="M 8.5 21.578125 
L 8.5 54.6875 
L 17.484375 54.6875 
L 17.484375 21.921875 
Q 17.484375 14.15625 20.5 10.265625 
Q 23.53125 6.390625 29.59375 6.390625 
Q 36.859375 6.390625 41.078125 11.03125 
Q 45.3125 15.671875 45.3125 23.6875 
L 45.3125 54.6875 
L 54.296875 54.6875 
L 54.296875 0 
L 45.3125 0 
L 45.3125 8.40625 
Q 42.046875 3.421875 37.71875 1 
Q 33.40625 -1.421875 27.6875 -1.421875 
Q 18.265625 -1.421875 13.375 4.4375 
Q 8.5 10.296875 8.5 21.578125 
z
M 31.109375 56 
z
" id="DejaVuSans-117"/>
        <path d="M 18.109375 8.203125 
L 18.109375 -20.796875 
L 9.078125 -20.796875 
L 9.078125 54.6875 
L 18.109375 54.6875 
L 18.109375 46.390625 
Q 20.953125 51.265625 25.265625 53.625 
Q 29.59375 56 35.59375 56 
Q 45.5625 56 51.78125 48.09375 
Q 58.015625 40.1875 58.015625 27.296875 
Q 58.015625 14.40625 51.78125 6.484375 
Q 45.5625 -1.421875 35.59375 -1.421875 
Q 29.59375 -1.421875 25.265625 0.953125 
Q 20.953125 3.328125 18.109375 8.203125 
z
M 48.6875 27.296875 
Q 48.6875 37.203125 44.609375 42.84375 
Q 40.53125 48.484375 33.40625 48.484375 
Q 26.265625 48.484375 22.1875 42.84375 
Q 18.109375 37.203125 18.109375 27.296875 
Q 18.109375 17.390625 22.1875 11.75 
Q 26.265625 6.109375 33.40625 6.109375 
Q 40.53125 6.109375 44.609375 11.75 
Q 48.6875 17.390625 48.6875 27.296875 
z
" id="DejaVuSans-112"/>
        <path d="M 56.203125 29.59375 
L 56.203125 25.203125 
L 14.890625 25.203125 
Q 15.484375 15.921875 20.484375 11.0625 
Q 25.484375 6.203125 34.421875 6.203125 
Q 39.59375 6.203125 44.453125 7.46875 
Q 49.3125 8.734375 54.109375 11.28125 
L 54.109375 2.78125 
Q 49.265625 0.734375 44.1875 -0.34375 
Q 39.109375 -1.421875 33.890625 -1.421875 
Q 20.796875 -1.421875 13.15625 6.1875 
Q 5.515625 13.8125 5.515625 26.8125 
Q 5.515625 40.234375 12.765625 48.109375 
Q 20.015625 56 32.328125 56 
Q 43.359375 56 49.78125 48.890625 
Q 56.203125 41.796875 56.203125 29.59375 
z
M 47.21875 32.234375 
Q 47.125 39.59375 43.09375 43.984375 
Q 39.0625 48.390625 32.421875 48.390625 
Q 24.90625 48.390625 20.390625 44.140625 
Q 15.875 39.890625 15.1875 32.171875 
z
" id="DejaVuSans-101"/>
        <path d="M 41.109375 46.296875 
Q 39.59375 47.171875 37.8125 47.578125 
Q 36.03125 48 33.890625 48 
Q 26.265625 48 22.1875 43.046875 
Q 18.109375 38.09375 18.109375 28.8125 
L 18.109375 0 
L 9.078125 0 
L 9.078125 54.6875 
L 18.109375 54.6875 
L 18.109375 46.1875 
Q 20.953125 51.171875 25.484375 53.578125 
Q 30.03125 56 36.53125 56 
Q 37.453125 56 38.578125 55.875 
Q 39.703125 55.765625 41.0625 55.515625 
z
" id="DejaVuSans-114"/>
        <path d="M 2.984375 54.6875 
L 12.5 54.6875 
L 29.59375 8.796875 
L 46.6875 54.6875 
L 56.203125 54.6875 
L 35.6875 0 
L 23.484375 0 
z
" id="DejaVuSans-118"/>
        <path d="M 9.421875 54.6875 
L 18.40625 54.6875 
L 18.40625 0 
L 9.421875 0 
z
M 9.421875 75.984375 
L 18.40625 75.984375 
L 18.40625 64.59375 
L 9.421875 64.59375 
z
" id="DejaVuSans-105"/>
        <path d="M 45.40625 46.390625 
L 45.40625 75.984375 
L 54.390625 75.984375 
L 54.390625 0 
L 45.40625 0 
L 45.40625 8.203125 
Q 42.578125 3.328125 38.25 0.953125 
Q 33.9375 -1.421875 27.875 -1.421875 
Q 17.96875 -1.421875 11.734375 6.484375 
Q 5.515625 14.40625 5.515625 27.296875 
Q 5.515625 40.1875 11.734375 48.09375 
Q 17.96875 56 27.875 56 
Q 33.9375 56 38.25 53.625 
Q 42.578125 51.265625 45.40625 46.390625 
z
M 14.796875 27.296875 
Q 14.796875 17.390625 18.875 11.75 
Q 22.953125 6.109375 30.078125 6.109375 
Q 37.203125 6.109375 41.296875 11.75 
Q 45.40625 17.390625 45.40625 27.296875 
Q 45.40625 37.203125 41.296875 42.84375 
Q 37.203125 48.484375 30.078125 48.484375 
Q 22.953125 48.484375 18.875 42.84375 
Q 14.796875 37.203125 14.796875 27.296875 
z
" id="DejaVuSans-100"/>
       </defs>
       <use xlink:href="#DejaVuSans-115"/>
       <use x="52.099609" xlink:href="#DejaVuSans-117"/>
       <use x="115.478516" xlink:href="#DejaVuSans-112"/>
       <use x="178.955078" xlink:href="#DejaVuSans-101"/>
       <use x="240.478516" xlink:href="#DejaVuSans-114"/>
       <use x="281.591797" xlink:href="#DejaVuSans-118"/>
       <use x="340.771484" xlink:href="#DejaVuSans-105"/>
       <use x="368.554688" xlink:href="#DejaVuSans-115"/>
       <use x="420.654297" xlink:href="#DejaVuSans-101"/>
       <use x="482.177734" xlink:href="#DejaVuSans-100"/>
      </g>
     </g>
    </g>
    <g id="xtick_2">
     <g id="line2d_2">
      <g>
       <use style="stroke:#000000;stroke-width:0.8;" x="237.484848" xlink:href="#m81e7ba6d3c" y="378"/>
      </g>
     </g>
     <g id="text_2">
      <!-- supervised_2_percent -->
      <g transform="translate(182.871567 392.598437)scale(0.1 -0.1)">
       <defs>
        <path d="M 50.984375 -16.609375 
L 50.984375 -23.578125 
L -0.984375 -23.578125 
L -0.984375 -16.609375 
z
" id="DejaVuSans-95"/>
        <path d="M 19.1875 8.296875 
L 53.609375 8.296875 
L 53.609375 0 
L 7.328125 0 
L 7.328125 8.296875 
Q 12.9375 14.109375 22.625 23.890625 
Q 32.328125 33.6875 34.8125 36.53125 
Q 39.546875 41.84375 41.421875 45.53125 
Q 43.3125 49.21875 43.3125 52.78125 
Q 43.3125 58.59375 39.234375 62.25 
Q 35.15625 65.921875 28.609375 65.921875 
Q 23.96875 65.921875 18.8125 64.3125 
Q 13.671875 62.703125 7.8125 59.421875 
L 7.8125 69.390625 
Q 13.765625 71.78125 18.9375 73 
Q 24.125 74.21875 28.421875 74.21875 
Q 39.75 74.21875 46.484375 68.546875 
Q 53.21875 62.890625 53.21875 53.421875 
Q 53.21875 48.921875 51.53125 44.890625 
Q 49.859375 40.875 45.40625 35.40625 
Q 44.1875 33.984375 37.640625 27.21875 
Q 31.109375 20.453125 19.1875 8.296875 
z
" id="DejaVuSans-50"/>
        <path d="M 48.78125 52.59375 
L 48.78125 44.1875 
Q 44.96875 46.296875 41.140625 47.34375 
Q 37.3125 48.390625 33.40625 48.390625 
Q 24.65625 48.390625 19.8125 42.84375 
Q 14.984375 37.3125 14.984375 27.296875 
Q 14.984375 17.28125 19.8125 11.734375 
Q 24.65625 6.203125 33.40625 6.203125 
Q 37.3125 6.203125 41.140625 7.25 
Q 44.96875 8.296875 48.78125 10.40625 
L 48.78125 2.09375 
Q 45.015625 0.34375 40.984375 -0.53125 
Q 36.96875 -1.421875 32.421875 -1.421875 
Q 20.0625 -1.421875 12.78125 6.34375 
Q 5.515625 14.109375 5.515625 27.296875 
Q 5.515625 40.671875 12.859375 48.328125 
Q 20.21875 56 33.015625 56 
Q 37.15625 56 41.109375 55.140625 
Q 45.0625 54.296875 48.78125 52.59375 
z
" id="DejaVuSans-99"/>
        <path d="M 54.890625 33.015625 
L 54.890625 0 
L 45.90625 0 
L 45.90625 32.71875 
Q 45.90625 40.484375 42.875 44.328125 
Q 39.84375 48.1875 33.796875 48.1875 
Q 26.515625 48.1875 22.3125 43.546875 
Q 18.109375 38.921875 18.109375 30.90625 
L 18.109375 0 
L 9.078125 0 
L 9.078125 54.6875 
L 18.109375 54.6875 
L 18.109375 46.1875 
Q 21.34375 51.125 25.703125 53.5625 
Q 30.078125 56 35.796875 56 
Q 45.21875 56 50.046875 50.171875 
Q 54.890625 44.34375 54.890625 33.015625 
z
" id="DejaVuSans-110"/>
        <path d="M 18.3125 70.21875 
L 18.3125 54.6875 
L 36.8125 54.6875 
L 36.8125 47.703125 
L 18.3125 47.703125 
L 18.3125 18.015625 
Q 18.3125 11.328125 20.140625 9.421875 
Q 21.96875 7.515625 27.59375 7.515625 
L 36.8125 7.515625 
L 36.8125 0 
L 27.59375 0 
Q 17.1875 0 13.234375 3.875 
Q 9.28125 7.765625 9.28125 18.015625 
L 9.28125 47.703125 
L 2.6875 47.703125 
L 2.6875 54.6875 
L 9.28125 54.6875 
L 9.28125 70.21875 
z
" id="DejaVuSans-116"/>
       </defs>
       <use xlink:href="#DejaVuSans-115"/>
       <use x="52.099609" xlink:href="#DejaVuSans-117"/>
       <use x="115.478516" xlink:href="#DejaVuSans-112"/>
       <use x="178.955078" xlink:href="#DejaVuSans-101"/>
       <use x="240.478516" xlink:href="#DejaVuSans-114"/>
       <use x="281.591797" xlink:href="#DejaVuSans-118"/>
       <use x="340.771484" xlink:href="#DejaVuSans-105"/>
       <use x="368.554688" xlink:href="#DejaVuSans-115"/>
       <use x="420.654297" xlink:href="#DejaVuSans-101"/>
       <use x="482.177734" xlink:href="#DejaVuSans-100"/>
       <use x="545.654297" xlink:href="#DejaVuSans-95"/>
       <use x="595.654297" xlink:href="#DejaVuSans-50"/>
       <use x="659.277344" xlink:href="#DejaVuSans-95"/>
       <use x="709.277344" xlink:href="#DejaVuSans-112"/>
       <use x="772.753906" xlink:href="#DejaVuSans-101"/>
       <use x="834.277344" xlink:href="#DejaVuSans-114"/>
       <use x="873.140625" xlink:href="#DejaVuSans-99"/>
       <use x="928.121094" xlink:href="#DejaVuSans-101"/>
       <use x="989.644531" xlink:href="#DejaVuSans-110"/>
       <use x="1053.023438" xlink:href="#DejaVuSans-116"/>
      </g>
     </g>
    </g>
    <g id="xtick_3">
     <g id="line2d_3">
      <g>
       <use style="stroke:#000000;stroke-width:0.8;" x="331.424242" xlink:href="#m81e7ba6d3c" y="378"/>
      </g>
     </g>
     <g id="text_3">
      <!-- semi -->
      <g transform="translate(319.483617 392.598437)scale(0.1 -0.1)">
       <defs>
        <path d="M 52 44.1875 
Q 55.375 50.25 60.0625 53.125 
Q 64.75 56 71.09375 56 
Q 79.640625 56 84.28125 50.015625 
Q 88.921875 44.046875 88.921875 33.015625 
L 88.921875 0 
L 79.890625 0 
L 79.890625 32.71875 
Q 79.890625 40.578125 77.09375 44.375 
Q 74.3125 48.1875 68.609375 48.1875 
Q 61.625 48.1875 57.5625 43.546875 
Q 53.515625 38.921875 53.515625 30.90625 
L 53.515625 0 
L 44.484375 0 
L 44.484375 32.71875 
Q 44.484375 40.625 41.703125 44.40625 
Q 38.921875 48.1875 33.109375 48.1875 
Q 26.21875 48.1875 22.15625 43.53125 
Q 18.109375 38.875 18.109375 30.90625 
L 18.109375 0 
L 9.078125 0 
L 9.078125 54.6875 
L 18.109375 54.6875 
L 18.109375 46.1875 
Q 21.1875 51.21875 25.484375 53.609375 
Q 29.78125 56 35.6875 56 
Q 41.65625 56 45.828125 52.96875 
Q 50 49.953125 52 44.1875 
z
" id="DejaVuSans-109"/>
       </defs>
       <use xlink:href="#DejaVuSans-115"/>
       <use x="52.099609" xlink:href="#DejaVuSans-101"/>
       <use x="113.623047" xlink:href="#DejaVuSans-109"/>
       <use x="211.035156" xlink:href="#DejaVuSans-105"/>
      </g>
     </g>
    </g>
    <g id="xtick_4">
     <g id="line2d_4">
      <g>
       <use style="stroke:#000000;stroke-width:0.8;" x="425.363636" xlink:href="#m81e7ba6d3c" y="378"/>
      </g>
     </g>
     <g id="text_4">
      <!-- semi_sup_first -->
      <g transform="translate(389.705824 392.598437)scale(0.1 -0.1)">
       <defs>
        <path d="M 37.109375 75.984375 
L 37.109375 68.5 
L 28.515625 68.5 
Q 23.6875 68.5 21.796875 66.546875 
Q 19.921875 64.59375 19.921875 59.515625 
L 19.921875 54.6875 
L 34.71875 54.6875 
L 34.71875 47.703125 
L 19.921875 47.703125 
L 19.921875 0 
L 10.890625 0 
L 10.890625 47.703125 
L 2.296875 47.703125 
L 2.296875 54.6875 
L 10.890625 54.6875 
L 10.890625 58.5 
Q 10.890625 67.625 15.140625 71.796875 
Q 19.390625 75.984375 28.609375 75.984375 
z
" id="DejaVuSans-102"/>
       </defs>
       <use xlink:href="#DejaVuSans-115"/>
       <use x="52.099609" xlink:href="#DejaVuSans-101"/>
       <use x="113.623047" xlink:href="#DejaVuSans-109"/>
       <use x="211.035156" xlink:href="#DejaVuSans-105"/>
       <use x="238.818359" xlink:href="#DejaVuSans-95"/>
       <use x="288.818359" xlink:href="#DejaVuSans-115"/>
       <use x="340.917969" xlink:href="#DejaVuSans-117"/>
       <use x="404.296875" xlink:href="#DejaVuSans-112"/>
       <use x="467.773438" xlink:href="#DejaVuSans-95"/>
       <use x="517.773438" xlink:href="#DejaVuSans-102"/>
       <use x="552.978516" xlink:href="#DejaVuSans-105"/>
       <use x="580.761719" xlink:href="#DejaVuSans-114"/>
       <use x="621.875" xlink:href="#DejaVuSans-115"/>
       <use x="673.974609" xlink:href="#DejaVuSans-116"/>
      </g>
     </g>
    </g>
    <g id="xtick_5">
     <g id="line2d_5">
      <g>
       <use style="stroke:#000000;stroke-width:0.8;" x="519.30303" xlink:href="#m81e7ba6d3c" y="378"/>
      </g>
     </g>
     <g id="text_5">
      <!-- semi_mixed -->
      <g transform="translate(489.549124 392.598437)scale(0.1 -0.1)">
       <defs>
        <path d="M 54.890625 54.6875 
L 35.109375 28.078125 
L 55.90625 0 
L 45.3125 0 
L 29.390625 21.484375 
L 13.484375 0 
L 2.875 0 
L 24.125 28.609375 
L 4.6875 54.6875 
L 15.28125 54.6875 
L 29.78125 35.203125 
L 44.28125 54.6875 
z
" id="DejaVuSans-120"/>
       </defs>
       <use xlink:href="#DejaVuSans-115"/>
       <use x="52.099609" xlink:href="#DejaVuSans-101"/>
       <use x="113.623047" xlink:href="#DejaVuSans-109"/>
       <use x="211.035156" xlink:href="#DejaVuSans-105"/>
       <use x="238.818359" xlink:href="#DejaVuSans-95"/>
       <use x="288.818359" xlink:href="#DejaVuSans-109"/>
       <use x="386.230469" xlink:href="#DejaVuSans-105"/>
       <use x="414.013672" xlink:href="#DejaVuSans-120"/>
       <use x="470.068359" xlink:href="#DejaVuSans-101"/>
       <use x="531.591797" xlink:href="#DejaVuSans-100"/>
      </g>
     </g>
    </g>
    <g id="xtick_6">
     <g id="line2d_6">
      <g>
       <use style="stroke:#000000;stroke-width:0.8;" x="613.242424" xlink:href="#m81e7ba6d3c" y="378"/>
      </g>
     </g>
     <g id="text_6">
      <!-- unsupervised -->
      <g transform="translate(579.62133 392.598437)scale(0.1 -0.1)">
       <use xlink:href="#DejaVuSans-117"/>
       <use x="63.378906" xlink:href="#DejaVuSans-110"/>
       <use x="126.757812" xlink:href="#DejaVuSans-115"/>
       <use x="178.857422" xlink:href="#DejaVuSans-117"/>
       <use x="242.236328" xlink:href="#DejaVuSans-112"/>
       <use x="305.712891" xlink:href="#DejaVuSans-101"/>
       <use x="367.236328" xlink:href="#DejaVuSans-114"/>
       <use x="408.349609" xlink:href="#DejaVuSans-118"/>
       <use x="467.529297" xlink:href="#DejaVuSans-105"/>
       <use x="495.3125" xlink:href="#DejaVuSans-115"/>
       <use x="547.412109" xlink:href="#DejaVuSans-101"/>
       <use x="608.935547" xlink:href="#DejaVuSans-100"/>
      </g>
     </g>
    </g>
   </g>
   <g id="matplotlib.axis_2">
    <g id="ytick_1">
     <g id="line2d_7">
      <path clip-path="url(#p9499e34383)" d="M 90 378 
L 648 378 
" style="fill:none;stroke:#b0b0b0;stroke-linecap:square;stroke-width:0.8;"/>
     </g>
     <g id="line2d_8">
      <defs>
       <path d="M 0 0 
L -3.5 0 
" id="m80e4f7e824" style="stroke:#000000;stroke-width:0.8;"/>
      </defs>
      <g>
       <use style="stroke:#000000;stroke-width:0.8;" x="90" xlink:href="#m80e4f7e824" y="378"/>
      </g>
     </g>
     <g id="text_7">
      <!-- −175 -->
      <g transform="translate(55.532812 381.799219)scale(0.1 -0.1)">
       <defs>
        <path d="M 10.59375 35.5 
L 73.1875 35.5 
L 73.1875 27.203125 
L 10.59375 27.203125 
z
" id="DejaVuSans-8722"/>
        <path d="M 12.40625 8.296875 
L 28.515625 8.296875 
L 28.515625 63.921875 
L 10.984375 60.40625 
L 10.984375 69.390625 
L 28.421875 72.90625 
L 38.28125 72.90625 
L 38.28125 8.296875 
L 54.390625 8.296875 
L 54.390625 0 
L 12.40625 0 
z
" id="DejaVuSans-49"/>
        <path d="M 8.203125 72.90625 
L 55.078125 72.90625 
L 55.078125 68.703125 
L 28.609375 0 
L 18.3125 0 
L 43.21875 64.59375 
L 8.203125 64.59375 
z
" id="DejaVuSans-55"/>
        <path d="M 10.796875 72.90625 
L 49.515625 72.90625 
L 49.515625 64.59375 
L 19.828125 64.59375 
L 19.828125 46.734375 
Q 21.96875 47.46875 24.109375 47.828125 
Q 26.265625 48.1875 28.421875 48.1875 
Q 40.625 48.1875 47.75 41.5 
Q 54.890625 34.8125 54.890625 23.390625 
Q 54.890625 11.625 47.5625 5.09375 
Q 40.234375 -1.421875 26.90625 -1.421875 
Q 22.3125 -1.421875 17.546875 -0.640625 
Q 12.796875 0.140625 7.71875 1.703125 
L 7.71875 11.625 
Q 12.109375 9.234375 16.796875 8.0625 
Q 21.484375 6.890625 26.703125 6.890625 
Q 35.15625 6.890625 40.078125 11.328125 
Q 45.015625 15.765625 45.015625 23.390625 
Q 45.015625 31 40.078125 35.4375 
Q 35.15625 39.890625 26.703125 39.890625 
Q 22.75 39.890625 18.8125 39.015625 
Q 14.890625 38.140625 10.796875 36.28125 
z
" id="DejaVuSans-53"/>
       </defs>
       <use xlink:href="#DejaVuSans-8722"/>
       <use x="83.789062" xlink:href="#DejaVuSans-49"/>
       <use x="147.412109" xlink:href="#DejaVuSans-55"/>
       <use x="211.035156" xlink:href="#DejaVuSans-53"/>
      </g>
     </g>
    </g>
    <g id="ytick_2">
     <g id="line2d_9">
      <path clip-path="url(#p9499e34383)" d="M 90 348.349091 
L 648 348.349091 
" style="fill:none;stroke:#b0b0b0;stroke-linecap:square;stroke-width:0.8;"/>
     </g>
     <g id="line2d_10">
      <g>
       <use style="stroke:#000000;stroke-width:0.8;" x="90" xlink:href="#m80e4f7e824" y="348.349091"/>
      </g>
     </g>
     <g id="text_8">
      <!-- −150 -->
      <g transform="translate(55.532812 352.14831)scale(0.1 -0.1)">
       <defs>
        <path d="M 31.78125 66.40625 
Q 24.171875 66.40625 20.328125 58.90625 
Q 16.5 51.421875 16.5 36.375 
Q 16.5 21.390625 20.328125 13.890625 
Q 24.171875 6.390625 31.78125 6.390625 
Q 39.453125 6.390625 43.28125 13.890625 
Q 47.125 21.390625 47.125 36.375 
Q 47.125 51.421875 43.28125 58.90625 
Q 39.453125 66.40625 31.78125 66.40625 
z
M 31.78125 74.21875 
Q 44.046875 74.21875 50.515625 64.515625 
Q 56.984375 54.828125 56.984375 36.375 
Q 56.984375 17.96875 50.515625 8.265625 
Q 44.046875 -1.421875 31.78125 -1.421875 
Q 19.53125 -1.421875 13.0625 8.265625 
Q 6.59375 17.96875 6.59375 36.375 
Q 6.59375 54.828125 13.0625 64.515625 
Q 19.53125 74.21875 31.78125 74.21875 
z
" id="DejaVuSans-48"/>
       </defs>
       <use xlink:href="#DejaVuSans-8722"/>
       <use x="83.789062" xlink:href="#DejaVuSans-49"/>
       <use x="147.412109" xlink:href="#DejaVuSans-53"/>
       <use x="211.035156" xlink:href="#DejaVuSans-48"/>
      </g>
     </g>
    </g>
    <g id="ytick_3">
     <g id="line2d_11">
      <path clip-path="url(#p9499e34383)" d="M 90 318.698182 
L 648 318.698182 
" style="fill:none;stroke:#b0b0b0;stroke-linecap:square;stroke-width:0.8;"/>
     </g>
     <g id="line2d_12">
      <g>
       <use style="stroke:#000000;stroke-width:0.8;" x="90" xlink:href="#m80e4f7e824" y="318.698182"/>
      </g>
     </g>
     <g id="text_9">
      <!-- −125 -->
      <g transform="translate(55.532812 322.497401)scale(0.1 -0.1)">
       <use xlink:href="#DejaVuSans-8722"/>
       <use x="83.789062" xlink:href="#DejaVuSans-49"/>
       <use x="147.412109" xlink:href="#DejaVuSans-50"/>
       <use x="211.035156" xlink:href="#DejaVuSans-53"/>
      </g>
     </g>
    </g>
    <g id="ytick_4">
     <g id="line2d_13">
      <path clip-path="url(#p9499e34383)" d="M 90 289.047273 
L 648 289.047273 
" style="fill:none;stroke:#b0b0b0;stroke-linecap:square;stroke-width:0.8;"/>
     </g>
     <g id="line2d_14">
      <g>
       <use style="stroke:#000000;stroke-width:0.8;" x="90" xlink:href="#m80e4f7e824" y="289.047273"/>
      </g>
     </g>
     <g id="text_10">
      <!-- −100 -->
      <g transform="translate(55.532812 292.846491)scale(0.1 -0.1)">
       <use xlink:href="#DejaVuSans-8722"/>
       <use x="83.789062" xlink:href="#DejaVuSans-49"/>
       <use x="147.412109" xlink:href="#DejaVuSans-48"/>
       <use x="211.035156" xlink:href="#DejaVuSans-48"/>
      </g>
     </g>
    </g>
    <g id="ytick_5">
     <g id="line2d_15">
      <path clip-path="url(#p9499e34383)" d="M 90 259.396364 
L 648 259.396364 
" style="fill:none;stroke:#b0b0b0;stroke-linecap:square;stroke-width:0.8;"/>
     </g>
     <g id="line2d_16">
      <g>
       <use style="stroke:#000000;stroke-width:0.8;" x="90" xlink:href="#m80e4f7e824" y="259.396364"/>
      </g>
     </g>
     <g id="text_11">
      <!-- −75 -->
      <g transform="translate(61.895313 263.195582)scale(0.1 -0.1)">
       <use xlink:href="#DejaVuSans-8722"/>
       <use x="83.789062" xlink:href="#DejaVuSans-55"/>
       <use x="147.412109" xlink:href="#DejaVuSans-53"/>
      </g>
     </g>
    </g>
    <g id="ytick_6">
     <g id="line2d_17">
      <path clip-path="url(#p9499e34383)" d="M 90 229.745455 
L 648 229.745455 
" style="fill:none;stroke:#b0b0b0;stroke-linecap:square;stroke-width:0.8;"/>
     </g>
     <g id="line2d_18">
      <g>
       <use style="stroke:#000000;stroke-width:0.8;" x="90" xlink:href="#m80e4f7e824" y="229.745455"/>
      </g>
     </g>
     <g id="text_12">
      <!-- −50 -->
      <g transform="translate(61.895313 233.544673)scale(0.1 -0.1)">
       <use xlink:href="#DejaVuSans-8722"/>
       <use x="83.789062" xlink:href="#DejaVuSans-53"/>
       <use x="147.412109" xlink:href="#DejaVuSans-48"/>
      </g>
     </g>
    </g>
    <g id="ytick_7">
     <g id="line2d_19">
      <path clip-path="url(#p9499e34383)" d="M 90 200.094545 
L 648 200.094545 
" style="fill:none;stroke:#b0b0b0;stroke-linecap:square;stroke-width:0.8;"/>
     </g>
     <g id="line2d_20">
      <g>
       <use style="stroke:#000000;stroke-width:0.8;" x="90" xlink:href="#m80e4f7e824" y="200.094545"/>
      </g>
     </g>
     <g id="text_13">
      <!-- −25 -->
      <g transform="translate(61.895313 203.893764)scale(0.1 -0.1)">
       <use xlink:href="#DejaVuSans-8722"/>
       <use x="83.789062" xlink:href="#DejaVuSans-50"/>
       <use x="147.412109" xlink:href="#DejaVuSans-53"/>
      </g>
     </g>
    </g>
    <g id="ytick_8">
     <g id="line2d_21">
      <path clip-path="url(#p9499e34383)" d="M 90 170.443636 
L 648 170.443636 
" style="fill:none;stroke:#b0b0b0;stroke-linecap:square;stroke-width:0.8;"/>
     </g>
     <g id="line2d_22">
      <g>
       <use style="stroke:#000000;stroke-width:0.8;" x="90" xlink:href="#m80e4f7e824" y="170.443636"/>
      </g>
     </g>
     <g id="text_14">
      <!-- 0 -->
      <g transform="translate(76.6375 174.242855)scale(0.1 -0.1)">
       <use xlink:href="#DejaVuSans-48"/>
      </g>
     </g>
    </g>
    <g id="ytick_9">
     <g id="line2d_23">
      <path clip-path="url(#p9499e34383)" d="M 90 140.792727 
L 648 140.792727 
" style="fill:none;stroke:#b0b0b0;stroke-linecap:square;stroke-width:0.8;"/>
     </g>
     <g id="line2d_24">
      <g>
       <use style="stroke:#000000;stroke-width:0.8;" x="90" xlink:href="#m80e4f7e824" y="140.792727"/>
      </g>
     </g>
     <g id="text_15">
      <!-- 25 -->
      <g transform="translate(70.275 144.591946)scale(0.1 -0.1)">
       <use xlink:href="#DejaVuSans-50"/>
       <use x="63.623047" xlink:href="#DejaVuSans-53"/>
      </g>
     </g>
    </g>
    <g id="ytick_10">
     <g id="line2d_25">
      <path clip-path="url(#p9499e34383)" d="M 90 111.141818 
L 648 111.141818 
" style="fill:none;stroke:#b0b0b0;stroke-linecap:square;stroke-width:0.8;"/>
     </g>
     <g id="line2d_26">
      <g>
       <use style="stroke:#000000;stroke-width:0.8;" x="90" xlink:href="#m80e4f7e824" y="111.141818"/>
      </g>
     </g>
     <g id="text_16">
      <!-- 50 -->
      <g transform="translate(70.275 114.941037)scale(0.1 -0.1)">
       <use xlink:href="#DejaVuSans-53"/>
       <use x="63.623047" xlink:href="#DejaVuSans-48"/>
      </g>
     </g>
    </g>
    <g id="ytick_11">
     <g id="line2d_27">
      <path clip-path="url(#p9499e34383)" d="M 90 81.490909 
L 648 81.490909 
" style="fill:none;stroke:#b0b0b0;stroke-linecap:square;stroke-width:0.8;"/>
     </g>
     <g id="line2d_28">
      <g>
       <use style="stroke:#000000;stroke-width:0.8;" x="90" xlink:href="#m80e4f7e824" y="81.490909"/>
      </g>
     </g>
     <g id="text_17">
      <!-- 75 -->
      <g transform="translate(70.275 85.290128)scale(0.1 -0.1)">
       <use xlink:href="#DejaVuSans-55"/>
       <use x="63.623047" xlink:href="#DejaVuSans-53"/>
      </g>
     </g>
    </g>
    <g id="ytick_12">
     <g id="line2d_29">
      <path clip-path="url(#p9499e34383)" d="M 90 51.84 
L 648 51.84 
" style="fill:none;stroke:#b0b0b0;stroke-linecap:square;stroke-width:0.8;"/>
     </g>
     <g id="line2d_30">
      <g>
       <use style="stroke:#000000;stroke-width:0.8;" x="90" xlink:href="#m80e4f7e824" y="51.84"/>
      </g>
     </g>
     <g id="text_18">
      <!-- 100 -->
      <g transform="translate(63.9125 55.639219)scale(0.1 -0.1)">
       <use xlink:href="#DejaVuSans-49"/>
       <use x="63.623047" xlink:href="#DejaVuSans-48"/>
       <use x="127.246094" xlink:href="#DejaVuSans-48"/>
      </g>
     </g>
    </g>
   </g>
   <g id="LineCollection_1">
    <path clip-path="url(#p9499e34383)" d="M 120.060606 120.790089 
L 120.060606 119.105026 
" style="fill:none;stroke:#000000;stroke-width:1.5;"/>
    <path clip-path="url(#p9499e34383)" d="M 214 142.281177 
L 214 131.45736 
" style="fill:none;stroke:#000000;stroke-width:1.5;"/>
    <path clip-path="url(#p9499e34383)" d="M 307.939394 126.294619 
L 307.939394 125.164399 
" style="fill:none;stroke:#000000;stroke-width:1.5;"/>
    <path clip-path="url(#p9499e34383)" d="M 401.878788 173.422224 
L 401.878788 171.096384 
" style="fill:none;stroke:#000000;stroke-width:1.5;"/>
    <path clip-path="url(#p9499e34383)" d="M 495.818182 162.910439 
L 495.818182 161.58954 
" style="fill:none;stroke:#000000;stroke-width:1.5;"/>
    <path clip-path="url(#p9499e34383)" d="M 589.757576 172.87757 
L 589.757576 171.700531 
" style="fill:none;stroke:#000000;stroke-width:1.5;"/>
   </g>
   <g id="LineCollection_2">
    <path clip-path="url(#p9499e34383)" d="M 129.454545 106.028462 
L 129.454545 104.678077 
" style="fill:none;stroke:#000000;stroke-width:1.5;"/>
    <path clip-path="url(#p9499e34383)" d="M 223.393939 124.93773 
L 223.393939 122.585961 
" style="fill:none;stroke:#000000;stroke-width:1.5;"/>
    <path clip-path="url(#p9499e34383)" d="M 317.333333 111.653829 
L 317.333333 108.556455 
" style="fill:none;stroke:#000000;stroke-width:1.5;"/>
    <path clip-path="url(#p9499e34383)" d="M 411.272727 155.290958 
L 411.272727 154.302428 
" style="fill:none;stroke:#000000;stroke-width:1.5;"/>
    <path clip-path="url(#p9499e34383)" d="M 505.212121 147.030006 
L 505.212121 145.559265 
" style="fill:none;stroke:#000000;stroke-width:1.5;"/>
    <path clip-path="url(#p9499e34383)" d="M 599.151515 155.987031 
L 599.151515 153.495033 
" style="fill:none;stroke:#000000;stroke-width:1.5;"/>
   </g>
   <g id="LineCollection_3">
    <path clip-path="url(#p9499e34383)" d="M 138.848485 51.917303 
L 138.848485 51.882071 
" style="fill:none;stroke:#000000;stroke-width:1.5;"/>
    <path clip-path="url(#p9499e34383)" d="M 232.787879 276.818729 
L 232.787879 270.440127 
" style="fill:none;stroke:#000000;stroke-width:1.5;"/>
    <path clip-path="url(#p9499e34383)" d="M 326.727273 89.185789 
L 326.727273 79.262461 
" style="fill:none;stroke:#000000;stroke-width:1.5;"/>
    <path clip-path="url(#p9499e34383)" d="M 420.666667 165.524204 
L 420.666667 163.691634 
" style="fill:none;stroke:#000000;stroke-width:1.5;"/>
    <path clip-path="url(#p9499e34383)" d="M 514.606061 148.674715 
L 514.606061 146.278638 
" style="fill:none;stroke:#000000;stroke-width:1.5;"/>
    <path clip-path="url(#p9499e34383)" d="M 608.545455 165.167265 
L 608.545455 164.204798 
" style="fill:none;stroke:#000000;stroke-width:1.5;"/>
   </g>
   <g id="LineCollection_4">
    <path clip-path="url(#p9499e34383)" d="M 148.242424 52.510849 
L 148.242424 51.968427 
" style="fill:none;stroke:#000000;stroke-width:1.5;"/>
    <path clip-path="url(#p9499e34383)" d="M 242.181818 287.379168 
L 242.181818 279.221032 
" style="fill:none;stroke:#000000;stroke-width:1.5;"/>
    <path clip-path="url(#p9499e34383)" d="M 336.121212 75.458896 
L 336.121212 70.650818 
" style="fill:none;stroke:#000000;stroke-width:1.5;"/>
    <path clip-path="url(#p9499e34383)" d="M 430.060606 122.691961 
L 430.060606 121.513088 
" style="fill:none;stroke:#000000;stroke-width:1.5;"/>
    <path clip-path="url(#p9499e34383)" d="M 524 110.30683 
L 524 107.629848 
" style="fill:none;stroke:#000000;stroke-width:1.5;"/>
    <path clip-path="url(#p9499e34383)" d="M 617.939394 122.890228 
L 617.939394 121.654938 
" style="fill:none;stroke:#000000;stroke-width:1.5;"/>
   </g>
   <g id="line2d_31">
    <path clip-path="url(#p9499e34383)" d="M 90 170.443636 
L 648 170.443636 
" style="fill:none;stroke:#000000;stroke-linecap:square;stroke-width:1.5;"/>
   </g>
   <g id="patch_27">
    <path d="M 90 378 
L 90 51.84 
" style="fill:none;stroke:#000000;stroke-linecap:square;stroke-linejoin:miter;stroke-width:0.8;"/>
   </g>
   <g id="patch_28">
    <path d="M 648 378 
L 648 51.84 
" style="fill:none;stroke:#000000;stroke-linecap:square;stroke-linejoin:miter;stroke-width:0.8;"/>
   </g>
   <g id="patch_29">
    <path d="M 90 378 
L 648 378 
" style="fill:none;stroke:#000000;stroke-linecap:square;stroke-linejoin:miter;stroke-width:0.8;"/>
   </g>
   <g id="patch_30">
    <path d="M 90 51.84 
L 648 51.84 
" style="fill:none;stroke:#000000;stroke-linecap:square;stroke-linejoin:miter;stroke-width:0.8;"/>
   </g>
   <g id="text_19">
    <!-- training_method -->
    <g transform="translate(319.585312 45.84)scale(0.12 -0.12)">
     <defs>
      <path d="M 34.28125 27.484375 
Q 23.390625 27.484375 19.1875 25 
Q 14.984375 22.515625 14.984375 16.5 
Q 14.984375 11.71875 18.140625 8.90625 
Q 21.296875 6.109375 26.703125 6.109375 
Q 34.1875 6.109375 38.703125 11.40625 
Q 43.21875 16.703125 43.21875 25.484375 
L 43.21875 27.484375 
z
M 52.203125 31.203125 
L 52.203125 0 
L 43.21875 0 
L 43.21875 8.296875 
Q 40.140625 3.328125 35.546875 0.953125 
Q 30.953125 -1.421875 24.3125 -1.421875 
Q 15.921875 -1.421875 10.953125 3.296875 
Q 6 8.015625 6 15.921875 
Q 6 25.140625 12.171875 29.828125 
Q 18.359375 34.515625 30.609375 34.515625 
L 43.21875 34.515625 
L 43.21875 35.40625 
Q 43.21875 41.609375 39.140625 45 
Q 35.0625 48.390625 27.6875 48.390625 
Q 23 48.390625 18.546875 47.265625 
Q 14.109375 46.140625 10.015625 43.890625 
L 10.015625 52.203125 
Q 14.9375 54.109375 19.578125 55.046875 
Q 24.21875 56 28.609375 56 
Q 40.484375 56 46.34375 49.84375 
Q 52.203125 43.703125 52.203125 31.203125 
z
" id="DejaVuSans-97"/>
      <path d="M 45.40625 27.984375 
Q 45.40625 37.75 41.375 43.109375 
Q 37.359375 48.484375 30.078125 48.484375 
Q 22.859375 48.484375 18.828125 43.109375 
Q 14.796875 37.75 14.796875 27.984375 
Q 14.796875 18.265625 18.828125 12.890625 
Q 22.859375 7.515625 30.078125 7.515625 
Q 37.359375 7.515625 41.375 12.890625 
Q 45.40625 18.265625 45.40625 27.984375 
z
M 54.390625 6.78125 
Q 54.390625 -7.171875 48.1875 -13.984375 
Q 42 -20.796875 29.203125 -20.796875 
Q 24.46875 -20.796875 20.265625 -20.09375 
Q 16.0625 -19.390625 12.109375 -17.921875 
L 12.109375 -9.1875 
Q 16.0625 -11.328125 19.921875 -12.34375 
Q 23.78125 -13.375 27.78125 -13.375 
Q 36.625 -13.375 41.015625 -8.765625 
Q 45.40625 -4.15625 45.40625 5.171875 
L 45.40625 9.625 
Q 42.625 4.78125 38.28125 2.390625 
Q 33.9375 0 27.875 0 
Q 17.828125 0 11.671875 7.65625 
Q 5.515625 15.328125 5.515625 27.984375 
Q 5.515625 40.671875 11.671875 48.328125 
Q 17.828125 56 27.875 56 
Q 33.9375 56 38.28125 53.609375 
Q 42.625 51.21875 45.40625 46.390625 
L 45.40625 54.6875 
L 54.390625 54.6875 
z
" id="DejaVuSans-103"/>
      <path d="M 54.890625 33.015625 
L 54.890625 0 
L 45.90625 0 
L 45.90625 32.71875 
Q 45.90625 40.484375 42.875 44.328125 
Q 39.84375 48.1875 33.796875 48.1875 
Q 26.515625 48.1875 22.3125 43.546875 
Q 18.109375 38.921875 18.109375 30.90625 
L 18.109375 0 
L 9.078125 0 
L 9.078125 75.984375 
L 18.109375 75.984375 
L 18.109375 46.1875 
Q 21.34375 51.125 25.703125 53.5625 
Q 30.078125 56 35.796875 56 
Q 45.21875 56 50.046875 50.171875 
Q 54.890625 44.34375 54.890625 33.015625 
z
" id="DejaVuSans-104"/>
      <path d="M 30.609375 48.390625 
Q 23.390625 48.390625 19.1875 42.75 
Q 14.984375 37.109375 14.984375 27.296875 
Q 14.984375 17.484375 19.15625 11.84375 
Q 23.34375 6.203125 30.609375 6.203125 
Q 37.796875 6.203125 41.984375 11.859375 
Q 46.1875 17.53125 46.1875 27.296875 
Q 46.1875 37.015625 41.984375 42.703125 
Q 37.796875 48.390625 30.609375 48.390625 
z
M 30.609375 56 
Q 42.328125 56 49.015625 48.375 
Q 55.71875 40.765625 55.71875 27.296875 
Q 55.71875 13.875 49.015625 6.21875 
Q 42.328125 -1.421875 30.609375 -1.421875 
Q 18.84375 -1.421875 12.171875 6.21875 
Q 5.515625 13.875 5.515625 27.296875 
Q 5.515625 40.765625 12.171875 48.375 
Q 18.84375 56 30.609375 56 
z
" id="DejaVuSans-111"/>
     </defs>
     <use xlink:href="#DejaVuSans-116"/>
     <use x="39.208984" xlink:href="#DejaVuSans-114"/>
     <use x="80.322266" xlink:href="#DejaVuSans-97"/>
     <use x="141.601562" xlink:href="#DejaVuSans-105"/>
     <use x="169.384766" xlink:href="#DejaVuSans-110"/>
     <use x="232.763672" xlink:href="#DejaVuSans-105"/>
     <use x="260.546875" xlink:href="#DejaVuSans-110"/>
     <use x="323.925781" xlink:href="#DejaVuSans-103"/>
     <use x="387.402344" xlink:href="#DejaVuSans-95"/>
     <use x="437.402344" xlink:href="#DejaVuSans-109"/>
     <use x="534.814453" xlink:href="#DejaVuSans-101"/>
     <use x="596.337891" xlink:href="#DejaVuSans-116"/>
     <use x="635.546875" xlink:href="#DejaVuSans-104"/>
     <use x="698.925781" xlink:href="#DejaVuSans-111"/>
     <use x="760.107422" xlink:href="#DejaVuSans-100"/>
    </g>
   </g>
   <g id="legend_1">
    <g id="patch_31">
     <path d="M 540.84375 118.5525 
L 641 118.5525 
Q 643 118.5525 643 116.5525 
L 643 58.84 
Q 643 56.84 641 56.84 
L 540.84375 56.84 
Q 538.84375 56.84 538.84375 58.84 
L 538.84375 116.5525 
Q 538.84375 118.5525 540.84375 118.5525 
z
" style="fill:#ffffff;opacity:0.8;stroke:#cccccc;stroke-linejoin:miter;"/>
    </g>
    <g id="patch_32">
     <path d="M 542.84375 68.438438 
L 562.84375 68.438438 
L 562.84375 61.438438 
L 542.84375 61.438438 
z
" style="fill:#46bdc6;"/>
    </g>
    <g id="text_20">
     <!-- CCE, SD=4 -->
     <g transform="translate(570.84375 68.438438)scale(0.1 -0.1)">
      <defs>
       <path d="M 64.40625 67.28125 
L 64.40625 56.890625 
Q 59.421875 61.53125 53.78125 63.8125 
Q 48.140625 66.109375 41.796875 66.109375 
Q 29.296875 66.109375 22.65625 58.46875 
Q 16.015625 50.828125 16.015625 36.375 
Q 16.015625 21.96875 22.65625 14.328125 
Q 29.296875 6.6875 41.796875 6.6875 
Q 48.140625 6.6875 53.78125 8.984375 
Q 59.421875 11.28125 64.40625 15.921875 
L 64.40625 5.609375 
Q 59.234375 2.09375 53.4375 0.328125 
Q 47.65625 -1.421875 41.21875 -1.421875 
Q 24.65625 -1.421875 15.125 8.703125 
Q 5.609375 18.84375 5.609375 36.375 
Q 5.609375 53.953125 15.125 64.078125 
Q 24.65625 74.21875 41.21875 74.21875 
Q 47.75 74.21875 53.53125 72.484375 
Q 59.328125 70.75 64.40625 67.28125 
z
" id="DejaVuSans-67"/>
       <path d="M 9.8125 72.90625 
L 55.90625 72.90625 
L 55.90625 64.59375 
L 19.671875 64.59375 
L 19.671875 43.015625 
L 54.390625 43.015625 
L 54.390625 34.71875 
L 19.671875 34.71875 
L 19.671875 8.296875 
L 56.78125 8.296875 
L 56.78125 0 
L 9.8125 0 
z
" id="DejaVuSans-69"/>
       <path d="M 11.71875 12.40625 
L 22.015625 12.40625 
L 22.015625 4 
L 14.015625 -11.625 
L 7.71875 -11.625 
L 11.71875 4 
z
" id="DejaVuSans-44"/>
       <path id="DejaVuSans-32"/>
       <path d="M 53.515625 70.515625 
L 53.515625 60.890625 
Q 47.90625 63.578125 42.921875 64.890625 
Q 37.9375 66.21875 33.296875 66.21875 
Q 25.25 66.21875 20.875 63.09375 
Q 16.5 59.96875 16.5 54.203125 
Q 16.5 49.359375 19.40625 46.890625 
Q 22.3125 44.4375 30.421875 42.921875 
L 36.375 41.703125 
Q 47.40625 39.59375 52.65625 34.296875 
Q 57.90625 29 57.90625 20.125 
Q 57.90625 9.515625 50.796875 4.046875 
Q 43.703125 -1.421875 29.984375 -1.421875 
Q 24.8125 -1.421875 18.96875 -0.25 
Q 13.140625 0.921875 6.890625 3.21875 
L 6.890625 13.375 
Q 12.890625 10.015625 18.65625 8.296875 
Q 24.421875 6.59375 29.984375 6.59375 
Q 38.421875 6.59375 43.015625 9.90625 
Q 47.609375 13.234375 47.609375 19.390625 
Q 47.609375 24.75 44.3125 27.78125 
Q 41.015625 30.8125 33.5 32.328125 
L 27.484375 33.5 
Q 16.453125 35.6875 11.515625 40.375 
Q 6.59375 45.0625 6.59375 53.421875 
Q 6.59375 63.09375 13.40625 68.65625 
Q 20.21875 74.21875 32.171875 74.21875 
Q 37.3125 74.21875 42.625 73.28125 
Q 47.953125 72.359375 53.515625 70.515625 
z
" id="DejaVuSans-83"/>
       <path d="M 19.671875 64.796875 
L 19.671875 8.109375 
L 31.59375 8.109375 
Q 46.6875 8.109375 53.6875 14.9375 
Q 60.6875 21.78125 60.6875 36.53125 
Q 60.6875 51.171875 53.6875 57.984375 
Q 46.6875 64.796875 31.59375 64.796875 
z
M 9.8125 72.90625 
L 30.078125 72.90625 
Q 51.265625 72.90625 61.171875 64.09375 
Q 71.09375 55.28125 71.09375 36.53125 
Q 71.09375 17.671875 61.125 8.828125 
Q 51.171875 0 30.078125 0 
L 9.8125 0 
z
" id="DejaVuSans-68"/>
       <path d="M 10.59375 45.40625 
L 73.1875 45.40625 
L 73.1875 37.203125 
L 10.59375 37.203125 
z
M 10.59375 25.484375 
L 73.1875 25.484375 
L 73.1875 17.1875 
L 10.59375 17.1875 
z
" id="DejaVuSans-61"/>
       <path d="M 37.796875 64.3125 
L 12.890625 25.390625 
L 37.796875 25.390625 
z
M 35.203125 72.90625 
L 47.609375 72.90625 
L 47.609375 25.390625 
L 58.015625 25.390625 
L 58.015625 17.1875 
L 47.609375 17.1875 
L 47.609375 0 
L 37.796875 0 
L 37.796875 17.1875 
L 4.890625 17.1875 
L 4.890625 26.703125 
z
" id="DejaVuSans-52"/>
      </defs>
      <use xlink:href="#DejaVuSans-67"/>
      <use x="69.824219" xlink:href="#DejaVuSans-67"/>
      <use x="139.648438" xlink:href="#DejaVuSans-69"/>
      <use x="202.832031" xlink:href="#DejaVuSans-44"/>
      <use x="234.619141" xlink:href="#DejaVuSans-32"/>
      <use x="266.40625" xlink:href="#DejaVuSans-83"/>
      <use x="329.882812" xlink:href="#DejaVuSans-68"/>
      <use x="406.884766" xlink:href="#DejaVuSans-61"/>
      <use x="490.673828" xlink:href="#DejaVuSans-52"/>
     </g>
    </g>
    <g id="patch_33">
     <path d="M 542.84375 83.116563 
L 562.84375 83.116563 
L 562.84375 76.116563 
L 542.84375 76.116563 
z
" style="fill:#ea4335;"/>
    </g>
    <g id="text_21">
     <!-- JSD, SD=4 -->
     <g transform="translate(570.84375 83.116563)scale(0.1 -0.1)">
      <defs>
       <path d="M 9.8125 72.90625 
L 19.671875 72.90625 
L 19.671875 5.078125 
Q 19.671875 -8.109375 14.671875 -14.0625 
Q 9.671875 -20.015625 -1.421875 -20.015625 
L -5.171875 -20.015625 
L -5.171875 -11.71875 
L -2.09375 -11.71875 
Q 4.4375 -11.71875 7.125 -8.046875 
Q 9.8125 -4.390625 9.8125 5.078125 
z
" id="DejaVuSans-74"/>
      </defs>
      <use xlink:href="#DejaVuSans-74"/>
      <use x="29.492188" xlink:href="#DejaVuSans-83"/>
      <use x="92.96875" xlink:href="#DejaVuSans-68"/>
      <use x="169.970703" xlink:href="#DejaVuSans-44"/>
      <use x="201.757812" xlink:href="#DejaVuSans-32"/>
      <use x="233.544922" xlink:href="#DejaVuSans-83"/>
      <use x="297.021484" xlink:href="#DejaVuSans-68"/>
      <use x="374.023438" xlink:href="#DejaVuSans-61"/>
      <use x="457.8125" xlink:href="#DejaVuSans-52"/>
     </g>
    </g>
    <g id="patch_34">
     <path d="M 542.84375 97.794688 
L 562.84375 97.794688 
L 562.84375 90.794688 
L 542.84375 90.794688 
z
" style="fill:#800080;"/>
    </g>
    <g id="text_22">
     <!-- CCE, SD=100 -->
     <g transform="translate(570.84375 97.794688)scale(0.1 -0.1)">
      <use xlink:href="#DejaVuSans-67"/>
      <use x="69.824219" xlink:href="#DejaVuSans-67"/>
      <use x="139.648438" xlink:href="#DejaVuSans-69"/>
      <use x="202.832031" xlink:href="#DejaVuSans-44"/>
      <use x="234.619141" xlink:href="#DejaVuSans-32"/>
      <use x="266.40625" xlink:href="#DejaVuSans-83"/>
      <use x="329.882812" xlink:href="#DejaVuSans-68"/>
      <use x="406.884766" xlink:href="#DejaVuSans-61"/>
      <use x="490.673828" xlink:href="#DejaVuSans-49"/>
      <use x="554.296875" xlink:href="#DejaVuSans-48"/>
      <use x="617.919922" xlink:href="#DejaVuSans-48"/>
     </g>
    </g>
    <g id="patch_35">
     <path d="M 542.84375 112.472813 
L 562.84375 112.472813 
L 562.84375 105.472813 
L 542.84375 105.472813 
z
" style="fill:#34a853;"/>
    </g>
    <g id="text_23">
     <!-- JSD, SD=100 -->
     <g transform="translate(570.84375 112.472813)scale(0.1 -0.1)">
      <use xlink:href="#DejaVuSans-74"/>
      <use x="29.492188" xlink:href="#DejaVuSans-83"/>
      <use x="92.96875" xlink:href="#DejaVuSans-68"/>
      <use x="169.970703" xlink:href="#DejaVuSans-44"/>
      <use x="201.757812" xlink:href="#DejaVuSans-32"/>
      <use x="233.544922" xlink:href="#DejaVuSans-83"/>
      <use x="297.021484" xlink:href="#DejaVuSans-68"/>
      <use x="374.023438" xlink:href="#DejaVuSans-61"/>
      <use x="457.8125" xlink:href="#DejaVuSans-49"/>
      <use x="521.435547" xlink:href="#DejaVuSans-48"/>
      <use x="585.058594" xlink:href="#DejaVuSans-48"/>
     </g>
    </g>
   </g>
  </g>
 </g>
 <defs>
  <clipPath id="p9499e34383">
   <rect height="326.16" width="558" x="90" y="51.84"/>
  </clipPath>
 </defs>
</svg>
