<?xml version="1.0" encoding="utf-8" standalone="no"?>
<!DOCTYPE svg PUBLIC "-//W3C//DTD SVG 1.1//EN"
  "http://www.w3.org/Graphics/SVG/1.1/DTD/svg11.dtd">
<!-- Created with matplotlib (https://matplotlib.org/) -->
<svg height="432pt" version="1.1" viewBox="0 0 720 432" width="720pt" xmlns="http://www.w3.org/2000/svg" xmlns:xlink="http://www.w3.org/1999/xlink">
 <metadata>
  <rdf:RDF xmlns:cc="http://creativecommons.org/ns#" xmlns:dc="http://purl.org/dc/elements/1.1/" xmlns:rdf="http://www.w3.org/1999/02/22-rdf-syntax-ns#">
   <cc:Work>
    <dc:type rdf:resource="http://purl.org/dc/dcmitype/StillImage"/>
    <dc:date>2021-02-28T14:44:14.947113</dc:date>
    <dc:format>image/svg+xml</dc:format>
    <dc:creator>
     <cc:Agent>
      <dc:title>Matplotlib v3.3.2, https://matplotlib.org/</dc:title>
     </cc:Agent>
    </dc:creator>
   </cc:Work>
  </rdf:RDF>
 </metadata>
 <defs>
  <style type="text/css">*{stroke-linecap:butt;stroke-linejoin:round;}</style>
 </defs>
 <g id="figure_1">
  <g id="patch_1">
   <path d="M 0 432 
L 720 432 
L 720 0 
L 0 0 
z
" style="fill:none;"/>
  </g>
  <g id="axes_1">
   <g id="patch_2">
    <path d="M 90 378 
L 648 378 
L 648 51.84 
L 90 51.84 
z
" style="fill:#ffffff;"/>
   </g>
   <g id="PolyCollection_1">
    <path clip-path="url(#p5a4dd82b28)" d="M 115.363636 57.008685 
L 115.363636 60.222642 
L 133.480519 63.091731 
L 151.597403 66.080828 
L 169.714286 69.422578 
L 260.298701 81.398318 
L 441.467532 253.429728 
L 622.636364 559.053379 
L 622.636364 527.067573 
L 622.636364 527.067573 
L 441.467532 221.41497 
L 260.298701 78.491507 
L 169.714286 67.744896 
L 151.597403 65.134607 
L 133.480519 61.789677 
L 115.363636 57.008685 
z
" style="fill:#ea4335;fill-opacity:0.2;stroke:#ea4335;stroke-opacity:0.2;"/>
   </g>
   <g id="PolyCollection_2">
    <path clip-path="url(#p5a4dd82b28)" d="M 115.363636 56.035665 
L 115.363636 56.763263 
L 133.480519 58.868876 
L 151.597403 61.030353 
L 169.714286 62.758396 
L 260.298701 68.57992 
L 441.467532 203.277021 
L 622.636364 543.357162 
L 622.636364 502.419452 
L 622.636364 502.419452 
L 441.467532 174.205015 
L 260.298701 65.080578 
L 169.714286 61.473955 
L 151.597403 59.821389 
L 133.480519 58.037421 
L 115.363636 56.035665 
z
" style="fill:#fbbc04;fill-opacity:0.2;stroke:#fbbc04;stroke-opacity:0.2;"/>
   </g>
   <g id="PolyCollection_3">
    <defs>
     <path d="M 115.363636 -243.654571 
L 115.363636 -235.349061 
L 133.480519 -241.441075 
L 151.597403 -243.788136 
L 169.714286 -245.741513 
L 260.298701 -245.232551 
L 441.467532 -162.945446 
L 622.636364 85.609616 
L 622.636364 55.122344 
L 622.636364 55.122344 
L 441.467532 -192.213979 
L 260.298701 -250.49385 
L 169.714286 -248.528026 
L 151.597403 -246.48986 
L 133.480519 -244.937666 
L 115.363636 -243.654571 
z
" id="m7f28c99f70" style="stroke:#4285f4;stroke-opacity:0.2;"/>
    </defs>
    <g clip-path="url(#p5a4dd82b28)">
     <use style="fill:#4285f4;fill-opacity:0.2;stroke:#4285f4;stroke-opacity:0.2;" x="0" xlink:href="#m7f28c99f70" y="432"/>
    </g>
   </g>
   <g id="PolyCollection_4">
    <defs>
     <path d="M 115.363636 -282.321414 
L 115.363636 -276.101542 
L 133.480519 -279.654817 
L 151.597403 -283.296433 
L 169.714286 -286.336266 
L 260.298701 -317.525142 
L 441.467532 -257.860167 
L 622.636364 44.479685 
L 622.636364 -14.137436 
L 622.636364 -14.137436 
L 441.467532 -281.531778 
L 260.298701 -326.804129 
L 169.714286 -294.458755 
L 151.597403 -287.736512 
L 133.480519 -282.735481 
L 115.363636 -282.321414 
z
" id="m44dbc004c8" style="stroke:#000000;stroke-opacity:0.2;"/>
    </defs>
    <g clip-path="url(#p5a4dd82b28)">
     <use style="fill-opacity:0.2;stroke:#000000;stroke-opacity:0.2;" x="0" xlink:href="#m44dbc004c8" y="432"/>
    </g>
   </g>
   <g id="PolyCollection_5">
    <defs>
     <path d="M 115.363636 -365.030063 
L 115.363636 -359.022379 
L 133.480519 -340.586685 
L 151.597403 -300.40138 
L 169.714286 -213.550953 
L 169.714286 -235.659972 
L 169.714286 -235.659972 
L 151.597403 -308.038569 
L 133.480519 -345.608104 
L 115.363636 -365.030063 
z
" id="m5109fc54ce" style="stroke:#34a853;stroke-opacity:0.2;"/>
    </defs>
    <g clip-path="url(#p5a4dd82b28)">
     <use style="fill:#34a853;fill-opacity:0.2;stroke:#34a853;stroke-opacity:0.2;" x="0" xlink:href="#m5109fc54ce" y="432"/>
    </g>
   </g>
   <g id="PolyCollection_6">
    <defs>
     <path d="M 115.363636 -368.791153 
L 115.363636 -363.772619 
L 133.480519 -359.557418 
L 151.597403 -261.610258 
L 169.714286 -227.956971 
L 169.714286 -251.229954 
L 169.714286 -251.229954 
L 151.597403 -290.086423 
L 133.480519 -362.776761 
L 115.363636 -368.791153 
z
" id="m13678e318e" style="stroke:#46bdc6;stroke-opacity:0.2;"/>
    </defs>
    <g clip-path="url(#p5a4dd82b28)">
     <use style="fill:#46bdc6;fill-opacity:0.2;stroke:#46bdc6;stroke-opacity:0.2;" x="0" xlink:href="#m13678e318e" y="432"/>
    </g>
   </g>
   <g id="matplotlib.axis_1">
    <g id="xtick_1">
     <g id="line2d_1">
      <path clip-path="url(#p5a4dd82b28)" d="M 169.714286 378 
L 169.714286 51.84 
" style="fill:none;stroke:#b0b0b0;stroke-linecap:square;stroke-width:0.8;"/>
     </g>
     <g id="line2d_2">
      <defs>
       <path d="M 0 0 
L 0 3.5 
" id="m2efd2edd49" style="stroke:#000000;stroke-width:0.8;"/>
      </defs>
      <g>
       <use style="stroke:#000000;stroke-width:0.8;" x="169.714286" xlink:href="#m2efd2edd49" y="378"/>
      </g>
     </g>
     <g id="text_1">
      <!-- 5 -->
      <g transform="translate(166.533036 392.598437)scale(0.1 -0.1)">
       <defs>
        <path d="M 10.796875 72.90625 
L 49.515625 72.90625 
L 49.515625 64.59375 
L 19.828125 64.59375 
L 19.828125 46.734375 
Q 21.96875 47.46875 24.109375 47.828125 
Q 26.265625 48.1875 28.421875 48.1875 
Q 40.625 48.1875 47.75 41.5 
Q 54.890625 34.8125 54.890625 23.390625 
Q 54.890625 11.625 47.5625 5.09375 
Q 40.234375 -1.421875 26.90625 -1.421875 
Q 22.3125 -1.421875 17.546875 -0.640625 
Q 12.796875 0.140625 7.71875 1.703125 
L 7.71875 11.625 
Q 12.109375 9.234375 16.796875 8.0625 
Q 21.484375 6.890625 26.703125 6.890625 
Q 35.15625 6.890625 40.078125 11.328125 
Q 45.015625 15.765625 45.015625 23.390625 
Q 45.015625 31 40.078125 35.4375 
Q 35.15625 39.890625 26.703125 39.890625 
Q 22.75 39.890625 18.8125 39.015625 
Q 14.890625 38.140625 10.796875 36.28125 
z
" id="DejaVuSans-53"/>
       </defs>
       <use xlink:href="#DejaVuSans-53"/>
      </g>
     </g>
    </g>
    <g id="xtick_2">
     <g id="line2d_3">
      <path clip-path="url(#p5a4dd82b28)" d="M 260.298701 378 
L 260.298701 51.84 
" style="fill:none;stroke:#b0b0b0;stroke-linecap:square;stroke-width:0.8;"/>
     </g>
     <g id="line2d_4">
      <g>
       <use style="stroke:#000000;stroke-width:0.8;" x="260.298701" xlink:href="#m2efd2edd49" y="378"/>
      </g>
     </g>
     <g id="text_2">
      <!-- 10 -->
      <g transform="translate(253.936201 392.598437)scale(0.1 -0.1)">
       <defs>
        <path d="M 12.40625 8.296875 
L 28.515625 8.296875 
L 28.515625 63.921875 
L 10.984375 60.40625 
L 10.984375 69.390625 
L 28.421875 72.90625 
L 38.28125 72.90625 
L 38.28125 8.296875 
L 54.390625 8.296875 
L 54.390625 0 
L 12.40625 0 
z
" id="DejaVuSans-49"/>
        <path d="M 31.78125 66.40625 
Q 24.171875 66.40625 20.328125 58.90625 
Q 16.5 51.421875 16.5 36.375 
Q 16.5 21.390625 20.328125 13.890625 
Q 24.171875 6.390625 31.78125 6.390625 
Q 39.453125 6.390625 43.28125 13.890625 
Q 47.125 21.390625 47.125 36.375 
Q 47.125 51.421875 43.28125 58.90625 
Q 39.453125 66.40625 31.78125 66.40625 
z
M 31.78125 74.21875 
Q 44.046875 74.21875 50.515625 64.515625 
Q 56.984375 54.828125 56.984375 36.375 
Q 56.984375 17.96875 50.515625 8.265625 
Q 44.046875 -1.421875 31.78125 -1.421875 
Q 19.53125 -1.421875 13.0625 8.265625 
Q 6.59375 17.96875 6.59375 36.375 
Q 6.59375 54.828125 13.0625 64.515625 
Q 19.53125 74.21875 31.78125 74.21875 
z
" id="DejaVuSans-48"/>
       </defs>
       <use xlink:href="#DejaVuSans-49"/>
       <use x="63.623047" xlink:href="#DejaVuSans-48"/>
      </g>
     </g>
    </g>
    <g id="xtick_3">
     <g id="line2d_5">
      <path clip-path="url(#p5a4dd82b28)" d="M 350.883117 378 
L 350.883117 51.84 
" style="fill:none;stroke:#b0b0b0;stroke-linecap:square;stroke-width:0.8;"/>
     </g>
     <g id="line2d_6">
      <g>
       <use style="stroke:#000000;stroke-width:0.8;" x="350.883117" xlink:href="#m2efd2edd49" y="378"/>
      </g>
     </g>
     <g id="text_3">
      <!-- 15 -->
      <g transform="translate(344.520617 392.598437)scale(0.1 -0.1)">
       <use xlink:href="#DejaVuSans-49"/>
       <use x="63.623047" xlink:href="#DejaVuSans-53"/>
      </g>
     </g>
    </g>
    <g id="xtick_4">
     <g id="line2d_7">
      <path clip-path="url(#p5a4dd82b28)" d="M 441.467532 378 
L 441.467532 51.84 
" style="fill:none;stroke:#b0b0b0;stroke-linecap:square;stroke-width:0.8;"/>
     </g>
     <g id="line2d_8">
      <g>
       <use style="stroke:#000000;stroke-width:0.8;" x="441.467532" xlink:href="#m2efd2edd49" y="378"/>
      </g>
     </g>
     <g id="text_4">
      <!-- 20 -->
      <g transform="translate(435.105032 392.598437)scale(0.1 -0.1)">
       <defs>
        <path d="M 19.1875 8.296875 
L 53.609375 8.296875 
L 53.609375 0 
L 7.328125 0 
L 7.328125 8.296875 
Q 12.9375 14.109375 22.625 23.890625 
Q 32.328125 33.6875 34.8125 36.53125 
Q 39.546875 41.84375 41.421875 45.53125 
Q 43.3125 49.21875 43.3125 52.78125 
Q 43.3125 58.59375 39.234375 62.25 
Q 35.15625 65.921875 28.609375 65.921875 
Q 23.96875 65.921875 18.8125 64.3125 
Q 13.671875 62.703125 7.8125 59.421875 
L 7.8125 69.390625 
Q 13.765625 71.78125 18.9375 73 
Q 24.125 74.21875 28.421875 74.21875 
Q 39.75 74.21875 46.484375 68.546875 
Q 53.21875 62.890625 53.21875 53.421875 
Q 53.21875 48.921875 51.53125 44.890625 
Q 49.859375 40.875 45.40625 35.40625 
Q 44.1875 33.984375 37.640625 27.21875 
Q 31.109375 20.453125 19.1875 8.296875 
z
" id="DejaVuSans-50"/>
       </defs>
       <use xlink:href="#DejaVuSans-50"/>
       <use x="63.623047" xlink:href="#DejaVuSans-48"/>
      </g>
     </g>
    </g>
    <g id="xtick_5">
     <g id="line2d_9">
      <path clip-path="url(#p5a4dd82b28)" d="M 532.051948 378 
L 532.051948 51.84 
" style="fill:none;stroke:#b0b0b0;stroke-linecap:square;stroke-width:0.8;"/>
     </g>
     <g id="line2d_10">
      <g>
       <use style="stroke:#000000;stroke-width:0.8;" x="532.051948" xlink:href="#m2efd2edd49" y="378"/>
      </g>
     </g>
     <g id="text_5">
      <!-- 25 -->
      <g transform="translate(525.689448 392.598437)scale(0.1 -0.1)">
       <use xlink:href="#DejaVuSans-50"/>
       <use x="63.623047" xlink:href="#DejaVuSans-53"/>
      </g>
     </g>
    </g>
    <g id="xtick_6">
     <g id="line2d_11">
      <path clip-path="url(#p5a4dd82b28)" d="M 622.636364 378 
L 622.636364 51.84 
" style="fill:none;stroke:#b0b0b0;stroke-linecap:square;stroke-width:0.8;"/>
     </g>
     <g id="line2d_12">
      <g>
       <use style="stroke:#000000;stroke-width:0.8;" x="622.636364" xlink:href="#m2efd2edd49" y="378"/>
      </g>
     </g>
     <g id="text_6">
      <!-- 30 -->
      <g transform="translate(616.273864 392.598437)scale(0.1 -0.1)">
       <defs>
        <path d="M 40.578125 39.3125 
Q 47.65625 37.796875 51.625 33 
Q 55.609375 28.21875 55.609375 21.1875 
Q 55.609375 10.40625 48.1875 4.484375 
Q 40.765625 -1.421875 27.09375 -1.421875 
Q 22.515625 -1.421875 17.65625 -0.515625 
Q 12.796875 0.390625 7.625 2.203125 
L 7.625 11.71875 
Q 11.71875 9.328125 16.59375 8.109375 
Q 21.484375 6.890625 26.8125 6.890625 
Q 36.078125 6.890625 40.9375 10.546875 
Q 45.796875 14.203125 45.796875 21.1875 
Q 45.796875 27.640625 41.28125 31.265625 
Q 36.765625 34.90625 28.71875 34.90625 
L 20.21875 34.90625 
L 20.21875 43.015625 
L 29.109375 43.015625 
Q 36.375 43.015625 40.234375 45.921875 
Q 44.09375 48.828125 44.09375 54.296875 
Q 44.09375 59.90625 40.109375 62.90625 
Q 36.140625 65.921875 28.71875 65.921875 
Q 24.65625 65.921875 20.015625 65.03125 
Q 15.375 64.15625 9.8125 62.3125 
L 9.8125 71.09375 
Q 15.4375 72.65625 20.34375 73.4375 
Q 25.25 74.21875 29.59375 74.21875 
Q 40.828125 74.21875 47.359375 69.109375 
Q 53.90625 64.015625 53.90625 55.328125 
Q 53.90625 49.265625 50.4375 45.09375 
Q 46.96875 40.921875 40.578125 39.3125 
z
" id="DejaVuSans-51"/>
       </defs>
       <use xlink:href="#DejaVuSans-51"/>
       <use x="63.623047" xlink:href="#DejaVuSans-48"/>
      </g>
     </g>
    </g>
   </g>
   <g id="matplotlib.axis_2">
    <g id="ytick_1">
     <g id="line2d_13">
      <path clip-path="url(#p5a4dd82b28)" d="M 90 378 
L 648 378 
" style="fill:none;stroke:#b0b0b0;stroke-linecap:square;stroke-width:0.8;"/>
     </g>
     <g id="line2d_14">
      <defs>
       <path d="M 0 0 
L -3.5 0 
" id="me4e2a55e0b" style="stroke:#000000;stroke-width:0.8;"/>
      </defs>
      <g>
       <use style="stroke:#000000;stroke-width:0.8;" x="90" xlink:href="#me4e2a55e0b" y="378"/>
      </g>
     </g>
     <g id="text_7">
      <!-- −175 -->
      <g transform="translate(55.532812 381.799219)scale(0.1 -0.1)">
       <defs>
        <path d="M 10.59375 35.5 
L 73.1875 35.5 
L 73.1875 27.203125 
L 10.59375 27.203125 
z
" id="DejaVuSans-8722"/>
        <path d="M 8.203125 72.90625 
L 55.078125 72.90625 
L 55.078125 68.703125 
L 28.609375 0 
L 18.3125 0 
L 43.21875 64.59375 
L 8.203125 64.59375 
z
" id="DejaVuSans-55"/>
       </defs>
       <use xlink:href="#DejaVuSans-8722"/>
       <use x="83.789062" xlink:href="#DejaVuSans-49"/>
       <use x="147.412109" xlink:href="#DejaVuSans-55"/>
       <use x="211.035156" xlink:href="#DejaVuSans-53"/>
      </g>
     </g>
    </g>
    <g id="ytick_2">
     <g id="line2d_15">
      <path clip-path="url(#p5a4dd82b28)" d="M 90 348.349091 
L 648 348.349091 
" style="fill:none;stroke:#b0b0b0;stroke-linecap:square;stroke-width:0.8;"/>
     </g>
     <g id="line2d_16">
      <g>
       <use style="stroke:#000000;stroke-width:0.8;" x="90" xlink:href="#me4e2a55e0b" y="348.349091"/>
      </g>
     </g>
     <g id="text_8">
      <!-- −150 -->
      <g transform="translate(55.532812 352.14831)scale(0.1 -0.1)">
       <use xlink:href="#DejaVuSans-8722"/>
       <use x="83.789062" xlink:href="#DejaVuSans-49"/>
       <use x="147.412109" xlink:href="#DejaVuSans-53"/>
       <use x="211.035156" xlink:href="#DejaVuSans-48"/>
      </g>
     </g>
    </g>
    <g id="ytick_3">
     <g id="line2d_17">
      <path clip-path="url(#p5a4dd82b28)" d="M 90 318.698182 
L 648 318.698182 
" style="fill:none;stroke:#b0b0b0;stroke-linecap:square;stroke-width:0.8;"/>
     </g>
     <g id="line2d_18">
      <g>
       <use style="stroke:#000000;stroke-width:0.8;" x="90" xlink:href="#me4e2a55e0b" y="318.698182"/>
      </g>
     </g>
     <g id="text_9">
      <!-- −125 -->
      <g transform="translate(55.532812 322.497401)scale(0.1 -0.1)">
       <use xlink:href="#DejaVuSans-8722"/>
       <use x="83.789062" xlink:href="#DejaVuSans-49"/>
       <use x="147.412109" xlink:href="#DejaVuSans-50"/>
       <use x="211.035156" xlink:href="#DejaVuSans-53"/>
      </g>
     </g>
    </g>
    <g id="ytick_4">
     <g id="line2d_19">
      <path clip-path="url(#p5a4dd82b28)" d="M 90 289.047273 
L 648 289.047273 
" style="fill:none;stroke:#b0b0b0;stroke-linecap:square;stroke-width:0.8;"/>
     </g>
     <g id="line2d_20">
      <g>
       <use style="stroke:#000000;stroke-width:0.8;" x="90" xlink:href="#me4e2a55e0b" y="289.047273"/>
      </g>
     </g>
     <g id="text_10">
      <!-- −100 -->
      <g transform="translate(55.532812 292.846491)scale(0.1 -0.1)">
       <use xlink:href="#DejaVuSans-8722"/>
       <use x="83.789062" xlink:href="#DejaVuSans-49"/>
       <use x="147.412109" xlink:href="#DejaVuSans-48"/>
       <use x="211.035156" xlink:href="#DejaVuSans-48"/>
      </g>
     </g>
    </g>
    <g id="ytick_5">
     <g id="line2d_21">
      <path clip-path="url(#p5a4dd82b28)" d="M 90 259.396364 
L 648 259.396364 
" style="fill:none;stroke:#b0b0b0;stroke-linecap:square;stroke-width:0.8;"/>
     </g>
     <g id="line2d_22">
      <g>
       <use style="stroke:#000000;stroke-width:0.8;" x="90" xlink:href="#me4e2a55e0b" y="259.396364"/>
      </g>
     </g>
     <g id="text_11">
      <!-- −75 -->
      <g transform="translate(61.895313 263.195582)scale(0.1 -0.1)">
       <use xlink:href="#DejaVuSans-8722"/>
       <use x="83.789062" xlink:href="#DejaVuSans-55"/>
       <use x="147.412109" xlink:href="#DejaVuSans-53"/>
      </g>
     </g>
    </g>
    <g id="ytick_6">
     <g id="line2d_23">
      <path clip-path="url(#p5a4dd82b28)" d="M 90 229.745455 
L 648 229.745455 
" style="fill:none;stroke:#b0b0b0;stroke-linecap:square;stroke-width:0.8;"/>
     </g>
     <g id="line2d_24">
      <g>
       <use style="stroke:#000000;stroke-width:0.8;" x="90" xlink:href="#me4e2a55e0b" y="229.745455"/>
      </g>
     </g>
     <g id="text_12">
      <!-- −50 -->
      <g transform="translate(61.895313 233.544673)scale(0.1 -0.1)">
       <use xlink:href="#DejaVuSans-8722"/>
       <use x="83.789062" xlink:href="#DejaVuSans-53"/>
       <use x="147.412109" xlink:href="#DejaVuSans-48"/>
      </g>
     </g>
    </g>
    <g id="ytick_7">
     <g id="line2d_25">
      <path clip-path="url(#p5a4dd82b28)" d="M 90 200.094545 
L 648 200.094545 
" style="fill:none;stroke:#b0b0b0;stroke-linecap:square;stroke-width:0.8;"/>
     </g>
     <g id="line2d_26">
      <g>
       <use style="stroke:#000000;stroke-width:0.8;" x="90" xlink:href="#me4e2a55e0b" y="200.094545"/>
      </g>
     </g>
     <g id="text_13">
      <!-- −25 -->
      <g transform="translate(61.895313 203.893764)scale(0.1 -0.1)">
       <use xlink:href="#DejaVuSans-8722"/>
       <use x="83.789062" xlink:href="#DejaVuSans-50"/>
       <use x="147.412109" xlink:href="#DejaVuSans-53"/>
      </g>
     </g>
    </g>
    <g id="ytick_8">
     <g id="line2d_27">
      <path clip-path="url(#p5a4dd82b28)" d="M 90 170.443636 
L 648 170.443636 
" style="fill:none;stroke:#b0b0b0;stroke-linecap:square;stroke-width:0.8;"/>
     </g>
     <g id="line2d_28">
      <g>
       <use style="stroke:#000000;stroke-width:0.8;" x="90" xlink:href="#me4e2a55e0b" y="170.443636"/>
      </g>
     </g>
     <g id="text_14">
      <!-- 0 -->
      <g transform="translate(76.6375 174.242855)scale(0.1 -0.1)">
       <use xlink:href="#DejaVuSans-48"/>
      </g>
     </g>
    </g>
    <g id="ytick_9">
     <g id="line2d_29">
      <path clip-path="url(#p5a4dd82b28)" d="M 90 140.792727 
L 648 140.792727 
" style="fill:none;stroke:#b0b0b0;stroke-linecap:square;stroke-width:0.8;"/>
     </g>
     <g id="line2d_30">
      <g>
       <use style="stroke:#000000;stroke-width:0.8;" x="90" xlink:href="#me4e2a55e0b" y="140.792727"/>
      </g>
     </g>
     <g id="text_15">
      <!-- 25 -->
      <g transform="translate(70.275 144.591946)scale(0.1 -0.1)">
       <use xlink:href="#DejaVuSans-50"/>
       <use x="63.623047" xlink:href="#DejaVuSans-53"/>
      </g>
     </g>
    </g>
    <g id="ytick_10">
     <g id="line2d_31">
      <path clip-path="url(#p5a4dd82b28)" d="M 90 111.141818 
L 648 111.141818 
" style="fill:none;stroke:#b0b0b0;stroke-linecap:square;stroke-width:0.8;"/>
     </g>
     <g id="line2d_32">
      <g>
       <use style="stroke:#000000;stroke-width:0.8;" x="90" xlink:href="#me4e2a55e0b" y="111.141818"/>
      </g>
     </g>
     <g id="text_16">
      <!-- 50 -->
      <g transform="translate(70.275 114.941037)scale(0.1 -0.1)">
       <use xlink:href="#DejaVuSans-53"/>
       <use x="63.623047" xlink:href="#DejaVuSans-48"/>
      </g>
     </g>
    </g>
    <g id="ytick_11">
     <g id="line2d_33">
      <path clip-path="url(#p5a4dd82b28)" d="M 90 81.490909 
L 648 81.490909 
" style="fill:none;stroke:#b0b0b0;stroke-linecap:square;stroke-width:0.8;"/>
     </g>
     <g id="line2d_34">
      <g>
       <use style="stroke:#000000;stroke-width:0.8;" x="90" xlink:href="#me4e2a55e0b" y="81.490909"/>
      </g>
     </g>
     <g id="text_17">
      <!-- 75 -->
      <g transform="translate(70.275 85.290128)scale(0.1 -0.1)">
       <use xlink:href="#DejaVuSans-55"/>
       <use x="63.623047" xlink:href="#DejaVuSans-53"/>
      </g>
     </g>
    </g>
    <g id="ytick_12">
     <g id="line2d_35">
      <path clip-path="url(#p5a4dd82b28)" d="M 90 51.84 
L 648 51.84 
" style="fill:none;stroke:#b0b0b0;stroke-linecap:square;stroke-width:0.8;"/>
     </g>
     <g id="line2d_36">
      <g>
       <use style="stroke:#000000;stroke-width:0.8;" x="90" xlink:href="#me4e2a55e0b" y="51.84"/>
      </g>
     </g>
     <g id="text_18">
      <!-- 100 -->
      <g transform="translate(63.9125 55.639219)scale(0.1 -0.1)">
       <use xlink:href="#DejaVuSans-49"/>
       <use x="63.623047" xlink:href="#DejaVuSans-48"/>
       <use x="127.246094" xlink:href="#DejaVuSans-48"/>
      </g>
     </g>
    </g>
   </g>
   <g id="line2d_37">
    <path clip-path="url(#p5a4dd82b28)" d="M 115.363636 58.615664 
L 133.480519 62.440704 
L 151.597403 65.607717 
L 169.714286 68.583737 
L 260.298701 79.944913 
L 441.467532 237.422349 
L 557.397357 433 
" style="fill:none;stroke:#ea4335;stroke-linecap:square;stroke-width:1.5;"/>
    <defs>
     <path d="M 0 3 
C 0.795609 3 1.55874 2.683901 2.12132 2.12132 
C 2.683901 1.55874 3 0.795609 3 0 
C 3 -0.795609 2.683901 -1.55874 2.12132 -2.12132 
C 1.55874 -2.683901 0.795609 -3 0 -3 
C -0.795609 -3 -1.55874 -2.683901 -2.12132 -2.12132 
C -2.683901 -1.55874 -3 -0.795609 -3 0 
C -3 0.795609 -2.683901 1.55874 -2.12132 2.12132 
C -1.55874 2.683901 -0.795609 3 0 3 
z
" id="m1c230e1036" style="stroke:#ea4335;"/>
    </defs>
    <g clip-path="url(#p5a4dd82b28)">
     <use style="fill:#ea4335;stroke:#ea4335;" x="115.363636" xlink:href="#m1c230e1036" y="58.615664"/>
     <use style="fill:#ea4335;stroke:#ea4335;" x="133.480519" xlink:href="#m1c230e1036" y="62.440704"/>
     <use style="fill:#ea4335;stroke:#ea4335;" x="151.597403" xlink:href="#m1c230e1036" y="65.607717"/>
     <use style="fill:#ea4335;stroke:#ea4335;" x="169.714286" xlink:href="#m1c230e1036" y="68.583737"/>
     <use style="fill:#ea4335;stroke:#ea4335;" x="260.298701" xlink:href="#m1c230e1036" y="79.944913"/>
     <use style="fill:#ea4335;stroke:#ea4335;" x="441.467532" xlink:href="#m1c230e1036" y="237.422349"/>
     <use style="fill:#ea4335;stroke:#ea4335;" x="622.636364" xlink:href="#m1c230e1036" y="543.060476"/>
    </g>
   </g>
   <g id="line2d_38">
    <path clip-path="url(#p5a4dd82b28)" d="M 115.363636 56.399464 
L 133.480519 58.453148 
L 151.597403 60.425871 
L 169.714286 62.116175 
L 260.298701 66.830249 
L 441.467532 188.741018 
L 573.900492 433 
" style="fill:none;stroke:#fbbc04;stroke-linecap:square;stroke-width:1.5;"/>
    <defs>
     <path d="M 0 3 
C 0.795609 3 1.55874 2.683901 2.12132 2.12132 
C 2.683901 1.55874 3 0.795609 3 0 
C 3 -0.795609 2.683901 -1.55874 2.12132 -2.12132 
C 1.55874 -2.683901 0.795609 -3 0 -3 
C -0.795609 -3 -1.55874 -2.683901 -2.12132 -2.12132 
C -2.683901 -1.55874 -3 -0.795609 -3 0 
C -3 0.795609 -2.683901 1.55874 -2.12132 2.12132 
C -1.55874 2.683901 -0.795609 3 0 3 
z
" id="me707cab3bb" style="stroke:#fbbc04;"/>
    </defs>
    <g clip-path="url(#p5a4dd82b28)">
     <use style="fill:#fbbc04;stroke:#fbbc04;" x="115.363636" xlink:href="#me707cab3bb" y="56.399464"/>
     <use style="fill:#fbbc04;stroke:#fbbc04;" x="133.480519" xlink:href="#me707cab3bb" y="58.453148"/>
     <use style="fill:#fbbc04;stroke:#fbbc04;" x="151.597403" xlink:href="#me707cab3bb" y="60.425871"/>
     <use style="fill:#fbbc04;stroke:#fbbc04;" x="169.714286" xlink:href="#me707cab3bb" y="62.116175"/>
     <use style="fill:#fbbc04;stroke:#fbbc04;" x="260.298701" xlink:href="#me707cab3bb" y="66.830249"/>
     <use style="fill:#fbbc04;stroke:#fbbc04;" x="441.467532" xlink:href="#me707cab3bb" y="188.741018"/>
     <use style="fill:#fbbc04;stroke:#fbbc04;" x="622.636364" xlink:href="#me707cab3bb" y="522.888307"/>
    </g>
   </g>
   <g id="line2d_39">
    <path clip-path="url(#p5a4dd82b28)" d="M 115.363636 192.498184 
L 133.480519 188.810629 
L 151.597403 186.861002 
L 169.714286 184.865231 
L 260.298701 184.1368 
L 441.467532 254.420288 
L 571.952065 433 
" style="fill:none;stroke:#4285f4;stroke-linecap:square;stroke-width:1.5;"/>
    <defs>
     <path d="M 0 3 
C 0.795609 3 1.55874 2.683901 2.12132 2.12132 
C 2.683901 1.55874 3 0.795609 3 0 
C 3 -0.795609 2.683901 -1.55874 2.12132 -2.12132 
C 1.55874 -2.683901 0.795609 -3 0 -3 
C -0.795609 -3 -1.55874 -2.683901 -2.12132 -2.12132 
C -2.683901 -1.55874 -3 -0.795609 -3 0 
C -3 0.795609 -2.683901 1.55874 -2.12132 2.12132 
C -1.55874 2.683901 -0.795609 3 0 3 
z
" id="mfffab2bfad" style="stroke:#4285f4;"/>
    </defs>
    <g clip-path="url(#p5a4dd82b28)">
     <use style="fill:#4285f4;stroke:#4285f4;" x="115.363636" xlink:href="#mfffab2bfad" y="192.498184"/>
     <use style="fill:#4285f4;stroke:#4285f4;" x="133.480519" xlink:href="#mfffab2bfad" y="188.810629"/>
     <use style="fill:#4285f4;stroke:#4285f4;" x="151.597403" xlink:href="#mfffab2bfad" y="186.861002"/>
     <use style="fill:#4285f4;stroke:#4285f4;" x="169.714286" xlink:href="#mfffab2bfad" y="184.865231"/>
     <use style="fill:#4285f4;stroke:#4285f4;" x="260.298701" xlink:href="#mfffab2bfad" y="184.1368"/>
     <use style="fill:#4285f4;stroke:#4285f4;" x="441.467532" xlink:href="#mfffab2bfad" y="254.420288"/>
     <use style="fill:#4285f4;stroke:#4285f4;" x="622.636364" xlink:href="#mfffab2bfad" y="502.36598"/>
    </g>
   </g>
   <g id="line2d_40">
    <path clip-path="url(#p5a4dd82b28)" d="M 115.363636 152.788522 
L 133.480519 150.804851 
L 151.597403 146.483527 
L 169.714286 141.60249 
L 260.298701 109.835364 
L 441.467532 162.304027 
L 613.623859 433 
" style="fill:none;stroke:#000000;stroke-linecap:square;stroke-width:1.5;"/>
    <defs>
     <path d="M 0 3 
C 0.795609 3 1.55874 2.683901 2.12132 2.12132 
C 2.683901 1.55874 3 0.795609 3 0 
C 3 -0.795609 2.683901 -1.55874 2.12132 -2.12132 
C 1.55874 -2.683901 0.795609 -3 0 -3 
C -0.795609 -3 -1.55874 -2.683901 -2.12132 -2.12132 
C -2.683901 -1.55874 -3 -0.795609 -3 0 
C -3 0.795609 -2.683901 1.55874 -2.12132 2.12132 
C -1.55874 2.683901 -0.795609 3 0 3 
z
" id="md1958e5428" style="stroke:#000000;"/>
    </defs>
    <g clip-path="url(#p5a4dd82b28)">
     <use style="stroke:#000000;" x="115.363636" xlink:href="#md1958e5428" y="152.788522"/>
     <use style="stroke:#000000;" x="133.480519" xlink:href="#md1958e5428" y="150.804851"/>
     <use style="stroke:#000000;" x="151.597403" xlink:href="#md1958e5428" y="146.483527"/>
     <use style="stroke:#000000;" x="169.714286" xlink:href="#md1958e5428" y="141.60249"/>
     <use style="stroke:#000000;" x="260.298701" xlink:href="#md1958e5428" y="109.835364"/>
     <use style="stroke:#000000;" x="441.467532" xlink:href="#md1958e5428" y="162.304027"/>
     <use style="stroke:#000000;" x="622.636364" xlink:href="#md1958e5428" y="447.171124"/>
    </g>
   </g>
   <g id="line2d_41">
    <path clip-path="url(#p5a4dd82b28)" d="M 115.363636 69.973779 
L 133.480519 88.902606 
L 151.597403 127.780025 
L 169.714286 207.394538 
" style="fill:none;stroke:#34a853;stroke-linecap:square;stroke-width:1.5;"/>
    <defs>
     <path d="M 0 3 
C 0.795609 3 1.55874 2.683901 2.12132 2.12132 
C 2.683901 1.55874 3 0.795609 3 0 
C 3 -0.795609 2.683901 -1.55874 2.12132 -2.12132 
C 1.55874 -2.683901 0.795609 -3 0 -3 
C -0.795609 -3 -1.55874 -2.683901 -2.12132 -2.12132 
C -2.683901 -1.55874 -3 -0.795609 -3 0 
C -3 0.795609 -2.683901 1.55874 -2.12132 2.12132 
C -1.55874 2.683901 -0.795609 3 0 3 
z
" id="m70687d2db2" style="stroke:#34a853;"/>
    </defs>
    <g clip-path="url(#p5a4dd82b28)">
     <use style="fill:#34a853;stroke:#34a853;" x="115.363636" xlink:href="#m70687d2db2" y="69.973779"/>
     <use style="fill:#34a853;stroke:#34a853;" x="133.480519" xlink:href="#m70687d2db2" y="88.902606"/>
     <use style="fill:#34a853;stroke:#34a853;" x="151.597403" xlink:href="#m70687d2db2" y="127.780025"/>
     <use style="fill:#34a853;stroke:#34a853;" x="169.714286" xlink:href="#m70687d2db2" y="207.394538"/>
    </g>
   </g>
   <g id="line2d_42">
    <path clip-path="url(#p5a4dd82b28)" d="M 115.363636 65.718114 
L 133.480519 70.832911 
L 151.597403 156.151659 
L 169.714286 192.406538 
" style="fill:none;stroke:#46bdc6;stroke-linecap:square;stroke-width:1.5;"/>
    <defs>
     <path d="M 0 3 
C 0.795609 3 1.55874 2.683901 2.12132 2.12132 
C 2.683901 1.55874 3 0.795609 3 0 
C 3 -0.795609 2.683901 -1.55874 2.12132 -2.12132 
C 1.55874 -2.683901 0.795609 -3 0 -3 
C -0.795609 -3 -1.55874 -2.683901 -2.12132 -2.12132 
C -2.683901 -1.55874 -3 -0.795609 -3 0 
C -3 0.795609 -2.683901 1.55874 -2.12132 2.12132 
C -1.55874 2.683901 -0.795609 3 0 3 
z
" id="m736b9bd7f2" style="stroke:#46bdc6;"/>
    </defs>
    <g clip-path="url(#p5a4dd82b28)">
     <use style="fill:#46bdc6;stroke:#46bdc6;" x="115.363636" xlink:href="#m736b9bd7f2" y="65.718114"/>
     <use style="fill:#46bdc6;stroke:#46bdc6;" x="133.480519" xlink:href="#m736b9bd7f2" y="70.832911"/>
     <use style="fill:#46bdc6;stroke:#46bdc6;" x="151.597403" xlink:href="#m736b9bd7f2" y="156.151659"/>
     <use style="fill:#46bdc6;stroke:#46bdc6;" x="169.714286" xlink:href="#m736b9bd7f2" y="192.406538"/>
    </g>
   </g>
   <g id="line2d_43">
    <path clip-path="url(#p5a4dd82b28)" d="M 90 170.443636 
L 648 170.443636 
" style="fill:none;stroke:#000000;stroke-linecap:square;stroke-width:1.5;"/>
   </g>
   <g id="patch_3">
    <path d="M 90 378 
L 90 51.84 
" style="fill:none;stroke:#000000;stroke-linecap:square;stroke-linejoin:miter;stroke-width:0.8;"/>
   </g>
   <g id="patch_4">
    <path d="M 648 378 
L 648 51.84 
" style="fill:none;stroke:#000000;stroke-linecap:square;stroke-linejoin:miter;stroke-width:0.8;"/>
   </g>
   <g id="patch_5">
    <path d="M 90 378 
L 648 378 
" style="fill:none;stroke:#000000;stroke-linecap:square;stroke-linejoin:miter;stroke-width:0.8;"/>
   </g>
   <g id="patch_6">
    <path d="M 90 51.84 
L 648 51.84 
" style="fill:none;stroke:#000000;stroke-linecap:square;stroke-linejoin:miter;stroke-width:0.8;"/>
   </g>
   <g id="text_19">
    <!-- BN_size -->
    <g transform="translate(345.76125 45.84)scale(0.12 -0.12)">
     <defs>
      <path d="M 19.671875 34.8125 
L 19.671875 8.109375 
L 35.5 8.109375 
Q 43.453125 8.109375 47.28125 11.40625 
Q 51.125 14.703125 51.125 21.484375 
Q 51.125 28.328125 47.28125 31.5625 
Q 43.453125 34.8125 35.5 34.8125 
z
M 19.671875 64.796875 
L 19.671875 42.828125 
L 34.28125 42.828125 
Q 41.5 42.828125 45.03125 45.53125 
Q 48.578125 48.25 48.578125 53.8125 
Q 48.578125 59.328125 45.03125 62.0625 
Q 41.5 64.796875 34.28125 64.796875 
z
M 9.8125 72.90625 
L 35.015625 72.90625 
Q 46.296875 72.90625 52.390625 68.21875 
Q 58.5 63.53125 58.5 54.890625 
Q 58.5 48.1875 55.375 44.234375 
Q 52.25 40.28125 46.1875 39.3125 
Q 53.46875 37.75 57.5 32.78125 
Q 61.53125 27.828125 61.53125 20.40625 
Q 61.53125 10.640625 54.890625 5.3125 
Q 48.25 0 35.984375 0 
L 9.8125 0 
z
" id="DejaVuSans-66"/>
      <path d="M 9.8125 72.90625 
L 23.09375 72.90625 
L 55.421875 11.921875 
L 55.421875 72.90625 
L 64.984375 72.90625 
L 64.984375 0 
L 51.703125 0 
L 19.390625 60.984375 
L 19.390625 0 
L 9.8125 0 
z
" id="DejaVuSans-78"/>
      <path d="M 50.984375 -16.609375 
L 50.984375 -23.578125 
L -0.984375 -23.578125 
L -0.984375 -16.609375 
z
" id="DejaVuSans-95"/>
      <path d="M 44.28125 53.078125 
L 44.28125 44.578125 
Q 40.484375 46.53125 36.375 47.5 
Q 32.28125 48.484375 27.875 48.484375 
Q 21.1875 48.484375 17.84375 46.4375 
Q 14.5 44.390625 14.5 40.28125 
Q 14.5 37.15625 16.890625 35.375 
Q 19.28125 33.59375 26.515625 31.984375 
L 29.59375 31.296875 
Q 39.15625 29.25 43.1875 25.515625 
Q 47.21875 21.78125 47.21875 15.09375 
Q 47.21875 7.46875 41.1875 3.015625 
Q 35.15625 -1.421875 24.609375 -1.421875 
Q 20.21875 -1.421875 15.453125 -0.5625 
Q 10.6875 0.296875 5.421875 2 
L 5.421875 11.28125 
Q 10.40625 8.6875 15.234375 7.390625 
Q 20.0625 6.109375 24.8125 6.109375 
Q 31.15625 6.109375 34.5625 8.28125 
Q 37.984375 10.453125 37.984375 14.40625 
Q 37.984375 18.0625 35.515625 20.015625 
Q 33.0625 21.96875 24.703125 23.78125 
L 21.578125 24.515625 
Q 13.234375 26.265625 9.515625 29.90625 
Q 5.8125 33.546875 5.8125 39.890625 
Q 5.8125 47.609375 11.28125 51.796875 
Q 16.75 56 26.8125 56 
Q 31.78125 56 36.171875 55.265625 
Q 40.578125 54.546875 44.28125 53.078125 
z
" id="DejaVuSans-115"/>
      <path d="M 9.421875 54.6875 
L 18.40625 54.6875 
L 18.40625 0 
L 9.421875 0 
z
M 9.421875 75.984375 
L 18.40625 75.984375 
L 18.40625 64.59375 
L 9.421875 64.59375 
z
" id="DejaVuSans-105"/>
      <path d="M 5.515625 54.6875 
L 48.1875 54.6875 
L 48.1875 46.484375 
L 14.40625 7.171875 
L 48.1875 7.171875 
L 48.1875 0 
L 4.296875 0 
L 4.296875 8.203125 
L 38.09375 47.515625 
L 5.515625 47.515625 
z
" id="DejaVuSans-122"/>
      <path d="M 56.203125 29.59375 
L 56.203125 25.203125 
L 14.890625 25.203125 
Q 15.484375 15.921875 20.484375 11.0625 
Q 25.484375 6.203125 34.421875 6.203125 
Q 39.59375 6.203125 44.453125 7.46875 
Q 49.3125 8.734375 54.109375 11.28125 
L 54.109375 2.78125 
Q 49.265625 0.734375 44.1875 -0.34375 
Q 39.109375 -1.421875 33.890625 -1.421875 
Q 20.796875 -1.421875 13.15625 6.1875 
Q 5.515625 13.8125 5.515625 26.8125 
Q 5.515625 40.234375 12.765625 48.109375 
Q 20.015625 56 32.328125 56 
Q 43.359375 56 49.78125 48.890625 
Q 56.203125 41.796875 56.203125 29.59375 
z
M 47.21875 32.234375 
Q 47.125 39.59375 43.09375 43.984375 
Q 39.0625 48.390625 32.421875 48.390625 
Q 24.90625 48.390625 20.390625 44.140625 
Q 15.875 39.890625 15.1875 32.171875 
z
" id="DejaVuSans-101"/>
     </defs>
     <use xlink:href="#DejaVuSans-66"/>
     <use x="68.603516" xlink:href="#DejaVuSans-78"/>
     <use x="143.408203" xlink:href="#DejaVuSans-95"/>
     <use x="193.408203" xlink:href="#DejaVuSans-115"/>
     <use x="245.507812" xlink:href="#DejaVuSans-105"/>
     <use x="273.291016" xlink:href="#DejaVuSans-122"/>
     <use x="325.78125" xlink:href="#DejaVuSans-101"/>
    </g>
   </g>
   <g id="legend_1">
    <g id="patch_7">
     <path d="M 540.84375 147.90875 
L 641 147.90875 
Q 643 147.90875 643 145.90875 
L 643 58.84 
Q 643 56.84 641 56.84 
L 540.84375 56.84 
Q 538.84375 56.84 538.84375 58.84 
L 538.84375 145.90875 
Q 538.84375 147.90875 540.84375 147.90875 
z
" style="fill:#ffffff;opacity:0.8;stroke:#cccccc;stroke-linejoin:miter;"/>
    </g>
    <g id="line2d_44">
     <path d="M 542.84375 64.938437 
L 562.84375 64.938437 
" style="fill:none;stroke:#ea4335;stroke-linecap:square;stroke-width:1.5;"/>
    </g>
    <g id="line2d_45">
     <g>
      <use style="fill:#ea4335;stroke:#ea4335;" x="552.84375" xlink:href="#m1c230e1036" y="64.938437"/>
     </g>
    </g>
    <g id="text_20">
     <!-- CCE, SD=4 -->
     <g transform="translate(570.84375 68.438437)scale(0.1 -0.1)">
      <defs>
       <path d="M 64.40625 67.28125 
L 64.40625 56.890625 
Q 59.421875 61.53125 53.78125 63.8125 
Q 48.140625 66.109375 41.796875 66.109375 
Q 29.296875 66.109375 22.65625 58.46875 
Q 16.015625 50.828125 16.015625 36.375 
Q 16.015625 21.96875 22.65625 14.328125 
Q 29.296875 6.6875 41.796875 6.6875 
Q 48.140625 6.6875 53.78125 8.984375 
Q 59.421875 11.28125 64.40625 15.921875 
L 64.40625 5.609375 
Q 59.234375 2.09375 53.4375 0.328125 
Q 47.65625 -1.421875 41.21875 -1.421875 
Q 24.65625 -1.421875 15.125 8.703125 
Q 5.609375 18.84375 5.609375 36.375 
Q 5.609375 53.953125 15.125 64.078125 
Q 24.65625 74.21875 41.21875 74.21875 
Q 47.75 74.21875 53.53125 72.484375 
Q 59.328125 70.75 64.40625 67.28125 
z
" id="DejaVuSans-67"/>
       <path d="M 9.8125 72.90625 
L 55.90625 72.90625 
L 55.90625 64.59375 
L 19.671875 64.59375 
L 19.671875 43.015625 
L 54.390625 43.015625 
L 54.390625 34.71875 
L 19.671875 34.71875 
L 19.671875 8.296875 
L 56.78125 8.296875 
L 56.78125 0 
L 9.8125 0 
z
" id="DejaVuSans-69"/>
       <path d="M 11.71875 12.40625 
L 22.015625 12.40625 
L 22.015625 4 
L 14.015625 -11.625 
L 7.71875 -11.625 
L 11.71875 4 
z
" id="DejaVuSans-44"/>
       <path id="DejaVuSans-32"/>
       <path d="M 53.515625 70.515625 
L 53.515625 60.890625 
Q 47.90625 63.578125 42.921875 64.890625 
Q 37.9375 66.21875 33.296875 66.21875 
Q 25.25 66.21875 20.875 63.09375 
Q 16.5 59.96875 16.5 54.203125 
Q 16.5 49.359375 19.40625 46.890625 
Q 22.3125 44.4375 30.421875 42.921875 
L 36.375 41.703125 
Q 47.40625 39.59375 52.65625 34.296875 
Q 57.90625 29 57.90625 20.125 
Q 57.90625 9.515625 50.796875 4.046875 
Q 43.703125 -1.421875 29.984375 -1.421875 
Q 24.8125 -1.421875 18.96875 -0.25 
Q 13.140625 0.921875 6.890625 3.21875 
L 6.890625 13.375 
Q 12.890625 10.015625 18.65625 8.296875 
Q 24.421875 6.59375 29.984375 6.59375 
Q 38.421875 6.59375 43.015625 9.90625 
Q 47.609375 13.234375 47.609375 19.390625 
Q 47.609375 24.75 44.3125 27.78125 
Q 41.015625 30.8125 33.5 32.328125 
L 27.484375 33.5 
Q 16.453125 35.6875 11.515625 40.375 
Q 6.59375 45.0625 6.59375 53.421875 
Q 6.59375 63.09375 13.40625 68.65625 
Q 20.21875 74.21875 32.171875 74.21875 
Q 37.3125 74.21875 42.625 73.28125 
Q 47.953125 72.359375 53.515625 70.515625 
z
" id="DejaVuSans-83"/>
       <path d="M 19.671875 64.796875 
L 19.671875 8.109375 
L 31.59375 8.109375 
Q 46.6875 8.109375 53.6875 14.9375 
Q 60.6875 21.78125 60.6875 36.53125 
Q 60.6875 51.171875 53.6875 57.984375 
Q 46.6875 64.796875 31.59375 64.796875 
z
M 9.8125 72.90625 
L 30.078125 72.90625 
Q 51.265625 72.90625 61.171875 64.09375 
Q 71.09375 55.28125 71.09375 36.53125 
Q 71.09375 17.671875 61.125 8.828125 
Q 51.171875 0 30.078125 0 
L 9.8125 0 
z
" id="DejaVuSans-68"/>
       <path d="M 10.59375 45.40625 
L 73.1875 45.40625 
L 73.1875 37.203125 
L 10.59375 37.203125 
z
M 10.59375 25.484375 
L 73.1875 25.484375 
L 73.1875 17.1875 
L 10.59375 17.1875 
z
" id="DejaVuSans-61"/>
       <path d="M 37.796875 64.3125 
L 12.890625 25.390625 
L 37.796875 25.390625 
z
M 35.203125 72.90625 
L 47.609375 72.90625 
L 47.609375 25.390625 
L 58.015625 25.390625 
L 58.015625 17.1875 
L 47.609375 17.1875 
L 47.609375 0 
L 37.796875 0 
L 37.796875 17.1875 
L 4.890625 17.1875 
L 4.890625 26.703125 
z
" id="DejaVuSans-52"/>
      </defs>
      <use xlink:href="#DejaVuSans-67"/>
      <use x="69.824219" xlink:href="#DejaVuSans-67"/>
      <use x="139.648438" xlink:href="#DejaVuSans-69"/>
      <use x="202.832031" xlink:href="#DejaVuSans-44"/>
      <use x="234.619141" xlink:href="#DejaVuSans-32"/>
      <use x="266.40625" xlink:href="#DejaVuSans-83"/>
      <use x="329.882812" xlink:href="#DejaVuSans-68"/>
      <use x="406.884766" xlink:href="#DejaVuSans-61"/>
      <use x="490.673828" xlink:href="#DejaVuSans-52"/>
     </g>
    </g>
    <g id="line2d_46">
     <path d="M 542.84375 79.616562 
L 562.84375 79.616562 
" style="fill:none;stroke:#fbbc04;stroke-linecap:square;stroke-width:1.5;"/>
    </g>
    <g id="line2d_47">
     <g>
      <use style="fill:#fbbc04;stroke:#fbbc04;" x="552.84375" xlink:href="#me707cab3bb" y="79.616562"/>
     </g>
    </g>
    <g id="text_21">
     <!-- JSD, SD=4 -->
     <g transform="translate(570.84375 83.116562)scale(0.1 -0.1)">
      <defs>
       <path d="M 9.8125 72.90625 
L 19.671875 72.90625 
L 19.671875 5.078125 
Q 19.671875 -8.109375 14.671875 -14.0625 
Q 9.671875 -20.015625 -1.421875 -20.015625 
L -5.171875 -20.015625 
L -5.171875 -11.71875 
L -2.09375 -11.71875 
Q 4.4375 -11.71875 7.125 -8.046875 
Q 9.8125 -4.390625 9.8125 5.078125 
z
" id="DejaVuSans-74"/>
      </defs>
      <use xlink:href="#DejaVuSans-74"/>
      <use x="29.492188" xlink:href="#DejaVuSans-83"/>
      <use x="92.96875" xlink:href="#DejaVuSans-68"/>
      <use x="169.970703" xlink:href="#DejaVuSans-44"/>
      <use x="201.757812" xlink:href="#DejaVuSans-32"/>
      <use x="233.544922" xlink:href="#DejaVuSans-83"/>
      <use x="297.021484" xlink:href="#DejaVuSans-68"/>
      <use x="374.023438" xlink:href="#DejaVuSans-61"/>
      <use x="457.8125" xlink:href="#DejaVuSans-52"/>
     </g>
    </g>
    <g id="line2d_48">
     <path d="M 542.84375 94.294687 
L 562.84375 94.294687 
" style="fill:none;stroke:#4285f4;stroke-linecap:square;stroke-width:1.5;"/>
    </g>
    <g id="line2d_49">
     <g>
      <use style="fill:#4285f4;stroke:#4285f4;" x="552.84375" xlink:href="#mfffab2bfad" y="94.294687"/>
     </g>
    </g>
    <g id="text_22">
     <!-- CCEu, SD=4 -->
     <g transform="translate(570.84375 97.794687)scale(0.1 -0.1)">
      <defs>
       <path d="M 8.5 21.578125 
L 8.5 54.6875 
L 17.484375 54.6875 
L 17.484375 21.921875 
Q 17.484375 14.15625 20.5 10.265625 
Q 23.53125 6.390625 29.59375 6.390625 
Q 36.859375 6.390625 41.078125 11.03125 
Q 45.3125 15.671875 45.3125 23.6875 
L 45.3125 54.6875 
L 54.296875 54.6875 
L 54.296875 0 
L 45.3125 0 
L 45.3125 8.40625 
Q 42.046875 3.421875 37.71875 1 
Q 33.40625 -1.421875 27.6875 -1.421875 
Q 18.265625 -1.421875 13.375 4.4375 
Q 8.5 10.296875 8.5 21.578125 
z
M 31.109375 56 
z
" id="DejaVuSans-117"/>
      </defs>
      <use xlink:href="#DejaVuSans-67"/>
      <use x="69.824219" xlink:href="#DejaVuSans-67"/>
      <use x="139.648438" xlink:href="#DejaVuSans-69"/>
      <use x="202.832031" xlink:href="#DejaVuSans-117"/>
      <use x="266.210938" xlink:href="#DejaVuSans-44"/>
      <use x="297.998047" xlink:href="#DejaVuSans-32"/>
      <use x="329.785156" xlink:href="#DejaVuSans-83"/>
      <use x="393.261719" xlink:href="#DejaVuSans-68"/>
      <use x="470.263672" xlink:href="#DejaVuSans-61"/>
      <use x="554.052734" xlink:href="#DejaVuSans-52"/>
     </g>
    </g>
    <g id="line2d_50">
     <path d="M 542.84375 108.972812 
L 562.84375 108.972812 
" style="fill:none;stroke:#000000;stroke-linecap:square;stroke-width:1.5;"/>
    </g>
    <g id="line2d_51">
     <g>
      <use style="stroke:#000000;" x="552.84375" xlink:href="#md1958e5428" y="108.972812"/>
     </g>
    </g>
    <g id="text_23">
     <!-- JSDu, SD=4 -->
     <g transform="translate(570.84375 112.472812)scale(0.1 -0.1)">
      <use xlink:href="#DejaVuSans-74"/>
      <use x="29.492188" xlink:href="#DejaVuSans-83"/>
      <use x="92.96875" xlink:href="#DejaVuSans-68"/>
      <use x="169.970703" xlink:href="#DejaVuSans-117"/>
      <use x="233.349609" xlink:href="#DejaVuSans-44"/>
      <use x="265.136719" xlink:href="#DejaVuSans-32"/>
      <use x="296.923828" xlink:href="#DejaVuSans-83"/>
      <use x="360.400391" xlink:href="#DejaVuSans-68"/>
      <use x="437.402344" xlink:href="#DejaVuSans-61"/>
      <use x="521.191406" xlink:href="#DejaVuSans-52"/>
     </g>
    </g>
    <g id="line2d_52">
     <path d="M 542.84375 123.650937 
L 562.84375 123.650937 
" style="fill:none;stroke:#34a853;stroke-linecap:square;stroke-width:1.5;"/>
    </g>
    <g id="line2d_53">
     <g>
      <use style="fill:#34a853;stroke:#34a853;" x="552.84375" xlink:href="#m70687d2db2" y="123.650937"/>
     </g>
    </g>
    <g id="text_24">
     <!-- CCE, SD=100 -->
     <g transform="translate(570.84375 127.150937)scale(0.1 -0.1)">
      <use xlink:href="#DejaVuSans-67"/>
      <use x="69.824219" xlink:href="#DejaVuSans-67"/>
      <use x="139.648438" xlink:href="#DejaVuSans-69"/>
      <use x="202.832031" xlink:href="#DejaVuSans-44"/>
      <use x="234.619141" xlink:href="#DejaVuSans-32"/>
      <use x="266.40625" xlink:href="#DejaVuSans-83"/>
      <use x="329.882812" xlink:href="#DejaVuSans-68"/>
      <use x="406.884766" xlink:href="#DejaVuSans-61"/>
      <use x="490.673828" xlink:href="#DejaVuSans-49"/>
      <use x="554.296875" xlink:href="#DejaVuSans-48"/>
      <use x="617.919922" xlink:href="#DejaVuSans-48"/>
     </g>
    </g>
    <g id="line2d_54">
     <path d="M 542.84375 138.329062 
L 562.84375 138.329062 
" style="fill:none;stroke:#46bdc6;stroke-linecap:square;stroke-width:1.5;"/>
    </g>
    <g id="line2d_55">
     <g>
      <use style="fill:#46bdc6;stroke:#46bdc6;" x="552.84375" xlink:href="#m736b9bd7f2" y="138.329062"/>
     </g>
    </g>
    <g id="text_25">
     <!-- JSD, SD=100 -->
     <g transform="translate(570.84375 141.829062)scale(0.1 -0.1)">
      <use xlink:href="#DejaVuSans-74"/>
      <use x="29.492188" xlink:href="#DejaVuSans-83"/>
      <use x="92.96875" xlink:href="#DejaVuSans-68"/>
      <use x="169.970703" xlink:href="#DejaVuSans-44"/>
      <use x="201.757812" xlink:href="#DejaVuSans-32"/>
      <use x="233.544922" xlink:href="#DejaVuSans-83"/>
      <use x="297.021484" xlink:href="#DejaVuSans-68"/>
      <use x="374.023438" xlink:href="#DejaVuSans-61"/>
      <use x="457.8125" xlink:href="#DejaVuSans-49"/>
      <use x="521.435547" xlink:href="#DejaVuSans-48"/>
      <use x="585.058594" xlink:href="#DejaVuSans-48"/>
     </g>
    </g>
   </g>
  </g>
 </g>
 <defs>
  <clipPath id="p5a4dd82b28">
   <rect height="326.16" width="558" x="90" y="51.84"/>
  </clipPath>
 </defs>
</svg>
