<?xml version="1.0" encoding="utf-8" standalone="no"?>
<!DOCTYPE svg PUBLIC "-//W3C//DTD SVG 1.1//EN"
  "http://www.w3.org/Graphics/SVG/1.1/DTD/svg11.dtd">
<!-- Created with matplotlib (https://matplotlib.org/) -->
<svg height="551.71475pt" version="1.1" viewBox="0 0 831.677917 551.71475" width="831.677917pt" xmlns="http://www.w3.org/2000/svg" xmlns:xlink="http://www.w3.org/1999/xlink">
 <metadata>
  <rdf:RDF xmlns:cc="http://creativecommons.org/ns#" xmlns:dc="http://purl.org/dc/elements/1.1/" xmlns:rdf="http://www.w3.org/1999/02/22-rdf-syntax-ns#">
   <cc:Work>
    <dc:type rdf:resource="http://purl.org/dc/dcmitype/StillImage"/>
    <dc:date>2021-03-13T20:22:48.927024</dc:date>
    <dc:format>image/svg+xml</dc:format>
    <dc:creator>
     <cc:Agent>
      <dc:title>Matplotlib v3.3.4, https://matplotlib.org/</dc:title>
     </cc:Agent>
    </dc:creator>
   </cc:Work>
  </rdf:RDF>
 </metadata>
 <defs>
  <style type="text/css">*{stroke-linecap:butt;stroke-linejoin:round;}</style>
 </defs>
 <g id="figure_1">
  <g id="patch_1">
   <path d="M 0 551.71475 
L 831.677917 551.71475 
L 831.677917 0 
L 0 0 
z
" style="fill:none;"/>
  </g>
  <g id="axes_1">
   <g id="patch_2">
    <path d="M 70.4325 438.07875 
L 790.4325 438.07875 
L 790.4325 6.07875 
L 70.4325 6.07875 
z
" style="fill:#ffffff;"/>
   </g>
   <g id="patch_3">
    <path clip-path="url(#paa1c36416f)" d="M 70.4325 163.169659 
L 83.765833 163.169659 
L 83.765833 119.915379 
L 70.4325 119.915379 
z
" style="fill:#46bdc6;"/>
   </g>
   <g id="patch_4">
    <path clip-path="url(#paa1c36416f)" d="M 203.765833 163.169659 
L 217.099167 163.169659 
L 217.099167 145.245612 
L 203.765833 145.245612 
z
" style="fill:#46bdc6;"/>
   </g>
   <g id="patch_5">
    <path clip-path="url(#paa1c36416f)" d="M 337.099167 163.169659 
L 350.4325 163.169659 
L 350.4325 126.092352 
L 337.099167 126.092352 
z
" style="fill:#46bdc6;"/>
   </g>
   <g id="patch_6">
    <path clip-path="url(#paa1c36416f)" d="M 470.4325 163.169659 
L 483.765833 163.169659 
L 483.765833 173.462815 
L 470.4325 173.462815 
z
" style="fill:#46bdc6;"/>
   </g>
   <g id="patch_7">
    <path clip-path="url(#paa1c36416f)" d="M 603.765833 163.169659 
L 617.099167 163.169659 
L 617.099167 168.845845 
L 603.765833 168.845845 
z
" style="fill:#46bdc6;"/>
   </g>
   <g id="patch_8">
    <path clip-path="url(#paa1c36416f)" d="M 737.099167 163.169659 
L 750.4325 163.169659 
L 750.4325 173.427556 
L 737.099167 173.427556 
z
" style="fill:#46bdc6;"/>
   </g>
   <g id="patch_9">
    <path clip-path="url(#paa1c36416f)" d="M 83.765833 163.169659 
L 97.099167 163.169659 
L 97.099167 91.27195 
L 83.765833 91.27195 
z
" style="fill:#ea4335;"/>
   </g>
   <g id="patch_10">
    <path clip-path="url(#paa1c36416f)" d="M 217.099167 163.169659 
L 230.4325 163.169659 
L 230.4325 130.472392 
L 217.099167 130.472392 
z
" style="fill:#ea4335;"/>
   </g>
   <g id="patch_11">
    <path clip-path="url(#paa1c36416f)" d="M 350.4325 163.169659 
L 363.765833 163.169659 
L 363.765833 101.20212 
L 350.4325 101.20212 
z
" style="fill:#ea4335;"/>
   </g>
   <g id="patch_12">
    <path clip-path="url(#paa1c36416f)" d="M 483.765833 163.169659 
L 497.099167 163.169659 
L 497.099167 151.187803 
L 483.765833 151.187803 
z
" style="fill:#ea4335;"/>
   </g>
   <g id="patch_13">
    <path clip-path="url(#paa1c36416f)" d="M 617.099167 163.169659 
L 630.4325 163.169659 
L 630.4325 146.016086 
L 617.099167 146.016086 
z
" style="fill:#ea4335;"/>
   </g>
   <g id="patch_14">
    <path clip-path="url(#paa1c36416f)" d="M 750.4325 163.169659 
L 763.765833 163.169659 
L 763.765833 150.416396 
L 750.4325 150.416396 
z
" style="fill:#ea4335;"/>
   </g>
   <g id="patch_15">
    <path clip-path="url(#paa1c36416f)" d="M 97.099167 163.169659 
L 110.4325 163.169659 
L 110.4325 6.098462 
L 97.099167 6.098462 
z
" style="fill:#800080;"/>
   </g>
   <g id="patch_16">
    <path clip-path="url(#paa1c36416f)" d="M 230.4325 163.169659 
L 243.765833 163.169659 
L 243.765833 300.437501 
L 230.4325 300.437501 
z
" style="fill:#800080;"/>
   </g>
   <g id="patch_17">
    <path clip-path="url(#paa1c36416f)" d="M 363.765833 163.169659 
L 377.099167 163.169659 
L 377.099167 38.900694 
L 363.765833 38.900694 
z
" style="fill:#800080;"/>
   </g>
   <g id="patch_18">
    <path clip-path="url(#paa1c36416f)" d="M 497.099167 163.169659 
L 510.4325 163.169659 
L 510.4325 156.487837 
L 497.099167 156.487837 
z
" style="fill:#800080;"/>
   </g>
   <g id="patch_19">
    <path clip-path="url(#paa1c36416f)" d="M 630.4325 163.169659 
L 643.765833 163.169659 
L 643.765833 130.774565 
L 630.4325 130.774565 
z
" style="fill:#800080;"/>
   </g>
   <g id="patch_20">
    <path clip-path="url(#paa1c36416f)" d="M 763.765833 163.169659 
L 777.099167 163.169659 
L 777.099167 156.011125 
L 763.765833 156.011125 
z
" style="fill:#800080;"/>
   </g>
   <g id="patch_21">
    <path clip-path="url(#paa1c36416f)" d="M 110.4325 163.169659 
L 123.765833 163.169659 
L 123.765833 6.187178 
L 110.4325 6.187178 
z
" style="fill:#34a853;"/>
   </g>
   <g id="patch_22">
    <path clip-path="url(#paa1c36416f)" d="M 243.765833 163.169659 
L 257.099167 163.169659 
L 257.099167 303.403248 
L 243.765833 303.403248 
z
" style="fill:#34a853;"/>
   </g>
   <g id="patch_23">
    <path clip-path="url(#paa1c36416f)" d="M 377.099167 163.169659 
L 390.4325 163.169659 
L 390.4325 24.675556 
L 377.099167 24.675556 
z
" style="fill:#34a853;"/>
   </g>
   <g id="patch_24">
    <path clip-path="url(#paa1c36416f)" d="M 510.4325 163.169659 
L 523.765833 163.169659 
L 523.765833 101.172448 
L 510.4325 101.172448 
z
" style="fill:#34a853;"/>
   </g>
   <g id="patch_25">
    <path clip-path="url(#paa1c36416f)" d="M 643.765833 163.169659 
L 657.099167 163.169659 
L 657.099167 80.148663 
L 643.765833 80.148663 
z
" style="fill:#34a853;"/>
   </g>
   <g id="patch_26">
    <path clip-path="url(#paa1c36416f)" d="M 777.099167 163.169659 
L 790.4325 163.169659 
L 790.4325 100.836626 
L 777.099167 100.836626 
z
" style="fill:#34a853;"/>
   </g>
   <g id="matplotlib.axis_1">
    <g id="xtick_1">
     <g id="line2d_1">
      <defs>
       <path d="M 0 0 
L 0 3.5 
" id="mcefefa4347" style="stroke:#000000;stroke-width:0.8;"/>
      </defs>
      <g>
       <use style="stroke:#000000;stroke-width:0.8;" x="110.4325" xlink:href="#mcefefa4347" y="438.07875"/>
      </g>
     </g>
     <g id="text_1">
      <!-- Supervised -->
      <g transform="translate(65.8675 457.23625)scale(0.16 -0.16)">
       <defs>
        <path d="M 53.515625 70.515625 
L 53.515625 60.890625 
Q 47.90625 63.578125 42.921875 64.890625 
Q 37.9375 66.21875 33.296875 66.21875 
Q 25.25 66.21875 20.875 63.09375 
Q 16.5 59.96875 16.5 54.203125 
Q 16.5 49.359375 19.40625 46.890625 
Q 22.3125 44.4375 30.421875 42.921875 
L 36.375 41.703125 
Q 47.40625 39.59375 52.65625 34.296875 
Q 57.90625 29 57.90625 20.125 
Q 57.90625 9.515625 50.796875 4.046875 
Q 43.703125 -1.421875 29.984375 -1.421875 
Q 24.8125 -1.421875 18.96875 -0.25 
Q 13.140625 0.921875 6.890625 3.21875 
L 6.890625 13.375 
Q 12.890625 10.015625 18.65625 8.296875 
Q 24.421875 6.59375 29.984375 6.59375 
Q 38.421875 6.59375 43.015625 9.90625 
Q 47.609375 13.234375 47.609375 19.390625 
Q 47.609375 24.75 44.3125 27.78125 
Q 41.015625 30.8125 33.5 32.328125 
L 27.484375 33.5 
Q 16.453125 35.6875 11.515625 40.375 
Q 6.59375 45.0625 6.59375 53.421875 
Q 6.59375 63.09375 13.40625 68.65625 
Q 20.21875 74.21875 32.171875 74.21875 
Q 37.3125 74.21875 42.625 73.28125 
Q 47.953125 72.359375 53.515625 70.515625 
z
" id="DejaVuSans-83"/>
        <path d="M 8.5 21.578125 
L 8.5 54.6875 
L 17.484375 54.6875 
L 17.484375 21.921875 
Q 17.484375 14.15625 20.5 10.265625 
Q 23.53125 6.390625 29.59375 6.390625 
Q 36.859375 6.390625 41.078125 11.03125 
Q 45.3125 15.671875 45.3125 23.6875 
L 45.3125 54.6875 
L 54.296875 54.6875 
L 54.296875 0 
L 45.3125 0 
L 45.3125 8.40625 
Q 42.046875 3.421875 37.71875 1 
Q 33.40625 -1.421875 27.6875 -1.421875 
Q 18.265625 -1.421875 13.375 4.4375 
Q 8.5 10.296875 8.5 21.578125 
z
M 31.109375 56 
z
" id="DejaVuSans-117"/>
        <path d="M 18.109375 8.203125 
L 18.109375 -20.796875 
L 9.078125 -20.796875 
L 9.078125 54.6875 
L 18.109375 54.6875 
L 18.109375 46.390625 
Q 20.953125 51.265625 25.265625 53.625 
Q 29.59375 56 35.59375 56 
Q 45.5625 56 51.78125 48.09375 
Q 58.015625 40.1875 58.015625 27.296875 
Q 58.015625 14.40625 51.78125 6.484375 
Q 45.5625 -1.421875 35.59375 -1.421875 
Q 29.59375 -1.421875 25.265625 0.953125 
Q 20.953125 3.328125 18.109375 8.203125 
z
M 48.6875 27.296875 
Q 48.6875 37.203125 44.609375 42.84375 
Q 40.53125 48.484375 33.40625 48.484375 
Q 26.265625 48.484375 22.1875 42.84375 
Q 18.109375 37.203125 18.109375 27.296875 
Q 18.109375 17.390625 22.1875 11.75 
Q 26.265625 6.109375 33.40625 6.109375 
Q 40.53125 6.109375 44.609375 11.75 
Q 48.6875 17.390625 48.6875 27.296875 
z
" id="DejaVuSans-112"/>
        <path d="M 56.203125 29.59375 
L 56.203125 25.203125 
L 14.890625 25.203125 
Q 15.484375 15.921875 20.484375 11.0625 
Q 25.484375 6.203125 34.421875 6.203125 
Q 39.59375 6.203125 44.453125 7.46875 
Q 49.3125 8.734375 54.109375 11.28125 
L 54.109375 2.78125 
Q 49.265625 0.734375 44.1875 -0.34375 
Q 39.109375 -1.421875 33.890625 -1.421875 
Q 20.796875 -1.421875 13.15625 6.1875 
Q 5.515625 13.8125 5.515625 26.8125 
Q 5.515625 40.234375 12.765625 48.109375 
Q 20.015625 56 32.328125 56 
Q 43.359375 56 49.78125 48.890625 
Q 56.203125 41.796875 56.203125 29.59375 
z
M 47.21875 32.234375 
Q 47.125 39.59375 43.09375 43.984375 
Q 39.0625 48.390625 32.421875 48.390625 
Q 24.90625 48.390625 20.390625 44.140625 
Q 15.875 39.890625 15.1875 32.171875 
z
" id="DejaVuSans-101"/>
        <path d="M 41.109375 46.296875 
Q 39.59375 47.171875 37.8125 47.578125 
Q 36.03125 48 33.890625 48 
Q 26.265625 48 22.1875 43.046875 
Q 18.109375 38.09375 18.109375 28.8125 
L 18.109375 0 
L 9.078125 0 
L 9.078125 54.6875 
L 18.109375 54.6875 
L 18.109375 46.1875 
Q 20.953125 51.171875 25.484375 53.578125 
Q 30.03125 56 36.53125 56 
Q 37.453125 56 38.578125 55.875 
Q 39.703125 55.765625 41.0625 55.515625 
z
" id="DejaVuSans-114"/>
        <path d="M 2.984375 54.6875 
L 12.5 54.6875 
L 29.59375 8.796875 
L 46.6875 54.6875 
L 56.203125 54.6875 
L 35.6875 0 
L 23.484375 0 
z
" id="DejaVuSans-118"/>
        <path d="M 9.421875 54.6875 
L 18.40625 54.6875 
L 18.40625 0 
L 9.421875 0 
z
M 9.421875 75.984375 
L 18.40625 75.984375 
L 18.40625 64.59375 
L 9.421875 64.59375 
z
" id="DejaVuSans-105"/>
        <path d="M 44.28125 53.078125 
L 44.28125 44.578125 
Q 40.484375 46.53125 36.375 47.5 
Q 32.28125 48.484375 27.875 48.484375 
Q 21.1875 48.484375 17.84375 46.4375 
Q 14.5 44.390625 14.5 40.28125 
Q 14.5 37.15625 16.890625 35.375 
Q 19.28125 33.59375 26.515625 31.984375 
L 29.59375 31.296875 
Q 39.15625 29.25 43.1875 25.515625 
Q 47.21875 21.78125 47.21875 15.09375 
Q 47.21875 7.46875 41.1875 3.015625 
Q 35.15625 -1.421875 24.609375 -1.421875 
Q 20.21875 -1.421875 15.453125 -0.5625 
Q 10.6875 0.296875 5.421875 2 
L 5.421875 11.28125 
Q 10.40625 8.6875 15.234375 7.390625 
Q 20.0625 6.109375 24.8125 6.109375 
Q 31.15625 6.109375 34.5625 8.28125 
Q 37.984375 10.453125 37.984375 14.40625 
Q 37.984375 18.0625 35.515625 20.015625 
Q 33.0625 21.96875 24.703125 23.78125 
L 21.578125 24.515625 
Q 13.234375 26.265625 9.515625 29.90625 
Q 5.8125 33.546875 5.8125 39.890625 
Q 5.8125 47.609375 11.28125 51.796875 
Q 16.75 56 26.8125 56 
Q 31.78125 56 36.171875 55.265625 
Q 40.578125 54.546875 44.28125 53.078125 
z
" id="DejaVuSans-115"/>
        <path d="M 45.40625 46.390625 
L 45.40625 75.984375 
L 54.390625 75.984375 
L 54.390625 0 
L 45.40625 0 
L 45.40625 8.203125 
Q 42.578125 3.328125 38.25 0.953125 
Q 33.9375 -1.421875 27.875 -1.421875 
Q 17.96875 -1.421875 11.734375 6.484375 
Q 5.515625 14.40625 5.515625 27.296875 
Q 5.515625 40.1875 11.734375 48.09375 
Q 17.96875 56 27.875 56 
Q 33.9375 56 38.25 53.625 
Q 42.578125 51.265625 45.40625 46.390625 
z
M 14.796875 27.296875 
Q 14.796875 17.390625 18.875 11.75 
Q 22.953125 6.109375 30.078125 6.109375 
Q 37.203125 6.109375 41.296875 11.75 
Q 45.40625 17.390625 45.40625 27.296875 
Q 45.40625 37.203125 41.296875 42.84375 
Q 37.203125 48.484375 30.078125 48.484375 
Q 22.953125 48.484375 18.875 42.84375 
Q 14.796875 37.203125 14.796875 27.296875 
z
" id="DejaVuSans-100"/>
       </defs>
       <use xlink:href="#DejaVuSans-83"/>
       <use x="63.476562" xlink:href="#DejaVuSans-117"/>
       <use x="126.855469" xlink:href="#DejaVuSans-112"/>
       <use x="190.332031" xlink:href="#DejaVuSans-101"/>
       <use x="251.855469" xlink:href="#DejaVuSans-114"/>
       <use x="292.96875" xlink:href="#DejaVuSans-118"/>
       <use x="352.148438" xlink:href="#DejaVuSans-105"/>
       <use x="379.931641" xlink:href="#DejaVuSans-115"/>
       <use x="432.03125" xlink:href="#DejaVuSans-101"/>
       <use x="493.554688" xlink:href="#DejaVuSans-100"/>
      </g>
     </g>
    </g>
    <g id="xtick_2">
     <g id="line2d_2">
      <g>
       <use style="stroke:#000000;stroke-width:0.8;" x="243.765833" xlink:href="#mcefefa4347" y="438.07875"/>
      </g>
     </g>
     <g id="text_2">
      <!-- Supervised -->
      <g transform="translate(199.200833 457.23625)scale(0.16 -0.16)">
       <use xlink:href="#DejaVuSans-83"/>
       <use x="63.476562" xlink:href="#DejaVuSans-117"/>
       <use x="126.855469" xlink:href="#DejaVuSans-112"/>
       <use x="190.332031" xlink:href="#DejaVuSans-101"/>
       <use x="251.855469" xlink:href="#DejaVuSans-114"/>
       <use x="292.96875" xlink:href="#DejaVuSans-118"/>
       <use x="352.148438" xlink:href="#DejaVuSans-105"/>
       <use x="379.931641" xlink:href="#DejaVuSans-115"/>
       <use x="432.03125" xlink:href="#DejaVuSans-101"/>
       <use x="493.554688" xlink:href="#DejaVuSans-100"/>
      </g>
      <!-- (2% labeled) -->
      <g transform="translate(192.939583 475.15275)scale(0.16 -0.16)">
       <defs>
        <path d="M 31 75.875 
Q 24.46875 64.65625 21.28125 53.65625 
Q 18.109375 42.671875 18.109375 31.390625 
Q 18.109375 20.125 21.3125 9.0625 
Q 24.515625 -2 31 -13.1875 
L 23.1875 -13.1875 
Q 15.875 -1.703125 12.234375 9.375 
Q 8.59375 20.453125 8.59375 31.390625 
Q 8.59375 42.28125 12.203125 53.3125 
Q 15.828125 64.359375 23.1875 75.875 
z
" id="DejaVuSans-40"/>
        <path d="M 19.1875 8.296875 
L 53.609375 8.296875 
L 53.609375 0 
L 7.328125 0 
L 7.328125 8.296875 
Q 12.9375 14.109375 22.625 23.890625 
Q 32.328125 33.6875 34.8125 36.53125 
Q 39.546875 41.84375 41.421875 45.53125 
Q 43.3125 49.21875 43.3125 52.78125 
Q 43.3125 58.59375 39.234375 62.25 
Q 35.15625 65.921875 28.609375 65.921875 
Q 23.96875 65.921875 18.8125 64.3125 
Q 13.671875 62.703125 7.8125 59.421875 
L 7.8125 69.390625 
Q 13.765625 71.78125 18.9375 73 
Q 24.125 74.21875 28.421875 74.21875 
Q 39.75 74.21875 46.484375 68.546875 
Q 53.21875 62.890625 53.21875 53.421875 
Q 53.21875 48.921875 51.53125 44.890625 
Q 49.859375 40.875 45.40625 35.40625 
Q 44.1875 33.984375 37.640625 27.21875 
Q 31.109375 20.453125 19.1875 8.296875 
z
" id="DejaVuSans-50"/>
        <path d="M 72.703125 32.078125 
Q 68.453125 32.078125 66.03125 28.46875 
Q 63.625 24.859375 63.625 18.40625 
Q 63.625 12.0625 66.03125 8.421875 
Q 68.453125 4.78125 72.703125 4.78125 
Q 76.859375 4.78125 79.265625 8.421875 
Q 81.6875 12.0625 81.6875 18.40625 
Q 81.6875 24.8125 79.265625 28.4375 
Q 76.859375 32.078125 72.703125 32.078125 
z
M 72.703125 38.28125 
Q 80.421875 38.28125 84.953125 32.90625 
Q 89.5 27.546875 89.5 18.40625 
Q 89.5 9.28125 84.9375 3.921875 
Q 80.375 -1.421875 72.703125 -1.421875 
Q 64.890625 -1.421875 60.34375 3.921875 
Q 55.8125 9.28125 55.8125 18.40625 
Q 55.8125 27.59375 60.375 32.9375 
Q 64.9375 38.28125 72.703125 38.28125 
z
M 22.3125 68.015625 
Q 18.109375 68.015625 15.6875 64.375 
Q 13.28125 60.75 13.28125 54.390625 
Q 13.28125 47.953125 15.671875 44.328125 
Q 18.0625 40.71875 22.3125 40.71875 
Q 26.5625 40.71875 28.96875 44.328125 
Q 31.390625 47.953125 31.390625 54.390625 
Q 31.390625 60.6875 28.953125 64.34375 
Q 26.515625 68.015625 22.3125 68.015625 
z
M 66.40625 74.21875 
L 74.21875 74.21875 
L 28.609375 -1.421875 
L 20.796875 -1.421875 
z
M 22.3125 74.21875 
Q 30.03125 74.21875 34.609375 68.875 
Q 39.203125 63.53125 39.203125 54.390625 
Q 39.203125 45.171875 34.640625 39.84375 
Q 30.078125 34.515625 22.3125 34.515625 
Q 14.546875 34.515625 10.03125 39.859375 
Q 5.515625 45.21875 5.515625 54.390625 
Q 5.515625 63.484375 10.046875 68.84375 
Q 14.59375 74.21875 22.3125 74.21875 
z
" id="DejaVuSans-37"/>
        <path id="DejaVuSans-32"/>
        <path d="M 9.421875 75.984375 
L 18.40625 75.984375 
L 18.40625 0 
L 9.421875 0 
z
" id="DejaVuSans-108"/>
        <path d="M 34.28125 27.484375 
Q 23.390625 27.484375 19.1875 25 
Q 14.984375 22.515625 14.984375 16.5 
Q 14.984375 11.71875 18.140625 8.90625 
Q 21.296875 6.109375 26.703125 6.109375 
Q 34.1875 6.109375 38.703125 11.40625 
Q 43.21875 16.703125 43.21875 25.484375 
L 43.21875 27.484375 
z
M 52.203125 31.203125 
L 52.203125 0 
L 43.21875 0 
L 43.21875 8.296875 
Q 40.140625 3.328125 35.546875 0.953125 
Q 30.953125 -1.421875 24.3125 -1.421875 
Q 15.921875 -1.421875 10.953125 3.296875 
Q 6 8.015625 6 15.921875 
Q 6 25.140625 12.171875 29.828125 
Q 18.359375 34.515625 30.609375 34.515625 
L 43.21875 34.515625 
L 43.21875 35.40625 
Q 43.21875 41.609375 39.140625 45 
Q 35.0625 48.390625 27.6875 48.390625 
Q 23 48.390625 18.546875 47.265625 
Q 14.109375 46.140625 10.015625 43.890625 
L 10.015625 52.203125 
Q 14.9375 54.109375 19.578125 55.046875 
Q 24.21875 56 28.609375 56 
Q 40.484375 56 46.34375 49.84375 
Q 52.203125 43.703125 52.203125 31.203125 
z
" id="DejaVuSans-97"/>
        <path d="M 48.6875 27.296875 
Q 48.6875 37.203125 44.609375 42.84375 
Q 40.53125 48.484375 33.40625 48.484375 
Q 26.265625 48.484375 22.1875 42.84375 
Q 18.109375 37.203125 18.109375 27.296875 
Q 18.109375 17.390625 22.1875 11.75 
Q 26.265625 6.109375 33.40625 6.109375 
Q 40.53125 6.109375 44.609375 11.75 
Q 48.6875 17.390625 48.6875 27.296875 
z
M 18.109375 46.390625 
Q 20.953125 51.265625 25.265625 53.625 
Q 29.59375 56 35.59375 56 
Q 45.5625 56 51.78125 48.09375 
Q 58.015625 40.1875 58.015625 27.296875 
Q 58.015625 14.40625 51.78125 6.484375 
Q 45.5625 -1.421875 35.59375 -1.421875 
Q 29.59375 -1.421875 25.265625 0.953125 
Q 20.953125 3.328125 18.109375 8.203125 
L 18.109375 0 
L 9.078125 0 
L 9.078125 75.984375 
L 18.109375 75.984375 
z
" id="DejaVuSans-98"/>
        <path d="M 8.015625 75.875 
L 15.828125 75.875 
Q 23.140625 64.359375 26.78125 53.3125 
Q 30.421875 42.28125 30.421875 31.390625 
Q 30.421875 20.453125 26.78125 9.375 
Q 23.140625 -1.703125 15.828125 -13.1875 
L 8.015625 -13.1875 
Q 14.5 -2 17.703125 9.0625 
Q 20.90625 20.125 20.90625 31.390625 
Q 20.90625 42.671875 17.703125 53.65625 
Q 14.5 64.65625 8.015625 75.875 
z
" id="DejaVuSans-41"/>
       </defs>
       <use xlink:href="#DejaVuSans-40"/>
       <use x="39.013672" xlink:href="#DejaVuSans-50"/>
       <use x="102.636719" xlink:href="#DejaVuSans-37"/>
       <use x="197.65625" xlink:href="#DejaVuSans-32"/>
       <use x="229.443359" xlink:href="#DejaVuSans-108"/>
       <use x="257.226562" xlink:href="#DejaVuSans-97"/>
       <use x="318.505859" xlink:href="#DejaVuSans-98"/>
       <use x="381.982422" xlink:href="#DejaVuSans-101"/>
       <use x="443.505859" xlink:href="#DejaVuSans-108"/>
       <use x="471.289062" xlink:href="#DejaVuSans-101"/>
       <use x="532.8125" xlink:href="#DejaVuSans-100"/>
       <use x="596.289062" xlink:href="#DejaVuSans-41"/>
      </g>
     </g>
    </g>
    <g id="xtick_3">
     <g id="line2d_3">
      <g>
       <use style="stroke:#000000;stroke-width:0.8;" x="377.099167" xlink:href="#mcefefa4347" y="438.07875"/>
      </g>
     </g>
     <g id="text_3">
      <!-- Semi- -->
      <g transform="translate(354.196667 457.23625)scale(0.16 -0.16)">
       <defs>
        <path d="M 52 44.1875 
Q 55.375 50.25 60.0625 53.125 
Q 64.75 56 71.09375 56 
Q 79.640625 56 84.28125 50.015625 
Q 88.921875 44.046875 88.921875 33.015625 
L 88.921875 0 
L 79.890625 0 
L 79.890625 32.71875 
Q 79.890625 40.578125 77.09375 44.375 
Q 74.3125 48.1875 68.609375 48.1875 
Q 61.625 48.1875 57.5625 43.546875 
Q 53.515625 38.921875 53.515625 30.90625 
L 53.515625 0 
L 44.484375 0 
L 44.484375 32.71875 
Q 44.484375 40.625 41.703125 44.40625 
Q 38.921875 48.1875 33.109375 48.1875 
Q 26.21875 48.1875 22.15625 43.53125 
Q 18.109375 38.875 18.109375 30.90625 
L 18.109375 0 
L 9.078125 0 
L 9.078125 54.6875 
L 18.109375 54.6875 
L 18.109375 46.1875 
Q 21.1875 51.21875 25.484375 53.609375 
Q 29.78125 56 35.6875 56 
Q 41.65625 56 45.828125 52.96875 
Q 50 49.953125 52 44.1875 
z
" id="DejaVuSans-109"/>
        <path d="M 4.890625 31.390625 
L 31.203125 31.390625 
L 31.203125 23.390625 
L 4.890625 23.390625 
z
" id="DejaVuSans-45"/>
       </defs>
       <use xlink:href="#DejaVuSans-83"/>
       <use x="63.476562" xlink:href="#DejaVuSans-101"/>
       <use x="125" xlink:href="#DejaVuSans-109"/>
       <use x="222.412109" xlink:href="#DejaVuSans-105"/>
       <use x="250.195312" xlink:href="#DejaVuSans-45"/>
      </g>
      <!-- supervised -->
      <g transform="translate(333.445417 475.15275)scale(0.16 -0.16)">
       <use xlink:href="#DejaVuSans-115"/>
       <use x="52.099609" xlink:href="#DejaVuSans-117"/>
       <use x="115.478516" xlink:href="#DejaVuSans-112"/>
       <use x="178.955078" xlink:href="#DejaVuSans-101"/>
       <use x="240.478516" xlink:href="#DejaVuSans-114"/>
       <use x="281.591797" xlink:href="#DejaVuSans-118"/>
       <use x="340.771484" xlink:href="#DejaVuSans-105"/>
       <use x="368.554688" xlink:href="#DejaVuSans-115"/>
       <use x="420.654297" xlink:href="#DejaVuSans-101"/>
       <use x="482.177734" xlink:href="#DejaVuSans-100"/>
      </g>
      <!-- (unlabeled -->
      <g transform="translate(334.487917 493.06925)scale(0.16 -0.16)">
       <defs>
        <path d="M 54.890625 33.015625 
L 54.890625 0 
L 45.90625 0 
L 45.90625 32.71875 
Q 45.90625 40.484375 42.875 44.328125 
Q 39.84375 48.1875 33.796875 48.1875 
Q 26.515625 48.1875 22.3125 43.546875 
Q 18.109375 38.921875 18.109375 30.90625 
L 18.109375 0 
L 9.078125 0 
L 9.078125 54.6875 
L 18.109375 54.6875 
L 18.109375 46.1875 
Q 21.34375 51.125 25.703125 53.5625 
Q 30.078125 56 35.796875 56 
Q 45.21875 56 50.046875 50.171875 
Q 54.890625 44.34375 54.890625 33.015625 
z
" id="DejaVuSans-110"/>
       </defs>
       <use xlink:href="#DejaVuSans-40"/>
       <use x="39.013672" xlink:href="#DejaVuSans-117"/>
       <use x="102.392578" xlink:href="#DejaVuSans-110"/>
       <use x="165.771484" xlink:href="#DejaVuSans-108"/>
       <use x="193.554688" xlink:href="#DejaVuSans-97"/>
       <use x="254.833984" xlink:href="#DejaVuSans-98"/>
       <use x="318.310547" xlink:href="#DejaVuSans-101"/>
       <use x="379.833984" xlink:href="#DejaVuSans-108"/>
       <use x="407.617188" xlink:href="#DejaVuSans-101"/>
       <use x="469.140625" xlink:href="#DejaVuSans-100"/>
      </g>
      <!-- data first) -->
      <g transform="translate(337.784167 510.98575)scale(0.16 -0.16)">
       <defs>
        <path d="M 18.3125 70.21875 
L 18.3125 54.6875 
L 36.8125 54.6875 
L 36.8125 47.703125 
L 18.3125 47.703125 
L 18.3125 18.015625 
Q 18.3125 11.328125 20.140625 9.421875 
Q 21.96875 7.515625 27.59375 7.515625 
L 36.8125 7.515625 
L 36.8125 0 
L 27.59375 0 
Q 17.1875 0 13.234375 3.875 
Q 9.28125 7.765625 9.28125 18.015625 
L 9.28125 47.703125 
L 2.6875 47.703125 
L 2.6875 54.6875 
L 9.28125 54.6875 
L 9.28125 70.21875 
z
" id="DejaVuSans-116"/>
        <path d="M 37.109375 75.984375 
L 37.109375 68.5 
L 28.515625 68.5 
Q 23.6875 68.5 21.796875 66.546875 
Q 19.921875 64.59375 19.921875 59.515625 
L 19.921875 54.6875 
L 34.71875 54.6875 
L 34.71875 47.703125 
L 19.921875 47.703125 
L 19.921875 0 
L 10.890625 0 
L 10.890625 47.703125 
L 2.296875 47.703125 
L 2.296875 54.6875 
L 10.890625 54.6875 
L 10.890625 58.5 
Q 10.890625 67.625 15.140625 71.796875 
Q 19.390625 75.984375 28.609375 75.984375 
z
" id="DejaVuSans-102"/>
       </defs>
       <use xlink:href="#DejaVuSans-100"/>
       <use x="63.476562" xlink:href="#DejaVuSans-97"/>
       <use x="124.755859" xlink:href="#DejaVuSans-116"/>
       <use x="163.964844" xlink:href="#DejaVuSans-97"/>
       <use x="225.244141" xlink:href="#DejaVuSans-32"/>
       <use x="257.03125" xlink:href="#DejaVuSans-102"/>
       <use x="292.236328" xlink:href="#DejaVuSans-105"/>
       <use x="320.019531" xlink:href="#DejaVuSans-114"/>
       <use x="361.132812" xlink:href="#DejaVuSans-115"/>
       <use x="413.232422" xlink:href="#DejaVuSans-116"/>
       <use x="452.441406" xlink:href="#DejaVuSans-41"/>
      </g>
     </g>
    </g>
    <g id="xtick_4">
     <g id="line2d_4">
      <g>
       <use style="stroke:#000000;stroke-width:0.8;" x="510.4325" xlink:href="#mcefefa4347" y="438.07875"/>
      </g>
     </g>
     <g id="text_4">
      <!-- Semi- -->
      <g transform="translate(487.53 457.23625)scale(0.16 -0.16)">
       <use xlink:href="#DejaVuSans-83"/>
       <use x="63.476562" xlink:href="#DejaVuSans-101"/>
       <use x="125" xlink:href="#DejaVuSans-109"/>
       <use x="222.412109" xlink:href="#DejaVuSans-105"/>
       <use x="250.195312" xlink:href="#DejaVuSans-45"/>
      </g>
      <!-- supervised -->
      <g transform="translate(466.77875 475.15275)scale(0.16 -0.16)">
       <use xlink:href="#DejaVuSans-115"/>
       <use x="52.099609" xlink:href="#DejaVuSans-117"/>
       <use x="115.478516" xlink:href="#DejaVuSans-112"/>
       <use x="178.955078" xlink:href="#DejaVuSans-101"/>
       <use x="240.478516" xlink:href="#DejaVuSans-114"/>
       <use x="281.591797" xlink:href="#DejaVuSans-118"/>
       <use x="340.771484" xlink:href="#DejaVuSans-105"/>
       <use x="368.554688" xlink:href="#DejaVuSans-115"/>
       <use x="420.654297" xlink:href="#DejaVuSans-101"/>
       <use x="482.177734" xlink:href="#DejaVuSans-100"/>
      </g>
      <!-- (labeled -->
      <g transform="translate(477.96125 493.06925)scale(0.16 -0.16)">
       <use xlink:href="#DejaVuSans-40"/>
       <use x="39.013672" xlink:href="#DejaVuSans-108"/>
       <use x="66.796875" xlink:href="#DejaVuSans-97"/>
       <use x="128.076172" xlink:href="#DejaVuSans-98"/>
       <use x="191.552734" xlink:href="#DejaVuSans-101"/>
       <use x="253.076172" xlink:href="#DejaVuSans-108"/>
       <use x="280.859375" xlink:href="#DejaVuSans-101"/>
       <use x="342.382812" xlink:href="#DejaVuSans-100"/>
      </g>
      <!-- data first) -->
      <g transform="translate(471.1175 510.98575)scale(0.16 -0.16)">
       <use xlink:href="#DejaVuSans-100"/>
       <use x="63.476562" xlink:href="#DejaVuSans-97"/>
       <use x="124.755859" xlink:href="#DejaVuSans-116"/>
       <use x="163.964844" xlink:href="#DejaVuSans-97"/>
       <use x="225.244141" xlink:href="#DejaVuSans-32"/>
       <use x="257.03125" xlink:href="#DejaVuSans-102"/>
       <use x="292.236328" xlink:href="#DejaVuSans-105"/>
       <use x="320.019531" xlink:href="#DejaVuSans-114"/>
       <use x="361.132812" xlink:href="#DejaVuSans-115"/>
       <use x="413.232422" xlink:href="#DejaVuSans-116"/>
       <use x="452.441406" xlink:href="#DejaVuSans-41"/>
      </g>
     </g>
    </g>
    <g id="xtick_5">
     <g id="line2d_5">
      <g>
       <use style="stroke:#000000;stroke-width:0.8;" x="643.765833" xlink:href="#mcefefa4347" y="438.07875"/>
      </g>
     </g>
     <g id="text_5">
      <!-- Semi- -->
      <g transform="translate(620.863333 457.23625)scale(0.16 -0.16)">
       <use xlink:href="#DejaVuSans-83"/>
       <use x="63.476562" xlink:href="#DejaVuSans-101"/>
       <use x="125" xlink:href="#DejaVuSans-109"/>
       <use x="222.412109" xlink:href="#DejaVuSans-105"/>
       <use x="250.195312" xlink:href="#DejaVuSans-45"/>
      </g>
      <!-- supervised -->
      <g transform="translate(600.112083 475.15275)scale(0.16 -0.16)">
       <use xlink:href="#DejaVuSans-115"/>
       <use x="52.099609" xlink:href="#DejaVuSans-117"/>
       <use x="115.478516" xlink:href="#DejaVuSans-112"/>
       <use x="178.955078" xlink:href="#DejaVuSans-101"/>
       <use x="240.478516" xlink:href="#DejaVuSans-114"/>
       <use x="281.591797" xlink:href="#DejaVuSans-118"/>
       <use x="340.771484" xlink:href="#DejaVuSans-105"/>
       <use x="368.554688" xlink:href="#DejaVuSans-115"/>
       <use x="420.654297" xlink:href="#DejaVuSans-101"/>
       <use x="482.177734" xlink:href="#DejaVuSans-100"/>
      </g>
      <!-- (mix of -->
      <g transform="translate(615.640833 493.06925)scale(0.16 -0.16)">
       <defs>
        <path d="M 54.890625 54.6875 
L 35.109375 28.078125 
L 55.90625 0 
L 45.3125 0 
L 29.390625 21.484375 
L 13.484375 0 
L 2.875 0 
L 24.125 28.609375 
L 4.6875 54.6875 
L 15.28125 54.6875 
L 29.78125 35.203125 
L 44.28125 54.6875 
z
" id="DejaVuSans-120"/>
        <path d="M 30.609375 48.390625 
Q 23.390625 48.390625 19.1875 42.75 
Q 14.984375 37.109375 14.984375 27.296875 
Q 14.984375 17.484375 19.15625 11.84375 
Q 23.34375 6.203125 30.609375 6.203125 
Q 37.796875 6.203125 41.984375 11.859375 
Q 46.1875 17.53125 46.1875 27.296875 
Q 46.1875 37.015625 41.984375 42.703125 
Q 37.796875 48.390625 30.609375 48.390625 
z
M 30.609375 56 
Q 42.328125 56 49.015625 48.375 
Q 55.71875 40.765625 55.71875 27.296875 
Q 55.71875 13.875 49.015625 6.21875 
Q 42.328125 -1.421875 30.609375 -1.421875 
Q 18.84375 -1.421875 12.171875 6.21875 
Q 5.515625 13.875 5.515625 27.296875 
Q 5.515625 40.765625 12.171875 48.375 
Q 18.84375 56 30.609375 56 
z
" id="DejaVuSans-111"/>
       </defs>
       <use xlink:href="#DejaVuSans-40"/>
       <use x="39.013672" xlink:href="#DejaVuSans-109"/>
       <use x="136.425781" xlink:href="#DejaVuSans-105"/>
       <use x="164.208984" xlink:href="#DejaVuSans-120"/>
       <use x="223.388672" xlink:href="#DejaVuSans-32"/>
       <use x="255.175781" xlink:href="#DejaVuSans-111"/>
       <use x="316.357422" xlink:href="#DejaVuSans-102"/>
      </g>
      <!-- labeled and -->
      <g transform="translate(596.822083 510.98575)scale(0.16 -0.16)">
       <use xlink:href="#DejaVuSans-108"/>
       <use x="27.783203" xlink:href="#DejaVuSans-97"/>
       <use x="89.0625" xlink:href="#DejaVuSans-98"/>
       <use x="152.539062" xlink:href="#DejaVuSans-101"/>
       <use x="214.0625" xlink:href="#DejaVuSans-108"/>
       <use x="241.845703" xlink:href="#DejaVuSans-101"/>
       <use x="303.369141" xlink:href="#DejaVuSans-100"/>
       <use x="366.845703" xlink:href="#DejaVuSans-32"/>
       <use x="398.632812" xlink:href="#DejaVuSans-97"/>
       <use x="459.912109" xlink:href="#DejaVuSans-110"/>
       <use x="523.291016" xlink:href="#DejaVuSans-100"/>
      </g>
      <!-- unlabeled) -->
      <g transform="translate(601.154583 528.90225)scale(0.16 -0.16)">
       <use xlink:href="#DejaVuSans-117"/>
       <use x="63.378906" xlink:href="#DejaVuSans-110"/>
       <use x="126.757812" xlink:href="#DejaVuSans-108"/>
       <use x="154.541016" xlink:href="#DejaVuSans-97"/>
       <use x="215.820312" xlink:href="#DejaVuSans-98"/>
       <use x="279.296875" xlink:href="#DejaVuSans-101"/>
       <use x="340.820312" xlink:href="#DejaVuSans-108"/>
       <use x="368.603516" xlink:href="#DejaVuSans-101"/>
       <use x="430.126953" xlink:href="#DejaVuSans-100"/>
       <use x="493.603516" xlink:href="#DejaVuSans-41"/>
      </g>
     </g>
    </g>
    <g id="xtick_6">
     <g id="line2d_6">
      <g>
       <use style="stroke:#000000;stroke-width:0.8;" x="777.099167" xlink:href="#mcefefa4347" y="438.07875"/>
      </g>
     </g>
     <g id="text_6">
      <!-- Unsupervised -->
      <g transform="translate(722.520417 457.23625)scale(0.16 -0.16)">
       <defs>
        <path d="M 8.6875 72.90625 
L 18.609375 72.90625 
L 18.609375 28.609375 
Q 18.609375 16.890625 22.84375 11.734375 
Q 27.09375 6.59375 36.625 6.59375 
Q 46.09375 6.59375 50.34375 11.734375 
Q 54.59375 16.890625 54.59375 28.609375 
L 54.59375 72.90625 
L 64.5 72.90625 
L 64.5 27.390625 
Q 64.5 13.140625 57.4375 5.859375 
Q 50.390625 -1.421875 36.625 -1.421875 
Q 22.796875 -1.421875 15.734375 5.859375 
Q 8.6875 13.140625 8.6875 27.390625 
z
" id="DejaVuSans-85"/>
       </defs>
       <use xlink:href="#DejaVuSans-85"/>
       <use x="73.193359" xlink:href="#DejaVuSans-110"/>
       <use x="136.572266" xlink:href="#DejaVuSans-115"/>
       <use x="188.671875" xlink:href="#DejaVuSans-117"/>
       <use x="252.050781" xlink:href="#DejaVuSans-112"/>
       <use x="315.527344" xlink:href="#DejaVuSans-101"/>
       <use x="377.050781" xlink:href="#DejaVuSans-114"/>
       <use x="418.164062" xlink:href="#DejaVuSans-118"/>
       <use x="477.34375" xlink:href="#DejaVuSans-105"/>
       <use x="505.126953" xlink:href="#DejaVuSans-115"/>
       <use x="557.226562" xlink:href="#DejaVuSans-101"/>
       <use x="618.75" xlink:href="#DejaVuSans-100"/>
      </g>
     </g>
    </g>
    <g id="text_7">
     <!-- Training method -->
     <g transform="translate(365.43375 548.38725)scale(0.16 -0.16)">
      <defs>
       <path d="M -0.296875 72.90625 
L 61.375 72.90625 
L 61.375 64.59375 
L 35.5 64.59375 
L 35.5 0 
L 25.59375 0 
L 25.59375 64.59375 
L -0.296875 64.59375 
z
" id="DejaVuSans-84"/>
       <path d="M 45.40625 27.984375 
Q 45.40625 37.75 41.375 43.109375 
Q 37.359375 48.484375 30.078125 48.484375 
Q 22.859375 48.484375 18.828125 43.109375 
Q 14.796875 37.75 14.796875 27.984375 
Q 14.796875 18.265625 18.828125 12.890625 
Q 22.859375 7.515625 30.078125 7.515625 
Q 37.359375 7.515625 41.375 12.890625 
Q 45.40625 18.265625 45.40625 27.984375 
z
M 54.390625 6.78125 
Q 54.390625 -7.171875 48.1875 -13.984375 
Q 42 -20.796875 29.203125 -20.796875 
Q 24.46875 -20.796875 20.265625 -20.09375 
Q 16.0625 -19.390625 12.109375 -17.921875 
L 12.109375 -9.1875 
Q 16.0625 -11.328125 19.921875 -12.34375 
Q 23.78125 -13.375 27.78125 -13.375 
Q 36.625 -13.375 41.015625 -8.765625 
Q 45.40625 -4.15625 45.40625 5.171875 
L 45.40625 9.625 
Q 42.625 4.78125 38.28125 2.390625 
Q 33.9375 0 27.875 0 
Q 17.828125 0 11.671875 7.65625 
Q 5.515625 15.328125 5.515625 27.984375 
Q 5.515625 40.671875 11.671875 48.328125 
Q 17.828125 56 27.875 56 
Q 33.9375 56 38.28125 53.609375 
Q 42.625 51.21875 45.40625 46.390625 
L 45.40625 54.6875 
L 54.390625 54.6875 
z
" id="DejaVuSans-103"/>
       <path d="M 54.890625 33.015625 
L 54.890625 0 
L 45.90625 0 
L 45.90625 32.71875 
Q 45.90625 40.484375 42.875 44.328125 
Q 39.84375 48.1875 33.796875 48.1875 
Q 26.515625 48.1875 22.3125 43.546875 
Q 18.109375 38.921875 18.109375 30.90625 
L 18.109375 0 
L 9.078125 0 
L 9.078125 75.984375 
L 18.109375 75.984375 
L 18.109375 46.1875 
Q 21.34375 51.125 25.703125 53.5625 
Q 30.078125 56 35.796875 56 
Q 45.21875 56 50.046875 50.171875 
Q 54.890625 44.34375 54.890625 33.015625 
z
" id="DejaVuSans-104"/>
      </defs>
      <use xlink:href="#DejaVuSans-84"/>
      <use x="46.333984" xlink:href="#DejaVuSans-114"/>
      <use x="87.447266" xlink:href="#DejaVuSans-97"/>
      <use x="148.726562" xlink:href="#DejaVuSans-105"/>
      <use x="176.509766" xlink:href="#DejaVuSans-110"/>
      <use x="239.888672" xlink:href="#DejaVuSans-105"/>
      <use x="267.671875" xlink:href="#DejaVuSans-110"/>
      <use x="331.050781" xlink:href="#DejaVuSans-103"/>
      <use x="394.527344" xlink:href="#DejaVuSans-32"/>
      <use x="426.314453" xlink:href="#DejaVuSans-109"/>
      <use x="523.726562" xlink:href="#DejaVuSans-101"/>
      <use x="585.25" xlink:href="#DejaVuSans-116"/>
      <use x="624.458984" xlink:href="#DejaVuSans-104"/>
      <use x="687.837891" xlink:href="#DejaVuSans-111"/>
      <use x="749.019531" xlink:href="#DejaVuSans-100"/>
     </g>
    </g>
   </g>
   <g id="matplotlib.axis_2">
    <g id="ytick_1">
     <g id="line2d_7">
      <path clip-path="url(#paa1c36416f)" d="M 70.4325 438.07875 
L 790.4325 438.07875 
" style="fill:none;stroke:#b0b0b0;stroke-linecap:square;stroke-width:0.8;"/>
     </g>
     <g id="line2d_8">
      <defs>
       <path d="M 0 0 
L -3.5 0 
" id="m4af7e59025" style="stroke:#000000;stroke-width:0.8;"/>
      </defs>
      <g>
       <use style="stroke:#000000;stroke-width:0.8;" x="70.4325" xlink:href="#m4af7e59025" y="438.07875"/>
      </g>
     </g>
     <g id="text_8">
      <!-- −175 -->
      <g transform="translate(19.485 444.1575)scale(0.16 -0.16)">
       <defs>
        <path d="M 10.59375 35.5 
L 73.1875 35.5 
L 73.1875 27.203125 
L 10.59375 27.203125 
z
" id="DejaVuSans-8722"/>
        <path d="M 12.40625 8.296875 
L 28.515625 8.296875 
L 28.515625 63.921875 
L 10.984375 60.40625 
L 10.984375 69.390625 
L 28.421875 72.90625 
L 38.28125 72.90625 
L 38.28125 8.296875 
L 54.390625 8.296875 
L 54.390625 0 
L 12.40625 0 
z
" id="DejaVuSans-49"/>
        <path d="M 8.203125 72.90625 
L 55.078125 72.90625 
L 55.078125 68.703125 
L 28.609375 0 
L 18.3125 0 
L 43.21875 64.59375 
L 8.203125 64.59375 
z
" id="DejaVuSans-55"/>
        <path d="M 10.796875 72.90625 
L 49.515625 72.90625 
L 49.515625 64.59375 
L 19.828125 64.59375 
L 19.828125 46.734375 
Q 21.96875 47.46875 24.109375 47.828125 
Q 26.265625 48.1875 28.421875 48.1875 
Q 40.625 48.1875 47.75 41.5 
Q 54.890625 34.8125 54.890625 23.390625 
Q 54.890625 11.625 47.5625 5.09375 
Q 40.234375 -1.421875 26.90625 -1.421875 
Q 22.3125 -1.421875 17.546875 -0.640625 
Q 12.796875 0.140625 7.71875 1.703125 
L 7.71875 11.625 
Q 12.109375 9.234375 16.796875 8.0625 
Q 21.484375 6.890625 26.703125 6.890625 
Q 35.15625 6.890625 40.078125 11.328125 
Q 45.015625 15.765625 45.015625 23.390625 
Q 45.015625 31 40.078125 35.4375 
Q 35.15625 39.890625 26.703125 39.890625 
Q 22.75 39.890625 18.8125 39.015625 
Q 14.890625 38.140625 10.796875 36.28125 
z
" id="DejaVuSans-53"/>
       </defs>
       <use xlink:href="#DejaVuSans-8722"/>
       <use x="83.789062" xlink:href="#DejaVuSans-49"/>
       <use x="147.412109" xlink:href="#DejaVuSans-55"/>
       <use x="211.035156" xlink:href="#DejaVuSans-53"/>
      </g>
     </g>
    </g>
    <g id="ytick_2">
     <g id="line2d_9">
      <path clip-path="url(#paa1c36416f)" d="M 70.4325 398.806023 
L 790.4325 398.806023 
" style="fill:none;stroke:#b0b0b0;stroke-linecap:square;stroke-width:0.8;"/>
     </g>
     <g id="line2d_10">
      <g>
       <use style="stroke:#000000;stroke-width:0.8;" x="70.4325" xlink:href="#m4af7e59025" y="398.806023"/>
      </g>
     </g>
     <g id="text_9">
      <!-- −150 -->
      <g transform="translate(19.485 404.884773)scale(0.16 -0.16)">
       <defs>
        <path d="M 31.78125 66.40625 
Q 24.171875 66.40625 20.328125 58.90625 
Q 16.5 51.421875 16.5 36.375 
Q 16.5 21.390625 20.328125 13.890625 
Q 24.171875 6.390625 31.78125 6.390625 
Q 39.453125 6.390625 43.28125 13.890625 
Q 47.125 21.390625 47.125 36.375 
Q 47.125 51.421875 43.28125 58.90625 
Q 39.453125 66.40625 31.78125 66.40625 
z
M 31.78125 74.21875 
Q 44.046875 74.21875 50.515625 64.515625 
Q 56.984375 54.828125 56.984375 36.375 
Q 56.984375 17.96875 50.515625 8.265625 
Q 44.046875 -1.421875 31.78125 -1.421875 
Q 19.53125 -1.421875 13.0625 8.265625 
Q 6.59375 17.96875 6.59375 36.375 
Q 6.59375 54.828125 13.0625 64.515625 
Q 19.53125 74.21875 31.78125 74.21875 
z
" id="DejaVuSans-48"/>
       </defs>
       <use xlink:href="#DejaVuSans-8722"/>
       <use x="83.789062" xlink:href="#DejaVuSans-49"/>
       <use x="147.412109" xlink:href="#DejaVuSans-53"/>
       <use x="211.035156" xlink:href="#DejaVuSans-48"/>
      </g>
     </g>
    </g>
    <g id="ytick_3">
     <g id="line2d_11">
      <path clip-path="url(#paa1c36416f)" d="M 70.4325 359.533295 
L 790.4325 359.533295 
" style="fill:none;stroke:#b0b0b0;stroke-linecap:square;stroke-width:0.8;"/>
     </g>
     <g id="line2d_12">
      <g>
       <use style="stroke:#000000;stroke-width:0.8;" x="70.4325" xlink:href="#m4af7e59025" y="359.533295"/>
      </g>
     </g>
     <g id="text_10">
      <!-- −125 -->
      <g transform="translate(19.485 365.612045)scale(0.16 -0.16)">
       <use xlink:href="#DejaVuSans-8722"/>
       <use x="83.789062" xlink:href="#DejaVuSans-49"/>
       <use x="147.412109" xlink:href="#DejaVuSans-50"/>
       <use x="211.035156" xlink:href="#DejaVuSans-53"/>
      </g>
     </g>
    </g>
    <g id="ytick_4">
     <g id="line2d_13">
      <path clip-path="url(#paa1c36416f)" d="M 70.4325 320.260568 
L 790.4325 320.260568 
" style="fill:none;stroke:#b0b0b0;stroke-linecap:square;stroke-width:0.8;"/>
     </g>
     <g id="line2d_14">
      <g>
       <use style="stroke:#000000;stroke-width:0.8;" x="70.4325" xlink:href="#m4af7e59025" y="320.260568"/>
      </g>
     </g>
     <g id="text_11">
      <!-- −100 -->
      <g transform="translate(19.485 326.339318)scale(0.16 -0.16)">
       <use xlink:href="#DejaVuSans-8722"/>
       <use x="83.789062" xlink:href="#DejaVuSans-49"/>
       <use x="147.412109" xlink:href="#DejaVuSans-48"/>
       <use x="211.035156" xlink:href="#DejaVuSans-48"/>
      </g>
     </g>
    </g>
    <g id="ytick_5">
     <g id="line2d_15">
      <path clip-path="url(#paa1c36416f)" d="M 70.4325 280.987841 
L 790.4325 280.987841 
" style="fill:none;stroke:#b0b0b0;stroke-linecap:square;stroke-width:0.8;"/>
     </g>
     <g id="line2d_16">
      <g>
       <use style="stroke:#000000;stroke-width:0.8;" x="70.4325" xlink:href="#m4af7e59025" y="280.987841"/>
      </g>
     </g>
     <g id="text_12">
      <!-- −75 -->
      <g transform="translate(29.665 287.066591)scale(0.16 -0.16)">
       <use xlink:href="#DejaVuSans-8722"/>
       <use x="83.789062" xlink:href="#DejaVuSans-55"/>
       <use x="147.412109" xlink:href="#DejaVuSans-53"/>
      </g>
     </g>
    </g>
    <g id="ytick_6">
     <g id="line2d_17">
      <path clip-path="url(#paa1c36416f)" d="M 70.4325 241.715114 
L 790.4325 241.715114 
" style="fill:none;stroke:#b0b0b0;stroke-linecap:square;stroke-width:0.8;"/>
     </g>
     <g id="line2d_18">
      <g>
       <use style="stroke:#000000;stroke-width:0.8;" x="70.4325" xlink:href="#m4af7e59025" y="241.715114"/>
      </g>
     </g>
     <g id="text_13">
      <!-- −50 -->
      <g transform="translate(29.665 247.793864)scale(0.16 -0.16)">
       <use xlink:href="#DejaVuSans-8722"/>
       <use x="83.789062" xlink:href="#DejaVuSans-53"/>
       <use x="147.412109" xlink:href="#DejaVuSans-48"/>
      </g>
     </g>
    </g>
    <g id="ytick_7">
     <g id="line2d_19">
      <path clip-path="url(#paa1c36416f)" d="M 70.4325 202.442386 
L 790.4325 202.442386 
" style="fill:none;stroke:#b0b0b0;stroke-linecap:square;stroke-width:0.8;"/>
     </g>
     <g id="line2d_20">
      <g>
       <use style="stroke:#000000;stroke-width:0.8;" x="70.4325" xlink:href="#m4af7e59025" y="202.442386"/>
      </g>
     </g>
     <g id="text_14">
      <!-- −25 -->
      <g transform="translate(29.665 208.521136)scale(0.16 -0.16)">
       <use xlink:href="#DejaVuSans-8722"/>
       <use x="83.789062" xlink:href="#DejaVuSans-50"/>
       <use x="147.412109" xlink:href="#DejaVuSans-53"/>
      </g>
     </g>
    </g>
    <g id="ytick_8">
     <g id="line2d_21">
      <path clip-path="url(#paa1c36416f)" d="M 70.4325 163.169659 
L 790.4325 163.169659 
" style="fill:none;stroke:#b0b0b0;stroke-linecap:square;stroke-width:0.8;"/>
     </g>
     <g id="line2d_22">
      <g>
       <use style="stroke:#000000;stroke-width:0.8;" x="70.4325" xlink:href="#m4af7e59025" y="163.169659"/>
      </g>
     </g>
     <g id="text_15">
      <!-- 0 -->
      <g transform="translate(53.2525 169.248409)scale(0.16 -0.16)">
       <use xlink:href="#DejaVuSans-48"/>
      </g>
     </g>
    </g>
    <g id="ytick_9">
     <g id="line2d_23">
      <path clip-path="url(#paa1c36416f)" d="M 70.4325 123.896932 
L 790.4325 123.896932 
" style="fill:none;stroke:#b0b0b0;stroke-linecap:square;stroke-width:0.8;"/>
     </g>
     <g id="line2d_24">
      <g>
       <use style="stroke:#000000;stroke-width:0.8;" x="70.4325" xlink:href="#m4af7e59025" y="123.896932"/>
      </g>
     </g>
     <g id="text_16">
      <!-- 25 -->
      <g transform="translate(43.0725 129.975682)scale(0.16 -0.16)">
       <use xlink:href="#DejaVuSans-50"/>
       <use x="63.623047" xlink:href="#DejaVuSans-53"/>
      </g>
     </g>
    </g>
    <g id="ytick_10">
     <g id="line2d_25">
      <path clip-path="url(#paa1c36416f)" d="M 70.4325 84.624205 
L 790.4325 84.624205 
" style="fill:none;stroke:#b0b0b0;stroke-linecap:square;stroke-width:0.8;"/>
     </g>
     <g id="line2d_26">
      <g>
       <use style="stroke:#000000;stroke-width:0.8;" x="70.4325" xlink:href="#m4af7e59025" y="84.624205"/>
      </g>
     </g>
     <g id="text_17">
      <!-- 50 -->
      <g transform="translate(43.0725 90.702955)scale(0.16 -0.16)">
       <use xlink:href="#DejaVuSans-53"/>
       <use x="63.623047" xlink:href="#DejaVuSans-48"/>
      </g>
     </g>
    </g>
    <g id="ytick_11">
     <g id="line2d_27">
      <path clip-path="url(#paa1c36416f)" d="M 70.4325 45.351477 
L 790.4325 45.351477 
" style="fill:none;stroke:#b0b0b0;stroke-linecap:square;stroke-width:0.8;"/>
     </g>
     <g id="line2d_28">
      <g>
       <use style="stroke:#000000;stroke-width:0.8;" x="70.4325" xlink:href="#m4af7e59025" y="45.351477"/>
      </g>
     </g>
     <g id="text_18">
      <!-- 75 -->
      <g transform="translate(43.0725 51.430227)scale(0.16 -0.16)">
       <use xlink:href="#DejaVuSans-55"/>
       <use x="63.623047" xlink:href="#DejaVuSans-53"/>
      </g>
     </g>
    </g>
    <g id="ytick_12">
     <g id="line2d_29">
      <path clip-path="url(#paa1c36416f)" d="M 70.4325 6.07875 
L 790.4325 6.07875 
" style="fill:none;stroke:#b0b0b0;stroke-linecap:square;stroke-width:0.8;"/>
     </g>
     <g id="line2d_30">
      <g>
       <use style="stroke:#000000;stroke-width:0.8;" x="70.4325" xlink:href="#m4af7e59025" y="6.07875"/>
      </g>
     </g>
     <g id="text_19">
      <!-- 100 -->
      <g transform="translate(32.8925 12.1575)scale(0.16 -0.16)">
       <use xlink:href="#DejaVuSans-49"/>
       <use x="63.623047" xlink:href="#DejaVuSans-48"/>
       <use x="127.246094" xlink:href="#DejaVuSans-48"/>
      </g>
     </g>
    </g>
    <g id="ytick_13">
     <g id="line2d_31">
      <path clip-path="url(#paa1c36416f)" d="M 70.4325 430.224205 
L 790.4325 430.224205 
" style="fill:none;stroke:#b0b0b0;stroke-linecap:square;stroke-opacity:0.3;"/>
     </g>
     <g id="line2d_32">
      <defs>
       <path d="M 0 0 
L -2 0 
" id="m59a1909073" style="stroke:#000000;stroke-width:0.6;"/>
      </defs>
      <g>
       <use style="stroke:#000000;stroke-width:0.6;" x="70.4325" xlink:href="#m59a1909073" y="430.224205"/>
      </g>
     </g>
    </g>
    <g id="ytick_14">
     <g id="line2d_33">
      <path clip-path="url(#paa1c36416f)" d="M 70.4325 422.369659 
L 790.4325 422.369659 
" style="fill:none;stroke:#b0b0b0;stroke-linecap:square;stroke-opacity:0.3;"/>
     </g>
     <g id="line2d_34">
      <g>
       <use style="stroke:#000000;stroke-width:0.6;" x="70.4325" xlink:href="#m59a1909073" y="422.369659"/>
      </g>
     </g>
    </g>
    <g id="ytick_15">
     <g id="line2d_35">
      <path clip-path="url(#paa1c36416f)" d="M 70.4325 414.515114 
L 790.4325 414.515114 
" style="fill:none;stroke:#b0b0b0;stroke-linecap:square;stroke-opacity:0.3;"/>
     </g>
     <g id="line2d_36">
      <g>
       <use style="stroke:#000000;stroke-width:0.6;" x="70.4325" xlink:href="#m59a1909073" y="414.515114"/>
      </g>
     </g>
    </g>
    <g id="ytick_16">
     <g id="line2d_37">
      <path clip-path="url(#paa1c36416f)" d="M 70.4325 406.660568 
L 790.4325 406.660568 
" style="fill:none;stroke:#b0b0b0;stroke-linecap:square;stroke-opacity:0.3;"/>
     </g>
     <g id="line2d_38">
      <g>
       <use style="stroke:#000000;stroke-width:0.6;" x="70.4325" xlink:href="#m59a1909073" y="406.660568"/>
      </g>
     </g>
    </g>
    <g id="ytick_17">
     <g id="line2d_39">
      <path clip-path="url(#paa1c36416f)" d="M 70.4325 390.951477 
L 790.4325 390.951477 
" style="fill:none;stroke:#b0b0b0;stroke-linecap:square;stroke-opacity:0.3;"/>
     </g>
     <g id="line2d_40">
      <g>
       <use style="stroke:#000000;stroke-width:0.6;" x="70.4325" xlink:href="#m59a1909073" y="390.951477"/>
      </g>
     </g>
    </g>
    <g id="ytick_18">
     <g id="line2d_41">
      <path clip-path="url(#paa1c36416f)" d="M 70.4325 383.096932 
L 790.4325 383.096932 
" style="fill:none;stroke:#b0b0b0;stroke-linecap:square;stroke-opacity:0.3;"/>
     </g>
     <g id="line2d_42">
      <g>
       <use style="stroke:#000000;stroke-width:0.6;" x="70.4325" xlink:href="#m59a1909073" y="383.096932"/>
      </g>
     </g>
    </g>
    <g id="ytick_19">
     <g id="line2d_43">
      <path clip-path="url(#paa1c36416f)" d="M 70.4325 375.242386 
L 790.4325 375.242386 
" style="fill:none;stroke:#b0b0b0;stroke-linecap:square;stroke-opacity:0.3;"/>
     </g>
     <g id="line2d_44">
      <g>
       <use style="stroke:#000000;stroke-width:0.6;" x="70.4325" xlink:href="#m59a1909073" y="375.242386"/>
      </g>
     </g>
    </g>
    <g id="ytick_20">
     <g id="line2d_45">
      <path clip-path="url(#paa1c36416f)" d="M 70.4325 367.387841 
L 790.4325 367.387841 
" style="fill:none;stroke:#b0b0b0;stroke-linecap:square;stroke-opacity:0.3;"/>
     </g>
     <g id="line2d_46">
      <g>
       <use style="stroke:#000000;stroke-width:0.6;" x="70.4325" xlink:href="#m59a1909073" y="367.387841"/>
      </g>
     </g>
    </g>
    <g id="ytick_21">
     <g id="line2d_47">
      <path clip-path="url(#paa1c36416f)" d="M 70.4325 351.67875 
L 790.4325 351.67875 
" style="fill:none;stroke:#b0b0b0;stroke-linecap:square;stroke-opacity:0.3;"/>
     </g>
     <g id="line2d_48">
      <g>
       <use style="stroke:#000000;stroke-width:0.6;" x="70.4325" xlink:href="#m59a1909073" y="351.67875"/>
      </g>
     </g>
    </g>
    <g id="ytick_22">
     <g id="line2d_49">
      <path clip-path="url(#paa1c36416f)" d="M 70.4325 343.824205 
L 790.4325 343.824205 
" style="fill:none;stroke:#b0b0b0;stroke-linecap:square;stroke-opacity:0.3;"/>
     </g>
     <g id="line2d_50">
      <g>
       <use style="stroke:#000000;stroke-width:0.6;" x="70.4325" xlink:href="#m59a1909073" y="343.824205"/>
      </g>
     </g>
    </g>
    <g id="ytick_23">
     <g id="line2d_51">
      <path clip-path="url(#paa1c36416f)" d="M 70.4325 335.969659 
L 790.4325 335.969659 
" style="fill:none;stroke:#b0b0b0;stroke-linecap:square;stroke-opacity:0.3;"/>
     </g>
     <g id="line2d_52">
      <g>
       <use style="stroke:#000000;stroke-width:0.6;" x="70.4325" xlink:href="#m59a1909073" y="335.969659"/>
      </g>
     </g>
    </g>
    <g id="ytick_24">
     <g id="line2d_53">
      <path clip-path="url(#paa1c36416f)" d="M 70.4325 328.115114 
L 790.4325 328.115114 
" style="fill:none;stroke:#b0b0b0;stroke-linecap:square;stroke-opacity:0.3;"/>
     </g>
     <g id="line2d_54">
      <g>
       <use style="stroke:#000000;stroke-width:0.6;" x="70.4325" xlink:href="#m59a1909073" y="328.115114"/>
      </g>
     </g>
    </g>
    <g id="ytick_25">
     <g id="line2d_55">
      <path clip-path="url(#paa1c36416f)" d="M 70.4325 312.406023 
L 790.4325 312.406023 
" style="fill:none;stroke:#b0b0b0;stroke-linecap:square;stroke-opacity:0.3;"/>
     </g>
     <g id="line2d_56">
      <g>
       <use style="stroke:#000000;stroke-width:0.6;" x="70.4325" xlink:href="#m59a1909073" y="312.406023"/>
      </g>
     </g>
    </g>
    <g id="ytick_26">
     <g id="line2d_57">
      <path clip-path="url(#paa1c36416f)" d="M 70.4325 304.551477 
L 790.4325 304.551477 
" style="fill:none;stroke:#b0b0b0;stroke-linecap:square;stroke-opacity:0.3;"/>
     </g>
     <g id="line2d_58">
      <g>
       <use style="stroke:#000000;stroke-width:0.6;" x="70.4325" xlink:href="#m59a1909073" y="304.551477"/>
      </g>
     </g>
    </g>
    <g id="ytick_27">
     <g id="line2d_59">
      <path clip-path="url(#paa1c36416f)" d="M 70.4325 296.696932 
L 790.4325 296.696932 
" style="fill:none;stroke:#b0b0b0;stroke-linecap:square;stroke-opacity:0.3;"/>
     </g>
     <g id="line2d_60">
      <g>
       <use style="stroke:#000000;stroke-width:0.6;" x="70.4325" xlink:href="#m59a1909073" y="296.696932"/>
      </g>
     </g>
    </g>
    <g id="ytick_28">
     <g id="line2d_61">
      <path clip-path="url(#paa1c36416f)" d="M 70.4325 288.842386 
L 790.4325 288.842386 
" style="fill:none;stroke:#b0b0b0;stroke-linecap:square;stroke-opacity:0.3;"/>
     </g>
     <g id="line2d_62">
      <g>
       <use style="stroke:#000000;stroke-width:0.6;" x="70.4325" xlink:href="#m59a1909073" y="288.842386"/>
      </g>
     </g>
    </g>
    <g id="ytick_29">
     <g id="line2d_63">
      <path clip-path="url(#paa1c36416f)" d="M 70.4325 273.133295 
L 790.4325 273.133295 
" style="fill:none;stroke:#b0b0b0;stroke-linecap:square;stroke-opacity:0.3;"/>
     </g>
     <g id="line2d_64">
      <g>
       <use style="stroke:#000000;stroke-width:0.6;" x="70.4325" xlink:href="#m59a1909073" y="273.133295"/>
      </g>
     </g>
    </g>
    <g id="ytick_30">
     <g id="line2d_65">
      <path clip-path="url(#paa1c36416f)" d="M 70.4325 265.27875 
L 790.4325 265.27875 
" style="fill:none;stroke:#b0b0b0;stroke-linecap:square;stroke-opacity:0.3;"/>
     </g>
     <g id="line2d_66">
      <g>
       <use style="stroke:#000000;stroke-width:0.6;" x="70.4325" xlink:href="#m59a1909073" y="265.27875"/>
      </g>
     </g>
    </g>
    <g id="ytick_31">
     <g id="line2d_67">
      <path clip-path="url(#paa1c36416f)" d="M 70.4325 257.424205 
L 790.4325 257.424205 
" style="fill:none;stroke:#b0b0b0;stroke-linecap:square;stroke-opacity:0.3;"/>
     </g>
     <g id="line2d_68">
      <g>
       <use style="stroke:#000000;stroke-width:0.6;" x="70.4325" xlink:href="#m59a1909073" y="257.424205"/>
      </g>
     </g>
    </g>
    <g id="ytick_32">
     <g id="line2d_69">
      <path clip-path="url(#paa1c36416f)" d="M 70.4325 249.569659 
L 790.4325 249.569659 
" style="fill:none;stroke:#b0b0b0;stroke-linecap:square;stroke-opacity:0.3;"/>
     </g>
     <g id="line2d_70">
      <g>
       <use style="stroke:#000000;stroke-width:0.6;" x="70.4325" xlink:href="#m59a1909073" y="249.569659"/>
      </g>
     </g>
    </g>
    <g id="ytick_33">
     <g id="line2d_71">
      <path clip-path="url(#paa1c36416f)" d="M 70.4325 233.860568 
L 790.4325 233.860568 
" style="fill:none;stroke:#b0b0b0;stroke-linecap:square;stroke-opacity:0.3;"/>
     </g>
     <g id="line2d_72">
      <g>
       <use style="stroke:#000000;stroke-width:0.6;" x="70.4325" xlink:href="#m59a1909073" y="233.860568"/>
      </g>
     </g>
    </g>
    <g id="ytick_34">
     <g id="line2d_73">
      <path clip-path="url(#paa1c36416f)" d="M 70.4325 226.006023 
L 790.4325 226.006023 
" style="fill:none;stroke:#b0b0b0;stroke-linecap:square;stroke-opacity:0.3;"/>
     </g>
     <g id="line2d_74">
      <g>
       <use style="stroke:#000000;stroke-width:0.6;" x="70.4325" xlink:href="#m59a1909073" y="226.006023"/>
      </g>
     </g>
    </g>
    <g id="ytick_35">
     <g id="line2d_75">
      <path clip-path="url(#paa1c36416f)" d="M 70.4325 218.151477 
L 790.4325 218.151477 
" style="fill:none;stroke:#b0b0b0;stroke-linecap:square;stroke-opacity:0.3;"/>
     </g>
     <g id="line2d_76">
      <g>
       <use style="stroke:#000000;stroke-width:0.6;" x="70.4325" xlink:href="#m59a1909073" y="218.151477"/>
      </g>
     </g>
    </g>
    <g id="ytick_36">
     <g id="line2d_77">
      <path clip-path="url(#paa1c36416f)" d="M 70.4325 210.296932 
L 790.4325 210.296932 
" style="fill:none;stroke:#b0b0b0;stroke-linecap:square;stroke-opacity:0.3;"/>
     </g>
     <g id="line2d_78">
      <g>
       <use style="stroke:#000000;stroke-width:0.6;" x="70.4325" xlink:href="#m59a1909073" y="210.296932"/>
      </g>
     </g>
    </g>
    <g id="ytick_37">
     <g id="line2d_79">
      <path clip-path="url(#paa1c36416f)" d="M 70.4325 194.587841 
L 790.4325 194.587841 
" style="fill:none;stroke:#b0b0b0;stroke-linecap:square;stroke-opacity:0.3;"/>
     </g>
     <g id="line2d_80">
      <g>
       <use style="stroke:#000000;stroke-width:0.6;" x="70.4325" xlink:href="#m59a1909073" y="194.587841"/>
      </g>
     </g>
    </g>
    <g id="ytick_38">
     <g id="line2d_81">
      <path clip-path="url(#paa1c36416f)" d="M 70.4325 186.733295 
L 790.4325 186.733295 
" style="fill:none;stroke:#b0b0b0;stroke-linecap:square;stroke-opacity:0.3;"/>
     </g>
     <g id="line2d_82">
      <g>
       <use style="stroke:#000000;stroke-width:0.6;" x="70.4325" xlink:href="#m59a1909073" y="186.733295"/>
      </g>
     </g>
    </g>
    <g id="ytick_39">
     <g id="line2d_83">
      <path clip-path="url(#paa1c36416f)" d="M 70.4325 178.87875 
L 790.4325 178.87875 
" style="fill:none;stroke:#b0b0b0;stroke-linecap:square;stroke-opacity:0.3;"/>
     </g>
     <g id="line2d_84">
      <g>
       <use style="stroke:#000000;stroke-width:0.6;" x="70.4325" xlink:href="#m59a1909073" y="178.87875"/>
      </g>
     </g>
    </g>
    <g id="ytick_40">
     <g id="line2d_85">
      <path clip-path="url(#paa1c36416f)" d="M 70.4325 171.024205 
L 790.4325 171.024205 
" style="fill:none;stroke:#b0b0b0;stroke-linecap:square;stroke-opacity:0.3;"/>
     </g>
     <g id="line2d_86">
      <g>
       <use style="stroke:#000000;stroke-width:0.6;" x="70.4325" xlink:href="#m59a1909073" y="171.024205"/>
      </g>
     </g>
    </g>
    <g id="ytick_41">
     <g id="line2d_87">
      <path clip-path="url(#paa1c36416f)" d="M 70.4325 155.315114 
L 790.4325 155.315114 
" style="fill:none;stroke:#b0b0b0;stroke-linecap:square;stroke-opacity:0.3;"/>
     </g>
     <g id="line2d_88">
      <g>
       <use style="stroke:#000000;stroke-width:0.6;" x="70.4325" xlink:href="#m59a1909073" y="155.315114"/>
      </g>
     </g>
    </g>
    <g id="ytick_42">
     <g id="line2d_89">
      <path clip-path="url(#paa1c36416f)" d="M 70.4325 147.460568 
L 790.4325 147.460568 
" style="fill:none;stroke:#b0b0b0;stroke-linecap:square;stroke-opacity:0.3;"/>
     </g>
     <g id="line2d_90">
      <g>
       <use style="stroke:#000000;stroke-width:0.6;" x="70.4325" xlink:href="#m59a1909073" y="147.460568"/>
      </g>
     </g>
    </g>
    <g id="ytick_43">
     <g id="line2d_91">
      <path clip-path="url(#paa1c36416f)" d="M 70.4325 139.606023 
L 790.4325 139.606023 
" style="fill:none;stroke:#b0b0b0;stroke-linecap:square;stroke-opacity:0.3;"/>
     </g>
     <g id="line2d_92">
      <g>
       <use style="stroke:#000000;stroke-width:0.6;" x="70.4325" xlink:href="#m59a1909073" y="139.606023"/>
      </g>
     </g>
    </g>
    <g id="ytick_44">
     <g id="line2d_93">
      <path clip-path="url(#paa1c36416f)" d="M 70.4325 131.751477 
L 790.4325 131.751477 
" style="fill:none;stroke:#b0b0b0;stroke-linecap:square;stroke-opacity:0.3;"/>
     </g>
     <g id="line2d_94">
      <g>
       <use style="stroke:#000000;stroke-width:0.6;" x="70.4325" xlink:href="#m59a1909073" y="131.751477"/>
      </g>
     </g>
    </g>
    <g id="ytick_45">
     <g id="line2d_95">
      <path clip-path="url(#paa1c36416f)" d="M 70.4325 116.042386 
L 790.4325 116.042386 
" style="fill:none;stroke:#b0b0b0;stroke-linecap:square;stroke-opacity:0.3;"/>
     </g>
     <g id="line2d_96">
      <g>
       <use style="stroke:#000000;stroke-width:0.6;" x="70.4325" xlink:href="#m59a1909073" y="116.042386"/>
      </g>
     </g>
    </g>
    <g id="ytick_46">
     <g id="line2d_97">
      <path clip-path="url(#paa1c36416f)" d="M 70.4325 108.187841 
L 790.4325 108.187841 
" style="fill:none;stroke:#b0b0b0;stroke-linecap:square;stroke-opacity:0.3;"/>
     </g>
     <g id="line2d_98">
      <g>
       <use style="stroke:#000000;stroke-width:0.6;" x="70.4325" xlink:href="#m59a1909073" y="108.187841"/>
      </g>
     </g>
    </g>
    <g id="ytick_47">
     <g id="line2d_99">
      <path clip-path="url(#paa1c36416f)" d="M 70.4325 100.333295 
L 790.4325 100.333295 
" style="fill:none;stroke:#b0b0b0;stroke-linecap:square;stroke-opacity:0.3;"/>
     </g>
     <g id="line2d_100">
      <g>
       <use style="stroke:#000000;stroke-width:0.6;" x="70.4325" xlink:href="#m59a1909073" y="100.333295"/>
      </g>
     </g>
    </g>
    <g id="ytick_48">
     <g id="line2d_101">
      <path clip-path="url(#paa1c36416f)" d="M 70.4325 92.47875 
L 790.4325 92.47875 
" style="fill:none;stroke:#b0b0b0;stroke-linecap:square;stroke-opacity:0.3;"/>
     </g>
     <g id="line2d_102">
      <g>
       <use style="stroke:#000000;stroke-width:0.6;" x="70.4325" xlink:href="#m59a1909073" y="92.47875"/>
      </g>
     </g>
    </g>
    <g id="ytick_49">
     <g id="line2d_103">
      <path clip-path="url(#paa1c36416f)" d="M 70.4325 76.769659 
L 790.4325 76.769659 
" style="fill:none;stroke:#b0b0b0;stroke-linecap:square;stroke-opacity:0.3;"/>
     </g>
     <g id="line2d_104">
      <g>
       <use style="stroke:#000000;stroke-width:0.6;" x="70.4325" xlink:href="#m59a1909073" y="76.769659"/>
      </g>
     </g>
    </g>
    <g id="ytick_50">
     <g id="line2d_105">
      <path clip-path="url(#paa1c36416f)" d="M 70.4325 68.915114 
L 790.4325 68.915114 
" style="fill:none;stroke:#b0b0b0;stroke-linecap:square;stroke-opacity:0.3;"/>
     </g>
     <g id="line2d_106">
      <g>
       <use style="stroke:#000000;stroke-width:0.6;" x="70.4325" xlink:href="#m59a1909073" y="68.915114"/>
      </g>
     </g>
    </g>
    <g id="ytick_51">
     <g id="line2d_107">
      <path clip-path="url(#paa1c36416f)" d="M 70.4325 61.060568 
L 790.4325 61.060568 
" style="fill:none;stroke:#b0b0b0;stroke-linecap:square;stroke-opacity:0.3;"/>
     </g>
     <g id="line2d_108">
      <g>
       <use style="stroke:#000000;stroke-width:0.6;" x="70.4325" xlink:href="#m59a1909073" y="61.060568"/>
      </g>
     </g>
    </g>
    <g id="ytick_52">
     <g id="line2d_109">
      <path clip-path="url(#paa1c36416f)" d="M 70.4325 53.206023 
L 790.4325 53.206023 
" style="fill:none;stroke:#b0b0b0;stroke-linecap:square;stroke-opacity:0.3;"/>
     </g>
     <g id="line2d_110">
      <g>
       <use style="stroke:#000000;stroke-width:0.6;" x="70.4325" xlink:href="#m59a1909073" y="53.206023"/>
      </g>
     </g>
    </g>
    <g id="ytick_53">
     <g id="line2d_111">
      <path clip-path="url(#paa1c36416f)" d="M 70.4325 37.496932 
L 790.4325 37.496932 
" style="fill:none;stroke:#b0b0b0;stroke-linecap:square;stroke-opacity:0.3;"/>
     </g>
     <g id="line2d_112">
      <g>
       <use style="stroke:#000000;stroke-width:0.6;" x="70.4325" xlink:href="#m59a1909073" y="37.496932"/>
      </g>
     </g>
    </g>
    <g id="ytick_54">
     <g id="line2d_113">
      <path clip-path="url(#paa1c36416f)" d="M 70.4325 29.642386 
L 790.4325 29.642386 
" style="fill:none;stroke:#b0b0b0;stroke-linecap:square;stroke-opacity:0.3;"/>
     </g>
     <g id="line2d_114">
      <g>
       <use style="stroke:#000000;stroke-width:0.6;" x="70.4325" xlink:href="#m59a1909073" y="29.642386"/>
      </g>
     </g>
    </g>
    <g id="ytick_55">
     <g id="line2d_115">
      <path clip-path="url(#paa1c36416f)" d="M 70.4325 21.787841 
L 790.4325 21.787841 
" style="fill:none;stroke:#b0b0b0;stroke-linecap:square;stroke-opacity:0.3;"/>
     </g>
     <g id="line2d_116">
      <g>
       <use style="stroke:#000000;stroke-width:0.6;" x="70.4325" xlink:href="#m59a1909073" y="21.787841"/>
      </g>
     </g>
    </g>
    <g id="ytick_56">
     <g id="line2d_117">
      <path clip-path="url(#paa1c36416f)" d="M 70.4325 13.933295 
L 790.4325 13.933295 
" style="fill:none;stroke:#b0b0b0;stroke-linecap:square;stroke-opacity:0.3;"/>
     </g>
     <g id="line2d_118">
      <g>
       <use style="stroke:#000000;stroke-width:0.6;" x="70.4325" xlink:href="#m59a1909073" y="13.933295"/>
      </g>
     </g>
    </g>
    <g id="text_20">
     <!-- Noise removed (%) -->
     <g transform="translate(12.1575 298.655)rotate(-90)scale(0.16 -0.16)">
      <defs>
       <path d="M 9.8125 72.90625 
L 23.09375 72.90625 
L 55.421875 11.921875 
L 55.421875 72.90625 
L 64.984375 72.90625 
L 64.984375 0 
L 51.703125 0 
L 19.390625 60.984375 
L 19.390625 0 
L 9.8125 0 
z
" id="DejaVuSans-78"/>
      </defs>
      <use xlink:href="#DejaVuSans-78"/>
      <use x="74.804688" xlink:href="#DejaVuSans-111"/>
      <use x="135.986328" xlink:href="#DejaVuSans-105"/>
      <use x="163.769531" xlink:href="#DejaVuSans-115"/>
      <use x="215.869141" xlink:href="#DejaVuSans-101"/>
      <use x="277.392578" xlink:href="#DejaVuSans-32"/>
      <use x="309.179688" xlink:href="#DejaVuSans-114"/>
      <use x="348.042969" xlink:href="#DejaVuSans-101"/>
      <use x="409.566406" xlink:href="#DejaVuSans-109"/>
      <use x="506.978516" xlink:href="#DejaVuSans-111"/>
      <use x="568.160156" xlink:href="#DejaVuSans-118"/>
      <use x="627.339844" xlink:href="#DejaVuSans-101"/>
      <use x="688.863281" xlink:href="#DejaVuSans-100"/>
      <use x="752.339844" xlink:href="#DejaVuSans-32"/>
      <use x="784.126953" xlink:href="#DejaVuSans-40"/>
      <use x="823.140625" xlink:href="#DejaVuSans-37"/>
      <use x="918.160156" xlink:href="#DejaVuSans-41"/>
     </g>
    </g>
   </g>
   <g id="LineCollection_1">
    <path clip-path="url(#paa1c36416f)" d="M 77.099167 120.848289 
L 77.099167 118.982468 
" style="fill:none;stroke:#000000;stroke-width:1.5;"/>
    <path clip-path="url(#paa1c36416f)" d="M 210.4325 149.380819 
L 210.4325 141.110404 
" style="fill:none;stroke:#000000;stroke-width:1.5;"/>
    <path clip-path="url(#paa1c36416f)" d="M 343.765833 129.292574 
L 343.765833 122.892131 
" style="fill:none;stroke:#000000;stroke-width:1.5;"/>
    <path clip-path="url(#paa1c36416f)" d="M 477.099167 174.955897 
L 477.099167 171.969733 
" style="fill:none;stroke:#000000;stroke-width:1.5;"/>
    <path clip-path="url(#paa1c36416f)" d="M 610.4325 169.803799 
L 610.4325 167.887891 
" style="fill:none;stroke:#000000;stroke-width:1.5;"/>
    <path clip-path="url(#paa1c36416f)" d="M 743.765833 174.506557 
L 743.765833 172.348555 
" style="fill:none;stroke:#000000;stroke-width:1.5;"/>
   </g>
   <g id="LineCollection_2">
    <path clip-path="url(#paa1c36416f)" d="M 90.4325 92.255903 
L 90.4325 90.287998 
" style="fill:none;stroke:#000000;stroke-width:1.5;"/>
    <path clip-path="url(#paa1c36416f)" d="M 223.765833 137.135829 
L 223.765833 123.808955 
" style="fill:none;stroke:#000000;stroke-width:1.5;"/>
    <path clip-path="url(#paa1c36416f)" d="M 357.099167 104.286538 
L 357.099167 98.117702 
" style="fill:none;stroke:#000000;stroke-width:1.5;"/>
    <path clip-path="url(#paa1c36416f)" d="M 490.4325 152.371012 
L 490.4325 150.004593 
" style="fill:none;stroke:#000000;stroke-width:1.5;"/>
    <path clip-path="url(#paa1c36416f)" d="M 623.765833 146.99343 
L 623.765833 145.038743 
" style="fill:none;stroke:#000000;stroke-width:1.5;"/>
    <path clip-path="url(#paa1c36416f)" d="M 757.099167 151.41014 
L 757.099167 149.422652 
" style="fill:none;stroke:#000000;stroke-width:1.5;"/>
   </g>
   <g id="LineCollection_3">
    <path clip-path="url(#paa1c36416f)" d="M 103.765833 6.101975 
L 103.765833 6.09495 
" style="fill:none;stroke:#000000;stroke-width:1.5;"/>
    <path clip-path="url(#paa1c36416f)" d="M 237.099167 312.195869 
L 237.099167 288.679134 
" style="fill:none;stroke:#000000;stroke-width:1.5;"/>
    <path clip-path="url(#paa1c36416f)" d="M 370.4325 42.299316 
L 370.4325 35.502072 
" style="fill:none;stroke:#000000;stroke-width:1.5;"/>
    <path clip-path="url(#paa1c36416f)" d="M 503.765833 157.137155 
L 503.765833 155.838518 
" style="fill:none;stroke:#000000;stroke-width:1.5;"/>
    <path clip-path="url(#paa1c36416f)" d="M 637.099167 132.959507 
L 637.099167 128.589624 
" style="fill:none;stroke:#000000;stroke-width:1.5;"/>
    <path clip-path="url(#paa1c36416f)" d="M 770.4325 156.439701 
L 770.4325 155.58255 
" style="fill:none;stroke:#000000;stroke-width:1.5;"/>
   </g>
   <g id="LineCollection_4">
    <path clip-path="url(#paa1c36416f)" d="M 117.099167 6.331165 
L 117.099167 6.04319 
" style="fill:none;stroke:#000000;stroke-width:1.5;"/>
    <path clip-path="url(#paa1c36416f)" d="M 250.4325 313.883784 
L 250.4325 292.922711 
" style="fill:none;stroke:#000000;stroke-width:1.5;"/>
    <path clip-path="url(#paa1c36416f)" d="M 383.765833 26.56768 
L 383.765833 22.783432 
" style="fill:none;stroke:#000000;stroke-width:1.5;"/>
    <path clip-path="url(#paa1c36416f)" d="M 517.099167 102.027028 
L 517.099167 100.317869 
" style="fill:none;stroke:#000000;stroke-width:1.5;"/>
    <path clip-path="url(#paa1c36416f)" d="M 650.4325 80.736925 
L 650.4325 79.560401 
" style="fill:none;stroke:#000000;stroke-width:1.5;"/>
    <path clip-path="url(#paa1c36416f)" d="M 783.765833 101.537476 
L 783.765833 100.135776 
" style="fill:none;stroke:#000000;stroke-width:1.5;"/>
   </g>
   <g id="line2d_119">
    <path clip-path="url(#paa1c36416f)" d="M 70.4325 163.169659 
L 790.4325 163.169659 
" style="fill:none;stroke:#000000;stroke-linecap:square;stroke-width:1.5;"/>
   </g>
   <g id="patch_27">
    <path d="M 70.4325 438.07875 
L 70.4325 6.07875 
" style="fill:none;stroke:#000000;stroke-linecap:square;stroke-linejoin:miter;stroke-width:0.8;"/>
   </g>
   <g id="patch_28">
    <path d="M 790.4325 438.07875 
L 790.4325 6.07875 
" style="fill:none;stroke:#000000;stroke-linecap:square;stroke-linejoin:miter;stroke-width:0.8;"/>
   </g>
   <g id="patch_29">
    <path d="M 70.4325 438.07875 
L 790.4325 438.07875 
" style="fill:none;stroke:#000000;stroke-linecap:square;stroke-linejoin:miter;stroke-width:0.8;"/>
   </g>
   <g id="patch_30">
    <path d="M 70.4325 6.07875 
L 790.4325 6.07875 
" style="fill:none;stroke:#000000;stroke-linecap:square;stroke-linejoin:miter;stroke-width:0.8;"/>
   </g>
   <g id="legend_1">
    <g id="patch_31">
     <path d="M 81.6325 430.07875 
L 296.3125 430.07875 
Q 299.5125 430.07875 299.5125 426.87875 
L 299.5125 334.53875 
Q 299.5125 331.33875 296.3125 331.33875 
L 81.6325 331.33875 
Q 78.4325 331.33875 78.4325 334.53875 
L 78.4325 426.87875 
Q 78.4325 430.07875 81.6325 430.07875 
z
" style="fill:#ffffff;opacity:0.8;stroke:#cccccc;stroke-linejoin:miter;"/>
    </g>
    <g id="patch_32">
     <path d="M 84.8325 349.89625 
L 116.8325 349.89625 
L 116.8325 338.69625 
L 84.8325 338.69625 
z
" style="fill:#46bdc6;"/>
    </g>
    <g id="text_21">
     <!-- Log loss, categorical -->
     <g transform="translate(129.6325 349.89625)scale(0.16 -0.16)">
      <defs>
       <path d="M 9.8125 72.90625 
L 19.671875 72.90625 
L 19.671875 8.296875 
L 55.171875 8.296875 
L 55.171875 0 
L 9.8125 0 
z
" id="DejaVuSans-76"/>
       <path d="M 11.71875 12.40625 
L 22.015625 12.40625 
L 22.015625 4 
L 14.015625 -11.625 
L 7.71875 -11.625 
L 11.71875 4 
z
" id="DejaVuSans-44"/>
       <path d="M 48.78125 52.59375 
L 48.78125 44.1875 
Q 44.96875 46.296875 41.140625 47.34375 
Q 37.3125 48.390625 33.40625 48.390625 
Q 24.65625 48.390625 19.8125 42.84375 
Q 14.984375 37.3125 14.984375 27.296875 
Q 14.984375 17.28125 19.8125 11.734375 
Q 24.65625 6.203125 33.40625 6.203125 
Q 37.3125 6.203125 41.140625 7.25 
Q 44.96875 8.296875 48.78125 10.40625 
L 48.78125 2.09375 
Q 45.015625 0.34375 40.984375 -0.53125 
Q 36.96875 -1.421875 32.421875 -1.421875 
Q 20.0625 -1.421875 12.78125 6.34375 
Q 5.515625 14.109375 5.515625 27.296875 
Q 5.515625 40.671875 12.859375 48.328125 
Q 20.21875 56 33.015625 56 
Q 37.15625 56 41.109375 55.140625 
Q 45.0625 54.296875 48.78125 52.59375 
z
" id="DejaVuSans-99"/>
      </defs>
      <use xlink:href="#DejaVuSans-76"/>
      <use x="53.962891" xlink:href="#DejaVuSans-111"/>
      <use x="115.144531" xlink:href="#DejaVuSans-103"/>
      <use x="178.621094" xlink:href="#DejaVuSans-32"/>
      <use x="210.408203" xlink:href="#DejaVuSans-108"/>
      <use x="238.191406" xlink:href="#DejaVuSans-111"/>
      <use x="299.373047" xlink:href="#DejaVuSans-115"/>
      <use x="351.472656" xlink:href="#DejaVuSans-115"/>
      <use x="403.572266" xlink:href="#DejaVuSans-44"/>
      <use x="435.359375" xlink:href="#DejaVuSans-32"/>
      <use x="467.146484" xlink:href="#DejaVuSans-99"/>
      <use x="522.126953" xlink:href="#DejaVuSans-97"/>
      <use x="583.40625" xlink:href="#DejaVuSans-116"/>
      <use x="622.615234" xlink:href="#DejaVuSans-101"/>
      <use x="684.138672" xlink:href="#DejaVuSans-103"/>
      <use x="747.615234" xlink:href="#DejaVuSans-111"/>
      <use x="808.796875" xlink:href="#DejaVuSans-114"/>
      <use x="849.910156" xlink:href="#DejaVuSans-105"/>
      <use x="877.693359" xlink:href="#DejaVuSans-99"/>
      <use x="932.673828" xlink:href="#DejaVuSans-97"/>
      <use x="993.953125" xlink:href="#DejaVuSans-108"/>
     </g>
    </g>
    <g id="patch_33">
     <path d="M 84.8325 373.38125 
L 116.8325 373.38125 
L 116.8325 362.18125 
L 84.8325 362.18125 
z
" style="fill:#ea4335;"/>
    </g>
    <g id="text_22">
     <!-- JSD loss, categorical -->
     <g transform="translate(129.6325 373.38125)scale(0.16 -0.16)">
      <defs>
       <path d="M 9.8125 72.90625 
L 19.671875 72.90625 
L 19.671875 5.078125 
Q 19.671875 -8.109375 14.671875 -14.0625 
Q 9.671875 -20.015625 -1.421875 -20.015625 
L -5.171875 -20.015625 
L -5.171875 -11.71875 
L -2.09375 -11.71875 
Q 4.4375 -11.71875 7.125 -8.046875 
Q 9.8125 -4.390625 9.8125 5.078125 
z
" id="DejaVuSans-74"/>
       <path d="M 19.671875 64.796875 
L 19.671875 8.109375 
L 31.59375 8.109375 
Q 46.6875 8.109375 53.6875 14.9375 
Q 60.6875 21.78125 60.6875 36.53125 
Q 60.6875 51.171875 53.6875 57.984375 
Q 46.6875 64.796875 31.59375 64.796875 
z
M 9.8125 72.90625 
L 30.078125 72.90625 
Q 51.265625 72.90625 61.171875 64.09375 
Q 71.09375 55.28125 71.09375 36.53125 
Q 71.09375 17.671875 61.125 8.828125 
Q 51.171875 0 30.078125 0 
L 9.8125 0 
z
" id="DejaVuSans-68"/>
      </defs>
      <use xlink:href="#DejaVuSans-74"/>
      <use x="29.492188" xlink:href="#DejaVuSans-83"/>
      <use x="92.96875" xlink:href="#DejaVuSans-68"/>
      <use x="169.970703" xlink:href="#DejaVuSans-32"/>
      <use x="201.757812" xlink:href="#DejaVuSans-108"/>
      <use x="229.541016" xlink:href="#DejaVuSans-111"/>
      <use x="290.722656" xlink:href="#DejaVuSans-115"/>
      <use x="342.822266" xlink:href="#DejaVuSans-115"/>
      <use x="394.921875" xlink:href="#DejaVuSans-44"/>
      <use x="426.708984" xlink:href="#DejaVuSans-32"/>
      <use x="458.496094" xlink:href="#DejaVuSans-99"/>
      <use x="513.476562" xlink:href="#DejaVuSans-97"/>
      <use x="574.755859" xlink:href="#DejaVuSans-116"/>
      <use x="613.964844" xlink:href="#DejaVuSans-101"/>
      <use x="675.488281" xlink:href="#DejaVuSans-103"/>
      <use x="738.964844" xlink:href="#DejaVuSans-111"/>
      <use x="800.146484" xlink:href="#DejaVuSans-114"/>
      <use x="841.259766" xlink:href="#DejaVuSans-105"/>
      <use x="869.042969" xlink:href="#DejaVuSans-99"/>
      <use x="924.023438" xlink:href="#DejaVuSans-97"/>
      <use x="985.302734" xlink:href="#DejaVuSans-108"/>
     </g>
    </g>
    <g id="patch_34">
     <path d="M 84.8325 396.86625 
L 116.8325 396.86625 
L 116.8325 385.66625 
L 84.8325 385.66625 
z
" style="fill:#800080;"/>
    </g>
    <g id="text_23">
     <!-- Log loss, continuous -->
     <g transform="translate(129.6325 396.86625)scale(0.16 -0.16)">
      <use xlink:href="#DejaVuSans-76"/>
      <use x="53.962891" xlink:href="#DejaVuSans-111"/>
      <use x="115.144531" xlink:href="#DejaVuSans-103"/>
      <use x="178.621094" xlink:href="#DejaVuSans-32"/>
      <use x="210.408203" xlink:href="#DejaVuSans-108"/>
      <use x="238.191406" xlink:href="#DejaVuSans-111"/>
      <use x="299.373047" xlink:href="#DejaVuSans-115"/>
      <use x="351.472656" xlink:href="#DejaVuSans-115"/>
      <use x="403.572266" xlink:href="#DejaVuSans-44"/>
      <use x="435.359375" xlink:href="#DejaVuSans-32"/>
      <use x="467.146484" xlink:href="#DejaVuSans-99"/>
      <use x="522.126953" xlink:href="#DejaVuSans-111"/>
      <use x="583.308594" xlink:href="#DejaVuSans-110"/>
      <use x="646.6875" xlink:href="#DejaVuSans-116"/>
      <use x="685.896484" xlink:href="#DejaVuSans-105"/>
      <use x="713.679688" xlink:href="#DejaVuSans-110"/>
      <use x="777.058594" xlink:href="#DejaVuSans-117"/>
      <use x="840.4375" xlink:href="#DejaVuSans-111"/>
      <use x="901.619141" xlink:href="#DejaVuSans-117"/>
      <use x="964.998047" xlink:href="#DejaVuSans-115"/>
     </g>
    </g>
    <g id="patch_35">
     <path d="M 84.8325 420.35125 
L 116.8325 420.35125 
L 116.8325 409.15125 
L 84.8325 409.15125 
z
" style="fill:#34a853;"/>
    </g>
    <g id="text_24">
     <!-- JSD loss, continuous -->
     <g transform="translate(129.6325 420.35125)scale(0.16 -0.16)">
      <use xlink:href="#DejaVuSans-74"/>
      <use x="29.492188" xlink:href="#DejaVuSans-83"/>
      <use x="92.96875" xlink:href="#DejaVuSans-68"/>
      <use x="169.970703" xlink:href="#DejaVuSans-32"/>
      <use x="201.757812" xlink:href="#DejaVuSans-108"/>
      <use x="229.541016" xlink:href="#DejaVuSans-111"/>
      <use x="290.722656" xlink:href="#DejaVuSans-115"/>
      <use x="342.822266" xlink:href="#DejaVuSans-115"/>
      <use x="394.921875" xlink:href="#DejaVuSans-44"/>
      <use x="426.708984" xlink:href="#DejaVuSans-32"/>
      <use x="458.496094" xlink:href="#DejaVuSans-99"/>
      <use x="513.476562" xlink:href="#DejaVuSans-111"/>
      <use x="574.658203" xlink:href="#DejaVuSans-110"/>
      <use x="638.037109" xlink:href="#DejaVuSans-116"/>
      <use x="677.246094" xlink:href="#DejaVuSans-105"/>
      <use x="705.029297" xlink:href="#DejaVuSans-110"/>
      <use x="768.408203" xlink:href="#DejaVuSans-117"/>
      <use x="831.787109" xlink:href="#DejaVuSans-111"/>
      <use x="892.96875" xlink:href="#DejaVuSans-117"/>
      <use x="956.347656" xlink:href="#DejaVuSans-115"/>
     </g>
    </g>
   </g>
  </g>
 </g>
 <defs>
  <clipPath id="paa1c36416f">
   <rect height="432" width="720" x="70.4325" y="6.07875"/>
  </clipPath>
 </defs>
</svg>
