<?xml version="1.0" encoding="utf-8" standalone="no"?>
<!DOCTYPE svg PUBLIC "-//W3C//DTD SVG 1.1//EN"
  "http://www.w3.org/Graphics/SVG/1.1/DTD/svg11.dtd">
<!-- Created with matplotlib (https://matplotlib.org/) -->
<svg height="488.551094pt" version="1.1" viewBox="0 0 788.923698 488.551094" width="788.923698pt" xmlns="http://www.w3.org/2000/svg" xmlns:xlink="http://www.w3.org/1999/xlink">
 <metadata>
  <rdf:RDF xmlns:cc="http://creativecommons.org/ns#" xmlns:dc="http://purl.org/dc/elements/1.1/" xmlns:rdf="http://www.w3.org/1999/02/22-rdf-syntax-ns#">
   <cc:Work>
    <dc:type rdf:resource="http://purl.org/dc/dcmitype/StillImage"/>
    <dc:date>2021-03-10T20:45:58.407004</dc:date>
    <dc:format>image/svg+xml</dc:format>
    <dc:creator>
     <cc:Agent>
      <dc:title>Matplotlib v3.3.2, https://matplotlib.org/</dc:title>
     </cc:Agent>
    </dc:creator>
   </cc:Work>
  </rdf:RDF>
 </metadata>
 <defs>
  <style type="text/css">*{stroke-linecap:butt;stroke-linejoin:round;}</style>
 </defs>
 <g id="figure_1">
  <g id="patch_1">
   <path d="M -0 488.551094 
L 788.923698 488.551094 
L 788.923698 0 
L -0 0 
z
" style="fill:none;"/>
  </g>
  <g id="axes_1">
   <g id="patch_2">
    <path d="M 48.145313 435.799219 
L 768.145313 435.799219 
L 768.145313 3.799219 
L 48.145313 3.799219 
z
" style="fill:#ffffff;"/>
   </g>
   <g id="patch_3">
    <path clip-path="url(#p6af68bb031)" d="M 48.145313 160.890128 
L 61.478646 160.890128 
L 61.478646 117.635848 
L 48.145313 117.635848 
z
" style="fill:#46bdc6;"/>
   </g>
   <g id="patch_4">
    <path clip-path="url(#p6af68bb031)" d="M 181.478646 160.890128 
L 194.811979 160.890128 
L 194.811979 142.966081 
L 181.478646 142.966081 
z
" style="fill:#46bdc6;"/>
   </g>
   <g id="patch_5">
    <path clip-path="url(#p6af68bb031)" d="M 314.811979 160.890128 
L 328.145313 160.890128 
L 328.145313 123.812821 
L 314.811979 123.812821 
z
" style="fill:#46bdc6;"/>
   </g>
   <g id="patch_6">
    <path clip-path="url(#p6af68bb031)" d="M 448.145313 160.890128 
L 461.478646 160.890128 
L 461.478646 171.183284 
L 448.145313 171.183284 
z
" style="fill:#46bdc6;"/>
   </g>
   <g id="patch_7">
    <path clip-path="url(#p6af68bb031)" d="M 581.478646 160.890128 
L 594.811979 160.890128 
L 594.811979 166.566314 
L 581.478646 166.566314 
z
" style="fill:#46bdc6;"/>
   </g>
   <g id="patch_8">
    <path clip-path="url(#p6af68bb031)" d="M 714.811979 160.890128 
L 728.145313 160.890128 
L 728.145313 171.148025 
L 714.811979 171.148025 
z
" style="fill:#46bdc6;"/>
   </g>
   <g id="patch_9">
    <path clip-path="url(#p6af68bb031)" d="M 61.478646 160.890128 
L 74.811979 160.890128 
L 74.811979 88.992419 
L 61.478646 88.992419 
z
" style="fill:#ea4335;"/>
   </g>
   <g id="patch_10">
    <path clip-path="url(#p6af68bb031)" d="M 194.811979 160.890128 
L 208.145313 160.890128 
L 208.145313 128.192861 
L 194.811979 128.192861 
z
" style="fill:#ea4335;"/>
   </g>
   <g id="patch_11">
    <path clip-path="url(#p6af68bb031)" d="M 328.145313 160.890128 
L 341.478646 160.890128 
L 341.478646 98.922589 
L 328.145313 98.922589 
z
" style="fill:#ea4335;"/>
   </g>
   <g id="patch_12">
    <path clip-path="url(#p6af68bb031)" d="M 461.478646 160.890128 
L 474.811979 160.890128 
L 474.811979 148.908271 
L 461.478646 148.908271 
z
" style="fill:#ea4335;"/>
   </g>
   <g id="patch_13">
    <path clip-path="url(#p6af68bb031)" d="M 594.811979 160.890128 
L 608.145313 160.890128 
L 608.145313 143.736555 
L 594.811979 143.736555 
z
" style="fill:#ea4335;"/>
   </g>
   <g id="patch_14">
    <path clip-path="url(#p6af68bb031)" d="M 728.145313 160.890128 
L 741.478646 160.890128 
L 741.478646 148.136865 
L 728.145313 148.136865 
z
" style="fill:#ea4335;"/>
   </g>
   <g id="patch_15">
    <path clip-path="url(#p6af68bb031)" d="M 74.811979 160.890128 
L 88.145313 160.890128 
L 88.145313 3.818931 
L 74.811979 3.818931 
z
" style="fill:#800080;"/>
   </g>
   <g id="patch_16">
    <path clip-path="url(#p6af68bb031)" d="M 208.145312 160.890128 
L 221.478646 160.890128 
L 221.478646 298.15797 
L 208.145312 298.15797 
z
" style="fill:#800080;"/>
   </g>
   <g id="patch_17">
    <path clip-path="url(#p6af68bb031)" d="M 341.478646 160.890128 
L 354.811979 160.890128 
L 354.811979 36.621163 
L 341.478646 36.621163 
z
" style="fill:#800080;"/>
   </g>
   <g id="patch_18">
    <path clip-path="url(#p6af68bb031)" d="M 474.811979 160.890128 
L 488.145313 160.890128 
L 488.145313 154.208305 
L 474.811979 154.208305 
z
" style="fill:#800080;"/>
   </g>
   <g id="patch_19">
    <path clip-path="url(#p6af68bb031)" d="M 608.145313 160.890128 
L 621.478646 160.890128 
L 621.478646 128.495034 
L 608.145313 128.495034 
z
" style="fill:#800080;"/>
   </g>
   <g id="patch_20">
    <path clip-path="url(#p6af68bb031)" d="M 741.478646 160.890128 
L 754.811979 160.890128 
L 754.811979 153.731594 
L 741.478646 153.731594 
z
" style="fill:#800080;"/>
   </g>
   <g id="patch_21">
    <path clip-path="url(#p6af68bb031)" d="M 88.145313 160.890128 
L 101.478646 160.890128 
L 101.478646 3.907646 
L 88.145313 3.907646 
z
" style="fill:#34a853;"/>
   </g>
   <g id="patch_22">
    <path clip-path="url(#p6af68bb031)" d="M 221.478646 160.890128 
L 234.811979 160.890128 
L 234.811979 301.123717 
L 221.478646 301.123717 
z
" style="fill:#34a853;"/>
   </g>
   <g id="patch_23">
    <path clip-path="url(#p6af68bb031)" d="M 354.811979 160.890128 
L 368.145312 160.890128 
L 368.145312 22.396024 
L 354.811979 22.396024 
z
" style="fill:#34a853;"/>
   </g>
   <g id="patch_24">
    <path clip-path="url(#p6af68bb031)" d="M 488.145312 160.890128 
L 501.478646 160.890128 
L 501.478646 98.892917 
L 488.145312 98.892917 
z
" style="fill:#34a853;"/>
   </g>
   <g id="patch_25">
    <path clip-path="url(#p6af68bb031)" d="M 621.478646 160.890128 
L 634.811979 160.890128 
L 634.811979 77.869132 
L 621.478646 77.869132 
z
" style="fill:#34a853;"/>
   </g>
   <g id="patch_26">
    <path clip-path="url(#p6af68bb031)" d="M 754.811979 160.890128 
L 768.145313 160.890128 
L 768.145313 98.557095 
L 754.811979 98.557095 
z
" style="fill:#34a853;"/>
   </g>
   <g id="matplotlib.axis_1">
    <g id="xtick_1">
     <g id="line2d_1">
      <defs>
       <path d="M 0 0 
L 0 3.5 
" id="m04266982c3" style="stroke:#000000;stroke-width:0.8;"/>
      </defs>
      <g>
       <use style="stroke:#000000;stroke-width:0.8;" x="88.145313" xlink:href="#m04266982c3" y="435.799219"/>
      </g>
     </g>
     <g id="text_1">
      <!-- Supervised -->
      <g transform="translate(60.292187 450.397656)scale(0.1 -0.1)">
       <defs>
        <path d="M 53.515625 70.515625 
L 53.515625 60.890625 
Q 47.90625 63.578125 42.921875 64.890625 
Q 37.9375 66.21875 33.296875 66.21875 
Q 25.25 66.21875 20.875 63.09375 
Q 16.5 59.96875 16.5 54.203125 
Q 16.5 49.359375 19.40625 46.890625 
Q 22.3125 44.4375 30.421875 42.921875 
L 36.375 41.703125 
Q 47.40625 39.59375 52.65625 34.296875 
Q 57.90625 29 57.90625 20.125 
Q 57.90625 9.515625 50.796875 4.046875 
Q 43.703125 -1.421875 29.984375 -1.421875 
Q 24.8125 -1.421875 18.96875 -0.25 
Q 13.140625 0.921875 6.890625 3.21875 
L 6.890625 13.375 
Q 12.890625 10.015625 18.65625 8.296875 
Q 24.421875 6.59375 29.984375 6.59375 
Q 38.421875 6.59375 43.015625 9.90625 
Q 47.609375 13.234375 47.609375 19.390625 
Q 47.609375 24.75 44.3125 27.78125 
Q 41.015625 30.8125 33.5 32.328125 
L 27.484375 33.5 
Q 16.453125 35.6875 11.515625 40.375 
Q 6.59375 45.0625 6.59375 53.421875 
Q 6.59375 63.09375 13.40625 68.65625 
Q 20.21875 74.21875 32.171875 74.21875 
Q 37.3125 74.21875 42.625 73.28125 
Q 47.953125 72.359375 53.515625 70.515625 
z
" id="DejaVuSans-83"/>
        <path d="M 8.5 21.578125 
L 8.5 54.6875 
L 17.484375 54.6875 
L 17.484375 21.921875 
Q 17.484375 14.15625 20.5 10.265625 
Q 23.53125 6.390625 29.59375 6.390625 
Q 36.859375 6.390625 41.078125 11.03125 
Q 45.3125 15.671875 45.3125 23.6875 
L 45.3125 54.6875 
L 54.296875 54.6875 
L 54.296875 0 
L 45.3125 0 
L 45.3125 8.40625 
Q 42.046875 3.421875 37.71875 1 
Q 33.40625 -1.421875 27.6875 -1.421875 
Q 18.265625 -1.421875 13.375 4.4375 
Q 8.5 10.296875 8.5 21.578125 
z
M 31.109375 56 
z
" id="DejaVuSans-117"/>
        <path d="M 18.109375 8.203125 
L 18.109375 -20.796875 
L 9.078125 -20.796875 
L 9.078125 54.6875 
L 18.109375 54.6875 
L 18.109375 46.390625 
Q 20.953125 51.265625 25.265625 53.625 
Q 29.59375 56 35.59375 56 
Q 45.5625 56 51.78125 48.09375 
Q 58.015625 40.1875 58.015625 27.296875 
Q 58.015625 14.40625 51.78125 6.484375 
Q 45.5625 -1.421875 35.59375 -1.421875 
Q 29.59375 -1.421875 25.265625 0.953125 
Q 20.953125 3.328125 18.109375 8.203125 
z
M 48.6875 27.296875 
Q 48.6875 37.203125 44.609375 42.84375 
Q 40.53125 48.484375 33.40625 48.484375 
Q 26.265625 48.484375 22.1875 42.84375 
Q 18.109375 37.203125 18.109375 27.296875 
Q 18.109375 17.390625 22.1875 11.75 
Q 26.265625 6.109375 33.40625 6.109375 
Q 40.53125 6.109375 44.609375 11.75 
Q 48.6875 17.390625 48.6875 27.296875 
z
" id="DejaVuSans-112"/>
        <path d="M 56.203125 29.59375 
L 56.203125 25.203125 
L 14.890625 25.203125 
Q 15.484375 15.921875 20.484375 11.0625 
Q 25.484375 6.203125 34.421875 6.203125 
Q 39.59375 6.203125 44.453125 7.46875 
Q 49.3125 8.734375 54.109375 11.28125 
L 54.109375 2.78125 
Q 49.265625 0.734375 44.1875 -0.34375 
Q 39.109375 -1.421875 33.890625 -1.421875 
Q 20.796875 -1.421875 13.15625 6.1875 
Q 5.515625 13.8125 5.515625 26.8125 
Q 5.515625 40.234375 12.765625 48.109375 
Q 20.015625 56 32.328125 56 
Q 43.359375 56 49.78125 48.890625 
Q 56.203125 41.796875 56.203125 29.59375 
z
M 47.21875 32.234375 
Q 47.125 39.59375 43.09375 43.984375 
Q 39.0625 48.390625 32.421875 48.390625 
Q 24.90625 48.390625 20.390625 44.140625 
Q 15.875 39.890625 15.1875 32.171875 
z
" id="DejaVuSans-101"/>
        <path d="M 41.109375 46.296875 
Q 39.59375 47.171875 37.8125 47.578125 
Q 36.03125 48 33.890625 48 
Q 26.265625 48 22.1875 43.046875 
Q 18.109375 38.09375 18.109375 28.8125 
L 18.109375 0 
L 9.078125 0 
L 9.078125 54.6875 
L 18.109375 54.6875 
L 18.109375 46.1875 
Q 20.953125 51.171875 25.484375 53.578125 
Q 30.03125 56 36.53125 56 
Q 37.453125 56 38.578125 55.875 
Q 39.703125 55.765625 41.0625 55.515625 
z
" id="DejaVuSans-114"/>
        <path d="M 2.984375 54.6875 
L 12.5 54.6875 
L 29.59375 8.796875 
L 46.6875 54.6875 
L 56.203125 54.6875 
L 35.6875 0 
L 23.484375 0 
z
" id="DejaVuSans-118"/>
        <path d="M 9.421875 54.6875 
L 18.40625 54.6875 
L 18.40625 0 
L 9.421875 0 
z
M 9.421875 75.984375 
L 18.40625 75.984375 
L 18.40625 64.59375 
L 9.421875 64.59375 
z
" id="DejaVuSans-105"/>
        <path d="M 44.28125 53.078125 
L 44.28125 44.578125 
Q 40.484375 46.53125 36.375 47.5 
Q 32.28125 48.484375 27.875 48.484375 
Q 21.1875 48.484375 17.84375 46.4375 
Q 14.5 44.390625 14.5 40.28125 
Q 14.5 37.15625 16.890625 35.375 
Q 19.28125 33.59375 26.515625 31.984375 
L 29.59375 31.296875 
Q 39.15625 29.25 43.1875 25.515625 
Q 47.21875 21.78125 47.21875 15.09375 
Q 47.21875 7.46875 41.1875 3.015625 
Q 35.15625 -1.421875 24.609375 -1.421875 
Q 20.21875 -1.421875 15.453125 -0.5625 
Q 10.6875 0.296875 5.421875 2 
L 5.421875 11.28125 
Q 10.40625 8.6875 15.234375 7.390625 
Q 20.0625 6.109375 24.8125 6.109375 
Q 31.15625 6.109375 34.5625 8.28125 
Q 37.984375 10.453125 37.984375 14.40625 
Q 37.984375 18.0625 35.515625 20.015625 
Q 33.0625 21.96875 24.703125 23.78125 
L 21.578125 24.515625 
Q 13.234375 26.265625 9.515625 29.90625 
Q 5.8125 33.546875 5.8125 39.890625 
Q 5.8125 47.609375 11.28125 51.796875 
Q 16.75 56 26.8125 56 
Q 31.78125 56 36.171875 55.265625 
Q 40.578125 54.546875 44.28125 53.078125 
z
" id="DejaVuSans-115"/>
        <path d="M 45.40625 46.390625 
L 45.40625 75.984375 
L 54.390625 75.984375 
L 54.390625 0 
L 45.40625 0 
L 45.40625 8.203125 
Q 42.578125 3.328125 38.25 0.953125 
Q 33.9375 -1.421875 27.875 -1.421875 
Q 17.96875 -1.421875 11.734375 6.484375 
Q 5.515625 14.40625 5.515625 27.296875 
Q 5.515625 40.1875 11.734375 48.09375 
Q 17.96875 56 27.875 56 
Q 33.9375 56 38.25 53.625 
Q 42.578125 51.265625 45.40625 46.390625 
z
M 14.796875 27.296875 
Q 14.796875 17.390625 18.875 11.75 
Q 22.953125 6.109375 30.078125 6.109375 
Q 37.203125 6.109375 41.296875 11.75 
Q 45.40625 17.390625 45.40625 27.296875 
Q 45.40625 37.203125 41.296875 42.84375 
Q 37.203125 48.484375 30.078125 48.484375 
Q 22.953125 48.484375 18.875 42.84375 
Q 14.796875 37.203125 14.796875 27.296875 
z
" id="DejaVuSans-100"/>
       </defs>
       <use xlink:href="#DejaVuSans-83"/>
       <use x="63.476562" xlink:href="#DejaVuSans-117"/>
       <use x="126.855469" xlink:href="#DejaVuSans-112"/>
       <use x="190.332031" xlink:href="#DejaVuSans-101"/>
       <use x="251.855469" xlink:href="#DejaVuSans-114"/>
       <use x="292.96875" xlink:href="#DejaVuSans-118"/>
       <use x="352.148438" xlink:href="#DejaVuSans-105"/>
       <use x="379.931641" xlink:href="#DejaVuSans-115"/>
       <use x="432.03125" xlink:href="#DejaVuSans-101"/>
       <use x="493.554688" xlink:href="#DejaVuSans-100"/>
      </g>
     </g>
    </g>
    <g id="xtick_2">
     <g id="line2d_2">
      <g>
       <use style="stroke:#000000;stroke-width:0.8;" x="221.478646" xlink:href="#m04266982c3" y="435.799219"/>
      </g>
     </g>
     <g id="text_2">
      <!-- Supervised (2% -->
      <g transform="translate(182.153646 450.397656)scale(0.1 -0.1)">
       <defs>
        <path id="DejaVuSans-32"/>
        <path d="M 31 75.875 
Q 24.46875 64.65625 21.28125 53.65625 
Q 18.109375 42.671875 18.109375 31.390625 
Q 18.109375 20.125 21.3125 9.0625 
Q 24.515625 -2 31 -13.1875 
L 23.1875 -13.1875 
Q 15.875 -1.703125 12.234375 9.375 
Q 8.59375 20.453125 8.59375 31.390625 
Q 8.59375 42.28125 12.203125 53.3125 
Q 15.828125 64.359375 23.1875 75.875 
z
" id="DejaVuSans-40"/>
        <path d="M 19.1875 8.296875 
L 53.609375 8.296875 
L 53.609375 0 
L 7.328125 0 
L 7.328125 8.296875 
Q 12.9375 14.109375 22.625 23.890625 
Q 32.328125 33.6875 34.8125 36.53125 
Q 39.546875 41.84375 41.421875 45.53125 
Q 43.3125 49.21875 43.3125 52.78125 
Q 43.3125 58.59375 39.234375 62.25 
Q 35.15625 65.921875 28.609375 65.921875 
Q 23.96875 65.921875 18.8125 64.3125 
Q 13.671875 62.703125 7.8125 59.421875 
L 7.8125 69.390625 
Q 13.765625 71.78125 18.9375 73 
Q 24.125 74.21875 28.421875 74.21875 
Q 39.75 74.21875 46.484375 68.546875 
Q 53.21875 62.890625 53.21875 53.421875 
Q 53.21875 48.921875 51.53125 44.890625 
Q 49.859375 40.875 45.40625 35.40625 
Q 44.1875 33.984375 37.640625 27.21875 
Q 31.109375 20.453125 19.1875 8.296875 
z
" id="DejaVuSans-50"/>
        <path d="M 72.703125 32.078125 
Q 68.453125 32.078125 66.03125 28.46875 
Q 63.625 24.859375 63.625 18.40625 
Q 63.625 12.0625 66.03125 8.421875 
Q 68.453125 4.78125 72.703125 4.78125 
Q 76.859375 4.78125 79.265625 8.421875 
Q 81.6875 12.0625 81.6875 18.40625 
Q 81.6875 24.8125 79.265625 28.4375 
Q 76.859375 32.078125 72.703125 32.078125 
z
M 72.703125 38.28125 
Q 80.421875 38.28125 84.953125 32.90625 
Q 89.5 27.546875 89.5 18.40625 
Q 89.5 9.28125 84.9375 3.921875 
Q 80.375 -1.421875 72.703125 -1.421875 
Q 64.890625 -1.421875 60.34375 3.921875 
Q 55.8125 9.28125 55.8125 18.40625 
Q 55.8125 27.59375 60.375 32.9375 
Q 64.9375 38.28125 72.703125 38.28125 
z
M 22.3125 68.015625 
Q 18.109375 68.015625 15.6875 64.375 
Q 13.28125 60.75 13.28125 54.390625 
Q 13.28125 47.953125 15.671875 44.328125 
Q 18.0625 40.71875 22.3125 40.71875 
Q 26.5625 40.71875 28.96875 44.328125 
Q 31.390625 47.953125 31.390625 54.390625 
Q 31.390625 60.6875 28.953125 64.34375 
Q 26.515625 68.015625 22.3125 68.015625 
z
M 66.40625 74.21875 
L 74.21875 74.21875 
L 28.609375 -1.421875 
L 20.796875 -1.421875 
z
M 22.3125 74.21875 
Q 30.03125 74.21875 34.609375 68.875 
Q 39.203125 63.53125 39.203125 54.390625 
Q 39.203125 45.171875 34.640625 39.84375 
Q 30.078125 34.515625 22.3125 34.515625 
Q 14.546875 34.515625 10.03125 39.859375 
Q 5.515625 45.21875 5.515625 54.390625 
Q 5.515625 63.484375 10.046875 68.84375 
Q 14.59375 74.21875 22.3125 74.21875 
z
" id="DejaVuSans-37"/>
       </defs>
       <use xlink:href="#DejaVuSans-83"/>
       <use x="63.476562" xlink:href="#DejaVuSans-117"/>
       <use x="126.855469" xlink:href="#DejaVuSans-112"/>
       <use x="190.332031" xlink:href="#DejaVuSans-101"/>
       <use x="251.855469" xlink:href="#DejaVuSans-114"/>
       <use x="292.96875" xlink:href="#DejaVuSans-118"/>
       <use x="352.148438" xlink:href="#DejaVuSans-105"/>
       <use x="379.931641" xlink:href="#DejaVuSans-115"/>
       <use x="432.03125" xlink:href="#DejaVuSans-101"/>
       <use x="493.554688" xlink:href="#DejaVuSans-100"/>
       <use x="557.03125" xlink:href="#DejaVuSans-32"/>
       <use x="588.818359" xlink:href="#DejaVuSans-40"/>
       <use x="627.832031" xlink:href="#DejaVuSans-50"/>
       <use x="691.455078" xlink:href="#DejaVuSans-37"/>
      </g>
      <!-- labeled) -->
      <g transform="translate(201.184115 461.595469)scale(0.1 -0.1)">
       <defs>
        <path d="M 9.421875 75.984375 
L 18.40625 75.984375 
L 18.40625 0 
L 9.421875 0 
z
" id="DejaVuSans-108"/>
        <path d="M 34.28125 27.484375 
Q 23.390625 27.484375 19.1875 25 
Q 14.984375 22.515625 14.984375 16.5 
Q 14.984375 11.71875 18.140625 8.90625 
Q 21.296875 6.109375 26.703125 6.109375 
Q 34.1875 6.109375 38.703125 11.40625 
Q 43.21875 16.703125 43.21875 25.484375 
L 43.21875 27.484375 
z
M 52.203125 31.203125 
L 52.203125 0 
L 43.21875 0 
L 43.21875 8.296875 
Q 40.140625 3.328125 35.546875 0.953125 
Q 30.953125 -1.421875 24.3125 -1.421875 
Q 15.921875 -1.421875 10.953125 3.296875 
Q 6 8.015625 6 15.921875 
Q 6 25.140625 12.171875 29.828125 
Q 18.359375 34.515625 30.609375 34.515625 
L 43.21875 34.515625 
L 43.21875 35.40625 
Q 43.21875 41.609375 39.140625 45 
Q 35.0625 48.390625 27.6875 48.390625 
Q 23 48.390625 18.546875 47.265625 
Q 14.109375 46.140625 10.015625 43.890625 
L 10.015625 52.203125 
Q 14.9375 54.109375 19.578125 55.046875 
Q 24.21875 56 28.609375 56 
Q 40.484375 56 46.34375 49.84375 
Q 52.203125 43.703125 52.203125 31.203125 
z
" id="DejaVuSans-97"/>
        <path d="M 48.6875 27.296875 
Q 48.6875 37.203125 44.609375 42.84375 
Q 40.53125 48.484375 33.40625 48.484375 
Q 26.265625 48.484375 22.1875 42.84375 
Q 18.109375 37.203125 18.109375 27.296875 
Q 18.109375 17.390625 22.1875 11.75 
Q 26.265625 6.109375 33.40625 6.109375 
Q 40.53125 6.109375 44.609375 11.75 
Q 48.6875 17.390625 48.6875 27.296875 
z
M 18.109375 46.390625 
Q 20.953125 51.265625 25.265625 53.625 
Q 29.59375 56 35.59375 56 
Q 45.5625 56 51.78125 48.09375 
Q 58.015625 40.1875 58.015625 27.296875 
Q 58.015625 14.40625 51.78125 6.484375 
Q 45.5625 -1.421875 35.59375 -1.421875 
Q 29.59375 -1.421875 25.265625 0.953125 
Q 20.953125 3.328125 18.109375 8.203125 
L 18.109375 0 
L 9.078125 0 
L 9.078125 75.984375 
L 18.109375 75.984375 
z
" id="DejaVuSans-98"/>
        <path d="M 8.015625 75.875 
L 15.828125 75.875 
Q 23.140625 64.359375 26.78125 53.3125 
Q 30.421875 42.28125 30.421875 31.390625 
Q 30.421875 20.453125 26.78125 9.375 
Q 23.140625 -1.703125 15.828125 -13.1875 
L 8.015625 -13.1875 
Q 14.5 -2 17.703125 9.0625 
Q 20.90625 20.125 20.90625 31.390625 
Q 20.90625 42.671875 17.703125 53.65625 
Q 14.5 64.65625 8.015625 75.875 
z
" id="DejaVuSans-41"/>
       </defs>
       <use xlink:href="#DejaVuSans-108"/>
       <use x="27.783203" xlink:href="#DejaVuSans-97"/>
       <use x="89.0625" xlink:href="#DejaVuSans-98"/>
       <use x="152.539062" xlink:href="#DejaVuSans-101"/>
       <use x="214.0625" xlink:href="#DejaVuSans-108"/>
       <use x="241.845703" xlink:href="#DejaVuSans-101"/>
       <use x="303.369141" xlink:href="#DejaVuSans-100"/>
       <use x="366.845703" xlink:href="#DejaVuSans-41"/>
      </g>
     </g>
    </g>
    <g id="xtick_3">
     <g id="line2d_3">
      <g>
       <use style="stroke:#000000;stroke-width:0.8;" x="354.811979" xlink:href="#m04266982c3" y="435.799219"/>
      </g>
     </g>
     <g id="text_3">
      <!-- Semi-supervised -->
      <g transform="translate(313.214323 450.397656)scale(0.1 -0.1)">
       <defs>
        <path d="M 52 44.1875 
Q 55.375 50.25 60.0625 53.125 
Q 64.75 56 71.09375 56 
Q 79.640625 56 84.28125 50.015625 
Q 88.921875 44.046875 88.921875 33.015625 
L 88.921875 0 
L 79.890625 0 
L 79.890625 32.71875 
Q 79.890625 40.578125 77.09375 44.375 
Q 74.3125 48.1875 68.609375 48.1875 
Q 61.625 48.1875 57.5625 43.546875 
Q 53.515625 38.921875 53.515625 30.90625 
L 53.515625 0 
L 44.484375 0 
L 44.484375 32.71875 
Q 44.484375 40.625 41.703125 44.40625 
Q 38.921875 48.1875 33.109375 48.1875 
Q 26.21875 48.1875 22.15625 43.53125 
Q 18.109375 38.875 18.109375 30.90625 
L 18.109375 0 
L 9.078125 0 
L 9.078125 54.6875 
L 18.109375 54.6875 
L 18.109375 46.1875 
Q 21.1875 51.21875 25.484375 53.609375 
Q 29.78125 56 35.6875 56 
Q 41.65625 56 45.828125 52.96875 
Q 50 49.953125 52 44.1875 
z
" id="DejaVuSans-109"/>
        <path d="M 4.890625 31.390625 
L 31.203125 31.390625 
L 31.203125 23.390625 
L 4.890625 23.390625 
z
" id="DejaVuSans-45"/>
       </defs>
       <use xlink:href="#DejaVuSans-83"/>
       <use x="63.476562" xlink:href="#DejaVuSans-101"/>
       <use x="125" xlink:href="#DejaVuSans-109"/>
       <use x="222.412109" xlink:href="#DejaVuSans-105"/>
       <use x="250.195312" xlink:href="#DejaVuSans-45"/>
       <use x="286.279297" xlink:href="#DejaVuSans-115"/>
       <use x="338.378906" xlink:href="#DejaVuSans-117"/>
       <use x="401.757812" xlink:href="#DejaVuSans-112"/>
       <use x="465.234375" xlink:href="#DejaVuSans-101"/>
       <use x="526.757812" xlink:href="#DejaVuSans-114"/>
       <use x="567.871094" xlink:href="#DejaVuSans-118"/>
       <use x="627.050781" xlink:href="#DejaVuSans-105"/>
       <use x="654.833984" xlink:href="#DejaVuSans-115"/>
       <use x="706.933594" xlink:href="#DejaVuSans-101"/>
       <use x="768.457031" xlink:href="#DejaVuSans-100"/>
      </g>
      <!-- (unlabeled data -->
      <g transform="translate(315.328385 461.595469)scale(0.1 -0.1)">
       <defs>
        <path d="M 54.890625 33.015625 
L 54.890625 0 
L 45.90625 0 
L 45.90625 32.71875 
Q 45.90625 40.484375 42.875 44.328125 
Q 39.84375 48.1875 33.796875 48.1875 
Q 26.515625 48.1875 22.3125 43.546875 
Q 18.109375 38.921875 18.109375 30.90625 
L 18.109375 0 
L 9.078125 0 
L 9.078125 54.6875 
L 18.109375 54.6875 
L 18.109375 46.1875 
Q 21.34375 51.125 25.703125 53.5625 
Q 30.078125 56 35.796875 56 
Q 45.21875 56 50.046875 50.171875 
Q 54.890625 44.34375 54.890625 33.015625 
z
" id="DejaVuSans-110"/>
        <path d="M 18.3125 70.21875 
L 18.3125 54.6875 
L 36.8125 54.6875 
L 36.8125 47.703125 
L 18.3125 47.703125 
L 18.3125 18.015625 
Q 18.3125 11.328125 20.140625 9.421875 
Q 21.96875 7.515625 27.59375 7.515625 
L 36.8125 7.515625 
L 36.8125 0 
L 27.59375 0 
Q 17.1875 0 13.234375 3.875 
Q 9.28125 7.765625 9.28125 18.015625 
L 9.28125 47.703125 
L 2.6875 47.703125 
L 2.6875 54.6875 
L 9.28125 54.6875 
L 9.28125 70.21875 
z
" id="DejaVuSans-116"/>
       </defs>
       <use xlink:href="#DejaVuSans-40"/>
       <use x="39.013672" xlink:href="#DejaVuSans-117"/>
       <use x="102.392578" xlink:href="#DejaVuSans-110"/>
       <use x="165.771484" xlink:href="#DejaVuSans-108"/>
       <use x="193.554688" xlink:href="#DejaVuSans-97"/>
       <use x="254.833984" xlink:href="#DejaVuSans-98"/>
       <use x="318.310547" xlink:href="#DejaVuSans-101"/>
       <use x="379.833984" xlink:href="#DejaVuSans-108"/>
       <use x="407.617188" xlink:href="#DejaVuSans-101"/>
       <use x="469.140625" xlink:href="#DejaVuSans-100"/>
       <use x="532.617188" xlink:href="#DejaVuSans-32"/>
       <use x="564.404297" xlink:href="#DejaVuSans-100"/>
       <use x="627.880859" xlink:href="#DejaVuSans-97"/>
       <use x="689.160156" xlink:href="#DejaVuSans-116"/>
       <use x="728.369141" xlink:href="#DejaVuSans-97"/>
      </g>
      <!-- first) -->
      <g transform="translate(343.091667 472.793281)scale(0.1 -0.1)">
       <defs>
        <path d="M 37.109375 75.984375 
L 37.109375 68.5 
L 28.515625 68.5 
Q 23.6875 68.5 21.796875 66.546875 
Q 19.921875 64.59375 19.921875 59.515625 
L 19.921875 54.6875 
L 34.71875 54.6875 
L 34.71875 47.703125 
L 19.921875 47.703125 
L 19.921875 0 
L 10.890625 0 
L 10.890625 47.703125 
L 2.296875 47.703125 
L 2.296875 54.6875 
L 10.890625 54.6875 
L 10.890625 58.5 
Q 10.890625 67.625 15.140625 71.796875 
Q 19.390625 75.984375 28.609375 75.984375 
z
" id="DejaVuSans-102"/>
       </defs>
       <use xlink:href="#DejaVuSans-102"/>
       <use x="35.205078" xlink:href="#DejaVuSans-105"/>
       <use x="62.988281" xlink:href="#DejaVuSans-114"/>
       <use x="104.101562" xlink:href="#DejaVuSans-115"/>
       <use x="156.201172" xlink:href="#DejaVuSans-116"/>
       <use x="195.410156" xlink:href="#DejaVuSans-41"/>
      </g>
     </g>
    </g>
    <g id="xtick_4">
     <g id="line2d_4">
      <g>
       <use style="stroke:#000000;stroke-width:0.8;" x="488.145312" xlink:href="#m04266982c3" y="435.799219"/>
      </g>
     </g>
     <g id="text_4">
      <!-- Semi-supervised -->
      <g transform="translate(446.547656 450.397656)scale(0.1 -0.1)">
       <use xlink:href="#DejaVuSans-83"/>
       <use x="63.476562" xlink:href="#DejaVuSans-101"/>
       <use x="125" xlink:href="#DejaVuSans-109"/>
       <use x="222.412109" xlink:href="#DejaVuSans-105"/>
       <use x="250.195312" xlink:href="#DejaVuSans-45"/>
       <use x="286.279297" xlink:href="#DejaVuSans-115"/>
       <use x="338.378906" xlink:href="#DejaVuSans-117"/>
       <use x="401.757812" xlink:href="#DejaVuSans-112"/>
       <use x="465.234375" xlink:href="#DejaVuSans-101"/>
       <use x="526.757812" xlink:href="#DejaVuSans-114"/>
       <use x="567.871094" xlink:href="#DejaVuSans-118"/>
       <use x="627.050781" xlink:href="#DejaVuSans-105"/>
       <use x="654.833984" xlink:href="#DejaVuSans-115"/>
       <use x="706.933594" xlink:href="#DejaVuSans-101"/>
       <use x="768.457031" xlink:href="#DejaVuSans-100"/>
      </g>
      <!-- (labeled data first) -->
      <g transform="translate(441.689844 461.595469)scale(0.1 -0.1)">
       <use xlink:href="#DejaVuSans-40"/>
       <use x="39.013672" xlink:href="#DejaVuSans-108"/>
       <use x="66.796875" xlink:href="#DejaVuSans-97"/>
       <use x="128.076172" xlink:href="#DejaVuSans-98"/>
       <use x="191.552734" xlink:href="#DejaVuSans-101"/>
       <use x="253.076172" xlink:href="#DejaVuSans-108"/>
       <use x="280.859375" xlink:href="#DejaVuSans-101"/>
       <use x="342.382812" xlink:href="#DejaVuSans-100"/>
       <use x="405.859375" xlink:href="#DejaVuSans-32"/>
       <use x="437.646484" xlink:href="#DejaVuSans-100"/>
       <use x="501.123047" xlink:href="#DejaVuSans-97"/>
       <use x="562.402344" xlink:href="#DejaVuSans-116"/>
       <use x="601.611328" xlink:href="#DejaVuSans-97"/>
       <use x="662.890625" xlink:href="#DejaVuSans-32"/>
       <use x="694.677734" xlink:href="#DejaVuSans-102"/>
       <use x="729.882812" xlink:href="#DejaVuSans-105"/>
       <use x="757.666016" xlink:href="#DejaVuSans-114"/>
       <use x="798.779297" xlink:href="#DejaVuSans-115"/>
       <use x="850.878906" xlink:href="#DejaVuSans-116"/>
       <use x="890.087891" xlink:href="#DejaVuSans-41"/>
      </g>
     </g>
    </g>
    <g id="xtick_5">
     <g id="line2d_5">
      <g>
       <use style="stroke:#000000;stroke-width:0.8;" x="621.478646" xlink:href="#m04266982c3" y="435.799219"/>
      </g>
     </g>
     <g id="text_5">
      <!-- Semi-supervised (mix -->
      <g transform="translate(567.122396 450.397656)scale(0.1 -0.1)">
       <defs>
        <path d="M 54.890625 54.6875 
L 35.109375 28.078125 
L 55.90625 0 
L 45.3125 0 
L 29.390625 21.484375 
L 13.484375 0 
L 2.875 0 
L 24.125 28.609375 
L 4.6875 54.6875 
L 15.28125 54.6875 
L 29.78125 35.203125 
L 44.28125 54.6875 
z
" id="DejaVuSans-120"/>
       </defs>
       <use xlink:href="#DejaVuSans-83"/>
       <use x="63.476562" xlink:href="#DejaVuSans-101"/>
       <use x="125" xlink:href="#DejaVuSans-109"/>
       <use x="222.412109" xlink:href="#DejaVuSans-105"/>
       <use x="250.195312" xlink:href="#DejaVuSans-45"/>
       <use x="286.279297" xlink:href="#DejaVuSans-115"/>
       <use x="338.378906" xlink:href="#DejaVuSans-117"/>
       <use x="401.757812" xlink:href="#DejaVuSans-112"/>
       <use x="465.234375" xlink:href="#DejaVuSans-101"/>
       <use x="526.757812" xlink:href="#DejaVuSans-114"/>
       <use x="567.871094" xlink:href="#DejaVuSans-118"/>
       <use x="627.050781" xlink:href="#DejaVuSans-105"/>
       <use x="654.833984" xlink:href="#DejaVuSans-115"/>
       <use x="706.933594" xlink:href="#DejaVuSans-101"/>
       <use x="768.457031" xlink:href="#DejaVuSans-100"/>
       <use x="831.933594" xlink:href="#DejaVuSans-32"/>
       <use x="863.720703" xlink:href="#DejaVuSans-40"/>
       <use x="902.734375" xlink:href="#DejaVuSans-109"/>
       <use x="1000.146484" xlink:href="#DejaVuSans-105"/>
       <use x="1027.929688" xlink:href="#DejaVuSans-120"/>
      </g>
      <!-- of labeled and -->
      <g transform="translate(585.730208 461.595469)scale(0.1 -0.1)">
       <defs>
        <path d="M 30.609375 48.390625 
Q 23.390625 48.390625 19.1875 42.75 
Q 14.984375 37.109375 14.984375 27.296875 
Q 14.984375 17.484375 19.15625 11.84375 
Q 23.34375 6.203125 30.609375 6.203125 
Q 37.796875 6.203125 41.984375 11.859375 
Q 46.1875 17.53125 46.1875 27.296875 
Q 46.1875 37.015625 41.984375 42.703125 
Q 37.796875 48.390625 30.609375 48.390625 
z
M 30.609375 56 
Q 42.328125 56 49.015625 48.375 
Q 55.71875 40.765625 55.71875 27.296875 
Q 55.71875 13.875 49.015625 6.21875 
Q 42.328125 -1.421875 30.609375 -1.421875 
Q 18.84375 -1.421875 12.171875 6.21875 
Q 5.515625 13.875 5.515625 27.296875 
Q 5.515625 40.765625 12.171875 48.375 
Q 18.84375 56 30.609375 56 
z
" id="DejaVuSans-111"/>
       </defs>
       <use xlink:href="#DejaVuSans-111"/>
       <use x="61.181641" xlink:href="#DejaVuSans-102"/>
       <use x="96.386719" xlink:href="#DejaVuSans-32"/>
       <use x="128.173828" xlink:href="#DejaVuSans-108"/>
       <use x="155.957031" xlink:href="#DejaVuSans-97"/>
       <use x="217.236328" xlink:href="#DejaVuSans-98"/>
       <use x="280.712891" xlink:href="#DejaVuSans-101"/>
       <use x="342.236328" xlink:href="#DejaVuSans-108"/>
       <use x="370.019531" xlink:href="#DejaVuSans-101"/>
       <use x="431.542969" xlink:href="#DejaVuSans-100"/>
       <use x="495.019531" xlink:href="#DejaVuSans-32"/>
       <use x="526.806641" xlink:href="#DejaVuSans-97"/>
       <use x="588.085938" xlink:href="#DejaVuSans-110"/>
       <use x="651.464844" xlink:href="#DejaVuSans-100"/>
      </g>
      <!-- unlabeled) -->
      <g transform="translate(594.846615 472.793281)scale(0.1 -0.1)">
       <use xlink:href="#DejaVuSans-117"/>
       <use x="63.378906" xlink:href="#DejaVuSans-110"/>
       <use x="126.757812" xlink:href="#DejaVuSans-108"/>
       <use x="154.541016" xlink:href="#DejaVuSans-97"/>
       <use x="215.820312" xlink:href="#DejaVuSans-98"/>
       <use x="279.296875" xlink:href="#DejaVuSans-101"/>
       <use x="340.820312" xlink:href="#DejaVuSans-108"/>
       <use x="368.603516" xlink:href="#DejaVuSans-101"/>
       <use x="430.126953" xlink:href="#DejaVuSans-100"/>
       <use x="493.603516" xlink:href="#DejaVuSans-41"/>
      </g>
     </g>
    </g>
    <g id="xtick_6">
     <g id="line2d_6">
      <g>
       <use style="stroke:#000000;stroke-width:0.8;" x="754.811979" xlink:href="#m04266982c3" y="435.799219"/>
      </g>
     </g>
     <g id="text_6">
      <!-- Unsupervised -->
      <g transform="translate(720.70026 450.397656)scale(0.1 -0.1)">
       <defs>
        <path d="M 8.6875 72.90625 
L 18.609375 72.90625 
L 18.609375 28.609375 
Q 18.609375 16.890625 22.84375 11.734375 
Q 27.09375 6.59375 36.625 6.59375 
Q 46.09375 6.59375 50.34375 11.734375 
Q 54.59375 16.890625 54.59375 28.609375 
L 54.59375 72.90625 
L 64.5 72.90625 
L 64.5 27.390625 
Q 64.5 13.140625 57.4375 5.859375 
Q 50.390625 -1.421875 36.625 -1.421875 
Q 22.796875 -1.421875 15.734375 5.859375 
Q 8.6875 13.140625 8.6875 27.390625 
z
" id="DejaVuSans-85"/>
       </defs>
       <use xlink:href="#DejaVuSans-85"/>
       <use x="73.193359" xlink:href="#DejaVuSans-110"/>
       <use x="136.572266" xlink:href="#DejaVuSans-115"/>
       <use x="188.671875" xlink:href="#DejaVuSans-117"/>
       <use x="252.050781" xlink:href="#DejaVuSans-112"/>
       <use x="315.527344" xlink:href="#DejaVuSans-101"/>
       <use x="377.050781" xlink:href="#DejaVuSans-114"/>
       <use x="418.164062" xlink:href="#DejaVuSans-118"/>
       <use x="477.34375" xlink:href="#DejaVuSans-105"/>
       <use x="505.126953" xlink:href="#DejaVuSans-115"/>
       <use x="557.226562" xlink:href="#DejaVuSans-101"/>
       <use x="618.75" xlink:href="#DejaVuSans-100"/>
      </g>
     </g>
    </g>
    <g id="text_7">
     <!-- Training method -->
     <g transform="translate(367.521094 486.471406)scale(0.1 -0.1)">
      <defs>
       <path d="M -0.296875 72.90625 
L 61.375 72.90625 
L 61.375 64.59375 
L 35.5 64.59375 
L 35.5 0 
L 25.59375 0 
L 25.59375 64.59375 
L -0.296875 64.59375 
z
" id="DejaVuSans-84"/>
       <path d="M 45.40625 27.984375 
Q 45.40625 37.75 41.375 43.109375 
Q 37.359375 48.484375 30.078125 48.484375 
Q 22.859375 48.484375 18.828125 43.109375 
Q 14.796875 37.75 14.796875 27.984375 
Q 14.796875 18.265625 18.828125 12.890625 
Q 22.859375 7.515625 30.078125 7.515625 
Q 37.359375 7.515625 41.375 12.890625 
Q 45.40625 18.265625 45.40625 27.984375 
z
M 54.390625 6.78125 
Q 54.390625 -7.171875 48.1875 -13.984375 
Q 42 -20.796875 29.203125 -20.796875 
Q 24.46875 -20.796875 20.265625 -20.09375 
Q 16.0625 -19.390625 12.109375 -17.921875 
L 12.109375 -9.1875 
Q 16.0625 -11.328125 19.921875 -12.34375 
Q 23.78125 -13.375 27.78125 -13.375 
Q 36.625 -13.375 41.015625 -8.765625 
Q 45.40625 -4.15625 45.40625 5.171875 
L 45.40625 9.625 
Q 42.625 4.78125 38.28125 2.390625 
Q 33.9375 0 27.875 0 
Q 17.828125 0 11.671875 7.65625 
Q 5.515625 15.328125 5.515625 27.984375 
Q 5.515625 40.671875 11.671875 48.328125 
Q 17.828125 56 27.875 56 
Q 33.9375 56 38.28125 53.609375 
Q 42.625 51.21875 45.40625 46.390625 
L 45.40625 54.6875 
L 54.390625 54.6875 
z
" id="DejaVuSans-103"/>
       <path d="M 54.890625 33.015625 
L 54.890625 0 
L 45.90625 0 
L 45.90625 32.71875 
Q 45.90625 40.484375 42.875 44.328125 
Q 39.84375 48.1875 33.796875 48.1875 
Q 26.515625 48.1875 22.3125 43.546875 
Q 18.109375 38.921875 18.109375 30.90625 
L 18.109375 0 
L 9.078125 0 
L 9.078125 75.984375 
L 18.109375 75.984375 
L 18.109375 46.1875 
Q 21.34375 51.125 25.703125 53.5625 
Q 30.078125 56 35.796875 56 
Q 45.21875 56 50.046875 50.171875 
Q 54.890625 44.34375 54.890625 33.015625 
z
" id="DejaVuSans-104"/>
      </defs>
      <use xlink:href="#DejaVuSans-84"/>
      <use x="46.333984" xlink:href="#DejaVuSans-114"/>
      <use x="87.447266" xlink:href="#DejaVuSans-97"/>
      <use x="148.726562" xlink:href="#DejaVuSans-105"/>
      <use x="176.509766" xlink:href="#DejaVuSans-110"/>
      <use x="239.888672" xlink:href="#DejaVuSans-105"/>
      <use x="267.671875" xlink:href="#DejaVuSans-110"/>
      <use x="331.050781" xlink:href="#DejaVuSans-103"/>
      <use x="394.527344" xlink:href="#DejaVuSans-32"/>
      <use x="426.314453" xlink:href="#DejaVuSans-109"/>
      <use x="523.726562" xlink:href="#DejaVuSans-101"/>
      <use x="585.25" xlink:href="#DejaVuSans-116"/>
      <use x="624.458984" xlink:href="#DejaVuSans-104"/>
      <use x="687.837891" xlink:href="#DejaVuSans-111"/>
      <use x="749.019531" xlink:href="#DejaVuSans-100"/>
     </g>
    </g>
   </g>
   <g id="matplotlib.axis_2">
    <g id="ytick_1">
     <g id="line2d_7">
      <path clip-path="url(#p6af68bb031)" d="M 48.145313 435.799219 
L 768.145313 435.799219 
" style="fill:none;stroke:#b0b0b0;stroke-linecap:square;stroke-width:0.8;"/>
     </g>
     <g id="line2d_8">
      <defs>
       <path d="M 0 0 
L -3.5 0 
" id="m4cf4bcce2e" style="stroke:#000000;stroke-width:0.8;"/>
      </defs>
      <g>
       <use style="stroke:#000000;stroke-width:0.8;" x="48.145313" xlink:href="#m4cf4bcce2e" y="435.799219"/>
      </g>
     </g>
     <g id="text_8">
      <!-- −175 -->
      <g transform="translate(13.678125 439.598438)scale(0.1 -0.1)">
       <defs>
        <path d="M 10.59375 35.5 
L 73.1875 35.5 
L 73.1875 27.203125 
L 10.59375 27.203125 
z
" id="DejaVuSans-8722"/>
        <path d="M 12.40625 8.296875 
L 28.515625 8.296875 
L 28.515625 63.921875 
L 10.984375 60.40625 
L 10.984375 69.390625 
L 28.421875 72.90625 
L 38.28125 72.90625 
L 38.28125 8.296875 
L 54.390625 8.296875 
L 54.390625 0 
L 12.40625 0 
z
" id="DejaVuSans-49"/>
        <path d="M 8.203125 72.90625 
L 55.078125 72.90625 
L 55.078125 68.703125 
L 28.609375 0 
L 18.3125 0 
L 43.21875 64.59375 
L 8.203125 64.59375 
z
" id="DejaVuSans-55"/>
        <path d="M 10.796875 72.90625 
L 49.515625 72.90625 
L 49.515625 64.59375 
L 19.828125 64.59375 
L 19.828125 46.734375 
Q 21.96875 47.46875 24.109375 47.828125 
Q 26.265625 48.1875 28.421875 48.1875 
Q 40.625 48.1875 47.75 41.5 
Q 54.890625 34.8125 54.890625 23.390625 
Q 54.890625 11.625 47.5625 5.09375 
Q 40.234375 -1.421875 26.90625 -1.421875 
Q 22.3125 -1.421875 17.546875 -0.640625 
Q 12.796875 0.140625 7.71875 1.703125 
L 7.71875 11.625 
Q 12.109375 9.234375 16.796875 8.0625 
Q 21.484375 6.890625 26.703125 6.890625 
Q 35.15625 6.890625 40.078125 11.328125 
Q 45.015625 15.765625 45.015625 23.390625 
Q 45.015625 31 40.078125 35.4375 
Q 35.15625 39.890625 26.703125 39.890625 
Q 22.75 39.890625 18.8125 39.015625 
Q 14.890625 38.140625 10.796875 36.28125 
z
" id="DejaVuSans-53"/>
       </defs>
       <use xlink:href="#DejaVuSans-8722"/>
       <use x="83.789062" xlink:href="#DejaVuSans-49"/>
       <use x="147.412109" xlink:href="#DejaVuSans-55"/>
       <use x="211.035156" xlink:href="#DejaVuSans-53"/>
      </g>
     </g>
    </g>
    <g id="ytick_2">
     <g id="line2d_9">
      <path clip-path="url(#p6af68bb031)" d="M 48.145313 396.526491 
L 768.145313 396.526491 
" style="fill:none;stroke:#b0b0b0;stroke-linecap:square;stroke-width:0.8;"/>
     </g>
     <g id="line2d_10">
      <g>
       <use style="stroke:#000000;stroke-width:0.8;" x="48.145313" xlink:href="#m4cf4bcce2e" y="396.526491"/>
      </g>
     </g>
     <g id="text_9">
      <!-- −150 -->
      <g transform="translate(13.678125 400.32571)scale(0.1 -0.1)">
       <defs>
        <path d="M 31.78125 66.40625 
Q 24.171875 66.40625 20.328125 58.90625 
Q 16.5 51.421875 16.5 36.375 
Q 16.5 21.390625 20.328125 13.890625 
Q 24.171875 6.390625 31.78125 6.390625 
Q 39.453125 6.390625 43.28125 13.890625 
Q 47.125 21.390625 47.125 36.375 
Q 47.125 51.421875 43.28125 58.90625 
Q 39.453125 66.40625 31.78125 66.40625 
z
M 31.78125 74.21875 
Q 44.046875 74.21875 50.515625 64.515625 
Q 56.984375 54.828125 56.984375 36.375 
Q 56.984375 17.96875 50.515625 8.265625 
Q 44.046875 -1.421875 31.78125 -1.421875 
Q 19.53125 -1.421875 13.0625 8.265625 
Q 6.59375 17.96875 6.59375 36.375 
Q 6.59375 54.828125 13.0625 64.515625 
Q 19.53125 74.21875 31.78125 74.21875 
z
" id="DejaVuSans-48"/>
       </defs>
       <use xlink:href="#DejaVuSans-8722"/>
       <use x="83.789062" xlink:href="#DejaVuSans-49"/>
       <use x="147.412109" xlink:href="#DejaVuSans-53"/>
       <use x="211.035156" xlink:href="#DejaVuSans-48"/>
      </g>
     </g>
    </g>
    <g id="ytick_3">
     <g id="line2d_11">
      <path clip-path="url(#p6af68bb031)" d="M 48.145313 357.253764 
L 768.145313 357.253764 
" style="fill:none;stroke:#b0b0b0;stroke-linecap:square;stroke-width:0.8;"/>
     </g>
     <g id="line2d_12">
      <g>
       <use style="stroke:#000000;stroke-width:0.8;" x="48.145313" xlink:href="#m4cf4bcce2e" y="357.253764"/>
      </g>
     </g>
     <g id="text_10">
      <!-- −125 -->
      <g transform="translate(13.678125 361.052983)scale(0.1 -0.1)">
       <use xlink:href="#DejaVuSans-8722"/>
       <use x="83.789062" xlink:href="#DejaVuSans-49"/>
       <use x="147.412109" xlink:href="#DejaVuSans-50"/>
       <use x="211.035156" xlink:href="#DejaVuSans-53"/>
      </g>
     </g>
    </g>
    <g id="ytick_4">
     <g id="line2d_13">
      <path clip-path="url(#p6af68bb031)" d="M 48.145313 317.981037 
L 768.145313 317.981037 
" style="fill:none;stroke:#b0b0b0;stroke-linecap:square;stroke-width:0.8;"/>
     </g>
     <g id="line2d_14">
      <g>
       <use style="stroke:#000000;stroke-width:0.8;" x="48.145313" xlink:href="#m4cf4bcce2e" y="317.981037"/>
      </g>
     </g>
     <g id="text_11">
      <!-- −100 -->
      <g transform="translate(13.678125 321.780256)scale(0.1 -0.1)">
       <use xlink:href="#DejaVuSans-8722"/>
       <use x="83.789062" xlink:href="#DejaVuSans-49"/>
       <use x="147.412109" xlink:href="#DejaVuSans-48"/>
       <use x="211.035156" xlink:href="#DejaVuSans-48"/>
      </g>
     </g>
    </g>
    <g id="ytick_5">
     <g id="line2d_15">
      <path clip-path="url(#p6af68bb031)" d="M 48.145313 278.70831 
L 768.145313 278.70831 
" style="fill:none;stroke:#b0b0b0;stroke-linecap:square;stroke-width:0.8;"/>
     </g>
     <g id="line2d_16">
      <g>
       <use style="stroke:#000000;stroke-width:0.8;" x="48.145313" xlink:href="#m4cf4bcce2e" y="278.70831"/>
      </g>
     </g>
     <g id="text_12">
      <!-- −75 -->
      <g transform="translate(20.040625 282.507528)scale(0.1 -0.1)">
       <use xlink:href="#DejaVuSans-8722"/>
       <use x="83.789062" xlink:href="#DejaVuSans-55"/>
       <use x="147.412109" xlink:href="#DejaVuSans-53"/>
      </g>
     </g>
    </g>
    <g id="ytick_6">
     <g id="line2d_17">
      <path clip-path="url(#p6af68bb031)" d="M 48.145313 239.435582 
L 768.145313 239.435582 
" style="fill:none;stroke:#b0b0b0;stroke-linecap:square;stroke-width:0.8;"/>
     </g>
     <g id="line2d_18">
      <g>
       <use style="stroke:#000000;stroke-width:0.8;" x="48.145313" xlink:href="#m4cf4bcce2e" y="239.435582"/>
      </g>
     </g>
     <g id="text_13">
      <!-- −50 -->
      <g transform="translate(20.040625 243.234801)scale(0.1 -0.1)">
       <use xlink:href="#DejaVuSans-8722"/>
       <use x="83.789062" xlink:href="#DejaVuSans-53"/>
       <use x="147.412109" xlink:href="#DejaVuSans-48"/>
      </g>
     </g>
    </g>
    <g id="ytick_7">
     <g id="line2d_19">
      <path clip-path="url(#p6af68bb031)" d="M 48.145313 200.162855 
L 768.145313 200.162855 
" style="fill:none;stroke:#b0b0b0;stroke-linecap:square;stroke-width:0.8;"/>
     </g>
     <g id="line2d_20">
      <g>
       <use style="stroke:#000000;stroke-width:0.8;" x="48.145313" xlink:href="#m4cf4bcce2e" y="200.162855"/>
      </g>
     </g>
     <g id="text_14">
      <!-- −25 -->
      <g transform="translate(20.040625 203.962074)scale(0.1 -0.1)">
       <use xlink:href="#DejaVuSans-8722"/>
       <use x="83.789062" xlink:href="#DejaVuSans-50"/>
       <use x="147.412109" xlink:href="#DejaVuSans-53"/>
      </g>
     </g>
    </g>
    <g id="ytick_8">
     <g id="line2d_21">
      <path clip-path="url(#p6af68bb031)" d="M 48.145313 160.890128 
L 768.145313 160.890128 
" style="fill:none;stroke:#b0b0b0;stroke-linecap:square;stroke-width:0.8;"/>
     </g>
     <g id="line2d_22">
      <g>
       <use style="stroke:#000000;stroke-width:0.8;" x="48.145313" xlink:href="#m4cf4bcce2e" y="160.890128"/>
      </g>
     </g>
     <g id="text_15">
      <!-- 0 -->
      <g transform="translate(34.782813 164.689347)scale(0.1 -0.1)">
       <use xlink:href="#DejaVuSans-48"/>
      </g>
     </g>
    </g>
    <g id="ytick_9">
     <g id="line2d_23">
      <path clip-path="url(#p6af68bb031)" d="M 48.145313 121.617401 
L 768.145313 121.617401 
" style="fill:none;stroke:#b0b0b0;stroke-linecap:square;stroke-width:0.8;"/>
     </g>
     <g id="line2d_24">
      <g>
       <use style="stroke:#000000;stroke-width:0.8;" x="48.145313" xlink:href="#m4cf4bcce2e" y="121.617401"/>
      </g>
     </g>
     <g id="text_16">
      <!-- 25 -->
      <g transform="translate(28.420313 125.416619)scale(0.1 -0.1)">
       <use xlink:href="#DejaVuSans-50"/>
       <use x="63.623047" xlink:href="#DejaVuSans-53"/>
      </g>
     </g>
    </g>
    <g id="ytick_10">
     <g id="line2d_25">
      <path clip-path="url(#p6af68bb031)" d="M 48.145313 82.344673 
L 768.145313 82.344673 
" style="fill:none;stroke:#b0b0b0;stroke-linecap:square;stroke-width:0.8;"/>
     </g>
     <g id="line2d_26">
      <g>
       <use style="stroke:#000000;stroke-width:0.8;" x="48.145313" xlink:href="#m4cf4bcce2e" y="82.344673"/>
      </g>
     </g>
     <g id="text_17">
      <!-- 50 -->
      <g transform="translate(28.420313 86.143892)scale(0.1 -0.1)">
       <use xlink:href="#DejaVuSans-53"/>
       <use x="63.623047" xlink:href="#DejaVuSans-48"/>
      </g>
     </g>
    </g>
    <g id="ytick_11">
     <g id="line2d_27">
      <path clip-path="url(#p6af68bb031)" d="M 48.145313 43.071946 
L 768.145313 43.071946 
" style="fill:none;stroke:#b0b0b0;stroke-linecap:square;stroke-width:0.8;"/>
     </g>
     <g id="line2d_28">
      <g>
       <use style="stroke:#000000;stroke-width:0.8;" x="48.145313" xlink:href="#m4cf4bcce2e" y="43.071946"/>
      </g>
     </g>
     <g id="text_18">
      <!-- 75 -->
      <g transform="translate(28.420313 46.871165)scale(0.1 -0.1)">
       <use xlink:href="#DejaVuSans-55"/>
       <use x="63.623047" xlink:href="#DejaVuSans-53"/>
      </g>
     </g>
    </g>
    <g id="ytick_12">
     <g id="line2d_29">
      <path clip-path="url(#p6af68bb031)" d="M 48.145313 3.799219 
L 768.145313 3.799219 
" style="fill:none;stroke:#b0b0b0;stroke-linecap:square;stroke-width:0.8;"/>
     </g>
     <g id="line2d_30">
      <g>
       <use style="stroke:#000000;stroke-width:0.8;" x="48.145313" xlink:href="#m4cf4bcce2e" y="3.799219"/>
      </g>
     </g>
     <g id="text_19">
      <!-- 100 -->
      <g transform="translate(22.057813 7.598438)scale(0.1 -0.1)">
       <use xlink:href="#DejaVuSans-49"/>
       <use x="63.623047" xlink:href="#DejaVuSans-48"/>
       <use x="127.246094" xlink:href="#DejaVuSans-48"/>
      </g>
     </g>
    </g>
    <g id="text_20">
     <!-- Noise removed (%) -->
     <g transform="translate(7.598437 267.659375)rotate(-90)scale(0.1 -0.1)">
      <defs>
       <path d="M 9.8125 72.90625 
L 23.09375 72.90625 
L 55.421875 11.921875 
L 55.421875 72.90625 
L 64.984375 72.90625 
L 64.984375 0 
L 51.703125 0 
L 19.390625 60.984375 
L 19.390625 0 
L 9.8125 0 
z
" id="DejaVuSans-78"/>
      </defs>
      <use xlink:href="#DejaVuSans-78"/>
      <use x="74.804688" xlink:href="#DejaVuSans-111"/>
      <use x="135.986328" xlink:href="#DejaVuSans-105"/>
      <use x="163.769531" xlink:href="#DejaVuSans-115"/>
      <use x="215.869141" xlink:href="#DejaVuSans-101"/>
      <use x="277.392578" xlink:href="#DejaVuSans-32"/>
      <use x="309.179688" xlink:href="#DejaVuSans-114"/>
      <use x="348.042969" xlink:href="#DejaVuSans-101"/>
      <use x="409.566406" xlink:href="#DejaVuSans-109"/>
      <use x="506.978516" xlink:href="#DejaVuSans-111"/>
      <use x="568.160156" xlink:href="#DejaVuSans-118"/>
      <use x="627.339844" xlink:href="#DejaVuSans-101"/>
      <use x="688.863281" xlink:href="#DejaVuSans-100"/>
      <use x="752.339844" xlink:href="#DejaVuSans-32"/>
      <use x="784.126953" xlink:href="#DejaVuSans-40"/>
      <use x="823.140625" xlink:href="#DejaVuSans-37"/>
      <use x="918.160156" xlink:href="#DejaVuSans-41"/>
     </g>
    </g>
   </g>
   <g id="LineCollection_1">
    <path clip-path="url(#p6af68bb031)" d="M 54.811979 118.568758 
L 54.811979 116.702937 
" style="fill:none;stroke:#000000;stroke-width:1.5;"/>
    <path clip-path="url(#p6af68bb031)" d="M 188.145312 147.101288 
L 188.145312 138.830873 
" style="fill:none;stroke:#000000;stroke-width:1.5;"/>
    <path clip-path="url(#p6af68bb031)" d="M 321.478646 127.013042 
L 321.478646 120.612599 
" style="fill:none;stroke:#000000;stroke-width:1.5;"/>
    <path clip-path="url(#p6af68bb031)" d="M 454.811979 172.676366 
L 454.811979 169.690201 
" style="fill:none;stroke:#000000;stroke-width:1.5;"/>
    <path clip-path="url(#p6af68bb031)" d="M 588.145313 167.524268 
L 588.145313 165.60836 
" style="fill:none;stroke:#000000;stroke-width:1.5;"/>
    <path clip-path="url(#p6af68bb031)" d="M 721.478646 172.227026 
L 721.478646 170.069024 
" style="fill:none;stroke:#000000;stroke-width:1.5;"/>
   </g>
   <g id="LineCollection_2">
    <path clip-path="url(#p6af68bb031)" d="M 68.145313 89.976372 
L 68.145313 88.008466 
" style="fill:none;stroke:#000000;stroke-width:1.5;"/>
    <path clip-path="url(#p6af68bb031)" d="M 201.478646 134.856298 
L 201.478646 121.529424 
" style="fill:none;stroke:#000000;stroke-width:1.5;"/>
    <path clip-path="url(#p6af68bb031)" d="M 334.811979 102.007007 
L 334.811979 95.83817 
" style="fill:none;stroke:#000000;stroke-width:1.5;"/>
    <path clip-path="url(#p6af68bb031)" d="M 468.145313 150.091481 
L 468.145313 147.725062 
" style="fill:none;stroke:#000000;stroke-width:1.5;"/>
    <path clip-path="url(#p6af68bb031)" d="M 601.478646 144.713898 
L 601.478646 142.759212 
" style="fill:none;stroke:#000000;stroke-width:1.5;"/>
    <path clip-path="url(#p6af68bb031)" d="M 734.811979 149.130608 
L 734.811979 147.143121 
" style="fill:none;stroke:#000000;stroke-width:1.5;"/>
   </g>
   <g id="LineCollection_3">
    <path clip-path="url(#p6af68bb031)" d="M 81.478646 3.822443 
L 81.478646 3.815419 
" style="fill:none;stroke:#000000;stroke-width:1.5;"/>
    <path clip-path="url(#p6af68bb031)" d="M 214.811979 309.916337 
L 214.811979 286.399602 
" style="fill:none;stroke:#000000;stroke-width:1.5;"/>
    <path clip-path="url(#p6af68bb031)" d="M 348.145312 40.019785 
L 348.145312 33.222541 
" style="fill:none;stroke:#000000;stroke-width:1.5;"/>
    <path clip-path="url(#p6af68bb031)" d="M 481.478646 154.857624 
L 481.478646 153.558987 
" style="fill:none;stroke:#000000;stroke-width:1.5;"/>
    <path clip-path="url(#p6af68bb031)" d="M 614.811979 130.679976 
L 614.811979 126.310093 
" style="fill:none;stroke:#000000;stroke-width:1.5;"/>
    <path clip-path="url(#p6af68bb031)" d="M 748.145313 154.16017 
L 748.145313 153.303019 
" style="fill:none;stroke:#000000;stroke-width:1.5;"/>
   </g>
   <g id="LineCollection_4">
    <path clip-path="url(#p6af68bb031)" d="M 94.811979 4.051634 
L 94.811979 3.763659 
" style="fill:none;stroke:#000000;stroke-width:1.5;"/>
    <path clip-path="url(#p6af68bb031)" d="M 228.145313 311.604253 
L 228.145313 290.64318 
" style="fill:none;stroke:#000000;stroke-width:1.5;"/>
    <path clip-path="url(#p6af68bb031)" d="M 361.478646 24.288148 
L 361.478646 20.5039 
" style="fill:none;stroke:#000000;stroke-width:1.5;"/>
    <path clip-path="url(#p6af68bb031)" d="M 494.811979 99.747496 
L 494.811979 98.038337 
" style="fill:none;stroke:#000000;stroke-width:1.5;"/>
    <path clip-path="url(#p6af68bb031)" d="M 628.145313 78.457394 
L 628.145313 77.28087 
" style="fill:none;stroke:#000000;stroke-width:1.5;"/>
    <path clip-path="url(#p6af68bb031)" d="M 761.478646 99.257945 
L 761.478646 97.856245 
" style="fill:none;stroke:#000000;stroke-width:1.5;"/>
   </g>
   <g id="line2d_31">
    <path clip-path="url(#p6af68bb031)" d="M 48.145313 160.890128 
L 768.145313 160.890128 
" style="fill:none;stroke:#000000;stroke-linecap:square;stroke-width:1.5;"/>
   </g>
   <g id="patch_27">
    <path d="M 48.145313 435.799219 
L 48.145313 3.799219 
" style="fill:none;stroke:#000000;stroke-linecap:square;stroke-linejoin:miter;stroke-width:0.8;"/>
   </g>
   <g id="patch_28">
    <path d="M 768.145313 435.799219 
L 768.145313 3.799219 
" style="fill:none;stroke:#000000;stroke-linecap:square;stroke-linejoin:miter;stroke-width:0.8;"/>
   </g>
   <g id="patch_29">
    <path d="M 48.145313 435.799219 
L 768.145313 435.799219 
" style="fill:none;stroke:#000000;stroke-linecap:square;stroke-linejoin:miter;stroke-width:0.8;"/>
   </g>
   <g id="patch_30">
    <path d="M 48.145313 3.799219 
L 768.145313 3.799219 
" style="fill:none;stroke:#000000;stroke-linecap:square;stroke-linejoin:miter;stroke-width:0.8;"/>
   </g>
   <g id="legend_1">
    <g id="patch_31">
     <path d="M 626.970313 70.511719 
L 761.145313 70.511719 
Q 763.145313 70.511719 763.145313 68.511719 
L 763.145313 10.799219 
Q 763.145313 8.799219 761.145313 8.799219 
L 626.970313 8.799219 
Q 624.970313 8.799219 624.970313 10.799219 
L 624.970313 68.511719 
Q 624.970313 70.511719 626.970313 70.511719 
z
" style="fill:#ffffff;opacity:0.8;stroke:#cccccc;stroke-linejoin:miter;"/>
    </g>
    <g id="patch_32">
     <path d="M 628.970313 20.397656 
L 648.970313 20.397656 
L 648.970313 13.397656 
L 628.970313 13.397656 
z
" style="fill:#46bdc6;"/>
    </g>
    <g id="text_21">
     <!-- Log loss, categorical -->
     <g transform="translate(656.970313 20.397656)scale(0.1 -0.1)">
      <defs>
       <path d="M 9.8125 72.90625 
L 19.671875 72.90625 
L 19.671875 8.296875 
L 55.171875 8.296875 
L 55.171875 0 
L 9.8125 0 
z
" id="DejaVuSans-76"/>
       <path d="M 11.71875 12.40625 
L 22.015625 12.40625 
L 22.015625 4 
L 14.015625 -11.625 
L 7.71875 -11.625 
L 11.71875 4 
z
" id="DejaVuSans-44"/>
       <path d="M 48.78125 52.59375 
L 48.78125 44.1875 
Q 44.96875 46.296875 41.140625 47.34375 
Q 37.3125 48.390625 33.40625 48.390625 
Q 24.65625 48.390625 19.8125 42.84375 
Q 14.984375 37.3125 14.984375 27.296875 
Q 14.984375 17.28125 19.8125 11.734375 
Q 24.65625 6.203125 33.40625 6.203125 
Q 37.3125 6.203125 41.140625 7.25 
Q 44.96875 8.296875 48.78125 10.40625 
L 48.78125 2.09375 
Q 45.015625 0.34375 40.984375 -0.53125 
Q 36.96875 -1.421875 32.421875 -1.421875 
Q 20.0625 -1.421875 12.78125 6.34375 
Q 5.515625 14.109375 5.515625 27.296875 
Q 5.515625 40.671875 12.859375 48.328125 
Q 20.21875 56 33.015625 56 
Q 37.15625 56 41.109375 55.140625 
Q 45.0625 54.296875 48.78125 52.59375 
z
" id="DejaVuSans-99"/>
      </defs>
      <use xlink:href="#DejaVuSans-76"/>
      <use x="53.962891" xlink:href="#DejaVuSans-111"/>
      <use x="115.144531" xlink:href="#DejaVuSans-103"/>
      <use x="178.621094" xlink:href="#DejaVuSans-32"/>
      <use x="210.408203" xlink:href="#DejaVuSans-108"/>
      <use x="238.191406" xlink:href="#DejaVuSans-111"/>
      <use x="299.373047" xlink:href="#DejaVuSans-115"/>
      <use x="351.472656" xlink:href="#DejaVuSans-115"/>
      <use x="403.572266" xlink:href="#DejaVuSans-44"/>
      <use x="435.359375" xlink:href="#DejaVuSans-32"/>
      <use x="467.146484" xlink:href="#DejaVuSans-99"/>
      <use x="522.126953" xlink:href="#DejaVuSans-97"/>
      <use x="583.40625" xlink:href="#DejaVuSans-116"/>
      <use x="622.615234" xlink:href="#DejaVuSans-101"/>
      <use x="684.138672" xlink:href="#DejaVuSans-103"/>
      <use x="747.615234" xlink:href="#DejaVuSans-111"/>
      <use x="808.796875" xlink:href="#DejaVuSans-114"/>
      <use x="849.910156" xlink:href="#DejaVuSans-105"/>
      <use x="877.693359" xlink:href="#DejaVuSans-99"/>
      <use x="932.673828" xlink:href="#DejaVuSans-97"/>
      <use x="993.953125" xlink:href="#DejaVuSans-108"/>
     </g>
    </g>
    <g id="patch_33">
     <path d="M 628.970313 35.075781 
L 648.970313 35.075781 
L 648.970313 28.075781 
L 628.970313 28.075781 
z
" style="fill:#ea4335;"/>
    </g>
    <g id="text_22">
     <!-- JSD loss, categorical -->
     <g transform="translate(656.970313 35.075781)scale(0.1 -0.1)">
      <defs>
       <path d="M 9.8125 72.90625 
L 19.671875 72.90625 
L 19.671875 5.078125 
Q 19.671875 -8.109375 14.671875 -14.0625 
Q 9.671875 -20.015625 -1.421875 -20.015625 
L -5.171875 -20.015625 
L -5.171875 -11.71875 
L -2.09375 -11.71875 
Q 4.4375 -11.71875 7.125 -8.046875 
Q 9.8125 -4.390625 9.8125 5.078125 
z
" id="DejaVuSans-74"/>
       <path d="M 19.671875 64.796875 
L 19.671875 8.109375 
L 31.59375 8.109375 
Q 46.6875 8.109375 53.6875 14.9375 
Q 60.6875 21.78125 60.6875 36.53125 
Q 60.6875 51.171875 53.6875 57.984375 
Q 46.6875 64.796875 31.59375 64.796875 
z
M 9.8125 72.90625 
L 30.078125 72.90625 
Q 51.265625 72.90625 61.171875 64.09375 
Q 71.09375 55.28125 71.09375 36.53125 
Q 71.09375 17.671875 61.125 8.828125 
Q 51.171875 0 30.078125 0 
L 9.8125 0 
z
" id="DejaVuSans-68"/>
      </defs>
      <use xlink:href="#DejaVuSans-74"/>
      <use x="29.492188" xlink:href="#DejaVuSans-83"/>
      <use x="92.96875" xlink:href="#DejaVuSans-68"/>
      <use x="169.970703" xlink:href="#DejaVuSans-32"/>
      <use x="201.757812" xlink:href="#DejaVuSans-108"/>
      <use x="229.541016" xlink:href="#DejaVuSans-111"/>
      <use x="290.722656" xlink:href="#DejaVuSans-115"/>
      <use x="342.822266" xlink:href="#DejaVuSans-115"/>
      <use x="394.921875" xlink:href="#DejaVuSans-44"/>
      <use x="426.708984" xlink:href="#DejaVuSans-32"/>
      <use x="458.496094" xlink:href="#DejaVuSans-99"/>
      <use x="513.476562" xlink:href="#DejaVuSans-97"/>
      <use x="574.755859" xlink:href="#DejaVuSans-116"/>
      <use x="613.964844" xlink:href="#DejaVuSans-101"/>
      <use x="675.488281" xlink:href="#DejaVuSans-103"/>
      <use x="738.964844" xlink:href="#DejaVuSans-111"/>
      <use x="800.146484" xlink:href="#DejaVuSans-114"/>
      <use x="841.259766" xlink:href="#DejaVuSans-105"/>
      <use x="869.042969" xlink:href="#DejaVuSans-99"/>
      <use x="924.023438" xlink:href="#DejaVuSans-97"/>
      <use x="985.302734" xlink:href="#DejaVuSans-108"/>
     </g>
    </g>
    <g id="patch_34">
     <path d="M 628.970313 49.753906 
L 648.970313 49.753906 
L 648.970313 42.753906 
L 628.970313 42.753906 
z
" style="fill:#800080;"/>
    </g>
    <g id="text_23">
     <!-- Log loss, continuous -->
     <g transform="translate(656.970313 49.753906)scale(0.1 -0.1)">
      <use xlink:href="#DejaVuSans-76"/>
      <use x="53.962891" xlink:href="#DejaVuSans-111"/>
      <use x="115.144531" xlink:href="#DejaVuSans-103"/>
      <use x="178.621094" xlink:href="#DejaVuSans-32"/>
      <use x="210.408203" xlink:href="#DejaVuSans-108"/>
      <use x="238.191406" xlink:href="#DejaVuSans-111"/>
      <use x="299.373047" xlink:href="#DejaVuSans-115"/>
      <use x="351.472656" xlink:href="#DejaVuSans-115"/>
      <use x="403.572266" xlink:href="#DejaVuSans-44"/>
      <use x="435.359375" xlink:href="#DejaVuSans-32"/>
      <use x="467.146484" xlink:href="#DejaVuSans-99"/>
      <use x="522.126953" xlink:href="#DejaVuSans-111"/>
      <use x="583.308594" xlink:href="#DejaVuSans-110"/>
      <use x="646.6875" xlink:href="#DejaVuSans-116"/>
      <use x="685.896484" xlink:href="#DejaVuSans-105"/>
      <use x="713.679688" xlink:href="#DejaVuSans-110"/>
      <use x="777.058594" xlink:href="#DejaVuSans-117"/>
      <use x="840.4375" xlink:href="#DejaVuSans-111"/>
      <use x="901.619141" xlink:href="#DejaVuSans-117"/>
      <use x="964.998047" xlink:href="#DejaVuSans-115"/>
     </g>
    </g>
    <g id="patch_35">
     <path d="M 628.970313 64.432031 
L 648.970313 64.432031 
L 648.970313 57.432031 
L 628.970313 57.432031 
z
" style="fill:#34a853;"/>
    </g>
    <g id="text_24">
     <!-- JSD loss, continuous -->
     <g transform="translate(656.970313 64.432031)scale(0.1 -0.1)">
      <use xlink:href="#DejaVuSans-74"/>
      <use x="29.492188" xlink:href="#DejaVuSans-83"/>
      <use x="92.96875" xlink:href="#DejaVuSans-68"/>
      <use x="169.970703" xlink:href="#DejaVuSans-32"/>
      <use x="201.757812" xlink:href="#DejaVuSans-108"/>
      <use x="229.541016" xlink:href="#DejaVuSans-111"/>
      <use x="290.722656" xlink:href="#DejaVuSans-115"/>
      <use x="342.822266" xlink:href="#DejaVuSans-115"/>
      <use x="394.921875" xlink:href="#DejaVuSans-44"/>
      <use x="426.708984" xlink:href="#DejaVuSans-32"/>
      <use x="458.496094" xlink:href="#DejaVuSans-99"/>
      <use x="513.476562" xlink:href="#DejaVuSans-111"/>
      <use x="574.658203" xlink:href="#DejaVuSans-110"/>
      <use x="638.037109" xlink:href="#DejaVuSans-116"/>
      <use x="677.246094" xlink:href="#DejaVuSans-105"/>
      <use x="705.029297" xlink:href="#DejaVuSans-110"/>
      <use x="768.408203" xlink:href="#DejaVuSans-117"/>
      <use x="831.787109" xlink:href="#DejaVuSans-111"/>
      <use x="892.96875" xlink:href="#DejaVuSans-117"/>
      <use x="956.347656" xlink:href="#DejaVuSans-115"/>
     </g>
    </g>
   </g>
  </g>
 </g>
 <defs>
  <clipPath id="p6af68bb031">
   <rect height="432" width="720" x="48.145313" y="3.799219"/>
  </clipPath>
 </defs>
</svg>
