<?xml version="1.0" encoding="utf-8" standalone="no"?>
<!DOCTYPE svg PUBLIC "-//W3C//DTD SVG 1.1//EN"
  "http://www.w3.org/Graphics/SVG/1.1/DTD/svg11.dtd">
<!-- Created with matplotlib (https://matplotlib.org/) -->
<svg height="432pt" version="1.1" viewBox="0 0 720 432" width="720pt" xmlns="http://www.w3.org/2000/svg" xmlns:xlink="http://www.w3.org/1999/xlink">
 <metadata>
  <rdf:RDF xmlns:cc="http://creativecommons.org/ns#" xmlns:dc="http://purl.org/dc/elements/1.1/" xmlns:rdf="http://www.w3.org/1999/02/22-rdf-syntax-ns#">
   <cc:Work>
    <dc:type rdf:resource="http://purl.org/dc/dcmitype/StillImage"/>
    <dc:date>2021-03-10T10:01:52.480965</dc:date>
    <dc:format>image/svg+xml</dc:format>
    <dc:creator>
     <cc:Agent>
      <dc:title>Matplotlib v3.3.4, https://matplotlib.org/</dc:title>
     </cc:Agent>
    </dc:creator>
   </cc:Work>
  </rdf:RDF>
 </metadata>
 <defs>
  <style type="text/css">*{stroke-linecap:butt;stroke-linejoin:round;}</style>
 </defs>
 <g id="figure_1">
  <g id="patch_1">
   <path d="M 0 432 
L 720 432 
L 720 0 
L 0 0 
z
" style="fill:none;"/>
  </g>
  <g id="axes_1">
   <g id="patch_2">
    <path d="M 90 378 
L 648 378 
L 648 51.84 
L 90 51.84 
z
" style="fill:#ffffff;"/>
   </g>
   <g id="PolyCollection_1">
    <defs>
     <path d="M 115.363636 -379.045508 
L 115.363636 -378.406965 
L 128.370629 -367.834805 
L 154.384615 -306.01312 
L 232.426573 -267.27501 
L 362.496503 -270.699126 
L 622.636364 -275.609772 
L 622.636364 -277.074047 
L 622.636364 -277.074047 
L 362.496503 -272.161022 
L 232.426573 -269.315199 
L 154.384615 -310.670592 
L 128.370629 -370.683164 
L 115.363636 -379.045508 
z
" id="mc69cb8bf81" style="stroke:#ea4335;stroke-opacity:0.2;"/>
    </defs>
    <g clip-path="url(#p4812a3edff)">
     <use style="fill:#ea4335;fill-opacity:0.2;stroke:#ea4335;stroke-opacity:0.2;" x="0" xlink:href="#mc69cb8bf81" y="432"/>
    </g>
   </g>
   <g id="PolyCollection_2">
    <defs>
     <path d="M 115.363636 -334.096941 
L 115.363636 -330.07681 
L 128.370629 -308.525882 
L 154.384615 -270.434801 
L 232.426573 -262.66324 
L 362.496503 -264.435356 
L 622.636364 -266.249401 
L 622.636364 -267.574701 
L 622.636364 -267.574701 
L 362.496503 -265.637733 
L 232.426573 -263.357612 
L 154.384615 -271.935354 
L 128.370629 -310.791434 
L 115.363636 -334.096941 
z
" id="m48d5dc5bae" style="stroke:#fbbc04;stroke-opacity:0.2;"/>
    </defs>
    <g clip-path="url(#p4812a3edff)">
     <use style="fill:#fbbc04;fill-opacity:0.2;stroke:#fbbc04;stroke-opacity:0.2;" x="0" xlink:href="#m48d5dc5bae" y="432"/>
    </g>
   </g>
   <g id="PolyCollection_3">
    <defs>
     <path d="M 115.363636 -373.885283 
L 115.363636 -371.781825 
L 128.370629 -369.692013 
L 154.384615 -364.155632 
L 232.426573 -331.544324 
L 362.496503 -301.221688 
L 622.636364 -272.839189 
L 622.636364 -276.031724 
L 622.636364 -276.031724 
L 362.496503 -307.59297 
L 232.426573 -344.858121 
L 154.384615 -366.652245 
L 128.370629 -370.966919 
L 115.363636 -373.885283 
z
" id="mf3c9be9898" style="stroke:#34a853;stroke-opacity:0.2;"/>
    </defs>
    <g clip-path="url(#p4812a3edff)">
     <use style="fill:#34a853;fill-opacity:0.2;stroke:#34a853;stroke-opacity:0.2;" x="0" xlink:href="#mf3c9be9898" y="432"/>
    </g>
   </g>
   <g id="PolyCollection_4">
    <defs>
     <path d="M 115.363636 -326.37151 
L 115.363636 -323.888511 
L 128.370629 -316.706579 
L 154.384615 -307.946004 
L 232.426573 -277.652599 
L 362.496503 -244.609783 
L 622.636364 -245.351809 
L 622.636364 -246.136089 
L 622.636364 -246.136089 
L 362.496503 -248.996148 
L 232.426573 -280.869848 
L 154.384615 -309.137363 
L 128.370629 -317.678701 
L 115.363636 -326.37151 
z
" id="m9d3e2cbafb" style="stroke:#4285f4;stroke-opacity:0.2;"/>
    </defs>
    <g clip-path="url(#p4812a3edff)">
     <use style="fill:#4285f4;fill-opacity:0.2;stroke:#4285f4;stroke-opacity:0.2;" x="0" xlink:href="#m9d3e2cbafb" y="432"/>
    </g>
   </g>
   <g id="matplotlib.axis_1">
    <g id="xtick_1">
     <g id="line2d_1">
      <path clip-path="url(#p4812a3edff)" d="M 102.356643 378 
L 102.356643 51.84 
" style="fill:none;stroke:#b0b0b0;stroke-linecap:square;stroke-width:0.8;"/>
     </g>
     <g id="line2d_2">
      <defs>
       <path d="M 0 0 
L 0 3.5 
" id="mf8bffb71c1" style="stroke:#000000;stroke-width:0.8;"/>
      </defs>
      <g>
       <use style="stroke:#000000;stroke-width:0.8;" x="102.356643" xlink:href="#mf8bffb71c1" y="378"/>
      </g>
     </g>
     <g id="text_1">
      <!-- 0.000 -->
      <g transform="translate(88.042581 392.598437)scale(0.1 -0.1)">
       <defs>
        <path d="M 31.78125 66.40625 
Q 24.171875 66.40625 20.328125 58.90625 
Q 16.5 51.421875 16.5 36.375 
Q 16.5 21.390625 20.328125 13.890625 
Q 24.171875 6.390625 31.78125 6.390625 
Q 39.453125 6.390625 43.28125 13.890625 
Q 47.125 21.390625 47.125 36.375 
Q 47.125 51.421875 43.28125 58.90625 
Q 39.453125 66.40625 31.78125 66.40625 
z
M 31.78125 74.21875 
Q 44.046875 74.21875 50.515625 64.515625 
Q 56.984375 54.828125 56.984375 36.375 
Q 56.984375 17.96875 50.515625 8.265625 
Q 44.046875 -1.421875 31.78125 -1.421875 
Q 19.53125 -1.421875 13.0625 8.265625 
Q 6.59375 17.96875 6.59375 36.375 
Q 6.59375 54.828125 13.0625 64.515625 
Q 19.53125 74.21875 31.78125 74.21875 
z
" id="DejaVuSans-48"/>
        <path d="M 10.6875 12.40625 
L 21 12.40625 
L 21 0 
L 10.6875 0 
z
" id="DejaVuSans-46"/>
       </defs>
       <use xlink:href="#DejaVuSans-48"/>
       <use x="63.623047" xlink:href="#DejaVuSans-46"/>
       <use x="95.410156" xlink:href="#DejaVuSans-48"/>
       <use x="159.033203" xlink:href="#DejaVuSans-48"/>
       <use x="222.65625" xlink:href="#DejaVuSans-48"/>
      </g>
     </g>
    </g>
    <g id="xtick_2">
     <g id="line2d_3">
      <path clip-path="url(#p4812a3edff)" d="M 167.391608 378 
L 167.391608 51.84 
" style="fill:none;stroke:#b0b0b0;stroke-linecap:square;stroke-width:0.8;"/>
     </g>
     <g id="line2d_4">
      <g>
       <use style="stroke:#000000;stroke-width:0.8;" x="167.391608" xlink:href="#mf8bffb71c1" y="378"/>
      </g>
     </g>
     <g id="text_2">
      <!-- 0.025 -->
      <g transform="translate(153.077546 392.598437)scale(0.1 -0.1)">
       <defs>
        <path d="M 19.1875 8.296875 
L 53.609375 8.296875 
L 53.609375 0 
L 7.328125 0 
L 7.328125 8.296875 
Q 12.9375 14.109375 22.625 23.890625 
Q 32.328125 33.6875 34.8125 36.53125 
Q 39.546875 41.84375 41.421875 45.53125 
Q 43.3125 49.21875 43.3125 52.78125 
Q 43.3125 58.59375 39.234375 62.25 
Q 35.15625 65.921875 28.609375 65.921875 
Q 23.96875 65.921875 18.8125 64.3125 
Q 13.671875 62.703125 7.8125 59.421875 
L 7.8125 69.390625 
Q 13.765625 71.78125 18.9375 73 
Q 24.125 74.21875 28.421875 74.21875 
Q 39.75 74.21875 46.484375 68.546875 
Q 53.21875 62.890625 53.21875 53.421875 
Q 53.21875 48.921875 51.53125 44.890625 
Q 49.859375 40.875 45.40625 35.40625 
Q 44.1875 33.984375 37.640625 27.21875 
Q 31.109375 20.453125 19.1875 8.296875 
z
" id="DejaVuSans-50"/>
        <path d="M 10.796875 72.90625 
L 49.515625 72.90625 
L 49.515625 64.59375 
L 19.828125 64.59375 
L 19.828125 46.734375 
Q 21.96875 47.46875 24.109375 47.828125 
Q 26.265625 48.1875 28.421875 48.1875 
Q 40.625 48.1875 47.75 41.5 
Q 54.890625 34.8125 54.890625 23.390625 
Q 54.890625 11.625 47.5625 5.09375 
Q 40.234375 -1.421875 26.90625 -1.421875 
Q 22.3125 -1.421875 17.546875 -0.640625 
Q 12.796875 0.140625 7.71875 1.703125 
L 7.71875 11.625 
Q 12.109375 9.234375 16.796875 8.0625 
Q 21.484375 6.890625 26.703125 6.890625 
Q 35.15625 6.890625 40.078125 11.328125 
Q 45.015625 15.765625 45.015625 23.390625 
Q 45.015625 31 40.078125 35.4375 
Q 35.15625 39.890625 26.703125 39.890625 
Q 22.75 39.890625 18.8125 39.015625 
Q 14.890625 38.140625 10.796875 36.28125 
z
" id="DejaVuSans-53"/>
       </defs>
       <use xlink:href="#DejaVuSans-48"/>
       <use x="63.623047" xlink:href="#DejaVuSans-46"/>
       <use x="95.410156" xlink:href="#DejaVuSans-48"/>
       <use x="159.033203" xlink:href="#DejaVuSans-50"/>
       <use x="222.65625" xlink:href="#DejaVuSans-53"/>
      </g>
     </g>
    </g>
    <g id="xtick_3">
     <g id="line2d_5">
      <path clip-path="url(#p4812a3edff)" d="M 232.426573 378 
L 232.426573 51.84 
" style="fill:none;stroke:#b0b0b0;stroke-linecap:square;stroke-width:0.8;"/>
     </g>
     <g id="line2d_6">
      <g>
       <use style="stroke:#000000;stroke-width:0.8;" x="232.426573" xlink:href="#mf8bffb71c1" y="378"/>
      </g>
     </g>
     <g id="text_3">
      <!-- 0.050 -->
      <g transform="translate(218.112511 392.598437)scale(0.1 -0.1)">
       <use xlink:href="#DejaVuSans-48"/>
       <use x="63.623047" xlink:href="#DejaVuSans-46"/>
       <use x="95.410156" xlink:href="#DejaVuSans-48"/>
       <use x="159.033203" xlink:href="#DejaVuSans-53"/>
       <use x="222.65625" xlink:href="#DejaVuSans-48"/>
      </g>
     </g>
    </g>
    <g id="xtick_4">
     <g id="line2d_7">
      <path clip-path="url(#p4812a3edff)" d="M 297.461538 378 
L 297.461538 51.84 
" style="fill:none;stroke:#b0b0b0;stroke-linecap:square;stroke-width:0.8;"/>
     </g>
     <g id="line2d_8">
      <g>
       <use style="stroke:#000000;stroke-width:0.8;" x="297.461538" xlink:href="#mf8bffb71c1" y="378"/>
      </g>
     </g>
     <g id="text_4">
      <!-- 0.075 -->
      <g transform="translate(283.147476 392.598437)scale(0.1 -0.1)">
       <defs>
        <path d="M 8.203125 72.90625 
L 55.078125 72.90625 
L 55.078125 68.703125 
L 28.609375 0 
L 18.3125 0 
L 43.21875 64.59375 
L 8.203125 64.59375 
z
" id="DejaVuSans-55"/>
       </defs>
       <use xlink:href="#DejaVuSans-48"/>
       <use x="63.623047" xlink:href="#DejaVuSans-46"/>
       <use x="95.410156" xlink:href="#DejaVuSans-48"/>
       <use x="159.033203" xlink:href="#DejaVuSans-55"/>
       <use x="222.65625" xlink:href="#DejaVuSans-53"/>
      </g>
     </g>
    </g>
    <g id="xtick_5">
     <g id="line2d_9">
      <path clip-path="url(#p4812a3edff)" d="M 362.496503 378 
L 362.496503 51.84 
" style="fill:none;stroke:#b0b0b0;stroke-linecap:square;stroke-width:0.8;"/>
     </g>
     <g id="line2d_10">
      <g>
       <use style="stroke:#000000;stroke-width:0.8;" x="362.496503" xlink:href="#mf8bffb71c1" y="378"/>
      </g>
     </g>
     <g id="text_5">
      <!-- 0.100 -->
      <g transform="translate(348.182441 392.598437)scale(0.1 -0.1)">
       <defs>
        <path d="M 12.40625 8.296875 
L 28.515625 8.296875 
L 28.515625 63.921875 
L 10.984375 60.40625 
L 10.984375 69.390625 
L 28.421875 72.90625 
L 38.28125 72.90625 
L 38.28125 8.296875 
L 54.390625 8.296875 
L 54.390625 0 
L 12.40625 0 
z
" id="DejaVuSans-49"/>
       </defs>
       <use xlink:href="#DejaVuSans-48"/>
       <use x="63.623047" xlink:href="#DejaVuSans-46"/>
       <use x="95.410156" xlink:href="#DejaVuSans-49"/>
       <use x="159.033203" xlink:href="#DejaVuSans-48"/>
       <use x="222.65625" xlink:href="#DejaVuSans-48"/>
      </g>
     </g>
    </g>
    <g id="xtick_6">
     <g id="line2d_11">
      <path clip-path="url(#p4812a3edff)" d="M 427.531469 378 
L 427.531469 51.84 
" style="fill:none;stroke:#b0b0b0;stroke-linecap:square;stroke-width:0.8;"/>
     </g>
     <g id="line2d_12">
      <g>
       <use style="stroke:#000000;stroke-width:0.8;" x="427.531469" xlink:href="#mf8bffb71c1" y="378"/>
      </g>
     </g>
     <g id="text_6">
      <!-- 0.125 -->
      <g transform="translate(413.217406 392.598437)scale(0.1 -0.1)">
       <use xlink:href="#DejaVuSans-48"/>
       <use x="63.623047" xlink:href="#DejaVuSans-46"/>
       <use x="95.410156" xlink:href="#DejaVuSans-49"/>
       <use x="159.033203" xlink:href="#DejaVuSans-50"/>
       <use x="222.65625" xlink:href="#DejaVuSans-53"/>
      </g>
     </g>
    </g>
    <g id="xtick_7">
     <g id="line2d_13">
      <path clip-path="url(#p4812a3edff)" d="M 492.566434 378 
L 492.566434 51.84 
" style="fill:none;stroke:#b0b0b0;stroke-linecap:square;stroke-width:0.8;"/>
     </g>
     <g id="line2d_14">
      <g>
       <use style="stroke:#000000;stroke-width:0.8;" x="492.566434" xlink:href="#mf8bffb71c1" y="378"/>
      </g>
     </g>
     <g id="text_7">
      <!-- 0.150 -->
      <g transform="translate(478.252371 392.598437)scale(0.1 -0.1)">
       <use xlink:href="#DejaVuSans-48"/>
       <use x="63.623047" xlink:href="#DejaVuSans-46"/>
       <use x="95.410156" xlink:href="#DejaVuSans-49"/>
       <use x="159.033203" xlink:href="#DejaVuSans-53"/>
       <use x="222.65625" xlink:href="#DejaVuSans-48"/>
      </g>
     </g>
    </g>
    <g id="xtick_8">
     <g id="line2d_15">
      <path clip-path="url(#p4812a3edff)" d="M 557.601399 378 
L 557.601399 51.84 
" style="fill:none;stroke:#b0b0b0;stroke-linecap:square;stroke-width:0.8;"/>
     </g>
     <g id="line2d_16">
      <g>
       <use style="stroke:#000000;stroke-width:0.8;" x="557.601399" xlink:href="#mf8bffb71c1" y="378"/>
      </g>
     </g>
     <g id="text_8">
      <!-- 0.175 -->
      <g transform="translate(543.287336 392.598437)scale(0.1 -0.1)">
       <use xlink:href="#DejaVuSans-48"/>
       <use x="63.623047" xlink:href="#DejaVuSans-46"/>
       <use x="95.410156" xlink:href="#DejaVuSans-49"/>
       <use x="159.033203" xlink:href="#DejaVuSans-55"/>
       <use x="222.65625" xlink:href="#DejaVuSans-53"/>
      </g>
     </g>
    </g>
    <g id="xtick_9">
     <g id="line2d_17">
      <path clip-path="url(#p4812a3edff)" d="M 622.636364 378 
L 622.636364 51.84 
" style="fill:none;stroke:#b0b0b0;stroke-linecap:square;stroke-width:0.8;"/>
     </g>
     <g id="line2d_18">
      <g>
       <use style="stroke:#000000;stroke-width:0.8;" x="622.636364" xlink:href="#mf8bffb71c1" y="378"/>
      </g>
     </g>
     <g id="text_9">
      <!-- 0.200 -->
      <g transform="translate(608.322301 392.598437)scale(0.1 -0.1)">
       <use xlink:href="#DejaVuSans-48"/>
       <use x="63.623047" xlink:href="#DejaVuSans-46"/>
       <use x="95.410156" xlink:href="#DejaVuSans-50"/>
       <use x="159.033203" xlink:href="#DejaVuSans-48"/>
       <use x="222.65625" xlink:href="#DejaVuSans-48"/>
      </g>
     </g>
    </g>
   </g>
   <g id="matplotlib.axis_2">
    <g id="ytick_1">
     <g id="line2d_19">
      <path clip-path="url(#p4812a3edff)" d="M 90 378 
L 648 378 
" style="fill:none;stroke:#b0b0b0;stroke-linecap:square;stroke-width:0.8;"/>
     </g>
     <g id="line2d_20">
      <defs>
       <path d="M 0 0 
L -3.5 0 
" id="m2d8541bca2" style="stroke:#000000;stroke-width:0.8;"/>
      </defs>
      <g>
       <use style="stroke:#000000;stroke-width:0.8;" x="90" xlink:href="#m2d8541bca2" y="378"/>
      </g>
     </g>
     <g id="text_10">
      <!-- −175 -->
      <g transform="translate(55.532812 381.799219)scale(0.1 -0.1)">
       <defs>
        <path d="M 10.59375 35.5 
L 73.1875 35.5 
L 73.1875 27.203125 
L 10.59375 27.203125 
z
" id="DejaVuSans-8722"/>
       </defs>
       <use xlink:href="#DejaVuSans-8722"/>
       <use x="83.789062" xlink:href="#DejaVuSans-49"/>
       <use x="147.412109" xlink:href="#DejaVuSans-55"/>
       <use x="211.035156" xlink:href="#DejaVuSans-53"/>
      </g>
     </g>
    </g>
    <g id="ytick_2">
     <g id="line2d_21">
      <path clip-path="url(#p4812a3edff)" d="M 90 348.349091 
L 648 348.349091 
" style="fill:none;stroke:#b0b0b0;stroke-linecap:square;stroke-width:0.8;"/>
     </g>
     <g id="line2d_22">
      <g>
       <use style="stroke:#000000;stroke-width:0.8;" x="90" xlink:href="#m2d8541bca2" y="348.349091"/>
      </g>
     </g>
     <g id="text_11">
      <!-- −150 -->
      <g transform="translate(55.532812 352.14831)scale(0.1 -0.1)">
       <use xlink:href="#DejaVuSans-8722"/>
       <use x="83.789062" xlink:href="#DejaVuSans-49"/>
       <use x="147.412109" xlink:href="#DejaVuSans-53"/>
       <use x="211.035156" xlink:href="#DejaVuSans-48"/>
      </g>
     </g>
    </g>
    <g id="ytick_3">
     <g id="line2d_23">
      <path clip-path="url(#p4812a3edff)" d="M 90 318.698182 
L 648 318.698182 
" style="fill:none;stroke:#b0b0b0;stroke-linecap:square;stroke-width:0.8;"/>
     </g>
     <g id="line2d_24">
      <g>
       <use style="stroke:#000000;stroke-width:0.8;" x="90" xlink:href="#m2d8541bca2" y="318.698182"/>
      </g>
     </g>
     <g id="text_12">
      <!-- −125 -->
      <g transform="translate(55.532812 322.497401)scale(0.1 -0.1)">
       <use xlink:href="#DejaVuSans-8722"/>
       <use x="83.789062" xlink:href="#DejaVuSans-49"/>
       <use x="147.412109" xlink:href="#DejaVuSans-50"/>
       <use x="211.035156" xlink:href="#DejaVuSans-53"/>
      </g>
     </g>
    </g>
    <g id="ytick_4">
     <g id="line2d_25">
      <path clip-path="url(#p4812a3edff)" d="M 90 289.047273 
L 648 289.047273 
" style="fill:none;stroke:#b0b0b0;stroke-linecap:square;stroke-width:0.8;"/>
     </g>
     <g id="line2d_26">
      <g>
       <use style="stroke:#000000;stroke-width:0.8;" x="90" xlink:href="#m2d8541bca2" y="289.047273"/>
      </g>
     </g>
     <g id="text_13">
      <!-- −100 -->
      <g transform="translate(55.532812 292.846491)scale(0.1 -0.1)">
       <use xlink:href="#DejaVuSans-8722"/>
       <use x="83.789062" xlink:href="#DejaVuSans-49"/>
       <use x="147.412109" xlink:href="#DejaVuSans-48"/>
       <use x="211.035156" xlink:href="#DejaVuSans-48"/>
      </g>
     </g>
    </g>
    <g id="ytick_5">
     <g id="line2d_27">
      <path clip-path="url(#p4812a3edff)" d="M 90 259.396364 
L 648 259.396364 
" style="fill:none;stroke:#b0b0b0;stroke-linecap:square;stroke-width:0.8;"/>
     </g>
     <g id="line2d_28">
      <g>
       <use style="stroke:#000000;stroke-width:0.8;" x="90" xlink:href="#m2d8541bca2" y="259.396364"/>
      </g>
     </g>
     <g id="text_14">
      <!-- −75 -->
      <g transform="translate(61.895313 263.195582)scale(0.1 -0.1)">
       <use xlink:href="#DejaVuSans-8722"/>
       <use x="83.789062" xlink:href="#DejaVuSans-55"/>
       <use x="147.412109" xlink:href="#DejaVuSans-53"/>
      </g>
     </g>
    </g>
    <g id="ytick_6">
     <g id="line2d_29">
      <path clip-path="url(#p4812a3edff)" d="M 90 229.745455 
L 648 229.745455 
" style="fill:none;stroke:#b0b0b0;stroke-linecap:square;stroke-width:0.8;"/>
     </g>
     <g id="line2d_30">
      <g>
       <use style="stroke:#000000;stroke-width:0.8;" x="90" xlink:href="#m2d8541bca2" y="229.745455"/>
      </g>
     </g>
     <g id="text_15">
      <!-- −50 -->
      <g transform="translate(61.895313 233.544673)scale(0.1 -0.1)">
       <use xlink:href="#DejaVuSans-8722"/>
       <use x="83.789062" xlink:href="#DejaVuSans-53"/>
       <use x="147.412109" xlink:href="#DejaVuSans-48"/>
      </g>
     </g>
    </g>
    <g id="ytick_7">
     <g id="line2d_31">
      <path clip-path="url(#p4812a3edff)" d="M 90 200.094545 
L 648 200.094545 
" style="fill:none;stroke:#b0b0b0;stroke-linecap:square;stroke-width:0.8;"/>
     </g>
     <g id="line2d_32">
      <g>
       <use style="stroke:#000000;stroke-width:0.8;" x="90" xlink:href="#m2d8541bca2" y="200.094545"/>
      </g>
     </g>
     <g id="text_16">
      <!-- −25 -->
      <g transform="translate(61.895313 203.893764)scale(0.1 -0.1)">
       <use xlink:href="#DejaVuSans-8722"/>
       <use x="83.789062" xlink:href="#DejaVuSans-50"/>
       <use x="147.412109" xlink:href="#DejaVuSans-53"/>
      </g>
     </g>
    </g>
    <g id="ytick_8">
     <g id="line2d_33">
      <path clip-path="url(#p4812a3edff)" d="M 90 170.443636 
L 648 170.443636 
" style="fill:none;stroke:#b0b0b0;stroke-linecap:square;stroke-width:0.8;"/>
     </g>
     <g id="line2d_34">
      <g>
       <use style="stroke:#000000;stroke-width:0.8;" x="90" xlink:href="#m2d8541bca2" y="170.443636"/>
      </g>
     </g>
     <g id="text_17">
      <!-- 0 -->
      <g transform="translate(76.6375 174.242855)scale(0.1 -0.1)">
       <use xlink:href="#DejaVuSans-48"/>
      </g>
     </g>
    </g>
    <g id="ytick_9">
     <g id="line2d_35">
      <path clip-path="url(#p4812a3edff)" d="M 90 140.792727 
L 648 140.792727 
" style="fill:none;stroke:#b0b0b0;stroke-linecap:square;stroke-width:0.8;"/>
     </g>
     <g id="line2d_36">
      <g>
       <use style="stroke:#000000;stroke-width:0.8;" x="90" xlink:href="#m2d8541bca2" y="140.792727"/>
      </g>
     </g>
     <g id="text_18">
      <!-- 25 -->
      <g transform="translate(70.275 144.591946)scale(0.1 -0.1)">
       <use xlink:href="#DejaVuSans-50"/>
       <use x="63.623047" xlink:href="#DejaVuSans-53"/>
      </g>
     </g>
    </g>
    <g id="ytick_10">
     <g id="line2d_37">
      <path clip-path="url(#p4812a3edff)" d="M 90 111.141818 
L 648 111.141818 
" style="fill:none;stroke:#b0b0b0;stroke-linecap:square;stroke-width:0.8;"/>
     </g>
     <g id="line2d_38">
      <g>
       <use style="stroke:#000000;stroke-width:0.8;" x="90" xlink:href="#m2d8541bca2" y="111.141818"/>
      </g>
     </g>
     <g id="text_19">
      <!-- 50 -->
      <g transform="translate(70.275 114.941037)scale(0.1 -0.1)">
       <use xlink:href="#DejaVuSans-53"/>
       <use x="63.623047" xlink:href="#DejaVuSans-48"/>
      </g>
     </g>
    </g>
    <g id="ytick_11">
     <g id="line2d_39">
      <path clip-path="url(#p4812a3edff)" d="M 90 81.490909 
L 648 81.490909 
" style="fill:none;stroke:#b0b0b0;stroke-linecap:square;stroke-width:0.8;"/>
     </g>
     <g id="line2d_40">
      <g>
       <use style="stroke:#000000;stroke-width:0.8;" x="90" xlink:href="#m2d8541bca2" y="81.490909"/>
      </g>
     </g>
     <g id="text_20">
      <!-- 75 -->
      <g transform="translate(70.275 85.290128)scale(0.1 -0.1)">
       <use xlink:href="#DejaVuSans-55"/>
       <use x="63.623047" xlink:href="#DejaVuSans-53"/>
      </g>
     </g>
    </g>
    <g id="ytick_12">
     <g id="line2d_41">
      <path clip-path="url(#p4812a3edff)" d="M 90 51.84 
L 648 51.84 
" style="fill:none;stroke:#b0b0b0;stroke-linecap:square;stroke-width:0.8;"/>
     </g>
     <g id="line2d_42">
      <g>
       <use style="stroke:#000000;stroke-width:0.8;" x="90" xlink:href="#m2d8541bca2" y="51.84"/>
      </g>
     </g>
     <g id="text_21">
      <!-- 100 -->
      <g transform="translate(63.9125 55.639219)scale(0.1 -0.1)">
       <use xlink:href="#DejaVuSans-49"/>
       <use x="63.623047" xlink:href="#DejaVuSans-48"/>
       <use x="127.246094" xlink:href="#DejaVuSans-48"/>
      </g>
     </g>
    </g>
   </g>
   <g id="line2d_43">
    <path clip-path="url(#p4812a3edff)" d="M 115.363636 53.273763 
L 128.370629 62.741016 
L 154.384615 123.658144 
L 232.426573 163.704895 
L 362.496503 160.569926 
L 622.636364 155.658091 
" style="fill:none;stroke:#ea4335;stroke-linecap:square;stroke-width:1.5;"/>
    <defs>
     <path d="M 0 3 
C 0.795609 3 1.55874 2.683901 2.12132 2.12132 
C 2.683901 1.55874 3 0.795609 3 0 
C 3 -0.795609 2.683901 -1.55874 2.12132 -2.12132 
C 1.55874 -2.683901 0.795609 -3 0 -3 
C -0.795609 -3 -1.55874 -2.683901 -2.12132 -2.12132 
C -2.683901 -1.55874 -3 -0.795609 -3 0 
C -3 0.795609 -2.683901 1.55874 -2.12132 2.12132 
C -1.55874 2.683901 -0.795609 3 0 3 
z
" id="mb2c3805973" style="stroke:#ea4335;"/>
    </defs>
    <g clip-path="url(#p4812a3edff)">
     <use style="fill:#ea4335;stroke:#ea4335;" x="115.363636" xlink:href="#mb2c3805973" y="53.273763"/>
     <use style="fill:#ea4335;stroke:#ea4335;" x="128.370629" xlink:href="#mb2c3805973" y="62.741016"/>
     <use style="fill:#ea4335;stroke:#ea4335;" x="154.384615" xlink:href="#mb2c3805973" y="123.658144"/>
     <use style="fill:#ea4335;stroke:#ea4335;" x="232.426573" xlink:href="#mb2c3805973" y="163.704895"/>
     <use style="fill:#ea4335;stroke:#ea4335;" x="362.496503" xlink:href="#mb2c3805973" y="160.569926"/>
     <use style="fill:#ea4335;stroke:#ea4335;" x="622.636364" xlink:href="#mb2c3805973" y="155.658091"/>
    </g>
   </g>
   <g id="line2d_44">
    <path clip-path="url(#p4812a3edff)" d="M 115.363636 99.913124 
L 128.370629 122.341342 
L 154.384615 160.814923 
L 232.426573 168.989574 
L 362.496503 166.963456 
L 622.636364 165.087949 
" style="fill:none;stroke:#fbbc04;stroke-linecap:square;stroke-width:1.5;"/>
    <defs>
     <path d="M 0 3 
C 0.795609 3 1.55874 2.683901 2.12132 2.12132 
C 2.683901 1.55874 3 0.795609 3 0 
C 3 -0.795609 2.683901 -1.55874 2.12132 -2.12132 
C 1.55874 -2.683901 0.795609 -3 0 -3 
C -0.795609 -3 -1.55874 -2.683901 -2.12132 -2.12132 
C -2.683901 -1.55874 -3 -0.795609 -3 0 
C -3 0.795609 -2.683901 1.55874 -2.12132 2.12132 
C -1.55874 2.683901 -0.795609 3 0 3 
z
" id="mb0d374dad5" style="stroke:#fbbc04;"/>
    </defs>
    <g clip-path="url(#p4812a3edff)">
     <use style="fill:#fbbc04;stroke:#fbbc04;" x="115.363636" xlink:href="#mb0d374dad5" y="99.913124"/>
     <use style="fill:#fbbc04;stroke:#fbbc04;" x="128.370629" xlink:href="#mb0d374dad5" y="122.341342"/>
     <use style="fill:#fbbc04;stroke:#fbbc04;" x="154.384615" xlink:href="#mb0d374dad5" y="160.814923"/>
     <use style="fill:#fbbc04;stroke:#fbbc04;" x="232.426573" xlink:href="#mb0d374dad5" y="168.989574"/>
     <use style="fill:#fbbc04;stroke:#fbbc04;" x="362.496503" xlink:href="#mb0d374dad5" y="166.963456"/>
     <use style="fill:#fbbc04;stroke:#fbbc04;" x="622.636364" xlink:href="#mb0d374dad5" y="165.087949"/>
    </g>
   </g>
   <g id="line2d_45">
    <path clip-path="url(#p4812a3edff)" d="M 115.363636 59.166446 
L 128.370629 61.670534 
L 154.384615 66.596061 
L 232.426573 93.798777 
L 362.496503 127.592671 
L 622.636364 157.564543 
" style="fill:none;stroke:#34a853;stroke-linecap:square;stroke-width:1.5;"/>
    <defs>
     <path d="M 0 3 
C 0.795609 3 1.55874 2.683901 2.12132 2.12132 
C 2.683901 1.55874 3 0.795609 3 0 
C 3 -0.795609 2.683901 -1.55874 2.12132 -2.12132 
C 1.55874 -2.683901 0.795609 -3 0 -3 
C -0.795609 -3 -1.55874 -2.683901 -2.12132 -2.12132 
C -2.683901 -1.55874 -3 -0.795609 -3 0 
C -3 0.795609 -2.683901 1.55874 -2.12132 2.12132 
C -1.55874 2.683901 -0.795609 3 0 3 
z
" id="m1216a5c38e" style="stroke:#34a853;"/>
    </defs>
    <g clip-path="url(#p4812a3edff)">
     <use style="fill:#34a853;stroke:#34a853;" x="115.363636" xlink:href="#m1216a5c38e" y="59.166446"/>
     <use style="fill:#34a853;stroke:#34a853;" x="128.370629" xlink:href="#m1216a5c38e" y="61.670534"/>
     <use style="fill:#34a853;stroke:#34a853;" x="154.384615" xlink:href="#m1216a5c38e" y="66.596061"/>
     <use style="fill:#34a853;stroke:#34a853;" x="232.426573" xlink:href="#m1216a5c38e" y="93.798777"/>
     <use style="fill:#34a853;stroke:#34a853;" x="362.496503" xlink:href="#m1216a5c38e" y="127.592671"/>
     <use style="fill:#34a853;stroke:#34a853;" x="622.636364" xlink:href="#m1216a5c38e" y="157.564543"/>
    </g>
   </g>
   <g id="line2d_46">
    <path clip-path="url(#p4812a3edff)" d="M 115.363636 106.869989 
L 128.370629 114.80736 
L 154.384615 123.458317 
L 232.426573 152.738777 
L 362.496503 185.197035 
L 622.636364 186.256051 
" style="fill:none;stroke:#4285f4;stroke-linecap:square;stroke-width:1.5;"/>
    <defs>
     <path d="M 0 3 
C 0.795609 3 1.55874 2.683901 2.12132 2.12132 
C 2.683901 1.55874 3 0.795609 3 0 
C 3 -0.795609 2.683901 -1.55874 2.12132 -2.12132 
C 1.55874 -2.683901 0.795609 -3 0 -3 
C -0.795609 -3 -1.55874 -2.683901 -2.12132 -2.12132 
C -2.683901 -1.55874 -3 -0.795609 -3 0 
C -3 0.795609 -2.683901 1.55874 -2.12132 2.12132 
C -1.55874 2.683901 -0.795609 3 0 3 
z
" id="m5d5b697f28" style="stroke:#4285f4;"/>
    </defs>
    <g clip-path="url(#p4812a3edff)">
     <use style="fill:#4285f4;stroke:#4285f4;" x="115.363636" xlink:href="#m5d5b697f28" y="106.869989"/>
     <use style="fill:#4285f4;stroke:#4285f4;" x="128.370629" xlink:href="#m5d5b697f28" y="114.80736"/>
     <use style="fill:#4285f4;stroke:#4285f4;" x="154.384615" xlink:href="#m5d5b697f28" y="123.458317"/>
     <use style="fill:#4285f4;stroke:#4285f4;" x="232.426573" xlink:href="#m5d5b697f28" y="152.738777"/>
     <use style="fill:#4285f4;stroke:#4285f4;" x="362.496503" xlink:href="#m5d5b697f28" y="185.197035"/>
     <use style="fill:#4285f4;stroke:#4285f4;" x="622.636364" xlink:href="#m5d5b697f28" y="186.256051"/>
    </g>
   </g>
   <g id="line2d_47">
    <path clip-path="url(#p4812a3edff)" d="M 90 170.443636 
L 648 170.443636 
" style="fill:none;stroke:#000000;stroke-linecap:square;stroke-width:1.5;"/>
   </g>
   <g id="patch_3">
    <path d="M 90 378 
L 90 51.84 
" style="fill:none;stroke:#000000;stroke-linecap:square;stroke-linejoin:miter;stroke-width:0.8;"/>
   </g>
   <g id="patch_4">
    <path d="M 648 378 
L 648 51.84 
" style="fill:none;stroke:#000000;stroke-linecap:square;stroke-linejoin:miter;stroke-width:0.8;"/>
   </g>
   <g id="patch_5">
    <path d="M 90 378 
L 648 378 
" style="fill:none;stroke:#000000;stroke-linecap:square;stroke-linejoin:miter;stroke-width:0.8;"/>
   </g>
   <g id="patch_6">
    <path d="M 90 51.84 
L 648 51.84 
" style="fill:none;stroke:#000000;stroke-linecap:square;stroke-linejoin:miter;stroke-width:0.8;"/>
   </g>
   <g id="text_22">
    <!-- sigma -->
    <g transform="translate(350.877187 45.84)scale(0.12 -0.12)">
     <defs>
      <path d="M 44.28125 53.078125 
L 44.28125 44.578125 
Q 40.484375 46.53125 36.375 47.5 
Q 32.28125 48.484375 27.875 48.484375 
Q 21.1875 48.484375 17.84375 46.4375 
Q 14.5 44.390625 14.5 40.28125 
Q 14.5 37.15625 16.890625 35.375 
Q 19.28125 33.59375 26.515625 31.984375 
L 29.59375 31.296875 
Q 39.15625 29.25 43.1875 25.515625 
Q 47.21875 21.78125 47.21875 15.09375 
Q 47.21875 7.46875 41.1875 3.015625 
Q 35.15625 -1.421875 24.609375 -1.421875 
Q 20.21875 -1.421875 15.453125 -0.5625 
Q 10.6875 0.296875 5.421875 2 
L 5.421875 11.28125 
Q 10.40625 8.6875 15.234375 7.390625 
Q 20.0625 6.109375 24.8125 6.109375 
Q 31.15625 6.109375 34.5625 8.28125 
Q 37.984375 10.453125 37.984375 14.40625 
Q 37.984375 18.0625 35.515625 20.015625 
Q 33.0625 21.96875 24.703125 23.78125 
L 21.578125 24.515625 
Q 13.234375 26.265625 9.515625 29.90625 
Q 5.8125 33.546875 5.8125 39.890625 
Q 5.8125 47.609375 11.28125 51.796875 
Q 16.75 56 26.8125 56 
Q 31.78125 56 36.171875 55.265625 
Q 40.578125 54.546875 44.28125 53.078125 
z
" id="DejaVuSans-115"/>
      <path d="M 9.421875 54.6875 
L 18.40625 54.6875 
L 18.40625 0 
L 9.421875 0 
z
M 9.421875 75.984375 
L 18.40625 75.984375 
L 18.40625 64.59375 
L 9.421875 64.59375 
z
" id="DejaVuSans-105"/>
      <path d="M 45.40625 27.984375 
Q 45.40625 37.75 41.375 43.109375 
Q 37.359375 48.484375 30.078125 48.484375 
Q 22.859375 48.484375 18.828125 43.109375 
Q 14.796875 37.75 14.796875 27.984375 
Q 14.796875 18.265625 18.828125 12.890625 
Q 22.859375 7.515625 30.078125 7.515625 
Q 37.359375 7.515625 41.375 12.890625 
Q 45.40625 18.265625 45.40625 27.984375 
z
M 54.390625 6.78125 
Q 54.390625 -7.171875 48.1875 -13.984375 
Q 42 -20.796875 29.203125 -20.796875 
Q 24.46875 -20.796875 20.265625 -20.09375 
Q 16.0625 -19.390625 12.109375 -17.921875 
L 12.109375 -9.1875 
Q 16.0625 -11.328125 19.921875 -12.34375 
Q 23.78125 -13.375 27.78125 -13.375 
Q 36.625 -13.375 41.015625 -8.765625 
Q 45.40625 -4.15625 45.40625 5.171875 
L 45.40625 9.625 
Q 42.625 4.78125 38.28125 2.390625 
Q 33.9375 0 27.875 0 
Q 17.828125 0 11.671875 7.65625 
Q 5.515625 15.328125 5.515625 27.984375 
Q 5.515625 40.671875 11.671875 48.328125 
Q 17.828125 56 27.875 56 
Q 33.9375 56 38.28125 53.609375 
Q 42.625 51.21875 45.40625 46.390625 
L 45.40625 54.6875 
L 54.390625 54.6875 
z
" id="DejaVuSans-103"/>
      <path d="M 52 44.1875 
Q 55.375 50.25 60.0625 53.125 
Q 64.75 56 71.09375 56 
Q 79.640625 56 84.28125 50.015625 
Q 88.921875 44.046875 88.921875 33.015625 
L 88.921875 0 
L 79.890625 0 
L 79.890625 32.71875 
Q 79.890625 40.578125 77.09375 44.375 
Q 74.3125 48.1875 68.609375 48.1875 
Q 61.625 48.1875 57.5625 43.546875 
Q 53.515625 38.921875 53.515625 30.90625 
L 53.515625 0 
L 44.484375 0 
L 44.484375 32.71875 
Q 44.484375 40.625 41.703125 44.40625 
Q 38.921875 48.1875 33.109375 48.1875 
Q 26.21875 48.1875 22.15625 43.53125 
Q 18.109375 38.875 18.109375 30.90625 
L 18.109375 0 
L 9.078125 0 
L 9.078125 54.6875 
L 18.109375 54.6875 
L 18.109375 46.1875 
Q 21.1875 51.21875 25.484375 53.609375 
Q 29.78125 56 35.6875 56 
Q 41.65625 56 45.828125 52.96875 
Q 50 49.953125 52 44.1875 
z
" id="DejaVuSans-109"/>
      <path d="M 34.28125 27.484375 
Q 23.390625 27.484375 19.1875 25 
Q 14.984375 22.515625 14.984375 16.5 
Q 14.984375 11.71875 18.140625 8.90625 
Q 21.296875 6.109375 26.703125 6.109375 
Q 34.1875 6.109375 38.703125 11.40625 
Q 43.21875 16.703125 43.21875 25.484375 
L 43.21875 27.484375 
z
M 52.203125 31.203125 
L 52.203125 0 
L 43.21875 0 
L 43.21875 8.296875 
Q 40.140625 3.328125 35.546875 0.953125 
Q 30.953125 -1.421875 24.3125 -1.421875 
Q 15.921875 -1.421875 10.953125 3.296875 
Q 6 8.015625 6 15.921875 
Q 6 25.140625 12.171875 29.828125 
Q 18.359375 34.515625 30.609375 34.515625 
L 43.21875 34.515625 
L 43.21875 35.40625 
Q 43.21875 41.609375 39.140625 45 
Q 35.0625 48.390625 27.6875 48.390625 
Q 23 48.390625 18.546875 47.265625 
Q 14.109375 46.140625 10.015625 43.890625 
L 10.015625 52.203125 
Q 14.9375 54.109375 19.578125 55.046875 
Q 24.21875 56 28.609375 56 
Q 40.484375 56 46.34375 49.84375 
Q 52.203125 43.703125 52.203125 31.203125 
z
" id="DejaVuSans-97"/>
     </defs>
     <use xlink:href="#DejaVuSans-115"/>
     <use x="52.099609" xlink:href="#DejaVuSans-105"/>
     <use x="79.882812" xlink:href="#DejaVuSans-103"/>
     <use x="143.359375" xlink:href="#DejaVuSans-109"/>
     <use x="240.771484" xlink:href="#DejaVuSans-97"/>
    </g>
   </g>
   <g id="legend_1">
    <g id="patch_7">
     <path d="M 537.792187 118.5525 
L 641 118.5525 
Q 643 118.5525 643 116.5525 
L 643 58.84 
Q 643 56.84 641 56.84 
L 537.792187 56.84 
Q 535.792187 56.84 535.792187 58.84 
L 535.792187 116.5525 
Q 535.792187 118.5525 537.792187 118.5525 
z
" style="fill:#ffffff;opacity:0.8;stroke:#cccccc;stroke-linejoin:miter;"/>
    </g>
    <g id="line2d_48">
     <path d="M 539.792187 64.938438 
L 559.792187 64.938438 
" style="fill:none;stroke:#ea4335;stroke-linecap:square;stroke-width:1.5;"/>
    </g>
    <g id="line2d_49">
     <g>
      <use style="fill:#ea4335;stroke:#ea4335;" x="549.792187" xlink:href="#mb2c3805973" y="64.938438"/>
     </g>
    </g>
    <g id="text_23">
     <!-- JSD, SD=4 -->
     <g transform="translate(567.792187 68.438438)scale(0.1 -0.1)">
      <defs>
       <path d="M 9.8125 72.90625 
L 19.671875 72.90625 
L 19.671875 5.078125 
Q 19.671875 -8.109375 14.671875 -14.0625 
Q 9.671875 -20.015625 -1.421875 -20.015625 
L -5.171875 -20.015625 
L -5.171875 -11.71875 
L -2.09375 -11.71875 
Q 4.4375 -11.71875 7.125 -8.046875 
Q 9.8125 -4.390625 9.8125 5.078125 
z
" id="DejaVuSans-74"/>
       <path d="M 53.515625 70.515625 
L 53.515625 60.890625 
Q 47.90625 63.578125 42.921875 64.890625 
Q 37.9375 66.21875 33.296875 66.21875 
Q 25.25 66.21875 20.875 63.09375 
Q 16.5 59.96875 16.5 54.203125 
Q 16.5 49.359375 19.40625 46.890625 
Q 22.3125 44.4375 30.421875 42.921875 
L 36.375 41.703125 
Q 47.40625 39.59375 52.65625 34.296875 
Q 57.90625 29 57.90625 20.125 
Q 57.90625 9.515625 50.796875 4.046875 
Q 43.703125 -1.421875 29.984375 -1.421875 
Q 24.8125 -1.421875 18.96875 -0.25 
Q 13.140625 0.921875 6.890625 3.21875 
L 6.890625 13.375 
Q 12.890625 10.015625 18.65625 8.296875 
Q 24.421875 6.59375 29.984375 6.59375 
Q 38.421875 6.59375 43.015625 9.90625 
Q 47.609375 13.234375 47.609375 19.390625 
Q 47.609375 24.75 44.3125 27.78125 
Q 41.015625 30.8125 33.5 32.328125 
L 27.484375 33.5 
Q 16.453125 35.6875 11.515625 40.375 
Q 6.59375 45.0625 6.59375 53.421875 
Q 6.59375 63.09375 13.40625 68.65625 
Q 20.21875 74.21875 32.171875 74.21875 
Q 37.3125 74.21875 42.625 73.28125 
Q 47.953125 72.359375 53.515625 70.515625 
z
" id="DejaVuSans-83"/>
       <path d="M 19.671875 64.796875 
L 19.671875 8.109375 
L 31.59375 8.109375 
Q 46.6875 8.109375 53.6875 14.9375 
Q 60.6875 21.78125 60.6875 36.53125 
Q 60.6875 51.171875 53.6875 57.984375 
Q 46.6875 64.796875 31.59375 64.796875 
z
M 9.8125 72.90625 
L 30.078125 72.90625 
Q 51.265625 72.90625 61.171875 64.09375 
Q 71.09375 55.28125 71.09375 36.53125 
Q 71.09375 17.671875 61.125 8.828125 
Q 51.171875 0 30.078125 0 
L 9.8125 0 
z
" id="DejaVuSans-68"/>
       <path d="M 11.71875 12.40625 
L 22.015625 12.40625 
L 22.015625 4 
L 14.015625 -11.625 
L 7.71875 -11.625 
L 11.71875 4 
z
" id="DejaVuSans-44"/>
       <path id="DejaVuSans-32"/>
       <path d="M 10.59375 45.40625 
L 73.1875 45.40625 
L 73.1875 37.203125 
L 10.59375 37.203125 
z
M 10.59375 25.484375 
L 73.1875 25.484375 
L 73.1875 17.1875 
L 10.59375 17.1875 
z
" id="DejaVuSans-61"/>
       <path d="M 37.796875 64.3125 
L 12.890625 25.390625 
L 37.796875 25.390625 
z
M 35.203125 72.90625 
L 47.609375 72.90625 
L 47.609375 25.390625 
L 58.015625 25.390625 
L 58.015625 17.1875 
L 47.609375 17.1875 
L 47.609375 0 
L 37.796875 0 
L 37.796875 17.1875 
L 4.890625 17.1875 
L 4.890625 26.703125 
z
" id="DejaVuSans-52"/>
      </defs>
      <use xlink:href="#DejaVuSans-74"/>
      <use x="29.492188" xlink:href="#DejaVuSans-83"/>
      <use x="92.96875" xlink:href="#DejaVuSans-68"/>
      <use x="169.970703" xlink:href="#DejaVuSans-44"/>
      <use x="201.757812" xlink:href="#DejaVuSans-32"/>
      <use x="233.544922" xlink:href="#DejaVuSans-83"/>
      <use x="297.021484" xlink:href="#DejaVuSans-68"/>
      <use x="374.023438" xlink:href="#DejaVuSans-61"/>
      <use x="457.8125" xlink:href="#DejaVuSans-52"/>
     </g>
    </g>
    <g id="line2d_50">
     <path d="M 539.792187 79.616563 
L 559.792187 79.616563 
" style="fill:none;stroke:#fbbc04;stroke-linecap:square;stroke-width:1.5;"/>
    </g>
    <g id="line2d_51">
     <g>
      <use style="fill:#fbbc04;stroke:#fbbc04;" x="549.792187" xlink:href="#mb0d374dad5" y="79.616563"/>
     </g>
    </g>
    <g id="text_24">
     <!-- JSDu, SD=4 -->
     <g transform="translate(567.792187 83.116563)scale(0.1 -0.1)">
      <defs>
       <path d="M 8.5 21.578125 
L 8.5 54.6875 
L 17.484375 54.6875 
L 17.484375 21.921875 
Q 17.484375 14.15625 20.5 10.265625 
Q 23.53125 6.390625 29.59375 6.390625 
Q 36.859375 6.390625 41.078125 11.03125 
Q 45.3125 15.671875 45.3125 23.6875 
L 45.3125 54.6875 
L 54.296875 54.6875 
L 54.296875 0 
L 45.3125 0 
L 45.3125 8.40625 
Q 42.046875 3.421875 37.71875 1 
Q 33.40625 -1.421875 27.6875 -1.421875 
Q 18.265625 -1.421875 13.375 4.4375 
Q 8.5 10.296875 8.5 21.578125 
z
M 31.109375 56 
z
" id="DejaVuSans-117"/>
      </defs>
      <use xlink:href="#DejaVuSans-74"/>
      <use x="29.492188" xlink:href="#DejaVuSans-83"/>
      <use x="92.96875" xlink:href="#DejaVuSans-68"/>
      <use x="169.970703" xlink:href="#DejaVuSans-117"/>
      <use x="233.349609" xlink:href="#DejaVuSans-44"/>
      <use x="265.136719" xlink:href="#DejaVuSans-32"/>
      <use x="296.923828" xlink:href="#DejaVuSans-83"/>
      <use x="360.400391" xlink:href="#DejaVuSans-68"/>
      <use x="437.402344" xlink:href="#DejaVuSans-61"/>
      <use x="521.191406" xlink:href="#DejaVuSans-52"/>
     </g>
    </g>
    <g id="line2d_52">
     <path d="M 539.792187 94.294688 
L 559.792187 94.294688 
" style="fill:none;stroke:#34a853;stroke-linecap:square;stroke-width:1.5;"/>
    </g>
    <g id="line2d_53">
     <g>
      <use style="fill:#34a853;stroke:#34a853;" x="549.792187" xlink:href="#m1216a5c38e" y="94.294688"/>
     </g>
    </g>
    <g id="text_25">
     <!-- JSD, SD=100 -->
     <g transform="translate(567.792187 97.794688)scale(0.1 -0.1)">
      <use xlink:href="#DejaVuSans-74"/>
      <use x="29.492188" xlink:href="#DejaVuSans-83"/>
      <use x="92.96875" xlink:href="#DejaVuSans-68"/>
      <use x="169.970703" xlink:href="#DejaVuSans-44"/>
      <use x="201.757812" xlink:href="#DejaVuSans-32"/>
      <use x="233.544922" xlink:href="#DejaVuSans-83"/>
      <use x="297.021484" xlink:href="#DejaVuSans-68"/>
      <use x="374.023438" xlink:href="#DejaVuSans-61"/>
      <use x="457.8125" xlink:href="#DejaVuSans-49"/>
      <use x="521.435547" xlink:href="#DejaVuSans-48"/>
      <use x="585.058594" xlink:href="#DejaVuSans-48"/>
     </g>
    </g>
    <g id="line2d_54">
     <path d="M 539.792187 108.972813 
L 559.792187 108.972813 
" style="fill:none;stroke:#4285f4;stroke-linecap:square;stroke-width:1.5;"/>
    </g>
    <g id="line2d_55">
     <g>
      <use style="fill:#4285f4;stroke:#4285f4;" x="549.792187" xlink:href="#m5d5b697f28" y="108.972813"/>
     </g>
    </g>
    <g id="text_26">
     <!-- JSDu, SD=100 -->
     <g transform="translate(567.792187 112.472813)scale(0.1 -0.1)">
      <use xlink:href="#DejaVuSans-74"/>
      <use x="29.492188" xlink:href="#DejaVuSans-83"/>
      <use x="92.96875" xlink:href="#DejaVuSans-68"/>
      <use x="169.970703" xlink:href="#DejaVuSans-117"/>
      <use x="233.349609" xlink:href="#DejaVuSans-44"/>
      <use x="265.136719" xlink:href="#DejaVuSans-32"/>
      <use x="296.923828" xlink:href="#DejaVuSans-83"/>
      <use x="360.400391" xlink:href="#DejaVuSans-68"/>
      <use x="437.402344" xlink:href="#DejaVuSans-61"/>
      <use x="521.191406" xlink:href="#DejaVuSans-49"/>
      <use x="584.814453" xlink:href="#DejaVuSans-48"/>
      <use x="648.4375" xlink:href="#DejaVuSans-48"/>
     </g>
    </g>
   </g>
  </g>
 </g>
 <defs>
  <clipPath id="p4812a3edff">
   <rect height="326.16" width="558" x="90" y="51.84"/>
  </clipPath>
 </defs>
</svg>
