<?xml version="1.0" encoding="utf-8" standalone="no"?>
<!DOCTYPE svg PUBLIC "-//W3C//DTD SVG 1.1//EN"
  "http://www.w3.org/Graphics/SVG/1.1/DTD/svg11.dtd">
<!-- Created with matplotlib (https://matplotlib.org/) -->
<svg height="432pt" version="1.1" viewBox="0 0 720 432" width="720pt" xmlns="http://www.w3.org/2000/svg" xmlns:xlink="http://www.w3.org/1999/xlink">
 <metadata>
  <rdf:RDF xmlns:cc="http://creativecommons.org/ns#" xmlns:dc="http://purl.org/dc/elements/1.1/" xmlns:rdf="http://www.w3.org/1999/02/22-rdf-syntax-ns#">
   <cc:Work>
    <dc:type rdf:resource="http://purl.org/dc/dcmitype/StillImage"/>
    <dc:date>2021-02-28T14:54:20.459093</dc:date>
    <dc:format>image/svg+xml</dc:format>
    <dc:creator>
     <cc:Agent>
      <dc:title>Matplotlib v3.3.2, https://matplotlib.org/</dc:title>
     </cc:Agent>
    </dc:creator>
   </cc:Work>
  </rdf:RDF>
 </metadata>
 <defs>
  <style type="text/css">*{stroke-linecap:butt;stroke-linejoin:round;}</style>
 </defs>
 <g id="figure_1">
  <g id="patch_1">
   <path d="M 0 432 
L 720 432 
L 720 0 
L 0 0 
z
" style="fill:none;"/>
  </g>
  <g id="axes_1">
   <g id="patch_2">
    <path d="M 90 378 
L 648 378 
L 648 51.84 
L 90 51.84 
z
" style="fill:#ffffff;"/>
   </g>
   <g id="patch_3">
    <path clip-path="url(#p7d1e5d1fd6)" d="M 115.363636 170.443636 
L 126.391304 170.443636 
L 126.391304 62.440704 
L 115.363636 62.440704 
z
" style="fill:#ea4335;"/>
   </g>
   <g id="patch_4">
    <path clip-path="url(#p7d1e5d1fd6)" d="M 225.640316 170.443636 
L 236.667984 170.443636 
L 236.667984 495.247328 
L 225.640316 495.247328 
z
" style="fill:#ea4335;"/>
   </g>
   <g id="patch_5">
    <path clip-path="url(#p7d1e5d1fd6)" d="M 335.916996 170.443636 
L 346.944664 170.443636 
L 346.944664 59.759848 
L 335.916996 59.759848 
z
" style="fill:#ea4335;"/>
   </g>
   <g id="patch_6">
    <path clip-path="url(#p7d1e5d1fd6)" d="M 446.193676 170.443636 
L 457.221344 170.443636 
L 457.221344 69.359361 
L 446.193676 69.359361 
z
" style="fill:#ea4335;"/>
   </g>
   <g id="patch_7">
    <path clip-path="url(#p7d1e5d1fd6)" d="M 556.470356 170.443636 
L 567.498024 170.443636 
L 567.498024 65.103708 
L 556.470356 65.103708 
z
" style="fill:#ea4335;"/>
   </g>
   <g id="patch_8">
    <path clip-path="url(#p7d1e5d1fd6)" d="M 126.391304 170.443636 
L 137.418972 170.443636 
L 137.418972 58.453148 
L 126.391304 58.453148 
z
" style="fill:#fbbc04;"/>
   </g>
   <g id="patch_9">
    <path clip-path="url(#p7d1e5d1fd6)" d="M 236.667984 170.443636 
L 247.695652 170.443636 
L 247.695652 193.233923 
L 236.667984 193.233923 
z
" style="fill:#fbbc04;"/>
   </g>
   <g id="patch_10">
    <path clip-path="url(#p7d1e5d1fd6)" d="M 346.944664 170.443636 
L 357.972332 170.443636 
L 357.972332 57.287279 
L 346.944664 57.287279 
z
" style="fill:#fbbc04;"/>
   </g>
   <g id="patch_11">
    <path clip-path="url(#p7d1e5d1fd6)" d="M 457.221344 170.443636 
L 468.249012 170.443636 
L 468.249012 63.611241 
L 457.221344 63.611241 
z
" style="fill:#fbbc04;"/>
   </g>
   <g id="patch_12">
    <path clip-path="url(#p7d1e5d1fd6)" d="M 567.498024 170.443636 
L 578.525692 170.443636 
L 578.525692 60.240056 
L 567.498024 60.240056 
z
" style="fill:#fbbc04;"/>
   </g>
   <g id="patch_13">
    <path clip-path="url(#p7d1e5d1fd6)" d="M 137.418972 170.443636 
L 148.44664 170.443636 
L 148.44664 188.810629 
L 137.418972 188.810629 
z
" style="fill:#4285f4;"/>
   </g>
   <g id="patch_14">
    <path clip-path="url(#p7d1e5d1fd6)" d="M 247.695652 170.443636 
L 258.72332 170.443636 
L 258.72332 250.183477 
L 247.695652 250.183477 
z
" style="fill:#4285f4;"/>
   </g>
   <g id="patch_15">
    <path clip-path="url(#p7d1e5d1fd6)" d="M 357.972332 170.443636 
L 369 170.443636 
L 369 190.43559 
L 357.972332 190.43559 
z
" style="fill:#4285f4;"/>
   </g>
   <g id="patch_16">
    <path clip-path="url(#p7d1e5d1fd6)" d="M 468.249012 170.443636 
L 479.27668 170.443636 
L 479.27668 188.648326 
L 468.249012 188.648326 
z
" style="fill:#4285f4;"/>
   </g>
   <g id="patch_17">
    <path clip-path="url(#p7d1e5d1fd6)" d="M 578.525692 170.443636 
L 589.55336 170.443636 
L 589.55336 189.582085 
L 578.525692 189.582085 
z
" style="fill:#4285f4;"/>
   </g>
   <g id="patch_18">
    <path clip-path="url(#p7d1e5d1fd6)" d="M 148.44664 170.443636 
L 159.474308 170.443636 
L 159.474308 150.804851 
L 148.44664 150.804851 
z
"/>
   </g>
   <g id="patch_19">
    <path clip-path="url(#p7d1e5d1fd6)" d="M 258.72332 170.443636 
L 269.750988 170.443636 
L 269.750988 183.211898 
L 258.72332 183.211898 
z
"/>
   </g>
   <g id="patch_20">
    <path clip-path="url(#p7d1e5d1fd6)" d="M 369 170.443636 
L 380.027668 170.443636 
L 380.027668 148.392377 
L 369 148.392377 
z
"/>
   </g>
   <g id="patch_21">
    <path clip-path="url(#p7d1e5d1fd6)" d="M 479.27668 170.443636 
L 490.304348 170.443636 
L 490.304348 148.374254 
L 479.27668 148.374254 
z
"/>
   </g>
   <g id="patch_22">
    <path clip-path="url(#p7d1e5d1fd6)" d="M 589.55336 170.443636 
L 600.581028 170.443636 
L 600.581028 151.629853 
L 589.55336 151.629853 
z
"/>
   </g>
   <g id="patch_23">
    <path clip-path="url(#p7d1e5d1fd6)" d="M 159.474308 170.443636 
L 170.501976 170.443636 
L 170.501976 88.902606 
L 159.474308 88.902606 
z
" style="fill:#34a853;"/>
   </g>
   <g id="patch_24">
    <path clip-path="url(#p7d1e5d1fd6)" d="M 269.750988 170.443636 
L 280.778656 170.443636 
L 280.778656 234.582541 
L 269.750988 234.582541 
z
" style="fill:#34a853;"/>
   </g>
   <g id="patch_25">
    <path clip-path="url(#p7d1e5d1fd6)" d="M 380.027668 170.443636 
L 391.055336 170.443636 
L 391.055336 77.505772 
L 380.027668 77.505772 
z
" style="fill:#34a853;"/>
   </g>
   <g id="patch_26">
    <path clip-path="url(#p7d1e5d1fd6)" d="M 490.304348 170.443636 
L 501.332016 170.443636 
L 501.332016 114.021616 
L 490.304348 114.021616 
z
" style="fill:#34a853;"/>
   </g>
   <g id="patch_27">
    <path clip-path="url(#p7d1e5d1fd6)" d="M 600.581028 170.443636 
L 611.608696 170.443636 
L 611.608696 91.880922 
L 600.581028 91.880922 
z
" style="fill:#34a853;"/>
   </g>
   <g id="patch_28">
    <path clip-path="url(#p7d1e5d1fd6)" d="M 170.501976 170.443636 
L 181.529644 170.443636 
L 181.529644 70.832911 
L 170.501976 70.832911 
z
" style="fill:#46bdc6;"/>
   </g>
   <g id="patch_29">
    <path clip-path="url(#p7d1e5d1fd6)" d="M 280.778656 170.443636 
L 291.806324 170.443636 
L 291.806324 228.589583 
L 280.778656 228.589583 
z
" style="fill:#46bdc6;"/>
   </g>
   <g id="patch_30">
    <path clip-path="url(#p7d1e5d1fd6)" d="M 391.055336 170.443636 
L 402.083004 170.443636 
L 402.083004 67.227964 
L 391.055336 67.227964 
z
" style="fill:#46bdc6;"/>
   </g>
   <g id="patch_31">
    <path clip-path="url(#p7d1e5d1fd6)" d="M 501.332016 170.443636 
L 512.359684 170.443636 
L 512.359684 195.475744 
L 501.332016 195.475744 
z
" style="fill:#46bdc6;"/>
   </g>
   <g id="patch_32">
    <path clip-path="url(#p7d1e5d1fd6)" d="M 611.608696 170.443636 
L 622.636364 170.443636 
L 622.636364 72.076048 
L 611.608696 72.076048 
z
" style="fill:#46bdc6;"/>
   </g>
   <g id="matplotlib.axis_1">
    <g id="xtick_1">
     <g id="line2d_1">
      <defs>
       <path d="M 0 0 
L 0 3.5 
" id="m66f414e17c" style="stroke:#000000;stroke-width:0.8;"/>
      </defs>
      <g>
       <use style="stroke:#000000;stroke-width:0.8;" x="142.932806" xlink:href="#m66f414e17c" y="378"/>
      </g>
     </g>
     <g id="text_1">
      <!-- ['sin', 'cos', 'linear', 'relu', 'swish'] -->
      <g transform="translate(59.424213 392.598437)scale(0.1 -0.1)">
       <defs>
        <path d="M 8.59375 75.984375 
L 29.296875 75.984375 
L 29.296875 69 
L 17.578125 69 
L 17.578125 -6.203125 
L 29.296875 -6.203125 
L 29.296875 -13.1875 
L 8.59375 -13.1875 
z
" id="DejaVuSans-91"/>
        <path d="M 17.921875 72.90625 
L 17.921875 45.796875 
L 9.625 45.796875 
L 9.625 72.90625 
z
" id="DejaVuSans-39"/>
        <path d="M 44.28125 53.078125 
L 44.28125 44.578125 
Q 40.484375 46.53125 36.375 47.5 
Q 32.28125 48.484375 27.875 48.484375 
Q 21.1875 48.484375 17.84375 46.4375 
Q 14.5 44.390625 14.5 40.28125 
Q 14.5 37.15625 16.890625 35.375 
Q 19.28125 33.59375 26.515625 31.984375 
L 29.59375 31.296875 
Q 39.15625 29.25 43.1875 25.515625 
Q 47.21875 21.78125 47.21875 15.09375 
Q 47.21875 7.46875 41.1875 3.015625 
Q 35.15625 -1.421875 24.609375 -1.421875 
Q 20.21875 -1.421875 15.453125 -0.5625 
Q 10.6875 0.296875 5.421875 2 
L 5.421875 11.28125 
Q 10.40625 8.6875 15.234375 7.390625 
Q 20.0625 6.109375 24.8125 6.109375 
Q 31.15625 6.109375 34.5625 8.28125 
Q 37.984375 10.453125 37.984375 14.40625 
Q 37.984375 18.0625 35.515625 20.015625 
Q 33.0625 21.96875 24.703125 23.78125 
L 21.578125 24.515625 
Q 13.234375 26.265625 9.515625 29.90625 
Q 5.8125 33.546875 5.8125 39.890625 
Q 5.8125 47.609375 11.28125 51.796875 
Q 16.75 56 26.8125 56 
Q 31.78125 56 36.171875 55.265625 
Q 40.578125 54.546875 44.28125 53.078125 
z
" id="DejaVuSans-115"/>
        <path d="M 9.421875 54.6875 
L 18.40625 54.6875 
L 18.40625 0 
L 9.421875 0 
z
M 9.421875 75.984375 
L 18.40625 75.984375 
L 18.40625 64.59375 
L 9.421875 64.59375 
z
" id="DejaVuSans-105"/>
        <path d="M 54.890625 33.015625 
L 54.890625 0 
L 45.90625 0 
L 45.90625 32.71875 
Q 45.90625 40.484375 42.875 44.328125 
Q 39.84375 48.1875 33.796875 48.1875 
Q 26.515625 48.1875 22.3125 43.546875 
Q 18.109375 38.921875 18.109375 30.90625 
L 18.109375 0 
L 9.078125 0 
L 9.078125 54.6875 
L 18.109375 54.6875 
L 18.109375 46.1875 
Q 21.34375 51.125 25.703125 53.5625 
Q 30.078125 56 35.796875 56 
Q 45.21875 56 50.046875 50.171875 
Q 54.890625 44.34375 54.890625 33.015625 
z
" id="DejaVuSans-110"/>
        <path d="M 11.71875 12.40625 
L 22.015625 12.40625 
L 22.015625 4 
L 14.015625 -11.625 
L 7.71875 -11.625 
L 11.71875 4 
z
" id="DejaVuSans-44"/>
        <path id="DejaVuSans-32"/>
        <path d="M 48.78125 52.59375 
L 48.78125 44.1875 
Q 44.96875 46.296875 41.140625 47.34375 
Q 37.3125 48.390625 33.40625 48.390625 
Q 24.65625 48.390625 19.8125 42.84375 
Q 14.984375 37.3125 14.984375 27.296875 
Q 14.984375 17.28125 19.8125 11.734375 
Q 24.65625 6.203125 33.40625 6.203125 
Q 37.3125 6.203125 41.140625 7.25 
Q 44.96875 8.296875 48.78125 10.40625 
L 48.78125 2.09375 
Q 45.015625 0.34375 40.984375 -0.53125 
Q 36.96875 -1.421875 32.421875 -1.421875 
Q 20.0625 -1.421875 12.78125 6.34375 
Q 5.515625 14.109375 5.515625 27.296875 
Q 5.515625 40.671875 12.859375 48.328125 
Q 20.21875 56 33.015625 56 
Q 37.15625 56 41.109375 55.140625 
Q 45.0625 54.296875 48.78125 52.59375 
z
" id="DejaVuSans-99"/>
        <path d="M 30.609375 48.390625 
Q 23.390625 48.390625 19.1875 42.75 
Q 14.984375 37.109375 14.984375 27.296875 
Q 14.984375 17.484375 19.15625 11.84375 
Q 23.34375 6.203125 30.609375 6.203125 
Q 37.796875 6.203125 41.984375 11.859375 
Q 46.1875 17.53125 46.1875 27.296875 
Q 46.1875 37.015625 41.984375 42.703125 
Q 37.796875 48.390625 30.609375 48.390625 
z
M 30.609375 56 
Q 42.328125 56 49.015625 48.375 
Q 55.71875 40.765625 55.71875 27.296875 
Q 55.71875 13.875 49.015625 6.21875 
Q 42.328125 -1.421875 30.609375 -1.421875 
Q 18.84375 -1.421875 12.171875 6.21875 
Q 5.515625 13.875 5.515625 27.296875 
Q 5.515625 40.765625 12.171875 48.375 
Q 18.84375 56 30.609375 56 
z
" id="DejaVuSans-111"/>
        <path d="M 9.421875 75.984375 
L 18.40625 75.984375 
L 18.40625 0 
L 9.421875 0 
z
" id="DejaVuSans-108"/>
        <path d="M 56.203125 29.59375 
L 56.203125 25.203125 
L 14.890625 25.203125 
Q 15.484375 15.921875 20.484375 11.0625 
Q 25.484375 6.203125 34.421875 6.203125 
Q 39.59375 6.203125 44.453125 7.46875 
Q 49.3125 8.734375 54.109375 11.28125 
L 54.109375 2.78125 
Q 49.265625 0.734375 44.1875 -0.34375 
Q 39.109375 -1.421875 33.890625 -1.421875 
Q 20.796875 -1.421875 13.15625 6.1875 
Q 5.515625 13.8125 5.515625 26.8125 
Q 5.515625 40.234375 12.765625 48.109375 
Q 20.015625 56 32.328125 56 
Q 43.359375 56 49.78125 48.890625 
Q 56.203125 41.796875 56.203125 29.59375 
z
M 47.21875 32.234375 
Q 47.125 39.59375 43.09375 43.984375 
Q 39.0625 48.390625 32.421875 48.390625 
Q 24.90625 48.390625 20.390625 44.140625 
Q 15.875 39.890625 15.1875 32.171875 
z
" id="DejaVuSans-101"/>
        <path d="M 34.28125 27.484375 
Q 23.390625 27.484375 19.1875 25 
Q 14.984375 22.515625 14.984375 16.5 
Q 14.984375 11.71875 18.140625 8.90625 
Q 21.296875 6.109375 26.703125 6.109375 
Q 34.1875 6.109375 38.703125 11.40625 
Q 43.21875 16.703125 43.21875 25.484375 
L 43.21875 27.484375 
z
M 52.203125 31.203125 
L 52.203125 0 
L 43.21875 0 
L 43.21875 8.296875 
Q 40.140625 3.328125 35.546875 0.953125 
Q 30.953125 -1.421875 24.3125 -1.421875 
Q 15.921875 -1.421875 10.953125 3.296875 
Q 6 8.015625 6 15.921875 
Q 6 25.140625 12.171875 29.828125 
Q 18.359375 34.515625 30.609375 34.515625 
L 43.21875 34.515625 
L 43.21875 35.40625 
Q 43.21875 41.609375 39.140625 45 
Q 35.0625 48.390625 27.6875 48.390625 
Q 23 48.390625 18.546875 47.265625 
Q 14.109375 46.140625 10.015625 43.890625 
L 10.015625 52.203125 
Q 14.9375 54.109375 19.578125 55.046875 
Q 24.21875 56 28.609375 56 
Q 40.484375 56 46.34375 49.84375 
Q 52.203125 43.703125 52.203125 31.203125 
z
" id="DejaVuSans-97"/>
        <path d="M 41.109375 46.296875 
Q 39.59375 47.171875 37.8125 47.578125 
Q 36.03125 48 33.890625 48 
Q 26.265625 48 22.1875 43.046875 
Q 18.109375 38.09375 18.109375 28.8125 
L 18.109375 0 
L 9.078125 0 
L 9.078125 54.6875 
L 18.109375 54.6875 
L 18.109375 46.1875 
Q 20.953125 51.171875 25.484375 53.578125 
Q 30.03125 56 36.53125 56 
Q 37.453125 56 38.578125 55.875 
Q 39.703125 55.765625 41.0625 55.515625 
z
" id="DejaVuSans-114"/>
        <path d="M 8.5 21.578125 
L 8.5 54.6875 
L 17.484375 54.6875 
L 17.484375 21.921875 
Q 17.484375 14.15625 20.5 10.265625 
Q 23.53125 6.390625 29.59375 6.390625 
Q 36.859375 6.390625 41.078125 11.03125 
Q 45.3125 15.671875 45.3125 23.6875 
L 45.3125 54.6875 
L 54.296875 54.6875 
L 54.296875 0 
L 45.3125 0 
L 45.3125 8.40625 
Q 42.046875 3.421875 37.71875 1 
Q 33.40625 -1.421875 27.6875 -1.421875 
Q 18.265625 -1.421875 13.375 4.4375 
Q 8.5 10.296875 8.5 21.578125 
z
M 31.109375 56 
z
" id="DejaVuSans-117"/>
        <path d="M 4.203125 54.6875 
L 13.1875 54.6875 
L 24.421875 12.015625 
L 35.59375 54.6875 
L 46.1875 54.6875 
L 57.421875 12.015625 
L 68.609375 54.6875 
L 77.59375 54.6875 
L 63.28125 0 
L 52.6875 0 
L 40.921875 44.828125 
L 29.109375 0 
L 18.5 0 
z
" id="DejaVuSans-119"/>
        <path d="M 54.890625 33.015625 
L 54.890625 0 
L 45.90625 0 
L 45.90625 32.71875 
Q 45.90625 40.484375 42.875 44.328125 
Q 39.84375 48.1875 33.796875 48.1875 
Q 26.515625 48.1875 22.3125 43.546875 
Q 18.109375 38.921875 18.109375 30.90625 
L 18.109375 0 
L 9.078125 0 
L 9.078125 75.984375 
L 18.109375 75.984375 
L 18.109375 46.1875 
Q 21.34375 51.125 25.703125 53.5625 
Q 30.078125 56 35.796875 56 
Q 45.21875 56 50.046875 50.171875 
Q 54.890625 44.34375 54.890625 33.015625 
z
" id="DejaVuSans-104"/>
        <path d="M 30.421875 75.984375 
L 30.421875 -13.1875 
L 9.71875 -13.1875 
L 9.71875 -6.203125 
L 21.390625 -6.203125 
L 21.390625 69 
L 9.71875 69 
L 9.71875 75.984375 
z
" id="DejaVuSans-93"/>
       </defs>
       <use xlink:href="#DejaVuSans-91"/>
       <use x="39.013672" xlink:href="#DejaVuSans-39"/>
       <use x="66.503906" xlink:href="#DejaVuSans-115"/>
       <use x="118.603516" xlink:href="#DejaVuSans-105"/>
       <use x="146.386719" xlink:href="#DejaVuSans-110"/>
       <use x="209.765625" xlink:href="#DejaVuSans-39"/>
       <use x="237.255859" xlink:href="#DejaVuSans-44"/>
       <use x="269.042969" xlink:href="#DejaVuSans-32"/>
       <use x="300.830078" xlink:href="#DejaVuSans-39"/>
       <use x="328.320312" xlink:href="#DejaVuSans-99"/>
       <use x="383.300781" xlink:href="#DejaVuSans-111"/>
       <use x="444.482422" xlink:href="#DejaVuSans-115"/>
       <use x="496.582031" xlink:href="#DejaVuSans-39"/>
       <use x="524.072266" xlink:href="#DejaVuSans-44"/>
       <use x="555.859375" xlink:href="#DejaVuSans-32"/>
       <use x="587.646484" xlink:href="#DejaVuSans-39"/>
       <use x="615.136719" xlink:href="#DejaVuSans-108"/>
       <use x="642.919922" xlink:href="#DejaVuSans-105"/>
       <use x="670.703125" xlink:href="#DejaVuSans-110"/>
       <use x="734.082031" xlink:href="#DejaVuSans-101"/>
       <use x="795.605469" xlink:href="#DejaVuSans-97"/>
       <use x="856.884766" xlink:href="#DejaVuSans-114"/>
       <use x="897.998047" xlink:href="#DejaVuSans-39"/>
       <use x="925.488281" xlink:href="#DejaVuSans-44"/>
       <use x="957.275391" xlink:href="#DejaVuSans-32"/>
       <use x="989.0625" xlink:href="#DejaVuSans-39"/>
       <use x="1016.552734" xlink:href="#DejaVuSans-114"/>
       <use x="1055.416016" xlink:href="#DejaVuSans-101"/>
       <use x="1116.939453" xlink:href="#DejaVuSans-108"/>
       <use x="1144.722656" xlink:href="#DejaVuSans-117"/>
       <use x="1208.101562" xlink:href="#DejaVuSans-39"/>
       <use x="1235.591797" xlink:href="#DejaVuSans-44"/>
       <use x="1267.378906" xlink:href="#DejaVuSans-32"/>
       <use x="1299.166016" xlink:href="#DejaVuSans-39"/>
       <use x="1326.65625" xlink:href="#DejaVuSans-115"/>
       <use x="1378.755859" xlink:href="#DejaVuSans-119"/>
       <use x="1460.542969" xlink:href="#DejaVuSans-105"/>
       <use x="1488.326172" xlink:href="#DejaVuSans-115"/>
       <use x="1540.425781" xlink:href="#DejaVuSans-104"/>
       <use x="1603.804688" xlink:href="#DejaVuSans-39"/>
       <use x="1631.294922" xlink:href="#DejaVuSans-93"/>
      </g>
     </g>
    </g>
    <g id="xtick_2">
     <g id="line2d_2">
      <g>
       <use style="stroke:#000000;stroke-width:0.8;" x="253.209486" xlink:href="#m66f414e17c" y="378"/>
      </g>
     </g>
     <g id="text_2">
      <!-- ['relu'] -->
      <g transform="translate(236.982142 392.598437)scale(0.1 -0.1)">
       <use xlink:href="#DejaVuSans-91"/>
       <use x="39.013672" xlink:href="#DejaVuSans-39"/>
       <use x="66.503906" xlink:href="#DejaVuSans-114"/>
       <use x="105.367188" xlink:href="#DejaVuSans-101"/>
       <use x="166.890625" xlink:href="#DejaVuSans-108"/>
       <use x="194.673828" xlink:href="#DejaVuSans-117"/>
       <use x="258.052734" xlink:href="#DejaVuSans-39"/>
       <use x="285.542969" xlink:href="#DejaVuSans-93"/>
      </g>
     </g>
    </g>
    <g id="xtick_3">
     <g id="line2d_3">
      <g>
       <use style="stroke:#000000;stroke-width:0.8;" x="363.486166" xlink:href="#m66f414e17c" y="378"/>
      </g>
     </g>
     <g id="text_3">
      <!-- ['relu', 'relu', 'relu', 'relu', 'relu'] -->
      <g transform="translate(285.243197 392.598437)scale(0.1 -0.1)">
       <use xlink:href="#DejaVuSans-91"/>
       <use x="39.013672" xlink:href="#DejaVuSans-39"/>
       <use x="66.503906" xlink:href="#DejaVuSans-114"/>
       <use x="105.367188" xlink:href="#DejaVuSans-101"/>
       <use x="166.890625" xlink:href="#DejaVuSans-108"/>
       <use x="194.673828" xlink:href="#DejaVuSans-117"/>
       <use x="258.052734" xlink:href="#DejaVuSans-39"/>
       <use x="285.542969" xlink:href="#DejaVuSans-44"/>
       <use x="317.330078" xlink:href="#DejaVuSans-32"/>
       <use x="349.117188" xlink:href="#DejaVuSans-39"/>
       <use x="376.607422" xlink:href="#DejaVuSans-114"/>
       <use x="415.470703" xlink:href="#DejaVuSans-101"/>
       <use x="476.994141" xlink:href="#DejaVuSans-108"/>
       <use x="504.777344" xlink:href="#DejaVuSans-117"/>
       <use x="568.15625" xlink:href="#DejaVuSans-39"/>
       <use x="595.646484" xlink:href="#DejaVuSans-44"/>
       <use x="627.433594" xlink:href="#DejaVuSans-32"/>
       <use x="659.220703" xlink:href="#DejaVuSans-39"/>
       <use x="686.710938" xlink:href="#DejaVuSans-114"/>
       <use x="725.574219" xlink:href="#DejaVuSans-101"/>
       <use x="787.097656" xlink:href="#DejaVuSans-108"/>
       <use x="814.880859" xlink:href="#DejaVuSans-117"/>
       <use x="878.259766" xlink:href="#DejaVuSans-39"/>
       <use x="905.75" xlink:href="#DejaVuSans-44"/>
       <use x="937.537109" xlink:href="#DejaVuSans-32"/>
       <use x="969.324219" xlink:href="#DejaVuSans-39"/>
       <use x="996.814453" xlink:href="#DejaVuSans-114"/>
       <use x="1035.677734" xlink:href="#DejaVuSans-101"/>
       <use x="1097.201172" xlink:href="#DejaVuSans-108"/>
       <use x="1124.984375" xlink:href="#DejaVuSans-117"/>
       <use x="1188.363281" xlink:href="#DejaVuSans-39"/>
       <use x="1215.853516" xlink:href="#DejaVuSans-44"/>
       <use x="1247.640625" xlink:href="#DejaVuSans-32"/>
       <use x="1279.427734" xlink:href="#DejaVuSans-39"/>
       <use x="1306.917969" xlink:href="#DejaVuSans-114"/>
       <use x="1345.78125" xlink:href="#DejaVuSans-101"/>
       <use x="1407.304688" xlink:href="#DejaVuSans-108"/>
       <use x="1435.087891" xlink:href="#DejaVuSans-117"/>
       <use x="1498.466797" xlink:href="#DejaVuSans-39"/>
       <use x="1525.957031" xlink:href="#DejaVuSans-93"/>
      </g>
     </g>
    </g>
    <g id="xtick_4">
     <g id="line2d_4">
      <g>
       <use style="stroke:#000000;stroke-width:0.8;" x="473.762846" xlink:href="#m66f414e17c" y="378"/>
      </g>
     </g>
     <g id="text_4">
      <!-- ['sin', 'cos', 'linear'] -->
      <g transform="translate(425.540971 392.598437)scale(0.1 -0.1)">
       <use xlink:href="#DejaVuSans-91"/>
       <use x="39.013672" xlink:href="#DejaVuSans-39"/>
       <use x="66.503906" xlink:href="#DejaVuSans-115"/>
       <use x="118.603516" xlink:href="#DejaVuSans-105"/>
       <use x="146.386719" xlink:href="#DejaVuSans-110"/>
       <use x="209.765625" xlink:href="#DejaVuSans-39"/>
       <use x="237.255859" xlink:href="#DejaVuSans-44"/>
       <use x="269.042969" xlink:href="#DejaVuSans-32"/>
       <use x="300.830078" xlink:href="#DejaVuSans-39"/>
       <use x="328.320312" xlink:href="#DejaVuSans-99"/>
       <use x="383.300781" xlink:href="#DejaVuSans-111"/>
       <use x="444.482422" xlink:href="#DejaVuSans-115"/>
       <use x="496.582031" xlink:href="#DejaVuSans-39"/>
       <use x="524.072266" xlink:href="#DejaVuSans-44"/>
       <use x="555.859375" xlink:href="#DejaVuSans-32"/>
       <use x="587.646484" xlink:href="#DejaVuSans-39"/>
       <use x="615.136719" xlink:href="#DejaVuSans-108"/>
       <use x="642.919922" xlink:href="#DejaVuSans-105"/>
       <use x="670.703125" xlink:href="#DejaVuSans-110"/>
       <use x="734.082031" xlink:href="#DejaVuSans-101"/>
       <use x="795.605469" xlink:href="#DejaVuSans-97"/>
       <use x="856.884766" xlink:href="#DejaVuSans-114"/>
       <use x="897.998047" xlink:href="#DejaVuSans-39"/>
       <use x="925.488281" xlink:href="#DejaVuSans-93"/>
      </g>
     </g>
    </g>
    <g id="xtick_5">
     <g id="line2d_5">
      <g>
       <use style="stroke:#000000;stroke-width:0.8;" x="584.039526" xlink:href="#m66f414e17c" y="378"/>
      </g>
     </g>
     <g id="text_5">
      <!-- ['sin', 'cos', 'linear', 'relu', 'sigmoid'] -->
      <g transform="translate(494.726244 392.598437)scale(0.1 -0.1)">
       <defs>
        <path d="M 45.40625 27.984375 
Q 45.40625 37.75 41.375 43.109375 
Q 37.359375 48.484375 30.078125 48.484375 
Q 22.859375 48.484375 18.828125 43.109375 
Q 14.796875 37.75 14.796875 27.984375 
Q 14.796875 18.265625 18.828125 12.890625 
Q 22.859375 7.515625 30.078125 7.515625 
Q 37.359375 7.515625 41.375 12.890625 
Q 45.40625 18.265625 45.40625 27.984375 
z
M 54.390625 6.78125 
Q 54.390625 -7.171875 48.1875 -13.984375 
Q 42 -20.796875 29.203125 -20.796875 
Q 24.46875 -20.796875 20.265625 -20.09375 
Q 16.0625 -19.390625 12.109375 -17.921875 
L 12.109375 -9.1875 
Q 16.0625 -11.328125 19.921875 -12.34375 
Q 23.78125 -13.375 27.78125 -13.375 
Q 36.625 -13.375 41.015625 -8.765625 
Q 45.40625 -4.15625 45.40625 5.171875 
L 45.40625 9.625 
Q 42.625 4.78125 38.28125 2.390625 
Q 33.9375 0 27.875 0 
Q 17.828125 0 11.671875 7.65625 
Q 5.515625 15.328125 5.515625 27.984375 
Q 5.515625 40.671875 11.671875 48.328125 
Q 17.828125 56 27.875 56 
Q 33.9375 56 38.28125 53.609375 
Q 42.625 51.21875 45.40625 46.390625 
L 45.40625 54.6875 
L 54.390625 54.6875 
z
" id="DejaVuSans-103"/>
        <path d="M 52 44.1875 
Q 55.375 50.25 60.0625 53.125 
Q 64.75 56 71.09375 56 
Q 79.640625 56 84.28125 50.015625 
Q 88.921875 44.046875 88.921875 33.015625 
L 88.921875 0 
L 79.890625 0 
L 79.890625 32.71875 
Q 79.890625 40.578125 77.09375 44.375 
Q 74.3125 48.1875 68.609375 48.1875 
Q 61.625 48.1875 57.5625 43.546875 
Q 53.515625 38.921875 53.515625 30.90625 
L 53.515625 0 
L 44.484375 0 
L 44.484375 32.71875 
Q 44.484375 40.625 41.703125 44.40625 
Q 38.921875 48.1875 33.109375 48.1875 
Q 26.21875 48.1875 22.15625 43.53125 
Q 18.109375 38.875 18.109375 30.90625 
L 18.109375 0 
L 9.078125 0 
L 9.078125 54.6875 
L 18.109375 54.6875 
L 18.109375 46.1875 
Q 21.1875 51.21875 25.484375 53.609375 
Q 29.78125 56 35.6875 56 
Q 41.65625 56 45.828125 52.96875 
Q 50 49.953125 52 44.1875 
z
" id="DejaVuSans-109"/>
        <path d="M 45.40625 46.390625 
L 45.40625 75.984375 
L 54.390625 75.984375 
L 54.390625 0 
L 45.40625 0 
L 45.40625 8.203125 
Q 42.578125 3.328125 38.25 0.953125 
Q 33.9375 -1.421875 27.875 -1.421875 
Q 17.96875 -1.421875 11.734375 6.484375 
Q 5.515625 14.40625 5.515625 27.296875 
Q 5.515625 40.1875 11.734375 48.09375 
Q 17.96875 56 27.875 56 
Q 33.9375 56 38.25 53.625 
Q 42.578125 51.265625 45.40625 46.390625 
z
M 14.796875 27.296875 
Q 14.796875 17.390625 18.875 11.75 
Q 22.953125 6.109375 30.078125 6.109375 
Q 37.203125 6.109375 41.296875 11.75 
Q 45.40625 17.390625 45.40625 27.296875 
Q 45.40625 37.203125 41.296875 42.84375 
Q 37.203125 48.484375 30.078125 48.484375 
Q 22.953125 48.484375 18.875 42.84375 
Q 14.796875 37.203125 14.796875 27.296875 
z
" id="DejaVuSans-100"/>
       </defs>
       <use xlink:href="#DejaVuSans-91"/>
       <use x="39.013672" xlink:href="#DejaVuSans-39"/>
       <use x="66.503906" xlink:href="#DejaVuSans-115"/>
       <use x="118.603516" xlink:href="#DejaVuSans-105"/>
       <use x="146.386719" xlink:href="#DejaVuSans-110"/>
       <use x="209.765625" xlink:href="#DejaVuSans-39"/>
       <use x="237.255859" xlink:href="#DejaVuSans-44"/>
       <use x="269.042969" xlink:href="#DejaVuSans-32"/>
       <use x="300.830078" xlink:href="#DejaVuSans-39"/>
       <use x="328.320312" xlink:href="#DejaVuSans-99"/>
       <use x="383.300781" xlink:href="#DejaVuSans-111"/>
       <use x="444.482422" xlink:href="#DejaVuSans-115"/>
       <use x="496.582031" xlink:href="#DejaVuSans-39"/>
       <use x="524.072266" xlink:href="#DejaVuSans-44"/>
       <use x="555.859375" xlink:href="#DejaVuSans-32"/>
       <use x="587.646484" xlink:href="#DejaVuSans-39"/>
       <use x="615.136719" xlink:href="#DejaVuSans-108"/>
       <use x="642.919922" xlink:href="#DejaVuSans-105"/>
       <use x="670.703125" xlink:href="#DejaVuSans-110"/>
       <use x="734.082031" xlink:href="#DejaVuSans-101"/>
       <use x="795.605469" xlink:href="#DejaVuSans-97"/>
       <use x="856.884766" xlink:href="#DejaVuSans-114"/>
       <use x="897.998047" xlink:href="#DejaVuSans-39"/>
       <use x="925.488281" xlink:href="#DejaVuSans-44"/>
       <use x="957.275391" xlink:href="#DejaVuSans-32"/>
       <use x="989.0625" xlink:href="#DejaVuSans-39"/>
       <use x="1016.552734" xlink:href="#DejaVuSans-114"/>
       <use x="1055.416016" xlink:href="#DejaVuSans-101"/>
       <use x="1116.939453" xlink:href="#DejaVuSans-108"/>
       <use x="1144.722656" xlink:href="#DejaVuSans-117"/>
       <use x="1208.101562" xlink:href="#DejaVuSans-39"/>
       <use x="1235.591797" xlink:href="#DejaVuSans-44"/>
       <use x="1267.378906" xlink:href="#DejaVuSans-32"/>
       <use x="1299.166016" xlink:href="#DejaVuSans-39"/>
       <use x="1326.65625" xlink:href="#DejaVuSans-115"/>
       <use x="1378.755859" xlink:href="#DejaVuSans-105"/>
       <use x="1406.539062" xlink:href="#DejaVuSans-103"/>
       <use x="1470.015625" xlink:href="#DejaVuSans-109"/>
       <use x="1567.427734" xlink:href="#DejaVuSans-111"/>
       <use x="1628.609375" xlink:href="#DejaVuSans-105"/>
       <use x="1656.392578" xlink:href="#DejaVuSans-100"/>
       <use x="1719.869141" xlink:href="#DejaVuSans-39"/>
       <use x="1747.359375" xlink:href="#DejaVuSans-93"/>
      </g>
     </g>
    </g>
   </g>
   <g id="matplotlib.axis_2">
    <g id="ytick_1">
     <g id="line2d_6">
      <path clip-path="url(#p7d1e5d1fd6)" d="M 90 378 
L 648 378 
" style="fill:none;stroke:#b0b0b0;stroke-linecap:square;stroke-width:0.8;"/>
     </g>
     <g id="line2d_7">
      <defs>
       <path d="M 0 0 
L -3.5 0 
" id="mc3fa7f32c6" style="stroke:#000000;stroke-width:0.8;"/>
      </defs>
      <g>
       <use style="stroke:#000000;stroke-width:0.8;" x="90" xlink:href="#mc3fa7f32c6" y="378"/>
      </g>
     </g>
     <g id="text_6">
      <!-- −175 -->
      <g transform="translate(55.532812 381.799219)scale(0.1 -0.1)">
       <defs>
        <path d="M 10.59375 35.5 
L 73.1875 35.5 
L 73.1875 27.203125 
L 10.59375 27.203125 
z
" id="DejaVuSans-8722"/>
        <path d="M 12.40625 8.296875 
L 28.515625 8.296875 
L 28.515625 63.921875 
L 10.984375 60.40625 
L 10.984375 69.390625 
L 28.421875 72.90625 
L 38.28125 72.90625 
L 38.28125 8.296875 
L 54.390625 8.296875 
L 54.390625 0 
L 12.40625 0 
z
" id="DejaVuSans-49"/>
        <path d="M 8.203125 72.90625 
L 55.078125 72.90625 
L 55.078125 68.703125 
L 28.609375 0 
L 18.3125 0 
L 43.21875 64.59375 
L 8.203125 64.59375 
z
" id="DejaVuSans-55"/>
        <path d="M 10.796875 72.90625 
L 49.515625 72.90625 
L 49.515625 64.59375 
L 19.828125 64.59375 
L 19.828125 46.734375 
Q 21.96875 47.46875 24.109375 47.828125 
Q 26.265625 48.1875 28.421875 48.1875 
Q 40.625 48.1875 47.75 41.5 
Q 54.890625 34.8125 54.890625 23.390625 
Q 54.890625 11.625 47.5625 5.09375 
Q 40.234375 -1.421875 26.90625 -1.421875 
Q 22.3125 -1.421875 17.546875 -0.640625 
Q 12.796875 0.140625 7.71875 1.703125 
L 7.71875 11.625 
Q 12.109375 9.234375 16.796875 8.0625 
Q 21.484375 6.890625 26.703125 6.890625 
Q 35.15625 6.890625 40.078125 11.328125 
Q 45.015625 15.765625 45.015625 23.390625 
Q 45.015625 31 40.078125 35.4375 
Q 35.15625 39.890625 26.703125 39.890625 
Q 22.75 39.890625 18.8125 39.015625 
Q 14.890625 38.140625 10.796875 36.28125 
z
" id="DejaVuSans-53"/>
       </defs>
       <use xlink:href="#DejaVuSans-8722"/>
       <use x="83.789062" xlink:href="#DejaVuSans-49"/>
       <use x="147.412109" xlink:href="#DejaVuSans-55"/>
       <use x="211.035156" xlink:href="#DejaVuSans-53"/>
      </g>
     </g>
    </g>
    <g id="ytick_2">
     <g id="line2d_8">
      <path clip-path="url(#p7d1e5d1fd6)" d="M 90 348.349091 
L 648 348.349091 
" style="fill:none;stroke:#b0b0b0;stroke-linecap:square;stroke-width:0.8;"/>
     </g>
     <g id="line2d_9">
      <g>
       <use style="stroke:#000000;stroke-width:0.8;" x="90" xlink:href="#mc3fa7f32c6" y="348.349091"/>
      </g>
     </g>
     <g id="text_7">
      <!-- −150 -->
      <g transform="translate(55.532812 352.14831)scale(0.1 -0.1)">
       <defs>
        <path d="M 31.78125 66.40625 
Q 24.171875 66.40625 20.328125 58.90625 
Q 16.5 51.421875 16.5 36.375 
Q 16.5 21.390625 20.328125 13.890625 
Q 24.171875 6.390625 31.78125 6.390625 
Q 39.453125 6.390625 43.28125 13.890625 
Q 47.125 21.390625 47.125 36.375 
Q 47.125 51.421875 43.28125 58.90625 
Q 39.453125 66.40625 31.78125 66.40625 
z
M 31.78125 74.21875 
Q 44.046875 74.21875 50.515625 64.515625 
Q 56.984375 54.828125 56.984375 36.375 
Q 56.984375 17.96875 50.515625 8.265625 
Q 44.046875 -1.421875 31.78125 -1.421875 
Q 19.53125 -1.421875 13.0625 8.265625 
Q 6.59375 17.96875 6.59375 36.375 
Q 6.59375 54.828125 13.0625 64.515625 
Q 19.53125 74.21875 31.78125 74.21875 
z
" id="DejaVuSans-48"/>
       </defs>
       <use xlink:href="#DejaVuSans-8722"/>
       <use x="83.789062" xlink:href="#DejaVuSans-49"/>
       <use x="147.412109" xlink:href="#DejaVuSans-53"/>
       <use x="211.035156" xlink:href="#DejaVuSans-48"/>
      </g>
     </g>
    </g>
    <g id="ytick_3">
     <g id="line2d_10">
      <path clip-path="url(#p7d1e5d1fd6)" d="M 90 318.698182 
L 648 318.698182 
" style="fill:none;stroke:#b0b0b0;stroke-linecap:square;stroke-width:0.8;"/>
     </g>
     <g id="line2d_11">
      <g>
       <use style="stroke:#000000;stroke-width:0.8;" x="90" xlink:href="#mc3fa7f32c6" y="318.698182"/>
      </g>
     </g>
     <g id="text_8">
      <!-- −125 -->
      <g transform="translate(55.532812 322.497401)scale(0.1 -0.1)">
       <defs>
        <path d="M 19.1875 8.296875 
L 53.609375 8.296875 
L 53.609375 0 
L 7.328125 0 
L 7.328125 8.296875 
Q 12.9375 14.109375 22.625 23.890625 
Q 32.328125 33.6875 34.8125 36.53125 
Q 39.546875 41.84375 41.421875 45.53125 
Q 43.3125 49.21875 43.3125 52.78125 
Q 43.3125 58.59375 39.234375 62.25 
Q 35.15625 65.921875 28.609375 65.921875 
Q 23.96875 65.921875 18.8125 64.3125 
Q 13.671875 62.703125 7.8125 59.421875 
L 7.8125 69.390625 
Q 13.765625 71.78125 18.9375 73 
Q 24.125 74.21875 28.421875 74.21875 
Q 39.75 74.21875 46.484375 68.546875 
Q 53.21875 62.890625 53.21875 53.421875 
Q 53.21875 48.921875 51.53125 44.890625 
Q 49.859375 40.875 45.40625 35.40625 
Q 44.1875 33.984375 37.640625 27.21875 
Q 31.109375 20.453125 19.1875 8.296875 
z
" id="DejaVuSans-50"/>
       </defs>
       <use xlink:href="#DejaVuSans-8722"/>
       <use x="83.789062" xlink:href="#DejaVuSans-49"/>
       <use x="147.412109" xlink:href="#DejaVuSans-50"/>
       <use x="211.035156" xlink:href="#DejaVuSans-53"/>
      </g>
     </g>
    </g>
    <g id="ytick_4">
     <g id="line2d_12">
      <path clip-path="url(#p7d1e5d1fd6)" d="M 90 289.047273 
L 648 289.047273 
" style="fill:none;stroke:#b0b0b0;stroke-linecap:square;stroke-width:0.8;"/>
     </g>
     <g id="line2d_13">
      <g>
       <use style="stroke:#000000;stroke-width:0.8;" x="90" xlink:href="#mc3fa7f32c6" y="289.047273"/>
      </g>
     </g>
     <g id="text_9">
      <!-- −100 -->
      <g transform="translate(55.532812 292.846491)scale(0.1 -0.1)">
       <use xlink:href="#DejaVuSans-8722"/>
       <use x="83.789062" xlink:href="#DejaVuSans-49"/>
       <use x="147.412109" xlink:href="#DejaVuSans-48"/>
       <use x="211.035156" xlink:href="#DejaVuSans-48"/>
      </g>
     </g>
    </g>
    <g id="ytick_5">
     <g id="line2d_14">
      <path clip-path="url(#p7d1e5d1fd6)" d="M 90 259.396364 
L 648 259.396364 
" style="fill:none;stroke:#b0b0b0;stroke-linecap:square;stroke-width:0.8;"/>
     </g>
     <g id="line2d_15">
      <g>
       <use style="stroke:#000000;stroke-width:0.8;" x="90" xlink:href="#mc3fa7f32c6" y="259.396364"/>
      </g>
     </g>
     <g id="text_10">
      <!-- −75 -->
      <g transform="translate(61.895313 263.195582)scale(0.1 -0.1)">
       <use xlink:href="#DejaVuSans-8722"/>
       <use x="83.789062" xlink:href="#DejaVuSans-55"/>
       <use x="147.412109" xlink:href="#DejaVuSans-53"/>
      </g>
     </g>
    </g>
    <g id="ytick_6">
     <g id="line2d_16">
      <path clip-path="url(#p7d1e5d1fd6)" d="M 90 229.745455 
L 648 229.745455 
" style="fill:none;stroke:#b0b0b0;stroke-linecap:square;stroke-width:0.8;"/>
     </g>
     <g id="line2d_17">
      <g>
       <use style="stroke:#000000;stroke-width:0.8;" x="90" xlink:href="#mc3fa7f32c6" y="229.745455"/>
      </g>
     </g>
     <g id="text_11">
      <!-- −50 -->
      <g transform="translate(61.895313 233.544673)scale(0.1 -0.1)">
       <use xlink:href="#DejaVuSans-8722"/>
       <use x="83.789062" xlink:href="#DejaVuSans-53"/>
       <use x="147.412109" xlink:href="#DejaVuSans-48"/>
      </g>
     </g>
    </g>
    <g id="ytick_7">
     <g id="line2d_18">
      <path clip-path="url(#p7d1e5d1fd6)" d="M 90 200.094545 
L 648 200.094545 
" style="fill:none;stroke:#b0b0b0;stroke-linecap:square;stroke-width:0.8;"/>
     </g>
     <g id="line2d_19">
      <g>
       <use style="stroke:#000000;stroke-width:0.8;" x="90" xlink:href="#mc3fa7f32c6" y="200.094545"/>
      </g>
     </g>
     <g id="text_12">
      <!-- −25 -->
      <g transform="translate(61.895313 203.893764)scale(0.1 -0.1)">
       <use xlink:href="#DejaVuSans-8722"/>
       <use x="83.789062" xlink:href="#DejaVuSans-50"/>
       <use x="147.412109" xlink:href="#DejaVuSans-53"/>
      </g>
     </g>
    </g>
    <g id="ytick_8">
     <g id="line2d_20">
      <path clip-path="url(#p7d1e5d1fd6)" d="M 90 170.443636 
L 648 170.443636 
" style="fill:none;stroke:#b0b0b0;stroke-linecap:square;stroke-width:0.8;"/>
     </g>
     <g id="line2d_21">
      <g>
       <use style="stroke:#000000;stroke-width:0.8;" x="90" xlink:href="#mc3fa7f32c6" y="170.443636"/>
      </g>
     </g>
     <g id="text_13">
      <!-- 0 -->
      <g transform="translate(76.6375 174.242855)scale(0.1 -0.1)">
       <use xlink:href="#DejaVuSans-48"/>
      </g>
     </g>
    </g>
    <g id="ytick_9">
     <g id="line2d_22">
      <path clip-path="url(#p7d1e5d1fd6)" d="M 90 140.792727 
L 648 140.792727 
" style="fill:none;stroke:#b0b0b0;stroke-linecap:square;stroke-width:0.8;"/>
     </g>
     <g id="line2d_23">
      <g>
       <use style="stroke:#000000;stroke-width:0.8;" x="90" xlink:href="#mc3fa7f32c6" y="140.792727"/>
      </g>
     </g>
     <g id="text_14">
      <!-- 25 -->
      <g transform="translate(70.275 144.591946)scale(0.1 -0.1)">
       <use xlink:href="#DejaVuSans-50"/>
       <use x="63.623047" xlink:href="#DejaVuSans-53"/>
      </g>
     </g>
    </g>
    <g id="ytick_10">
     <g id="line2d_24">
      <path clip-path="url(#p7d1e5d1fd6)" d="M 90 111.141818 
L 648 111.141818 
" style="fill:none;stroke:#b0b0b0;stroke-linecap:square;stroke-width:0.8;"/>
     </g>
     <g id="line2d_25">
      <g>
       <use style="stroke:#000000;stroke-width:0.8;" x="90" xlink:href="#mc3fa7f32c6" y="111.141818"/>
      </g>
     </g>
     <g id="text_15">
      <!-- 50 -->
      <g transform="translate(70.275 114.941037)scale(0.1 -0.1)">
       <use xlink:href="#DejaVuSans-53"/>
       <use x="63.623047" xlink:href="#DejaVuSans-48"/>
      </g>
     </g>
    </g>
    <g id="ytick_11">
     <g id="line2d_26">
      <path clip-path="url(#p7d1e5d1fd6)" d="M 90 81.490909 
L 648 81.490909 
" style="fill:none;stroke:#b0b0b0;stroke-linecap:square;stroke-width:0.8;"/>
     </g>
     <g id="line2d_27">
      <g>
       <use style="stroke:#000000;stroke-width:0.8;" x="90" xlink:href="#mc3fa7f32c6" y="81.490909"/>
      </g>
     </g>
     <g id="text_16">
      <!-- 75 -->
      <g transform="translate(70.275 85.290128)scale(0.1 -0.1)">
       <use xlink:href="#DejaVuSans-55"/>
       <use x="63.623047" xlink:href="#DejaVuSans-53"/>
      </g>
     </g>
    </g>
    <g id="ytick_12">
     <g id="line2d_28">
      <path clip-path="url(#p7d1e5d1fd6)" d="M 90 51.84 
L 648 51.84 
" style="fill:none;stroke:#b0b0b0;stroke-linecap:square;stroke-width:0.8;"/>
     </g>
     <g id="line2d_29">
      <g>
       <use style="stroke:#000000;stroke-width:0.8;" x="90" xlink:href="#mc3fa7f32c6" y="51.84"/>
      </g>
     </g>
     <g id="text_17">
      <!-- 100 -->
      <g transform="translate(63.9125 55.639219)scale(0.1 -0.1)">
       <use xlink:href="#DejaVuSans-49"/>
       <use x="63.623047" xlink:href="#DejaVuSans-48"/>
       <use x="127.246094" xlink:href="#DejaVuSans-48"/>
      </g>
     </g>
    </g>
   </g>
   <g id="LineCollection_1">
    <path clip-path="url(#p7d1e5d1fd6)" d="M 120.87747 63.091731 
L 120.87747 61.789677 
" style="fill:none;stroke:#000000;stroke-width:1.5;"/>
    <path clip-path="url(#p7d1e5d1fd6)" d="M 231.15415 433 
L 231.15415 98.411171 
" style="fill:none;stroke:#000000;stroke-width:1.5;"/>
    <path clip-path="url(#p7d1e5d1fd6)" d="M 341.43083 60.375364 
L 341.43083 59.144332 
" style="fill:none;stroke:#000000;stroke-width:1.5;"/>
    <path clip-path="url(#p7d1e5d1fd6)" d="M 451.70751 70.2171 
L 451.70751 68.501622 
" style="fill:none;stroke:#000000;stroke-width:1.5;"/>
    <path clip-path="url(#p7d1e5d1fd6)" d="M 561.98419 65.839842 
L 561.98419 64.367574 
" style="fill:none;stroke:#000000;stroke-width:1.5;"/>
   </g>
   <g id="LineCollection_2">
    <path clip-path="url(#p7d1e5d1fd6)" d="M 131.905138 58.868876 
L 131.905138 58.037421 
" style="fill:none;stroke:#000000;stroke-width:1.5;"/>
    <path clip-path="url(#p7d1e5d1fd6)" d="M 242.181818 298.922338 
L 242.181818 87.545508 
" style="fill:none;stroke:#000000;stroke-width:1.5;"/>
    <path clip-path="url(#p7d1e5d1fd6)" d="M 352.458498 57.623724 
L 352.458498 56.950834 
" style="fill:none;stroke:#000000;stroke-width:1.5;"/>
    <path clip-path="url(#p7d1e5d1fd6)" d="M 462.735178 64.477878 
L 462.735178 62.744604 
" style="fill:none;stroke:#000000;stroke-width:1.5;"/>
    <path clip-path="url(#p7d1e5d1fd6)" d="M 573.011858 60.861919 
L 573.011858 59.618194 
" style="fill:none;stroke:#000000;stroke-width:1.5;"/>
   </g>
   <g id="LineCollection_3">
    <path clip-path="url(#p7d1e5d1fd6)" d="M 142.932806 190.558925 
L 142.932806 187.062334 
" style="fill:none;stroke:#000000;stroke-width:1.5;"/>
    <path clip-path="url(#p7d1e5d1fd6)" d="M 253.209486 341.79048 
L 253.209486 158.576474 
" style="fill:none;stroke:#000000;stroke-width:1.5;"/>
    <path clip-path="url(#p7d1e5d1fd6)" d="M 363.486166 193.483648 
L 363.486166 187.387533 
" style="fill:none;stroke:#000000;stroke-width:1.5;"/>
    <path clip-path="url(#p7d1e5d1fd6)" d="M 473.762846 190.322888 
L 473.762846 186.973763 
" style="fill:none;stroke:#000000;stroke-width:1.5;"/>
    <path clip-path="url(#p7d1e5d1fd6)" d="M 584.039526 191.570981 
L 584.039526 187.593189 
" style="fill:none;stroke:#000000;stroke-width:1.5;"/>
   </g>
   <g id="LineCollection_4">
    <path clip-path="url(#p7d1e5d1fd6)" d="M 153.960474 152.345183 
L 153.960474 149.264519 
" style="fill:none;stroke:#000000;stroke-width:1.5;"/>
    <path clip-path="url(#p7d1e5d1fd6)" d="M 264.237154 287.620184 
L 264.237154 78.803612 
" style="fill:none;stroke:#000000;stroke-width:1.5;"/>
    <path clip-path="url(#p7d1e5d1fd6)" d="M 374.513834 150.814739 
L 374.513834 145.970014 
" style="fill:none;stroke:#000000;stroke-width:1.5;"/>
    <path clip-path="url(#p7d1e5d1fd6)" d="M 484.790514 150.378015 
L 484.790514 146.370493 
" style="fill:none;stroke:#000000;stroke-width:1.5;"/>
    <path clip-path="url(#p7d1e5d1fd6)" d="M 595.067194 153.684821 
L 595.067194 149.574885 
" style="fill:none;stroke:#000000;stroke-width:1.5;"/>
   </g>
   <g id="LineCollection_5">
    <path clip-path="url(#p7d1e5d1fd6)" d="M 164.988142 91.413315 
L 164.988142 86.391896 
" style="fill:none;stroke:#000000;stroke-width:1.5;"/>
    <path clip-path="url(#p7d1e5d1fd6)" d="M 275.264822 236.787689 
L 275.264822 232.377392 
" style="fill:none;stroke:#000000;stroke-width:1.5;"/>
    <path clip-path="url(#p7d1e5d1fd6)" d="M 385.541502 79.606963 
L 385.541502 75.404581 
" style="fill:none;stroke:#000000;stroke-width:1.5;"/>
    <path clip-path="url(#p7d1e5d1fd6)" d="M 495.818182 118.036001 
L 495.818182 110.007231 
" style="fill:none;stroke:#000000;stroke-width:1.5;"/>
    <path clip-path="url(#p7d1e5d1fd6)" d="M 606.094862 93.992803 
L 606.094862 89.769041 
" style="fill:none;stroke:#000000;stroke-width:1.5;"/>
   </g>
   <g id="LineCollection_6">
    <path clip-path="url(#p7d1e5d1fd6)" d="M 176.01581 72.442582 
L 176.01581 69.223239 
" style="fill:none;stroke:#000000;stroke-width:1.5;"/>
    <path clip-path="url(#p7d1e5d1fd6)" d="M 286.29249 231.052941 
L 286.29249 226.126225 
" style="fill:none;stroke:#000000;stroke-width:1.5;"/>
    <path clip-path="url(#p7d1e5d1fd6)" d="M 396.56917 68.324671 
L 396.56917 66.131257 
" style="fill:none;stroke:#000000;stroke-width:1.5;"/>
    <path clip-path="url(#p7d1e5d1fd6)" d="M 506.84585 197.793462 
L 506.84585 193.158027 
" style="fill:none;stroke:#000000;stroke-width:1.5;"/>
    <path clip-path="url(#p7d1e5d1fd6)" d="M 617.12253 74.680659 
L 617.12253 69.471437 
" style="fill:none;stroke:#000000;stroke-width:1.5;"/>
   </g>
   <g id="line2d_30">
    <path clip-path="url(#p7d1e5d1fd6)" d="M 90 170.443636 
L 648 170.443636 
" style="fill:none;stroke:#000000;stroke-linecap:square;stroke-width:1.5;"/>
   </g>
   <g id="patch_33">
    <path d="M 90 378 
L 90 51.84 
" style="fill:none;stroke:#000000;stroke-linecap:square;stroke-linejoin:miter;stroke-width:0.8;"/>
   </g>
   <g id="patch_34">
    <path d="M 648 378 
L 648 51.84 
" style="fill:none;stroke:#000000;stroke-linecap:square;stroke-linejoin:miter;stroke-width:0.8;"/>
   </g>
   <g id="patch_35">
    <path d="M 90 378 
L 648 378 
" style="fill:none;stroke:#000000;stroke-linecap:square;stroke-linejoin:miter;stroke-width:0.8;"/>
   </g>
   <g id="patch_36">
    <path d="M 90 51.84 
L 648 51.84 
" style="fill:none;stroke:#000000;stroke-linecap:square;stroke-linejoin:miter;stroke-width:0.8;"/>
   </g>
   <g id="text_18">
    <!-- activation_types -->
    <g transform="translate(319.754063 45.84)scale(0.12 -0.12)">
     <defs>
      <path d="M 18.3125 70.21875 
L 18.3125 54.6875 
L 36.8125 54.6875 
L 36.8125 47.703125 
L 18.3125 47.703125 
L 18.3125 18.015625 
Q 18.3125 11.328125 20.140625 9.421875 
Q 21.96875 7.515625 27.59375 7.515625 
L 36.8125 7.515625 
L 36.8125 0 
L 27.59375 0 
Q 17.1875 0 13.234375 3.875 
Q 9.28125 7.765625 9.28125 18.015625 
L 9.28125 47.703125 
L 2.6875 47.703125 
L 2.6875 54.6875 
L 9.28125 54.6875 
L 9.28125 70.21875 
z
" id="DejaVuSans-116"/>
      <path d="M 2.984375 54.6875 
L 12.5 54.6875 
L 29.59375 8.796875 
L 46.6875 54.6875 
L 56.203125 54.6875 
L 35.6875 0 
L 23.484375 0 
z
" id="DejaVuSans-118"/>
      <path d="M 50.984375 -16.609375 
L 50.984375 -23.578125 
L -0.984375 -23.578125 
L -0.984375 -16.609375 
z
" id="DejaVuSans-95"/>
      <path d="M 32.171875 -5.078125 
Q 28.375 -14.84375 24.75 -17.8125 
Q 21.140625 -20.796875 15.09375 -20.796875 
L 7.90625 -20.796875 
L 7.90625 -13.28125 
L 13.1875 -13.28125 
Q 16.890625 -13.28125 18.9375 -11.515625 
Q 21 -9.765625 23.484375 -3.21875 
L 25.09375 0.875 
L 2.984375 54.6875 
L 12.5 54.6875 
L 29.59375 11.921875 
L 46.6875 54.6875 
L 56.203125 54.6875 
z
" id="DejaVuSans-121"/>
      <path d="M 18.109375 8.203125 
L 18.109375 -20.796875 
L 9.078125 -20.796875 
L 9.078125 54.6875 
L 18.109375 54.6875 
L 18.109375 46.390625 
Q 20.953125 51.265625 25.265625 53.625 
Q 29.59375 56 35.59375 56 
Q 45.5625 56 51.78125 48.09375 
Q 58.015625 40.1875 58.015625 27.296875 
Q 58.015625 14.40625 51.78125 6.484375 
Q 45.5625 -1.421875 35.59375 -1.421875 
Q 29.59375 -1.421875 25.265625 0.953125 
Q 20.953125 3.328125 18.109375 8.203125 
z
M 48.6875 27.296875 
Q 48.6875 37.203125 44.609375 42.84375 
Q 40.53125 48.484375 33.40625 48.484375 
Q 26.265625 48.484375 22.1875 42.84375 
Q 18.109375 37.203125 18.109375 27.296875 
Q 18.109375 17.390625 22.1875 11.75 
Q 26.265625 6.109375 33.40625 6.109375 
Q 40.53125 6.109375 44.609375 11.75 
Q 48.6875 17.390625 48.6875 27.296875 
z
" id="DejaVuSans-112"/>
     </defs>
     <use xlink:href="#DejaVuSans-97"/>
     <use x="61.279297" xlink:href="#DejaVuSans-99"/>
     <use x="116.259766" xlink:href="#DejaVuSans-116"/>
     <use x="155.46875" xlink:href="#DejaVuSans-105"/>
     <use x="183.251953" xlink:href="#DejaVuSans-118"/>
     <use x="242.431641" xlink:href="#DejaVuSans-97"/>
     <use x="303.710938" xlink:href="#DejaVuSans-116"/>
     <use x="342.919922" xlink:href="#DejaVuSans-105"/>
     <use x="370.703125" xlink:href="#DejaVuSans-111"/>
     <use x="431.884766" xlink:href="#DejaVuSans-110"/>
     <use x="495.263672" xlink:href="#DejaVuSans-95"/>
     <use x="545.263672" xlink:href="#DejaVuSans-116"/>
     <use x="584.472656" xlink:href="#DejaVuSans-121"/>
     <use x="643.652344" xlink:href="#DejaVuSans-112"/>
     <use x="707.128906" xlink:href="#DejaVuSans-101"/>
     <use x="768.652344" xlink:href="#DejaVuSans-115"/>
    </g>
   </g>
   <g id="legend_1">
    <g id="patch_37">
     <path d="M 97 373 
L 197.15625 373 
Q 199.15625 373 199.15625 371 
L 199.15625 283.93125 
Q 199.15625 281.93125 197.15625 281.93125 
L 97 281.93125 
Q 95 281.93125 95 283.93125 
L 95 371 
Q 95 373 97 373 
z
" style="fill:#ffffff;opacity:0.8;stroke:#cccccc;stroke-linejoin:miter;"/>
    </g>
    <g id="patch_38">
     <path d="M 99 293.529688 
L 119 293.529688 
L 119 286.529688 
L 99 286.529688 
z
" style="fill:#ea4335;"/>
    </g>
    <g id="text_19">
     <!-- CCE, SD=4 -->
     <g transform="translate(127 293.529688)scale(0.1 -0.1)">
      <defs>
       <path d="M 64.40625 67.28125 
L 64.40625 56.890625 
Q 59.421875 61.53125 53.78125 63.8125 
Q 48.140625 66.109375 41.796875 66.109375 
Q 29.296875 66.109375 22.65625 58.46875 
Q 16.015625 50.828125 16.015625 36.375 
Q 16.015625 21.96875 22.65625 14.328125 
Q 29.296875 6.6875 41.796875 6.6875 
Q 48.140625 6.6875 53.78125 8.984375 
Q 59.421875 11.28125 64.40625 15.921875 
L 64.40625 5.609375 
Q 59.234375 2.09375 53.4375 0.328125 
Q 47.65625 -1.421875 41.21875 -1.421875 
Q 24.65625 -1.421875 15.125 8.703125 
Q 5.609375 18.84375 5.609375 36.375 
Q 5.609375 53.953125 15.125 64.078125 
Q 24.65625 74.21875 41.21875 74.21875 
Q 47.75 74.21875 53.53125 72.484375 
Q 59.328125 70.75 64.40625 67.28125 
z
" id="DejaVuSans-67"/>
       <path d="M 9.8125 72.90625 
L 55.90625 72.90625 
L 55.90625 64.59375 
L 19.671875 64.59375 
L 19.671875 43.015625 
L 54.390625 43.015625 
L 54.390625 34.71875 
L 19.671875 34.71875 
L 19.671875 8.296875 
L 56.78125 8.296875 
L 56.78125 0 
L 9.8125 0 
z
" id="DejaVuSans-69"/>
       <path d="M 53.515625 70.515625 
L 53.515625 60.890625 
Q 47.90625 63.578125 42.921875 64.890625 
Q 37.9375 66.21875 33.296875 66.21875 
Q 25.25 66.21875 20.875 63.09375 
Q 16.5 59.96875 16.5 54.203125 
Q 16.5 49.359375 19.40625 46.890625 
Q 22.3125 44.4375 30.421875 42.921875 
L 36.375 41.703125 
Q 47.40625 39.59375 52.65625 34.296875 
Q 57.90625 29 57.90625 20.125 
Q 57.90625 9.515625 50.796875 4.046875 
Q 43.703125 -1.421875 29.984375 -1.421875 
Q 24.8125 -1.421875 18.96875 -0.25 
Q 13.140625 0.921875 6.890625 3.21875 
L 6.890625 13.375 
Q 12.890625 10.015625 18.65625 8.296875 
Q 24.421875 6.59375 29.984375 6.59375 
Q 38.421875 6.59375 43.015625 9.90625 
Q 47.609375 13.234375 47.609375 19.390625 
Q 47.609375 24.75 44.3125 27.78125 
Q 41.015625 30.8125 33.5 32.328125 
L 27.484375 33.5 
Q 16.453125 35.6875 11.515625 40.375 
Q 6.59375 45.0625 6.59375 53.421875 
Q 6.59375 63.09375 13.40625 68.65625 
Q 20.21875 74.21875 32.171875 74.21875 
Q 37.3125 74.21875 42.625 73.28125 
Q 47.953125 72.359375 53.515625 70.515625 
z
" id="DejaVuSans-83"/>
       <path d="M 19.671875 64.796875 
L 19.671875 8.109375 
L 31.59375 8.109375 
Q 46.6875 8.109375 53.6875 14.9375 
Q 60.6875 21.78125 60.6875 36.53125 
Q 60.6875 51.171875 53.6875 57.984375 
Q 46.6875 64.796875 31.59375 64.796875 
z
M 9.8125 72.90625 
L 30.078125 72.90625 
Q 51.265625 72.90625 61.171875 64.09375 
Q 71.09375 55.28125 71.09375 36.53125 
Q 71.09375 17.671875 61.125 8.828125 
Q 51.171875 0 30.078125 0 
L 9.8125 0 
z
" id="DejaVuSans-68"/>
       <path d="M 10.59375 45.40625 
L 73.1875 45.40625 
L 73.1875 37.203125 
L 10.59375 37.203125 
z
M 10.59375 25.484375 
L 73.1875 25.484375 
L 73.1875 17.1875 
L 10.59375 17.1875 
z
" id="DejaVuSans-61"/>
       <path d="M 37.796875 64.3125 
L 12.890625 25.390625 
L 37.796875 25.390625 
z
M 35.203125 72.90625 
L 47.609375 72.90625 
L 47.609375 25.390625 
L 58.015625 25.390625 
L 58.015625 17.1875 
L 47.609375 17.1875 
L 47.609375 0 
L 37.796875 0 
L 37.796875 17.1875 
L 4.890625 17.1875 
L 4.890625 26.703125 
z
" id="DejaVuSans-52"/>
      </defs>
      <use xlink:href="#DejaVuSans-67"/>
      <use x="69.824219" xlink:href="#DejaVuSans-67"/>
      <use x="139.648438" xlink:href="#DejaVuSans-69"/>
      <use x="202.832031" xlink:href="#DejaVuSans-44"/>
      <use x="234.619141" xlink:href="#DejaVuSans-32"/>
      <use x="266.40625" xlink:href="#DejaVuSans-83"/>
      <use x="329.882812" xlink:href="#DejaVuSans-68"/>
      <use x="406.884766" xlink:href="#DejaVuSans-61"/>
      <use x="490.673828" xlink:href="#DejaVuSans-52"/>
     </g>
    </g>
    <g id="patch_39">
     <path d="M 99 308.207813 
L 119 308.207813 
L 119 301.207813 
L 99 301.207813 
z
" style="fill:#fbbc04;"/>
    </g>
    <g id="text_20">
     <!-- JSD, SD=4 -->
     <g transform="translate(127 308.207813)scale(0.1 -0.1)">
      <defs>
       <path d="M 9.8125 72.90625 
L 19.671875 72.90625 
L 19.671875 5.078125 
Q 19.671875 -8.109375 14.671875 -14.0625 
Q 9.671875 -20.015625 -1.421875 -20.015625 
L -5.171875 -20.015625 
L -5.171875 -11.71875 
L -2.09375 -11.71875 
Q 4.4375 -11.71875 7.125 -8.046875 
Q 9.8125 -4.390625 9.8125 5.078125 
z
" id="DejaVuSans-74"/>
      </defs>
      <use xlink:href="#DejaVuSans-74"/>
      <use x="29.492188" xlink:href="#DejaVuSans-83"/>
      <use x="92.96875" xlink:href="#DejaVuSans-68"/>
      <use x="169.970703" xlink:href="#DejaVuSans-44"/>
      <use x="201.757812" xlink:href="#DejaVuSans-32"/>
      <use x="233.544922" xlink:href="#DejaVuSans-83"/>
      <use x="297.021484" xlink:href="#DejaVuSans-68"/>
      <use x="374.023438" xlink:href="#DejaVuSans-61"/>
      <use x="457.8125" xlink:href="#DejaVuSans-52"/>
     </g>
    </g>
    <g id="patch_40">
     <path d="M 99 322.885938 
L 119 322.885938 
L 119 315.885938 
L 99 315.885938 
z
" style="fill:#4285f4;"/>
    </g>
    <g id="text_21">
     <!-- CCEu, SD=4 -->
     <g transform="translate(127 322.885938)scale(0.1 -0.1)">
      <use xlink:href="#DejaVuSans-67"/>
      <use x="69.824219" xlink:href="#DejaVuSans-67"/>
      <use x="139.648438" xlink:href="#DejaVuSans-69"/>
      <use x="202.832031" xlink:href="#DejaVuSans-117"/>
      <use x="266.210938" xlink:href="#DejaVuSans-44"/>
      <use x="297.998047" xlink:href="#DejaVuSans-32"/>
      <use x="329.785156" xlink:href="#DejaVuSans-83"/>
      <use x="393.261719" xlink:href="#DejaVuSans-68"/>
      <use x="470.263672" xlink:href="#DejaVuSans-61"/>
      <use x="554.052734" xlink:href="#DejaVuSans-52"/>
     </g>
    </g>
    <g id="patch_41">
     <path d="M 99 337.564063 
L 119 337.564063 
L 119 330.564063 
L 99 330.564063 
z
"/>
    </g>
    <g id="text_22">
     <!-- JSDu, SD=4 -->
     <g transform="translate(127 337.564063)scale(0.1 -0.1)">
      <use xlink:href="#DejaVuSans-74"/>
      <use x="29.492188" xlink:href="#DejaVuSans-83"/>
      <use x="92.96875" xlink:href="#DejaVuSans-68"/>
      <use x="169.970703" xlink:href="#DejaVuSans-117"/>
      <use x="233.349609" xlink:href="#DejaVuSans-44"/>
      <use x="265.136719" xlink:href="#DejaVuSans-32"/>
      <use x="296.923828" xlink:href="#DejaVuSans-83"/>
      <use x="360.400391" xlink:href="#DejaVuSans-68"/>
      <use x="437.402344" xlink:href="#DejaVuSans-61"/>
      <use x="521.191406" xlink:href="#DejaVuSans-52"/>
     </g>
    </g>
    <g id="patch_42">
     <path d="M 99 352.242188 
L 119 352.242188 
L 119 345.242188 
L 99 345.242188 
z
" style="fill:#34a853;"/>
    </g>
    <g id="text_23">
     <!-- CCE, SD=100 -->
     <g transform="translate(127 352.242188)scale(0.1 -0.1)">
      <use xlink:href="#DejaVuSans-67"/>
      <use x="69.824219" xlink:href="#DejaVuSans-67"/>
      <use x="139.648438" xlink:href="#DejaVuSans-69"/>
      <use x="202.832031" xlink:href="#DejaVuSans-44"/>
      <use x="234.619141" xlink:href="#DejaVuSans-32"/>
      <use x="266.40625" xlink:href="#DejaVuSans-83"/>
      <use x="329.882812" xlink:href="#DejaVuSans-68"/>
      <use x="406.884766" xlink:href="#DejaVuSans-61"/>
      <use x="490.673828" xlink:href="#DejaVuSans-49"/>
      <use x="554.296875" xlink:href="#DejaVuSans-48"/>
      <use x="617.919922" xlink:href="#DejaVuSans-48"/>
     </g>
    </g>
    <g id="patch_43">
     <path d="M 99 366.920313 
L 119 366.920313 
L 119 359.920313 
L 99 359.920313 
z
" style="fill:#46bdc6;"/>
    </g>
    <g id="text_24">
     <!-- JSD, SD=100 -->
     <g transform="translate(127 366.920313)scale(0.1 -0.1)">
      <use xlink:href="#DejaVuSans-74"/>
      <use x="29.492188" xlink:href="#DejaVuSans-83"/>
      <use x="92.96875" xlink:href="#DejaVuSans-68"/>
      <use x="169.970703" xlink:href="#DejaVuSans-44"/>
      <use x="201.757812" xlink:href="#DejaVuSans-32"/>
      <use x="233.544922" xlink:href="#DejaVuSans-83"/>
      <use x="297.021484" xlink:href="#DejaVuSans-68"/>
      <use x="374.023438" xlink:href="#DejaVuSans-61"/>
      <use x="457.8125" xlink:href="#DejaVuSans-49"/>
      <use x="521.435547" xlink:href="#DejaVuSans-48"/>
      <use x="585.058594" xlink:href="#DejaVuSans-48"/>
     </g>
    </g>
   </g>
  </g>
 </g>
 <defs>
  <clipPath id="p7d1e5d1fd6">
   <rect height="326.16" width="558" x="90" y="51.84"/>
  </clipPath>
 </defs>
</svg>
