<?xml version="1.0" encoding="utf-8" standalone="no"?>
<!DOCTYPE svg PUBLIC "-//W3C//DTD SVG 1.1//EN"
  "http://www.w3.org/Graphics/SVG/1.1/DTD/svg11.dtd">
<!-- Created with matplotlib (https://matplotlib.org/) -->
<svg height="432pt" version="1.1" viewBox="0 0 720 432" width="720pt" xmlns="http://www.w3.org/2000/svg" xmlns:xlink="http://www.w3.org/1999/xlink">
 <metadata>
  <rdf:RDF xmlns:cc="http://creativecommons.org/ns#" xmlns:dc="http://purl.org/dc/elements/1.1/" xmlns:rdf="http://www.w3.org/1999/02/22-rdf-syntax-ns#">
   <cc:Work>
    <dc:type rdf:resource="http://purl.org/dc/dcmitype/StillImage"/>
    <dc:date>2021-03-02T22:56:27.626597</dc:date>
    <dc:format>image/svg+xml</dc:format>
    <dc:creator>
     <cc:Agent>
      <dc:title>Matplotlib v3.3.2, https://matplotlib.org/</dc:title>
     </cc:Agent>
    </dc:creator>
   </cc:Work>
  </rdf:RDF>
 </metadata>
 <defs>
  <style type="text/css">*{stroke-linecap:butt;stroke-linejoin:round;}</style>
 </defs>
 <g id="figure_1">
  <g id="patch_1">
   <path d="M 0 432 
L 720 432 
L 720 0 
L 0 0 
z
" style="fill:none;"/>
  </g>
  <g id="axes_1">
   <g id="patch_2">
    <path d="M 90 378 
L 648 378 
L 648 51.84 
L 90 51.84 
z
" style="fill:#ffffff;"/>
   </g>
   <g id="patch_3">
    <path clip-path="url(#pcbccca3091)" d="M 115.363636 170.443636 
L 122.823529 170.443636 
L 122.823529 56.384976 
L 115.363636 56.384976 
z
" style="fill:#ea4335;"/>
   </g>
   <g id="patch_4">
    <path clip-path="url(#pcbccca3091)" d="M 189.962567 170.443636 
L 197.42246 170.443636 
L 197.42246 57.5446 
L 189.962567 57.5446 
z
" style="fill:#ea4335;"/>
   </g>
   <g id="patch_5">
    <path clip-path="url(#pcbccca3091)" d="M 264.561497 170.443636 
L 272.02139 170.443636 
L 272.02139 53.295472 
L 264.561497 53.295472 
z
" style="fill:#ea4335;"/>
   </g>
   <g id="patch_6">
    <path clip-path="url(#pcbccca3091)" d="M 339.160428 170.443636 
L 346.620321 170.443636 
L 346.620321 54.68827 
L 339.160428 54.68827 
z
" style="fill:#ea4335;"/>
   </g>
   <g id="patch_7">
    <path clip-path="url(#pcbccca3091)" d="M 413.759358 170.443636 
L 421.219251 170.443636 
L 421.219251 53.838243 
L 413.759358 53.838243 
z
" style="fill:#ea4335;"/>
   </g>
   <g id="patch_8">
    <path clip-path="url(#pcbccca3091)" d="M 488.358289 170.443636 
L 495.818182 170.443636 
L 495.818182 53.21163 
L 488.358289 53.21163 
z
" style="fill:#ea4335;"/>
   </g>
   <g id="patch_9">
    <path clip-path="url(#pcbccca3091)" d="M 562.957219 170.443636 
L 570.417112 170.443636 
L 570.417112 3708.918651 
L 562.957219 3708.918651 
z
" style="fill:#ea4335;"/>
   </g>
   <g id="patch_10">
    <path clip-path="url(#pcbccca3091)" d="M 122.823529 170.443636 
L 130.283422 170.443636 
L 130.283422 53.913583 
L 122.823529 53.913583 
z
" style="fill:#fbbc04;"/>
   </g>
   <g id="patch_11">
    <path clip-path="url(#pcbccca3091)" d="M 197.42246 170.443636 
L 204.882353 170.443636 
L 204.882353 52.374651 
L 197.42246 52.374651 
z
" style="fill:#fbbc04;"/>
   </g>
   <g id="patch_12">
    <path clip-path="url(#pcbccca3091)" d="M 272.02139 170.443636 
L 279.481283 170.443636 
L 279.481283 52.580035 
L 272.02139 52.580035 
z
" style="fill:#fbbc04;"/>
   </g>
   <g id="patch_13">
    <path clip-path="url(#pcbccca3091)" d="M 346.620321 170.443636 
L 354.080214 170.443636 
L 354.080214 52.571101 
L 346.620321 52.571101 
z
" style="fill:#fbbc04;"/>
   </g>
   <g id="patch_14">
    <path clip-path="url(#pcbccca3091)" d="M 421.219251 170.443636 
L 428.679144 170.443636 
L 428.679144 52.914962 
L 421.219251 52.914962 
z
" style="fill:#fbbc04;"/>
   </g>
   <g id="patch_15">
    <path clip-path="url(#pcbccca3091)" d="M 495.818182 170.443636 
L 503.278075 170.443636 
L 503.278075 56.486504 
L 495.818182 56.486504 
z
" style="fill:#fbbc04;"/>
   </g>
   <g id="patch_16">
    <path clip-path="url(#pcbccca3091)" d="M 570.417112 170.443636 
L 577.877005 170.443636 
L 577.877005 10077.92401 
L 570.417112 10077.92401 
z
" style="fill:#fbbc04;"/>
   </g>
   <g id="patch_17">
    <path clip-path="url(#pcbccca3091)" d="M 130.283422 170.443636 
L 137.743316 170.443636 
L 137.743316 170.386847 
L 130.283422 170.386847 
z
" style="fill:#4285f4;"/>
   </g>
   <g id="patch_18">
    <path clip-path="url(#pcbccca3091)" d="M 204.882353 170.443636 
L 212.342246 170.443636 
L 212.342246 164.165124 
L 204.882353 164.165124 
z
" style="fill:#4285f4;"/>
   </g>
   <g id="patch_19">
    <path clip-path="url(#pcbccca3091)" d="M 279.481283 170.443636 
L 286.941176 170.443636 
L 286.941176 168.132647 
L 279.481283 168.132647 
z
" style="fill:#4285f4;"/>
   </g>
   <g id="patch_20">
    <path clip-path="url(#pcbccca3091)" d="M 354.080214 170.443636 
L 361.540107 170.443636 
L 361.540107 167.722343 
L 354.080214 167.722343 
z
" style="fill:#4285f4;"/>
   </g>
   <g id="patch_21">
    <path clip-path="url(#pcbccca3091)" d="M 428.679144 170.443636 
L 436.139037 170.443636 
L 436.139037 168.718978 
L 428.679144 168.718978 
z
" style="fill:#4285f4;"/>
   </g>
   <g id="patch_22">
    <path clip-path="url(#pcbccca3091)" d="M 503.278075 170.443636 
L 510.737968 170.443636 
L 510.737968 168.979811 
L 503.278075 168.979811 
z
" style="fill:#4285f4;"/>
   </g>
   <g id="patch_23">
    <path clip-path="url(#pcbccca3091)" d="M 577.877005 170.443636 
L 585.336898 170.443636 
L 585.336898 3834.486354 
L 577.877005 3834.486354 
z
" style="fill:#4285f4;"/>
   </g>
   <g id="patch_24">
    <path clip-path="url(#pcbccca3091)" d="M 137.743316 170.443636 
L 145.203209 170.443636 
L 145.203209 129.110449 
L 137.743316 129.110449 
z
"/>
   </g>
   <g id="patch_25">
    <path clip-path="url(#pcbccca3091)" d="M 212.342246 170.443636 
L 219.802139 170.443636 
L 219.802139 108.738746 
L 212.342246 108.738746 
z
"/>
   </g>
   <g id="patch_26">
    <path clip-path="url(#pcbccca3091)" d="M 286.941176 170.443636 
L 294.40107 170.443636 
L 294.40107 125.323697 
L 286.941176 125.323697 
z
"/>
   </g>
   <g id="patch_27">
    <path clip-path="url(#pcbccca3091)" d="M 361.540107 170.443636 
L 369 170.443636 
L 369 122.956095 
L 361.540107 122.956095 
z
"/>
   </g>
   <g id="patch_28">
    <path clip-path="url(#pcbccca3091)" d="M 436.139037 170.443636 
L 443.59893 170.443636 
L 443.59893 119.056611 
L 436.139037 119.056611 
z
"/>
   </g>
   <g id="patch_29">
    <path clip-path="url(#pcbccca3091)" d="M 510.737968 170.443636 
L 518.197861 170.443636 
L 518.197861 162.952257 
L 510.737968 162.952257 
z
"/>
   </g>
   <g id="patch_30">
    <path clip-path="url(#pcbccca3091)" d="M 585.336898 170.443636 
L 592.796791 170.443636 
L 592.796791 9989.872587 
L 585.336898 9989.872587 
z
"/>
   </g>
   <g id="patch_31">
    <path clip-path="url(#pcbccca3091)" d="M 145.203209 170.443636 
L 152.663102 170.443636 
L 152.663102 91.296777 
L 145.203209 91.296777 
z
" style="fill:#34a853;"/>
   </g>
   <g id="patch_32">
    <path clip-path="url(#pcbccca3091)" d="M 219.802139 170.443636 
L 227.262032 170.443636 
L 227.262032 92.756087 
L 219.802139 92.756087 
z
" style="fill:#34a853;"/>
   </g>
   <g id="patch_33">
    <path clip-path="url(#pcbccca3091)" d="M 294.40107 170.443636 
L 301.860963 170.443636 
L 301.860963 90.941808 
L 294.40107 90.941808 
z
" style="fill:#34a853;"/>
   </g>
   <g id="patch_34">
    <path clip-path="url(#pcbccca3091)" d="M 369 170.443636 
L 376.459893 170.443636 
L 376.459893 359.732052 
L 369 359.732052 
z
" style="fill:#34a853;"/>
   </g>
   <g id="patch_35">
    <path clip-path="url(#pcbccca3091)" d="M 443.59893 170.443636 
L 451.058824 170.443636 
L 451.058824 95.285182 
L 443.59893 95.285182 
z
" style="fill:#34a853;"/>
   </g>
   <g id="patch_36">
    <path clip-path="url(#pcbccca3091)" d="M 518.197861 170.443636 
L 525.657754 170.443636 
L 525.657754 91.509817 
L 518.197861 91.509817 
z
" style="fill:#34a853;"/>
   </g>
   <g id="patch_37">
    <path clip-path="url(#pcbccca3091)" d="M 592.796791 170.443636 
L 600.256684 170.443636 
L 600.256684 735.612239 
L 592.796791 735.612239 
z
" style="fill:#34a853;"/>
   </g>
   <g id="patch_38">
    <path clip-path="url(#pcbccca3091)" d="M 152.663102 170.443636 
L 160.122995 170.443636 
L 160.122995 80.424162 
L 152.663102 80.424162 
z
" style="fill:#46bdc6;"/>
   </g>
   <g id="patch_39">
    <path clip-path="url(#pcbccca3091)" d="M 227.262032 170.443636 
L 234.721925 170.443636 
L 234.721925 69.978506 
L 227.262032 69.978506 
z
" style="fill:#46bdc6;"/>
   </g>
   <g id="patch_40">
    <path clip-path="url(#pcbccca3091)" d="M 301.860963 170.443636 
L 309.320856 170.443636 
L 309.320856 75.508124 
L 301.860963 75.508124 
z
" style="fill:#46bdc6;"/>
   </g>
   <g id="patch_41">
    <path clip-path="url(#pcbccca3091)" d="M 376.459893 170.443636 
L 383.919786 170.443636 
L 383.919786 470.833509 
L 376.459893 470.833509 
z
" style="fill:#46bdc6;"/>
   </g>
   <g id="patch_42">
    <path clip-path="url(#pcbccca3091)" d="M 451.058824 170.443636 
L 458.518717 170.443636 
L 458.518717 81.187049 
L 451.058824 81.187049 
z
" style="fill:#46bdc6;"/>
   </g>
   <g id="patch_43">
    <path clip-path="url(#pcbccca3091)" d="M 525.657754 170.443636 
L 533.117647 170.443636 
L 533.117647 79.503855 
L 525.657754 79.503855 
z
" style="fill:#46bdc6;"/>
   </g>
   <g id="patch_44">
    <path clip-path="url(#pcbccca3091)" d="M 600.256684 170.443636 
L 607.716578 170.443636 
L 607.716578 874.44779 
L 600.256684 874.44779 
z
" style="fill:#46bdc6;"/>
   </g>
   <g id="patch_45">
    <path clip-path="url(#pcbccca3091)" d="M 160.122995 170.443636 
L 167.582888 170.443636 
L 167.582888 174.189221 
L 160.122995 174.189221 
z
" style="fill:#f4cccc;"/>
   </g>
   <g id="patch_46">
    <path clip-path="url(#pcbccca3091)" d="M 234.721925 170.443636 
L 242.181818 170.443636 
L 242.181818 138.388056 
L 234.721925 138.388056 
z
" style="fill:#f4cccc;"/>
   </g>
   <g id="patch_47">
    <path clip-path="url(#pcbccca3091)" d="M 309.320856 170.443636 
L 316.780749 170.443636 
L 316.780749 168.911022 
L 309.320856 168.911022 
z
" style="fill:#f4cccc;"/>
   </g>
   <g id="patch_48">
    <path clip-path="url(#pcbccca3091)" d="M 383.919786 170.443636 
L 391.379679 170.443636 
L 391.379679 386.935655 
L 383.919786 386.935655 
z
" style="fill:#f4cccc;"/>
   </g>
   <g id="patch_49">
    <path clip-path="url(#pcbccca3091)" d="M 458.518717 170.443636 
L 465.97861 170.443636 
L 465.97861 175.241728 
L 458.518717 175.241728 
z
" style="fill:#f4cccc;"/>
   </g>
   <g id="patch_50">
    <path clip-path="url(#pcbccca3091)" d="M 533.117647 170.443636 
L 540.57754 170.443636 
L 540.57754 173.055586 
L 533.117647 173.055586 
z
" style="fill:#f4cccc;"/>
   </g>
   <g id="patch_51">
    <path clip-path="url(#pcbccca3091)" d="M 607.716578 170.443636 
L 615.176471 170.443636 
L 615.176471 775.440314 
L 607.716578 775.440314 
z
" style="fill:#f4cccc;"/>
   </g>
   <g id="patch_52">
    <path clip-path="url(#pcbccca3091)" d="M 167.582888 170.443636 
L 175.042781 170.443636 
L 175.042781 124.565251 
L 167.582888 124.565251 
z
" style="fill:#c9daf8;"/>
   </g>
   <g id="patch_53">
    <path clip-path="url(#pcbccca3091)" d="M 242.181818 170.443636 
L 249.641711 170.443636 
L 249.641711 72.380116 
L 242.181818 72.380116 
z
" style="fill:#c9daf8;"/>
   </g>
   <g id="patch_54">
    <path clip-path="url(#pcbccca3091)" d="M 316.780749 170.443636 
L 324.240642 170.443636 
L 324.240642 118.737504 
L 316.780749 118.737504 
z
" style="fill:#c9daf8;"/>
   </g>
   <g id="patch_55">
    <path clip-path="url(#pcbccca3091)" d="M 391.379679 170.443636 
L 398.839572 170.443636 
L 398.839572 472.048871 
L 391.379679 472.048871 
z
" style="fill:#c9daf8;"/>
   </g>
   <g id="patch_56">
    <path clip-path="url(#pcbccca3091)" d="M 465.97861 170.443636 
L 473.438503 170.443636 
L 473.438503 122.799351 
L 465.97861 122.799351 
z
" style="fill:#c9daf8;"/>
   </g>
   <g id="patch_57">
    <path clip-path="url(#pcbccca3091)" d="M 540.57754 170.443636 
L 548.037433 170.443636 
L 548.037433 124.034175 
L 540.57754 124.034175 
z
" style="fill:#c9daf8;"/>
   </g>
   <g id="patch_58">
    <path clip-path="url(#pcbccca3091)" d="M 615.176471 170.443636 
L 622.636364 170.443636 
L 622.636364 874.911676 
L 615.176471 874.911676 
z
" style="fill:#c9daf8;"/>
   </g>
   <g id="matplotlib.axis_1">
    <g id="xtick_1">
     <g id="line2d_1">
      <defs>
       <path d="M 0 0 
L 0 3.5 
" id="m66ba457f92" style="stroke:#000000;stroke-width:0.8;"/>
      </defs>
      <g>
       <use style="stroke:#000000;stroke-width:0.8;" x="141.473262" xlink:href="#m66ba457f92" y="378"/>
      </g>
     </g>
     <g id="text_1">
      <!-- dense -->
      <g transform="translate(126.372481 392.598437)scale(0.1 -0.1)">
       <defs>
        <path d="M 45.40625 46.390625 
L 45.40625 75.984375 
L 54.390625 75.984375 
L 54.390625 0 
L 45.40625 0 
L 45.40625 8.203125 
Q 42.578125 3.328125 38.25 0.953125 
Q 33.9375 -1.421875 27.875 -1.421875 
Q 17.96875 -1.421875 11.734375 6.484375 
Q 5.515625 14.40625 5.515625 27.296875 
Q 5.515625 40.1875 11.734375 48.09375 
Q 17.96875 56 27.875 56 
Q 33.9375 56 38.25 53.625 
Q 42.578125 51.265625 45.40625 46.390625 
z
M 14.796875 27.296875 
Q 14.796875 17.390625 18.875 11.75 
Q 22.953125 6.109375 30.078125 6.109375 
Q 37.203125 6.109375 41.296875 11.75 
Q 45.40625 17.390625 45.40625 27.296875 
Q 45.40625 37.203125 41.296875 42.84375 
Q 37.203125 48.484375 30.078125 48.484375 
Q 22.953125 48.484375 18.875 42.84375 
Q 14.796875 37.203125 14.796875 27.296875 
z
" id="DejaVuSans-100"/>
        <path d="M 56.203125 29.59375 
L 56.203125 25.203125 
L 14.890625 25.203125 
Q 15.484375 15.921875 20.484375 11.0625 
Q 25.484375 6.203125 34.421875 6.203125 
Q 39.59375 6.203125 44.453125 7.46875 
Q 49.3125 8.734375 54.109375 11.28125 
L 54.109375 2.78125 
Q 49.265625 0.734375 44.1875 -0.34375 
Q 39.109375 -1.421875 33.890625 -1.421875 
Q 20.796875 -1.421875 13.15625 6.1875 
Q 5.515625 13.8125 5.515625 26.8125 
Q 5.515625 40.234375 12.765625 48.109375 
Q 20.015625 56 32.328125 56 
Q 43.359375 56 49.78125 48.890625 
Q 56.203125 41.796875 56.203125 29.59375 
z
M 47.21875 32.234375 
Q 47.125 39.59375 43.09375 43.984375 
Q 39.0625 48.390625 32.421875 48.390625 
Q 24.90625 48.390625 20.390625 44.140625 
Q 15.875 39.890625 15.1875 32.171875 
z
" id="DejaVuSans-101"/>
        <path d="M 54.890625 33.015625 
L 54.890625 0 
L 45.90625 0 
L 45.90625 32.71875 
Q 45.90625 40.484375 42.875 44.328125 
Q 39.84375 48.1875 33.796875 48.1875 
Q 26.515625 48.1875 22.3125 43.546875 
Q 18.109375 38.921875 18.109375 30.90625 
L 18.109375 0 
L 9.078125 0 
L 9.078125 54.6875 
L 18.109375 54.6875 
L 18.109375 46.1875 
Q 21.34375 51.125 25.703125 53.5625 
Q 30.078125 56 35.796875 56 
Q 45.21875 56 50.046875 50.171875 
Q 54.890625 44.34375 54.890625 33.015625 
z
" id="DejaVuSans-110"/>
        <path d="M 44.28125 53.078125 
L 44.28125 44.578125 
Q 40.484375 46.53125 36.375 47.5 
Q 32.28125 48.484375 27.875 48.484375 
Q 21.1875 48.484375 17.84375 46.4375 
Q 14.5 44.390625 14.5 40.28125 
Q 14.5 37.15625 16.890625 35.375 
Q 19.28125 33.59375 26.515625 31.984375 
L 29.59375 31.296875 
Q 39.15625 29.25 43.1875 25.515625 
Q 47.21875 21.78125 47.21875 15.09375 
Q 47.21875 7.46875 41.1875 3.015625 
Q 35.15625 -1.421875 24.609375 -1.421875 
Q 20.21875 -1.421875 15.453125 -0.5625 
Q 10.6875 0.296875 5.421875 2 
L 5.421875 11.28125 
Q 10.40625 8.6875 15.234375 7.390625 
Q 20.0625 6.109375 24.8125 6.109375 
Q 31.15625 6.109375 34.5625 8.28125 
Q 37.984375 10.453125 37.984375 14.40625 
Q 37.984375 18.0625 35.515625 20.015625 
Q 33.0625 21.96875 24.703125 23.78125 
L 21.578125 24.515625 
Q 13.234375 26.265625 9.515625 29.90625 
Q 5.8125 33.546875 5.8125 39.890625 
Q 5.8125 47.609375 11.28125 51.796875 
Q 16.75 56 26.8125 56 
Q 31.78125 56 36.171875 55.265625 
Q 40.578125 54.546875 44.28125 53.078125 
z
" id="DejaVuSans-115"/>
       </defs>
       <use xlink:href="#DejaVuSans-100"/>
       <use x="63.476562" xlink:href="#DejaVuSans-101"/>
       <use x="125" xlink:href="#DejaVuSans-110"/>
       <use x="188.378906" xlink:href="#DejaVuSans-115"/>
       <use x="240.478516" xlink:href="#DejaVuSans-101"/>
      </g>
     </g>
    </g>
    <g id="xtick_2">
     <g id="line2d_2">
      <g>
       <use style="stroke:#000000;stroke-width:0.8;" x="216.072193" xlink:href="#m66ba457f92" y="378"/>
      </g>
     </g>
     <g id="text_2">
      <!-- gaussian_noise -->
      <g transform="translate(178.035474 392.598437)scale(0.1 -0.1)">
       <defs>
        <path d="M 45.40625 27.984375 
Q 45.40625 37.75 41.375 43.109375 
Q 37.359375 48.484375 30.078125 48.484375 
Q 22.859375 48.484375 18.828125 43.109375 
Q 14.796875 37.75 14.796875 27.984375 
Q 14.796875 18.265625 18.828125 12.890625 
Q 22.859375 7.515625 30.078125 7.515625 
Q 37.359375 7.515625 41.375 12.890625 
Q 45.40625 18.265625 45.40625 27.984375 
z
M 54.390625 6.78125 
Q 54.390625 -7.171875 48.1875 -13.984375 
Q 42 -20.796875 29.203125 -20.796875 
Q 24.46875 -20.796875 20.265625 -20.09375 
Q 16.0625 -19.390625 12.109375 -17.921875 
L 12.109375 -9.1875 
Q 16.0625 -11.328125 19.921875 -12.34375 
Q 23.78125 -13.375 27.78125 -13.375 
Q 36.625 -13.375 41.015625 -8.765625 
Q 45.40625 -4.15625 45.40625 5.171875 
L 45.40625 9.625 
Q 42.625 4.78125 38.28125 2.390625 
Q 33.9375 0 27.875 0 
Q 17.828125 0 11.671875 7.65625 
Q 5.515625 15.328125 5.515625 27.984375 
Q 5.515625 40.671875 11.671875 48.328125 
Q 17.828125 56 27.875 56 
Q 33.9375 56 38.28125 53.609375 
Q 42.625 51.21875 45.40625 46.390625 
L 45.40625 54.6875 
L 54.390625 54.6875 
z
" id="DejaVuSans-103"/>
        <path d="M 34.28125 27.484375 
Q 23.390625 27.484375 19.1875 25 
Q 14.984375 22.515625 14.984375 16.5 
Q 14.984375 11.71875 18.140625 8.90625 
Q 21.296875 6.109375 26.703125 6.109375 
Q 34.1875 6.109375 38.703125 11.40625 
Q 43.21875 16.703125 43.21875 25.484375 
L 43.21875 27.484375 
z
M 52.203125 31.203125 
L 52.203125 0 
L 43.21875 0 
L 43.21875 8.296875 
Q 40.140625 3.328125 35.546875 0.953125 
Q 30.953125 -1.421875 24.3125 -1.421875 
Q 15.921875 -1.421875 10.953125 3.296875 
Q 6 8.015625 6 15.921875 
Q 6 25.140625 12.171875 29.828125 
Q 18.359375 34.515625 30.609375 34.515625 
L 43.21875 34.515625 
L 43.21875 35.40625 
Q 43.21875 41.609375 39.140625 45 
Q 35.0625 48.390625 27.6875 48.390625 
Q 23 48.390625 18.546875 47.265625 
Q 14.109375 46.140625 10.015625 43.890625 
L 10.015625 52.203125 
Q 14.9375 54.109375 19.578125 55.046875 
Q 24.21875 56 28.609375 56 
Q 40.484375 56 46.34375 49.84375 
Q 52.203125 43.703125 52.203125 31.203125 
z
" id="DejaVuSans-97"/>
        <path d="M 8.5 21.578125 
L 8.5 54.6875 
L 17.484375 54.6875 
L 17.484375 21.921875 
Q 17.484375 14.15625 20.5 10.265625 
Q 23.53125 6.390625 29.59375 6.390625 
Q 36.859375 6.390625 41.078125 11.03125 
Q 45.3125 15.671875 45.3125 23.6875 
L 45.3125 54.6875 
L 54.296875 54.6875 
L 54.296875 0 
L 45.3125 0 
L 45.3125 8.40625 
Q 42.046875 3.421875 37.71875 1 
Q 33.40625 -1.421875 27.6875 -1.421875 
Q 18.265625 -1.421875 13.375 4.4375 
Q 8.5 10.296875 8.5 21.578125 
z
M 31.109375 56 
z
" id="DejaVuSans-117"/>
        <path d="M 9.421875 54.6875 
L 18.40625 54.6875 
L 18.40625 0 
L 9.421875 0 
z
M 9.421875 75.984375 
L 18.40625 75.984375 
L 18.40625 64.59375 
L 9.421875 64.59375 
z
" id="DejaVuSans-105"/>
        <path d="M 50.984375 -16.609375 
L 50.984375 -23.578125 
L -0.984375 -23.578125 
L -0.984375 -16.609375 
z
" id="DejaVuSans-95"/>
        <path d="M 30.609375 48.390625 
Q 23.390625 48.390625 19.1875 42.75 
Q 14.984375 37.109375 14.984375 27.296875 
Q 14.984375 17.484375 19.15625 11.84375 
Q 23.34375 6.203125 30.609375 6.203125 
Q 37.796875 6.203125 41.984375 11.859375 
Q 46.1875 17.53125 46.1875 27.296875 
Q 46.1875 37.015625 41.984375 42.703125 
Q 37.796875 48.390625 30.609375 48.390625 
z
M 30.609375 56 
Q 42.328125 56 49.015625 48.375 
Q 55.71875 40.765625 55.71875 27.296875 
Q 55.71875 13.875 49.015625 6.21875 
Q 42.328125 -1.421875 30.609375 -1.421875 
Q 18.84375 -1.421875 12.171875 6.21875 
Q 5.515625 13.875 5.515625 27.296875 
Q 5.515625 40.765625 12.171875 48.375 
Q 18.84375 56 30.609375 56 
z
" id="DejaVuSans-111"/>
       </defs>
       <use xlink:href="#DejaVuSans-103"/>
       <use x="63.476562" xlink:href="#DejaVuSans-97"/>
       <use x="124.755859" xlink:href="#DejaVuSans-117"/>
       <use x="188.134766" xlink:href="#DejaVuSans-115"/>
       <use x="240.234375" xlink:href="#DejaVuSans-115"/>
       <use x="292.333984" xlink:href="#DejaVuSans-105"/>
       <use x="320.117188" xlink:href="#DejaVuSans-97"/>
       <use x="381.396484" xlink:href="#DejaVuSans-110"/>
       <use x="444.775391" xlink:href="#DejaVuSans-95"/>
       <use x="494.775391" xlink:href="#DejaVuSans-110"/>
       <use x="558.154297" xlink:href="#DejaVuSans-111"/>
       <use x="619.335938" xlink:href="#DejaVuSans-105"/>
       <use x="647.119141" xlink:href="#DejaVuSans-115"/>
       <use x="699.21875" xlink:href="#DejaVuSans-101"/>
      </g>
     </g>
    </g>
    <g id="xtick_3">
     <g id="line2d_3">
      <g>
       <use style="stroke:#000000;stroke-width:0.8;" x="290.671123" xlink:href="#m66ba457f92" y="378"/>
      </g>
     </g>
     <g id="text_3">
      <!-- gaussian_dropout -->
      <g transform="translate(246.393779 392.598437)scale(0.1 -0.1)">
       <defs>
        <path d="M 41.109375 46.296875 
Q 39.59375 47.171875 37.8125 47.578125 
Q 36.03125 48 33.890625 48 
Q 26.265625 48 22.1875 43.046875 
Q 18.109375 38.09375 18.109375 28.8125 
L 18.109375 0 
L 9.078125 0 
L 9.078125 54.6875 
L 18.109375 54.6875 
L 18.109375 46.1875 
Q 20.953125 51.171875 25.484375 53.578125 
Q 30.03125 56 36.53125 56 
Q 37.453125 56 38.578125 55.875 
Q 39.703125 55.765625 41.0625 55.515625 
z
" id="DejaVuSans-114"/>
        <path d="M 18.109375 8.203125 
L 18.109375 -20.796875 
L 9.078125 -20.796875 
L 9.078125 54.6875 
L 18.109375 54.6875 
L 18.109375 46.390625 
Q 20.953125 51.265625 25.265625 53.625 
Q 29.59375 56 35.59375 56 
Q 45.5625 56 51.78125 48.09375 
Q 58.015625 40.1875 58.015625 27.296875 
Q 58.015625 14.40625 51.78125 6.484375 
Q 45.5625 -1.421875 35.59375 -1.421875 
Q 29.59375 -1.421875 25.265625 0.953125 
Q 20.953125 3.328125 18.109375 8.203125 
z
M 48.6875 27.296875 
Q 48.6875 37.203125 44.609375 42.84375 
Q 40.53125 48.484375 33.40625 48.484375 
Q 26.265625 48.484375 22.1875 42.84375 
Q 18.109375 37.203125 18.109375 27.296875 
Q 18.109375 17.390625 22.1875 11.75 
Q 26.265625 6.109375 33.40625 6.109375 
Q 40.53125 6.109375 44.609375 11.75 
Q 48.6875 17.390625 48.6875 27.296875 
z
" id="DejaVuSans-112"/>
        <path d="M 18.3125 70.21875 
L 18.3125 54.6875 
L 36.8125 54.6875 
L 36.8125 47.703125 
L 18.3125 47.703125 
L 18.3125 18.015625 
Q 18.3125 11.328125 20.140625 9.421875 
Q 21.96875 7.515625 27.59375 7.515625 
L 36.8125 7.515625 
L 36.8125 0 
L 27.59375 0 
Q 17.1875 0 13.234375 3.875 
Q 9.28125 7.765625 9.28125 18.015625 
L 9.28125 47.703125 
L 2.6875 47.703125 
L 2.6875 54.6875 
L 9.28125 54.6875 
L 9.28125 70.21875 
z
" id="DejaVuSans-116"/>
       </defs>
       <use xlink:href="#DejaVuSans-103"/>
       <use x="63.476562" xlink:href="#DejaVuSans-97"/>
       <use x="124.755859" xlink:href="#DejaVuSans-117"/>
       <use x="188.134766" xlink:href="#DejaVuSans-115"/>
       <use x="240.234375" xlink:href="#DejaVuSans-115"/>
       <use x="292.333984" xlink:href="#DejaVuSans-105"/>
       <use x="320.117188" xlink:href="#DejaVuSans-97"/>
       <use x="381.396484" xlink:href="#DejaVuSans-110"/>
       <use x="444.775391" xlink:href="#DejaVuSans-95"/>
       <use x="494.775391" xlink:href="#DejaVuSans-100"/>
       <use x="558.251953" xlink:href="#DejaVuSans-114"/>
       <use x="597.115234" xlink:href="#DejaVuSans-111"/>
       <use x="658.296875" xlink:href="#DejaVuSans-112"/>
       <use x="721.773438" xlink:href="#DejaVuSans-111"/>
       <use x="782.955078" xlink:href="#DejaVuSans-117"/>
       <use x="846.333984" xlink:href="#DejaVuSans-116"/>
      </g>
     </g>
    </g>
    <g id="xtick_4">
     <g id="line2d_4">
      <g>
       <use style="stroke:#000000;stroke-width:0.8;" x="365.270053" xlink:href="#m66ba457f92" y="378"/>
      </g>
     </g>
     <g id="text_4">
      <!-- sqrt_softmax -->
      <g transform="translate(332.784897 392.598437)scale(0.1 -0.1)">
       <defs>
        <path d="M 14.796875 27.296875 
Q 14.796875 17.390625 18.875 11.75 
Q 22.953125 6.109375 30.078125 6.109375 
Q 37.203125 6.109375 41.296875 11.75 
Q 45.40625 17.390625 45.40625 27.296875 
Q 45.40625 37.203125 41.296875 42.84375 
Q 37.203125 48.484375 30.078125 48.484375 
Q 22.953125 48.484375 18.875 42.84375 
Q 14.796875 37.203125 14.796875 27.296875 
z
M 45.40625 8.203125 
Q 42.578125 3.328125 38.25 0.953125 
Q 33.9375 -1.421875 27.875 -1.421875 
Q 17.96875 -1.421875 11.734375 6.484375 
Q 5.515625 14.40625 5.515625 27.296875 
Q 5.515625 40.1875 11.734375 48.09375 
Q 17.96875 56 27.875 56 
Q 33.9375 56 38.25 53.625 
Q 42.578125 51.265625 45.40625 46.390625 
L 45.40625 54.6875 
L 54.390625 54.6875 
L 54.390625 -20.796875 
L 45.40625 -20.796875 
z
" id="DejaVuSans-113"/>
        <path d="M 37.109375 75.984375 
L 37.109375 68.5 
L 28.515625 68.5 
Q 23.6875 68.5 21.796875 66.546875 
Q 19.921875 64.59375 19.921875 59.515625 
L 19.921875 54.6875 
L 34.71875 54.6875 
L 34.71875 47.703125 
L 19.921875 47.703125 
L 19.921875 0 
L 10.890625 0 
L 10.890625 47.703125 
L 2.296875 47.703125 
L 2.296875 54.6875 
L 10.890625 54.6875 
L 10.890625 58.5 
Q 10.890625 67.625 15.140625 71.796875 
Q 19.390625 75.984375 28.609375 75.984375 
z
" id="DejaVuSans-102"/>
        <path d="M 52 44.1875 
Q 55.375 50.25 60.0625 53.125 
Q 64.75 56 71.09375 56 
Q 79.640625 56 84.28125 50.015625 
Q 88.921875 44.046875 88.921875 33.015625 
L 88.921875 0 
L 79.890625 0 
L 79.890625 32.71875 
Q 79.890625 40.578125 77.09375 44.375 
Q 74.3125 48.1875 68.609375 48.1875 
Q 61.625 48.1875 57.5625 43.546875 
Q 53.515625 38.921875 53.515625 30.90625 
L 53.515625 0 
L 44.484375 0 
L 44.484375 32.71875 
Q 44.484375 40.625 41.703125 44.40625 
Q 38.921875 48.1875 33.109375 48.1875 
Q 26.21875 48.1875 22.15625 43.53125 
Q 18.109375 38.875 18.109375 30.90625 
L 18.109375 0 
L 9.078125 0 
L 9.078125 54.6875 
L 18.109375 54.6875 
L 18.109375 46.1875 
Q 21.1875 51.21875 25.484375 53.609375 
Q 29.78125 56 35.6875 56 
Q 41.65625 56 45.828125 52.96875 
Q 50 49.953125 52 44.1875 
z
" id="DejaVuSans-109"/>
        <path d="M 54.890625 54.6875 
L 35.109375 28.078125 
L 55.90625 0 
L 45.3125 0 
L 29.390625 21.484375 
L 13.484375 0 
L 2.875 0 
L 24.125 28.609375 
L 4.6875 54.6875 
L 15.28125 54.6875 
L 29.78125 35.203125 
L 44.28125 54.6875 
z
" id="DejaVuSans-120"/>
       </defs>
       <use xlink:href="#DejaVuSans-115"/>
       <use x="52.099609" xlink:href="#DejaVuSans-113"/>
       <use x="115.576172" xlink:href="#DejaVuSans-114"/>
       <use x="156.689453" xlink:href="#DejaVuSans-116"/>
       <use x="195.898438" xlink:href="#DejaVuSans-95"/>
       <use x="245.898438" xlink:href="#DejaVuSans-115"/>
       <use x="297.998047" xlink:href="#DejaVuSans-111"/>
       <use x="359.179688" xlink:href="#DejaVuSans-102"/>
       <use x="392.634766" xlink:href="#DejaVuSans-116"/>
       <use x="431.84375" xlink:href="#DejaVuSans-109"/>
       <use x="529.255859" xlink:href="#DejaVuSans-97"/>
       <use x="590.535156" xlink:href="#DejaVuSans-120"/>
      </g>
     </g>
    </g>
    <g id="xtick_5">
     <g id="line2d_5">
      <g>
       <use style="stroke:#000000;stroke-width:0.8;" x="439.868984" xlink:href="#m66ba457f92" y="378"/>
      </g>
     </g>
     <g id="text_5">
      <!-- gaussian_kernel -->
      <g transform="translate(399.737734 392.598437)scale(0.1 -0.1)">
       <defs>
        <path d="M 9.078125 75.984375 
L 18.109375 75.984375 
L 18.109375 31.109375 
L 44.921875 54.6875 
L 56.390625 54.6875 
L 27.390625 29.109375 
L 57.625 0 
L 45.90625 0 
L 18.109375 26.703125 
L 18.109375 0 
L 9.078125 0 
z
" id="DejaVuSans-107"/>
        <path d="M 9.421875 75.984375 
L 18.40625 75.984375 
L 18.40625 0 
L 9.421875 0 
z
" id="DejaVuSans-108"/>
       </defs>
       <use xlink:href="#DejaVuSans-103"/>
       <use x="63.476562" xlink:href="#DejaVuSans-97"/>
       <use x="124.755859" xlink:href="#DejaVuSans-117"/>
       <use x="188.134766" xlink:href="#DejaVuSans-115"/>
       <use x="240.234375" xlink:href="#DejaVuSans-115"/>
       <use x="292.333984" xlink:href="#DejaVuSans-105"/>
       <use x="320.117188" xlink:href="#DejaVuSans-97"/>
       <use x="381.396484" xlink:href="#DejaVuSans-110"/>
       <use x="444.775391" xlink:href="#DejaVuSans-95"/>
       <use x="494.775391" xlink:href="#DejaVuSans-107"/>
       <use x="549.060547" xlink:href="#DejaVuSans-101"/>
       <use x="610.583984" xlink:href="#DejaVuSans-114"/>
       <use x="649.947266" xlink:href="#DejaVuSans-110"/>
       <use x="713.326172" xlink:href="#DejaVuSans-101"/>
       <use x="774.849609" xlink:href="#DejaVuSans-108"/>
      </g>
     </g>
    </g>
    <g id="xtick_6">
     <g id="line2d_6">
      <g>
       <use style="stroke:#000000;stroke-width:0.8;" x="514.467914" xlink:href="#m66ba457f92" y="378"/>
      </g>
     </g>
     <g id="text_6">
      <!-- CNN -->
      <g transform="translate(503.495258 392.598437)scale(0.1 -0.1)">
       <defs>
        <path d="M 64.40625 67.28125 
L 64.40625 56.890625 
Q 59.421875 61.53125 53.78125 63.8125 
Q 48.140625 66.109375 41.796875 66.109375 
Q 29.296875 66.109375 22.65625 58.46875 
Q 16.015625 50.828125 16.015625 36.375 
Q 16.015625 21.96875 22.65625 14.328125 
Q 29.296875 6.6875 41.796875 6.6875 
Q 48.140625 6.6875 53.78125 8.984375 
Q 59.421875 11.28125 64.40625 15.921875 
L 64.40625 5.609375 
Q 59.234375 2.09375 53.4375 0.328125 
Q 47.65625 -1.421875 41.21875 -1.421875 
Q 24.65625 -1.421875 15.125 8.703125 
Q 5.609375 18.84375 5.609375 36.375 
Q 5.609375 53.953125 15.125 64.078125 
Q 24.65625 74.21875 41.21875 74.21875 
Q 47.75 74.21875 53.53125 72.484375 
Q 59.328125 70.75 64.40625 67.28125 
z
" id="DejaVuSans-67"/>
        <path d="M 9.8125 72.90625 
L 23.09375 72.90625 
L 55.421875 11.921875 
L 55.421875 72.90625 
L 64.984375 72.90625 
L 64.984375 0 
L 51.703125 0 
L 19.390625 60.984375 
L 19.390625 0 
L 9.8125 0 
z
" id="DejaVuSans-78"/>
       </defs>
       <use xlink:href="#DejaVuSans-67"/>
       <use x="69.824219" xlink:href="#DejaVuSans-78"/>
       <use x="144.628906" xlink:href="#DejaVuSans-78"/>
      </g>
     </g>
    </g>
    <g id="xtick_7">
     <g id="line2d_7">
      <g>
       <use style="stroke:#000000;stroke-width:0.8;" x="589.066845" xlink:href="#m66ba457f92" y="378"/>
      </g>
     </g>
     <g id="text_7">
      <!-- VAE -->
      <g transform="translate(579.385595 392.598437)scale(0.1 -0.1)">
       <defs>
        <path d="M 28.609375 0 
L 0.78125 72.90625 
L 11.078125 72.90625 
L 34.1875 11.53125 
L 57.328125 72.90625 
L 67.578125 72.90625 
L 39.796875 0 
z
" id="DejaVuSans-86"/>
        <path d="M 34.1875 63.1875 
L 20.796875 26.90625 
L 47.609375 26.90625 
z
M 28.609375 72.90625 
L 39.796875 72.90625 
L 67.578125 0 
L 57.328125 0 
L 50.6875 18.703125 
L 17.828125 18.703125 
L 11.1875 0 
L 0.78125 0 
z
" id="DejaVuSans-65"/>
        <path d="M 9.8125 72.90625 
L 55.90625 72.90625 
L 55.90625 64.59375 
L 19.671875 64.59375 
L 19.671875 43.015625 
L 54.390625 43.015625 
L 54.390625 34.71875 
L 19.671875 34.71875 
L 19.671875 8.296875 
L 56.78125 8.296875 
L 56.78125 0 
L 9.8125 0 
z
" id="DejaVuSans-69"/>
       </defs>
       <use xlink:href="#DejaVuSans-86"/>
       <use x="62.033203" xlink:href="#DejaVuSans-65"/>
       <use x="130.441406" xlink:href="#DejaVuSans-69"/>
      </g>
     </g>
    </g>
   </g>
   <g id="matplotlib.axis_2">
    <g id="ytick_1">
     <g id="line2d_8">
      <path clip-path="url(#pcbccca3091)" d="M 90 378 
L 648 378 
" style="fill:none;stroke:#b0b0b0;stroke-linecap:square;stroke-width:0.8;"/>
     </g>
     <g id="line2d_9">
      <defs>
       <path d="M 0 0 
L -3.5 0 
" id="m6205d0869f" style="stroke:#000000;stroke-width:0.8;"/>
      </defs>
      <g>
       <use style="stroke:#000000;stroke-width:0.8;" x="90" xlink:href="#m6205d0869f" y="378"/>
      </g>
     </g>
     <g id="text_8">
      <!-- −175 -->
      <g transform="translate(55.532812 381.799219)scale(0.1 -0.1)">
       <defs>
        <path d="M 10.59375 35.5 
L 73.1875 35.5 
L 73.1875 27.203125 
L 10.59375 27.203125 
z
" id="DejaVuSans-8722"/>
        <path d="M 12.40625 8.296875 
L 28.515625 8.296875 
L 28.515625 63.921875 
L 10.984375 60.40625 
L 10.984375 69.390625 
L 28.421875 72.90625 
L 38.28125 72.90625 
L 38.28125 8.296875 
L 54.390625 8.296875 
L 54.390625 0 
L 12.40625 0 
z
" id="DejaVuSans-49"/>
        <path d="M 8.203125 72.90625 
L 55.078125 72.90625 
L 55.078125 68.703125 
L 28.609375 0 
L 18.3125 0 
L 43.21875 64.59375 
L 8.203125 64.59375 
z
" id="DejaVuSans-55"/>
        <path d="M 10.796875 72.90625 
L 49.515625 72.90625 
L 49.515625 64.59375 
L 19.828125 64.59375 
L 19.828125 46.734375 
Q 21.96875 47.46875 24.109375 47.828125 
Q 26.265625 48.1875 28.421875 48.1875 
Q 40.625 48.1875 47.75 41.5 
Q 54.890625 34.8125 54.890625 23.390625 
Q 54.890625 11.625 47.5625 5.09375 
Q 40.234375 -1.421875 26.90625 -1.421875 
Q 22.3125 -1.421875 17.546875 -0.640625 
Q 12.796875 0.140625 7.71875 1.703125 
L 7.71875 11.625 
Q 12.109375 9.234375 16.796875 8.0625 
Q 21.484375 6.890625 26.703125 6.890625 
Q 35.15625 6.890625 40.078125 11.328125 
Q 45.015625 15.765625 45.015625 23.390625 
Q 45.015625 31 40.078125 35.4375 
Q 35.15625 39.890625 26.703125 39.890625 
Q 22.75 39.890625 18.8125 39.015625 
Q 14.890625 38.140625 10.796875 36.28125 
z
" id="DejaVuSans-53"/>
       </defs>
       <use xlink:href="#DejaVuSans-8722"/>
       <use x="83.789062" xlink:href="#DejaVuSans-49"/>
       <use x="147.412109" xlink:href="#DejaVuSans-55"/>
       <use x="211.035156" xlink:href="#DejaVuSans-53"/>
      </g>
     </g>
    </g>
    <g id="ytick_2">
     <g id="line2d_10">
      <path clip-path="url(#pcbccca3091)" d="M 90 348.349091 
L 648 348.349091 
" style="fill:none;stroke:#b0b0b0;stroke-linecap:square;stroke-width:0.8;"/>
     </g>
     <g id="line2d_11">
      <g>
       <use style="stroke:#000000;stroke-width:0.8;" x="90" xlink:href="#m6205d0869f" y="348.349091"/>
      </g>
     </g>
     <g id="text_9">
      <!-- −150 -->
      <g transform="translate(55.532812 352.14831)scale(0.1 -0.1)">
       <defs>
        <path d="M 31.78125 66.40625 
Q 24.171875 66.40625 20.328125 58.90625 
Q 16.5 51.421875 16.5 36.375 
Q 16.5 21.390625 20.328125 13.890625 
Q 24.171875 6.390625 31.78125 6.390625 
Q 39.453125 6.390625 43.28125 13.890625 
Q 47.125 21.390625 47.125 36.375 
Q 47.125 51.421875 43.28125 58.90625 
Q 39.453125 66.40625 31.78125 66.40625 
z
M 31.78125 74.21875 
Q 44.046875 74.21875 50.515625 64.515625 
Q 56.984375 54.828125 56.984375 36.375 
Q 56.984375 17.96875 50.515625 8.265625 
Q 44.046875 -1.421875 31.78125 -1.421875 
Q 19.53125 -1.421875 13.0625 8.265625 
Q 6.59375 17.96875 6.59375 36.375 
Q 6.59375 54.828125 13.0625 64.515625 
Q 19.53125 74.21875 31.78125 74.21875 
z
" id="DejaVuSans-48"/>
       </defs>
       <use xlink:href="#DejaVuSans-8722"/>
       <use x="83.789062" xlink:href="#DejaVuSans-49"/>
       <use x="147.412109" xlink:href="#DejaVuSans-53"/>
       <use x="211.035156" xlink:href="#DejaVuSans-48"/>
      </g>
     </g>
    </g>
    <g id="ytick_3">
     <g id="line2d_12">
      <path clip-path="url(#pcbccca3091)" d="M 90 318.698182 
L 648 318.698182 
" style="fill:none;stroke:#b0b0b0;stroke-linecap:square;stroke-width:0.8;"/>
     </g>
     <g id="line2d_13">
      <g>
       <use style="stroke:#000000;stroke-width:0.8;" x="90" xlink:href="#m6205d0869f" y="318.698182"/>
      </g>
     </g>
     <g id="text_10">
      <!-- −125 -->
      <g transform="translate(55.532812 322.497401)scale(0.1 -0.1)">
       <defs>
        <path d="M 19.1875 8.296875 
L 53.609375 8.296875 
L 53.609375 0 
L 7.328125 0 
L 7.328125 8.296875 
Q 12.9375 14.109375 22.625 23.890625 
Q 32.328125 33.6875 34.8125 36.53125 
Q 39.546875 41.84375 41.421875 45.53125 
Q 43.3125 49.21875 43.3125 52.78125 
Q 43.3125 58.59375 39.234375 62.25 
Q 35.15625 65.921875 28.609375 65.921875 
Q 23.96875 65.921875 18.8125 64.3125 
Q 13.671875 62.703125 7.8125 59.421875 
L 7.8125 69.390625 
Q 13.765625 71.78125 18.9375 73 
Q 24.125 74.21875 28.421875 74.21875 
Q 39.75 74.21875 46.484375 68.546875 
Q 53.21875 62.890625 53.21875 53.421875 
Q 53.21875 48.921875 51.53125 44.890625 
Q 49.859375 40.875 45.40625 35.40625 
Q 44.1875 33.984375 37.640625 27.21875 
Q 31.109375 20.453125 19.1875 8.296875 
z
" id="DejaVuSans-50"/>
       </defs>
       <use xlink:href="#DejaVuSans-8722"/>
       <use x="83.789062" xlink:href="#DejaVuSans-49"/>
       <use x="147.412109" xlink:href="#DejaVuSans-50"/>
       <use x="211.035156" xlink:href="#DejaVuSans-53"/>
      </g>
     </g>
    </g>
    <g id="ytick_4">
     <g id="line2d_14">
      <path clip-path="url(#pcbccca3091)" d="M 90 289.047273 
L 648 289.047273 
" style="fill:none;stroke:#b0b0b0;stroke-linecap:square;stroke-width:0.8;"/>
     </g>
     <g id="line2d_15">
      <g>
       <use style="stroke:#000000;stroke-width:0.8;" x="90" xlink:href="#m6205d0869f" y="289.047273"/>
      </g>
     </g>
     <g id="text_11">
      <!-- −100 -->
      <g transform="translate(55.532812 292.846491)scale(0.1 -0.1)">
       <use xlink:href="#DejaVuSans-8722"/>
       <use x="83.789062" xlink:href="#DejaVuSans-49"/>
       <use x="147.412109" xlink:href="#DejaVuSans-48"/>
       <use x="211.035156" xlink:href="#DejaVuSans-48"/>
      </g>
     </g>
    </g>
    <g id="ytick_5">
     <g id="line2d_16">
      <path clip-path="url(#pcbccca3091)" d="M 90 259.396364 
L 648 259.396364 
" style="fill:none;stroke:#b0b0b0;stroke-linecap:square;stroke-width:0.8;"/>
     </g>
     <g id="line2d_17">
      <g>
       <use style="stroke:#000000;stroke-width:0.8;" x="90" xlink:href="#m6205d0869f" y="259.396364"/>
      </g>
     </g>
     <g id="text_12">
      <!-- −75 -->
      <g transform="translate(61.895313 263.195582)scale(0.1 -0.1)">
       <use xlink:href="#DejaVuSans-8722"/>
       <use x="83.789062" xlink:href="#DejaVuSans-55"/>
       <use x="147.412109" xlink:href="#DejaVuSans-53"/>
      </g>
     </g>
    </g>
    <g id="ytick_6">
     <g id="line2d_18">
      <path clip-path="url(#pcbccca3091)" d="M 90 229.745455 
L 648 229.745455 
" style="fill:none;stroke:#b0b0b0;stroke-linecap:square;stroke-width:0.8;"/>
     </g>
     <g id="line2d_19">
      <g>
       <use style="stroke:#000000;stroke-width:0.8;" x="90" xlink:href="#m6205d0869f" y="229.745455"/>
      </g>
     </g>
     <g id="text_13">
      <!-- −50 -->
      <g transform="translate(61.895313 233.544673)scale(0.1 -0.1)">
       <use xlink:href="#DejaVuSans-8722"/>
       <use x="83.789062" xlink:href="#DejaVuSans-53"/>
       <use x="147.412109" xlink:href="#DejaVuSans-48"/>
      </g>
     </g>
    </g>
    <g id="ytick_7">
     <g id="line2d_20">
      <path clip-path="url(#pcbccca3091)" d="M 90 200.094545 
L 648 200.094545 
" style="fill:none;stroke:#b0b0b0;stroke-linecap:square;stroke-width:0.8;"/>
     </g>
     <g id="line2d_21">
      <g>
       <use style="stroke:#000000;stroke-width:0.8;" x="90" xlink:href="#m6205d0869f" y="200.094545"/>
      </g>
     </g>
     <g id="text_14">
      <!-- −25 -->
      <g transform="translate(61.895313 203.893764)scale(0.1 -0.1)">
       <use xlink:href="#DejaVuSans-8722"/>
       <use x="83.789062" xlink:href="#DejaVuSans-50"/>
       <use x="147.412109" xlink:href="#DejaVuSans-53"/>
      </g>
     </g>
    </g>
    <g id="ytick_8">
     <g id="line2d_22">
      <path clip-path="url(#pcbccca3091)" d="M 90 170.443636 
L 648 170.443636 
" style="fill:none;stroke:#b0b0b0;stroke-linecap:square;stroke-width:0.8;"/>
     </g>
     <g id="line2d_23">
      <g>
       <use style="stroke:#000000;stroke-width:0.8;" x="90" xlink:href="#m6205d0869f" y="170.443636"/>
      </g>
     </g>
     <g id="text_15">
      <!-- 0 -->
      <g transform="translate(76.6375 174.242855)scale(0.1 -0.1)">
       <use xlink:href="#DejaVuSans-48"/>
      </g>
     </g>
    </g>
    <g id="ytick_9">
     <g id="line2d_24">
      <path clip-path="url(#pcbccca3091)" d="M 90 140.792727 
L 648 140.792727 
" style="fill:none;stroke:#b0b0b0;stroke-linecap:square;stroke-width:0.8;"/>
     </g>
     <g id="line2d_25">
      <g>
       <use style="stroke:#000000;stroke-width:0.8;" x="90" xlink:href="#m6205d0869f" y="140.792727"/>
      </g>
     </g>
     <g id="text_16">
      <!-- 25 -->
      <g transform="translate(70.275 144.591946)scale(0.1 -0.1)">
       <use xlink:href="#DejaVuSans-50"/>
       <use x="63.623047" xlink:href="#DejaVuSans-53"/>
      </g>
     </g>
    </g>
    <g id="ytick_10">
     <g id="line2d_26">
      <path clip-path="url(#pcbccca3091)" d="M 90 111.141818 
L 648 111.141818 
" style="fill:none;stroke:#b0b0b0;stroke-linecap:square;stroke-width:0.8;"/>
     </g>
     <g id="line2d_27">
      <g>
       <use style="stroke:#000000;stroke-width:0.8;" x="90" xlink:href="#m6205d0869f" y="111.141818"/>
      </g>
     </g>
     <g id="text_17">
      <!-- 50 -->
      <g transform="translate(70.275 114.941037)scale(0.1 -0.1)">
       <use xlink:href="#DejaVuSans-53"/>
       <use x="63.623047" xlink:href="#DejaVuSans-48"/>
      </g>
     </g>
    </g>
    <g id="ytick_11">
     <g id="line2d_28">
      <path clip-path="url(#pcbccca3091)" d="M 90 81.490909 
L 648 81.490909 
" style="fill:none;stroke:#b0b0b0;stroke-linecap:square;stroke-width:0.8;"/>
     </g>
     <g id="line2d_29">
      <g>
       <use style="stroke:#000000;stroke-width:0.8;" x="90" xlink:href="#m6205d0869f" y="81.490909"/>
      </g>
     </g>
     <g id="text_18">
      <!-- 75 -->
      <g transform="translate(70.275 85.290128)scale(0.1 -0.1)">
       <use xlink:href="#DejaVuSans-55"/>
       <use x="63.623047" xlink:href="#DejaVuSans-53"/>
      </g>
     </g>
    </g>
    <g id="ytick_12">
     <g id="line2d_30">
      <path clip-path="url(#pcbccca3091)" d="M 90 51.84 
L 648 51.84 
" style="fill:none;stroke:#b0b0b0;stroke-linecap:square;stroke-width:0.8;"/>
     </g>
     <g id="line2d_31">
      <g>
       <use style="stroke:#000000;stroke-width:0.8;" x="90" xlink:href="#m6205d0869f" y="51.84"/>
      </g>
     </g>
     <g id="text_19">
      <!-- 100 -->
      <g transform="translate(63.9125 55.639219)scale(0.1 -0.1)">
       <use xlink:href="#DejaVuSans-49"/>
       <use x="63.623047" xlink:href="#DejaVuSans-48"/>
       <use x="127.246094" xlink:href="#DejaVuSans-48"/>
      </g>
     </g>
    </g>
   </g>
   <g id="LineCollection_1">
    <path clip-path="url(#pcbccca3091)" d="M 119.093583 60.270333 
L 119.093583 52.499618 
" style="fill:none;stroke:#000000;stroke-width:1.5;"/>
    <path clip-path="url(#pcbccca3091)" d="M 193.692513 63.566024 
L 193.692513 51.523177 
" style="fill:none;stroke:#000000;stroke-width:1.5;"/>
    <path clip-path="url(#pcbccca3091)" d="M 268.291444 54.29857 
L 268.291444 52.292373 
" style="fill:none;stroke:#000000;stroke-width:1.5;"/>
    <path clip-path="url(#pcbccca3091)" d="M 342.890374 57.613552 
L 342.890374 51.762987 
" style="fill:none;stroke:#000000;stroke-width:1.5;"/>
    <path clip-path="url(#pcbccca3091)" d="M 417.489305 55.003915 
L 417.489305 52.672571 
" style="fill:none;stroke:#000000;stroke-width:1.5;"/>
    <path clip-path="url(#pcbccca3091)" d="M 492.088235 54.181703 
L 492.088235 52.241557 
" style="fill:none;stroke:#000000;stroke-width:1.5;"/>
    <path clip-path="url(#pcbccca3091)" style="fill:none;stroke:#000000;stroke-width:1.5;"/>
   </g>
   <g id="LineCollection_2">
    <path clip-path="url(#pcbccca3091)" d="M 126.553476 55.302675 
L 126.553476 52.524492 
" style="fill:none;stroke:#000000;stroke-width:1.5;"/>
    <path clip-path="url(#pcbccca3091)" d="M 201.152406 52.412835 
L 201.152406 52.336466 
" style="fill:none;stroke:#000000;stroke-width:1.5;"/>
    <path clip-path="url(#pcbccca3091)" d="M 275.751337 53.108149 
L 275.751337 52.051921 
" style="fill:none;stroke:#000000;stroke-width:1.5;"/>
    <path clip-path="url(#pcbccca3091)" d="M 350.350267 52.873062 
L 350.350267 52.269141 
" style="fill:none;stroke:#000000;stroke-width:1.5;"/>
    <path clip-path="url(#pcbccca3091)" d="M 424.949198 53.548437 
L 424.949198 52.281488 
" style="fill:none;stroke:#000000;stroke-width:1.5;"/>
    <path clip-path="url(#pcbccca3091)" d="M 499.548128 61.009546 
L 499.548128 51.963463 
" style="fill:none;stroke:#000000;stroke-width:1.5;"/>
    <path clip-path="url(#pcbccca3091)" style="fill:none;stroke:#000000;stroke-width:1.5;"/>
   </g>
   <g id="LineCollection_3">
    <path clip-path="url(#pcbccca3091)" d="M 134.013369 174.662881 
L 134.013369 166.110814 
" style="fill:none;stroke:#000000;stroke-width:1.5;"/>
    <path clip-path="url(#pcbccca3091)" d="M 208.612299 165.661747 
L 208.612299 162.668502 
" style="fill:none;stroke:#000000;stroke-width:1.5;"/>
    <path clip-path="url(#pcbccca3091)" d="M 283.21123 169.940426 
L 283.21123 166.324867 
" style="fill:none;stroke:#000000;stroke-width:1.5;"/>
    <path clip-path="url(#pcbccca3091)" d="M 357.81016 172.239603 
L 357.81016 163.205083 
" style="fill:none;stroke:#000000;stroke-width:1.5;"/>
    <path clip-path="url(#pcbccca3091)" d="M 432.409091 177.562962 
L 432.409091 159.874993 
" style="fill:none;stroke:#000000;stroke-width:1.5;"/>
    <path clip-path="url(#pcbccca3091)" d="M 507.008021 169.897018 
L 507.008021 168.062604 
" style="fill:none;stroke:#000000;stroke-width:1.5;"/>
    <path clip-path="url(#pcbccca3091)" style="fill:none;stroke:#000000;stroke-width:1.5;"/>
   </g>
   <g id="LineCollection_4">
    <path clip-path="url(#pcbccca3091)" d="M 141.473262 138.270345 
L 141.473262 119.950552 
" style="fill:none;stroke:#000000;stroke-width:1.5;"/>
    <path clip-path="url(#pcbccca3091)" d="M 216.072193 111.424904 
L 216.072193 106.052588 
" style="fill:none;stroke:#000000;stroke-width:1.5;"/>
    <path clip-path="url(#pcbccca3091)" d="M 290.671123 131.589992 
L 290.671123 119.057402 
" style="fill:none;stroke:#000000;stroke-width:1.5;"/>
    <path clip-path="url(#pcbccca3091)" d="M 365.270053 133.374803 
L 365.270053 112.537386 
" style="fill:none;stroke:#000000;stroke-width:1.5;"/>
    <path clip-path="url(#pcbccca3091)" d="M 439.868984 123.21757 
L 439.868984 114.895652 
" style="fill:none;stroke:#000000;stroke-width:1.5;"/>
    <path clip-path="url(#pcbccca3091)" d="M 514.467914 166.297628 
L 514.467914 159.606886 
" style="fill:none;stroke:#000000;stroke-width:1.5;"/>
    <path clip-path="url(#pcbccca3091)" style="fill:none;stroke:#000000;stroke-width:1.5;"/>
   </g>
   <g id="LineCollection_5">
    <path clip-path="url(#pcbccca3091)" d="M 148.933155 97.567195 
L 148.933155 85.026358 
" style="fill:none;stroke:#000000;stroke-width:1.5;"/>
    <path clip-path="url(#pcbccca3091)" d="M 223.532086 97.738046 
L 223.532086 87.774127 
" style="fill:none;stroke:#000000;stroke-width:1.5;"/>
    <path clip-path="url(#pcbccca3091)" d="M 298.131016 93.363685 
L 298.131016 88.519932 
" style="fill:none;stroke:#000000;stroke-width:1.5;"/>
    <path clip-path="url(#pcbccca3091)" d="M 372.729947 377.962585 
L 372.729947 341.501519 
" style="fill:none;stroke:#000000;stroke-width:1.5;"/>
    <path clip-path="url(#pcbccca3091)" d="M 447.328877 101.671809 
L 447.328877 88.898554 
" style="fill:none;stroke:#000000;stroke-width:1.5;"/>
    <path clip-path="url(#pcbccca3091)" d="M 521.927807 95.770024 
L 521.927807 87.249611 
" style="fill:none;stroke:#000000;stroke-width:1.5;"/>
    <path clip-path="url(#pcbccca3091)" style="fill:none;stroke:#000000;stroke-width:1.5;"/>
   </g>
   <g id="LineCollection_6">
    <path clip-path="url(#pcbccca3091)" d="M 156.393048 83.230953 
L 156.393048 77.617372 
" style="fill:none;stroke:#000000;stroke-width:1.5;"/>
    <path clip-path="url(#pcbccca3091)" d="M 230.991979 72.11413 
L 230.991979 67.842882 
" style="fill:none;stroke:#000000;stroke-width:1.5;"/>
    <path clip-path="url(#pcbccca3091)" d="M 305.590909 79.128565 
L 305.590909 71.887682 
" style="fill:none;stroke:#000000;stroke-width:1.5;"/>
    <path clip-path="url(#pcbccca3091)" style="fill:none;stroke:#000000;stroke-width:1.5;"/>
    <path clip-path="url(#pcbccca3091)" d="M 454.78877 89.07186 
L 454.78877 73.302239 
" style="fill:none;stroke:#000000;stroke-width:1.5;"/>
    <path clip-path="url(#pcbccca3091)" d="M 529.387701 84.132873 
L 529.387701 74.874836 
" style="fill:none;stroke:#000000;stroke-width:1.5;"/>
    <path clip-path="url(#pcbccca3091)" style="fill:none;stroke:#000000;stroke-width:1.5;"/>
   </g>
   <g id="LineCollection_7">
    <path clip-path="url(#pcbccca3091)" d="M 163.852941 174.617696 
L 163.852941 173.760746 
" style="fill:none;stroke:#000000;stroke-width:1.5;"/>
    <path clip-path="url(#pcbccca3091)" d="M 238.451872 140.799233 
L 238.451872 135.976878 
" style="fill:none;stroke:#000000;stroke-width:1.5;"/>
    <path clip-path="url(#pcbccca3091)" d="M 313.050802 170.02189 
L 313.050802 167.800153 
" style="fill:none;stroke:#000000;stroke-width:1.5;"/>
    <path clip-path="url(#pcbccca3091)" d="M 387.649733 408.645545 
L 387.649733 365.225765 
" style="fill:none;stroke:#000000;stroke-width:1.5;"/>
    <path clip-path="url(#pcbccca3091)" d="M 462.248663 177.291623 
L 462.248663 173.191834 
" style="fill:none;stroke:#000000;stroke-width:1.5;"/>
    <path clip-path="url(#pcbccca3091)" d="M 536.847594 175.61411 
L 536.847594 170.497062 
" style="fill:none;stroke:#000000;stroke-width:1.5;"/>
    <path clip-path="url(#pcbccca3091)" style="fill:none;stroke:#000000;stroke-width:1.5;"/>
   </g>
   <g id="LineCollection_8">
    <path clip-path="url(#pcbccca3091)" d="M 171.312834 125.185019 
L 171.312834 123.945483 
" style="fill:none;stroke:#000000;stroke-width:1.5;"/>
    <path clip-path="url(#pcbccca3091)" d="M 245.911765 74.097587 
L 245.911765 70.662645 
" style="fill:none;stroke:#000000;stroke-width:1.5;"/>
    <path clip-path="url(#pcbccca3091)" d="M 320.510695 119.478407 
L 320.510695 117.996601 
" style="fill:none;stroke:#000000;stroke-width:1.5;"/>
    <path clip-path="url(#pcbccca3091)" style="fill:none;stroke:#000000;stroke-width:1.5;"/>
    <path clip-path="url(#pcbccca3091)" d="M 469.708556 126.564146 
L 469.708556 119.034557 
" style="fill:none;stroke:#000000;stroke-width:1.5;"/>
    <path clip-path="url(#pcbccca3091)" d="M 544.307487 125.0348 
L 544.307487 123.033551 
" style="fill:none;stroke:#000000;stroke-width:1.5;"/>
    <path clip-path="url(#pcbccca3091)" style="fill:none;stroke:#000000;stroke-width:1.5;"/>
   </g>
   <g id="line2d_32">
    <path clip-path="url(#pcbccca3091)" d="M 90 170.443636 
L 648 170.443636 
" style="fill:none;stroke:#000000;stroke-linecap:square;stroke-width:1.5;"/>
   </g>
   <g id="patch_59">
    <path d="M 90 378 
L 90 51.84 
" style="fill:none;stroke:#000000;stroke-linecap:square;stroke-linejoin:miter;stroke-width:0.8;"/>
   </g>
   <g id="patch_60">
    <path d="M 648 378 
L 648 51.84 
" style="fill:none;stroke:#000000;stroke-linecap:square;stroke-linejoin:miter;stroke-width:0.8;"/>
   </g>
   <g id="patch_61">
    <path d="M 90 378 
L 648 378 
" style="fill:none;stroke:#000000;stroke-linecap:square;stroke-linejoin:miter;stroke-width:0.8;"/>
   </g>
   <g id="patch_62">
    <path d="M 90 51.84 
L 648 51.84 
" style="fill:none;stroke:#000000;stroke-linecap:square;stroke-linejoin:miter;stroke-width:0.8;"/>
   </g>
   <g id="text_20">
    <!-- input_layer_type -->
    <g transform="translate(319.109062 45.84)scale(0.12 -0.12)">
     <defs>
      <path d="M 32.171875 -5.078125 
Q 28.375 -14.84375 24.75 -17.8125 
Q 21.140625 -20.796875 15.09375 -20.796875 
L 7.90625 -20.796875 
L 7.90625 -13.28125 
L 13.1875 -13.28125 
Q 16.890625 -13.28125 18.9375 -11.515625 
Q 21 -9.765625 23.484375 -3.21875 
L 25.09375 0.875 
L 2.984375 54.6875 
L 12.5 54.6875 
L 29.59375 11.921875 
L 46.6875 54.6875 
L 56.203125 54.6875 
z
" id="DejaVuSans-121"/>
     </defs>
     <use xlink:href="#DejaVuSans-105"/>
     <use x="27.783203" xlink:href="#DejaVuSans-110"/>
     <use x="91.162109" xlink:href="#DejaVuSans-112"/>
     <use x="154.638672" xlink:href="#DejaVuSans-117"/>
     <use x="218.017578" xlink:href="#DejaVuSans-116"/>
     <use x="257.226562" xlink:href="#DejaVuSans-95"/>
     <use x="307.226562" xlink:href="#DejaVuSans-108"/>
     <use x="335.009766" xlink:href="#DejaVuSans-97"/>
     <use x="396.289062" xlink:href="#DejaVuSans-121"/>
     <use x="455.46875" xlink:href="#DejaVuSans-101"/>
     <use x="516.992188" xlink:href="#DejaVuSans-114"/>
     <use x="558.105469" xlink:href="#DejaVuSans-95"/>
     <use x="608.105469" xlink:href="#DejaVuSans-116"/>
     <use x="647.314453" xlink:href="#DejaVuSans-121"/>
     <use x="706.494141" xlink:href="#DejaVuSans-112"/>
     <use x="769.970703" xlink:href="#DejaVuSans-101"/>
    </g>
   </g>
   <g id="legend_1">
    <g id="patch_63">
     <path d="M 97 373 
L 203.49375 373 
Q 205.49375 373 205.49375 371 
L 205.49375 254.575 
Q 205.49375 252.575 203.49375 252.575 
L 97 252.575 
Q 95 252.575 95 254.575 
L 95 371 
Q 95 373 97 373 
z
" style="fill:#ffffff;opacity:0.8;stroke:#cccccc;stroke-linejoin:miter;"/>
    </g>
    <g id="patch_64">
     <path d="M 99 264.173438 
L 119 264.173438 
L 119 257.173438 
L 99 257.173438 
z
" style="fill:#ea4335;"/>
    </g>
    <g id="text_21">
     <!-- CCE, SD=4 -->
     <g transform="translate(127 264.173438)scale(0.1 -0.1)">
      <defs>
       <path d="M 11.71875 12.40625 
L 22.015625 12.40625 
L 22.015625 4 
L 14.015625 -11.625 
L 7.71875 -11.625 
L 11.71875 4 
z
" id="DejaVuSans-44"/>
       <path id="DejaVuSans-32"/>
       <path d="M 53.515625 70.515625 
L 53.515625 60.890625 
Q 47.90625 63.578125 42.921875 64.890625 
Q 37.9375 66.21875 33.296875 66.21875 
Q 25.25 66.21875 20.875 63.09375 
Q 16.5 59.96875 16.5 54.203125 
Q 16.5 49.359375 19.40625 46.890625 
Q 22.3125 44.4375 30.421875 42.921875 
L 36.375 41.703125 
Q 47.40625 39.59375 52.65625 34.296875 
Q 57.90625 29 57.90625 20.125 
Q 57.90625 9.515625 50.796875 4.046875 
Q 43.703125 -1.421875 29.984375 -1.421875 
Q 24.8125 -1.421875 18.96875 -0.25 
Q 13.140625 0.921875 6.890625 3.21875 
L 6.890625 13.375 
Q 12.890625 10.015625 18.65625 8.296875 
Q 24.421875 6.59375 29.984375 6.59375 
Q 38.421875 6.59375 43.015625 9.90625 
Q 47.609375 13.234375 47.609375 19.390625 
Q 47.609375 24.75 44.3125 27.78125 
Q 41.015625 30.8125 33.5 32.328125 
L 27.484375 33.5 
Q 16.453125 35.6875 11.515625 40.375 
Q 6.59375 45.0625 6.59375 53.421875 
Q 6.59375 63.09375 13.40625 68.65625 
Q 20.21875 74.21875 32.171875 74.21875 
Q 37.3125 74.21875 42.625 73.28125 
Q 47.953125 72.359375 53.515625 70.515625 
z
" id="DejaVuSans-83"/>
       <path d="M 19.671875 64.796875 
L 19.671875 8.109375 
L 31.59375 8.109375 
Q 46.6875 8.109375 53.6875 14.9375 
Q 60.6875 21.78125 60.6875 36.53125 
Q 60.6875 51.171875 53.6875 57.984375 
Q 46.6875 64.796875 31.59375 64.796875 
z
M 9.8125 72.90625 
L 30.078125 72.90625 
Q 51.265625 72.90625 61.171875 64.09375 
Q 71.09375 55.28125 71.09375 36.53125 
Q 71.09375 17.671875 61.125 8.828125 
Q 51.171875 0 30.078125 0 
L 9.8125 0 
z
" id="DejaVuSans-68"/>
       <path d="M 10.59375 45.40625 
L 73.1875 45.40625 
L 73.1875 37.203125 
L 10.59375 37.203125 
z
M 10.59375 25.484375 
L 73.1875 25.484375 
L 73.1875 17.1875 
L 10.59375 17.1875 
z
" id="DejaVuSans-61"/>
       <path d="M 37.796875 64.3125 
L 12.890625 25.390625 
L 37.796875 25.390625 
z
M 35.203125 72.90625 
L 47.609375 72.90625 
L 47.609375 25.390625 
L 58.015625 25.390625 
L 58.015625 17.1875 
L 47.609375 17.1875 
L 47.609375 0 
L 37.796875 0 
L 37.796875 17.1875 
L 4.890625 17.1875 
L 4.890625 26.703125 
z
" id="DejaVuSans-52"/>
      </defs>
      <use xlink:href="#DejaVuSans-67"/>
      <use x="69.824219" xlink:href="#DejaVuSans-67"/>
      <use x="139.648438" xlink:href="#DejaVuSans-69"/>
      <use x="202.832031" xlink:href="#DejaVuSans-44"/>
      <use x="234.619141" xlink:href="#DejaVuSans-32"/>
      <use x="266.40625" xlink:href="#DejaVuSans-83"/>
      <use x="329.882812" xlink:href="#DejaVuSans-68"/>
      <use x="406.884766" xlink:href="#DejaVuSans-61"/>
      <use x="490.673828" xlink:href="#DejaVuSans-52"/>
     </g>
    </g>
    <g id="patch_65">
     <path d="M 99 278.851563 
L 119 278.851563 
L 119 271.851563 
L 99 271.851563 
z
" style="fill:#fbbc04;"/>
    </g>
    <g id="text_22">
     <!-- JSD, SD=4 -->
     <g transform="translate(127 278.851563)scale(0.1 -0.1)">
      <defs>
       <path d="M 9.8125 72.90625 
L 19.671875 72.90625 
L 19.671875 5.078125 
Q 19.671875 -8.109375 14.671875 -14.0625 
Q 9.671875 -20.015625 -1.421875 -20.015625 
L -5.171875 -20.015625 
L -5.171875 -11.71875 
L -2.09375 -11.71875 
Q 4.4375 -11.71875 7.125 -8.046875 
Q 9.8125 -4.390625 9.8125 5.078125 
z
" id="DejaVuSans-74"/>
      </defs>
      <use xlink:href="#DejaVuSans-74"/>
      <use x="29.492188" xlink:href="#DejaVuSans-83"/>
      <use x="92.96875" xlink:href="#DejaVuSans-68"/>
      <use x="169.970703" xlink:href="#DejaVuSans-44"/>
      <use x="201.757812" xlink:href="#DejaVuSans-32"/>
      <use x="233.544922" xlink:href="#DejaVuSans-83"/>
      <use x="297.021484" xlink:href="#DejaVuSans-68"/>
      <use x="374.023438" xlink:href="#DejaVuSans-61"/>
      <use x="457.8125" xlink:href="#DejaVuSans-52"/>
     </g>
    </g>
    <g id="patch_66">
     <path d="M 99 293.529688 
L 119 293.529688 
L 119 286.529688 
L 99 286.529688 
z
" style="fill:#4285f4;"/>
    </g>
    <g id="text_23">
     <!-- CCEu, SD=4 -->
     <g transform="translate(127 293.529688)scale(0.1 -0.1)">
      <use xlink:href="#DejaVuSans-67"/>
      <use x="69.824219" xlink:href="#DejaVuSans-67"/>
      <use x="139.648438" xlink:href="#DejaVuSans-69"/>
      <use x="202.832031" xlink:href="#DejaVuSans-117"/>
      <use x="266.210938" xlink:href="#DejaVuSans-44"/>
      <use x="297.998047" xlink:href="#DejaVuSans-32"/>
      <use x="329.785156" xlink:href="#DejaVuSans-83"/>
      <use x="393.261719" xlink:href="#DejaVuSans-68"/>
      <use x="470.263672" xlink:href="#DejaVuSans-61"/>
      <use x="554.052734" xlink:href="#DejaVuSans-52"/>
     </g>
    </g>
    <g id="patch_67">
     <path d="M 99 308.207813 
L 119 308.207813 
L 119 301.207813 
L 99 301.207813 
z
"/>
    </g>
    <g id="text_24">
     <!-- JSDu, SD=4 -->
     <g transform="translate(127 308.207813)scale(0.1 -0.1)">
      <use xlink:href="#DejaVuSans-74"/>
      <use x="29.492188" xlink:href="#DejaVuSans-83"/>
      <use x="92.96875" xlink:href="#DejaVuSans-68"/>
      <use x="169.970703" xlink:href="#DejaVuSans-117"/>
      <use x="233.349609" xlink:href="#DejaVuSans-44"/>
      <use x="265.136719" xlink:href="#DejaVuSans-32"/>
      <use x="296.923828" xlink:href="#DejaVuSans-83"/>
      <use x="360.400391" xlink:href="#DejaVuSans-68"/>
      <use x="437.402344" xlink:href="#DejaVuSans-61"/>
      <use x="521.191406" xlink:href="#DejaVuSans-52"/>
     </g>
    </g>
    <g id="patch_68">
     <path d="M 99 322.885938 
L 119 322.885938 
L 119 315.885938 
L 99 315.885938 
z
" style="fill:#34a853;"/>
    </g>
    <g id="text_25">
     <!-- CCE, SD=100 -->
     <g transform="translate(127 322.885938)scale(0.1 -0.1)">
      <use xlink:href="#DejaVuSans-67"/>
      <use x="69.824219" xlink:href="#DejaVuSans-67"/>
      <use x="139.648438" xlink:href="#DejaVuSans-69"/>
      <use x="202.832031" xlink:href="#DejaVuSans-44"/>
      <use x="234.619141" xlink:href="#DejaVuSans-32"/>
      <use x="266.40625" xlink:href="#DejaVuSans-83"/>
      <use x="329.882812" xlink:href="#DejaVuSans-68"/>
      <use x="406.884766" xlink:href="#DejaVuSans-61"/>
      <use x="490.673828" xlink:href="#DejaVuSans-49"/>
      <use x="554.296875" xlink:href="#DejaVuSans-48"/>
      <use x="617.919922" xlink:href="#DejaVuSans-48"/>
     </g>
    </g>
    <g id="patch_69">
     <path d="M 99 337.564063 
L 119 337.564063 
L 119 330.564063 
L 99 330.564063 
z
" style="fill:#46bdc6;"/>
    </g>
    <g id="text_26">
     <!-- JSD, SD=100 -->
     <g transform="translate(127 337.564063)scale(0.1 -0.1)">
      <use xlink:href="#DejaVuSans-74"/>
      <use x="29.492188" xlink:href="#DejaVuSans-83"/>
      <use x="92.96875" xlink:href="#DejaVuSans-68"/>
      <use x="169.970703" xlink:href="#DejaVuSans-44"/>
      <use x="201.757812" xlink:href="#DejaVuSans-32"/>
      <use x="233.544922" xlink:href="#DejaVuSans-83"/>
      <use x="297.021484" xlink:href="#DejaVuSans-68"/>
      <use x="374.023438" xlink:href="#DejaVuSans-61"/>
      <use x="457.8125" xlink:href="#DejaVuSans-49"/>
      <use x="521.435547" xlink:href="#DejaVuSans-48"/>
      <use x="585.058594" xlink:href="#DejaVuSans-48"/>
     </g>
    </g>
    <g id="patch_70">
     <path d="M 99 352.242188 
L 119 352.242188 
L 119 345.242188 
L 99 345.242188 
z
" style="fill:#f4cccc;"/>
    </g>
    <g id="text_27">
     <!-- CCEu, SD=100 -->
     <g transform="translate(127 352.242188)scale(0.1 -0.1)">
      <use xlink:href="#DejaVuSans-67"/>
      <use x="69.824219" xlink:href="#DejaVuSans-67"/>
      <use x="139.648438" xlink:href="#DejaVuSans-69"/>
      <use x="202.832031" xlink:href="#DejaVuSans-117"/>
      <use x="266.210938" xlink:href="#DejaVuSans-44"/>
      <use x="297.998047" xlink:href="#DejaVuSans-32"/>
      <use x="329.785156" xlink:href="#DejaVuSans-83"/>
      <use x="393.261719" xlink:href="#DejaVuSans-68"/>
      <use x="470.263672" xlink:href="#DejaVuSans-61"/>
      <use x="554.052734" xlink:href="#DejaVuSans-49"/>
      <use x="617.675781" xlink:href="#DejaVuSans-48"/>
      <use x="681.298828" xlink:href="#DejaVuSans-48"/>
     </g>
    </g>
    <g id="patch_71">
     <path d="M 99 366.920313 
L 119 366.920313 
L 119 359.920313 
L 99 359.920313 
z
" style="fill:#c9daf8;"/>
    </g>
    <g id="text_28">
     <!-- JSDu, SD=100 -->
     <g transform="translate(127 366.920313)scale(0.1 -0.1)">
      <use xlink:href="#DejaVuSans-74"/>
      <use x="29.492188" xlink:href="#DejaVuSans-83"/>
      <use x="92.96875" xlink:href="#DejaVuSans-68"/>
      <use x="169.970703" xlink:href="#DejaVuSans-117"/>
      <use x="233.349609" xlink:href="#DejaVuSans-44"/>
      <use x="265.136719" xlink:href="#DejaVuSans-32"/>
      <use x="296.923828" xlink:href="#DejaVuSans-83"/>
      <use x="360.400391" xlink:href="#DejaVuSans-68"/>
      <use x="437.402344" xlink:href="#DejaVuSans-61"/>
      <use x="521.191406" xlink:href="#DejaVuSans-49"/>
      <use x="584.814453" xlink:href="#DejaVuSans-48"/>
      <use x="648.4375" xlink:href="#DejaVuSans-48"/>
     </g>
    </g>
   </g>
  </g>
 </g>
 <defs>
  <clipPath id="pcbccca3091">
   <rect height="326.16" width="558" x="90" y="51.84"/>
  </clipPath>
 </defs>
</svg>
